<svg width="16" height="16" viewBox="0 0 16 16" fill="none" xmlns="http://www.w3.org/2000/svg">
<mask id="mask0_2393_21215" style="mask-type:alpha" maskUnits="userSpaceOnUse" x="0" y="0" width="16" height="16">
<rect width="16" height="16" fill="#D9D9D9"/>
</mask>
<g mask="url(#mask0_2393_21215)">
<path d="M7.99968 9.78467C7.91934 9.78467 7.84456 9.77184 7.77534 9.74617C7.70612 9.72051 7.64029 9.67651 7.57784 9.61417L4.58168 6.61801C4.48945 6.52568 4.44223 6.40962 4.44001 6.26984C4.4379 6.13017 4.48512 6.01201 4.58168 5.91534C4.67834 5.81879 4.79545 5.77051 4.93301 5.77051C5.07056 5.77051 5.18768 5.81879 5.28434 5.91534L7.99968 8.63084L10.715 5.91534C10.8073 5.82312 10.9234 5.7759 11.0632 5.77367C11.2028 5.77156 11.321 5.81879 11.4177 5.91534C11.5142 6.01201 11.5625 6.12912 11.5625 6.26667C11.5625 6.40423 11.5142 6.52134 11.4177 6.61801L8.42151 9.61417C8.35906 9.67651 8.29323 9.72051 8.22401 9.74617C8.15479 9.77184 8.08001 9.78467 7.99968 9.78467Z" fill="#ADADAD"/>
</g>
</svg>
