<svg width="390" height="64" viewBox="0 0 390 64" fill="none" xmlns="http://www.w3.org/2000/svg">
<path d="M13.1925 63.9978C6.11786 63.9978 0.397949 58.2779 0.397949 51.2033V12.7945C0.397949 5.71991 6.11786 0 13.1925 0C20.2671 0 25.987 5.71991 25.987 12.7945V51.2033C25.987 58.2779 20.2671 63.9978 13.1925 63.9978Z" fill="#2F54EB"/>
<path d="M18.3617 41.0241C13.3693 36.0317 13.3693 27.9285 18.3617 22.911L37.5284 3.74429C42.5208 -1.2481 50.624 -1.2481 55.6415 3.74429C60.6339 8.73667 60.6339 16.8399 55.6415 21.8573L36.4748 41.0241C31.4573 46.0415 23.3541 46.0415 18.3617 41.0241Z" fill="#57A2F8"/>
<path d="M55.6341 60.2559C50.6417 65.2483 42.5385 65.2483 37.521 60.2559L18.3041 41.039C13.3117 36.0466 13.3117 27.9434 18.3041 22.9259C23.2965 17.9335 31.3997 17.9335 36.4172 22.9259L55.6341 42.1428C60.6264 47.1352 60.6264 55.2384 55.6341 60.2559Z" fill="#B2DCFF"/>
<rect x="70.8125" y="28.7998" width="16.0008" height="6.4003" fill="#121212"/>
<path d="M259.268 10.4277V53.0537H251.204V10.4277H259.268Z" fill="#121212"/>
<path d="M211.243 36.9822C211.243 33.7565 211.877 30.8955 213.144 28.3994C214.449 25.9033 216.197 23.9832 218.386 22.6391C220.613 21.2951 223.09 20.623 225.816 20.623C228.197 20.623 230.271 21.1031 232.037 22.0631C233.842 23.0232 235.282 24.2328 236.358 25.6921V21.1415H244.48V53.0534H236.358V48.3876C235.321 49.8852 233.881 51.1333 232.037 52.1317C230.233 53.0918 228.14 53.5718 225.759 53.5718C223.071 53.5718 220.613 52.8806 218.386 51.4981C216.197 50.1156 214.449 48.1763 213.144 45.6802C211.877 43.1457 211.243 40.2464 211.243 36.9822ZM236.358 37.0974C236.358 35.1389 235.974 33.4685 235.206 32.086C234.438 30.6651 233.401 29.5899 232.095 28.8602C230.789 28.0922 229.388 27.7082 227.89 27.7082C226.392 27.7082 225.01 28.073 223.743 28.8026C222.475 29.5323 221.439 30.6075 220.632 32.0284C219.864 33.4109 219.48 35.0621 219.48 36.9822C219.48 38.9023 219.864 40.592 220.632 42.0513C221.439 43.4721 222.475 44.5666 223.743 45.3346C225.048 46.1026 226.431 46.4867 227.89 46.4867C229.388 46.4867 230.789 46.1219 232.095 45.3922C233.401 44.6242 234.438 43.5489 235.206 42.1665C235.974 40.7456 236.358 39.0559 236.358 37.0974Z" fill="#121212"/>
<path d="M201.526 27.7659V43.2034C201.526 44.2787 201.775 45.0659 202.275 45.5651C202.812 46.026 203.696 46.2564 204.924 46.2564H208.669V53.0535H203.6C196.802 53.0535 193.404 49.7509 193.404 43.1458V27.7659H189.602V21.1416H193.404V13.25H201.526V21.1416H208.669V27.7659H201.526Z" fill="#121212"/>
<path d="M178.064 26.0963C179.101 24.4066 180.445 23.0818 182.096 22.1217C183.786 21.1617 185.706 20.6816 187.857 20.6816V29.1492H185.725C183.191 29.1492 181.271 29.7445 179.965 30.9349C178.698 32.1254 178.064 34.1991 178.064 37.156V53.0544H170V21.1425H178.064V26.0963Z" fill="#121212"/>
<path d="M148.589 53.5718C145.517 53.5718 142.752 52.8998 140.294 51.5557C137.837 50.1732 135.897 48.2339 134.477 45.7378C133.094 43.2417 132.403 40.3616 132.403 37.0974C132.403 33.8333 133.113 30.9531 134.534 28.457C135.993 25.9609 137.971 24.0408 140.467 22.6967C142.963 21.3143 145.747 20.623 148.82 20.623C151.892 20.623 154.676 21.3143 157.172 22.6967C159.668 24.0408 161.627 25.9609 163.047 28.457C164.507 30.9531 165.236 33.8333 165.236 37.0974C165.236 40.3616 164.488 43.2417 162.99 45.7378C161.531 48.2339 159.534 50.1732 156.999 51.5557C154.503 52.8998 151.7 53.5718 148.589 53.5718ZM148.589 46.5443C150.048 46.5443 151.412 46.1987 152.679 45.5074C153.985 44.7778 155.021 43.7025 155.79 42.2817C156.558 40.8608 156.942 39.1327 156.942 37.0974C156.942 34.0637 156.135 31.7404 154.522 30.1275C152.948 28.4762 151.009 27.6506 148.704 27.6506C146.4 27.6506 144.461 28.4762 142.887 30.1275C141.35 31.7404 140.582 34.0637 140.582 37.0974C140.582 40.1312 141.331 42.4737 142.829 44.125C144.365 45.7378 146.285 46.5443 148.589 46.5443Z" fill="#121212"/>
<path d="M129.845 25.2898C129.845 27.4403 129.327 29.4564 128.29 31.3381C127.291 33.2198 125.698 34.7367 123.509 35.8887C121.358 37.0408 118.632 37.6168 115.329 37.6168H108.59V53.0544H100.525V12.8477H115.329C118.44 12.8477 121.09 13.3853 123.278 14.4605C125.467 15.5358 127.099 17.0143 128.175 18.8959C129.288 20.7776 129.845 22.9089 129.845 25.2898ZM114.984 31.1077C117.211 31.1077 118.862 30.6085 119.938 29.61C121.013 28.5732 121.55 27.1331 121.55 25.2898C121.55 21.3729 119.361 19.4144 114.984 19.4144H108.59V31.1077H114.984Z" fill="#121212"/>
<path d="M374.683 19.7597V27.9393H387.874V35.5429H374.683V44.4137H389.602V52.3053H364.833V11.8682H389.602V19.7597H374.683Z" fill="#121212"/>
<path d="M358.845 52.3053H348.995L332.52 27.3633V52.3053H322.67V11.8682H332.52L348.995 36.9253V11.8682H358.845V52.3053Z" fill="#121212"/>
<path d="M297.663 52.7083C293.862 52.7083 290.367 51.8251 287.18 50.0586C284.031 48.2921 281.515 45.8344 279.634 42.6855C277.79 39.4981 276.869 35.9268 276.869 31.9714C276.869 28.016 277.79 24.4638 279.634 21.3149C281.515 18.1659 284.031 15.7082 287.18 13.9417C290.367 12.1752 293.862 11.292 297.663 11.292C301.465 11.292 304.941 12.1752 308.089 13.9417C311.277 15.7082 313.773 18.1659 315.578 21.3149C317.421 24.4638 318.343 28.016 318.343 31.9714C318.343 35.9268 317.421 39.4981 315.578 42.6855C313.735 45.8344 311.238 48.2921 308.089 50.0586C304.941 51.8251 301.465 52.7083 297.663 52.7083ZM297.663 43.7223C300.889 43.7223 303.462 42.6471 305.382 40.4966C307.341 38.3461 308.32 35.5043 308.32 31.9714C308.32 28.4 307.341 25.5583 305.382 23.4462C303.462 21.2957 300.889 20.2204 297.663 20.2204C294.399 20.2204 291.788 21.2765 289.829 23.3886C287.909 25.5007 286.949 28.3616 286.949 31.9714C286.949 35.5427 287.909 38.4037 289.829 40.5542C291.788 42.6663 294.399 43.7223 297.663 43.7223Z" fill="#121212"/>
</svg>
