<svg width="32" height="32" viewBox="0 0 32 32" fill="none" xmlns="http://www.w3.org/2000/svg">
<path d="M27.9997 12.2813C27.9997 7.72504 24.2449 4.00027 19.5557 4.00004H12.4437C7.7545 4.00027 3.99967 7.72505 3.99967 12.2813C4 16.8373 7.7547 20.561 12.4437 20.5612H18.2236L21.9945 23.7748L21.9893 20.3308L22.7353 19.9636L22.8252 19.9206L22.859 19.9037L22.8955 19.8881C25.9108 18.6173 27.9994 15.6768 27.9997 12.2813ZM30.6663 12.2813C30.6661 16.5206 28.2209 20.1914 24.6585 22.0065L24.6715 29.5586L17.2432 23.2279H12.4437C6.32458 23.2277 1.33334 18.3523 1.33301 12.2813C1.33301 6.21 6.32438 1.3336 12.4437 1.33337H19.5557C25.675 1.3336 30.6663 6.21 30.6663 12.2813Z" fill="white"/>
<path d="M10.6667 14.0001C9.74444 14.0001 9 13.2556 9 12.3334C9 11.4112 9.74444 10.6667 10.6667 10.6667C11.5889 10.6667 12.3333 11.4112 12.3333 12.3334C12.3333 13.2556 11.5889 14.0001 10.6667 14.0001Z" fill="white"/>
<path d="M15.9997 14.0001C15.0775 14.0001 14.333 13.2556 14.333 12.3334C14.333 11.4112 15.0775 10.6667 15.9997 10.6667C16.9219 10.6667 17.6663 11.4112 17.6663 12.3334C17.6663 13.2556 16.9219 14.0001 15.9997 14.0001Z" fill="white"/>
<path d="M21.3337 14.0001C20.4114 14.0001 19.667 13.2556 19.667 12.3334C19.667 11.4112 20.4114 10.6667 21.3337 10.6667C22.2559 10.6667 23.0003 11.4112 23.0003 12.3334C23.0003 13.2556 22.2559 14.0001 21.3337 14.0001Z" fill="white"/>
</svg>
