<svg width="25" height="24" viewBox="0 0 25 24" fill="none" xmlns="http://www.w3.org/2000/svg">
<mask id="mask0_4691_3062" style="mask-type:alpha" maskUnits="userSpaceOnUse" x="0" y="0" width="25" height="24">
<rect x="0.333984" width="24" height="24" fill="#D9D9D9"/>
</mask>
<g mask="url(#mask0_4691_3062)">
<path d="M12.334 21C12.0507 21 11.8132 20.9042 11.6215 20.7125C11.4298 20.5208 11.334 20.2833 11.334 20V13H4.33398C4.05065 13 3.81315 12.9042 3.62148 12.7125C3.42982 12.5208 3.33398 12.2833 3.33398 12C3.33398 11.7167 3.42982 11.4792 3.62148 11.2875C3.81315 11.0958 4.05065 11 4.33398 11H11.334V4C11.334 3.71667 11.4298 3.47917 11.6215 3.2875C11.8132 3.09583 12.0507 3 12.334 3C12.6173 3 12.8548 3.09583 13.0465 3.2875C13.2382 3.47917 13.334 3.71667 13.334 4V11H20.334C20.6173 11 20.8548 11.0958 21.0465 11.2875C21.2382 11.4792 21.334 11.7167 21.334 12C21.334 12.2833 21.2382 12.5208 21.0465 12.7125C20.8548 12.9042 20.6173 13 20.334 13H13.334V20C13.334 20.2833 13.2382 20.5208 13.0465 20.7125C12.8548 20.9042 12.6173 21 12.334 21Z" fill="#777777"/>
</g>
</svg>
