<svg width="21" height="21" viewBox="0 0 21 21" fill="none" xmlns="http://www.w3.org/2000/svg">
<mask id="mask0_4673_1509" style="mask-type:alpha" maskUnits="userSpaceOnUse" x="0" y="0" width="21" height="21">
<rect width="21" height="21" fill="#D9D9D9"/>
</mask>
<g mask="url(#mask0_4673_1509)">
<path d="M15.3125 16.1875V17.9375C15.3125 18.0542 15.3563 18.1562 15.4438 18.2438C15.5313 18.3313 15.6333 18.375 15.75 18.375C15.8667 18.375 15.9688 18.3313 16.0563 18.2438C16.1438 18.1562 16.1875 18.0542 16.1875 17.9375V16.1875H17.9375C18.0542 16.1875 18.1562 16.1438 18.2438 16.0563C18.3313 15.9688 18.375 15.8667 18.375 15.75C18.375 15.6333 18.3313 15.5313 18.2438 15.4438C18.1562 15.3563 18.0542 15.3125 17.9375 15.3125H16.1875V13.5625C16.1875 13.4458 16.1438 13.3438 16.0563 13.2563C15.9688 13.1688 15.8667 13.125 15.75 13.125C15.6333 13.125 15.5313 13.1688 15.4438 13.2563C15.3563 13.3438 15.3125 13.4458 15.3125 13.5625V15.3125H13.5625C13.4458 15.3125 13.3438 15.3563 13.2563 15.4438C13.1688 15.5313 13.125 15.6333 13.125 15.75C13.125 15.8667 13.1688 15.9688 13.2563 16.0563C13.3438 16.1438 13.4458 16.1875 13.5625 16.1875H15.3125ZM4.375 18.375C3.89375 18.375 3.48177 18.2036 3.13906 17.8609C2.79635 17.5182 2.625 17.1062 2.625 16.625V4.375C2.625 3.89375 2.79635 3.48177 3.13906 3.13906C3.48177 2.79635 3.89375 2.625 4.375 2.625H16.625C17.1062 2.625 17.5182 2.79635 17.8609 3.13906C18.2036 3.48177 18.375 3.89375 18.375 4.375V8.75C18.375 8.99792 18.2911 9.20573 18.1234 9.37344C17.9557 9.54115 17.7479 9.625 17.5 9.625C17.2521 9.625 17.0443 9.54115 16.8766 9.37344C16.7089 9.20573 16.625 8.99792 16.625 8.75V4.375H4.375V16.625H8.75C8.99792 16.625 9.20573 16.7089 9.37344 16.8766C9.54115 17.0443 9.625 17.2521 9.625 17.5C9.625 17.7479 9.54115 17.9557 9.37344 18.1234C9.20573 18.2911 8.99792 18.375 8.75 18.375H4.375ZM4.375 16.625V4.375V9.69062V9.625V16.625ZM6.125 14C6.125 14.2479 6.20885 14.4557 6.37656 14.6234C6.54427 14.7911 6.75208 14.875 7 14.875H8.81563C9.06354 14.875 9.27135 14.7911 9.43906 14.6234C9.60677 14.4557 9.69062 14.2479 9.69062 14C9.69062 13.7521 9.60677 13.5443 9.43906 13.3766C9.27135 13.2089 9.06354 13.125 8.81563 13.125H7C6.75208 13.125 6.54427 13.2089 6.37656 13.3766C6.20885 13.5443 6.125 13.7521 6.125 14ZM6.125 10.5C6.125 10.7479 6.20885 10.9557 6.37656 11.1234C6.54427 11.2911 6.75208 11.375 7 11.375H11.375C11.6229 11.375 11.8307 11.2911 11.9984 11.1234C12.1661 10.9557 12.25 10.7479 12.25 10.5C12.25 10.2521 12.1661 10.0443 11.9984 9.87656C11.8307 9.70885 11.6229 9.625 11.375 9.625H7C6.75208 9.625 6.54427 9.70885 6.37656 9.87656C6.20885 10.0443 6.125 10.2521 6.125 10.5ZM6.125 7C6.125 7.24792 6.20885 7.45573 6.37656 7.62344C6.54427 7.79115 6.75208 7.875 7 7.875H14C14.2479 7.875 14.4557 7.79115 14.6234 7.62344C14.7911 7.45573 14.875 7.24792 14.875 7C14.875 6.75208 14.7911 6.54427 14.6234 6.37656C14.4557 6.20885 14.2479 6.125 14 6.125H7C6.75208 6.125 6.54427 6.20885 6.37656 6.37656C6.20885 6.54427 6.125 6.75208 6.125 7ZM15.75 20.125C14.5396 20.125 13.5078 19.6984 12.6547 18.8453C11.8016 17.9922 11.375 16.9604 11.375 15.75C11.375 14.5396 11.8016 13.5078 12.6547 12.6547C13.5078 11.8016 14.5396 11.375 15.75 11.375C16.9604 11.375 17.9922 11.8016 18.8453 12.6547C19.6984 13.5078 20.125 14.5396 20.125 15.75C20.125 16.9604 19.6984 17.9922 18.8453 18.8453C17.9922 19.6984 16.9604 20.125 15.75 20.125Z" fill="#777777"/>
</g>
</svg>
