<svg width="36" height="36" viewBox="0 0 36 36" fill="none" xmlns="http://www.w3.org/2000/svg">
<mask id="mask0_4076_11153" style="mask-type:alpha" maskUnits="userSpaceOnUse" x="0" y="0" width="36" height="36">
<rect width="36" height="36" fill="#EBF0F5"/>
</mask>
<g mask="url(#mask0_4076_11153)">
<path d="M8.4 23.01C8.6 22.95 8.795 22.9 8.985 22.86C9.175 22.82 9.38 22.8 9.6 22.8H10.8V8.4H9.6C9.26 8.4 8.975 8.515 8.745 8.745C8.515 8.975 8.4 9.26 8.4 9.6V23.01ZM9.6 30C8.6 30 7.75 29.65 7.05 28.95C6.35 28.25 6 27.4 6 26.4V9.6C6 8.6 6.35 7.75 7.05 7.05C7.75 6.35 8.6 6 9.6 6H16.8C17.14 6 17.425 6.115 17.655 6.345C17.885 6.575 18 6.86 18 7.2C18 7.54 17.885 7.825 17.655 8.055C17.425 8.285 17.14 8.4 16.8 8.4H13.2V22.8H20.4V20.4C20.4 20.06 20.515 19.775 20.745 19.545C20.975 19.315 21.26 19.2 21.6 19.2C21.94 19.2 22.225 19.315 22.455 19.545C22.685 19.775 22.8 20.06 22.8 20.4V25.2H9.6C9.26 25.2 8.975 25.315 8.745 25.545C8.515 25.775 8.4 26.06 8.4 26.4C8.4 26.74 8.515 27.025 8.745 27.255C8.975 27.485 9.26 27.6 9.6 27.6H25.2V19.2C25.2 18.86 25.315 18.575 25.545 18.345C25.775 18.115 26.06 18 26.4 18C26.74 18 27.025 18.115 27.255 18.345C27.485 18.575 27.6 18.86 27.6 19.2V27.6C27.6 28.26 27.365 28.825 26.895 29.295C26.425 29.765 25.86 30 25.2 30H9.6Z" fill="black"/>
<path d="M23.4008 18.0008C23.4008 16.1608 24.0408 14.6008 25.3208 13.3208C26.6008 12.0408 28.1608 11.4008 30.0008 11.4008C28.1608 11.4008 26.6008 10.7608 25.3208 9.48078C24.0408 8.20078 23.4008 6.64078 23.4008 4.80078C23.4008 6.64078 22.7608 8.20078 21.4808 9.48078C20.2008 10.7608 18.6408 11.4008 16.8008 11.4008C18.6408 11.4008 20.2008 12.0408 21.4808 13.3208C22.7608 14.6008 23.4008 16.1608 23.4008 18.0008Z" fill="url(#paint0_linear_4076_11153)"/>
</g>
<defs>
<linearGradient id="paint0_linear_4076_11153" x1="21.5007" y1="9.50073" x2="26.1114" y2="9.6169" gradientUnits="userSpaceOnUse">
<stop stop-color="#3494E6"/>
<stop offset="1" stop-color="#3CBA92"/>
</linearGradient>
</defs>
</svg>
