<svg width="25" height="24" viewBox="0 0 25 24" fill="none" xmlns="http://www.w3.org/2000/svg">
<mask id="mask0_4076_10895" style="mask-type:alpha" maskUnits="userSpaceOnUse" x="0" y="0" width="25" height="24">
<rect x="0.5" width="24" height="24" fill="#316094"/>
</mask>
<g mask="url(#mask0_4076_10895)">
<path d="M6.1 15.14C6.23333 15.1 6.36333 15.0667 6.49 15.04C6.61667 15.0133 6.75333 15 6.9 15H7.7V5.4H6.9C6.67333 5.4 6.48333 5.47667 6.33 5.63C6.17667 5.78333 6.1 5.97333 6.1 6.2V15.14ZM6.9 19.8C6.23333 19.8 5.66667 19.5667 5.2 19.1C4.73333 18.6333 4.5 18.0667 4.5 17.4V6.2C4.5 5.53333 4.73333 4.96667 5.2 4.5C5.66667 4.03333 6.23333 3.8 6.9 3.8H11.7C11.9267 3.8 12.1167 3.87667 12.27 4.03C12.4233 4.18333 12.5 4.37333 12.5 4.6C12.5 4.82667 12.4233 5.01667 12.27 5.17C12.1167 5.32333 11.9267 5.4 11.7 5.4H9.3V15H14.1V13.4C14.1 13.1733 14.1767 12.9833 14.33 12.83C14.4833 12.6767 14.6733 12.6 14.9 12.6C15.1267 12.6 15.3167 12.6767 15.47 12.83C15.6233 12.9833 15.7 13.1733 15.7 13.4V16.6H6.9C6.67333 16.6 6.48333 16.6767 6.33 16.83C6.17667 16.9833 6.1 17.1733 6.1 17.4C6.1 17.6267 6.17667 17.8167 6.33 17.97C6.48333 18.1233 6.67333 18.2 6.9 18.2H17.3V12.6C17.3 12.3733 17.3767 12.1833 17.53 12.03C17.6833 11.8767 17.8733 11.8 18.1 11.8C18.3267 11.8 18.5167 11.8767 18.67 12.03C18.8233 12.1833 18.9 12.3733 18.9 12.6V18.2C18.9 18.64 18.7433 19.0167 18.43 19.33C18.1167 19.6433 17.74 19.8 17.3 19.8H6.9ZM16.1 11.8C16.1 10.5733 16.5267 9.53333 17.38 8.68C18.2333 7.82667 19.2733 7.4 20.5 7.4C19.2733 7.4 18.2333 6.97333 17.38 6.12C16.5267 5.26667 16.1 4.22667 16.1 3C16.1 4.22667 15.6733 5.26667 14.82 6.12C13.9667 6.97333 12.9267 7.4 11.7 7.4C12.9267 7.4 13.9667 7.82667 14.82 8.68C15.6733 9.53333 16.1 10.5733 16.1 11.8Z" fill="#777777"/>
</g>
</svg>
