<svg width="30" height="29" viewBox="0 0 30 29" fill="none" xmlns="http://www.w3.org/2000/svg">
<path d="M13.875 12.8652V18.5344C13.875 18.8509 13.9829 19.1163 14.1986 19.3306C14.4144 19.5446 14.6816 19.6516 15.0004 19.6516C15.3194 19.6516 15.589 19.5432 15.8092 19.3265C16.0293 19.1095 16.1393 18.8407 16.1393 18.5202V12.8652L18.1384 14.8505C18.3461 15.0568 18.6073 15.1575 18.9218 15.1525C19.236 15.1478 19.497 15.0423 19.7048 14.836C19.9125 14.6299 20.0164 14.37 20.0164 14.0562C20.0164 13.7423 19.9125 13.4839 19.7048 13.2808L15.9634 9.57945C15.6924 9.31032 15.376 9.17576 15.0143 9.17576C14.6528 9.17576 14.3365 9.31032 14.0655 9.57945L10.3241 13.295C10.1164 13.5013 10.0125 13.7581 10.0125 14.0655C10.0125 14.3731 10.1164 14.6299 10.3241 14.836C10.5319 15.0423 10.7938 15.1455 11.1098 15.1455C11.4258 15.1455 11.686 15.0423 11.8905 14.836L13.875 12.8652ZM15.0026 28.303C13.0316 28.303 11.179 27.9316 9.44475 27.1888C7.7105 26.4459 6.202 25.4378 4.91925 24.1644C3.6365 22.891 2.62087 21.3936 1.87237 19.6721C1.12412 17.9506 0.75 16.1112 0.75 14.1541C0.75 12.1967 1.124 10.3569 1.872 8.63465C2.62 6.91239 3.63513 5.41431 4.91738 4.14043C6.19963 2.86655 7.7075 1.85794 9.441 1.11462C11.1745 0.371539 13.0266 0 14.9974 0C16.9684 0 18.821 0.371414 20.5553 1.11424C22.2895 1.85707 23.798 2.86518 25.0808 4.13857C26.3635 5.41195 27.3791 6.90941 28.1276 8.63092C28.8759 10.3524 29.25 12.1918 29.25 14.1489C29.25 16.1063 28.876 17.9461 28.128 19.6683C27.38 21.3906 26.3649 22.8887 25.0826 24.1626C23.8004 25.4364 22.2925 26.4451 20.559 27.1884C18.8255 27.9315 16.9734 28.303 15.0026 28.303Z" fill="#316094"/>
</svg>
