<svg width="36" height="36" viewBox="0 0 36 36" fill="none" xmlns="http://www.w3.org/2000/svg">
<mask id="mask0_4076_14647" style="mask-type:alpha" maskUnits="userSpaceOnUse" x="0" y="0" width="36" height="36">
<rect width="36" height="36" fill="#D9D9D9"/>
</mask>
<g mask="url(#mask0_4076_14647)">
<path d="M11.7377 19.4992L19.0877 26.8492C19.3877 27.1492 19.5314 27.4992 19.5189 27.8992C19.5064 28.2992 19.3502 28.6492 19.0502 28.9492C18.7502 29.2242 18.4002 29.368 18.0002 29.3805C17.6002 29.393 17.2502 29.2492 16.9502 28.9492L7.0502 19.0492C6.9002 18.8992 6.79395 18.7367 6.73145 18.5617C6.66895 18.3867 6.6377 18.1992 6.6377 17.9992C6.6377 17.7992 6.66895 17.6117 6.73145 17.4367C6.79395 17.2617 6.9002 17.0992 7.0502 16.9492L16.9502 7.04922C17.2252 6.77422 17.5689 6.63672 17.9814 6.63672C18.3939 6.63672 18.7502 6.77422 19.0502 7.04922C19.3502 7.34922 19.5002 7.70547 19.5002 8.11797C19.5002 8.53047 19.3502 8.88672 19.0502 9.18672L11.7377 16.4992H28.5002C28.9252 16.4992 29.2814 16.643 29.5689 16.9305C29.8564 17.218 30.0002 17.5742 30.0002 17.9992C30.0002 18.4242 29.8564 18.7805 29.5689 19.068C29.2814 19.3555 28.9252 19.4992 28.5002 19.4992H11.7377Z" fill="#1C1B1F"/>
</g>
</svg>
