<svg width="30" height="36" viewBox="0 0 30 36" fill="none" xmlns="http://www.w3.org/2000/svg">
<mask id="mask0_4076_14721" style="mask-type:alpha" maskUnits="userSpaceOnUse" x="0" y="0" width="30" height="36">
<rect width="30" height="36" fill="#D9D9D9"/>
</mask>
<g mask="url(#mask0_4076_14721)">
<path d="M14.75 18.6923L16.5327 19.7828C16.7787 19.9385 17.0234 19.926 17.2666 19.7453C17.5101 19.5645 17.5991 19.326 17.5336 19.0297L17.0604 16.9991L18.6241 15.6607C18.8549 15.4548 18.9265 15.2139 18.839 14.9381C18.7515 14.6621 18.552 14.5039 18.2405 14.4634L16.1952 14.2905L15.3673 12.3577C15.252 12.0865 15.0463 11.9509 14.75 11.9509C14.4537 11.9509 14.248 12.0865 14.1328 12.3577L13.3048 14.2905L11.2595 14.4634C10.948 14.5039 10.7485 14.6621 10.661 14.9381C10.5735 15.2139 10.6451 15.4548 10.8759 15.6607L12.4396 16.9991L11.9664 19.0297C11.9009 19.326 11.9899 19.5645 12.2334 19.7453C12.4766 19.926 12.7213 19.9385 12.9672 19.7828L14.75 18.6923ZM14.75 26.1922L8.79613 28.7479C7.89238 29.1344 7.03375 29.0604 6.22025 28.5259C5.40675 27.9914 5 27.2395 5 26.2703V7.96163C5 7.20387 5.2625 6.5625 5.7875 6.0375C6.3125 5.5125 6.95387 5.25 7.71163 5.25H21.7884C22.5461 5.25 23.1875 5.5125 23.7125 6.0375C24.2375 6.5625 24.5 7.20387 24.5 7.96163V26.2703C24.5 27.2395 24.0933 27.9914 23.2798 28.5259C22.4663 29.0604 21.6076 29.1344 20.7039 28.7479L14.75 26.1922ZM14.75 23.7L21.6009 26.6509C21.7549 26.7181 21.9015 26.7037 22.0407 26.6077C22.1802 26.5115 22.25 26.3816 22.25 26.2181V7.96163C22.25 7.84612 22.2019 7.74037 22.1056 7.64437C22.0096 7.54812 21.9039 7.5 21.7884 7.5H7.71163C7.59612 7.5 7.49038 7.54812 7.39438 7.64437C7.29813 7.74037 7.25 7.84612 7.25 7.96163V26.2181C7.25 26.3816 7.31975 26.5115 7.45925 26.6077C7.5985 26.7037 7.74513 26.7181 7.89913 26.6509L14.75 23.7Z" fill="#1C1B1F"/>
</g>
</svg>
