<svg width="24" height="24" viewBox="0 0 24 24" fill="none" xmlns="http://www.w3.org/2000/svg">
<mask id="mask0_4127_5059" style="mask-type:alpha" maskUnits="userSpaceOnUse" x="0" y="0" width="24" height="24">
<rect width="24" height="24" fill="#D9D9D9"/>
</mask>
<g mask="url(#mask0_4127_5059)">
<path d="M12 13.12L14.32 15.44C14.4667 15.5867 14.6533 15.66 14.88 15.66C15.1067 15.66 15.2933 15.5867 15.44 15.44C15.5867 15.2933 15.66 15.1067 15.66 14.88C15.66 14.6533 15.5867 14.4667 15.44 14.32L13.12 12L15.44 9.68C15.5867 9.53333 15.66 9.34667 15.66 9.12C15.66 8.89333 15.5867 8.70667 15.44 8.56C15.2933 8.41333 15.1067 8.34 14.88 8.34C14.6533 8.34 14.4667 8.41333 14.32 8.56L12 10.88L9.68 8.56C9.53333 8.41333 9.34667 8.34 9.12 8.34C8.89333 8.34 8.70667 8.41333 8.56 8.56C8.41333 8.70667 8.34 8.89333 8.34 9.12C8.34 9.34667 8.41333 9.53333 8.56 9.68L10.88 12L8.56 14.32C8.41333 14.4667 8.34 14.6533 8.34 14.88C8.34 15.1067 8.41333 15.2933 8.56 15.44C8.70667 15.5867 8.89333 15.66 9.12 15.66C9.34667 15.66 9.53333 15.5867 9.68 15.44L12 13.12ZM12 20C10.8933 20 9.85333 19.79 8.88 19.37C7.90667 18.95 7.06 18.38 6.34 17.66C5.62 16.94 5.05 16.0933 4.63 15.12C4.21 14.1467 4 13.1067 4 12C4 10.8933 4.21 9.85333 4.63 8.88C5.05 7.90667 5.62 7.06 6.34 6.34C7.06 5.62 7.90667 5.05 8.88 4.63C9.85333 4.21 10.8933 4 12 4C13.1067 4 14.1467 4.21 15.12 4.63C16.0933 5.05 16.94 5.62 17.66 6.34C18.38 7.06 18.95 7.90667 19.37 8.88C19.79 9.85333 20 10.8933 20 12C20 13.1067 19.79 14.1467 19.37 15.12C18.95 16.0933 18.38 16.94 17.66 17.66C16.94 18.38 16.0933 18.95 15.12 19.37C14.1467 19.79 13.1067 20 12 20ZM12 18.4C13.7867 18.4 15.3 17.78 16.54 16.54C17.78 15.3 18.4 13.7867 18.4 12C18.4 10.2133 17.78 8.7 16.54 7.46C15.3 6.22 13.7867 5.6 12 5.6C10.2133 5.6 8.7 6.22 7.46 7.46C6.22 8.7 5.6 10.2133 5.6 12C5.6 13.7867 6.22 15.3 7.46 16.54C8.7 17.78 10.2133 18.4 12 18.4Z" fill="#333333"/>
</g>
</svg>
