<svg width="22" height="22" viewBox="0 0 22 22" fill="none" xmlns="http://www.w3.org/2000/svg">
<path d="M9.25 13.1828L6.34625 10.2788C6.17312 10.1058 5.95552 10.0173 5.69344 10.0131C5.43156 10.0092 5.21 10.0977 5.02875 10.2788C4.84771 10.46 4.75719 10.6796 4.75719 10.9375C4.75719 11.1954 4.84771 11.415 5.02875 11.5963L8.45906 15.0266C8.6851 15.2524 8.94875 15.3653 9.25 15.3653C9.55125 15.3653 9.8149 15.2524 10.0409 15.0266L16.9953 8.07219C17.1682 7.89906 17.2568 7.68146 17.2609 7.41937C17.2649 7.1575 17.1764 6.93594 16.9953 6.75469C16.8141 6.57365 16.5945 6.48313 16.3366 6.48313C16.0786 6.48313 15.8591 6.57365 15.6778 6.75469L9.25 13.1828ZM2.63469 21.625C2.00323 21.625 1.46875 21.4062 1.03125 20.9688C0.59375 20.5312 0.375 19.9968 0.375 19.3653V2.63469C0.375 2.00323 0.59375 1.46875 1.03125 1.03125C1.46875 0.59375 2.00323 0.375 2.63469 0.375H19.3653C19.9968 0.375 20.5312 0.59375 20.9688 1.03125C21.4062 1.46875 21.625 2.00323 21.625 2.63469V19.3653C21.625 19.9968 21.4062 20.5312 20.9688 20.9688C20.5312 21.4062 19.9968 21.625 19.3653 21.625H2.63469Z" fill="#316094"/>
</svg>
