<svg width="24" height="24" viewBox="0 0 24 24" fill="none" xmlns="http://www.w3.org/2000/svg">
<mask id="mask0_4127_5053" style="mask-type:alpha" maskUnits="userSpaceOnUse" x="0" y="0" width="24" height="24">
<rect width="24" height="24" fill="#D9D9D9"/>
</mask>
<g mask="url(#mask0_4127_5053)">
<path d="M10.88 13.44L9.16 11.72C9.01333 11.5733 8.82667 11.5 8.6 11.5C8.37333 11.5 8.18667 11.5733 8.04 11.72C7.89333 11.8667 7.82 12.0533 7.82 12.28C7.82 12.5067 7.89333 12.6933 8.04 12.84L10.32 15.12C10.48 15.28 10.6667 15.36 10.88 15.36C11.0933 15.36 11.28 15.28 11.44 15.12L15.96 10.6C16.1067 10.4533 16.18 10.2667 16.18 10.04C16.18 9.81333 16.1067 9.62667 15.96 9.48C15.8133 9.33333 15.6267 9.26 15.4 9.26C15.1733 9.26 14.9867 9.33333 14.84 9.48L10.88 13.44ZM12 20C10.8933 20 9.85333 19.79 8.88 19.37C7.90667 18.95 7.06 18.38 6.34 17.66C5.62 16.94 5.05 16.0933 4.63 15.12C4.21 14.1467 4 13.1067 4 12C4 10.8933 4.21 9.85333 4.63 8.88C5.05 7.90667 5.62 7.06 6.34 6.34C7.06 5.62 7.90667 5.05 8.88 4.63C9.85333 4.21 10.8933 4 12 4C13.1067 4 14.1467 4.21 15.12 4.63C16.0933 5.05 16.94 5.62 17.66 6.34C18.38 7.06 18.95 7.90667 19.37 8.88C19.79 9.85333 20 10.8933 20 12C20 13.1067 19.79 14.1467 19.37 15.12C18.95 16.0933 18.38 16.94 17.66 17.66C16.94 18.38 16.0933 18.95 15.12 19.37C14.1467 19.79 13.1067 20 12 20ZM12 18.4C13.7867 18.4 15.3 17.78 16.54 16.54C17.78 15.3 18.4 13.7867 18.4 12C18.4 10.2133 17.78 8.7 16.54 7.46C15.3 6.22 13.7867 5.6 12 5.6C10.2133 5.6 8.7 6.22 7.46 7.46C6.22 8.7 5.6 10.2133 5.6 12C5.6 13.7867 6.22 15.3 7.46 16.54C8.7 17.78 10.2133 18.4 12 18.4Z" fill="#333333"/>
</g>
</svg>
