<svg width="24" height="24" viewBox="0 0 24 24" fill="none" xmlns="http://www.w3.org/2000/svg">
<mask id="mask0_4118_960" style="mask-type:alpha" maskUnits="userSpaceOnUse" x="0" y="0" width="24" height="24">
<rect width="24" height="24" fill="#D9D9D9"/>
</mask>
<g mask="url(#mask0_4118_960)">
<path d="M7 15.25H17C17.2125 15.25 17.3906 15.1781 17.5343 15.0343C17.6781 14.8904 17.75 14.7122 17.75 14.4998C17.75 14.2871 17.6781 14.109 17.5343 13.9655C17.3906 13.8218 17.2125 13.75 17 13.75H7C6.7875 13.75 6.60942 13.8219 6.46575 13.9658C6.32192 14.1096 6.25 14.2878 6.25 14.5003C6.25 14.7129 6.32192 14.891 6.46575 15.0345C6.60942 15.1782 6.7875 15.25 7 15.25ZM7 12.25H17C17.2125 12.25 17.3906 12.1781 17.5343 12.0343C17.6781 11.8904 17.75 11.7122 17.75 11.4997C17.75 11.2871 17.6781 11.109 17.5343 10.9655C17.3906 10.8218 17.2125 10.75 17 10.75H7C6.7875 10.75 6.60942 10.8219 6.46575 10.9658C6.32192 11.1096 6.25 11.2878 6.25 11.5003C6.25 11.7129 6.32192 11.891 6.46575 12.0345C6.60942 12.1782 6.7875 12.25 7 12.25ZM7 9.25H17C17.2125 9.25 17.3906 9.17808 17.5343 9.03425C17.6781 8.89042 17.75 8.71225 17.75 8.49975C17.75 8.28708 17.6781 8.109 17.5343 7.9655C17.3906 7.82183 17.2125 7.75 17 7.75H7C6.7875 7.75 6.60942 7.82192 6.46575 7.96575C6.32192 8.10958 6.25 8.28775 6.25 8.50025C6.25 8.71292 6.32192 8.891 6.46575 9.0345C6.60942 9.17817 6.7875 9.25 7 9.25ZM4.30775 19C3.80258 19 3.375 18.825 3.025 18.475C2.675 18.125 2.5 17.6974 2.5 17.1923V5.80775C2.5 5.30258 2.675 4.875 3.025 4.525C3.375 4.175 3.80258 4 4.30775 4H19.6923C20.1974 4 20.625 4.175 20.975 4.525C21.325 4.875 21.5 5.30258 21.5 5.80775V20.3538C21.5 20.7569 21.3151 21.0369 20.9452 21.1938C20.5752 21.3504 20.248 21.2864 19.9635 21.0018L17.9615 19H4.30775Z" fill="#777777"/>
</g>
</svg>
