<svg width="21" height="21" viewBox="0 0 21 21" fill="none" xmlns="http://www.w3.org/2000/svg">
<mask id="mask0_4673_1461" style="mask-type:alpha" maskUnits="userSpaceOnUse" x="0" y="0" width="21" height="21">
<rect width="21" height="21" fill="#777777"/>
</mask>
<g mask="url(#mask0_4673_1461)">
<path d="M8.75 6.125H14.875C15.1229 6.125 15.3307 6.20885 15.4984 6.37656C15.6661 6.54427 15.75 6.75208 15.75 7C15.75 7.24792 15.6661 7.45573 15.4984 7.62344C15.3307 7.79115 15.1229 7.875 14.875 7.875H8.75C8.50208 7.875 8.29427 7.79115 8.12656 7.62344C7.95885 7.45573 7.875 7.24792 7.875 7C7.875 6.75208 7.95885 6.54427 8.12656 6.37656C8.29427 6.20885 8.50208 6.125 8.75 6.125ZM8.75 8.75H14.875C15.1229 8.75 15.3307 8.83385 15.4984 9.00156C15.6661 9.16927 15.75 9.37708 15.75 9.625C15.75 9.87292 15.6661 10.0807 15.4984 10.2484C15.3307 10.4161 15.1229 10.5 14.875 10.5H8.75C8.50208 10.5 8.29427 10.4161 8.12656 10.2484C7.95885 10.0807 7.875 9.87292 7.875 9.625C7.875 9.37708 7.95885 9.16927 8.12656 9.00156C8.29427 8.83385 8.50208 8.75 8.75 8.75ZM5.25 19.25C4.52083 19.25 3.90104 18.9948 3.39062 18.4844C2.88021 17.974 2.625 17.3542 2.625 16.625V14.875C2.625 14.6271 2.70885 14.4193 2.87656 14.2516C3.04427 14.0839 3.25208 14 3.5 14H5.25V3.5C5.25 3.01875 5.42135 2.60677 5.76406 2.26406C6.10677 1.92135 6.51875 1.75 7 1.75H16.625C17.1062 1.75 17.5182 1.92135 17.8609 2.26406C18.2036 2.60677 18.375 3.01875 18.375 3.5V8.75C18.375 8.99792 18.2911 9.20573 18.1234 9.37344C17.9557 9.54115 17.7479 9.625 17.5 9.625C17.2521 9.625 17.0443 9.54115 16.8766 9.37344C16.7089 9.20573 16.625 8.99792 16.625 8.75V3.5H7V14H9.625C9.87292 14 10.0807 14.0839 10.2484 14.2516C10.4161 14.4193 10.5 14.6271 10.5 14.875C10.5 15.1229 10.4161 15.3307 10.2484 15.4984C10.0807 15.6661 9.87292 15.75 9.625 15.75H4.375V16.625C4.375 16.8729 4.45885 17.0807 4.62656 17.2484C4.79427 17.4161 5.00208 17.5 5.25 17.5H9.625C9.87292 17.5 10.0807 17.5839 10.2484 17.7516C10.4161 17.9193 10.5 18.1271 10.5 18.375C10.5 18.6229 10.4161 18.8307 10.2484 18.9984C10.0807 19.1661 9.87292 19.25 9.625 19.25H5.25ZM12.25 18.375V16.9313C12.25 16.8146 12.2719 16.7016 12.3156 16.5922C12.3594 16.4828 12.425 16.3844 12.5125 16.2969L17.0844 11.7469C17.2156 11.6156 17.3615 11.5208 17.5219 11.4625C17.6823 11.4042 17.8427 11.375 18.0031 11.375C18.1781 11.375 18.3458 11.4078 18.5062 11.4734C18.6667 11.5391 18.8125 11.6375 18.9438 11.7688L19.7531 12.5781C19.8698 12.7094 19.9609 12.8552 20.0266 13.0156C20.0922 13.176 20.125 13.3365 20.125 13.4969C20.125 13.6573 20.0958 13.8214 20.0375 13.9891C19.9792 14.1568 19.8844 14.3062 19.7531 14.4375L15.2031 18.9875C15.1156 19.075 15.0172 19.1406 14.9078 19.1844C14.7984 19.2281 14.6854 19.25 14.5688 19.25H13.125C12.8771 19.25 12.6693 19.1661 12.5016 18.9984C12.3339 18.8307 12.25 18.6229 12.25 18.375ZM13.5625 17.9375H14.3938L17.0406 15.2688L16.6469 14.8531L16.2312 14.4594L13.5625 17.1063V17.9375ZM16.6469 14.8531L16.2312 14.4594L17.0406 15.2688L16.6469 14.8531Z" fill="#777777"/>
</g>
</svg>
