<svg width="24" height="24" viewBox="0 0 24 24" fill="none" xmlns="http://www.w3.org/2000/svg">
<mask id="mask0_4127_5066" style="mask-type:alpha" maskUnits="userSpaceOnUse" x="0" y="0" width="24" height="24">
<rect width="24" height="24" fill="#D9D9D9"/>
</mask>
<g mask="url(#mask0_4127_5066)">
<path d="M7.80775 19.8845C7.31058 19.8845 6.885 19.7075 6.531 19.3535C6.177 18.9995 6 18.5739 6 18.0768V6.3845H5.75C5.5375 6.3845 5.35942 6.31258 5.21575 6.16875C5.07192 6.02492 5 5.84675 5 5.63425C5 5.42158 5.07192 5.2435 5.21575 5.1C5.35942 4.95633 5.5375 4.8845 5.75 4.8845H9.5C9.5 4.63967 9.58625 4.431 9.75875 4.2585C9.93108 4.08617 10.1397 4 10.3845 4H14.6155C14.8603 4 15.0689 4.08617 15.2413 4.2585C15.4138 4.431 15.5 4.63967 15.5 4.8845H19.25C19.4625 4.8845 19.6406 4.95642 19.7843 5.10025C19.9281 5.24408 20 5.42225 20 5.63475C20 5.84742 19.9281 6.0255 19.7843 6.169C19.6406 6.31267 19.4625 6.3845 19.25 6.3845H19V18.0768C19 18.5739 18.823 18.9995 18.469 19.3535C18.115 19.7075 17.6894 19.8845 17.1923 19.8845H7.80775ZM17.5 6.3845H7.5V18.0768C7.5 18.1666 7.52883 18.2403 7.5865 18.298C7.64417 18.3557 7.71792 18.3845 7.80775 18.3845H17.1923C17.2821 18.3845 17.3558 18.3557 17.4135 18.298C17.4712 18.2403 17.5 18.1666 17.5 18.0768V6.3845ZM10.6543 16.3845C10.8668 16.3845 11.0448 16.3127 11.1885 16.169C11.332 16.0252 11.4037 15.847 11.4037 15.6345V9.1345C11.4037 8.922 11.3318 8.74383 11.188 8.6C11.0443 8.45633 10.8662 8.3845 10.6535 8.3845C10.441 8.3845 10.2629 8.45633 10.1192 8.6C9.97575 8.74383 9.904 8.922 9.904 9.1345V15.6345C9.904 15.847 9.97583 16.0252 10.1195 16.169C10.2633 16.3127 10.4416 16.3845 10.6543 16.3845ZM14.3465 16.3845C14.559 16.3845 14.7371 16.3127 14.8807 16.169C15.0243 16.0252 15.096 15.847 15.096 15.6345V9.1345C15.096 8.922 15.0242 8.74383 14.8805 8.6C14.7367 8.45633 14.5584 8.3845 14.3458 8.3845C14.1333 8.3845 13.9552 8.45633 13.8115 8.6C13.668 8.74383 13.5962 8.922 13.5962 9.1345V15.6345C13.5962 15.847 13.6682 16.0252 13.812 16.169C13.9557 16.3127 14.1338 16.3845 14.3465 16.3845Z" fill="#316094"/>
</g>
</svg>
