<svg width="21" height="21" viewBox="0 0 21 21" fill="none" xmlns="http://www.w3.org/2000/svg">
<mask id="mask0_4673_1497" style="mask-type:alpha" maskUnits="userSpaceOnUse" x="0" y="0" width="21" height="21">
<rect width="21" height="21" fill="#777777"/>
</mask>
<g mask="url(#mask0_4673_1497)">
<path d="M6.125 18.375C5.64375 18.375 5.23177 18.2036 4.88906 17.8609C4.54635 17.5182 4.375 17.1062 4.375 16.625V5.25C4.12708 5.25 3.91927 5.16615 3.75156 4.99844C3.58385 4.83073 3.5 4.62292 3.5 4.375C3.5 4.12708 3.58385 3.91927 3.75156 3.75156C3.91927 3.58385 4.12708 3.5 4.375 3.5H7.875C7.875 3.25208 7.95885 3.04427 8.12656 2.87656C8.29427 2.70885 8.50208 2.625 8.75 2.625H12.25C12.4979 2.625 12.7057 2.70885 12.8734 2.87656C13.0411 3.04427 13.125 3.25208 13.125 3.5H16.625C16.8729 3.5 17.0807 3.58385 17.2484 3.75156C17.4161 3.91927 17.5 4.12708 17.5 4.375C17.5 4.62292 17.4161 4.83073 17.2484 4.99844C17.0807 5.16615 16.8729 5.25 16.625 5.25V16.625C16.625 17.1062 16.4536 17.5182 16.1109 17.8609C15.7682 18.2036 15.3562 18.375 14.875 18.375H6.125ZM14.875 5.25H6.125V16.625H14.875V5.25ZM8.75 14.875C8.99792 14.875 9.20573 14.7911 9.37344 14.6234C9.54115 14.4557 9.625 14.2479 9.625 14V7.875C9.625 7.62708 9.54115 7.41927 9.37344 7.25156C9.20573 7.08385 8.99792 7 8.75 7C8.50208 7 8.29427 7.08385 8.12656 7.25156C7.95885 7.41927 7.875 7.62708 7.875 7.875V14C7.875 14.2479 7.95885 14.4557 8.12656 14.6234C8.29427 14.7911 8.50208 14.875 8.75 14.875ZM12.25 14.875C12.4979 14.875 12.7057 14.7911 12.8734 14.6234C13.0411 14.4557 13.125 14.2479 13.125 14V7.875C13.125 7.62708 13.0411 7.41927 12.8734 7.25156C12.7057 7.08385 12.4979 7 12.25 7C12.0021 7 11.7943 7.08385 11.6266 7.25156C11.4589 7.41927 11.375 7.62708 11.375 7.875V14C11.375 14.2479 11.4589 14.4557 11.6266 14.6234C11.7943 14.7911 12.0021 14.875 12.25 14.875Z" fill="#777777"/>
</g>
</svg>
