<svg width="24" height="24" viewBox="0 0 24 24" fill="none" xmlns="http://www.w3.org/2000/svg">
<mask id="mask0_3102_2716" style="mask-type:alpha" maskUnits="userSpaceOnUse" x="0" y="0" width="24" height="24">
<rect width="24" height="24" fill="#D9D9D9"/>
</mask>
<g mask="url(#mask0_3102_2716)">
<path d="M5 20.9996C4.45 20.9996 3.97917 20.8038 3.5875 20.4121C3.19583 20.0204 3 19.5496 3 18.9996V4.99961C3 4.44961 3.19583 3.97878 3.5875 3.58711C3.97917 3.19544 4.45 2.99961 5 2.99961H11.525C11.8583 2.99961 12.1083 3.10378 12.275 3.31211C12.4417 3.52044 12.525 3.74961 12.525 3.99961C12.525 4.24961 12.4375 4.47878 12.2625 4.68711C12.0875 4.89544 11.8333 4.99961 11.5 4.99961H5V18.9996H19V12.4746C19 12.1413 19.1042 11.8913 19.3125 11.7246C19.5208 11.5579 19.75 11.4746 20 11.4746C20.25 11.4746 20.4792 11.5579 20.6875 11.7246C20.8958 11.8913 21 12.1413 21 12.4746V18.9996C21 19.5496 20.8042 20.0204 20.4125 20.4121C20.0208 20.8038 19.55 20.9996 19 20.9996H5ZM9 13.9996V11.5746C9 11.3079 9.05 11.0538 9.15 10.8121C9.25 10.5704 9.39167 10.3579 9.575 10.1746L18.175 1.57461C18.375 1.37461 18.6 1.22461 18.85 1.12461C19.1 1.02461 19.35 0.974609 19.6 0.974609C19.8667 0.974609 20.1208 1.02461 20.3625 1.12461C20.6042 1.22461 20.825 1.37461 21.025 1.57461L22.425 2.99961C22.6083 3.19961 22.75 3.42044 22.85 3.66211C22.95 3.90378 23 4.14961 23 4.39961C23 4.64961 22.9542 4.89544 22.8625 5.13711C22.7708 5.37878 22.625 5.59961 22.425 5.79961L13.825 14.3996C13.6417 14.5829 13.4292 14.7288 13.1875 14.8371C12.9458 14.9454 12.6917 14.9996 12.425 14.9996H10C9.71667 14.9996 9.47917 14.9038 9.2875 14.7121C9.09583 14.5204 9 14.2829 9 13.9996ZM11 12.9996H12.4L18.2 7.19961L17.5 6.49961L16.775 5.79961L11 11.5746V12.9996Z" fill="#777777"/>
</g>
</svg>
