<svg width="90" height="91" viewBox="0 0 90 91" fill="none" xmlns="http://www.w3.org/2000/svg">
<g clip-path="url(#clip0_4076_13952)">
<path d="M51.3059 2.41016H38.6914V15.0247H51.3059V2.41016Z" stroke="#AAAAAA" stroke-width="3" stroke-miterlimit="10" stroke-linecap="round" stroke-linejoin="round"/>
<path d="M51.9609 8.89453H75.2085" stroke="#AAAAAA" stroke-width="3" stroke-miterlimit="10" stroke-linecap="round" stroke-linejoin="round"/>
<path d="M75.9336 8.8932C75.9336 12.3771 78.757 15.2005 82.2408 15.2005C85.7247 15.2005 88.5481 12.3771 88.5481 8.8932C88.5481 5.40933 85.7247 2.58594 82.2408 2.58594C78.757 2.58594 75.9336 5.40933 75.9336 8.8932Z" stroke="#AAAAAA" stroke-width="3" stroke-miterlimit="10" stroke-linecap="round" stroke-linejoin="round"/>
<path d="M37.8354 8.89453H14.791" stroke="#AAAAAA" stroke-width="3" stroke-miterlimit="10" stroke-linecap="round" stroke-linejoin="round"/>
<path d="M16.9329 44.2539H4.31836V56.8684H16.9329V44.2539Z" stroke="#AAAAAA" stroke-width="3" stroke-miterlimit="10" stroke-linecap="round" stroke-linejoin="round"/>
<path d="M85.6887 44.2539H73.0742V56.8684H85.6887V44.2539Z" stroke="#AAAAAA" stroke-width="3" stroke-miterlimit="10" stroke-linecap="round" stroke-linejoin="round"/>
<path d="M7.75843 15.2005C11.2418 15.2005 14.0657 12.3766 14.0657 8.8932C14.0657 5.40979 11.2418 2.58594 7.75843 2.58594C4.27503 2.58594 1.45117 5.40979 1.45117 8.8932C1.45117 12.3766 4.27503 15.2005 7.75843 15.2005Z" stroke="#AAAAAA" stroke-width="3" stroke-miterlimit="10" stroke-linecap="round" stroke-linejoin="round"/>
<path d="M51.6777 10.3125C71.1076 14.1738 79.0552 26.4254 79.0552 43.7069" stroke="#AAAAAA" stroke-width="3" stroke-miterlimit="10" stroke-linecap="round" stroke-linejoin="round" stroke-dasharray="10 10"/>
<path d="M10.9512 43.7141C10.9512 26.4254 18.906 14.1665 38.3504 10.3125" stroke="#AAAAAA" stroke-width="3" stroke-miterlimit="10" stroke-linecap="round" stroke-linejoin="round" stroke-dasharray="10 10"/>
<path d="M39.1699 82.7656C39.1699 85.9809 41.7756 88.5939 44.9981 88.5939C48.2135 88.5939 50.8264 85.9882 50.8264 82.7656" stroke="#AAAAAA" stroke-width="3" stroke-miterlimit="10" stroke-linecap="round" stroke-linejoin="round"/>
<path d="M53.4763 71.1672C54.819 71.1672 55.9223 70.064 55.9223 68.7212V62.3994C55.9223 62.189 55.8497 61.993 55.7989 61.797C61.7868 58.1462 65.8005 51.5704 65.8005 44.0438C65.8005 32.5543 56.4884 23.2422 44.9989 23.2422C33.5094 23.2422 24.1973 32.5615 24.1973 44.0511C24.1973 51.5777 28.211 58.1535 34.1989 61.8043C34.1481 62.0003 34.0755 62.1962 34.0755 62.4067V68.7285C34.0755 70.0712 35.1787 71.1744 36.5215 71.1744" stroke="#AAAAAA" stroke-width="3" stroke-miterlimit="10" stroke-linecap="round" stroke-linejoin="round"/>
<path d="M55.9157 75.0655V73.6139C55.9157 72.2712 54.8125 71.168 53.4697 71.168H36.5221C35.1794 71.168 34.0762 72.2639 34.0762 73.6139V75.0655C34.0762 75.8494 34.4754 76.5244 35.0633 76.9672C34.4826 77.4172 34.0762 78.0849 34.0762 78.876V80.3276C34.0762 81.6704 35.1794 82.7736 36.5221 82.7736H53.477C54.8197 82.7736 55.9229 81.6704 55.9229 80.3276V78.876C55.9229 78.0922 55.5238 77.4172 54.9358 76.9672C55.5165 76.5172 55.9157 75.8494 55.9157 75.0655Z" stroke="#AAAAAA" stroke-width="3" stroke-miterlimit="10" stroke-linecap="round" stroke-linejoin="round"/>
<path d="M35.2949 76.9648H49.811" stroke="#AAAAAA" stroke-width="3" stroke-miterlimit="10" stroke-linecap="round" stroke-linejoin="round"/>
</g>
<defs>
<clipPath id="clip0_4076_13952">
<rect width="90" height="89.0855" fill="white" transform="translate(0 0.957031)"/>
</clipPath>
</defs>
</svg>
