<svg width="90" height="77" viewBox="0 0 90 77" fill="none" xmlns="http://www.w3.org/2000/svg">
<g clip-path="url(#clip0_4076_11852)">
<path d="M28.9672 1.53687C22.6091 1.203 15.1623 1.878 9.61719 3.37316V62.5336C15.1623 61.0457 22.6091 60.3635 28.9672 60.6973C34.672 60.9949 40.072 62.0909 45.0003 63.8038V4.63606C40.0793 2.92316 34.672 1.83445 28.9672 1.53687Z" stroke="#AAAAAA" stroke-width="4" stroke-miterlimit="10" stroke-linecap="round" stroke-linejoin="round"/>
<path d="M17.7832 15.449C20.3961 15.0425 23.0743 14.832 25.7888 14.832C26.7251 14.832 27.6614 14.8538 28.6122 14.9046C31.8856 15.0788 35.0937 15.5433 38.2001 16.2982" stroke="#AAAAAA" stroke-width="4" stroke-miterlimit="10" stroke-linecap="round" stroke-linejoin="round"/>
<path d="M17.7832 25.4294C20.3961 25.023 23.0743 24.8125 25.7888 24.8125C26.7251 24.8125 27.6614 24.8343 28.6122 24.8851C31.8856 25.0593 35.0937 25.5238 38.2001 26.2786" stroke="#AAAAAA" stroke-width="4" stroke-miterlimit="10" stroke-linecap="round" stroke-linejoin="round"/>
<path d="M17.7832 35.4099C20.3961 35.0035 23.0743 34.793 25.7888 34.793C26.7251 34.793 27.6614 34.8147 28.6122 34.8656C31.8856 35.0397 35.0937 35.5043 38.2001 36.2591" stroke="#AAAAAA" stroke-width="4" stroke-miterlimit="10" stroke-linecap="round" stroke-linejoin="round"/>
<path d="M17.7832 45.3904C20.3961 44.9839 23.0743 44.7734 25.7888 44.7734C26.7251 44.7734 27.6614 44.7952 28.6122 44.846C31.8856 45.0202 35.0937 45.4847 38.2001 46.2396" stroke="#AAAAAA" stroke-width="4" stroke-miterlimit="10" stroke-linecap="round" stroke-linejoin="round"/>
<path d="M71.913 15.449C69.3001 15.0425 66.6219 14.832 63.9074 14.832C62.9711 14.832 62.0348 14.8538 61.084 14.9046C57.8106 15.0788 54.6025 15.5433 51.4961 16.2982" stroke="#AAAAAA" stroke-width="4" stroke-miterlimit="10" stroke-linecap="round" stroke-linejoin="round"/>
<path d="M71.913 25.4294C69.3001 25.023 66.6219 24.8125 63.9074 24.8125C62.9711 24.8125 62.0348 24.8343 61.084 24.8851C57.8106 25.0593 54.6025 25.5238 51.4961 26.2786" stroke="#AAAAAA" stroke-width="4" stroke-miterlimit="10" stroke-linecap="round" stroke-linejoin="round"/>
<path d="M71.913 35.4099C69.3001 35.0035 66.6219 34.793 63.9074 34.793C62.9711 34.793 62.0348 34.8147 61.084 34.8656C57.8106 35.0397 54.6025 35.5043 51.4961 36.2591" stroke="#AAAAAA" stroke-width="4" stroke-miterlimit="10" stroke-linecap="round" stroke-linejoin="round"/>
<path d="M71.913 45.3904C69.3001 44.9839 66.6219 44.7734 63.9074 44.7734C62.9711 44.7734 62.0348 44.7952 61.084 44.846C57.8106 45.0202 54.6025 45.4847 51.4961 46.2396" stroke="#AAAAAA" stroke-width="4" stroke-miterlimit="10" stroke-linecap="round" stroke-linejoin="round"/>
<path d="M61.0331 1.53687C67.3911 1.203 74.8379 1.878 80.3831 3.37316V62.5336C74.8379 61.0457 67.3911 60.3635 61.0331 60.6973C55.3282 60.9949 49.9282 62.0909 45 63.8038V4.63606C49.921 2.92316 55.3282 1.83445 61.0331 1.53687Z" stroke="#AAAAAA" stroke-width="4" stroke-miterlimit="10" stroke-linecap="round" stroke-linejoin="round"/>
<path d="M9.61649 11.6992H1.45117V71.5782H39.4036C40.5649 73.4726 42.6334 74.75 44.9996 74.75C47.3729 74.75 49.4415 73.4653 50.5955 71.5782H88.5479V11.6992H80.3826" stroke="#AAAAAA" stroke-width="4" stroke-miterlimit="10" stroke-linecap="round" stroke-linejoin="round"/>
</g>
<defs>
<clipPath id="clip0_4076_11852">
<rect width="90" height="76.2024" fill="white"/>
</clipPath>
</defs>
</svg>
