<svg width="24" height="24" viewBox="0 0 24 24" fill="none" xmlns="http://www.w3.org/2000/svg">
<mask id="mask0_4076_13226" style="mask-type:alpha" maskUnits="userSpaceOnUse" x="0" y="0" width="24" height="24">
<rect width="24" height="24" fill="#D9D9D9"/>
</mask>
<g mask="url(#mask0_4076_13226)">
<path d="M5.30775 20.4993C4.80258 20.4993 4.375 20.3243 4.025 19.9743C3.675 19.6243 3.5 19.1967 3.5 18.6915V10.307C3.5 9.80187 3.675 9.37428 4.025 9.02428C4.375 8.67428 4.80258 8.49928 5.30775 8.49928H7.1155C7.32817 8.49928 7.50633 8.57111 7.65 8.71478C7.7935 8.85828 7.86525 9.03645 7.86525 9.24928C7.86525 9.46211 7.7935 9.64028 7.65 9.78378C7.50633 9.92745 7.32817 9.99928 7.1155 9.99928H5.30775C5.23075 9.99928 5.16025 10.0314 5.09625 10.0955C5.03208 10.1595 5 10.23 5 10.307V18.6915C5 18.7685 5.03208 18.839 5.09625 18.903C5.16025 18.9672 5.23075 18.9993 5.30775 18.9993H18.6923C18.7692 18.9993 18.8398 18.9672 18.9038 18.903C18.9679 18.839 19 18.7685 19 18.6915V10.307C19 10.23 18.9679 10.1595 18.9038 10.0955C18.8398 10.0314 18.7692 9.99928 18.6923 9.99928H16.8845C16.6718 9.99928 16.4937 9.92745 16.35 9.78378C16.2065 9.64028 16.1348 9.46211 16.1348 9.24928C16.1348 9.03645 16.2065 8.85828 16.35 8.71478C16.4937 8.57111 16.6718 8.49928 16.8845 8.49928H18.6923C19.1974 8.49928 19.625 8.67428 19.975 9.02428C20.325 9.37428 20.5 9.80187 20.5 10.307V18.6915C20.5 19.1967 20.325 19.6243 19.975 19.9743C19.625 20.3243 19.1974 20.4993 18.6923 20.4993H5.30775ZM11.25 5.71853L9.927 7.04153C9.77817 7.19036 9.60408 7.26378 9.40475 7.26178C9.20542 7.25995 9.02817 7.18145 8.873 7.02628C8.72817 6.87112 8.65317 6.69545 8.648 6.49928C8.643 6.30311 8.718 6.12753 8.873 5.97253L11.3672 3.47828C11.5481 3.29745 11.759 3.20703 12 3.20703C12.241 3.20703 12.4519 3.29745 12.6328 3.47828L15.127 5.97253C15.2653 6.11086 15.3362 6.28228 15.3395 6.48678C15.3427 6.69128 15.2718 6.87112 15.127 7.02628C14.9718 7.18145 14.7936 7.25903 14.5922 7.25903C14.3911 7.25903 14.2129 7.18145 14.0577 7.02628L12.75 5.71853V15.9993C12.75 16.2121 12.6782 16.3903 12.5345 16.5338C12.391 16.6774 12.2128 16.7493 12 16.7493C11.7872 16.7493 11.609 16.6774 11.4655 16.5338C11.3218 16.3903 11.25 16.2121 11.25 15.9993V5.71853Z" fill="#999999"/>
</g>
</svg>
