<svg width="24" height="24" viewBox="0 0 24 24" fill="none" xmlns="http://www.w3.org/2000/svg">
<mask id="mask0_4076_13234" style="mask-type:alpha" maskUnits="userSpaceOnUse" x="0" y="0" width="24" height="24">
<rect width="24" height="24" fill="#FCFCFC"/>
</mask>
<g mask="url(#mask0_4076_13234)">
<path d="M15.7885 6.5V13.7115L17.3538 15.277C17.4281 15.3513 17.4839 15.435 17.5213 15.528C17.5584 15.6208 17.577 15.7168 17.577 15.816V16.2435C17.577 16.4542 17.5042 16.6329 17.3585 16.7797C17.213 16.9266 17.0326 17 16.8173 17H13.0385V20.3885C13.0385 20.601 12.9666 20.7791 12.8228 20.9228C12.6789 21.0664 12.5008 21.1383 12.2882 21.1383C12.0756 21.1383 11.8975 21.0664 11.754 20.9228C11.6103 20.7791 11.5385 20.601 11.5385 20.3885V17H7.75975C7.54442 17 7.364 16.9266 7.2185 16.7797C7.07283 16.6329 7 16.4542 7 16.2435V15.816C7 15.7168 7.01858 15.6208 7.05575 15.528C7.09308 15.435 7.14892 15.3513 7.22325 15.277L8.7885 13.7115V6.5H8.5385C8.326 6.5 8.14792 6.42808 8.00425 6.28425C7.86042 6.14042 7.7885 5.96225 7.7885 5.74975C7.7885 5.53708 7.86042 5.359 8.00425 5.2155C8.14792 5.07183 8.326 5 8.5385 5H16.0385C16.251 5 16.4291 5.07192 16.5728 5.21575C16.7166 5.35958 16.7885 5.53775 16.7885 5.75025C16.7885 5.96292 16.7166 6.141 16.5728 6.2845C16.4291 6.42817 16.251 6.5 16.0385 6.5H15.7885ZM9.1385 15.5H15.4385L14.2885 14.35V6.5H10.2885V14.35L9.1385 15.5Z" fill="#777777"/>
</g>
</svg>
