<svg width="36" height="36" viewBox="0 0 36 36" fill="none" xmlns="http://www.w3.org/2000/svg">
<mask id="mask0_4118_1119" style="mask-type:alpha" maskUnits="userSpaceOnUse" x="0" y="0" width="36" height="36">
<rect width="36" height="36" fill="#D9D9D9"/>
</mask>
<g mask="url(#mask0_4118_1119)">
<path d="M17.9992 20.0992L10.6492 27.4492C10.3742 27.7242 10.0242 27.8617 9.59922 27.8617C9.17422 27.8617 8.82422 27.7242 8.54922 27.4492C8.27422 27.1742 8.13672 26.8242 8.13672 26.3992C8.13672 25.9742 8.27422 25.6242 8.54922 25.3492L15.8992 17.9992L8.54922 10.6492C8.27422 10.3742 8.13672 10.0242 8.13672 9.59922C8.13672 9.17422 8.27422 8.82422 8.54922 8.54922C8.82422 8.27422 9.17422 8.13672 9.59922 8.13672C10.0242 8.13672 10.3742 8.27422 10.6492 8.54922L17.9992 15.8992L25.3492 8.54922C25.6242 8.27422 25.9742 8.13672 26.3992 8.13672C26.8242 8.13672 27.1742 8.27422 27.4492 8.54922C27.7242 8.82422 27.8617 9.17422 27.8617 9.59922C27.8617 10.0242 27.7242 10.3742 27.4492 10.6492L20.0992 17.9992L27.4492 25.3492C27.7242 25.6242 27.8617 25.9742 27.8617 26.3992C27.8617 26.8242 27.7242 27.1742 27.4492 27.4492C27.1742 27.7242 26.8242 27.8617 26.3992 27.8617C25.9742 27.8617 25.6242 27.7242 25.3492 27.4492L17.9992 20.0992Z" fill="#1C1B1F"/>
</g>
</svg>
