<svg width="24" height="24" viewBox="0 0 24 24" fill="none" xmlns="http://www.w3.org/2000/svg">
<mask id="mask0_4076_14665" style="mask-type:alpha" maskUnits="userSpaceOnUse" x="0" y="0" width="24" height="24">
<rect width="24" height="24" fill="#D9D9D9"/>
</mask>
<g mask="url(#mask0_4076_14665)">
<path d="M11.3 14.7V16.5C11.3 16.755 11.3862 16.9688 11.5587 17.1413C11.7312 17.3138 11.945 17.4 12.2 17.4C12.455 17.4 12.6688 17.3138 12.8413 17.1413C13.0138 16.9688 13.1 16.755 13.1 16.5V14.7H14.9C15.155 14.7 15.3688 14.6138 15.5413 14.4412C15.7137 14.2688 15.8 14.055 15.8 13.8C15.8 13.545 15.7137 13.3313 15.5413 13.1588C15.3688 12.9862 15.155 12.9 14.9 12.9H13.1V11.1C13.1 10.845 13.0138 10.6312 12.8413 10.4588C12.6688 10.2863 12.455 10.2 12.2 10.2C11.945 10.2 11.7312 10.2863 11.5587 10.4588C11.3862 10.6312 11.3 10.845 11.3 11.1V12.9H9.5C9.245 12.9 9.03125 12.9862 8.85875 13.1588C8.68625 13.3313 8.6 13.545 8.6 13.8C8.6 14.055 8.68625 14.2688 8.85875 14.4412C9.03125 14.6138 9.245 14.7 9.5 14.7H11.3ZM6.8 21C6.305 21 5.88125 20.8237 5.52875 20.4713C5.17625 20.1187 5 19.695 5 19.2V4.8C5 4.305 5.17625 3.88125 5.52875 3.52875C5.88125 3.17625 6.305 3 6.8 3H13.2575C13.4975 3 13.7262 3.045 13.9437 3.135C14.1613 3.225 14.3525 3.3525 14.5175 3.5175L18.8825 7.8825C19.0475 8.0475 19.175 8.23875 19.265 8.45625C19.355 8.67375 19.4 8.9025 19.4 9.1425V19.2C19.4 19.695 19.2238 20.1187 18.8713 20.4713C18.5188 20.8237 18.095 21 17.6 21H6.8ZM13.1 8.4V4.8H6.8V19.2H17.6V9.3H14C13.745 9.3 13.5312 9.21375 13.3588 9.04125C13.1862 8.86875 13.1 8.655 13.1 8.4Z" fill="#FCFCFC"/>
</g>
</svg>
