<svg width="20" height="20" viewBox="0 0 20 20" fill="none" xmlns="http://www.w3.org/2000/svg">
<mask id="mask0_2906_11679" style="mask-type:alpha" maskUnits="userSpaceOnUse" x="0" y="0" width="20" height="20">
<rect width="20" height="20" fill="#D9D9D9"/>
</mask>
<g mask="url(#mask0_2906_11679)">
<path d="M13.1738 16.6673C13.2485 16.6673 13.3099 16.6433 13.3579 16.5952C13.4061 16.5472 13.4302 16.4857 13.4302 16.4109V9.26357C13.4302 9.18871 13.4061 9.12725 13.3579 9.07919C13.3099 9.03114 13.2485 9.00711 13.1738 9.00711H3.59044C3.51558 9.00711 3.45412 9.03114 3.40607 9.07919C3.35801 9.12725 3.33398 9.18871 3.33398 9.26357V16.4109C3.33398 16.4857 3.35801 16.5472 3.40607 16.5952C3.45412 16.6433 3.51558 16.6673 3.59044 16.6673H13.1738ZM14.68 12.2442V10.9942H16.4109C16.4857 10.9942 16.5472 10.9702 16.5952 10.9221C16.6433 10.8741 16.6673 10.8126 16.6673 10.7377V3.59044C16.6673 3.51558 16.6433 3.45412 16.5952 3.40607C16.5472 3.35801 16.4857 3.33398 16.4109 3.33398H6.82753C6.7528 3.33398 6.69141 3.35801 6.64336 3.40607C6.59516 3.45412 6.57107 3.51558 6.57107 3.59044V7.75711H5.32128V3.59044C5.32128 3.16947 5.46711 2.81315 5.75878 2.52148C6.05044 2.22982 6.40669 2.08398 6.82753 2.08398H16.4109C16.8318 2.08398 17.1882 2.22982 17.4798 2.52148C17.7715 2.81315 17.9173 3.16947 17.9173 3.59044V10.7377C17.9173 11.1587 17.7715 11.515 17.4798 11.8067C17.1882 12.0984 16.8318 12.2442 16.4109 12.2442H14.68ZM3.59044 17.9173C3.16947 17.9173 2.81315 17.7715 2.52148 17.4798C2.22982 17.1882 2.08398 16.8318 2.08398 16.4109V9.26357C2.08398 8.8426 2.22982 8.48628 2.52148 8.19461C2.81315 7.90294 3.16947 7.75711 3.59044 7.75711H13.2377C13.6373 7.75711 13.9776 7.89753 14.2586 8.17836C14.5395 8.45933 14.68 8.79697 14.68 9.19128V16.4109C14.68 16.8318 14.5342 17.1882 14.2425 17.4798C13.9509 17.7715 13.5946 17.9173 13.1738 17.9173H3.59044Z" fill="#999999"/>
</g>
</svg>
