<svg width="21" height="21" viewBox="0 0 21 21" fill="none" xmlns="http://www.w3.org/2000/svg">
<mask id="mask0_4673_1491" style="mask-type:alpha" maskUnits="userSpaceOnUse" x="0" y="0" width="21" height="21">
<rect width="21" height="21" fill="#D9D9D9"/>
</mask>
<g mask="url(#mask0_4673_1491)">
<path d="M17.325 11.3077L3.85 16.9952C3.55833 17.1119 3.28125 17.0864 3.01875 16.9187C2.75625 16.751 2.625 16.5067 2.625 16.1859V4.81086C2.625 4.49002 2.75625 4.24575 3.01875 4.07804C3.28125 3.91034 3.55833 3.88482 3.85 4.00148L17.325 9.68898C17.6896 9.8494 17.8719 10.1192 17.8719 10.4984C17.8719 10.8775 17.6896 11.1473 17.325 11.3077ZM4.375 14.8734L14.7438 10.4984L4.375 6.12336V9.18586L9.625 10.4984L4.375 11.8109V14.8734Z" fill="#777777"/>
</g>
</svg>
