<svg width="30" height="30" viewBox="0 0 30 30" fill="none" xmlns="http://www.w3.org/2000/svg">
<mask id="mask0_4573_988" style="mask-type:alpha" maskUnits="userSpaceOnUse" x="0" y="0" width="30" height="30">
<rect width="30" height="30" fill="#D9D9D9"/>
</mask>
<g mask="url(#mask0_4573_988)">
<path d="M1.25 21.5C1.25 20.7917 1.43229 20.1406 1.79688 19.5469C2.16146 18.9531 2.64583 18.5 3.25 18.1875C4.54167 17.5417 5.85417 17.0573 7.1875 16.7344C8.52083 16.4115 9.875 16.25 11.25 16.25C12.625 16.25 13.9792 16.4115 15.3125 16.7344C16.6458 17.0573 17.9583 17.5417 19.25 18.1875C19.8542 18.5 20.3385 18.9531 20.7031 19.5469C21.0677 20.1406 21.25 20.7917 21.25 21.5V22.5C21.25 23.1875 21.0052 23.776 20.5156 24.2656C20.026 24.7552 19.4375 25 18.75 25H3.75C3.0625 25 2.47396 24.7552 1.98438 24.2656C1.49479 23.776 1.25 23.1875 1.25 22.5V21.5ZM26.25 25H23.0625C23.2917 24.625 23.4635 24.224 23.5781 23.7969C23.6927 23.3698 23.75 22.9375 23.75 22.5V21.25C23.75 20.3333 23.4948 19.4531 22.9844 18.6094C22.474 17.7656 21.75 17.0417 20.8125 16.4375C21.875 16.5625 22.875 16.776 23.8125 17.0781C24.75 17.3802 25.625 17.75 26.4375 18.1875C27.1875 18.6042 27.7604 19.0677 28.1562 19.5781C28.5521 20.0885 28.75 20.6458 28.75 21.25V22.5C28.75 23.1875 28.5052 23.776 28.0156 24.2656C27.526 24.7552 26.9375 25 26.25 25ZM11.25 15C9.875 15 8.69792 14.5104 7.71875 13.5312C6.73958 12.5521 6.25 11.375 6.25 10C6.25 8.625 6.73958 7.44792 7.71875 6.46875C8.69792 5.48958 9.875 5 11.25 5C12.625 5 13.8021 5.48958 14.7812 6.46875C15.7604 7.44792 16.25 8.625 16.25 10C16.25 11.375 15.7604 12.5521 14.7812 13.5312C13.8021 14.5104 12.625 15 11.25 15ZM23.75 10C23.75 11.375 23.2604 12.5521 22.2812 13.5312C21.3021 14.5104 20.125 15 18.75 15C18.5208 15 18.2292 14.974 17.875 14.9219C17.5208 14.8698 17.2292 14.8125 17 14.75C17.5625 14.0833 17.9948 13.3438 18.2969 12.5312C18.599 11.7188 18.75 10.875 18.75 10C18.75 9.125 18.599 8.28125 18.2969 7.46875C17.9948 6.65625 17.5625 5.91667 17 5.25C17.2917 5.14583 17.5833 5.07812 17.875 5.04688C18.1667 5.01563 18.4583 5 18.75 5C20.125 5 21.3021 5.48958 22.2812 6.46875C23.2604 7.44792 23.75 8.625 23.75 10ZM3.75 22.5H18.75V21.5C18.75 21.2708 18.6927 21.0625 18.5781 20.875C18.4635 20.6875 18.3125 20.5417 18.125 20.4375C17 19.875 15.8646 19.4531 14.7188 19.1719C13.5729 18.8906 12.4167 18.75 11.25 18.75C10.0833 18.75 8.92708 18.8906 7.78125 19.1719C6.63542 19.4531 5.5 19.875 4.375 20.4375C4.1875 20.5417 4.03646 20.6875 3.92188 20.875C3.80729 21.0625 3.75 21.2708 3.75 21.5V22.5ZM11.25 12.5C11.9375 12.5 12.526 12.2552 13.0156 11.7656C13.5052 11.276 13.75 10.6875 13.75 10C13.75 9.3125 13.5052 8.72396 13.0156 8.23438C12.526 7.74479 11.9375 7.5 11.25 7.5C10.5625 7.5 9.97396 7.74479 9.48438 8.23438C8.99479 8.72396 8.75 9.3125 8.75 10C8.75 10.6875 8.99479 11.276 9.48438 11.7656C9.97396 12.2552 10.5625 12.5 11.25 12.5Z" fill="black"/>
</g>
</svg>
