<svg width="24" height="24" viewBox="0 0 24 24" fill="none" xmlns="http://www.w3.org/2000/svg">
<mask id="mask0_4384_8387" style="mask-type:alpha" maskUnits="userSpaceOnUse" x="0" y="0" width="24" height="24">
<rect width="24" height="24" fill="#D9D9D9"/>
</mask>
<g mask="url(#mask0_4384_8387)">
<path d="M12 12.98L14.03 15.01C14.1583 15.1383 14.3217 15.2025 14.52 15.2025C14.7183 15.2025 14.8817 15.1383 15.01 15.01C15.1383 14.8817 15.2025 14.7183 15.2025 14.52C15.2025 14.3217 15.1383 14.1583 15.01 14.03L12.98 12L15.01 9.97C15.1383 9.84167 15.2025 9.67833 15.2025 9.48C15.2025 9.28167 15.1383 9.11833 15.01 8.99C14.8817 8.86167 14.7183 8.7975 14.52 8.7975C14.3217 8.7975 14.1583 8.86167 14.03 8.99L12 11.02L9.97 8.99C9.84167 8.86167 9.67833 8.7975 9.48 8.7975C9.28167 8.7975 9.11833 8.86167 8.99 8.99C8.86167 9.11833 8.7975 9.28167 8.7975 9.48C8.7975 9.67833 8.86167 9.84167 8.99 9.97L11.02 12L8.99 14.03C8.86167 14.1583 8.7975 14.3217 8.7975 14.52C8.7975 14.7183 8.86167 14.8817 8.99 15.01C9.11833 15.1383 9.28167 15.2025 9.48 15.2025C9.67833 15.2025 9.84167 15.1383 9.97 15.01L12 12.98ZM12 19C11.0317 19 10.1217 18.8162 9.27 18.4487C8.41833 18.0812 7.6775 17.5825 7.0475 16.9525C6.4175 16.3225 5.91875 15.5817 5.55125 14.73C5.18375 13.8783 5 12.9683 5 12C5 11.0317 5.18375 10.1217 5.55125 9.27C5.91875 8.41833 6.4175 7.6775 7.0475 7.0475C7.6775 6.4175 8.41833 5.91875 9.27 5.55125C10.1217 5.18375 11.0317 5 12 5C12.9683 5 13.8783 5.18375 14.73 5.55125C15.5817 5.91875 16.3225 6.4175 16.9525 7.0475C17.5825 7.6775 18.0812 8.41833 18.4487 9.27C18.8162 10.1217 19 11.0317 19 12C19 12.9683 18.8162 13.8783 18.4487 14.73C18.0812 15.5817 17.5825 16.3225 16.9525 16.9525C16.3225 17.5825 15.5817 18.0812 14.73 18.4487C13.8783 18.8162 12.9683 19 12 19Z" fill="#555555"/>
</g>
</svg>
