<svg width="18" height="18" viewBox="0 0 18 18" fill="none" xmlns="http://www.w3.org/2000/svg">
<path d="M9 18C7.77 18 6.6075 17.7638 5.5125 17.2912C4.4175 16.8187 3.46125 16.1737 2.64375 15.3562C1.82625 14.5387 1.18125 13.5825 0.70875 12.4875C0.23625 11.3925 0 10.23 0 9C0 7.755 0.23625 6.58875 0.70875 5.50125C1.18125 4.41375 1.82625 3.46125 2.64375 2.64375C3.46125 1.82625 4.4175 1.18125 5.5125 0.70875C6.6075 0.23625 7.77 0 9 0C10.245 0 11.4112 0.23625 12.4987 0.70875C13.5862 1.18125 14.5387 1.82625 15.3562 2.64375C16.1737 3.46125 16.8187 4.41375 17.2912 5.50125C17.7638 6.58875 18 7.755 18 9C18 10.23 17.7638 11.3925 17.2912 12.4875C16.8187 13.5825 16.1737 14.5387 15.3562 15.3562C14.5387 16.1737 13.5862 16.8187 12.4987 17.2912C11.4112 17.7638 10.245 18 9 18ZM9 16.155C9.39 15.615 9.7275 15.0525 10.0125 14.4675C10.2975 13.8825 10.53 13.26 10.71 12.6H7.29C7.47 13.26 7.7025 13.8825 7.9875 14.4675C8.2725 15.0525 8.61 15.615 9 16.155ZM6.66 15.795C6.39 15.3 6.15375 14.7863 5.95125 14.2537C5.74875 13.7213 5.58 13.17 5.445 12.6H2.79C3.225 13.35 3.76875 14.0025 4.42125 14.5575C5.07375 15.1125 5.82 15.525 6.66 15.795ZM11.34 15.795C12.18 15.525 12.9263 15.1125 13.5788 14.5575C14.2312 14.0025 14.775 13.35 15.21 12.6H12.555C12.42 13.17 12.2512 13.7213 12.0487 14.2537C11.8462 14.7863 11.61 15.3 11.34 15.795ZM2.025 10.8H5.085C5.04 10.5 5.00625 10.2037 4.98375 9.91125C4.96125 9.61875 4.95 9.315 4.95 9C4.95 8.685 4.96125 8.38125 4.98375 8.08875C5.00625 7.79625 5.04 7.5 5.085 7.2H2.025C1.95 7.5 1.89375 7.79625 1.85625 8.08875C1.81875 8.38125 1.8 8.685 1.8 9C1.8 9.315 1.81875 9.61875 1.85625 9.91125C1.89375 10.2037 1.95 10.5 2.025 10.8ZM6.885 10.8H11.115C11.16 10.5 11.1938 10.2037 11.2163 9.91125C11.2388 9.61875 11.25 9.315 11.25 9C11.25 8.685 11.2388 8.38125 11.2163 8.08875C11.1938 7.79625 11.16 7.5 11.115 7.2H6.885C6.84 7.5 6.80625 7.79625 6.78375 8.08875C6.76125 8.38125 6.75 8.685 6.75 9C6.75 9.315 6.76125 9.61875 6.78375 9.91125C6.80625 10.2037 6.84 10.5 6.885 10.8ZM12.915 10.8H15.975C16.05 10.5 16.1062 10.2037 16.1437 9.91125C16.1812 9.61875 16.2 9.315 16.2 9C16.2 8.685 16.1812 8.38125 16.1437 8.08875C16.1062 7.79625 16.05 7.5 15.975 7.2H12.915C12.96 7.5 12.9938 7.79625 13.0163 8.08875C13.0387 8.38125 13.05 8.685 13.05 9C13.05 9.315 13.0387 9.61875 13.0163 9.91125C12.9938 10.2037 12.96 10.5 12.915 10.8ZM12.555 5.4H15.21C14.775 4.65 14.2312 3.9975 13.5788 3.4425C12.9263 2.8875 12.18 2.475 11.34 2.205C11.61 2.7 11.8462 3.21375 12.0487 3.74625C12.2512 4.27875 12.42 4.83 12.555 5.4ZM7.29 5.4H10.71C10.53 4.74 10.2975 4.1175 10.0125 3.5325C9.7275 2.9475 9.39 2.385 9 1.845C8.61 2.385 8.2725 2.9475 7.9875 3.5325C7.7025 4.1175 7.47 4.74 7.29 5.4ZM2.79 5.4H5.445C5.58 4.83 5.74875 4.27875 5.95125 3.74625C6.15375 3.21375 6.39 2.7 6.66 2.205C5.82 2.475 5.07375 2.8875 4.42125 3.4425C3.76875 3.9975 3.225 4.65 2.79 5.4Z" fill="#AAAAAA"/>
</svg>
