<svg width="30" height="30" viewBox="0 0 30 30" fill="none" xmlns="http://www.w3.org/2000/svg">
<path d="M15.1699 8.31227H14.8339C13.8659 8.31227 13.0898 7.52825 13.0898 6.56822V1.74406C13.0898 0.776026 13.8739 0 14.8339 0H15.1699C16.1379 0 16.914 0.784026 16.914 1.74406V6.56022C16.914 7.52825 16.1299 8.31227 15.1699 8.31227Z" fill="#316094"/>
<path d="M15.1699 29.9996H14.8339C13.8659 29.9996 13.0898 29.2156 13.0898 28.2555V23.4394C13.0898 22.4713 13.8739 21.6953 14.8339 21.6953H15.1699C16.1379 21.6953 16.914 22.4793 16.914 23.4394V28.2555C16.914 29.2156 16.1299 29.9996 15.1699 29.9996Z" fill="#C2D0DF"/>
<path d="M8.31227 14.8339V15.1699C8.31227 16.1379 7.52825 16.914 6.56822 16.914H1.74406C0.784026 16.914 0 16.1299 0 15.1699V14.8339C0 13.8659 0.784026 13.0898 1.74406 13.0898H6.56022C7.52825 13.0898 8.31227 13.8739 8.31227 14.8339Z" fill="#83A0BF"/>
<path d="M29.9996 14.8339V15.1699C29.9996 16.1379 29.2156 16.914 28.2555 16.914H23.4394C22.4713 16.914 21.6953 16.1299 21.6953 15.1699V14.8339C21.6953 13.8659 22.4793 13.0898 23.4394 13.0898H28.2555C29.2156 13.0898 29.9996 13.8739 29.9996 14.8339Z" fill="#EBF0F5"/>
<path d="M10.15 19.6077L10.382 19.8397C11.062 20.5197 11.062 21.6317 10.382 22.3118L6.97387 25.7199C6.29385 26.3999 5.18181 26.3999 4.50179 25.7199L4.26978 25.4879C3.58976 24.8078 3.58976 23.6958 4.26978 23.0158L7.6779 19.6077C8.36592 18.9277 9.46995 18.9277 10.15 19.6077Z" fill="#ADBFD4"/>
<path d="M25.4879 4.27174L25.7199 4.50374C26.3999 5.18377 26.3999 6.2958 25.7199 6.97582L22.3118 10.3839C21.6317 11.064 20.5197 11.064 19.8397 10.3839L19.6077 10.1519C18.9277 9.47191 18.9277 8.35987 19.6077 7.67985L23.0158 4.27174C23.6958 3.59171 24.8078 3.59171 25.4879 4.27174Z" fill="#F4F7F9"/>
<path d="M19.6077 19.8475L19.8397 19.6155C20.5197 18.9355 21.6317 18.9355 22.3118 19.6155L25.7199 23.0236C26.3999 23.7036 26.3999 24.8157 25.7199 25.4957L25.4879 25.7277C24.8078 26.4077 23.6958 26.4077 23.0158 25.7277L19.6077 22.3196C18.9277 21.6316 18.9277 20.5275 19.6077 19.8475Z" fill="#D6DFEA"/>
<path d="M4.26978 4.51156L4.50179 4.27955C5.18181 3.59953 6.29385 3.59953 6.97387 4.27955L10.382 7.68766C11.062 8.36768 11.062 9.47972 10.382 10.1597L10.15 10.3917C9.46995 11.0718 8.35792 11.0718 7.6779 10.3917L4.26978 6.98364C3.58976 6.29561 3.58976 5.19158 4.26978 4.51156Z" fill="#5A80A9"/>
</svg>
