<svg width="17" height="17" viewBox="0 0 17 17" fill="none" xmlns="http://www.w3.org/2000/svg">
<mask id="mask0_2578_2126" style="mask-type:alpha" maskUnits="userSpaceOnUse" x="0" y="0" width="17" height="17">
<rect width="17" height="17" fill="#D9D9D9"/>
</mask>
<g mask="url(#mask0_2578_2126)">
<path d="M8.49618 15C7.59836 15 6.75464 14.8296 5.96501 14.4888C5.17539 14.1479 4.48753 13.6845 3.90144 13.0986C3.31546 12.5125 2.85206 11.8242 2.51123 11.0337C2.17041 10.2431 2 9.39846 2 8.49968C2 7.60091 2.17041 6.75634 2.51123 5.96597C2.85206 5.1757 3.31546 4.48753 3.90144 3.90144C4.48753 3.31546 5.17581 2.85206 5.96629 2.51123C6.75687 2.17041 7.60154 2 8.50032 2C9.39909 2 10.2437 2.17041 11.034 2.51123C11.8243 2.85206 12.5125 3.31546 13.0986 3.90144C13.6845 4.48753 14.1479 5.17539 14.4888 5.96501C14.8296 6.75464 15 7.59836 15 8.49618V9.4199C15 10.0632 14.7749 10.6111 14.3246 11.0637C13.8742 11.5162 13.3243 11.7424 12.6751 11.7424C12.2953 11.7424 11.9372 11.6615 11.6007 11.4997C11.2642 11.3379 10.9845 11.1033 10.7615 10.7958C10.4638 11.1139 10.1199 11.3512 9.72983 11.5077C9.33974 11.6642 8.9298 11.7424 8.5 11.7424C7.60101 11.7424 6.83586 11.4268 6.20454 10.7955C5.57322 10.1641 5.25757 9.39899 5.25757 8.5C5.25757 7.60101 5.57322 6.83586 6.20454 6.20454C6.83586 5.57322 7.60101 5.25756 8.5 5.25756C9.39899 5.25756 10.1641 5.57322 10.7955 6.20454C11.4268 6.83586 11.7424 7.60101 11.7424 8.5V9.38948C11.7424 9.65917 11.8314 9.88734 12.0094 10.074C12.1873 10.2607 12.4105 10.354 12.6789 10.354C12.9472 10.354 13.1691 10.2607 13.3446 10.074C13.5201 9.88734 13.6079 9.65917 13.6079 9.38948V8.49618C13.6079 7.07343 13.1123 5.86706 12.121 4.87709C11.1298 3.88711 9.92275 3.39212 8.5 3.39212C7.07725 3.39212 5.87025 3.88774 4.879 4.879C3.88774 5.87025 3.39212 7.07725 3.39212 8.5C3.39212 9.92275 3.88711 11.1298 4.87709 12.121C5.86706 13.1123 7.07343 13.6079 8.49618 13.6079H10.991C11.1878 13.6079 11.3527 13.6744 11.4857 13.8074C11.6187 13.9405 11.6853 14.1053 11.6853 14.302C11.6853 14.4977 11.6187 14.663 11.4857 14.7977C11.3527 14.9326 11.1878 15 10.991 15H8.49618ZM8.50064 10.354C9.01591 10.354 9.45361 10.1737 9.81376 9.81312C10.1739 9.45245 10.354 9.01453 10.354 8.49936C10.354 7.98409 10.1737 7.54639 9.81312 7.18624C9.45245 6.82609 9.01453 6.64602 8.49936 6.64602C7.98409 6.64602 7.54639 6.82631 7.18624 7.18688C6.82609 7.54755 6.64602 7.98548 6.64602 8.50064C6.64602 9.01591 6.82631 9.45361 7.18688 9.81376C7.54755 10.1739 7.98548 10.354 8.50064 10.354Z" fill="#5A5A5A"/>
</g>
</svg>
