<svg width="17" height="17" viewBox="0 0 17 17" fill="none" xmlns="http://www.w3.org/2000/svg">
<mask id="mask0_2578_2108" style="mask-type:alpha" maskUnits="userSpaceOnUse" x="0" y="0" width="17" height="17">
<rect width="17" height="17" fill="#D9D9D9"/>
</mask>
<g mask="url(#mask0_2578_2108)">
<path d="M11.1998 14C10.722 14 10.3158 13.8328 9.98148 13.4983C9.64713 13.1639 9.47996 12.7578 9.47996 12.28C9.47996 12.2149 9.48446 12.1475 9.49346 12.0779C9.50246 12.0081 9.51596 11.9441 9.53396 11.8858L5.88507 9.76224C5.72568 9.90588 5.54626 10.0181 5.34683 10.0988C5.14739 10.1796 4.93845 10.22 4.72002 10.22C4.24222 10.22 3.83609 10.0528 3.50166 9.71837C3.16722 9.38384 3 8.97767 3 8.49987C3 8.02197 3.16722 7.61585 3.50166 7.2815C3.83609 6.94715 4.24222 6.77998 4.72002 6.77998C4.93845 6.77998 5.14739 6.82039 5.34683 6.90121C5.54626 6.98194 5.72568 7.09412 5.88507 7.23776L9.53396 5.11422C9.51596 5.0559 9.50246 4.99187 9.49346 4.92212C9.48446 4.85246 9.47996 4.78509 9.47996 4.72002C9.47996 4.24222 9.64718 3.83609 9.98162 3.50166C10.3161 3.16722 10.7223 3 11.2001 3C11.678 3 12.0841 3.16722 12.4185 3.50166C12.7528 3.83618 12.92 4.24235 12.92 4.72016C12.92 5.19806 12.7528 5.60418 12.4184 5.93853C12.0839 6.27287 11.6778 6.44005 11.2 6.44005C10.9816 6.44005 10.7726 6.40072 10.5732 6.32206C10.3737 6.2434 10.1943 6.13229 10.0349 5.98875L6.38605 8.1058C6.40405 8.16412 6.41755 8.22816 6.42655 8.29791C6.43555 8.36757 6.44005 8.43493 6.44005 8.5C6.44005 8.56507 6.43555 8.63243 6.42655 8.70209C6.41755 8.77184 6.40405 8.83588 6.38605 8.8942L10.0349 11.0113C10.1943 10.8677 10.3737 10.7566 10.5732 10.6779C10.7726 10.5993 10.9816 10.56 11.2 10.56C11.6778 10.56 12.0839 10.7272 12.4184 11.0616C12.7528 11.3961 12.92 11.8023 12.92 12.2801C12.92 12.758 12.7528 13.1641 12.4184 13.4985C12.0838 13.8328 11.6777 14 11.1998 14Z" fill="#5A5A5A"/>
</g>
</svg>
