<svg width="17" height="17" viewBox="0 0 17 17" fill="none" xmlns="http://www.w3.org/2000/svg">
<mask id="mask0_2578_2120" style="mask-type:alpha" maskUnits="userSpaceOnUse" x="0" y="0" width="17" height="17">
<rect width="17" height="17" fill="#D9D9D9"/>
</mask>
<g mask="url(#mask0_2578_2120)">
<path d="M4.53737 14C4.10903 14 3.74572 13.8509 3.44743 13.5526C3.14914 13.2543 3 12.891 3 12.4626V4.53737C3 4.10903 3.14914 3.74572 3.44743 3.44743C3.74572 3.14914 4.10903 3 4.53737 3H12.4626C12.891 3 13.2543 3.14914 13.5526 3.44743C13.8509 3.74572 14 4.10903 14 4.53737V12.4626C14 12.891 13.8509 13.2543 13.5526 13.5526C13.2543 13.8509 12.891 14 12.4626 14H4.53737ZM4.53737 12.4626H12.4626V9.13335H10.8206C10.5305 9.50077 10.1848 9.786 9.78356 9.98905C9.38229 10.1921 8.95444 10.2936 8.5 10.2936C8.04556 10.2936 7.61771 10.1921 7.21644 9.98905C6.81518 9.786 6.46952 9.50077 6.17945 9.13335H4.53737V12.4626ZM8.5 9.13335C8.79297 9.13335 9.06728 9.06175 9.32293 8.91855C9.57848 8.77545 9.78298 8.57883 9.93642 8.3287C10.0066 8.22205 10.0944 8.13609 10.1997 8.07083C10.305 8.00566 10.4219 7.97307 10.5506 7.97307H12.4626V4.53737H4.53737V7.97307H6.44936C6.57805 7.97307 6.69505 8.00566 6.80034 8.07083C6.90564 8.13609 6.99338 8.22205 7.06358 8.3287C7.21702 8.57883 7.42152 8.77545 7.67707 8.91855C7.93272 9.06175 8.20703 9.13335 8.5 9.13335Z" fill="#5A5A5A"/>
</g>
</svg>
