<svg width="17" height="17" viewBox="0 0 17 17" fill="none" xmlns="http://www.w3.org/2000/svg">
<mask id="mask0_2578_2102" style="mask-type:alpha" maskUnits="userSpaceOnUse" x="0" y="0" width="17" height="17">
<rect width="17" height="17" fill="#D9D9D9"/>
</mask>
<g mask="url(#mask0_2578_2102)">
<path d="M3 8.06863V4.22222C3 3.88611 3.11968 3.59838 3.35903 3.35903C3.59838 3.11968 3.88611 3 4.22222 3H7.88889L7.88889 8.06863H3ZM9.11111 3H12.7778C13.1139 3 13.4016 3.11968 13.641 3.35903C13.8803 3.59838 14 3.88611 14 4.22222V8.06863H9.11111V3ZM9.11111 14V8.93137H14V12.7778C14 13.1139 13.8803 13.4016 13.641 13.641C13.4016 13.8803 13.1139 14 12.7778 14H9.11111ZM3 8.93137H7.88889V14H4.22222C3.88611 14 3.59838 13.8803 3.35903 13.641C3.11968 13.4016 3 13.1139 3 12.7778V8.93137ZM4.22222 6.84641H6.66667V4.22222H4.22222V6.84641ZM10.3333 6.84641H12.7778V4.22222H10.3333V6.84641ZM10.3333 10.1536V12.7778H12.7778V10.1536H10.3333ZM4.22222 10.1536V12.7778H6.66667V10.1536H4.22222Z" fill="#5A5A5A"/>
</g>
</svg>
