<svg width="17" height="17" viewBox="0 0 17 17" fill="none" xmlns="http://www.w3.org/2000/svg">
<mask id="mask0_2578_2114" style="mask-type:alpha" maskUnits="userSpaceOnUse" x="0" y="0" width="17" height="17">
<rect width="17" height="17" fill="#D9D9D9"/>
</mask>
<g mask="url(#mask0_2578_2114)">
<path d="M4.2487 14.1671C3.85911 14.1671 3.52561 14.0283 3.24818 13.7509C2.97075 13.4735 2.83203 13.14 2.83203 12.7504V11.3337C2.83203 11.133 2.89991 10.9648 3.03568 10.829C3.17144 10.6933 3.33967 10.6254 3.54036 10.6254C3.74106 10.6254 3.90929 10.6933 4.04505 10.829C4.18082 10.9648 4.2487 11.133 4.2487 11.3337V12.7504H12.7487V11.3337C12.7487 11.133 12.8166 10.9648 12.9523 10.829C13.0881 10.6933 13.2563 10.6254 13.457 10.6254C13.6577 10.6254 13.826 10.6933 13.9617 10.829C14.0975 10.9648 14.1654 11.133 14.1654 11.3337V12.7504C14.1654 13.14 14.0267 13.4735 13.7492 13.7509C13.4718 14.0283 13.1383 14.1671 12.7487 14.1671H4.2487ZM7.79036 5.56081L6.46224 6.88893C6.32057 7.0306 6.15234 7.09848 5.95755 7.09258C5.76276 7.08668 5.59453 7.01289 5.45286 6.87122C5.323 6.72956 5.25512 6.56428 5.24922 6.37539C5.24332 6.1865 5.3112 6.02122 5.45286 5.87956L8.00286 3.32956C8.0737 3.25872 8.15043 3.20855 8.23307 3.17904C8.31571 3.14952 8.40425 3.13477 8.4987 3.13477C8.59314 3.13477 8.68168 3.14952 8.76432 3.17904C8.84696 3.20855 8.9237 3.25872 8.99453 3.32956L11.5445 5.87956C11.6862 6.02122 11.7541 6.1865 11.7482 6.37539C11.7423 6.56428 11.6744 6.72956 11.5445 6.87122C11.4029 7.01289 11.2346 7.08668 11.0398 7.09258C10.8451 7.09848 10.6768 7.0306 10.5352 6.88893L9.20703 5.56081V10.6254C9.20703 10.8261 9.13915 10.9943 9.00339 11.1301C8.86762 11.2658 8.69939 11.3337 8.4987 11.3337C8.298 11.3337 8.12977 11.2658 7.99401 11.1301C7.85825 10.9943 7.79036 10.8261 7.79036 10.6254V5.56081Z" fill="#5A5A5A"/>
</g>
</svg>
