<svg width="24" height="24" viewBox="0 0 24 24" fill="none" xmlns="http://www.w3.org/2000/svg">
<mask id="mask0_2578_1860" style="mask-type:alpha" maskUnits="userSpaceOnUse" x="0" y="0" width="24" height="24">
<rect width="24" height="24" fill="#D9D9D9"/>
</mask>
<g mask="url(#mask0_2578_1860)">
<path d="M4.80775 19.5H6.875V17.125H4.5V19.1923C4.5 19.2692 4.53208 19.3398 4.59625 19.4038C4.66025 19.4679 4.73075 19.5 4.80775 19.5ZM8.375 19.5H10.75V17.125H8.375V19.5ZM12.25 19.5H14.625V17.125H12.25V19.5ZM16.125 19.5H18.1923C18.2692 19.5 18.3398 19.4679 18.4038 19.4038C18.4679 19.3398 18.5 19.2692 18.5 19.1923V17.125H16.125V19.5ZM4.5 7.875H6.875V5.5H4.80775C4.73075 5.5 4.66025 5.53208 4.59625 5.59625C4.53208 5.66025 4.5 5.73075 4.5 5.80775V7.875ZM4.5 11.75H6.875V9.375H4.5V11.75ZM4.5 15.625H6.875V13.25H4.5V15.625ZM8.375 7.875H10.75V5.5H8.375V7.875ZM8.375 11.75H10.75V9.375H8.375V11.75ZM8.375 15.625H10.75V13.25H8.375V15.625ZM12.25 7.875H14.625V5.5H12.25V7.875ZM12.25 11.75H14.625V9.375H12.25V11.75ZM12.25 15.625H14.625V13.25H12.25V15.625ZM16.125 7.875H18.5V5.80775C18.5 5.73075 18.4679 5.66025 18.4038 5.59625C18.3398 5.53208 18.2692 5.5 18.1923 5.5H16.125V7.875ZM16.125 11.75H18.5V9.375H16.125V11.75ZM16.125 15.625H18.5V13.25H16.125V15.625ZM4.80775 21C4.30258 21 3.875 20.825 3.525 20.475C3.175 20.125 3 19.6974 3 19.1923V5.80775C3 5.30258 3.175 4.875 3.525 4.525C3.875 4.175 4.30258 4 4.80775 4H18.1923C18.6974 4 19.125 4.175 19.475 4.525C19.825 4.875 20 5.30258 20 5.80775V19.1923C20 19.6974 19.825 20.125 19.475 20.475C19.125 20.825 18.6974 21 18.1923 21H4.80775Z" fill="#000000"/>
</g>
</svg>
