<svg width="24" height="24" viewBox="0 0 24 24" fill="none" xmlns="http://www.w3.org/2000/svg">
<mask id="mask0_2633_1019" style="mask-type:alpha" maskUnits="userSpaceOnUse" x="0" y="0" width="24" height="24">
<rect width="24" height="24" fill="#D9D9D9"/>
</mask>
<g mask="url(#mask0_2633_1019)">
<g clip-path="url(#clip0_2633_1019)">
<path d="M15.7153 19.8739C15.7153 18.3047 13.9214 14.9127 11.4804 14.2207C11.1981 14.1193 11.0881 13.7517 11.4454 13.5337C12.7621 12.9405 13.684 11.6425 13.684 10.086C13.684 7.9768 11.9976 6.26562 9.91888 6.26562C7.84018 6.26562 6.15373 7.9768 6.15373 10.086C6.15373 11.6095 7.03318 12.9202 8.30489 13.5337C8.68715 13.7162 8.67466 14.1319 8.34486 14.2207C5.91138 14.9178 4.125 18.3554 4.125 19.8739" stroke="#316094" stroke-width="1.5" stroke-miterlimit="10" stroke-linecap="round" stroke-linejoin="round"/>
<path d="M18.8752 18.7352C18.8752 17.166 17.0813 13.7741 14.6403 13.082C14.358 12.9806 14.2481 12.613 14.6054 12.395C15.922 11.8018 16.844 10.5038 16.844 8.9473C16.844 6.83812 15.1575 5.12695 13.0788 5.12695C12.0395 5.12695 11.0975 5.55538 10.418 6.24492" stroke="#316094" stroke-width="1.5" stroke-miterlimit="10" stroke-linecap="round" stroke-linejoin="round"/>
</g>
</g>
<defs>
<clipPath id="clip0_2633_1019">
<rect width="16" height="15" fill="white" transform="translate(4 4)"/>
</clipPath>
</defs>
</svg>
