<svg width="24" height="24" viewBox="0 0 24 24" fill="none" xmlns="http://www.w3.org/2000/svg">
<path d="M15.3005 14.5848L15.3005 14.5848C15.7217 14.5607 16.1524 14.5391 16.5904 14.542M15.3005 14.5848L20.8794 15.9395M15.3005 14.5848L15.2989 14.5849C15.1664 14.5938 15.0351 14.6049 14.9052 14.6161C14.7676 14.4714 14.6341 14.3223 14.5042 14.1701C13.5894 13.0842 12.8469 11.8527 12.2391 10.5691C12.3979 9.9463 12.5252 9.29636 12.603 8.62142C12.7477 7.36564 12.8019 5.90659 12.3196 4.67601L12.3196 4.67599C12.2315 4.45141 12.0691 4.19784 11.8522 4.03153C11.6297 3.86097 11.3363 3.77535 11.023 3.93279L11.0229 3.9328C10.6898 4.10026 10.4878 4.41527 10.3637 4.74437C10.2392 5.07468 10.1857 5.43819 10.1619 5.73296L10.1619 5.73302C10.1234 6.21294 10.1504 6.69304 10.2304 7.16272L10.2305 7.163C10.3118 7.63511 10.4424 8.0814 10.5824 8.5209L10.5826 8.52163C10.7082 8.90912 10.8461 9.29369 10.9959 9.6748C10.9023 9.9655 10.8033 10.2512 10.6997 10.5299C10.4435 11.2033 10.1665 11.8435 9.89846 12.4626L9.48415 13.3626L9.48382 13.3634C9.06462 14.2866 8.61073 15.192 8.10309 16.0672M15.3005 14.5848L8.20511 16.1902M16.5904 14.542C17.1461 14.5415 17.7112 14.5677 18.2669 14.6563C18.6121 14.7113 19.1734 14.8017 19.7045 14.9786C20.2273 15.1527 20.7626 15.4236 21.0103 15.8663M16.5904 14.542C16.5906 14.542 16.5907 14.542 16.5909 14.542L16.5899 14.692L16.5898 14.542C16.59 14.542 16.5902 14.542 16.5904 14.542ZM21.0103 15.8663L20.8794 15.9395M21.0103 15.8663C21.0103 15.8662 21.0102 15.8662 21.0102 15.8662L20.8794 15.9395M21.0103 15.8663C21.1135 16.0505 21.1647 16.2611 21.1463 16.4976M20.8794 15.9395C20.9684 16.0983 21.0128 16.2794 20.9968 16.486M21.1463 16.4976L20.9968 16.486M21.1463 16.4976C21.1463 16.4976 21.1463 16.4976 21.1463 16.4976L20.9968 16.486M21.1463 16.4976C21.1149 16.9038 20.8561 17.1641 20.5518 17.3194C20.2508 17.473 19.8895 17.5341 19.5993 17.5451L19.5992 17.5451C19.3407 17.5548 19.0884 17.5387 18.8425 17.5034L18.8397 17.503L18.8397 17.503C18.359 17.4247 17.895 17.3012 17.4362 17.1509L17.4335 17.15L17.4335 17.15C16.9739 16.9896 16.5358 16.775 16.1249 16.5215C15.6168 16.2136 15.1508 15.8481 14.7198 15.4485C14.123 15.5046 13.5373 15.5829 12.966 15.6779C11.687 15.8915 10.4812 16.181 9.3719 16.5234C8.71905 17.4557 8.09465 18.2287 7.54431 18.84L7.51821 18.869C7.12506 19.3058 6.68987 19.7893 6.20144 20.1967C5.70152 20.6136 5.13686 20.9588 4.49008 21.0948C4.10622 21.1755 3.62163 21.2037 3.24418 20.9216C2.96328 20.7172 2.83243 20.3864 2.8519 20.055L2.8519 20.055C2.88535 19.4883 3.26343 18.9942 3.60474 18.6363M20.9968 16.486L3.7133 18.7398M3.60474 18.6363L3.7133 18.7398M3.60474 18.6363C3.60474 18.6363 3.60474 18.6363 3.60473 18.6363L3.7133 18.7398M3.60474 18.6363C3.97259 18.2504 4.41219 17.9008 4.90641 17.5806L4.90652 17.5805C5.81361 16.9941 6.89939 16.4961 8.10309 16.0672M3.7133 18.7398C4.07135 18.3642 4.50127 18.0218 4.98796 17.7065C5.89524 17.1199 6.9877 16.6208 8.20511 16.1902M8.10309 16.0672C8.09391 16.083 8.08473 16.0989 8.07552 16.1146L8.20511 16.1902M8.10309 16.0672C8.1204 16.0611 8.13773 16.0549 8.15509 16.0488L8.20511 16.1902M4.11172 19.1123L4.2205 19.2156C4.52568 18.8941 4.91419 18.5799 5.36463 18.2871L5.36467 18.2871C5.9461 17.9089 6.62449 17.561 7.3773 17.2433C7.15306 17.586 6.9366 17.8971 6.73149 18.1745L6.73112 18.175C6.71126 18.2021 6.69133 18.2293 6.67134 18.2566C6.39848 18.6294 6.11272 19.0199 5.78757 19.363C5.43927 19.7306 5.05389 20.0348 4.60574 20.199C4.43072 20.2631 4.21473 20.3235 3.99347 20.3104L3.99343 20.3104C3.89663 20.3047 3.8164 20.2808 3.76574 20.2448C3.72319 20.2145 3.69584 20.1731 3.69883 20.098L3.69885 20.0977C3.7025 20.0005 3.7534 19.8555 3.84819 19.6968L3.84826 19.6967C3.95077 19.5247 4.07902 19.3649 4.22058 19.2155L4.11172 19.1123ZM4.11172 19.1123C3.96474 19.2674 3.82902 19.436 3.71941 19.6199L5.28288 18.1613C4.82481 18.4591 4.42664 18.7806 4.11172 19.1123ZM11.3246 4.74617L11.3257 4.74588C11.3347 4.74328 11.341 4.74147 11.3603 4.76079C11.3874 4.78794 11.4178 4.84008 11.4467 4.91748C11.496 5.0496 11.5236 5.20488 11.5418 5.30668C11.5446 5.32272 11.5473 5.33743 11.5497 5.35051L11.5497 5.35054C11.7297 6.3184 11.5751 7.40351 11.3544 8.38095C11.344 8.34889 11.3337 8.31683 11.3236 8.28474C11.1924 7.86317 11.0744 7.44296 11.0075 7.03359L11.0073 7.03252C10.9376 6.62444 10.9271 6.21042 10.9699 5.81239L10.9699 5.8123C10.991 5.61612 11.0308 5.42537 11.0879 5.24746L11.088 5.2474C11.0919 5.23515 11.096 5.22202 11.1004 5.20819C11.1262 5.12636 11.1599 5.01981 11.204 4.92261C11.2296 4.8661 11.2559 4.81956 11.2817 4.7866C11.2943 4.77043 11.305 4.75984 11.3133 4.75333C11.3206 4.74757 11.3244 4.74625 11.3246 4.74617ZM11.3246 4.74617L11.3246 4.74618M11.3246 4.74617C11.3247 4.74616 11.3247 4.74617 11.3246 4.74618M11.3246 4.74618L11.3246 4.74619L11.3246 4.74618ZM10.6523 14.5101C11.1629 13.6085 11.5907 12.6661 11.9158 11.6814C12.4744 12.7373 13.141 13.7478 13.9444 14.6576L13.9452 14.6584C13.9604 14.6754 13.9756 14.6924 13.991 14.7093C13.5995 14.7555 13.2134 14.8092 12.8341 14.8702L12.8338 14.8703C11.8899 15.0237 10.9853 15.218 10.1259 15.4449C10.1705 15.3716 10.217 15.2922 10.2631 15.2119C10.3717 15.0226 10.4856 14.8141 10.5651 14.6686C10.6039 14.5976 10.6345 14.5416 10.6523 14.5101ZM10.6523 14.5101L10.5218 14.4362M10.6523 14.5101C10.6523 14.5101 10.6524 14.51 10.6524 14.51L10.5218 14.4362M10.5218 14.4362C11.052 13.4998 11.4918 12.52 11.8186 11.4951L10.5218 14.4362ZM15.724 15.3781C16.0096 15.3656 16.2962 15.3595 16.5832 15.3649L16.5846 15.3649C16.9985 15.3691 17.4132 15.39 17.8214 15.4434L17.8214 15.4434L17.8242 15.4438C18.5876 15.5291 19.4297 15.7912 20.013 16.2733C20.0638 16.3153 20.0881 16.3476 20.0989 16.3683C20.1081 16.386 20.1069 16.3937 20.1066 16.3956C20.1056 16.4008 20.0988 16.4207 20.0606 16.4518C20.0235 16.4821 19.9695 16.5124 19.9028 16.5406C19.7697 16.5969 19.613 16.6337 19.5134 16.6495C18.904 16.7456 18.2549 16.6691 17.6647 16.4703L17.6647 16.4703C17.2579 16.3334 16.8645 16.1466 16.4897 15.921C16.2228 15.7594 15.9677 15.5769 15.724 15.3781Z" fill="#999999" stroke="#000000" stroke-width="0.3"/>
</svg>
