<svg width="14" height="14" viewBox="0 0 14 14" fill="none" xmlns="http://www.w3.org/2000/svg">
<mask id="mask0_2633_858" style="mask-type:alpha" maskUnits="userSpaceOnUse" x="0" y="0" width="14" height="14">
<rect width="14" height="14" fill="#D9D9D9"/>
</mask>
<g mask="url(#mask0_2633_858)">
<path d="M5.97846 9.40625C6.94213 9.40625 7.75938 9.06996 8.43021 8.39738C9.10104 7.72489 9.43646 6.90822 9.43646 5.94738C9.43646 4.98663 9.10017 4.17083 8.42758 3.5C7.7551 2.82917 6.93843 2.49375 5.97758 2.49375C5.01683 2.49375 4.19861 2.83004 3.52292 3.50263C2.84722 4.17511 2.50938 4.99178 2.50938 5.95263C2.50938 6.91338 2.84664 7.72917 3.52117 8.4C4.19569 9.07083 5.01479 9.40625 5.97846 9.40625ZM5.98021 11.2438C4.49835 11.2438 3.24316 10.7309 2.21465 9.70521C1.18613 8.67961 0.671875 7.42788 0.671875 5.95C0.671875 4.47222 1.18613 3.22049 2.21465 2.19479C3.24316 1.1691 4.49835 0.65625 5.98021 0.65625C7.45808 0.65625 8.70982 1.1691 9.73542 2.19479C10.7611 3.22039 11.274 4.47213 11.274 5.95C11.274 6.52604 11.1913 7.06869 11.026 7.57794C10.8608 8.08709 10.6226 8.56042 10.3115 8.99792L12.7031 11.3896C12.8781 11.5646 12.9656 11.7773 12.9656 12.0278C12.9656 12.2783 12.8781 12.4946 12.7031 12.6767C12.5281 12.8589 12.3141 12.95 12.061 12.95C11.8079 12.95 11.5893 12.8576 11.4052 12.6729L9.01354 10.2813C8.57604 10.5826 8.10427 10.8184 7.59823 10.9885C7.09209 11.1587 6.55275 11.2438 5.98021 11.2438Z" fill="#333333"/>
</g>
</svg>
