<svg width="24" height="24" viewBox="0 0 24 24" fill="none" xmlns="http://www.w3.org/2000/svg">
<mask id="mask0_2633_1210" style="mask-type:alpha" maskUnits="userSpaceOnUse" x="0" y="0" width="24" height="24">
<rect width="24" height="24" fill="#D9D9D9"/>
</mask>
<g mask="url(#mask0_2633_1210)">
<g clip-path="url(#clip0_2633_1210)">
<path d="M17.5903 18.6082C17.5903 17.039 15.7964 13.6471 13.3554 12.955C13.0731 12.8536 12.9631 12.4861 13.3204 12.268C14.6371 11.6748 15.559 10.3769 15.559 8.82035C15.559 6.71117 13.8726 5 11.7939 5C9.71518 5 8.02873 6.71117 8.02873 8.82035C8.02873 10.3439 8.90818 11.6546 10.1799 12.268C10.5621 12.4506 10.5497 12.8663 10.2199 12.955C7.78638 13.6522 6 17.0897 6 18.6082" stroke="#555555" stroke-width="1.5" stroke-miterlimit="10" stroke-linecap="round" stroke-linejoin="round"/>
</g>
</g>
<defs>
<clipPath id="clip0_2633_1210">
<rect width="16" height="15" fill="white" transform="translate(4 4)"/>
</clipPath>
</defs>
</svg>
