<svg width="42" height="42" viewBox="0 0 42 42" fill="none" xmlns="http://www.w3.org/2000/svg">
<mask id="mask0_47_1701" style="mask-type:alpha" maskUnits="userSpaceOnUse" x="0" y="0" width="42" height="42">
<rect width="42" height="42" fill="#D9D9D9"/>
</mask>
<g mask="url(#mask0_47_1701)">
<path d="M17.685 25.9809C17.4742 25.9809 17.2897 25.9017 17.1316 25.7434C16.9732 25.5853 16.894 25.4008 16.894 25.1899V16.81C16.894 16.5992 16.9732 16.4147 17.1316 16.2566C17.2897 16.0982 17.4742 16.019 17.685 16.019H23.5576C23.9861 16.019 24.3512 16.17 24.6531 16.4719C24.955 16.7737 25.1059 17.1389 25.1059 17.5674V19.519C25.1059 19.914 24.9747 20.2539 24.7122 20.5389C24.4497 20.8238 24.121 20.9775 23.726 21C24.121 21.0335 24.4497 21.19 24.7122 21.4694C24.9747 21.7488 25.1059 22.086 25.1059 22.4809V24.4326C25.1059 24.8611 24.955 25.2262 24.6531 25.5281C24.3512 25.83 23.9861 25.9809 23.5576 25.9809H17.685ZM18.9809 19.9565H23.019V18.1059H18.9809V19.9565ZM18.9809 23.894H23.019V22.0434H18.9809V23.894ZM6.59617 25.9809C6.29546 25.9809 6.04638 25.8822 5.84892 25.6847C5.65146 25.4873 5.55273 25.2382 5.55273 24.9375V17.5674C5.55273 17.1389 5.70367 16.7737 6.00555 16.4719C6.30742 16.17 6.67259 16.019 7.10105 16.019H12.2163C12.6448 16.019 13.0099 16.17 13.3118 16.4719C13.6134 16.7737 13.7642 17.1389 13.7642 17.5674V24.9541C13.7642 25.2437 13.6656 25.4873 13.4684 25.6847C13.271 25.8822 13.0219 25.9809 12.7212 25.9809C12.4205 25.9809 12.1714 25.8822 11.9739 25.6847C11.7765 25.4873 11.6777 25.2382 11.6777 24.9375V23.1875H7.63917V24.9541C7.63917 25.2437 7.54059 25.4873 7.34342 25.6847C7.14596 25.8822 6.89688 25.9809 6.59617 25.9809ZM7.63917 21.101H11.6777V18.1059H7.63917V21.101ZM29.7837 25.9809C29.3552 25.9809 28.99 25.83 28.6882 25.5281C28.3866 25.2262 28.2358 24.8611 28.2358 24.4326V17.5674C28.2358 17.1389 28.3866 16.7737 28.6882 16.4719C28.99 16.17 29.3552 16.019 29.7837 16.019H34.8989C35.3274 16.019 35.6925 16.17 35.9944 16.4719C36.2963 16.7737 36.4472 17.1389 36.4472 17.5674V18.7285C36.4472 19.0178 36.3485 19.2612 36.151 19.4587C35.9536 19.6561 35.7045 19.7549 35.4038 19.7549C35.1031 19.7549 34.854 19.6561 34.6565 19.4587C34.4594 19.2612 34.3608 19.0121 34.3608 18.7114V18.1059H30.3222V23.894H34.3608V23.2885C34.3608 22.9878 34.4594 22.7388 34.6565 22.5413C34.854 22.3438 35.1031 22.2451 35.4038 22.2451C35.7045 22.2451 35.9536 22.3438 36.151 22.5413C36.3485 22.7388 36.4472 22.9878 36.4472 23.2885V24.4326C36.4472 24.8611 36.2963 25.2262 35.9944 25.5281C35.6925 25.83 35.3274 25.9809 34.8989 25.9809H29.7837Z" fill="#777777"/>
</g>
</svg>
