<svg width="42" height="42" viewBox="0 0 42 42" fill="none" xmlns="http://www.w3.org/2000/svg">
<mask id="mask0_47_1708" style="mask-type:alpha" maskUnits="userSpaceOnUse" x="0" y="0" width="42" height="42">
<rect width="42" height="42" fill="#D9D9D9"/>
</mask>
<g mask="url(#mask0_47_1708)">
<path d="M21 18.0049C20.6275 18.0049 20.3158 18.1304 20.0646 18.3816C19.8132 18.633 19.6875 18.9449 19.6875 19.3174V25.7924L17.3722 23.4771C17.1299 23.2347 16.8252 23.1108 16.4583 23.1052C16.0917 23.0994 15.7815 23.2234 15.5278 23.4771C15.2743 23.7306 15.1476 24.0379 15.1476 24.3989C15.1476 24.7603 15.2743 25.0677 15.5278 25.3212L19.8927 29.6861C20.2091 30.0023 20.5782 30.1604 21 30.1604C21.4218 30.1604 21.7909 30.0023 22.1073 29.6861L26.4723 25.3212C26.7143 25.0788 26.8383 24.7742 26.8441 24.4073C26.8497 24.0406 26.7257 23.7306 26.4723 23.4771C26.2185 23.2234 25.9111 23.0965 25.55 23.0965C25.1889 23.0965 24.8815 23.2234 24.6278 23.4771L22.3125 25.7924V19.3174C22.3125 18.9449 22.1868 18.633 21.9354 18.3816C21.6842 18.1304 21.3725 18.0049 21 18.0049ZM8.75 13.8316V32.7114C8.75 32.8686 8.80046 32.9977 8.90138 33.0986C9.00229 33.1995 9.13135 33.25 9.28856 33.25H32.7114C32.8686 33.25 32.9977 33.1995 33.0986 33.0986C33.1995 32.9977 33.25 32.8686 33.25 32.7114V13.8316H8.75ZM9.42331 35.875C8.55035 35.875 7.7824 35.5435 7.11944 34.8806C6.45648 34.2176 6.125 33.4496 6.125 32.5767V12.2601C6.125 11.8856 6.18508 11.5283 6.30525 11.1882C6.42512 10.8484 6.60508 10.5349 6.84513 10.2476L9.30212 7.27606C9.58912 6.90127 9.94802 6.61573 10.3788 6.41944C10.8096 6.22314 11.265 6.125 11.7451 6.125H30.2212C30.7013 6.125 31.1595 6.22314 31.5958 6.41944C32.0321 6.61573 32.394 6.90127 32.6812 7.27606L35.1549 10.2812C35.3949 10.5685 35.5749 10.8849 35.6948 11.2302C35.8149 11.5758 35.875 11.936 35.875 12.3108V32.5767C35.875 33.4496 35.5435 34.2176 34.8806 34.8806C34.2176 35.5435 33.4496 35.875 32.5767 35.875H9.42331ZM9.43337 11.207H32.55L30.6416 8.93506C30.5856 8.87906 30.5212 8.83415 30.4483 8.80031C30.3753 8.76677 30.2996 8.75 30.2212 8.75H11.7622C11.6837 8.75 11.6079 8.76677 11.5347 8.80031C11.4618 8.83415 11.3973 8.87906 11.3413 8.93506L9.43337 11.207Z" fill="#777777"/>
</g>
</svg>
