<svg width="42" height="42" viewBox="0 0 42 42" fill="none" xmlns="http://www.w3.org/2000/svg">
<mask id="mask0_47_1641" style="mask-type:alpha" maskUnits="userSpaceOnUse" x="0" y="0" width="42" height="42">
<rect width="42" height="42" fill="#D9D9D9"/>
</mask>
<g mask="url(#mask0_47_1641)">
<path d="M9.28856 37.625C8.40452 37.625 7.65625 37.3187 7.04375 36.7062C6.43125 36.0937 6.125 35.3455 6.125 34.4614V11.0386C6.125 10.1545 6.43125 9.40625 7.04375 8.79375C7.65625 8.18125 8.40452 7.875 9.28856 7.875H11.7114V5.51906C11.7114 5.13552 11.8399 4.81527 12.0969 4.55831C12.3538 4.30164 12.6741 4.17331 13.0576 4.17331C13.4415 4.17331 13.7617 4.30164 14.0184 4.55831C14.2753 4.81527 14.4038 5.13552 14.4038 5.51906V7.875H27.6636V5.48581C27.6636 5.11335 27.7891 4.80141 28.0402 4.55C28.2917 4.29887 28.6036 4.17331 28.9761 4.17331C29.3485 4.17331 29.6603 4.29887 29.9114 4.55C30.1629 4.80141 30.2886 5.11335 30.2886 5.48581V7.875H32.7114C33.5955 7.875 34.3438 8.18125 34.9563 8.79375C35.5688 9.40625 35.875 10.1545 35.875 11.0386V34.4614C35.875 35.3455 35.5688 36.0937 34.9563 36.7062C34.3438 37.3187 33.5955 37.625 32.7114 37.625H9.28856ZM9.28856 35H32.7114C32.8462 35 32.9696 34.9439 33.0816 34.8316C33.1939 34.7196 33.25 34.5962 33.25 34.4614V18.0386H8.75V34.4614C8.75 34.5962 8.80615 34.7196 8.91844 34.8316C9.03044 34.9439 9.15381 35 9.28856 35ZM8.75 15.4136H33.25V11.0386C33.25 10.9038 33.1939 10.7804 33.0816 10.6684C32.9696 10.5561 32.8462 10.5 32.7114 10.5H9.28856C9.15381 10.5 9.03044 10.5561 8.91844 10.6684C8.80615 10.7804 8.75 10.9038 8.75 11.0386V15.4136ZM21 24.6347C20.5715 24.6347 20.2064 24.4838 19.9045 24.1819C19.6029 23.8804 19.4521 23.5152 19.4521 23.0864C19.4521 22.658 19.6029 22.2928 19.9045 21.9909C20.2064 21.6894 20.5715 21.5386 21 21.5386C21.4285 21.5386 21.7936 21.6894 22.0955 21.9909C22.3971 22.2928 22.5479 22.658 22.5479 23.0864C22.5479 23.5152 22.3971 23.8804 22.0955 24.1819C21.7936 24.4838 21.4285 24.6347 21 24.6347ZM14 24.6347C13.5715 24.6347 13.2064 24.4838 12.9045 24.1819C12.6029 23.8804 12.4521 23.5152 12.4521 23.0864C12.4521 22.658 12.6029 22.2928 12.9045 21.9909C13.2064 21.6894 13.5715 21.5386 14 21.5386C14.4285 21.5386 14.7936 21.6894 15.0955 21.9909C15.3971 22.2928 15.5479 22.658 15.5479 23.0864C15.5479 23.5152 15.3971 23.8804 15.0955 24.1819C14.7936 24.4838 14.4285 24.6347 14 24.6347ZM28 24.6347C27.5715 24.6347 27.2064 24.4838 26.9045 24.1819C26.6029 23.8804 26.4521 23.5152 26.4521 23.0864C26.4521 22.658 26.6029 22.2928 26.9045 21.9909C27.2064 21.6894 27.5715 21.5386 28 21.5386C28.4285 21.5386 28.7936 21.6894 29.0955 21.9909C29.3971 22.2928 29.5479 22.658 29.5479 23.0864C29.5479 23.5152 29.3971 23.8804 29.0955 24.1819C28.7936 24.4838 28.4285 24.6347 28 24.6347ZM21 31.5C20.5715 31.5 20.2064 31.3491 19.9045 31.0472C19.6029 30.7456 19.4521 30.3806 19.4521 29.9521C19.4521 29.5234 19.6029 29.1582 19.9045 28.8566C20.2064 28.5547 20.5715 28.4038 21 28.4038C21.4285 28.4038 21.7936 28.5547 22.0955 28.8566C22.3971 29.1582 22.5479 29.5234 22.5479 29.9521C22.5479 30.3806 22.3971 30.7456 22.0955 31.0472C21.7936 31.3491 21.4285 31.5 21 31.5ZM14 31.5C13.5715 31.5 13.2064 31.3491 12.9045 31.0472C12.6029 30.7456 12.4521 30.3806 12.4521 29.9521C12.4521 29.5234 12.6029 29.1582 12.9045 28.8566C13.2064 28.5547 13.5715 28.4038 14 28.4038C14.4285 28.4038 14.7936 28.5547 15.0955 28.8566C15.3971 29.1582 15.5479 29.5234 15.5479 29.9521C15.5479 30.3806 15.3971 30.7456 15.0955 31.0472C14.7936 31.3491 14.4285 31.5 14 31.5ZM28 31.5C27.5715 31.5 27.2064 31.3491 26.9045 31.0472C26.6029 30.7456 26.4521 30.3806 26.4521 29.9521C26.4521 29.5234 26.6029 29.1582 26.9045 28.8566C27.2064 28.5547 27.5715 28.4038 28 28.4038C28.4285 28.4038 28.7936 28.5547 29.0955 28.8566C29.3971 29.1582 29.5479 29.5234 29.5479 29.9521C29.5479 30.3806 29.3971 30.7456 29.0955 31.0472C28.7936 31.3491 28.4285 31.5 28 31.5Z" fill="#AAAAAA"/>
</g>
</svg>
