<svg width="42" height="42" viewBox="0 0 42 42" fill="none" xmlns="http://www.w3.org/2000/svg">
<mask id="mask0_47_1670" style="mask-type:alpha" maskUnits="userSpaceOnUse" x="0" y="0" width="42" height="42">
<rect width="42" height="42" fill="#D9D9D9"/>
</mask>
<g mask="url(#mask0_47_1670)">
<path d="M30.625 32.4962V35.7C30.625 36.0725 30.4993 36.3843 30.2479 36.6354C29.9967 36.8868 29.685 37.0125 29.3125 37.0125C28.94 37.0125 28.6283 36.8868 28.3771 36.6354C28.1257 36.3843 28 36.0725 28 35.7V30.1201C28 29.5257 28.2048 29.0238 28.6143 28.6143C29.0238 28.2048 29.5257 28 30.1201 28H35.7C36.0725 28 36.3843 28.1257 36.6354 28.3771C36.8868 28.6283 37.0125 28.94 37.0125 29.3125C37.0125 29.685 36.8868 29.9967 36.6354 30.2479C36.3843 30.4993 36.0725 30.625 35.7 30.625H32.4524L37.1473 35.3198C37.3893 35.5619 37.5104 35.8619 37.5104 36.2198C37.5104 36.5776 37.3893 36.8868 37.1473 37.1473C36.8868 37.4185 36.5749 37.5514 36.2114 37.5458C35.848 37.5403 35.5362 37.4074 35.2761 37.1473L30.625 32.4962ZM21 37.625C18.7025 37.625 16.5426 37.1881 14.5202 36.3142C12.4975 35.4404 10.7379 34.2552 9.24131 32.7587C7.74477 31.2621 6.55958 29.5025 5.68575 27.4798C4.81192 25.4574 4.375 23.2975 4.375 21C4.375 18.7025 4.81192 16.5426 5.68575 14.5202C6.55958 12.4975 7.74477 10.7379 9.24131 9.24131C10.7379 7.74477 12.4975 6.55958 14.5202 5.68575C16.5426 4.81192 18.7025 4.375 21 4.375C23.2975 4.375 25.4574 4.81192 27.4798 5.68575C29.5025 6.55958 31.2621 7.74477 32.7587 9.24131C34.2552 10.7379 35.4404 12.4975 36.3142 14.5202C37.1881 16.5426 37.625 18.7025 37.625 21C37.625 21.3027 37.6177 21.6291 37.6031 21.9791C37.5885 22.3291 37.561 22.6556 37.5204 22.9587C37.4735 23.3311 37.317 23.625 37.051 23.8403C36.7853 24.0558 36.4572 24.1636 36.0666 24.1636C35.7233 24.1636 35.4306 24.0154 35.1886 23.7191C34.9462 23.423 34.8486 23.0978 34.8959 22.7434C34.9542 22.4404 34.9861 22.1497 34.9917 21.8715C34.9972 21.5933 35 21.3027 35 21C35 20.3607 34.958 19.7241 34.874 19.0903C34.7897 18.4562 34.6579 17.8252 34.4785 17.1973H27.9729C28.0828 17.8252 28.1626 18.4562 28.2122 19.0903C28.2615 19.7241 28.2861 20.3607 28.2861 21C28.2861 21.3027 28.2834 21.6248 28.2778 21.966C28.272 22.307 28.2545 22.6288 28.2253 22.9316C28.1784 23.304 28.0246 23.6024 27.7642 23.8267C27.504 24.0513 27.1877 24.1636 26.8153 24.1636C26.472 24.1636 26.172 24.0244 25.9153 23.7462C25.6584 23.4679 25.5534 23.1516 25.6003 22.7972C25.6295 22.4942 25.647 22.1947 25.6528 21.8986C25.6584 21.6023 25.6611 21.3027 25.6611 21C25.6611 20.3607 25.6365 19.7241 25.5872 19.0903C25.5376 18.4562 25.458 17.8252 25.3483 17.1973H16.6517C16.542 17.8252 16.4624 18.4562 16.4128 19.0903C16.3635 19.7241 16.3389 20.3607 16.3389 21C16.3389 21.6393 16.3635 22.2759 16.4128 22.9097C16.4624 23.5438 16.542 24.1748 16.6517 24.8027H21.7739C22.1464 24.8027 22.4583 24.9285 22.7098 25.1799C22.9609 25.431 23.0864 25.7428 23.0864 26.1152C23.0864 26.4877 22.9609 26.7996 22.7098 27.0511C22.4583 27.3022 22.1464 27.4278 21.7739 27.4278H17.2541C17.638 28.8053 18.1377 30.1262 18.7534 31.3906C19.3694 32.655 20.1183 33.8457 21 34.9628C21.3141 34.9628 21.6283 34.9646 21.9424 34.9681C22.2565 34.9713 22.5649 34.9528 22.8677 34.9125C23.2291 34.8653 23.5308 34.9583 23.7729 35.1916C24.0153 35.425 24.1364 35.7223 24.1364 36.0837C24.1364 36.4739 24.0361 36.7993 23.8354 37.0597C23.6345 37.3199 23.3478 37.4735 22.9753 37.5204C22.6726 37.561 22.3462 37.5885 21.9962 37.6031C21.6462 37.6177 21.3141 37.625 21 37.625ZM7.5215 24.8027H14.0271C13.9172 24.1748 13.8374 23.5438 13.7878 22.9097C13.7385 22.2759 13.7139 21.6393 13.7139 21C13.7139 20.3607 13.7385 19.7241 13.7878 19.0903C13.8374 18.4562 13.9172 17.8252 14.0271 17.1973H7.5215C7.34212 17.8252 7.21029 18.4562 7.126 19.0903C7.042 19.7241 7 20.3607 7 21C7 21.6393 7.042 22.2759 7.126 22.9097C7.21029 23.5438 7.34212 24.1748 7.5215 24.8027ZM17.6111 34.5152C16.9068 33.4227 16.3015 32.283 15.7955 31.0962C15.2895 29.9094 14.8772 28.6866 14.5587 27.4278H8.62225C9.53517 29.2294 10.7736 30.7494 12.3375 31.9878C13.9014 33.2265 15.6593 34.069 17.6111 34.5152ZM8.62225 14.5723H14.5587C14.8547 13.3023 15.253 12.074 15.7535 10.8872C16.2537 9.7001 16.8729 8.56596 17.6111 7.48475C15.6479 7.91992 13.8873 8.75671 12.3292 9.99513C10.7708 11.2335 9.53517 12.7593 8.62225 14.5723ZM17.2541 14.5723H24.7459C24.3734 13.1947 23.8707 11.8794 23.2378 10.6264C22.6052 9.37315 21.8592 8.17673 21 7.03719C20.1294 8.15427 19.3805 9.345 18.7534 10.6094C18.1264 11.8738 17.6266 13.1947 17.2541 14.5723ZM27.4413 14.5723H33.3778C32.4648 12.7593 31.2292 11.2308 29.6708 9.98681C28.1127 8.74256 26.3521 7.90854 24.3889 7.48475C25.0933 8.57733 25.69 9.71979 26.1791 10.9121C26.6683 12.1047 27.089 13.3248 27.4413 14.5723Z" fill="#777777"/>
</g>
</svg>
