<svg width="42" height="42" viewBox="0 0 42 42" fill="none" xmlns="http://www.w3.org/2000/svg">
<mask id="mask0_47_1656" style="mask-type:alpha" maskUnits="userSpaceOnUse" x="0" y="0" width="42" height="42">
<rect width="42" height="42" fill="#D9D9D9"/>
</mask>
<g mask="url(#mask0_47_1656)">
<path d="M14.0538 16.1604L19.6473 6.99343C19.8109 6.72423 20.0114 6.53231 20.2488 6.41768C20.486 6.30335 20.7364 6.24619 21 6.24619C21.2637 6.24619 21.5141 6.30335 21.7512 6.41768C21.9886 6.53231 22.1892 6.72423 22.3528 6.99343L27.9462 16.1604C28.1098 16.424 28.1917 16.7008 28.1917 16.9907C28.1917 17.281 28.1244 17.5461 27.99 17.7861C27.8552 18.0262 27.6702 18.2179 27.4348 18.3614C27.1991 18.5049 26.9242 18.5767 26.6101 18.5767H15.39C15.0747 18.5767 14.7988 18.5042 14.5622 18.3592C14.3257 18.2143 14.1416 18.0232 14.0101 17.7861C13.8756 17.5496 13.8084 17.2868 13.8084 16.9977C13.8084 16.7087 13.8902 16.4296 14.0538 16.1604ZM30.625 37.8267C28.6169 37.8267 26.9146 37.1284 25.5181 35.7319C24.1216 34.3354 23.4233 32.6331 23.4233 30.625C23.4233 28.6169 24.1216 26.9146 25.5181 25.5181C26.9146 24.1216 28.6169 23.4233 30.625 23.4233C32.6332 23.4233 34.3355 24.1216 35.732 25.5181C37.1285 26.9146 37.8267 28.6169 37.8267 30.625C37.8267 32.6331 37.1285 34.3354 35.732 35.7319C34.3355 37.1284 32.6332 37.8267 30.625 37.8267ZM5.92334 35.3697V25.8759C5.92334 25.4276 6.07486 25.0526 6.3779 24.7507C6.68124 24.4491 7.05705 24.2983 7.50534 24.2983H16.9991C17.4474 24.2983 17.8225 24.4498 18.1243 24.7529C18.4259 25.0562 18.5767 25.432 18.5767 25.8803V35.3741C18.5767 35.8223 18.4252 36.1974 18.1222 36.4993C17.8188 36.8009 17.443 36.9517 16.9947 36.9517H7.50096C7.05267 36.9517 6.67759 36.8002 6.37571 36.4971C6.07413 36.1938 5.92334 35.818 5.92334 35.3697ZM30.6246 35.2021C31.9059 35.2021 32.9891 34.7597 33.8743 33.8747C34.7595 32.9898 35.2022 31.9067 35.2022 30.6254C35.2022 29.3441 34.7597 28.2609 33.8748 27.3757C32.9899 26.4905 31.9068 26.0479 30.6255 26.0479C29.3442 26.0479 28.2609 26.4903 27.3757 27.3752C26.4905 28.2602 26.0479 29.3433 26.0479 30.6246C26.0479 31.9059 26.4904 32.9891 27.3753 33.8743C28.2602 34.7595 29.3433 35.2021 30.6246 35.2021ZM8.5479 34.3271H15.9522V26.9229H8.5479V34.3271ZM17.2174 15.9521H24.7827L21 9.86737L17.2174 15.9521Z" fill="#777777"/>
</g>
</svg>
