<svg width="42" height="42" viewBox="0 0 42 42" fill="none" xmlns="http://www.w3.org/2000/svg">
<mask id="mask0_47_1624" style="mask-type:alpha" maskUnits="userSpaceOnUse" x="0" y="0" width="42" height="42">
<rect width="42" height="42" fill="#D9D9D9"/>
</mask>
<g mask="url(#mask0_47_1624)">
<path d="M10.5 37.625C9.27733 37.625 8.2425 37.2015 7.3955 36.3545C6.5485 35.5075 6.125 34.4727 6.125 33.25V31.3652C6.125 30.4955 6.43475 29.7509 7.05425 29.1314C7.67375 28.5119 8.41852 28.2021 9.28856 28.2021H11.375V7.53856C11.375 6.66852 11.6847 5.92375 12.3042 5.30425C12.9237 4.68475 13.6685 4.375 14.5386 4.375H32.7114C33.5815 4.375 34.3263 4.68475 34.9457 5.30425C35.5653 5.92375 35.875 6.66852 35.875 7.53856V33.25C35.875 34.4727 35.4515 35.5075 34.6045 36.3545C33.7575 37.2015 32.7227 37.625 31.5 37.625H10.5ZM31.5 35C31.9958 35 32.4115 34.8323 32.7469 34.4969C33.0823 34.1615 33.25 33.7458 33.25 33.25V7.53856C33.25 7.38135 33.1995 7.25229 33.0986 7.15138C32.9977 7.05046 32.8686 7 32.7114 7H14.5386C14.3814 7 14.2523 7.05046 14.1514 7.15138C14.0505 7.25229 14 7.38135 14 7.53856V28.2021H26.5864C27.4565 28.2021 28.2013 28.5119 28.8208 29.1314C29.4403 29.7509 29.75 30.4955 29.75 31.3652V33.25C29.75 33.7458 29.9177 34.1615 30.2531 34.4969C30.5885 34.8323 31.0042 35 31.5 35ZM17.3989 15.2114C17.0271 15.2114 16.7154 15.0856 16.464 14.8339C16.2123 14.5822 16.0864 14.2704 16.0864 13.8985C16.0864 13.5263 16.2123 13.2147 16.464 12.9636C16.7154 12.7121 17.0271 12.5864 17.3989 12.5864H29.8511C30.2229 12.5864 30.5346 12.7123 30.786 12.964C31.0377 13.2157 31.1636 13.5276 31.1636 13.8998C31.1636 14.2717 31.0377 14.5833 30.786 14.8348C30.5346 15.0859 30.2229 15.2114 29.8511 15.2114H17.3989ZM17.3989 20.2597C17.0271 20.2597 16.7154 20.1339 16.464 19.8822C16.2123 19.6305 16.0864 19.3185 16.0864 18.9464C16.0864 18.5745 16.2123 18.2629 16.464 18.0114C16.7154 17.7603 17.0271 17.6348 17.3989 17.6348H29.8511C30.2229 17.6348 30.5346 17.7606 30.786 18.0123C31.0377 18.2637 31.1636 18.5755 31.1636 18.9477C31.1636 19.3199 31.0377 19.6315 30.786 19.8826C30.5346 20.134 30.2229 20.2597 29.8511 20.2597H17.3989ZM10.5 35H27.125V31.3652C27.125 31.2083 27.0745 31.0794 26.9736 30.9785C26.8727 30.8773 26.7436 30.8267 26.5864 30.8267H9.28856C9.13135 30.8267 9.00229 30.8773 8.90138 30.9785C8.80046 31.0794 8.75 31.2083 8.75 31.3652V33.25C8.75 33.7458 8.91771 34.1615 9.25312 34.4969C9.58854 34.8323 10.0042 35 10.5 35ZM10.5 35H8.75H27.125H10.5Z" fill="#AAAAAA"/>
</g>
</svg>
