<svg width="42" height="42" viewBox="0 0 42 42" fill="none" xmlns="http://www.w3.org/2000/svg">
<mask id="mask0_47_1663" style="mask-type:alpha" maskUnits="userSpaceOnUse" x="0" y="0" width="42" height="42">
<rect width="42" height="42" fill="#D9D9D9"/>
</mask>
<g mask="url(#mask0_47_1663)">
<path d="M35.0437 16.4062L33.2162 14.5788L34.2929 13.4584C34.4052 13.3461 34.4614 13.2198 34.4614 13.0795C34.4614 12.9392 34.4052 12.813 34.2929 12.701L29.2989 7.70698C29.1869 7.59469 29.0607 7.53855 28.9204 7.53855C28.7801 7.53855 28.6539 7.59469 28.5416 7.70698L27.4211 8.78367L25.5499 6.91249L26.694 5.72467C27.2864 5.1323 28.0167 4.8434 28.885 4.85798C29.7533 4.87257 30.4836 5.17605 31.076 5.76842L36.2315 10.9239C36.8239 11.5163 37.1201 12.2393 37.1201 13.093C37.1201 13.9468 36.8239 14.6698 36.2315 15.2622L35.0437 16.4062ZM15.3059 36.1878C14.7135 36.7802 13.9905 37.0764 13.1367 37.0764C12.283 37.0764 11.56 36.7802 10.9676 36.1878L5.8795 31.0992C5.27575 30.4958 4.97387 29.7504 4.97387 28.8632C4.97387 27.9759 5.27575 27.2304 5.8795 26.6267L6.95619 25.55L8.82737 27.4212L7.72356 28.4979C7.61127 28.6102 7.55512 28.7364 7.55512 28.8767C7.55512 29.017 7.61127 29.1432 7.72356 29.2552L12.7447 34.2764C12.8567 34.3887 12.9829 34.4448 13.1232 34.4448C13.2635 34.4448 13.3898 34.3887 13.5021 34.2764L14.5787 33.1725L16.4499 35.0437L15.3059 36.1878ZM32.5062 22.8847L34.7475 20.6434C34.8598 20.5311 34.9159 20.4021 34.9159 20.2562C34.9159 20.1104 34.8598 19.9813 34.7475 19.869L22.1309 7.25242C22.0186 7.14013 21.8895 7.08398 21.7437 7.08398C21.5979 7.08398 21.4688 7.14013 21.3565 7.25242L19.1152 9.49374C19.0032 9.60603 18.9472 9.73217 18.9472 9.87217C18.9472 10.0125 19.0032 10.1388 19.1152 10.251L31.7489 22.8847C31.8612 22.9967 31.9875 23.0527 32.1277 23.0527C32.2677 23.0527 32.3939 22.9967 32.5062 22.8847ZM20.6434 34.7475L22.8847 32.4791C22.9967 32.3671 23.0527 32.241 23.0527 32.1007C23.0527 31.9604 22.9967 31.8342 22.8847 31.7222L10.2777 19.1152C10.1657 19.0032 10.0395 18.9472 9.89925 18.9472C9.75896 18.9472 9.63281 19.0032 9.52081 19.1152L7.25237 21.3565C7.14008 21.4688 7.08394 21.5979 7.08394 21.7437C7.08394 21.8896 7.14008 22.0186 7.25237 22.1309L19.869 34.7475C19.9813 34.8598 20.1104 34.916 20.2562 34.916C20.402 34.916 20.5311 34.8598 20.6434 34.7475ZM19.8926 25.0149L25.042 19.8927L22.1072 16.9579L16.985 22.1073L19.8926 25.0149ZM22.4975 36.5916C21.894 37.1954 21.1469 37.4972 20.2562 37.4972C19.3654 37.4972 18.6183 37.1954 18.0149 36.5916L5.40831 23.985C4.80456 23.3816 4.50269 22.6345 4.50269 21.7437C4.50269 20.853 4.80456 20.1059 5.40831 19.5024L7.64962 17.244C8.25308 16.6406 8.99844 16.3389 9.88569 16.3389C10.7732 16.3389 11.5187 16.6406 12.1222 17.244L15.1138 20.2361L20.2632 15.0872L17.2711 12.1222C16.6677 11.5188 16.3659 10.7688 16.3659 9.87217C16.3659 8.97588 16.6677 8.22601 17.2711 7.62255L19.5295 5.36461C20.133 4.76086 20.8783 4.45898 21.7656 4.45898C22.6528 4.45898 23.3982 4.76086 24.0016 5.36461L36.6353 17.9983C37.2391 18.6018 37.5409 19.3471 37.5409 20.2344C37.5409 21.1216 37.2391 21.867 36.6353 22.4704L34.3774 24.7288C33.7739 25.3323 33.024 25.634 32.1277 25.634C31.2312 25.634 30.4811 25.3323 29.8777 24.7288L26.9128 21.7367L21.7638 26.8861L24.7559 29.8777C25.3593 30.4812 25.6611 31.2267 25.6611 32.1142C25.6611 33.0015 25.3593 33.7468 24.7559 34.3503L22.4975 36.5916Z" fill="#777777"/>
</g>
</svg>
