<svg width="42" height="42" viewBox="0 0 42 42" fill="none" xmlns="http://www.w3.org/2000/svg">
<mask id="mask0_47_1632" style="mask-type:alpha" maskUnits="userSpaceOnUse" x="0" y="0" width="42" height="42">
<rect width="42" height="42" fill="#D9D9D9"/>
</mask>
<g mask="url(#mask0_47_1632)">
<path d="M14.2021 33.9229C13.4802 33.9229 12.8621 33.6659 12.3479 33.152C11.834 32.6378 11.5771 32.0198 11.5771 31.2979V28.5049C11.5771 28.0566 11.7286 27.6809 12.0316 27.3779C12.3349 27.0748 12.7106 26.9233 13.1586 26.9233H16.6249V22.1104C15.705 22.1757 14.7644 22.0833 13.8031 21.833C12.8417 21.5828 12.0065 21.1402 11.2975 20.5052C11.133 20.3462 11.0026 20.1674 10.9064 19.9688C10.8104 19.7702 10.7624 19.5598 10.7624 19.3375V17.8364H9.17386C8.96795 17.8364 8.76845 17.7984 8.57536 17.7223C8.38228 17.6458 8.20436 17.5264 8.04161 17.3639L4.38455 13.7069C4.05963 13.3817 3.90549 13.0027 3.92211 12.5698C3.93903 12.1367 4.11695 11.7676 4.45586 11.4625C5.3017 10.7401 6.35505 10.2072 7.61593 9.86388C8.8768 9.52059 10.0715 9.34895 11.1999 9.34895C12.1546 9.34895 13.0825 9.45788 13.9837 9.67576C14.8853 9.89334 15.7657 10.2522 16.6249 10.7524V10.4326C16.6249 9.73847 16.8664 9.14988 17.3494 8.66688C17.8324 8.18388 18.421 7.94238 19.1152 7.94238H32.7192C33.5867 7.94238 34.3295 8.25214 34.9479 8.87164C35.5659 9.49114 35.8749 10.2359 35.8749 11.1059V29.5479C35.8749 30.7708 35.4514 31.8057 34.6044 32.6524C33.7574 33.4994 32.7226 33.9229 31.4999 33.9229H14.2021ZM19.2499 26.9233H28.202C28.6305 26.9233 28.9955 27.0741 29.2971 27.3757C29.599 27.6776 29.7499 28.0427 29.7499 28.4712V29.5479C29.7499 30.0437 29.9176 30.4593 30.253 30.7948C30.5885 31.1302 31.0041 31.2979 31.4999 31.2979C31.9958 31.2979 32.4114 31.1302 32.7468 30.7948C33.0822 30.4593 33.2499 30.0437 33.2499 29.5479V11.1059C33.2499 10.9487 33.1995 10.8197 33.0985 10.7188C32.9976 10.6178 32.8686 10.5674 32.7114 10.5674H19.7885C19.6313 10.5674 19.5022 10.6178 19.4013 10.7188C19.3004 10.8197 19.2499 10.9487 19.2499 11.1059V12.4924L28.9489 22.1913C29.1492 22.3876 29.2717 22.6112 29.3164 22.862C29.3607 23.1125 29.328 23.3594 29.2184 23.6027C29.1084 23.8462 28.9544 24.0398 28.7564 24.1833C28.5586 24.3271 28.3057 24.3989 27.9977 24.3989C27.8219 24.3989 27.652 24.361 27.4881 24.2852C27.3238 24.2094 27.187 24.1172 27.0777 24.0087L22.3124 19.2434L21.6426 19.9128C21.2681 20.2876 20.8856 20.613 20.495 20.8889C20.1048 21.1648 19.6898 21.3903 19.2499 21.5653V26.9233ZM9.63149 15.2114H11.8059C12.2539 15.2114 12.6295 15.3631 12.9329 15.6664C13.2359 15.9695 13.3874 16.3452 13.3874 16.7934V18.8059C13.8608 19.1067 14.3208 19.3118 14.7673 19.4215C15.2138 19.5315 15.6604 19.5864 16.1069 19.5864C16.8405 19.5864 17.505 19.4676 18.1006 19.2299C18.6962 18.9922 19.2677 18.5996 19.8152 18.0521L20.4684 17.3989L17.7152 14.6462C16.8244 13.7554 15.826 13.0874 14.72 12.642C13.614 12.1966 12.4407 11.9739 11.1999 11.9739C10.4818 11.9739 9.7903 12.0514 9.1253 12.2063C8.46001 12.3611 7.83672 12.571 7.25542 12.8358L9.63149 15.2114ZM27.1249 29.5479H14.2021V31.2979H27.5222C27.3787 31.0468 27.2766 30.7735 27.2159 30.478C27.1553 30.1828 27.1249 29.8728 27.1249 29.5479Z" fill="#AAAAAA"/>
</g>
</svg>
