<svg width="42" height="42" viewBox="0 0 42 42" fill="none" xmlns="http://www.w3.org/2000/svg">
<mask id="mask0_47_1715" style="mask-type:alpha" maskUnits="userSpaceOnUse" x="0" y="0" width="42" height="42">
<rect width="42" height="42" fill="#D9D9D9"/>
</mask>
<g mask="url(#mask0_47_1715)">
<path d="M39.375 9.28856V32.7114C39.375 33.5815 39.0653 34.3263 38.4458 34.9457C37.8262 35.5653 37.0815 35.875 36.2114 35.875H30.1875C29.8156 35.875 29.5038 35.7491 29.2521 35.4974C29.0007 35.2457 28.875 34.9339 28.875 34.5621C28.875 34.1899 29.0007 33.8783 29.2521 33.6271C29.5038 33.3757 29.8156 33.25 30.1875 33.25H36.2114C36.3686 33.25 36.4977 33.1995 36.5986 33.0986C36.6995 32.9977 36.75 32.8686 36.75 32.7114V9.28856C36.75 9.13135 36.6995 9.00229 36.5986 8.90138C36.4977 8.80046 36.3686 8.75 36.2114 8.75H21C20.8428 8.75 20.7137 8.80046 20.6128 8.90138C20.5119 9.00229 20.4614 9.13135 20.4614 9.28856V10.7524C20.4614 11.1243 20.3356 11.4361 20.0839 11.6878C19.8322 11.9392 19.5204 12.0649 19.1485 12.0649C18.7763 12.0649 18.4647 11.9392 18.2136 11.6878C17.9621 11.4361 17.8364 11.1243 17.8364 10.7524V9.23475C17.8364 8.38425 18.1421 7.65333 18.7534 7.042C19.3648 6.43067 20.0957 6.125 20.9462 6.125H36.2114C37.0815 6.125 37.8262 6.43475 38.4458 7.05425C39.0653 7.67375 39.375 8.41852 39.375 9.28856ZM2.625 21.3128C2.625 20.7969 2.74225 20.3106 2.97675 19.8542C3.21125 19.3974 3.53938 19.0256 3.96113 18.7386L12.1726 12.8861C12.4636 12.6767 12.7613 12.5262 13.0655 12.4346C13.3697 12.343 13.6806 12.2973 13.9983 12.2973C14.3159 12.2973 14.6272 12.343 14.9323 12.4346C15.2371 12.5262 15.5355 12.6767 15.8274 12.8861L24.0389 18.7386C24.4606 19.0256 24.7888 19.3974 25.0233 19.8542C25.2578 20.3106 25.375 20.7969 25.375 21.3128V32.7114C25.375 33.5815 25.0653 34.3263 24.4458 34.9457C23.8263 35.5653 23.0815 35.875 22.2114 35.875H19.1489C18.2792 35.875 17.5346 35.5653 16.9151 34.9457C16.2956 34.3263 15.9858 33.5815 15.9858 32.7114V27.5625H12.0142V32.7114C12.0142 33.5815 11.7044 34.3263 11.0849 34.9457C10.4654 35.5653 9.72081 35.875 8.85106 35.875H5.78856C4.91852 35.875 4.17375 35.5653 3.55425 34.9457C2.93475 34.3263 2.625 33.5815 2.625 32.7114V21.3128ZM5.25 21.2861V32.7114C5.25 32.8686 5.30046 32.9977 5.40138 33.0986C5.50229 33.1995 5.63135 33.25 5.78856 33.25H8.85106C9.00798 33.25 9.1369 33.1995 9.23781 33.0986C9.33902 32.9977 9.38963 32.8686 9.38963 32.7114V27.5962C9.38963 26.858 9.64819 26.2303 10.1653 25.7132C10.6824 25.1961 11.31 24.9375 12.0479 24.9375H15.9521C16.69 24.9375 17.3176 25.1961 17.8347 25.7132C18.3518 26.2303 18.6104 26.858 18.6104 27.5962V32.7114C18.6104 32.8686 18.661 32.9977 18.7622 33.0986C18.8631 33.1995 18.992 33.25 19.1489 33.25H22.2114C22.3686 33.25 22.4977 33.1995 22.5986 33.0986C22.6995 32.9977 22.75 32.8686 22.75 32.7114V21.2861C22.75 21.1963 22.7303 21.1121 22.6909 21.0337C22.6519 20.9552 22.5929 20.8879 22.5142 20.8316L14.3028 15.0399C14.2132 14.9726 14.1123 14.9389 14 14.9389C13.8877 14.9389 13.7868 14.9726 13.6972 15.0399L5.48581 20.8316C5.40706 20.8879 5.34815 20.9552 5.30906 21.0337C5.26969 21.1121 5.25 21.1963 5.25 21.2861ZM30.7427 15.5479H32.2573C32.4682 15.5479 32.6527 15.4688 32.8108 15.3108C32.9688 15.1527 33.0479 14.9682 33.0479 14.7573V13.2427C33.0479 13.0318 32.9688 12.8473 32.8108 12.6892C32.6527 12.5312 32.4682 12.4521 32.2573 12.4521H30.7427C30.5318 12.4521 30.3473 12.5312 30.1892 12.6892C30.0312 12.8473 29.9521 13.0318 29.9521 13.2427V14.7573C29.9521 14.9682 30.0312 15.1527 30.1892 15.3108C30.3473 15.4688 30.5318 15.5479 30.7427 15.5479ZM30.7427 22.5479H32.2573C32.4682 22.5479 32.6527 22.4688 32.8108 22.3107C32.9688 22.1527 33.0479 21.9682 33.0479 21.7573V20.2427C33.0479 20.0318 32.9688 19.8473 32.8108 19.6893C32.6527 19.5312 32.4682 19.4521 32.2573 19.4521H30.7427C30.5318 19.4521 30.3473 19.5312 30.1892 19.6893C30.0312 19.8473 29.9521 20.0318 29.9521 20.2427V21.7573C29.9521 21.9682 30.0312 22.1527 30.1892 22.3107C30.3473 22.4688 30.5318 22.5479 30.7427 22.5479ZM30.7427 29.5479H32.2573C32.4682 29.5479 32.6527 29.4688 32.8108 29.3107C32.9688 29.1527 33.0479 28.9682 33.0479 28.7573V27.2427C33.0479 27.0318 32.9688 26.8473 32.8108 26.6893C32.6527 26.5312 32.4682 26.4521 32.2573 26.4521H30.7427C30.5318 26.4521 30.3473 26.5312 30.1892 26.6893C30.0312 26.8473 29.9521 27.0318 29.9521 27.2427V28.7573C29.9521 28.9682 30.0312 29.1527 30.1892 29.3107C30.3473 29.4688 30.5318 29.5479 30.7427 29.5479Z" fill="#777777"/>
</g>
</svg>
