<svg width="42" height="42" viewBox="0 0 42 42" fill="none" xmlns="http://www.w3.org/2000/svg">
<mask id="mask0_47_1693" style="mask-type:alpha" maskUnits="userSpaceOnUse" x="0" y="0" width="42" height="42">
<rect width="42" height="42" fill="#D9D9D9"/>
</mask>
<g mask="url(#mask0_47_1693)">
<path d="M21 37.625C18.7206 37.625 16.5696 37.1881 14.5469 36.3142C12.5242 35.4404 10.7602 34.2507 9.25487 32.7451C7.74929 31.2398 6.55958 29.4758 5.68575 27.4531C4.81192 25.4304 4.375 23.2794 4.375 21C4.375 18.7025 4.81192 16.547 5.68575 14.5333C6.55958 12.5196 7.74929 10.7602 9.25487 9.25487C10.7602 7.74929 12.5242 6.55958 14.5469 5.68575C16.5696 4.81192 18.7206 4.375 21 4.375C23.2975 4.375 25.453 4.81192 27.4667 5.68575C29.4804 6.55958 31.2398 7.74929 32.7451 9.25487C34.2507 10.7602 35.4404 12.5196 36.3142 14.5333C37.1881 16.547 37.625 18.7025 37.625 21C37.625 23.2794 37.1881 25.4304 36.3142 27.4531C35.4404 29.4758 34.2507 31.2398 32.7451 32.7451C31.2398 34.2507 29.4804 35.4404 27.4667 36.3142C25.453 37.1881 23.2975 37.625 21 37.625ZM21 34.9628C21.8931 33.7784 22.6447 32.5837 23.2549 31.3788C23.865 30.1739 24.362 28.8569 24.7459 27.4278H17.2541C17.6604 28.9018 18.1631 30.2413 18.7622 31.4462C19.361 32.6511 20.1069 33.8233 21 34.9628ZM17.6111 34.4816C16.9403 33.5191 16.3379 32.4249 15.8038 31.199C15.2698 29.9728 14.8547 28.7158 14.5587 27.4278H8.62225C9.54654 29.2451 10.7861 30.772 12.341 32.0084C13.8959 33.2445 15.6526 34.0689 17.6111 34.4816ZM24.3889 34.4816C26.3474 34.0689 28.1041 33.2445 29.659 32.0084C31.2139 30.772 32.4535 29.2451 33.3778 27.4278H27.4413C27.089 28.7268 26.6458 29.9895 26.1118 31.2156C25.578 32.4418 25.0037 33.5304 24.3889 34.4816ZM7.5215 24.8027H14.0271C13.9172 24.1523 13.8374 23.5146 13.7878 22.8896C13.7385 22.2648 13.7139 21.635 13.7139 21C13.7139 20.365 13.7385 19.7352 13.7878 19.1104C13.8374 18.4854 13.9172 17.8477 14.0271 17.1973H7.5215C7.35321 17.7917 7.22429 18.4097 7.13475 19.0514C7.04492 19.693 7 20.3426 7 21C7 21.6574 7.04492 22.307 7.13475 22.9486C7.22429 23.5903 7.35321 24.2083 7.5215 24.8027ZM16.6517 24.8027H25.3483C25.458 24.1523 25.5376 23.5203 25.5872 22.9066C25.6365 22.293 25.6611 21.6574 25.6611 21C25.6611 20.3426 25.6365 19.707 25.5872 19.0934C25.5376 18.4797 25.458 17.8477 25.3483 17.1973H16.6517C16.542 17.8477 16.4624 18.4797 16.4128 19.0934C16.3635 19.707 16.3389 20.3426 16.3389 21C16.3389 21.6574 16.3635 22.293 16.4128 22.9066C16.4624 23.5203 16.542 24.1523 16.6517 24.8027ZM27.9729 24.8027H34.4785C34.6468 24.2083 34.7757 23.5903 34.8652 22.9486C34.9551 22.307 35 21.6574 35 21C35 20.3426 34.9551 19.693 34.8652 19.0514C34.7757 18.4097 34.6468 17.7917 34.4785 17.1973H27.9729C28.0828 17.8477 28.1626 18.4854 28.2122 19.1104C28.2615 19.7352 28.2861 20.365 28.2861 21C28.2861 21.635 28.2615 22.2648 28.2122 22.8896C28.1626 23.5146 28.0828 24.1523 27.9729 24.8027ZM27.4413 14.5723H33.3778C32.4424 12.7324 31.2113 11.2055 29.6844 9.99163C28.1575 8.778 26.3923 7.94792 24.3889 7.50138C25.0597 8.51988 25.6565 9.63389 26.1791 10.8434C26.7021 12.0527 27.1228 13.2956 27.4413 14.5723ZM17.2541 14.5723H24.7459C24.3396 13.1093 23.8286 11.7613 23.2129 10.5284C22.5969 9.29556 21.8592 8.13181 21 7.03719C20.1407 8.13181 19.4031 9.29556 18.7871 10.5284C18.1714 11.7613 17.6604 13.1093 17.2541 14.5723ZM8.62225 14.5723H14.5587C14.8772 13.2956 15.2979 12.0527 15.8209 10.8434C16.3435 9.63389 16.9403 8.51988 17.6111 7.50138C15.5963 7.94792 13.8284 8.78092 12.3073 10.0004C10.786 11.2195 9.55763 12.7435 8.62225 14.5723Z" fill="#777777"/>
</g>
</svg>
