<svg width="42" height="42" viewBox="0 0 42 42" fill="none" xmlns="http://www.w3.org/2000/svg">
<mask id="mask0_47_1677" style="mask-type:alpha" maskUnits="userSpaceOnUse" x="0" y="0" width="42" height="42">
<rect width="42" height="42" fill="#D9D9D9"/>
</mask>
<g mask="url(#mask0_47_1677)">
<path d="M20.9999 37.4465C20.9999 34.153 22.0858 31.1646 24.2575 28.4813C26.4293 25.7979 29.0868 24.112 32.2301 23.4233C32.672 23.311 33.1039 23.2768 33.526 23.3205C33.9477 23.3643 34.3178 23.5511 34.6363 23.881C34.919 24.1927 35.0821 24.5578 35.1259 24.976C35.1696 25.3943 35.1355 25.801 35.0235 26.1962C34.3078 29.3348 32.6122 31.9945 29.9367 34.1753C27.2613 36.3561 24.2823 37.4465 20.9999 37.4465ZM24.1429 34.3473C26.1195 33.7348 27.8135 32.7228 29.2249 31.3115C30.636 29.9004 31.6478 28.2065 32.2603 26.2299C30.2837 26.8424 28.5898 27.8542 27.1787 29.2653C25.7673 30.6766 24.7554 32.3706 24.1429 34.3473ZM20.9999 37.4903C20.9999 34.1968 19.914 31.2083 17.7423 28.525C15.5705 25.8417 12.913 24.1557 9.76972 23.4671C9.32784 23.3548 8.89588 23.3205 8.47384 23.3643C8.05209 23.408 7.68197 23.5948 7.36347 23.9247C7.08084 24.2365 6.91765 24.6015 6.8739 25.0198C6.83015 25.438 6.86428 25.8447 6.97628 26.24C7.69203 29.3786 9.38763 32.0383 12.0631 34.2191C14.7385 36.3999 17.7175 37.4903 20.9999 37.4903ZM17.8569 34.3473C15.8803 33.7348 14.1863 32.7228 12.7749 31.3115C11.3638 29.9004 10.352 28.2065 9.73953 26.2299C11.7162 26.8424 13.41 27.8542 14.8211 29.2653C16.2325 30.6766 17.2444 32.3706 17.8569 34.3473ZM20.9999 15.9351C21.5407 15.9351 21.9983 15.7477 22.3728 15.3729C22.7476 14.9984 22.935 14.5408 22.935 14C22.935 13.4593 22.7476 13.0016 22.3728 12.6271C21.9983 12.2523 21.5407 12.065 20.9999 12.065C20.4592 12.065 20.0015 12.2523 19.627 12.6271C19.2522 13.0016 19.0648 13.4593 19.0648 14C19.0648 14.5408 19.2522 14.9984 19.627 15.3729C20.0015 15.7477 20.4592 15.9351 20.9999 15.9351ZM21.0038 25.0215C19.9813 25.0215 19.057 24.7304 18.231 24.1483C17.405 23.5661 16.8213 22.7871 16.4801 21.8111C16.3343 21.8447 16.189 21.8687 16.0443 21.8833C15.8997 21.8979 15.7489 21.9052 15.592 21.9052C14.2695 21.9052 13.138 21.4385 12.1974 20.5052C11.2565 19.5719 10.786 18.4422 10.786 17.1163C10.786 16.5511 10.8909 16.006 11.1006 15.481C11.3106 14.956 11.6028 14.4623 11.9773 14C11.6206 13.5377 11.3402 13.0441 11.136 12.5191C10.9319 11.9941 10.8298 11.449 10.8298 10.8837C10.8298 9.55779 11.2932 8.42816 12.2202 7.49483C13.1474 6.56149 14.2713 6.09483 15.592 6.09483C15.7489 6.09483 15.8997 6.10212 16.0443 6.1167C16.189 6.13129 16.3399 6.14981 16.4972 6.17227C16.8381 5.20743 17.4175 4.43393 18.2353 3.85176C19.0532 3.2696 19.9747 2.97852 20.9999 2.97852C22.0251 2.97852 22.9466 3.2696 23.7645 3.85176C24.5823 4.43393 25.1617 5.20743 25.5027 6.17227C25.6599 6.14981 25.8108 6.13129 25.9555 6.1167C26.1001 6.10212 26.2509 6.09483 26.4078 6.09483C27.7285 6.09483 28.8524 6.56149 29.7796 7.49483C30.7066 8.42816 31.17 9.55779 31.17 10.8837C31.17 11.453 31.0725 12.002 30.8773 12.5305C30.6819 13.0592 30.397 13.5491 30.0225 14C30.3792 14.4623 30.6596 14.956 30.8638 15.481C31.0679 16.006 31.17 16.5511 31.17 17.1163C31.17 18.4422 30.7066 19.5719 29.7796 20.5052C28.8524 21.4385 27.7285 21.9052 26.4078 21.9052C26.2509 21.9052 26.1001 21.8979 25.9555 21.8833C25.8108 21.8687 25.6543 21.8447 25.486 21.8111C25.1562 22.7871 24.5823 23.5661 23.7645 24.1483C22.9466 24.7304 22.0264 25.0215 21.0038 25.0215ZM26.4078 19.2802C27.0037 19.2802 27.5134 19.0682 27.9369 18.6441C28.3604 18.2203 28.5722 17.7099 28.5722 17.1128C28.5722 16.6733 28.4486 16.2779 28.2016 15.9268C27.9548 15.5756 27.6285 15.335 27.2225 15.2049L25.5062 14.6291C25.4569 14.9231 25.3828 15.2104 25.2839 15.491C25.1853 15.7713 25.0631 16.0372 24.9173 16.2886C24.7714 16.5397 24.6077 16.7707 24.426 16.9816C24.2443 17.1925 24.0367 17.3887 23.8034 17.5705L25.119 18.7622C25.2873 18.9235 25.4784 19.0502 25.6925 19.1424C25.9063 19.2343 26.1448 19.2802 26.4078 19.2802ZM25.5062 13.3709L27.2225 12.7951C27.6285 12.6651 27.9505 12.4202 28.1885 12.0606C28.4262 11.701 28.545 11.3087 28.545 10.8837C28.545 10.2878 28.3393 9.77814 27.9277 9.35464C27.5162 8.93143 27.0095 8.71983 26.4078 8.71983C26.1386 8.71983 25.9031 8.76577 25.7013 8.85764C25.4994 8.94981 25.3053 9.07654 25.119 9.23783L23.7763 10.4296C24.0096 10.6113 24.2217 10.8076 24.4124 11.0185C24.6032 11.2293 24.7714 11.4603 24.9173 11.7115C25.0631 11.9629 25.1853 12.2287 25.2839 12.509C25.3828 12.7896 25.4569 13.0769 25.5062 13.3709ZM19.3238 9.77333C19.5968 9.66775 19.8698 9.58579 20.1428 9.52745C20.4158 9.46912 20.7024 9.43995 21.0025 9.43995C21.3029 9.43995 21.5897 9.46912 21.8627 9.52745C22.1357 9.58579 22.4068 9.66775 22.676 9.77333L23.1472 7.71664C23.2729 7.15577 23.1073 6.66343 22.6506 6.23964C22.1941 5.81556 21.6439 5.60352 20.9999 5.60352C20.3559 5.60352 19.8057 5.81556 19.3492 6.23964C18.8925 6.66343 18.7269 7.15577 18.8527 7.71664L19.3238 9.77333ZM20.9999 22.3965C21.6439 22.3965 22.1941 22.1845 22.6506 21.7604C23.1073 21.3366 23.2729 20.8443 23.1472 20.2834L22.676 18.2267C22.4068 18.3434 22.1357 18.4281 21.8627 18.4809C21.5897 18.5337 21.3029 18.5601 21.0025 18.5601C20.7024 18.5601 20.415 18.5337 20.1402 18.4809C19.8652 18.4281 19.593 18.3434 19.3238 18.2267L18.8527 20.2834C18.7269 20.8443 18.8925 21.3366 19.3492 21.7604C19.8057 22.1845 20.3559 22.3965 20.9999 22.3965ZM16.4937 13.3709C16.5429 13.0769 16.617 12.7896 16.7159 12.509C16.8145 12.2287 16.9367 11.9629 17.0825 11.7115C17.2284 11.4603 17.3921 11.2293 17.5738 11.0185C17.7555 10.8076 17.9631 10.6113 18.1964 10.4296L16.8808 9.23783C16.7125 9.07654 16.5214 8.94981 16.3073 8.85764C16.0935 8.76577 15.855 8.71983 15.592 8.71983C14.9961 8.71983 14.4864 8.93143 14.0629 9.35464C13.6394 9.77814 13.4277 10.2878 13.4277 10.8837C13.4277 11.3087 13.5512 11.701 13.7982 12.0606C14.045 12.4202 14.3713 12.6651 14.7773 12.7951L16.4937 13.3709ZM15.592 19.2535C15.8588 19.2535 16.0965 19.212 16.3051 19.1288C16.5139 19.0457 16.7058 18.9145 16.8808 18.7351L18.2235 17.5705C17.9902 17.3887 17.7782 17.1925 17.5874 16.9816C17.3967 16.7707 17.2284 16.5397 17.0825 16.2886C16.9367 16.0372 16.8145 15.7713 16.7159 15.491C16.617 15.2104 16.5429 14.9231 16.4937 14.6291L14.7773 15.2049C14.3713 15.335 14.0466 15.5798 13.803 15.9395C13.5595 16.2991 13.4377 16.6914 13.4377 17.1163C13.4558 17.7154 13.6696 18.2213 14.0791 18.634C14.4886 19.047 14.9929 19.2535 15.592 19.2535Z" fill="#777777"/>
</g>
</svg>
