<svg width="42" height="42" viewBox="0 0 42 42" fill="none" xmlns="http://www.w3.org/2000/svg">
<mask id="mask0_47_1685" style="mask-type:alpha" maskUnits="userSpaceOnUse" x="0" y="0" width="42" height="42">
<rect width="42" height="42" fill="#D9D9D9"/>
</mask>
<g mask="url(#mask0_47_1685)">
<path d="M9.28856 37.625C8.4159 37.625 7.6704 37.316 7.05206 36.6979C6.43402 36.0796 6.125 35.3341 6.125 34.4614V14.5386C6.125 13.6659 6.43402 12.9204 7.05206 12.3021C7.6704 11.684 8.4159 11.375 9.28856 11.375H13.125C13.125 9.18983 13.8912 7.33104 15.4236 5.79862C16.956 4.26621 18.8148 3.5 21 3.5C23.1852 3.5 25.044 4.26621 26.5764 5.79862C28.1088 7.33104 28.875 9.18983 28.875 11.375H32.7114C33.5841 11.375 34.3296 11.684 34.9479 12.3021C35.566 12.9204 35.875 13.6659 35.875 14.5386V34.4614C35.875 35.3341 35.566 36.0796 34.9479 36.6979C34.3296 37.316 33.5841 37.625 32.7114 37.625H9.28856ZM9.28856 35H32.7114C32.8462 35 32.9696 34.9439 33.0816 34.8316C33.1939 34.7196 33.25 34.5962 33.25 34.4614V14.5386C33.25 14.4038 33.1939 14.2804 33.0816 14.1684C32.9696 14.0561 32.8462 14 32.7114 14H9.28856C9.15381 14 9.03044 14.0561 8.91844 14.1684C8.80615 14.2804 8.75 14.4038 8.75 14.5386V34.4614C8.75 34.5962 8.80615 34.7196 8.91844 34.8316C9.03044 34.9439 9.15381 35 9.28856 35ZM15.75 11.375H26.25C26.25 9.91667 25.7396 8.67708 24.7188 7.65625C23.6979 6.63542 22.4583 6.125 21 6.125C19.5417 6.125 18.3021 6.63542 17.2812 7.65625C16.2604 8.67708 15.75 9.91667 15.75 11.375ZM20.9729 23.625C22.9518 23.625 24.7294 22.9553 26.3056 21.616C27.8817 20.2764 28.6608 18.7564 28.6427 17.0559C28.6427 16.6946 28.5215 16.3866 28.2791 16.1319C28.037 15.8773 27.7298 15.75 27.3573 15.75C27.0499 15.75 26.775 15.856 26.5326 16.0681C26.2903 16.2801 26.1186 16.5757 26.0177 16.9549C25.7642 18.1417 25.1596 19.1126 24.2038 19.8678C23.248 20.6226 22.171 21 20.9729 21C19.775 21 18.6936 20.6226 17.7288 19.8678C16.764 19.1126 16.1639 18.1417 15.9285 16.9549C15.8276 16.5576 15.6648 16.2575 15.4403 16.0545C15.216 15.8515 14.9501 15.75 14.6427 15.75C14.2702 15.75 13.9584 15.8773 13.7073 16.1319C13.4559 16.3866 13.3302 16.6946 13.3302 17.0559C13.3302 18.7564 14.1094 20.2764 15.6678 21.616C17.2258 22.9553 18.9942 23.625 20.9729 23.625Z" fill="#777777"/>
</g>
</svg>
