<svg width="42" height="42" viewBox="0 0 42 42" fill="none" xmlns="http://www.w3.org/2000/svg">
<mask id="mask0_47_1616" style="mask-type:alpha" maskUnits="userSpaceOnUse" x="0" y="0" width="42" height="42">
<rect width="42" height="42" fill="#D9D9D9"/>
</mask>
<g mask="url(#mask0_47_1616)">
<path d="M7.53832 34.125C6.65428 34.125 5.90601 33.8188 5.29351 33.2063C4.68101 32.5938 4.37476 31.8455 4.37476 30.9614V11.0386C4.37476 10.1545 4.68101 9.40625 5.29351 8.79375C5.90601 8.18125 6.65428 7.875 7.53832 7.875H34.4612C35.3452 7.875 36.0935 8.18125 36.706 8.79375C37.3185 9.40625 37.6248 10.1545 37.6248 11.0386V30.9614C37.6248 31.8455 37.3185 32.5938 36.706 33.2063C36.0935 33.8188 35.3452 34.125 34.4612 34.125H7.53832ZM34.9998 13.0239L21.8511 21.441C21.7167 21.5171 21.5775 21.5771 21.4338 21.6208C21.2903 21.6646 21.1456 21.6864 20.9998 21.6864C20.8539 21.6864 20.7093 21.6646 20.5658 21.6208C20.422 21.5771 20.2828 21.5171 20.1484 21.441L6.99976 13.0239V30.9614C6.99976 31.1186 7.05021 31.2477 7.15113 31.3486C7.25205 31.4495 7.38111 31.5 7.53832 31.5H34.4612C34.6184 31.5 34.7475 31.4495 34.8484 31.3486C34.9493 31.2477 34.9998 31.1186 34.9998 30.9614V13.0239ZM20.9998 19.25L34.7307 10.5H7.26882L20.9998 19.25ZM6.99976 13.4277V11.4271V11.4791V11.4236V13.4277Z" fill="#AAAAAA"/>
</g>
</svg>
