<svg width="42" height="42" viewBox="0 0 42 42" fill="none" xmlns="http://www.w3.org/2000/svg">
<mask id="mask0_47_1649" style="mask-type:alpha" maskUnits="userSpaceOnUse" x="0" y="0" width="42" height="42">
<rect width="42" height="42" fill="#D9D9D9"/>
</mask>
<g mask="url(#mask0_47_1649)">
<path d="M7.875 35.875C7.50313 35.875 7.19148 35.7491 6.94006 35.4974C6.68835 35.2457 6.5625 34.9339 6.5625 34.5621C6.5625 34.1899 6.68835 33.8783 6.94006 33.6271C7.19148 33.3757 7.50313 33.25 7.875 33.25H10.0625V7.707C10.0625 7.25871 10.2134 6.88304 10.5153 6.58C10.8172 6.27667 11.1913 6.125 11.6375 6.125H24.2379C24.6842 6.125 25.0581 6.27667 25.3597 6.58C25.6616 6.88304 25.8125 7.25871 25.8125 7.707V7.875H30.3555C30.8038 7.875 31.1795 8.02667 31.4825 8.33C31.7858 8.63304 31.9375 9.00871 31.9375 9.457V33.25H34.125C34.4969 33.25 34.8085 33.3759 35.0599 33.6276C35.3116 33.8793 35.4375 34.1911 35.4375 34.5629C35.4375 34.9351 35.3116 35.2467 35.0599 35.4979C34.8085 35.7493 34.4969 35.875 34.125 35.875H30.9024C30.4459 35.875 30.0669 35.7233 29.7653 35.42C29.4634 35.117 29.3125 34.7413 29.3125 34.293V10.5H25.8125V34.293C25.8125 34.7413 25.661 35.117 25.3579 35.42C25.0546 35.7233 24.6789 35.875 24.2309 35.875H7.875ZM21.2358 21C21.2358 20.5715 21.0849 20.2064 20.783 19.9045C20.4811 19.6029 20.116 19.4521 19.6875 19.4521C19.259 19.4521 18.8939 19.6029 18.592 19.9045C18.2904 20.2064 18.1396 20.5715 18.1396 21C18.1396 21.4285 18.2904 21.7936 18.592 22.0955C18.8939 22.3971 19.259 22.5479 19.6875 22.5479C20.116 22.5479 20.4811 22.3971 20.783 22.0955C21.0849 21.7936 21.2358 21.4285 21.2358 21ZM12.6875 33.25H23.1875V8.75H12.6875V33.25Z" fill="#AAAAAA"/>
</g>
</svg>
