<svg width="32" height="33" viewBox="0 0 32 33" fill="none" xmlns="http://www.w3.org/2000/svg">
<path d="M26.0515 29.8346H7.17936C6.15973 29.8346 5.33331 29.0082 5.33331 27.9886V5.01401C5.33331 3.99438 6.15973 3.16797 7.17936 3.16797H22.442C24.5724 5.29841 25.7671 6.49316 27.8976 8.6236V27.9886C27.8976 29.0082 27.0712 29.8346 26.0515 29.8346Z" fill="#237045"/>
<path opacity="0.5" d="M22.442 3.16797H21.3334V7.51858C21.3334 8.64386 22.2452 9.55567 23.3705 9.55567H27.8976V8.6236C25.5465 6.27245 24.7932 5.51912 22.442 3.16797Z" fill="white"/>
<path d="M19.5503 24.0778H22.9869L18.3338 17.0156L22.3306 10.9492H18.8939L16.6151 14.4076L14.3371 10.9492H10.9004L14.8972 17.0156L10.2441 24.0778H12.5612H13.6807H16.9437V21.7997H15.1816L16.6151 19.6237L19.5503 24.0778Z" fill="white"/>
</svg>
