<svg width="32" height="33" viewBox="0 0 32 33" fill="none" xmlns="http://www.w3.org/2000/svg">
<path d="M26.0516 29.8346H7.17942C6.15979 29.8346 5.33337 29.0082 5.33337 27.9886V5.01401C5.33337 3.99438 6.15979 3.16797 7.17942 3.16797H22.442C24.5725 5.29841 25.7672 6.49316 27.8976 8.6236V27.9886C27.8976 29.0082 27.0712 29.8346 26.0516 29.8346Z" fill="#3B78FF"/>
<path opacity="0.5" d="M22.442 3.16797H21.3334V7.51858C21.3334 8.64386 22.2452 9.55567 23.3705 9.55567H27.8976V8.6236C25.5465 6.27245 24.7932 5.51912 22.442 3.16797Z" fill="white"/>
<path d="M18.2563 16.6023C18.7745 16.6023 19.1942 16.1826 19.1942 15.6644C19.1942 15.1463 18.7745 14.7266 18.2563 14.7266C17.7382 14.7266 17.3185 15.1463 17.3185 15.6644C17.3185 16.1826 17.7389 16.6023 18.2563 16.6023Z" fill="white"/>
<path d="M10.0514 12.1484V23.1668H23.1799V12.1484H10.0514ZM21.7731 13.5552V19.3763L19.608 17.5816L18.3741 18.8155L14.9628 16.0395L11.4582 19.7953V13.5552H21.7731Z" fill="white"/>
</svg>
