<svg width="32" height="33" viewBox="0 0 32 33" fill="none" xmlns="http://www.w3.org/2000/svg">
<path d="M26.0515 29.8346H7.17936C6.15973 29.8346 5.33331 29.0082 5.33331 27.9886V5.01401C5.33331 3.99438 6.15973 3.16797 7.17936 3.16797H22.442C24.5724 5.29841 25.7671 6.49316 27.8976 8.6236V27.9886C27.8976 29.0082 27.0712 29.8346 26.0515 29.8346Z" fill="#D04527"/>
<path opacity="0.5" d="M22.442 3.16797H21.3334V7.51858C21.3334 8.64386 22.2452 9.55567 23.3705 9.55567H27.8976V8.6236C25.5465 6.27245 24.7932 5.51912 22.442 3.16797Z" fill="white"/>
<path d="M11.407 10.9492H18.1501C19.6184 10.9492 20.7183 11.2987 21.4499 11.9971C22.1815 12.6954 22.547 13.6897 22.547 14.9792C22.547 16.3043 22.1482 17.3405 21.3515 18.0866C20.5548 18.8327 19.3383 19.2061 17.7021 19.2061H15.4812V24.0778H11.407V10.9492ZM15.4819 16.5467H16.4762C17.2585 16.5467 17.8078 16.4106 18.124 16.1393C18.4402 15.8679 18.5987 15.5198 18.5987 15.0958C18.5987 14.684 18.4612 14.3345 18.187 14.0479C17.912 13.7613 17.396 13.6181 16.6376 13.6181H15.4827V16.5467H15.4819Z" fill="white"/>
</svg>
