<svg width="32" height="33" viewBox="0 0 32 33" fill="none" xmlns="http://www.w3.org/2000/svg">
<path d="M26.0516 29.8346H7.17942C6.15979 29.8346 5.33337 29.0082 5.33337 27.9886V5.01401C5.33337 3.99438 6.15979 3.16797 7.17942 3.16797H22.442C24.5725 5.29841 25.7672 6.49316 27.8976 8.6236V27.9886C27.8976 29.0082 27.0712 29.8346 26.0516 29.8346Z" fill="#EC1E24"/>
<path opacity="0.5" d="M22.4421 3.16797H21.3334V7.51858C21.3334 8.64386 22.2452 9.55567 23.3705 9.55567H27.8977V8.6236C25.5465 6.27245 24.7932 5.51912 22.4421 3.16797Z" fill="white"/>
<path d="M25.5292 20.284C25.5292 20.284 26.386 18.3656 20.2031 19.2412C20.2031 19.2412 17.7817 18.4778 16.1803 14.3805C16.1803 14.3805 16.553 12.0713 16.5341 11.0097C16.5341 11.0097 16.0124 12.9838 15.8821 13.3377C15.8821 13.3377 14.8393 9.50157 15.7331 8.64477C15.7331 8.64477 16.3416 8.77503 16.6145 10.6746C16.6145 10.6746 17.0175 8.48267 15.6766 8.40234C15.6766 8.40234 14.6526 8.45807 14.5781 9.42631C14.5781 9.42631 14.429 12.2573 15.3416 14.7712C15.3416 14.7712 10.8535 25.3301 8.30185 25.6839C8.30185 25.6839 8.05942 24.6781 11.3188 21.9224C11.3188 21.9224 6.32772 24.7157 8.0037 25.7773C8.0037 25.7773 8.82288 26.5596 10.1081 25.4422C10.1081 25.4422 11.3188 24.5297 12.8645 21.5316C12.8645 21.5316 16.105 20.4331 19.7363 19.8925C19.7363 19.8925 24.7462 22.7235 25.5277 20.7493V20.5257C25.5277 20.5257 25.1181 21.7921 21.1142 19.7246C21.1156 19.7254 24.9148 19.2781 25.5292 20.284ZM13.0895 21.0475C14.505 18.9431 15.7526 15.7214 15.7526 15.7214C16.9068 18.1051 18.9555 19.4272 18.9555 19.4272C16.1998 19.9302 13.0895 21.0475 13.0895 21.0475Z" fill="white"/>
</svg>
