<svg width="32" height="33" viewBox="0 0 32 33" fill="none" xmlns="http://www.w3.org/2000/svg">
<path d="M26.0515 29.8346H7.17936C6.15973 29.8346 5.33331 29.0082 5.33331 27.9886V5.01401C5.33331 3.99438 6.15973 3.16797 7.17936 3.16797H22.442C24.5724 5.29841 25.7671 6.49316 27.8976 8.6236V27.9886C27.8976 29.0082 27.0712 29.8346 26.0515 29.8346Z" fill="#295694"/>
<path opacity="0.5" d="M22.442 3.16797H21.3334V7.51858C21.3334 8.64386 22.2452 9.55567 23.3705 9.55567H27.8976V8.6236C25.5465 6.27245 24.7932 5.51912 22.442 3.16797Z" fill="white"/>
<path d="M21.6156 15.3899C21.8761 14.887 22.0686 14.4752 22.1931 14.1554C22.3175 13.8355 22.3798 13.5692 22.3798 13.3557C22.3798 13.1784 22.3588 13.0359 22.3175 12.9295C22.2763 12.8231 22.1988 12.7341 22.0867 12.6632C21.9745 12.5923 21.8204 12.5416 21.625 12.5119L21.7581 11.9258H25.5327L25.3996 12.5119C25.2042 12.5474 25.0312 12.6183 24.88 12.7254C24.7287 12.8318 24.5855 12.9744 24.4494 13.1517C24.3134 13.3289 24.1802 13.5323 24.05 13.7602C23.9197 13.9882 23.7446 14.3066 23.526 14.7147L18.4373 24.1107H16.3061L16.288 18.3916V16.8821C16.288 16.4971 16.2909 16.0948 16.2967 15.6743H16.1809C15.9855 16.0948 15.8198 16.4472 15.6838 16.7308L11.9714 24.1107H9.83955L9.66226 14.6612C9.64995 14.0989 9.60726 13.6727 9.53345 13.3825C9.45963 13.0923 9.36049 12.8839 9.23602 12.7565C9.11155 12.6292 8.93715 12.5481 8.7121 12.5127L8.84525 11.9265H13.3927L13.2595 12.5127C13.088 12.5365 12.9411 12.5763 12.8196 12.6328C12.698 12.6892 12.5974 12.7717 12.5178 12.8817C12.4382 12.991 12.3817 13.1321 12.3492 13.3036C12.3166 13.4751 12.2971 13.6322 12.2913 13.774L12.2826 14.8132L12.2471 18.1521C12.2414 18.6435 12.2262 19.2354 12.203 19.9287L12.1589 20.9852H12.2746C12.4107 20.6834 12.5576 20.3694 12.7139 20.0437C12.8709 19.7181 13.1568 19.1406 13.5707 18.312L16.7765 11.9265H18.721L18.7296 17.744L18.7383 18.5342C18.7383 19.3635 18.7173 20.1805 18.6761 20.9852H18.7912C19.069 20.4048 19.5698 19.4011 20.292 17.9748L21.6156 15.3899Z" fill="white"/>
</svg>
