<svg width="20" height="20" viewBox="0 0 20 20" fill="none" xmlns="http://www.w3.org/2000/svg">
<path d="M6.875 15C6.875 13.8397 6.41373 12.7272 5.59326 11.9067C4.77279 11.0863 3.66032 10.625 2.5 10.625C2.15482 10.625 1.875 10.3452 1.875 10C1.875 9.65482 2.15482 9.375 2.5 9.375C3.66032 9.375 4.77279 8.91373 5.59326 8.09326C6.41373 7.27279 6.875 6.16032 6.875 5C6.875 4.65482 7.15482 4.375 7.5 4.375C7.84518 4.375 8.125 4.65482 8.125 5C8.125 6.16032 8.58627 7.27279 9.40674 8.09326C10.2272 8.91373 11.3397 9.375 12.5 9.375C12.8452 9.375 13.125 9.65482 13.125 10C13.125 10.3452 12.8452 10.625 12.5 10.625C11.3397 10.625 10.2272 11.0863 9.40674 11.9067C8.58627 12.7272 8.125 13.8397 8.125 15C8.125 15.3452 7.84518 15.625 7.5 15.625C7.15482 15.625 6.875 15.3452 6.875 15ZM7.5 7.57406C7.23586 8.08718 6.89353 8.5622 6.47786 8.97786C6.0622 9.39353 5.58718 9.73586 5.07406 10C5.58718 10.2641 6.0622 10.6065 6.47786 11.0221C6.89353 11.4378 7.23586 11.9128 7.5 12.4259C7.76414 11.9128 8.10647 11.4378 8.52214 11.0221C8.9378 10.6065 9.41282 10.2641 9.92594 10C9.41282 9.73586 8.9378 9.39353 8.52214 8.97786C8.10647 8.5622 7.76414 8.08718 7.5 7.57406Z" fill="white"/>
<path d="M14.5119 15.4869C14.1993 15.1743 13.7754 14.9987 13.3333 14.9987C13.7754 14.9987 14.1993 14.8231 14.5119 14.5105C14.8244 14.198 15 13.7741 15 13.332C15 13.7741 15.1756 14.198 15.4882 14.5105C15.8007 14.8231 16.2246 14.9987 16.6667 14.9987C16.2246 14.9987 15.8007 15.1743 15.4882 15.4869C15.1756 15.7994 15 16.2233 15 16.6654C15 16.2233 14.8244 15.7994 14.5119 15.4869Z" fill="#121212"/>
<path d="M14.5119 5.48685C14.1993 5.17429 13.7754 4.9987 13.3333 4.9987C13.7754 4.9987 14.1993 4.8231 14.5119 4.51054C14.8244 4.19798 15 3.77406 15 3.33203C15 3.77406 15.1756 4.19798 15.4882 4.51054C15.8007 4.8231 16.2246 4.9987 16.6667 4.9987C16.2246 4.9987 15.8007 5.17429 15.4882 5.48685C15.1756 5.79941 15 6.22334 15 6.66536C15 6.22334 14.8244 5.79941 14.5119 5.48685Z" fill="#121212"/>
<path d="M14.375 16.6654C14.375 16.3891 14.2652 16.1242 14.0698 15.9289C13.8745 15.7335 13.6096 15.6237 13.3333 15.6237C12.9882 15.6237 12.7083 15.3439 12.7083 14.9987C12.7083 14.6535 12.9882 14.3737 13.3333 14.3737C13.6096 14.3737 13.8745 14.2639 14.0698 14.0685C14.2652 13.8732 14.375 13.6083 14.375 13.332C14.375 12.9869 14.6548 12.707 15 12.707C15.3452 12.707 15.625 12.9869 15.625 13.332C15.625 13.6083 15.7348 13.8732 15.9302 14.0685C16.1255 14.2639 16.3904 14.3737 16.6667 14.3737C17.0119 14.3737 17.2917 14.6535 17.2917 14.9987C17.2917 15.3439 17.0119 15.6237 16.6667 15.6237C16.3904 15.6237 16.1255 15.7335 15.9302 15.9289C15.7348 16.1242 15.625 16.3891 15.625 16.6654C15.625 17.0105 15.3452 17.2904 15 17.2904C14.6548 17.2904 14.375 17.0105 14.375 16.6654ZM14.9536 14.9523C14.9373 14.9686 14.9191 14.9829 14.9024 14.9987C14.9191 15.0145 14.9373 15.0288 14.9536 15.0451C14.9698 15.0613 14.9844 15.0789 15 15.0955C15.0157 15.0789 15.0302 15.0613 15.0464 15.0451C15.0626 15.0289 15.0802 15.0143 15.0969 14.9987C15.0802 14.9831 15.0626 14.9685 15.0464 14.9523C15.0301 14.936 15.0158 14.9178 15 14.901C14.9842 14.9178 14.9699 14.936 14.9536 14.9523ZM14.375 6.66536C14.375 6.3891 14.2652 6.12422 14.0698 5.92887C13.8745 5.73352 13.6096 5.6237 13.3333 5.6237C12.9882 5.6237 12.7083 5.34388 12.7083 4.9987C12.7083 4.65352 12.9882 4.3737 13.3333 4.3737C13.6096 4.3737 13.8745 4.26387 14.0698 4.06852C14.2652 3.87317 14.375 3.6083 14.375 3.33203C14.375 2.98685 14.6548 2.70703 15 2.70703C15.3452 2.70703 15.625 2.98685 15.625 3.33203C15.625 3.6083 15.7348 3.87317 15.9302 4.06852C16.1255 4.26387 16.3904 4.3737 16.6667 4.3737C17.0119 4.3737 17.2917 4.65352 17.2917 4.9987C17.2917 5.34388 17.0119 5.6237 16.6667 5.6237C16.3904 5.6237 16.1255 5.73352 15.9302 5.92887C15.7348 6.12422 15.625 6.3891 15.625 6.66536C15.625 7.01054 15.3452 7.29036 15 7.29036C14.6548 7.29036 14.375 7.01054 14.375 6.66536ZM14.9536 4.95231C14.9373 4.96863 14.9191 4.98292 14.9024 4.9987C14.9191 5.01447 14.9373 5.02876 14.9536 5.04508C14.9698 5.06127 14.9844 5.07893 15 5.09554C15.0157 5.07893 15.0302 5.06127 15.0464 5.04508C15.0626 5.0289 15.0802 5.01434 15.0969 4.9987C15.0802 4.98305 15.0626 4.96849 15.0464 4.95231C15.0301 4.93599 15.0158 4.9178 15 4.90104C14.9842 4.9178 14.9699 4.93599 14.9536 4.95231Z" fill="white"/>
<path d="M14.9536 4.95231C14.9373 4.96863 14.9191 4.98292 14.9024 4.9987C14.9191 5.01447 14.9373 5.02876 14.9536 5.04508C14.9698 5.06127 14.9844 5.07893 15 5.09554C15.0157 5.07893 15.0302 5.06127 15.0464 5.04508C15.0626 5.0289 15.0802 5.01434 15.0969 4.9987C15.0802 4.98305 15.0626 4.96849 15.0464 4.95231C15.0301 4.93599 15.0158 4.9178 15 4.90104C14.9842 4.9178 14.9699 4.93599 14.9536 4.95231Z" fill="white"/>
</svg>
