<svg width="18" height="18" viewBox="0 0 18 18" fill="none" xmlns="http://www.w3.org/2000/svg">
<path d="M14.4375 14.2504V12.7424C13.8873 13.5214 13.1734 14.1785 12.3377 14.6613C11.0771 15.3896 9.61183 15.6833 8.16797 15.497C6.72404 15.3107 5.38142 14.6545 4.34693 13.6301C3.31244 12.6056 2.64303 11.2694 2.44263 9.82733L3 9.75043L3.55738 9.67279C3.72382 10.8704 4.27953 11.9802 5.13867 12.831C5.99776 13.6816 7.11249 14.2268 8.31153 14.3815C9.51064 14.5363 10.7275 14.292 11.7744 13.6872C12.5669 13.2294 13.2285 12.5836 13.7051 11.8129H12C11.6894 11.8129 11.4376 11.561 11.4375 11.2504C11.4375 10.9398 11.6893 10.6879 12 10.6879H15C15.3107 10.6879 15.5625 10.9398 15.5625 11.2504V14.2504C15.5624 14.561 15.3106 14.8129 15 14.8129C14.6894 14.8129 14.4376 14.561 14.4375 14.2504ZM2.92237 9.19306C3.23007 9.15029 3.51461 9.36509 3.55738 9.67279L2.44263 9.82733C2.40008 9.51982 2.61488 9.2359 2.92237 9.19306ZM5.66236 3.33881C6.92296 2.61054 8.38815 2.31757 9.83203 2.50385C11.2759 2.69015 12.6186 3.3457 13.6531 4.37006C14.623 5.33054 15.2718 6.56512 15.5142 7.90399L15.5574 8.17279L15.5625 8.22992C15.5731 8.51484 15.3661 8.76686 15.0776 8.80707C14.7893 8.84715 14.5213 8.66131 14.4536 8.38446L14.4426 8.32733L14.4075 8.10394C14.2061 6.99215 13.6668 5.96746 12.8613 5.16986C12.0022 4.31911 10.8876 3.7741 9.68848 3.61932C8.48942 3.46461 7.27249 3.70822 6.22559 4.31293C5.43292 4.77086 4.77083 5.41692 4.29419 6.18793H6C6.31066 6.18793 6.5625 6.43977 6.5625 6.75043C6.56238 7.06099 6.31059 7.31293 6 7.31293H3C2.68942 7.31293 2.43762 7.06099 2.4375 6.75043V3.75043C2.4375 3.43977 2.68934 3.18793 3 3.18793C3.31066 3.18793 3.5625 3.43977 3.5625 3.75043V5.25775C4.11276 4.47876 4.82663 3.82162 5.66236 3.33881Z" fill="#3079C3"/>
</svg>
