<svg width="56" height="56" viewBox="0 0 56 56" fill="none" xmlns="http://www.w3.org/2000/svg">
<path d="M32.3758 49C32.3758 49.2321 32.2837 49.4546 32.1196 49.6187C31.9555 49.7828 31.7329 49.875 31.5008 49.875H24.5008C24.2688 49.875 24.0462 49.7828 23.8821 49.6187C23.718 49.4546 23.6258 49.2321 23.6258 49C23.6258 48.768 23.718 48.5454 23.8821 48.3813C24.0462 48.2172 24.2688 48.125 24.5008 48.125H31.5008C31.7329 48.125 31.9555 48.2172 32.1196 48.3813C32.2837 48.5454 32.3758 48.768 32.3758 49ZM28.0008 23.625C28.347 23.625 28.6853 23.5224 28.9731 23.3301C29.2609 23.1378 29.4852 22.8645 29.6176 22.5447C29.7501 22.2249 29.7847 21.8731 29.7172 21.5336C29.6497 21.1941 29.483 20.8823 29.2383 20.6376C28.9935 20.3928 28.6817 20.2262 28.3423 20.1586C28.0028 20.0911 27.6509 20.1258 27.3312 20.2582C27.0114 20.3907 26.7381 20.615 26.5458 20.9028C26.3535 21.1906 26.2508 21.5289 26.2508 21.875C26.2508 22.3391 26.4352 22.7843 26.7634 23.1125C27.0916 23.4406 27.5367 23.625 28.0008 23.625ZM48.0646 33.9063L45.3587 46.0688C45.2639 46.5044 45.0588 46.9083 44.7631 47.242C44.4674 47.5756 44.091 47.8277 43.6699 47.9741C43.3887 48.073 43.093 48.124 42.7949 48.125C42.2044 48.1246 41.6315 47.9241 41.1696 47.5563L34.968 42.875H21.0337L14.8343 47.5563C14.3724 47.9241 13.7995 48.1246 13.209 48.125C12.9109 48.124 12.6151 48.073 12.334 47.9741C11.9129 47.8277 11.5365 47.5756 11.2408 47.242C10.9451 46.9083 10.74 46.5044 10.6452 46.0688L7.9371 33.9063C7.85035 33.5146 7.85454 33.1082 7.94934 32.7184C8.04414 32.3285 8.22704 31.9656 8.48397 31.6575L14.9043 23.951C15.6262 12.285 24.0546 4.9897 26.393 3.18283C26.8532 2.82629 27.4188 2.63281 28.0008 2.63281C28.5829 2.63281 29.1485 2.82629 29.6087 3.18283C31.9471 4.9897 40.3755 12.285 41.0974 23.951L47.5177 31.6575C47.7747 31.9656 47.9575 32.3285 48.0523 32.7184C48.1472 33.1082 48.1513 33.5146 48.0646 33.9063ZM21.2437 41.125H34.758C46.8287 20.2322 31.7196 7.01095 28.539 4.55876C28.3852 4.43885 28.1958 4.37373 28.0008 4.37373C27.8059 4.37373 27.6165 4.43885 27.4627 4.55876C24.2821 7.01095 9.17304 20.2322 21.2437 41.125ZM19.5987 41.766C16.4333 36.2163 15.0793 31.1763 14.8758 26.7006L9.8271 32.7688C9.74147 32.8716 9.68058 32.9927 9.6491 33.1228C9.61763 33.2529 9.61641 33.3885 9.64554 33.5191L12.3493 45.6881C12.3813 45.8335 12.4498 45.9683 12.5485 46.0798C12.6471 46.1913 12.7725 46.2758 12.9129 46.3253C13.0533 46.3748 13.204 46.3876 13.3507 46.3627C13.4974 46.3377 13.6354 46.2757 13.7515 46.1825L13.7712 46.1672L19.5987 41.766ZM46.1746 32.7688L41.1258 26.7006C40.9312 31.1763 39.5771 36.2163 36.4118 41.766L42.2393 46.1672L42.259 46.1825C42.3751 46.2757 42.513 46.3377 42.6597 46.3627C42.8065 46.3876 42.9572 46.3748 43.0976 46.3253C43.2379 46.2758 43.3634 46.1913 43.462 46.0798C43.5606 45.9683 43.6292 45.8335 43.6612 45.6881L46.3649 33.5191C46.3929 33.3878 46.3902 33.2518 46.3572 33.1217C46.3242 32.9916 46.2617 32.8709 46.1746 32.7688Z" fill="black"/>
<path d="M19.5987 41.766C16.4333 36.2163 15.0793 31.1763 14.8758 26.7006L9.8271 32.7688C9.74147 32.8716 9.68058 32.9927 9.6491 33.1228C9.61763 33.2529 9.61641 33.3885 9.64554 33.5191L12.3493 45.6881C12.3813 45.8335 12.4498 45.9683 12.5485 46.0798C12.6471 46.1913 12.7725 46.2758 12.9129 46.3253C13.0533 46.3748 13.204 46.3876 13.3507 46.3627C13.4974 46.3377 13.6354 46.2757 13.7515 46.1825L13.7712 46.1672L19.5987 41.766Z" fill="#005386"/>
<path d="M46.1746 32.7688L41.1258 26.7006C40.9312 31.1763 39.5771 36.2163 36.4118 41.766L42.2393 46.1672L42.259 46.1825C42.3751 46.2757 42.513 46.3377 42.6597 46.3627C42.8065 46.3876 42.9572 46.3748 43.0976 46.3253C43.2379 46.2758 43.3634 46.1913 43.462 46.0798C43.5606 45.9683 43.6292 45.8335 43.6612 45.6881L46.3649 33.5191C46.3929 33.3878 46.3902 33.2518 46.3572 33.1217C46.3242 32.9916 46.2617 32.8709 46.1746 32.7688Z" fill="#005386"/>
</svg>
