<svg width="32" height="32" viewBox="0 0 32 32" fill="none" xmlns="http://www.w3.org/2000/svg">
<path fill-rule="evenodd" clip-rule="evenodd" d="M6.39052 7.05654C6.91122 6.53584 7.75544 6.53584 8.27614 7.05654L15.3334 14.1138L22.3906 7.05654C22.9113 6.53584 23.7555 6.53584 24.2762 7.05654C24.7969 7.57724 24.7969 8.42146 24.2762 8.94216L17.219 15.9994L24.2761 23.0565C24.7968 23.5772 24.7968 24.4214 24.2761 24.9421C23.7554 25.4628 22.9112 25.4628 22.3905 24.9421L15.3334 17.885L8.27614 24.9422C7.75544 25.4629 6.91122 25.4629 6.39052 24.9422C5.86983 24.4215 5.86983 23.5773 6.39052 23.0566L13.4477 15.9994L6.39052 8.94216C5.86983 8.42146 5.86983 7.57724 6.39052 7.05654Z" fill="#374151"/>
</svg>
