<svg width="32" height="32" viewBox="0 0 32 32" fill="none" xmlns="http://www.w3.org/2000/svg">
<path fill-rule="evenodd" clip-rule="evenodd" d="M8.31189 15H11.2733C11.3764 12.796 11.818 10.7819 12.5078 9.2299C12.568 9.09431 12.6306 8.96122 12.6956 8.83099C10.3448 9.99874 8.64999 12.2887 8.31189 15ZM16.25 6C10.7272 6 6.25 10.4772 6.25 16C6.25 21.5228 10.7272 26 16.25 26C21.7728 26 26.25 21.5228 26.25 16C26.25 10.4772 21.7728 6 16.25 6ZM16.25 8C16.0231 8 15.7316 8.0993 15.3824 8.43166C15.028 8.76892 14.6634 9.30422 14.3354 10.0422C13.7739 11.3055 13.3774 13.0335 13.2757 15H19.2243C19.1226 13.0335 18.7261 11.3055 18.1646 10.0422C17.8366 9.30422 17.472 8.76892 17.1176 8.43166C16.7684 8.0993 16.4769 8 16.25 8ZM21.2267 15C21.1236 12.796 20.682 10.7819 19.9922 9.2299C19.932 9.09431 19.8694 8.96122 19.8044 8.83099C22.1552 9.99874 23.85 12.2887 24.1881 15H21.2267ZM19.2243 17H13.2757C13.3774 18.9665 13.7739 20.6945 14.3354 21.9578C14.6634 22.6958 15.028 23.2311 15.3824 23.5683C15.7316 23.9007 16.0231 24 16.25 24C16.4769 24 16.7684 23.9007 17.1176 23.5683C17.472 23.2311 17.8366 22.6958 18.1646 21.9578C18.7261 20.6945 19.1226 18.9665 19.2243 17ZM19.8044 23.169C19.8694 23.0388 19.932 22.9057 19.9922 22.7701C20.682 21.2181 21.1236 19.204 21.2267 17H24.1881C23.85 19.7113 22.1552 22.0013 19.8044 23.169ZM12.6956 23.169C12.6306 23.0388 12.568 22.9057 12.5078 22.7701C11.818 21.2181 11.3764 19.204 11.2733 17H8.31189C8.64999 19.7113 10.3448 22.0013 12.6956 23.169Z" fill="#374151"/>
</svg>
