<svg width="32" height="32" viewBox="0 0 32 32" fill="none" xmlns="http://www.w3.org/2000/svg">
<path d="M21.834 5.89719C23.5936 6.91319 25.0574 8.37114 26.0804 10.1267C27.1035 11.8823 27.6502 13.8746 27.6666 15.9064C27.6831 17.9383 27.1685 19.9391 26.174 21.711C25.1795 23.4829 23.7394 24.9643 21.9964 26.0086C20.2534 27.0529 18.2679 27.6238 16.2364 27.6649C14.205 27.706 12.198 27.2159 10.4141 26.243C8.6303 25.2701 7.1315 23.8481 6.0661 22.118C5.00069 20.3878 4.40563 18.4094 4.33982 16.3785L4.33398 16.0005L4.33982 15.6225C4.40515 13.6077 4.99146 11.6441 6.04156 9.92335C7.09167 8.20255 8.56975 6.78322 10.3317 5.80372C12.0936 4.82422 14.0793 4.31799 16.0952 4.33437C18.111 4.35075 20.0882 4.88919 21.834 5.89719ZM16.024 10.1672L15.8338 10.1789L15.7335 10.1975L15.5678 10.25L15.436 10.313L15.3543 10.3632L15.2435 10.446L15.1758 10.509L10.5092 15.1757L10.4123 15.2854C10.231 15.5198 10.1457 15.8146 10.1739 16.1096C10.202 16.4047 10.3413 16.678 10.5637 16.8741C10.786 17.0701 11.0746 17.1742 11.3709 17.1651C11.6671 17.1561 11.9489 17.0346 12.1588 16.8254L14.834 14.1502V20.6672L14.8422 20.8037C14.8773 21.099 15.0238 21.3697 15.2518 21.5605C15.4799 21.7514 15.7722 21.848 16.069 21.8306C16.3659 21.8131 16.6449 21.683 16.849 21.4668C17.0531 21.2506 17.167 20.9646 17.1673 20.6672V14.1514L19.8425 16.8254L19.9522 16.9222C20.1866 17.1035 20.4814 17.1888 20.7764 17.1607C21.0715 17.1325 21.3448 16.9932 21.5409 16.7708C21.7369 16.5485 21.841 16.2599 21.8319 15.9636C21.8229 15.6674 21.7014 15.3856 21.4922 15.1757L16.8255 10.509L16.7298 10.4239L16.626 10.3492L16.4942 10.2769L16.3997 10.2372L16.2678 10.1975L16.1371 10.1742L16.0228 10.1672H16.024Z" fill="#CBD0D7"/>
</svg>
