<svg width="32" height="32" viewBox="0 0 32 32" fill="none" xmlns="http://www.w3.org/2000/svg">
<path d="M8 14C8 13.4477 8.44772 13 9 13C9.55228 13 10 13.4477 10 14C10 15.5913 10.6326 17.117 11.7578 18.2422C12.883 19.3674 14.4087 20 16 20L16.2979 19.9922C17.7807 19.9185 19.1874 19.297 20.2422 18.2422C21.3674 17.117 22 15.5913 22 14C22 13.4477 22.4477 13 23 13C23.5523 13 24 13.4477 24 14C24 16.1217 23.1575 18.1569 21.6572 19.6572C20.3947 20.9198 18.7529 21.7137 17 21.9346V24H20C20.5523 24 21 24.4477 21 25C21 25.5523 20.5523 26 20 26H12C11.4477 26 11 25.5523 11 25C11 24.4477 11.4477 24 12 24H15V21.9346C13.2471 21.7137 11.6053 20.9198 10.3428 19.6572C8.84248 18.1569 8 16.1217 8 14ZM18 9C18 8.46957 17.7891 7.96101 17.4141 7.58594C17.0858 7.25765 16.6553 7.05515 16.1973 7.00977L16 7C15.4696 7 14.961 7.21087 14.5859 7.58594C14.2109 7.96101 14 8.46957 14 9V14C14 14.5304 14.2109 15.039 14.5859 15.4141C14.961 15.7891 15.4696 16 16 16C16.5304 16 17.039 15.7891 17.4141 15.4141C17.7891 15.039 18 14.5304 18 14V9ZM20 14C20 15.0609 19.5783 16.078 18.8281 16.8281C18.078 17.5783 17.0609 18 16 18C14.9391 18 13.922 17.5783 13.1719 16.8281C12.4217 16.078 12 15.0609 12 14V9C12 7.93913 12.4217 6.92202 13.1719 6.17188C13.922 5.42173 14.9391 5 16 5L16.1982 5.00488C17.1869 5.0539 18.1248 5.46859 18.8281 6.17188C19.5783 6.92202 20 7.93913 20 9V14Z" fill="#374151"/>
</svg>
