<svg width="24" height="24" viewBox="0 0 24 24" fill="none" xmlns="http://www.w3.org/2000/svg">
<path fill-rule="evenodd" clip-rule="evenodd" d="M4.79289 5.29289C5.18342 4.90237 5.81658 4.90237 6.20711 5.29289L11.5 10.5858L16.7929 5.29289C17.1835 4.90237 17.8166 4.90237 18.2071 5.29289C18.5977 5.68342 18.5977 6.31658 18.2071 6.70711L12.9142 12L18.2071 17.2929C18.5976 17.6834 18.5976 18.3165 18.2071 18.7071C17.8165 19.0976 17.1834 19.0976 16.7929 18.7071L11.5 13.4142L6.20711 18.7071C5.81658 19.0977 5.18342 19.0977 4.79289 18.7071C4.40237 18.3166 4.40237 17.6835 4.79289 17.2929L10.0858 12L4.79289 6.70711C4.40237 6.31658 4.40237 5.68342 4.79289 5.29289Z" fill="#121212"/>
</svg>
