<svg width="24" height="24" viewBox="0 0 24 24" fill="none" xmlns="http://www.w3.org/2000/svg">
<path fill-rule="evenodd" clip-rule="evenodd" d="M4.31189 11H7.27328C7.37643 8.79597 7.81798 6.78191 8.50776 5.2299C8.56802 5.09431 8.63064 4.96122 8.69561 4.83099C6.34485 5.99874 4.64999 8.2887 4.31189 11ZM12.25 2C6.72715 2 2.25 6.47715 2.25 12C2.25 17.5228 6.72715 22 12.25 22C17.7728 22 22.25 17.5228 22.25 12C22.25 6.47715 17.7728 2 12.25 2ZM12.25 4C12.0231 4 11.7316 4.0993 11.3824 4.43166C11.028 4.76892 10.6634 5.30422 10.3354 6.04218C9.77392 7.30546 9.37736 9.03347 9.27567 11H15.2243C15.1226 9.03347 14.7261 7.30546 14.1646 6.04218C13.8366 5.30422 13.472 4.76892 13.1176 4.43166C12.7684 4.0993 12.4769 4 12.25 4ZM17.2267 11C17.1236 8.79597 16.682 6.78191 15.9922 5.2299C15.932 5.09431 15.8694 4.96122 15.8044 4.83099C18.1552 5.99874 19.85 8.2887 20.1881 11H17.2267ZM15.2243 13H9.27567C9.37736 14.9665 9.77392 16.6945 10.3354 17.9578C10.6634 18.6958 11.028 19.2311 11.3824 19.5683C11.7316 19.9007 12.0231 20 12.25 20C12.4769 20 12.7684 19.9007 13.1176 19.5683C13.472 19.2311 13.8366 18.6958 14.1646 17.9578C14.7261 16.6945 15.1226 14.9665 15.2243 13ZM15.8044 19.169C15.8694 19.0388 15.932 18.9057 15.9922 18.7701C16.682 17.2181 17.1236 15.204 17.2267 13H20.1881C19.85 15.7113 18.1552 18.0013 15.8044 19.169ZM8.69561 19.169C8.63064 19.0388 8.56802 18.9057 8.50776 18.7701C7.81798 17.2181 7.37643 15.204 7.27328 13H4.31189C4.64999 15.7113 6.34485 18.0013 8.69561 19.169Z" fill="#9CA3AF"/>
</svg>
