<svg width="24" height="24" viewBox="0 0 24 24" fill="none" xmlns="http://www.w3.org/2000/svg">
<path fill-rule="evenodd" clip-rule="evenodd" d="M17.6566 6.34366C16.4849 5.172 14.5857 5.1719 13.4142 6.34338L12 7.7576C11.6095 8.14812 10.9763 8.14812 10.5858 7.7576C10.1953 7.36707 10.1953 6.73391 10.5858 6.34338L12 4.92917C13.9527 2.97646 17.1182 2.97692 19.0708 4.92945C21.0234 6.8821 21.0233 10.0479 19.0707 12.0005L17.6574 13.4145C17.267 13.8052 16.6338 13.8053 16.2432 13.4149C15.8526 13.0245 15.8524 12.3913 16.2428 12.0007L17.6563 10.5865C18.8279 9.41491 18.8281 7.51521 17.6566 6.34366ZM15.5358 8.4653C15.9263 8.85583 15.9263 9.48899 15.5358 9.87952L9.87891 15.5364C9.48838 15.9269 8.85522 15.9269 8.46469 15.5364C8.07417 15.1458 8.07417 14.5127 8.46469 14.1222L14.1215 8.4653C14.5121 8.07478 15.1452 8.07478 15.5358 8.4653ZM7.75796 10.5864C8.14849 10.9769 8.14849 11.6101 7.75796 12.0006L6.34375 13.4148C5.17203 14.5865 5.17187 16.4862 6.3433 17.6576C7.51461 18.829 9.41461 18.8289 10.5864 17.6575C10.5862 17.6577 10.5865 17.6574 10.5864 17.6575L11.9991 16.2435C12.3894 15.8528 13.0226 15.8525 13.4133 16.2428C13.804 16.6331 13.8043 17.2663 13.4139 17.657L12.0012 19.0711C10.0488 21.0235 6.88185 21.0246 4.92908 19.0719C2.97631 17.1191 2.97706 13.9531 4.92954 12.0006L6.34375 10.5864C6.73427 10.1959 7.36744 10.1959 7.75796 10.5864Z" fill="#666666"/>
</svg>
