<svg width="24" height="24" viewBox="0 0 24 24" fill="none" xmlns="http://www.w3.org/2000/svg">
<path d="M4 10C4 9.44772 4.44772 9 5 9C5.55228 9 6 9.44772 6 10C6 11.5913 6.63259 13.117 7.75781 14.2422C8.88303 15.3674 10.4087 16 12 16L12.2979 15.9922C13.7807 15.9185 15.1874 15.297 16.2422 14.2422C17.3674 13.117 18 11.5913 18 10C18 9.44772 18.4477 9 19 9C19.5523 9 20 9.44772 20 10C20 12.1217 19.1575 14.1569 17.6572 15.6572C16.3947 16.9198 14.7529 17.7137 13 17.9346V20H16C16.5523 20 17 20.4477 17 21C17 21.5523 16.5523 22 16 22H8C7.44772 22 7 21.5523 7 21C7 20.4477 7.44772 20 8 20H11V17.9346C9.24713 17.7137 7.60532 16.9198 6.34277 15.6572C4.84248 14.1569 4 12.1217 4 10ZM14 5C14 4.46957 13.7891 3.96101 13.4141 3.58594C13.0858 3.25765 12.6553 3.05515 12.1973 3.00977L12 3C11.4696 3 10.961 3.21087 10.5859 3.58594C10.2109 3.96101 10 4.46957 10 5V10C10 10.5304 10.2109 11.039 10.5859 11.4141C10.961 11.7891 11.4696 12 12 12C12.5304 12 13.039 11.7891 13.4141 11.4141C13.7891 11.039 14 10.5304 14 10V5ZM16 10C16 11.0609 15.5783 12.078 14.8281 12.8281C14.078 13.5783 13.0609 14 12 14C10.9391 14 9.92202 13.5783 9.17188 12.8281C8.42173 12.078 8 11.0609 8 10V5C8 3.93913 8.42173 2.92202 9.17188 2.17188C9.92202 1.42173 10.9391 1 12 1L12.1982 1.00488C13.1869 1.0539 14.1248 1.46859 14.8281 2.17188C15.5783 2.92202 16 3.93913 16 5V10Z" fill="#374151"/>
</svg>
