<svg width="24" height="24" viewBox="0 0 24 24" fill="none" xmlns="http://www.w3.org/2000/svg">
<path d="M3 11.9998V8.99977C3 7.9389 3.42173 6.92179 4.17188 6.17164C4.92202 5.42149 5.93913 4.99977 7 4.99977H17.5859L16.293 3.7068L16.2246 3.63063C15.9043 3.23785 15.9269 2.65885 16.293 2.29273C16.6591 1.92662 17.2381 1.90402 17.6309 2.22437L17.707 2.29273L20.707 5.29273L20.7754 5.36891C21.0744 5.73549 21.0744 6.26404 20.7754 6.63062L20.707 6.7068L17.707 9.7068C17.3165 10.0973 16.6835 10.0973 16.293 9.7068C15.9024 9.31627 15.9024 8.68326 16.293 8.29273L17.5859 6.99977H7C6.46957 6.99977 5.96101 7.21063 5.58594 7.5857C5.21086 7.96078 5 8.46933 5 8.99977V11.9998C5 12.5521 4.55228 12.9998 4 12.9998C3.44772 12.9998 3 12.5521 3 11.9998Z" fill="#666666"/>
<path d="M6.29295 14.2927C6.68348 13.9022 7.31649 13.9022 7.70702 14.2927C8.09754 14.6832 8.09754 15.3163 7.70702 15.7068L6.41405 16.9998H17L17.1973 16.99C17.6553 16.9446 18.0858 16.7421 18.414 16.4138C18.7423 16.0855 18.9448 15.655 18.9902 15.197L19 14.9998V11.9998C19 11.4475 19.4477 10.9998 20 10.9998C20.5523 10.9998 21 11.4475 21 11.9998V14.9998L20.9951 15.198C20.9461 16.1867 20.5314 17.1246 19.8281 17.8279C19.1248 18.5312 18.1869 18.9459 17.1982 18.9949L17 18.9998H6.41405L7.70702 20.2927L7.77538 20.3689C8.09573 20.7617 8.07313 21.3407 7.70702 21.7068C7.3409 22.0729 6.7619 22.0955 6.36913 21.7751L6.29295 21.7068L3.29295 18.7068C2.90243 18.3163 2.90243 17.6832 3.29295 17.2927L6.29295 14.2927Z" fill="#666666"/>
</svg>
