<svg width="24" height="24" viewBox="0 0 24 24" fill="none" xmlns="http://www.w3.org/2000/svg">
<path d="M19 20C19.5523 20 20 20.4477 20 21C20 21.5523 19.5523 22 19 22H5C4.44772 22 4 21.5523 4 21C4 20.4477 4.44772 20 5 20H19ZM15 7C15 6.20435 14.6837 5.44152 14.1211 4.87891C13.5585 4.3163 12.7956 4 12 4C11.2044 4 10.4415 4.3163 9.87891 4.87891C9.3163 5.44152 9 6.20435 9 7C9 7.32792 9.16525 7.84853 9.47363 8.62695C9.74746 9.31811 10.1247 10.1928 10.3203 10.9912C10.5093 11.7631 10.6218 12.8107 9.96973 13.6582C9.31718 14.5063 8.1744 14.7998 6.79004 14.7998C6.17848 14.7998 5.71882 14.8022 5.33301 14.8545C4.95989 14.9051 4.75357 14.992 4.62012 15.0957C4.41977 15.2514 4.13879 15.6478 4.03809 16.8496H19.9619C19.8612 15.6478 19.5802 15.2514 19.3799 15.0957C19.2464 14.992 19.0401 14.9051 18.667 14.8545C18.2812 14.8022 17.8215 14.7998 17.21 14.7998C15.8256 14.7998 14.6828 14.5063 14.0303 13.6582C13.3782 12.8107 13.4907 11.7631 13.6797 10.9912C13.8753 10.1928 14.2525 9.31811 14.5264 8.62695C14.8347 7.84853 15 7.32792 15 7ZM17 7C17 7.77708 16.6645 8.65952 16.3857 9.36328C16.0724 10.1541 15.7752 10.8417 15.6221 11.4668C15.4626 12.1181 15.5521 12.3563 15.6152 12.4385C15.678 12.5201 15.9894 12.7998 17.21 12.7998C17.7828 12.7998 18.3896 12.7979 18.9365 12.8721C19.496 12.948 20.0896 13.1142 20.6074 13.5166C21.662 14.3364 22 15.8005 22 17.8496C22 18.4019 21.5523 18.8496 21 18.8496H3C2.44772 18.8496 2 18.4019 2 17.8496C2.00004 15.8005 2.338 14.3364 3.39258 13.5166C3.91037 13.1142 4.504 12.948 5.06348 12.8721C5.61036 12.7979 6.21716 12.7998 6.79004 12.7998C8.01062 12.7998 8.322 12.5201 8.38477 12.4385C8.44786 12.3563 8.53742 12.1181 8.37793 11.4668C8.22481 10.8417 7.92757 10.1541 7.61426 9.36328C7.33545 8.65952 7 7.77708 7 7C7 5.67392 7.52716 4.40253 8.46484 3.46484C9.40253 2.52716 10.6739 2 12 2C13.3261 2 14.5975 2.52716 15.5352 3.46484C16.4728 4.40253 17 5.67392 17 7Z" fill="#9CA3AF"/>
</svg>
