<svg width="20" height="20" viewBox="0 0 20 20" fill="none" xmlns="http://www.w3.org/2000/svg">
<g clip-path="url(#clip0_1216_26252)">
<path d="M8.84631 14.8289L9.57764 13.1537C10.2286 11.663 11.4001 10.4764 12.8614 9.82769L14.8745 8.9341C15.5145 8.65002 15.5145 7.71892 14.8745 7.43483L12.9242 6.56914C11.4253 5.90379 10.2328 4.6732 9.59306 3.13164L8.85223 1.34646C8.57731 0.683991 7.66197 0.683993 7.38706 1.34646L6.6462 3.13162C6.00645 4.6732 4.81392 5.90379 3.31502 6.56914L1.36479 7.43483C0.724757 7.71892 0.724756 8.65002 1.36479 8.9341L3.37789 9.82769C4.83922 10.4764 6.01073 11.663 6.6616 13.1537L7.39298 14.8289C7.67411 15.4727 8.56514 15.4727 8.84631 14.8289ZM16.1688 18.9074L16.3745 18.436C16.7411 17.5955 17.4016 16.9263 18.2256 16.5602L18.8592 16.2786C19.202 16.1264 19.202 15.6283 18.8592 15.476L18.2611 15.2102C17.4158 14.8347 16.7436 14.1407 16.3831 13.2716L16.172 12.7622C16.0247 12.4072 15.5339 12.4072 15.3866 12.7622L15.1755 13.2716C14.8151 14.1407 14.1429 14.8347 13.2976 15.2102L12.6994 15.476C12.3567 15.6283 12.3567 16.1264 12.6994 16.2786L13.3331 16.5602C14.1571 16.9263 14.8175 17.5955 15.1841 18.436L15.3899 18.9074C15.5404 19.2525 16.0182 19.2525 16.1688 18.9074Z" fill="#121212"/>
</g>
<defs>
<clipPath id="clip0_1216_26252">
<rect width="20" height="20" fill="white"/>
</clipPath>
</defs>
</svg>
