<svg width="24" height="24" viewBox="0 0 24 24" fill="none" xmlns="http://www.w3.org/2000/svg">
<path fill-rule="evenodd" clip-rule="evenodd" d="M11.4501 2.62383C11.5618 2.43316 11.7673 2.31642 11.9892 2.31642C12.2118 2.31487 12.4187 2.43166 12.532 2.62311L15.5844 7.82787L21.5032 9.09638C21.7219 9.14228 21.8993 9.30027 21.9688 9.51194C22.0383 9.72284 21.9899 9.95398 21.8407 10.1197L17.8095 14.6202L18.4274 20.6141C18.4509 20.8352 18.3548 21.0515 18.1743 21.1822C17.9946 21.3138 17.7579 21.3394 17.554 21.2499L12.0102 18.8242L6.47037 21.2631C6.26645 21.3526 6.02973 21.3285 5.84926 21.1977C5.6688 21.067 5.57193 20.8499 5.59458 20.6296L6.19849 14.6325L2.15868 10.1438C2.01102 9.97879 1.9618 9.74844 2.03055 9.53754C2.09931 9.32744 2.27587 9.16867 2.49227 9.1212L8.40709 7.83636L11.4501 2.62383ZM5.23485 10.5721L8.27709 13.9524L7.82083 18.4833L12.0077 16.64L16.1961 18.4727L15.7293 13.945L18.7657 10.5551L14.3045 9.59899L11.994 5.65919L9.69096 9.60411L5.23485 10.5721ZM16.997 19.5655C16.9983 19.5645 16.9996 19.5636 17.001 19.5626L16.997 19.5655Z" fill="#9CA3AF"/>
</svg>
