<svg width="24" height="24" viewBox="0 0 24 24" fill="none" xmlns="http://www.w3.org/2000/svg">
<path d="M20 6C20 5.73478 19.8946 5.48051 19.707 5.29297C19.5429 5.12883 19.3276 5.02757 19.0986 5.00488L19 5H16V19H19C19.2652 19 19.5195 18.8946 19.707 18.707C19.8946 18.5195 20 18.2652 20 18V6ZM4 18L4.00488 18.0986C4.02757 18.3276 4.12883 18.5429 4.29297 18.707C4.48051 18.8946 4.73478 19 5 19H14V5H5C4.73478 5 4.4805 5.10543 4.29297 5.29297C4.10543 5.4805 4 5.73478 4 6V18ZM22 18C22 18.7957 21.6837 19.5585 21.1211 20.1211C20.5585 20.6837 19.7957 21 19 21H5C4.20435 21 3.44151 20.6837 2.87891 20.1211C2.3163 19.5585 2 18.7956 2 18V6C2 5.20435 2.3163 4.44152 2.87891 3.87891C3.44152 3.3163 4.20435 3 5 3H19C19.7957 3 20.5585 3.3163 21.1211 3.87891C21.6837 4.44151 22 5.20435 22 6V18Z" fill="#121212"/>
</svg>
