<svg width="24" height="24" viewBox="0 0 24 24" fill="none" xmlns="http://www.w3.org/2000/svg">
<path d="M13.2213 1.01417C12.6767 0.922043 12.1606 1.2888 12.0685 1.83335C11.9763 2.37789 12.3431 2.89402 12.8876 2.98615C14.8144 3.31212 16.5734 4.22335 17.9772 5.61993C19.3792 7.01941 20.2877 8.7733 20.6143 10.6959C20.7068 11.2404 21.2232 11.6068 21.7676 11.5143C22.3121 11.4218 22.6785 10.9054 22.586 10.3609C22.1891 8.02426 21.0827 5.8936 19.3893 4.20364L19.3882 4.20259C17.6962 2.519 15.5626 1.41028 13.2213 1.01417Z" fill="#374151"/>
<path d="M13.0365 4.93985C12.4919 4.84856 11.9763 5.21611 11.885 5.7608C11.7937 6.30549 12.1613 6.82105 12.706 6.91234C13.6968 7.0784 14.5988 7.54553 15.3249 8.2701C16.0491 8.99286 16.5144 9.89279 16.6853 10.8854C16.7789 11.4297 17.2961 11.795 17.8404 11.7013C18.3847 11.6076 18.75 11.0905 18.6563 10.5462C18.415 9.14397 17.7537 7.86841 16.7376 6.85444C15.7234 5.84229 14.4454 5.17597 13.0365 4.93985Z" fill="#374151"/>
<path fill-rule="evenodd" clip-rule="evenodd" d="M20.2337 20.0533C20.3155 19.9729 20.3829 19.879 20.4329 19.7758L20.434 19.7736L20.4353 19.7709L20.4383 19.7645L20.4463 19.7473C20.4525 19.7339 20.4603 19.7167 20.4693 19.696C20.4872 19.6547 20.5104 19.5988 20.5356 19.5312C20.5848 19.3991 20.647 19.2088 20.6894 18.9891C20.7592 18.6278 20.8478 17.8093 20.2332 17.2L20.2313 17.1981L17.716 14.6879C17.492 14.4486 17.017 14.0483 16.3363 14.0483C15.6334 14.0483 15.1391 14.4829 14.9384 14.6833L14.0349 15.5849C13.8717 15.4866 13.6954 15.3986 13.5539 15.3281L13.5357 15.319C13.3466 15.2246 13.199 15.1501 13.0607 15.0626L13.0597 15.0619C11.6945 14.2003 10.441 13.0664 9.23495 11.5837L9.21985 11.5656C8.58346 10.7562 8.18895 10.1096 7.91256 9.4509L7.90649 9.43052L7.90934 9.42765C7.99136 9.35452 8.03196 9.31992 8.05075 9.30431L8.06005 9.29669L8.06394 9.2936L8.073 9.28657C8.07822 9.28251 8.08905 9.27408 8.10188 9.26357C8.15867 9.21706 8.20454 9.1703 8.23144 9.14288L8.23559 9.13865L8.40838 8.96179C8.49 8.88285 8.57483 8.79766 8.65382 8.718L8.71074 8.66056C8.74354 8.62747 8.77482 8.59596 8.80384 8.567C9.14153 8.22999 9.46154 7.75694 9.46154 7.15076C9.46154 6.54458 9.14153 6.07154 8.80384 5.73453L7.55896 4.4922C7.48547 4.41662 7.41243 4.34258 7.34279 4.27199L7.33983 4.26899C7.26668 4.19484 7.19737 4.12456 7.12965 4.05481C6.85242 3.76906 6.57629 3.48838 6.28239 3.21367L6.28043 3.2117C6.07142 3.00313 5.59445 2.59961 4.90541 2.59961C4.33525 2.59961 3.86462 2.87671 3.5256 3.19433C3.51792 3.20153 3.51036 3.20884 3.50291 3.21627L1.94123 4.77476C1.39368 5.32119 1.08516 5.98516 1.01926 6.75465L1.01897 6.75812C0.934321 7.78877 1.1343 8.82825 1.59148 10.0502C2.33003 12.0411 3.43904 13.8741 5.05696 15.8202L5.06001 15.8238C7.04046 18.183 9.42863 20.0496 12.1506 21.3646L12.1548 21.3666C13.1246 21.8295 14.5318 22.4313 16.0913 22.5314C16.194 22.5382 16.2961 22.5382 16.3593 22.5382L16.3684 22.5382C17.3469 22.5382 18.1601 22.1995 18.82 21.4953C18.8309 21.4837 18.8416 21.4718 18.8519 21.4596C18.9624 21.3298 19.2899 20.9941 19.6264 20.6565C19.7869 20.4955 19.9389 20.3445 20.0509 20.2336L20.1845 20.1017L20.2337 20.0533ZM3.354 6.19042L4.89407 4.6535L6.55896 7.95213C6.54233 7.96635 6.50197 8.00087 6.4541 8.05533C6.13149 8.39277 5.95498 8.77772 5.90875 9.17624C5.86383 9.5635 5.95228 9.88539 6.00822 10.0622L6.01314 10.0773L6.02688 10.1184C6.03426 10.1405 6.0424 10.1623 6.0513 10.1838C6.42181 11.0796 6.93562 11.8996 7.66961 12.8297C7.68033 12.8433 7.6914 12.8566 7.70281 12.8696C9.01913 14.4835 10.4248 15.764 11.9919 16.7531C12.2227 16.899 12.4533 17.0141 12.6287 17.1016L12.6428 17.1086C12.8184 17.1962 12.9299 17.2528 13.0161 17.3062C13.0278 17.3134 13.0398 17.3205 13.0518 17.3273L13.0741 17.3408C13.091 17.3508 13.1178 17.3662 13.1511 17.3828C13.4267 17.5203 13.7252 17.6023 14.051 17.6023C14.8474 17.6023 15.336 17.1125 15.4466 17.0017L15.4535 16.9948L16.3249 16.1252L18.7371 18.5324C18.735 18.5546 18.7314 18.5805 18.7257 18.6098C18.7147 18.6667 18.6987 18.7237 18.6819 18.7748L18.644 18.8121C18.5299 18.9251 18.3745 19.0794 18.2099 19.2446C17.9069 19.5485 17.5295 19.9319 17.3476 20.1415C17.0864 20.4149 16.8113 20.5382 16.3684 20.5382C16.2931 20.5382 16.2538 20.5378 16.2241 20.5358L16.2214 20.5357C15.0626 20.4617 13.9437 20.0042 13.0184 19.5627C10.5577 18.3735 8.39487 16.6853 6.59331 14.5397C5.08916 12.7301 4.11043 11.0906 3.46615 9.3533L3.4651 9.3505C3.07119 8.29799 2.95977 7.56496 3.01211 6.92369C3.03804 6.62454 3.1417 6.40228 3.354 6.19042ZM4.89407 4.6535L6.56006 7.95118C6.66142 7.86055 6.72634 7.80445 6.77287 7.7658C6.78778 7.75341 6.80063 7.74296 6.81199 7.73388L6.98894 7.55274C6.99577 7.54576 7.00271 7.53888 7.00974 7.5321C7.09024 7.45454 7.16255 7.38151 7.24376 7.29947C7.2891 7.25368 7.33721 7.20509 7.39107 7.15134V7.15019L6.14081 5.90249L6.13001 5.89154C6.05992 5.81941 5.98943 5.74795 5.91637 5.6739C5.84412 5.60066 5.76885 5.52436 5.6946 5.44786C5.41714 5.16189 5.16583 4.90709 4.90578 4.6646L4.89407 4.6535Z" fill="#374151"/>
</svg>
