<svg width="30" height="30" viewBox="0 0 30 30" fill="none" xmlns="http://www.w3.org/2000/svg">
<path d="M15.1679 8.31197H14.8319C13.8639 8.31197 13.0879 7.52797 13.0879 6.56797V1.74399C13.0879 0.775997 13.8719 0 14.8319 0H15.1679C16.1359 0 16.9119 0.783997 16.9119 1.74399V6.55997C16.9119 7.52797 16.1279 8.31197 15.1679 8.31197Z" fill="white"/>
<path opacity="0.5" d="M15.1679 29.9993H14.8319C13.8639 29.9993 13.0879 29.2153 13.0879 28.2553V23.4393C13.0879 22.4713 13.8719 21.6953 14.8319 21.6953H15.1679C16.1359 21.6953 16.9119 22.4793 16.9119 23.4393V28.2553C16.9119 29.2153 16.1279 29.9993 15.1679 29.9993Z" fill="white"/>
<path opacity="0.75" d="M8.31197 14.8319V15.1679C8.31197 16.1359 7.52797 16.9119 6.56797 16.9119H1.74399C0.783997 16.9119 0 16.1279 0 15.1679V14.8319C0 13.8639 0.783997 13.0879 1.74399 13.0879H6.55997C7.52797 13.0879 8.31197 13.8719 8.31197 14.8319Z" fill="white"/>
<path opacity="0.25" d="M29.9993 14.8319V15.1679C29.9993 16.1359 29.2153 16.9119 28.2553 16.9119H23.4393C22.4713 16.9119 21.6953 16.1279 21.6953 15.1679V14.8319C21.6953 13.8639 22.4793 13.0879 23.4393 13.0879H28.2553C29.2153 13.0879 29.9993 13.8719 29.9993 14.8319Z" fill="white"/>
<path opacity="0.625" d="M10.1497 19.6077L10.3817 19.8397C11.0617 20.5197 11.0617 21.6316 10.3817 22.3116L6.97375 25.7196C6.29376 26.3996 5.18176 26.3996 4.50176 25.7196L4.26976 25.4876C3.58977 24.8076 3.58977 23.6956 4.26976 23.0156L7.67775 19.6077C8.36575 18.9277 9.46974 18.9277 10.1497 19.6077Z" fill="white"/>
<path opacity="0.125" d="M25.4857 4.26976L25.7177 4.50176C26.3977 5.18176 26.3977 6.29376 25.7177 6.97375L22.3097 10.3817C21.6297 11.0617 20.5177 11.0617 19.8377 10.3817L19.6057 10.1497C18.9257 9.46974 18.9257 8.35775 19.6057 7.67775L23.0137 4.26976C23.6937 3.58977 24.8057 3.58977 25.4857 4.26976Z" fill="white"/>
<path opacity="0.375" d="M19.6057 19.8494L19.8377 19.6174C20.5177 18.9374 21.6297 18.9374 22.3097 19.6174L25.7177 23.0254C26.3977 23.7054 26.3977 24.8174 25.7177 25.4974L25.4857 25.7294C24.8057 26.4094 23.6937 26.4094 23.0137 25.7294L19.6057 22.3214C18.9257 21.6334 18.9257 20.5294 19.6057 19.8494Z" fill="white"/>
<path opacity="0.875" d="M4.26976 4.51153L4.50176 4.27953C5.18176 3.59953 6.29376 3.59953 6.97375 4.27953L10.3817 7.68752C11.0617 8.36751 11.0617 9.47951 10.3817 10.1595L10.1497 10.3915C9.46974 11.0715 8.35775 11.0715 7.67775 10.3915L4.26976 6.98352C3.58977 6.29552 3.58977 5.19153 4.26976 4.51153Z" fill="white"/>
</svg>
