<svg width="56" height="56" viewBox="0 0 56 56" fill="none" xmlns="http://www.w3.org/2000/svg">
<path d="M47.25 9.625H8.75C8.05381 9.625 7.38613 9.90156 6.89384 10.3938C6.40156 10.8861 6.125 11.5538 6.125 12.25V43.75C6.125 44.4462 6.40156 45.1139 6.89384 45.6062C7.38613 46.0984 8.05381 46.375 8.75 46.375H47.25C47.9462 46.375 48.6139 46.0984 49.1062 45.6062C49.5984 45.1139 49.875 44.4462 49.875 43.75V12.25C49.875 11.5538 49.5984 10.8861 49.1062 10.3938C48.6139 9.90156 47.9462 9.625 47.25 9.625ZM48.125 12.25V27.125H35.875V11.375H47.25C47.4821 11.375 47.7046 11.4672 47.8687 11.6313C48.0328 11.7954 48.125 12.0179 48.125 12.25ZM7.875 43.75V12.25C7.875 12.0179 7.96719 11.7954 8.13128 11.6313C8.29538 11.4672 8.51794 11.375 8.75 11.375H34.125V44.625H8.75C8.51794 44.625 8.29538 44.5328 8.13128 44.3687C7.96719 44.2046 7.875 43.9821 7.875 43.75ZM47.25 44.625H35.875V28.875H48.125V43.75C48.125 43.9821 48.0328 44.2046 47.8687 44.3687C47.7046 44.5328 47.4821 44.625 47.25 44.625ZM40.25 19.25C40.25 18.9039 40.3526 18.5655 40.5449 18.2778C40.7372 17.99 41.0105 17.7657 41.3303 17.6332C41.6501 17.5008 42.0019 17.4661 42.3414 17.5336C42.6809 17.6011 42.9927 17.7678 43.2374 18.0126C43.4822 18.2573 43.6488 18.5691 43.7164 18.9086C43.7839 19.2481 43.7492 19.5999 43.6168 19.9197C43.4843 20.2395 43.26 20.5128 42.9722 20.7051C42.6845 20.8974 42.3461 21 42 21C41.5359 21 41.0908 20.8156 40.7626 20.4874C40.4344 20.1592 40.25 19.7141 40.25 19.25ZM43.75 36.75C43.75 37.0961 43.6474 37.4345 43.4551 37.7222C43.2628 38.01 42.9895 38.2343 42.6697 38.3668C42.3499 38.4992 41.9981 38.5339 41.6586 38.4664C41.3191 38.3988 41.0073 38.2322 40.7626 37.9874C40.5178 37.7427 40.3512 37.4309 40.2836 37.0914C40.2161 36.7519 40.2508 36.4001 40.3832 36.0803C40.5157 35.7605 40.74 35.4872 41.0278 35.2949C41.3155 35.1026 41.6539 35 42 35C42.4641 35 42.9092 35.1844 43.2374 35.5126C43.5656 35.8407 43.75 36.2859 43.75 36.75ZM28.8466 36.5312C28.536 35.3891 27.9733 34.331 27.1999 33.435C26.4265 32.5389 25.462 31.8276 24.3775 31.3534C25.4759 30.6274 26.311 29.5668 26.7592 28.3288C27.2074 27.0908 27.2447 25.7413 26.8657 24.4804C26.4866 23.2195 25.7113 22.1144 24.6548 21.3287C23.5982 20.5431 22.3166 20.1188 21 20.1188C19.6834 20.1188 18.4018 20.5431 17.3452 21.3287C16.2887 22.1144 15.5134 23.2195 15.1343 24.4804C14.7553 25.7413 14.7926 27.0908 15.2408 28.3288C15.689 29.5668 16.5241 30.6274 17.6225 31.3534C16.5387 31.8287 15.5748 32.5403 14.8015 33.4362C14.0283 34.3321 13.4652 35.3896 13.1534 36.5312C13.0956 36.7558 13.1292 36.9941 13.2469 37.1938C13.3646 37.3935 13.5568 37.5384 13.7812 37.5966C13.8526 37.6155 13.9262 37.6251 14 37.625C14.1939 37.6249 14.3822 37.5603 14.5354 37.4415C14.6887 37.3228 14.7981 37.1565 14.8466 36.9688C15.5313 34.3438 18.1672 32.375 21 32.375C23.8328 32.375 26.4819 34.3438 27.1534 36.9688C27.1785 37.0837 27.2266 37.1925 27.2947 37.2885C27.3628 37.3845 27.4496 37.4658 27.5498 37.5274C27.6501 37.5891 27.7617 37.6299 27.8781 37.6474C27.9945 37.665 28.1133 37.6588 28.2272 37.6294C28.3412 37.5999 28.448 37.5478 28.5414 37.4761C28.6347 37.4044 28.7126 37.3146 28.7705 37.212C28.8283 37.1095 28.8648 36.9964 28.8779 36.8794C28.891 36.7624 28.8803 36.644 28.8466 36.5312ZM16.625 26.25C16.625 25.3847 16.8816 24.5388 17.3623 23.8194C17.8431 23.0999 18.5263 22.5392 19.3258 22.208C20.1252 21.8769 21.0049 21.7903 21.8535 21.9591C22.7022 22.1279 23.4817 22.5446 24.0936 23.1564C24.7054 23.7683 25.1221 24.5478 25.2909 25.3965C25.4597 26.2451 25.3731 27.1248 25.042 27.9242C24.7108 28.7237 24.1501 29.4069 23.4306 29.8877C22.7112 30.3684 21.8653 30.625 21 30.625C19.8397 30.625 18.7269 30.1641 17.9064 29.3436C17.0859 28.5231 16.625 27.4103 16.625 26.25Z" fill="black"/>
<path fill-rule="evenodd" clip-rule="evenodd" d="M48.125 12.25V27.125H35.875V11.375H47.25C47.4821 11.375 47.7046 11.4672 47.8687 11.6313C48.0328 11.7954 48.125 12.0179 48.125 12.25ZM40.5449 18.2778C40.3526 18.5655 40.25 18.9039 40.25 19.25C40.25 19.7141 40.4344 20.1592 40.7626 20.4874C41.0908 20.8156 41.5359 21 42 21C42.3461 21 42.6845 20.8974 42.9722 20.7051C43.26 20.5128 43.4843 20.2395 43.6168 19.9197C43.7492 19.5999 43.7839 19.2481 43.7164 18.9086C43.6488 18.5691 43.4822 18.2573 43.2374 18.0126C42.9927 17.7678 42.6809 17.6011 42.3414 17.5336C42.0019 17.4661 41.6501 17.5008 41.3303 17.6332C41.0105 17.7657 40.7372 17.99 40.5449 18.2778Z" fill="#005386"/>
<path fill-rule="evenodd" clip-rule="evenodd" d="M47.25 44.625H35.875V28.875H48.125V43.75C48.125 43.9821 48.0328 44.2046 47.8687 44.3687C47.7046 44.5328 47.4821 44.625 47.25 44.625ZM43.4551 37.7222C43.6474 37.4345 43.75 37.0961 43.75 36.75C43.75 36.2859 43.5656 35.8407 43.2374 35.5126C42.9092 35.1844 42.4641 35 42 35C41.6539 35 41.3155 35.1026 41.0278 35.2949C40.74 35.4872 40.5157 35.7605 40.3832 36.0803C40.2508 36.4001 40.2161 36.7519 40.2836 37.0914C40.3512 37.4309 40.5178 37.7427 40.7626 37.9874C41.0073 38.2322 41.3191 38.3988 41.6586 38.4664C41.9981 38.5339 42.3499 38.4992 42.6697 38.3668C42.9895 38.2343 43.2628 38.01 43.4551 37.7222Z" fill="#005386"/>
</svg>
