<svg width="56" height="56" viewBox="0 0 56 56" fill="none" xmlns="http://www.w3.org/2000/svg">
<path d="M46.1191 15.1309L37.3691 6.38094C37.2877 6.29971 37.1912 6.2353 37.085 6.19138C36.9788 6.14747 36.8649 6.12491 36.75 6.125H19.25C18.5538 6.125 17.8861 6.40156 17.3938 6.89385C16.9016 7.38613 16.625 8.05381 16.625 8.75V13.125H12.25C11.5538 13.125 10.8861 13.4016 10.3938 13.8938C9.90156 14.3861 9.625 15.0538 9.625 15.75V47.25C9.625 47.9462 9.90156 48.6139 10.3938 49.1062C10.8861 49.5984 11.5538 49.875 12.25 49.875H36.75C37.4462 49.875 38.1139 49.5984 38.6062 49.1062C39.0984 48.6139 39.375 47.9462 39.375 47.25V42.875H43.75C44.4462 42.875 45.1139 42.5984 45.6062 42.1062C46.0984 41.6139 46.375 40.9462 46.375 40.25V15.75C46.3751 15.6351 46.3525 15.5212 46.3086 15.415C46.2647 15.3088 46.2003 15.2123 46.1191 15.1309ZM37.625 47.25C37.625 47.4821 37.5328 47.7046 37.3687 47.8687C37.2046 48.0328 36.9821 48.125 36.75 48.125H12.25C12.0179 48.125 11.7954 48.0328 11.6313 47.8687C11.4672 47.7046 11.375 47.4821 11.375 47.25V15.75C11.375 15.5179 11.4672 15.2954 11.6313 15.1313C11.7954 14.9672 12.0179 14.875 12.25 14.875H29.3869L37.625 23.1131V47.25ZM44.625 40.25C44.625 40.4821 44.5328 40.7046 44.3687 40.8687C44.2046 41.0328 43.9821 41.125 43.75 41.125H39.375V22.75C39.3751 22.6351 39.3525 22.5212 39.3086 22.415C39.2647 22.3088 39.2003 22.2123 39.1191 22.1309L30.3691 13.3809C30.2877 13.2997 30.1912 13.2353 30.085 13.1914C29.9788 13.1475 29.8649 13.1249 29.75 13.125H18.375V8.75C18.375 8.51794 18.4672 8.29538 18.6313 8.13128C18.7954 7.96719 19.0179 7.875 19.25 7.875H36.3869L44.625 16.1131V40.25ZM30.625 33.25C30.625 33.4821 30.5328 33.7046 30.3687 33.8687C30.2046 34.0328 29.9821 34.125 29.75 34.125H19.25C19.0179 34.125 18.7954 34.0328 18.6313 33.8687C18.4672 33.7046 18.375 33.4821 18.375 33.25C18.375 33.0179 18.4672 32.7954 18.6313 32.6313C18.7954 32.4672 19.0179 32.375 19.25 32.375H29.75C29.9821 32.375 30.2046 32.4672 30.3687 32.6313C30.5328 32.7954 30.625 33.0179 30.625 33.25ZM30.625 40.25C30.625 40.4821 30.5328 40.7046 30.3687 40.8687C30.2046 41.0328 29.9821 41.125 29.75 41.125H19.25C19.0179 41.125 18.7954 41.0328 18.6313 40.8687C18.4672 40.7046 18.375 40.4821 18.375 40.25C18.375 40.0179 18.4672 39.7954 18.6313 39.6313C18.7954 39.4672 19.0179 39.375 19.25 39.375H29.75C29.9821 39.375 30.2046 39.4672 30.3687 39.6313C30.5328 39.7954 30.625 40.0179 30.625 40.25Z" fill="black"/>
<path d="M44.625 40.25C44.625 40.4821 44.5328 40.7046 44.3687 40.8687C44.2046 41.0328 43.9821 41.125 43.75 41.125H39.375V22.75C39.3751 22.6351 39.3525 22.5212 39.3086 22.415C39.2647 22.3088 39.2003 22.2123 39.1191 22.1309L30.3691 13.3809C30.2877 13.2997 30.1912 13.2353 30.085 13.1914C29.9788 13.1475 29.8649 13.1249 29.75 13.125H18.375V8.75C18.375 8.51794 18.4672 8.29538 18.6313 8.13128C18.7954 7.96719 19.0179 7.875 19.25 7.875H36.3869L44.625 16.1131V40.25Z" fill="#005386"/>
</svg>
