<svg width="56" height="56" viewBox="0 0 56 56" fill="none" xmlns="http://www.w3.org/2000/svg">
<path d="M45.5 7.875H39.375V5.25C39.375 5.01794 39.2828 4.79538 39.1187 4.63128C38.9546 4.46719 38.7321 4.375 38.5 4.375C38.2679 4.375 38.0454 4.46719 37.8813 4.63128C37.7172 4.79538 37.625 5.01794 37.625 5.25V7.875H18.375V5.25C18.375 5.01794 18.2828 4.79538 18.1187 4.63128C17.9546 4.46719 17.7321 4.375 17.5 4.375C17.2679 4.375 17.0454 4.46719 16.8813 4.63128C16.7172 4.79538 16.625 5.01794 16.625 5.25V7.875H10.5C9.80381 7.875 9.13613 8.15156 8.64384 8.64384C8.15156 9.13613 7.875 9.80381 7.875 10.5V45.5C7.875 46.1962 8.15156 46.8639 8.64384 47.3562C9.13613 47.8484 9.80381 48.125 10.5 48.125H45.5C46.1962 48.125 46.8639 47.8484 47.3562 47.3562C47.8484 46.8639 48.125 46.1962 48.125 45.5V10.5C48.125 9.80381 47.8484 9.13613 47.3562 8.64384C46.8639 8.15156 46.1962 7.875 45.5 7.875ZM10.5 9.625H16.625V12.25C16.625 12.4821 16.7172 12.7046 16.8813 12.8687C17.0454 13.0328 17.2679 13.125 17.5 13.125C17.7321 13.125 17.9546 13.0328 18.1187 12.8687C18.2828 12.7046 18.375 12.4821 18.375 12.25V9.625H37.625V12.25C37.625 12.4821 37.7172 12.7046 37.8813 12.8687C38.0454 13.0328 38.2679 13.125 38.5 13.125C38.7321 13.125 38.9546 13.0328 39.1187 12.8687C39.2828 12.7046 39.375 12.4821 39.375 12.25V9.625H45.5C45.7321 9.625 45.9546 9.71719 46.1187 9.88128C46.2828 10.0454 46.375 10.2679 46.375 10.5V18.375H9.625V10.5C9.625 10.2679 9.71719 10.0454 9.88128 9.88128C10.0454 9.71719 10.2679 9.625 10.5 9.625ZM45.5 46.375H10.5C10.2679 46.375 10.0454 46.2828 9.88128 46.1187C9.71719 45.9546 9.625 45.7321 9.625 45.5V20.125H46.375V45.5C46.375 45.7321 46.2828 45.9546 46.1187 46.1187C45.9546 46.2828 45.7321 46.375 45.5 46.375ZM29.75 28.875C29.75 29.2211 29.6474 29.5595 29.4551 29.8472C29.2628 30.135 28.9895 30.3593 28.6697 30.4918C28.3499 30.6242 27.9981 30.6589 27.6586 30.5914C27.3191 30.5238 27.0073 30.3572 26.7626 30.1124C26.5178 29.8677 26.3512 29.5559 26.2836 29.2164C26.2161 28.8769 26.2508 28.5251 26.3832 28.2053C26.5157 27.8855 26.74 27.6122 27.0278 27.4199C27.3155 27.2276 27.6539 27.125 28 27.125C28.4641 27.125 28.9093 27.3094 29.2374 27.6376C29.5656 27.9658 29.75 28.4109 29.75 28.875ZM39.375 28.875C39.375 29.2211 39.2724 29.5595 39.0801 29.8472C38.8878 30.135 38.6145 30.3593 38.2947 30.4918C37.9749 30.6242 37.6231 30.6589 37.2836 30.5914C36.9441 30.5238 36.6323 30.3572 36.3876 30.1124C36.1428 29.8677 35.9762 29.5559 35.9086 29.2164C35.8411 28.8769 35.8758 28.5251 36.0082 28.2053C36.1407 27.8855 36.365 27.6122 36.6528 27.4199C36.9405 27.2276 37.2789 27.125 37.625 27.125C38.0891 27.125 38.5343 27.3094 38.8624 27.6376C39.1906 27.9658 39.375 28.4109 39.375 28.875ZM20.125 37.625C20.125 37.9711 20.0224 38.3095 19.8301 38.5972C19.6378 38.885 19.3645 39.1093 19.0447 39.2418C18.7249 39.3742 18.3731 39.4089 18.0336 39.3414C17.6941 39.2738 17.3823 39.1072 17.1376 38.8624C16.8928 38.6177 16.7261 38.3059 16.6586 37.9664C16.5911 37.6269 16.6258 37.2751 16.7582 36.9553C16.8907 36.6355 17.115 36.3622 17.4028 36.1699C17.6905 35.9776 18.0289 35.875 18.375 35.875C18.8391 35.875 19.2842 36.0594 19.6124 36.3876C19.9406 36.7158 20.125 37.1609 20.125 37.625ZM29.75 37.625C29.75 37.9711 29.6474 38.3095 29.4551 38.5972C29.2628 38.885 28.9895 39.1093 28.6697 39.2418C28.3499 39.3742 27.9981 39.4089 27.6586 39.3414C27.3191 39.2738 27.0073 39.1072 26.7626 38.8624C26.5178 38.6177 26.3512 38.3059 26.2836 37.9664C26.2161 37.6269 26.2508 37.2751 26.3832 36.9553C26.5157 36.6355 26.74 36.3622 27.0278 36.1699C27.3155 35.9776 27.6539 35.875 28 35.875C28.4641 35.875 28.9093 36.0594 29.2374 36.3876C29.5656 36.7158 29.75 37.1609 29.75 37.625ZM39.375 37.625C39.375 37.9711 39.2724 38.3095 39.0801 38.5972C38.8878 38.885 38.6145 39.1093 38.2947 39.2418C37.9749 39.3742 37.6231 39.4089 37.2836 39.3414C36.9441 39.2738 36.6323 39.1072 36.3876 38.8624C36.1428 38.6177 35.9762 38.3059 35.9086 37.9664C35.8411 37.6269 35.8758 37.2751 36.0082 36.9553C36.1407 36.6355 36.365 36.3622 36.6528 36.1699C36.9405 35.9776 37.2789 35.875 37.625 35.875C38.0891 35.875 38.5343 36.0594 38.8624 36.3876C39.1906 36.7158 39.375 37.1609 39.375 37.625Z" fill="black"/>
<path d="M10.5 9.625H16.625V12.25C16.625 12.4821 16.7172 12.7046 16.8813 12.8687C17.0454 13.0328 17.2679 13.125 17.5 13.125C17.7321 13.125 17.9546 13.0328 18.1187 12.8687C18.2828 12.7046 18.375 12.4821 18.375 12.25V9.625H37.625V12.25C37.625 12.4821 37.7172 12.7046 37.8813 12.8687C38.0454 13.0328 38.2679 13.125 38.5 13.125C38.7321 13.125 38.9546 13.0328 39.1187 12.8687C39.2828 12.7046 39.375 12.4821 39.375 12.25V9.625H45.5C45.7321 9.625 45.9546 9.71719 46.1187 9.88128C46.2828 10.0454 46.375 10.2679 46.375 10.5V18.375H9.625V10.5C9.625 10.2679 9.71719 10.0454 9.88128 9.88128C10.0454 9.71719 10.2679 9.625 10.5 9.625Z" fill="#005386"/>
</svg>
