<svg width="56" height="56" viewBox="0 0 56 56" fill="none" xmlns="http://www.w3.org/2000/svg">
<path d="M49 11.375H7C6.76794 11.375 6.54538 11.4672 6.38128 11.6313C6.21719 11.7954 6.125 12.0179 6.125 12.25V42C6.125 42.6962 6.40156 43.3639 6.89384 43.8562C7.38613 44.3484 8.05381 44.625 8.75 44.625H47.25C47.9462 44.625 48.6139 44.3484 49.1062 43.8562C49.5984 43.3639 49.875 42.6962 49.875 42V12.25C49.875 12.0179 49.7828 11.7954 49.6187 11.6313C49.4546 11.4672 49.2321 11.375 49 11.375ZM46.7513 13.125L28 30.3122L9.24875 13.125H46.7513ZM47.25 42.875H8.75C8.51794 42.875 8.29538 42.7828 8.13128 42.6187C7.96719 42.4546 7.875 42.2321 7.875 42V14.2384L27.4094 32.1562C27.5707 32.3038 27.7814 32.3857 28 32.3857C28.2186 32.3857 28.4293 32.3038 28.5906 32.1562L48.125 14.2384V42C48.125 42.2321 48.0328 42.4546 47.8687 42.6187C47.7046 42.7828 47.4821 42.875 47.25 42.875Z" fill="black"/>
<path d="M46.7513 13.125L28 30.3122L9.24875 13.125H46.7513Z" fill="#005386"/>
</svg>
