<svg width="56" height="56" viewBox="0 0 56 56" fill="none" xmlns="http://www.w3.org/2000/svg">
<path d="M28 6.125C23.6735 6.125 19.4442 7.40795 15.8469 9.8116C12.2496 12.2153 9.44581 15.6317 7.79014 19.6288C6.13448 23.6259 5.70128 28.0243 6.54533 32.2676C7.38938 36.5109 9.47278 40.4087 12.532 43.468C15.5913 46.5272 19.4891 48.6106 23.7324 49.4547C27.9757 50.2987 32.3741 49.8655 36.3712 48.2099C40.3683 46.5542 43.7848 43.7504 46.1884 40.1531C48.5921 36.5558 49.875 32.3265 49.875 28C49.8686 22.2003 47.5619 16.6401 43.4609 12.5391C39.36 8.4381 33.7997 6.13137 28 6.125ZM47.2806 22.2337C43.6728 20.9601 39.9102 20.1772 36.0938 19.9062C35.8192 16.0924 35.0334 12.3327 33.7575 8.72813C36.9514 9.68783 39.858 11.4235 42.2177 13.7801C44.5774 16.1368 46.3168 19.0411 47.2806 22.2337ZM31.7188 8.22063C32.959 11.4345 33.7895 14.7917 34.1906 18.2131C29.9423 14.4423 24.9883 11.5515 19.6153 9.70813C22.2444 8.49693 25.1053 7.87146 28 7.875C29.2476 7.87521 30.4925 7.99091 31.7188 8.22063ZM17.4694 10.8566C23.3523 12.6132 28.7674 15.6643 33.3178 19.7859C24.1935 19.7062 15.2813 22.5368 7.87501 27.8666C7.89882 24.45 8.79209 21.0957 10.4706 18.1198C12.1492 15.1439 14.5577 12.6443 17.4694 10.8566ZM7.97126 29.9688C15.5525 24.181 24.9083 21.2057 34.44 21.5512C34.7855 31.0829 31.8102 40.4388 26.0225 48.02C21.3929 47.556 17.0662 45.5052 13.7761 42.2151C10.4861 38.9251 8.43521 34.5984 7.97126 29.9688ZM28.1334 48.125C33.4628 40.7193 36.2933 31.8079 36.2141 22.6844C40.3358 27.2348 43.3868 32.6499 45.1434 38.5328C43.3555 41.444 40.8558 43.8522 37.8799 45.5303C34.904 47.2085 31.5498 48.1014 28.1334 48.125ZM46.2897 36.3869C44.4472 31.0133 41.5572 26.0585 37.7869 21.8094C41.2083 22.2105 44.5655 23.041 47.7794 24.2812C48.0091 25.5075 48.1248 26.7524 48.125 28C48.1285 30.8947 47.5031 33.7556 46.2919 36.3847L46.2897 36.3869Z" fill="black"/>
<path d="M31.7188 8.22063C32.959 11.4345 33.7895 14.7917 34.1906 18.2131C29.9423 14.4423 24.9883 11.5515 19.6153 9.70813C22.2444 8.49693 25.1053 7.87146 28 7.875C29.2476 7.87521 30.4925 7.99091 31.7188 8.22063Z" fill="#005386"/>
<path d="M46.2897 36.3869C44.4472 31.0133 41.5572 26.0585 37.7869 21.8094C41.2083 22.2105 44.5655 23.041 47.7794 24.2812C48.0091 25.5075 48.1248 26.7524 48.125 28C48.1285 30.8947 47.5031 33.7556 46.2919 36.3847L46.2897 36.3869Z" fill="#005386"/>
<path d="M7.97126 29.9688C15.5525 24.181 24.9083 21.2057 34.44 21.5512C34.7855 31.0829 31.8102 40.4388 26.0225 48.02C21.3929 47.556 17.0662 45.5052 13.7761 42.2151C10.4861 38.9251 8.43521 34.5984 7.97126 29.9688Z" fill="#005386"/>
</svg>
