<svg width="32" height="32" viewBox="0 0 32 32" fill="none" xmlns="http://www.w3.org/2000/svg">
<path d="M19.0007 5.33333C19.0007 5.24493 18.9655 5.16017 18.903 5.09766C18.8561 5.05072 18.7966 5.01929 18.7324 5.00651L18.6673 5H13.334C13.2456 5 13.1608 5.03514 13.0983 5.09766C13.0358 5.16017 13.0007 5.24493 13.0007 5.33333V8.33333H19.0007V5.33333ZM8.99675 25.25L9.00065 25.3333C9.00065 25.7754 9.17637 26.1992 9.48893 26.5117C9.80149 26.8243 10.2253 27 10.6673 27H21.334C21.776 27 22.1998 26.8243 22.5124 26.5117C22.8249 26.1992 23.0007 25.7754 23.0007 25.3333C23.0007 25.3056 23.0023 25.2776 23.0046 25.25L24.248 10.3333H7.75326L8.99675 25.25ZM12.334 22.6667V14.6667C12.334 14.1144 12.7817 13.6667 13.334 13.6667C13.8863 13.6667 14.334 14.1144 14.334 14.6667V22.6667C14.334 23.219 13.8863 23.6667 13.334 23.6667C12.7817 23.6667 12.334 23.219 12.334 22.6667ZM17.6673 22.6667V14.6667C17.6673 14.1144 18.115 13.6667 18.6673 13.6667C19.2196 13.6667 19.6673 14.1144 19.6673 14.6667V22.6667C19.6673 23.219 19.2196 23.6667 18.6673 23.6667C18.115 23.6667 17.6673 23.219 17.6673 22.6667ZM21.0007 8.33333H26.6673C27.2196 8.33333 27.6673 8.78105 27.6673 9.33333C27.6673 9.88562 27.2196 10.3333 26.6673 10.3333H26.2533L24.9967 25.4167C24.9753 26.3589 24.5944 27.2578 23.9264 27.9258C23.2388 28.6134 22.3064 29 21.334 29H10.6673C9.69486 29 8.7625 28.6134 8.07487 27.9258C7.40692 27.2578 7.02597 26.3589 7.00456 25.4167L5.74805 10.3333H5.33398C4.7817 10.3333 4.33398 9.88562 4.33398 9.33333C4.33398 8.78105 4.7817 8.33333 5.33398 8.33333H11.0007V5.33333C11.0007 4.71449 11.2467 4.12118 11.6842 3.68359C12.1218 3.24601 12.7151 3 13.334 3H18.6673L18.8978 3.01172C19.432 3.06473 19.9341 3.30068 20.3171 3.68359C20.7546 4.12118 21.0007 4.71449 21.0007 5.33333V8.33333Z" fill="#121212"/>
</svg>
