<svg width="32" height="32" viewBox="0 0 32 32" fill="none" xmlns="http://www.w3.org/2000/svg">
<path fill-rule="evenodd" clip-rule="evenodd" d="M20.4645 4.46447C21.4021 3.52678 22.6739 3 24 3C25.3261 3 26.5979 3.52678 27.5355 4.46447C28.4732 5.40215 29 6.67392 29 8C29 9.32608 28.4732 10.5979 27.5355 11.5355C26.5979 12.4732 25.3261 13 24 13C22.6739 13 21.4021 12.4732 20.4645 11.5355C20.31 11.3811 20.1667 11.2176 20.0351 11.0462L12.8417 14.7519C12.946 15.1562 13 15.5753 13 16C13 16.4247 12.946 16.8438 12.8417 17.2481L20.0351 20.9538C20.1667 20.7824 20.31 20.6189 20.4645 20.4645C21.4021 19.5268 22.6739 19 24 19C25.3261 19 26.5979 19.5268 27.5355 20.4645C28.4732 21.4021 29 22.6739 29 24C29 25.3261 28.4732 26.5979 27.5355 27.5355C26.5979 28.4732 25.3261 29 24 29C22.6739 29 21.4021 28.4732 20.4645 27.5355C19.5268 26.5979 19 25.3261 19 24C19 23.5753 19.054 23.1562 19.1583 22.7519L11.9649 19.0462C11.8333 19.2176 11.69 19.3811 11.5355 19.5355C10.5979 20.4732 9.32608 21 8 21C6.67392 21 5.40215 20.4732 4.46447 19.5355C3.52678 18.5979 3 17.3261 3 16C3 14.6739 3.52678 13.4021 4.46447 12.4645C5.40215 11.5268 6.67392 11 8 11C9.32608 11 10.5979 11.5268 11.5355 12.4645C11.69 12.6189 11.8333 12.7824 11.9649 12.9538L19.1583 9.24812C19.054 8.84378 19 8.42467 19 8C19 6.67392 19.5268 5.40215 20.4645 4.46447ZM21.3338 9.37524C21.3208 9.34154 21.3059 9.30821 21.289 9.27538C21.2805 9.25898 21.2717 9.24292 21.2625 9.22719C21.0911 8.84483 21 8.42711 21 8C21 7.20435 21.3161 6.44129 21.8787 5.87868C22.4413 5.31607 23.2044 5 24 5C24.7957 5 25.5587 5.31607 26.1213 5.87868C26.6839 6.44129 27 7.20435 27 8C27 8.79565 26.6839 9.55871 26.1213 10.1213C25.5587 10.6839 24.7957 11 24 11C23.2043 11 22.4413 10.6839 21.8787 10.1213C21.6576 9.9002 21.4745 9.6481 21.3338 9.37524ZM10.6662 14.6248C10.5255 14.3519 10.3424 14.0998 10.1213 13.8787C9.55871 13.3161 8.79565 13 8 13C7.20435 13 6.44129 13.3161 5.87868 13.8787C5.31607 14.4413 5 15.2044 5 16C5 16.7956 5.31607 17.5587 5.87868 18.1213C6.44129 18.6839 7.20435 19 8 19C8.79565 19 9.55871 18.6839 10.1213 18.1213C10.3424 17.9002 10.5255 17.6481 10.6662 17.3752C10.6792 17.3415 10.6941 17.3082 10.711 17.2754C10.7195 17.259 10.7283 17.2429 10.7375 17.2272C10.9089 16.8448 11 16.4271 11 16C11 15.5729 10.9089 15.1552 10.7375 14.7728C10.7283 14.7571 10.7195 14.741 10.711 14.7246C10.6941 14.6918 10.6792 14.6585 10.6662 14.6248ZM21.2625 22.7728C21.0911 23.1552 21 23.5729 21 24C21 24.7957 21.3161 25.5587 21.8787 26.1213C22.4413 26.6839 23.2043 27 24 27C24.7957 27 25.5587 26.6839 26.1213 26.1213C26.6839 25.5587 27 24.7957 27 24C27 23.2043 26.6839 22.4413 26.1213 21.8787C25.5587 21.3161 24.7957 21 24 21C23.2043 21 22.4413 21.3161 21.8787 21.8787C21.6576 22.0998 21.4745 22.3519 21.3338 22.6248C21.3208 22.6585 21.3059 22.6918 21.289 22.7246C21.2805 22.741 21.2717 22.7571 21.2625 22.7728Z" fill="#121212"/>
</svg>
