<svg width="16" height="16" viewBox="0 0 16 16" fill="none" xmlns="http://www.w3.org/2000/svg">
<path fill-rule="evenodd" clip-rule="evenodd" d="M11.0739 2.02366C11.0035 2.00559 10.9184 2.00009 10.4863 2.00009H3.83014C3.39773 2.00009 3.11844 2.00067 2.90584 2.01803C2.70196 2.03469 2.62637 2.06296 2.58933 2.08183C2.44821 2.15374 2.33364 2.26831 2.26174 2.40943C2.24287 2.44647 2.21459 2.52205 2.19794 2.72594C2.18058 2.93853 2.17999 3.21783 2.17999 3.65023V12.3502C2.17999 12.7827 2.18058 13.0617 2.19794 13.274C2.21457 13.4775 2.2428 13.553 2.26174 13.5901C2.33406 13.7321 2.44902 13.847 2.58933 13.9185C2.62625 13.9373 2.70165 13.9655 2.90514 13.9822C3.0921 13.9974 3.33071 13.9997 3.67999 14L3.67999 11.8713C3.67998 11.476 3.67997 11.1348 3.70292 10.8538C3.72714 10.5573 3.78061 10.2623 3.92523 9.97844C4.14094 9.55508 4.48498 9.21104 4.90835 8.99532C5.19218 8.85071 5.48721 8.79723 5.78373 8.77301C6.06473 8.75006 6.40587 8.75007 6.80125 8.75009H9.55909C9.95442 8.75007 10.2954 8.75006 10.5762 8.77302C10.8726 8.79726 11.1673 8.85077 11.451 8.99532C11.8736 9.21062 12.2188 9.55427 12.4349 9.97844C12.5794 10.2621 12.6329 10.5569 12.6571 10.8531C12.68 11.1337 12.68 11.4743 12.68 11.8689V14C13.0292 13.9997 13.2677 13.9974 13.4545 13.9822C13.6577 13.9655 13.7331 13.9374 13.7701 13.9185C13.9117 13.8463 14.0268 13.7312 14.0984 13.5906C14.1172 13.5537 14.1454 13.4783 14.1621 13.2749C14.1794 13.0627 14.18 12.784 14.18 12.3524V5.91474C14.18 5.54535 14.1758 5.47309 14.1622 5.41193C14.146 5.3398 14.1197 5.27116 14.0839 5.20763C14.054 5.15448 14.0096 5.09893 13.7672 4.82966L11.7008 2.53362C11.4198 2.22137 11.3607 2.16393 11.3025 2.1252C11.2331 2.07909 11.1559 2.04473 11.0739 2.02366ZM12.5323 15.5001H3.79879C3.40422 15.5001 3.06361 15.5001 2.78297 15.4772C2.48679 15.453 2.19199 15.3995 1.90835 15.255C1.48417 15.0389 1.14053 14.6937 0.925229 14.2711C0.780676 13.9874 0.727161 13.6927 0.702924 13.3962C0.679968 13.1154 0.67998 12.7745 0.679993 12.3792V3.62134C0.67998 3.22597 0.679968 2.88482 0.70292 2.60383C0.727139 2.3073 0.780611 2.01227 0.925229 1.72844C1.14094 1.30508 1.48498 0.961038 1.90835 0.745323C2.19218 0.600705 2.48721 0.547233 2.78373 0.523013C3.06473 0.500062 3.40587 0.500074 3.80125 0.500087L10.4863 0.500088C10.5089 0.500088 10.5313 0.500065 10.5535 0.500043C10.8806 0.499718 11.1691 0.499431 11.447 0.570813C11.6904 0.633325 11.9223 0.736092 12.1327 0.87595C12.3694 1.03325 12.5598 1.2453 12.7721 1.48158C12.7865 1.49767 12.8011 1.51387 12.8157 1.53017M12.8157 1.53017L14.8821 3.82618C14.8947 3.84019 14.9073 3.8541 14.9197 3.8679C15.1036 4.07179 15.2692 4.25543 15.3908 4.47147C15.4992 4.6638 15.5781 4.87037 15.6261 5.08482C15.6805 5.32845 15.6803 5.57728 15.68 5.85754C15.68 5.87646 15.68 5.89553 15.68 5.91475V12.3813C15.68 12.7759 15.68 13.1164 15.6571 13.397C15.6329 13.6932 15.5794 13.988 15.4349 14.2716C15.219 14.6954 14.8739 15.0395 14.451 15.255C14.1675 15.3995 13.8729 15.453 13.5768 15.4772C13.2962 15.5001 12.9557 15.5001 12.5612 15.5001H12.5323M11.18 14.0002V11.8978C11.18 11.4662 11.1794 11.1874 11.1621 10.9752C11.1454 10.7717 11.1172 10.6963 11.0984 10.6594C11.0269 10.5191 10.912 10.4042 10.77 10.3318C10.7329 10.3129 10.6574 10.2847 10.4539 10.268C10.2416 10.2507 9.96257 10.2501 9.53014 10.2501H6.83014C6.39773 10.2501 6.11844 10.2507 5.90584 10.268C5.70196 10.2847 5.62637 10.313 5.58933 10.3318C5.44821 10.4037 5.33364 10.5183 5.26174 10.6594C5.24287 10.6965 5.21459 10.772 5.19794 10.9759C5.18058 11.1885 5.17999 11.4678 5.17999 11.9002V14.0001L11.18 14.0002ZM5.17999 4.25009C5.17999 3.83587 5.51578 3.50009 5.92999 3.50009H10.43C10.8442 3.50009 11.18 3.83587 11.18 4.25009C11.18 4.6643 10.8442 5.00009 10.43 5.00009H5.92999C5.51578 5.00009 5.17999 4.6643 5.17999 4.25009Z" fill="#3079C3"/>
</svg>
