<svg width="18" height="18" viewBox="0 0 18 18" fill="none" xmlns="http://www.w3.org/2000/svg">
<path fill-rule="evenodd" clip-rule="evenodd" d="M12.0741 3.02366C12.0037 3.00559 11.9186 3.00009 11.4865 3.00009H4.83032C4.39792 3.00009 4.11862 3.00067 3.90602 3.01803C3.70214 3.03469 3.62656 3.06296 3.58952 3.08183C3.4484 3.15374 3.33383 3.26831 3.26192 3.40943C3.24305 3.44647 3.21478 3.52205 3.19812 3.72594C3.18076 3.93853 3.18018 4.21783 3.18018 4.65023V13.3502C3.18018 13.7827 3.18076 14.0617 3.19812 14.274C3.21475 14.4775 3.24299 14.553 3.26192 14.5901C3.33424 14.7321 3.44921 14.847 3.58952 14.9185C3.62643 14.9373 3.70183 14.9655 3.90532 14.9822C4.09228 14.9974 4.33089 14.9997 4.68018 15L4.68018 12.8713C4.68016 12.476 4.68015 12.1348 4.7031 11.8538C4.72732 11.5573 4.78079 11.2623 4.92541 10.9784C5.14113 10.5551 5.48517 10.211 5.90853 9.99532C6.19236 9.85071 6.48739 9.79723 6.78392 9.77301C7.06491 9.75006 7.40605 9.75007 7.80143 9.75009H10.5593C10.9546 9.75007 11.2955 9.75006 11.5763 9.77302C11.8728 9.79726 12.1675 9.85077 12.4512 9.99532C12.8738 10.2106 13.219 10.5543 13.4351 10.9784C13.5796 11.2621 13.6331 11.5569 13.6573 11.8531C13.6802 12.1337 13.6802 12.4743 13.6802 12.8689V15C14.0294 14.9997 14.2679 14.9974 14.4547 14.9822C14.6579 14.9655 14.7332 14.9374 14.7702 14.9185C14.9118 14.8464 15.0269 14.7312 15.0986 14.5906C15.1174 14.5537 15.1456 14.4783 15.1623 14.2749C15.1796 14.0627 15.1802 13.784 15.1802 13.3524V6.91474C15.1802 6.54535 15.176 6.47309 15.1623 6.41194C15.1462 6.3398 15.1199 6.27116 15.0841 6.20763C15.0542 6.15448 15.0098 6.09893 14.7674 5.82966L12.701 3.53362C12.42 3.22137 12.3609 3.16393 12.3026 3.1252C12.2332 3.07909 12.1561 3.04473 12.0741 3.02366ZM13.5325 16.5001H4.79897C4.4044 16.5001 4.06379 16.5001 3.78315 16.4772C3.48697 16.453 3.19217 16.3995 2.90853 16.255C2.48436 16.0389 2.14071 15.6937 1.92541 15.2711C1.78086 14.9874 1.72734 14.6927 1.70311 14.3962C1.68015 14.1154 1.68016 13.7745 1.68018 13.3792V4.62134C1.68016 4.22596 1.68015 3.88482 1.7031 3.60383C1.72732 3.3073 1.78079 3.01227 1.92541 2.72844C2.14113 2.30508 2.48517 1.96104 2.90853 1.74532C3.19236 1.6007 3.48739 1.54723 3.78392 1.52301C4.06491 1.50006 4.40605 1.50007 4.80143 1.50009L11.4865 1.50009C11.509 1.50009 11.5314 1.50007 11.5537 1.50004C11.8807 1.49972 12.1693 1.49943 12.4472 1.57081C12.6906 1.63332 12.9225 1.73609 13.1329 1.87595C13.3696 2.03325 13.56 2.2453 13.7722 2.48158C13.7867 2.49767 13.8012 2.51387 13.8159 2.53017M13.8159 2.53017L15.8823 4.82618V4.82618C15.8949 4.84019 15.9075 4.8541 15.9199 4.8679C16.1038 5.07179 16.2693 5.25543 16.391 5.47147C16.4994 5.6638 16.5783 5.87037 16.6262 6.08482C16.6807 6.32845 16.6805 6.57728 16.6802 6.85754C16.6802 6.87646 16.6802 6.89553 16.6802 6.91475V13.3813C16.6802 13.7759 16.6802 14.1164 16.6573 14.397C16.6331 14.6932 16.5796 14.988 16.4351 15.2716C16.2191 15.6954 15.8741 16.0395 15.4512 16.255C15.1677 16.3995 14.8731 16.453 14.5769 16.4772C14.2964 16.5001 13.9559 16.5001 13.5614 16.5001H13.5325M12.1802 15.0002V12.8978C12.1802 12.4662 12.1796 12.1874 12.1623 11.9752C12.1456 11.7717 12.1174 11.6963 12.0986 11.6594C12.0271 11.5191 11.9122 11.4042 11.7702 11.3318C11.7331 11.3129 11.6576 11.2847 11.4541 11.268C11.2418 11.2507 10.9628 11.2501 10.5303 11.2501H7.83032C7.39792 11.2501 7.11862 11.2507 6.90603 11.268C6.70214 11.2847 6.62656 11.313 6.58952 11.3318C6.4484 11.4037 6.33383 11.5183 6.26192 11.6594C6.24305 11.6965 6.21478 11.772 6.19812 11.9759C6.18076 12.1885 6.18018 12.4678 6.18018 12.9002V15.0001L12.1802 15.0002ZM6.18018 5.25009C6.18018 4.83587 6.51596 4.50009 6.93018 4.50009H11.4302C11.8444 4.50009 12.1802 4.83587 12.1802 5.25009C12.1802 5.6643 11.8444 6.00009 11.4302 6.00009H6.93018C6.51596 6.00009 6.18018 5.6643 6.18018 5.25009Z" fill="#3079C3"/>
</svg>
