<svg width="14" height="16" viewBox="0 0 14 16" fill="none" xmlns="http://www.w3.org/2000/svg">
<path fill-rule="evenodd" clip-rule="evenodd" d="M4.87126 0.500001L8.2585 0.500001C8.34851 0.500001 8.43178 0.500001 8.50683 0.500684C8.72561 0.502676 8.9353 0.509612 9.15422 0.562169C9.38437 0.617425 9.60367 0.708658 9.80447 0.831713C10.0336 0.972112 10.2239 1.16276 10.4393 1.3786C10.4539 1.39322 10.4686 1.40795 10.4835 1.4228L12.8276 3.76691C12.8416 3.78094 12.8555 3.79485 12.8693 3.80864C13.0869 4.0258 13.277 4.21568 13.4179 4.44552C13.5409 4.64625 13.6323 4.86566 13.6875 5.09591C13.737 5.30193 13.7462 5.49978 13.7488 5.70554C13.7497 5.72025 13.7501 5.73508 13.7501 5.75C13.7501 5.76003 13.75 5.77001 13.7496 5.77995C13.75 5.84595 13.75 5.91765 13.75 5.99426V12.3816C13.75 12.7761 13.75 13.1166 13.7271 13.3971C13.7029 13.6933 13.6494 13.9878 13.5049 14.2714C13.2891 14.695 12.9443 15.0393 12.5212 15.2549C12.2376 15.3994 11.943 15.4529 11.6468 15.4771C11.3663 15.5 11.0257 15.5 10.6312 15.5L7.75 15.5C7.33579 15.5 7 15.1642 7 14.75C7 14.3358 7.33579 14 7.75 14L10.6023 14C11.0339 14 11.3125 13.9994 11.5246 13.9821C11.7279 13.9655 11.8032 13.9373 11.8402 13.9184C11.9815 13.8464 12.0966 13.7313 12.1684 13.5904C12.1873 13.5534 12.2155 13.4781 12.2321 13.2749C12.2494 13.0628 12.25 12.7843 12.25 12.3527V6.5L10.8688 6.5C10.4742 6.50002 10.1336 6.50003 9.85297 6.47709C9.55679 6.45289 9.262 6.39945 8.97835 6.25493C8.55434 6.03888 8.21062 5.6939 7.99524 5.27119C7.85066 4.98744 7.79716 4.69264 7.77293 4.39614C7.74997 4.11528 7.74999 3.77427 7.75 3.37892V2H4.90015C4.46774 2 4.18844 2.00058 3.97585 2.01795C3.77196 2.0346 3.69638 2.06287 3.65934 2.08175C3.51822 2.15365 3.40365 2.26822 3.33174 2.40934C3.31287 2.44638 3.2846 2.52196 3.26795 2.72585C3.25058 2.93844 3.25 3.21774 3.25 3.65015V7.25015C3.25 7.66436 2.91421 8.00015 2.5 8.00015C2.08579 8.00015 1.75 7.66436 1.75 7.25015L1.75 3.62126C1.74999 3.22588 1.74997 2.88474 1.77293 2.60374C1.79714 2.30721 1.85062 2.01219 1.99523 1.72836C2.21095 1.30499 2.55499 0.960952 2.97835 0.745237C3.26218 0.600619 3.55721 0.547147 3.85374 0.522927C4.13474 0.499976 4.47588 0.499987 4.87126 0.500001ZM9.25 2.31204V3.35C9.25 3.78242 9.25058 4.06154 9.26794 4.27396C9.28458 4.47758 9.31283 4.55308 9.33175 4.5902C9.40398 4.73198 9.51887 4.84685 9.65934 4.91842C9.69625 4.93722 9.77166 4.96545 9.97515 4.98208C10.1874 4.99942 10.4661 5 10.8977 5H11.9379C11.8928 4.95394 11.8369 4.89758 11.7669 4.82757L9.4228 2.48346C9.35263 2.41329 9.29615 2.35723 9.25 2.31204ZM6.09467 6.71967C6.38756 6.42678 6.86244 6.42678 7.15533 6.71967L9.03033 8.59467C9.32322 8.88756 9.32322 9.36244 9.03033 9.65533L3.40533 15.2803C3.26468 15.421 3.07391 15.5 2.875 15.5H1C0.585786 15.5 0.25 15.1642 0.25 14.75V12.875C0.25 12.6761 0.329018 12.4853 0.46967 12.3447L6.09467 6.71967ZM1.75 13.1857V14H2.56434L5.37684 11.1875L4.5625 10.3732L1.75 13.1857ZM5.62316 9.3125L6.4375 10.1268L7.43934 9.125L6.625 8.31066L5.62316 9.3125Z" fill="#3079C3"/>
</svg>
