<svg width="18" height="18" viewBox="0 0 18 18" fill="none" xmlns="http://www.w3.org/2000/svg">
<path d="M3.3693 17.8614C2.7727 17.8614 2.262 17.649 1.8372 17.2242C1.4124 16.7994 1.2 16.2887 1.2 15.6921V2.8614H0.9C0.645 2.8614 0.4313 2.7751 0.2589 2.6025C0.0863001 2.4299 0 2.2161 0 1.9611C0 1.7059 0.0863001 1.4922 0.2589 1.32C0.4313 1.1476 0.645 1.0614 0.9 1.0614H5.4C5.4 0.7676 5.5035 0.517201 5.7105 0.310201C5.9173 0.103401 6.1676 0 6.4614 0H11.5386C11.8324 0 12.0827 0.103401 12.2895 0.310201C12.4965 0.517201 12.6 0.7676 12.6 1.0614H17.1C17.355 1.0614 17.5687 1.1477 17.7411 1.3203C17.9137 1.4929 18 1.7067 18 1.9617C18 2.2169 17.9137 2.4306 17.7411 2.6028C17.5687 2.7752 17.355 2.8614 17.1 2.8614H16.8V15.6921C16.8 16.2887 16.5876 16.7994 16.1628 17.2242C15.738 17.649 15.2273 17.8614 14.6307 17.8614H3.3693ZM15 2.8614H3V15.6921C3 15.7999 3.0346 15.8884 3.1038 15.9576C3.173 16.0268 3.2615 16.0614 3.3693 16.0614H14.6307C14.7385 16.0614 14.827 16.0268 14.8962 15.9576C14.9654 15.8884 15 15.7999 15 15.6921V2.8614ZM6.7851 13.6614C7.0401 13.6614 7.2538 13.5752 7.4262 13.4028C7.5984 13.2302 7.6845 13.0164 7.6845 12.7614V6.1614C7.6845 5.9064 7.5982 5.6926 7.4256 5.52C7.2532 5.3476 7.0394 5.2614 6.7842 5.2614C6.5292 5.2614 6.3155 5.3476 6.1431 5.52C5.9709 5.6926 5.8848 5.9064 5.8848 6.1614V12.7614C5.8848 13.0164 5.971 13.2302 6.1434 13.4028C6.316 13.5752 6.5299 13.6614 6.7851 13.6614ZM11.2158 13.6614C11.4708 13.6614 11.6845 13.5752 11.8569 13.4028C12.0291 13.2302 12.1152 13.0164 12.1152 12.7614V6.1614C12.1152 5.9064 12.029 5.6926 11.8566 5.52C11.684 5.3476 11.4701 5.2614 11.2149 5.2614C10.9599 5.2614 10.7462 5.3476 10.5738 5.52C10.4016 5.6926 10.3155 5.9064 10.3155 6.1614V12.7614C10.3155 13.0164 10.4018 13.2302 10.5744 13.4028C10.7468 13.5752 10.9606 13.6614 11.2158 13.6614Z" fill="#777777"/>
</svg>
