<svg width="18" height="18" viewBox="0 0 18 18" fill="none" xmlns="http://www.w3.org/2000/svg">
<path d="M6.75 13.5C6.75 12.3065 7.22411 11.1619 8.06802 10.318C8.91193 9.47411 10.0565 9 11.25 9C10.0565 9 8.91193 8.52589 8.06802 7.68198C7.22411 6.83807 6.75 5.69347 6.75 4.5C6.75 5.69347 6.27589 6.83807 5.43198 7.68198C4.58807 8.52589 3.44347 9 2.25 9C3.44347 9 4.58807 9.47411 5.43198 10.318C6.27589 11.1619 6.75 12.3065 6.75 13.5Z" stroke="#3079C3" stroke-width="1.5" stroke-linecap="round" stroke-linejoin="round"/>
<path d="M13.0607 13.9393C12.7794 13.658 12.3978 13.5 12 13.5C12.3978 13.5 12.7794 13.342 13.0607 13.0607C13.342 12.7794 13.5 12.3978 13.5 12C13.5 12.3978 13.658 12.7794 13.9393 13.0607C14.2206 13.342 14.6022 13.5 15 13.5C14.6022 13.5 14.2206 13.658 13.9393 13.9393C13.658 14.2206 13.5 14.6022 13.5 15C13.5 14.6022 13.342 14.2206 13.0607 13.9393Z" fill="#121212"/>
<path d="M13.0607 4.93934C12.7794 4.65804 12.3978 4.5 12 4.5C12.3978 4.5 12.7794 4.34196 13.0607 4.06066C13.342 3.77936 13.5 3.39782 13.5 3C13.5 3.39782 13.658 3.77936 13.9393 4.06066C14.2206 4.34196 14.6022 4.5 15 4.5C14.6022 4.5 14.2206 4.65804 13.9393 4.93934C13.658 5.22064 13.5 5.60218 13.5 6C13.5 5.60218 13.342 5.22064 13.0607 4.93934Z" fill="#121212"/>
<path d="M13.0607 13.9393C12.7794 13.658 12.3978 13.5 12 13.5C12.3978 13.5 12.7794 13.342 13.0607 13.0607C13.342 12.7794 13.5 12.3978 13.5 12C13.5 12.3978 13.658 12.7794 13.9393 13.0607C14.2206 13.342 14.6022 13.5 15 13.5C14.6022 13.5 14.2206 13.658 13.9393 13.9393C13.658 14.2206 13.5 14.6022 13.5 15C13.5 14.6022 13.342 14.2206 13.0607 13.9393Z" stroke="#3079C3" stroke-width="1.5" stroke-linecap="round" stroke-linejoin="round"/>
<path d="M13.0607 4.93934C12.7794 4.65804 12.3978 4.5 12 4.5C12.3978 4.5 12.7794 4.34196 13.0607 4.06066C13.342 3.77936 13.5 3.39782 13.5 3C13.5 3.39782 13.658 3.77936 13.9393 4.06066C14.2206 4.34196 14.6022 4.5 15 4.5C14.6022 4.5 14.2206 4.65804 13.9393 4.93934C13.658 5.22064 13.5 5.60218 13.5 6C13.5 5.60218 13.342 5.22064 13.0607 4.93934Z" stroke="#3079C3" stroke-width="1.5" stroke-linecap="round" stroke-linejoin="round"/>
</svg>
