<svg width="18" height="18" viewBox="0 0 18 18" fill="none" xmlns="http://www.w3.org/2000/svg">
<mask id="mask0_4070_9703" style="mask-type:alpha" maskUnits="userSpaceOnUse" x="0" y="0" width="18" height="18">
<rect width="18" height="18" fill="#316094"/>
</mask>
<g mask="url(#mask0_4070_9703)">
<path d="M2.6 17C2.16 17 1.78333 16.8435 1.47 16.5306C1.15667 16.2176 1 15.8414 1 15.402V4.21598C1 3.77653 1.15667 3.40033 1.47 3.08739C1.78333 2.77445 2.16 2.61798 2.6 2.61798H7.82C8.08667 2.61798 8.28667 2.70121 8.42 2.86767C8.55333 3.03412 8.62 3.21723 8.62 3.41698C8.62 3.61673 8.55 3.79983 8.41 3.96629C8.27 4.13275 8.06667 4.21598 7.8 4.21598H2.6V15.402H13.8V10.1885C13.8 9.92218 13.8833 9.72243 14.05 9.58926C14.2167 9.4561 14.4 9.38951 14.6 9.38951C14.8 9.38951 14.9833 9.4561 15.15 9.58926C15.3167 9.72243 15.4 9.92218 15.4 10.1885V15.402C15.4 15.8414 15.2433 16.2176 14.93 16.5306C14.6167 16.8435 14.24 17 13.8 17H2.6ZM5.8 11.407V9.46941C5.8 9.25635 5.84 9.05327 5.92 8.86017C6 8.66708 6.11333 8.49729 6.26 8.35081L13.14 1.4794C13.3 1.3196 13.48 1.19975 13.68 1.11985C13.88 1.03995 14.08 1 14.28 1C14.4933 1 14.6967 1.03995 14.89 1.11985C15.0833 1.19975 15.26 1.3196 15.42 1.4794L16.54 2.61798C16.6867 2.77778 16.8 2.95422 16.88 3.14732C16.96 3.34041 17 3.53683 17 3.73658C17 3.93633 16.9633 4.13275 16.89 4.32584C16.8167 4.51893 16.7 4.69538 16.54 4.85518L9.66 11.7266C9.51333 11.8731 9.34333 11.9896 9.15 12.0762C8.95667 12.1627 8.75333 12.206 8.54 12.206H6.6C6.37333 12.206 6.18333 12.1294 6.03 11.9763C5.87667 11.8231 5.8 11.6334 5.8 11.407ZM7.4 10.608H8.52L13.16 5.97378L12.6 5.41448L12.02 4.85518L7.4 9.46941V10.608Z" fill="#ACC9E7"/>
</g>
</svg>
