<svg width="78" height="94" viewBox="0 0 78 94" fill="none" xmlns="http://www.w3.org/2000/svg">
<path d="M78 93.5H0V0.5H62.115L78 16.385V93.5ZM3 90.5H75V17.615L60.885 3.5H3V90.5Z" fill="#121212"/>
<path d="M76.5 18.5H60V2H63V15.5H76.5V18.5Z" fill="#121212"/>
<path d="M43.5 87.5C31.095 87.5 21 77.405 21 65C21 52.595 31.095 42.5 43.5 42.5H45V63.5H66V65C66 77.405 55.905 87.5 43.5 87.5ZM42 45.56C31.95 46.325 24 54.755 24 65C24 75.755 32.745 84.5 43.5 84.5C53.745 84.5 62.175 76.55 62.94 66.5H42V45.56Z" fill="#121212"/>
<path d="M42.4385 63.94L27.5894 78.7891L29.7107 80.9104L44.5598 66.0613L42.4385 63.94Z" fill="#121212"/>
<path d="M45 65H42V86H45V65Z" fill="#121212"/>
<path d="M57 33.5H6V6.5H57V33.5Z" fill="#46A6FF"/>
<path d="M18 36.5H6V39.5H18V36.5Z" fill="#121212"/>
<path d="M18 42.5H6V45.5H18V42.5Z" fill="#121212"/>
<path d="M18 48.5H6V51.5H18V48.5Z" fill="#121212"/>
<path d="M18 54.5H6V57.5H18V54.5Z" fill="#121212"/>
<path d="M18 60.5H6V63.5H18V60.5Z" fill="#121212"/>
<path d="M18 66.5H6V69.5H18V66.5Z" fill="#121212"/>
<path d="M18 72.5H6V75.5H18V72.5Z" fill="#121212"/>
<path d="M18 78.5H6V81.5H18V78.5Z" fill="#121212"/>
<path d="M18 84.5H6V87.5H18V84.5Z" fill="#121212"/>
<path d="M63.2871 43.0904L48.438 57.9395L50.5593 60.0608L65.4084 45.2117L63.2871 43.0904Z" fill="#121212"/>
<path d="M58.0861 39.3001L48.4448 48.9414L50.5661 51.0627L60.2074 41.4214L58.0861 39.3001Z" fill="#121212"/>
<path d="M67.0861 48.3001L57.4448 57.9414L59.5661 60.0627L69.2074 50.4214L67.0861 48.3001Z" fill="#121212"/>
<path d="M72 60.5H48V36.5H49.5C61.905 36.5 72 46.595 72 59V60.5ZM51 57.5H68.94C68.205 47.945 60.555 40.295 51 39.56V57.5Z" fill="#121212"/>
</svg>
