<svg width="17" height="17" viewBox="0 0 17 17" fill="none" xmlns="http://www.w3.org/2000/svg">
<path fill-rule="evenodd" clip-rule="evenodd" d="M11 2C10.4477 2 10 1.55228 10 1C10 0.447715 10.4477 0 11 0H16C16.5523 0 17 0.447715 17 1V6C17 6.55228 16.5523 7 16 7C15.4477 7 15 6.55228 15 6V3.41421L9.70711 8.70711C9.31658 9.09763 8.68342 9.09763 8.2929 8.70711C7.90237 8.31658 7.90237 7.68342 8.2929 7.29289L13.5858 2H11ZM4.16168 1H6.0002C6.55248 1 7.0002 1.44772 7.0002 2C7.0002 2.55228 6.55248 3 6.0002 3H4.2002C3.62365 3 3.25126 3.00078 2.9678 3.02393C2.69595 3.04613 2.59517 3.08383 2.54579 3.10899C2.35763 3.20487 2.20487 3.35763 2.109 3.54579C2.08383 3.59517 2.04614 3.69595 2.02393 3.9678C2.00078 4.25126 2 4.62365 2 5.2002V12.8002C2 13.3768 2.00078 13.7489 2.02393 14.0322C2.04612 14.3037 2.08378 14.4044 2.109 14.4539C2.20516 14.6426 2.35819 14.7956 2.54579 14.8912C2.59501 14.9163 2.69554 14.9539 2.96686 14.9761C3.2498 14.9992 3.62146 15 4.19691 15H11.8031C12.3786 15 12.75 14.9992 13.0327 14.9761C13.3036 14.9539 13.4041 14.9164 13.4534 14.8912C13.6418 14.7952 13.7955 14.6416 13.8912 14.4536C13.9163 14.4043 13.9539 14.3038 13.9761 14.0328C13.9992 13.75 14 13.3786 14 12.8031V11C14 10.4477 14.4477 10 15 10C15.5523 10 16 10.4477 16 11V12.8416C16 13.3677 16 13.8217 15.9695 14.1958C15.9372 14.5906 15.8659 14.9835 15.6732 15.3616C15.3855 15.9263 14.9257 16.3857 14.3614 16.6732C13.9833 16.8659 13.5905 16.9372 13.1957 16.9695C12.8217 17 12.3677 17 11.8416 17H4.15839C3.6323 17 3.17815 17 2.80397 16.9695C2.40906 16.9372 2.016 16.8659 1.63781 16.6732C1.07276 16.3853 0.614314 15.9258 0.326982 15.3619C0.134209 14.9835 0.0628795 14.5904 0.0305727 14.1951C-3.25181e-05 13.8206 -1.70213e-05 13.3659 8.60089e-07 12.8388V5.16168C-1.70213e-05 4.6345 -3.23988e-05 4.17965 0.0305692 3.80498C0.0628619 3.40962 0.134158 3.01624 0.326982 2.63781C0.614602 2.07332 1.07332 1.6146 1.63781 1.32698C2.01625 1.13416 2.40962 1.06286 2.80499 1.03057C3.17965 0.999966 3.6345 0.999981 4.16168 1Z" fill="#777777"/>
</svg>
