<svg width="25" height="24" viewBox="0 0 25 24" fill="none" xmlns="http://www.w3.org/2000/svg">
<rect x="0.5" width="24" height="24" rx="12" fill="#E4E4E4"/>
<path fill-rule="evenodd" clip-rule="evenodd" d="M11.3333 7.33268C9.40034 7.33268 7.83333 8.89969 7.83333 10.8327C7.83333 12.7657 9.40034 14.3327 11.3333 14.3327C13.2663 14.3327 14.8333 12.7657 14.8333 10.8327C14.8333 8.89969 13.2663 7.33268 11.3333 7.33268ZM6.66667 10.8327C6.66667 8.25535 8.75601 6.16602 11.3333 6.16602C13.9107 6.16602 16 8.25535 16 10.8327C16 11.9111 15.6342 12.9041 15.0199 13.6943L18.1625 16.8369C18.3903 17.0647 18.3903 17.434 18.1625 17.6618C17.9347 17.8896 17.5653 17.8896 17.3375 17.6618L14.195 14.5193C13.4047 15.1336 12.4117 15.4993 11.3333 15.4993C8.75601 15.4993 6.66667 13.41 6.66667 10.8327Z" fill="#777777"/>
</svg>
