<svg width="26" height="26" viewBox="0 0 26 26" fill="none" xmlns="http://www.w3.org/2000/svg">
<mask id="mask0_47_733" style="mask-type:alpha" maskUnits="userSpaceOnUse" x="0" y="0" width="26" height="26">
<rect width="25.5652" height="25.5652" fill="#D9D9D9"/>
</mask>
<g mask="url(#mask0_47_733)">
<path d="M11.7174 13.8478H6.39127C6.08946 13.8478 5.83647 13.7457 5.6323 13.5416C5.42813 13.3374 5.32605 13.0844 5.32605 12.7826C5.32605 12.4808 5.42813 12.2278 5.6323 12.0236C5.83647 11.8195 6.08946 11.7174 6.39127 11.7174H11.7174V6.3913C11.7174 6.08949 11.8194 5.8365 12.0236 5.63233C12.2278 5.42816 12.4808 5.32608 12.7826 5.32608C13.0844 5.32608 13.3374 5.42816 13.5415 5.63233C13.7457 5.8365 13.8478 6.08949 13.8478 6.3913V11.7174H19.1739C19.4757 11.7174 19.7287 11.8195 19.9328 12.0236C20.137 12.2278 20.2391 12.4808 20.2391 12.7826C20.2391 13.0844 20.137 13.3374 19.9328 13.5416C19.7287 13.7457 19.4757 13.8478 19.1739 13.8478H13.8478V19.1739C13.8478 19.4757 13.7457 19.7287 13.5415 19.9329C13.3374 20.137 13.0844 20.2391 12.7826 20.2391C12.4808 20.2391 12.2278 20.137 12.0236 19.9329C11.8194 19.7287 11.7174 19.4757 11.7174 19.1739V13.8478Z" fill="white"/>
</g>
</svg>
