<svg width="24" height="24" viewBox="0 0 24 24" fill="none" xmlns="http://www.w3.org/2000/svg">
<path d="M8.25 18C8.25 16.6076 7.69648 15.2727 6.71191 14.2881C5.72735 13.3035 4.39239 12.75 3 12.75C2.58579 12.75 2.25 12.4142 2.25 12C2.25 11.5858 2.58579 11.25 3 11.25C4.39239 11.25 5.72735 10.6965 6.71191 9.71191C7.69648 8.72735 8.25 7.39239 8.25 6C8.25 5.58579 8.58579 5.25 9 5.25C9.41421 5.25 9.75 5.58579 9.75 6C9.75 7.39239 10.3035 8.72735 11.2881 9.71191C12.2727 10.6965 13.6076 11.25 15 11.25C15.4142 11.25 15.75 11.5858 15.75 12C15.75 12.4142 15.4142 12.75 15 12.75C13.6076 12.75 12.2727 13.3035 11.2881 14.2881C10.3035 15.2727 9.75 16.6076 9.75 18C9.75 18.4142 9.41421 18.75 9 18.75C8.58579 18.75 8.25 18.4142 8.25 18ZM9 9.08887C8.68303 9.70461 8.27224 10.2746 7.77344 10.7734C7.27464 11.2722 6.70461 11.683 6.08887 12C6.70461 12.317 7.27464 12.7278 7.77344 13.2266C8.27224 13.7254 8.68303 14.2954 9 14.9111C9.31697 14.2954 9.72776 13.7254 10.2266 13.2266C10.7254 12.7278 11.2954 12.317 11.9111 12C11.2954 11.683 10.7254 11.2722 10.2266 10.7734C9.72776 10.2746 9.31697 9.70461 9 9.08887Z" fill="white"/>
<path d="M17.4142 18.5858C17.0391 18.2107 16.5304 18 16 18C16.5304 18 17.0391 17.7893 17.4142 17.4142C17.7893 17.0391 18 16.5304 18 16C18 16.5304 18.2107 17.0391 18.5858 17.4142C18.9609 17.7893 19.4696 18 20 18C19.4696 18 18.9609 18.2107 18.5858 18.5858C18.2107 18.9609 18 19.4696 18 20C18 19.4696 17.7893 18.9609 17.4142 18.5858Z" fill="#121212"/>
<path d="M17.4142 6.58579C17.0391 6.21071 16.5304 6 16 6C16.5304 6 17.0391 5.78929 17.4142 5.41421C17.7893 5.03914 18 4.53043 18 4C18 4.53043 18.2107 5.03914 18.5858 5.41421C18.9609 5.78929 19.4696 6 20 6C19.4696 6 18.9609 6.21071 18.5858 6.58579C18.2107 6.96086 18 7.46957 18 8C18 7.46957 17.7893 6.96086 17.4142 6.58579Z" fill="#121212"/>
<path d="M17.25 20C17.25 19.6685 17.1182 19.3506 16.8838 19.1162C16.6494 18.8818 16.3315 18.75 16 18.75C15.5858 18.75 15.25 18.4142 15.25 18C15.25 17.5858 15.5858 17.25 16 17.25C16.3315 17.25 16.6494 17.1182 16.8838 16.8838C17.1182 16.6494 17.25 16.3315 17.25 16C17.25 15.5858 17.5858 15.25 18 15.25C18.4142 15.25 18.75 15.5858 18.75 16C18.75 16.3315 18.8818 16.6494 19.1162 16.8838C19.3506 17.1182 19.6685 17.25 20 17.25C20.4142 17.25 20.75 17.5858 20.75 18C20.75 18.4142 20.4142 18.75 20 18.75C19.6685 18.75 19.3506 18.8818 19.1162 19.1162C18.8818 19.3506 18.75 19.6685 18.75 20C18.75 20.4142 18.4142 20.75 18 20.75C17.5858 20.75 17.25 20.4142 17.25 20ZM17.9443 17.9443C17.9247 17.9639 17.9029 17.9811 17.8828 18C17.9029 18.0189 17.9247 18.0361 17.9443 18.0557C17.9638 18.0751 17.9812 18.0963 18 18.1162C18.0188 18.0963 18.0362 18.0751 18.0557 18.0557C18.0751 18.0362 18.0963 18.0188 18.1162 18C18.0963 17.9812 18.0751 17.9638 18.0557 17.9443C18.0361 17.9247 18.0189 17.9029 18 17.8828C17.9811 17.9029 17.9639 17.9247 17.9443 17.9443ZM17.25 8C17.25 7.66848 17.1182 7.35063 16.8838 7.11621C16.6494 6.88179 16.3315 6.75 16 6.75C15.5858 6.75 15.25 6.41421 15.25 6C15.25 5.58579 15.5858 5.25 16 5.25C16.3315 5.25 16.6494 5.11821 16.8838 4.88379C17.1182 4.64937 17.25 4.33152 17.25 4C17.25 3.58579 17.5858 3.25 18 3.25C18.4142 3.25 18.75 3.58579 18.75 4C18.75 4.33152 18.8818 4.64937 19.1162 4.88379C19.3506 5.11821 19.6685 5.25 20 5.25C20.4142 5.25 20.75 5.58579 20.75 6C20.75 6.41421 20.4142 6.75 20 6.75C19.6685 6.75 19.3506 6.88179 19.1162 7.11621C18.8818 7.35063 18.75 7.66848 18.75 8C18.75 8.41421 18.4142 8.75 18 8.75C17.5858 8.75 17.25 8.41421 17.25 8ZM17.9443 5.94434C17.9247 5.96392 17.9029 5.98107 17.8828 6C17.9029 6.01893 17.9247 6.03608 17.9443 6.05566C17.9638 6.07508 17.9812 6.09628 18 6.11621C18.0188 6.09628 18.0362 6.07508 18.0557 6.05566C18.0751 6.03625 18.0963 6.01877 18.1162 6C18.0963 5.98123 18.0751 5.96375 18.0557 5.94434C18.0361 5.92475 18.0189 5.90292 18 5.88281C17.9811 5.90292 17.9639 5.92475 17.9443 5.94434Z" fill="white"/>
<path d="M17.9443 5.94434C17.9247 5.96392 17.9029 5.98107 17.8828 6C17.9029 6.01893 17.9247 6.03608 17.9443 6.05566C17.9638 6.07508 17.9812 6.09628 18 6.11621C18.0188 6.09628 18.0362 6.07508 18.0557 6.05566C18.0751 6.03625 18.0963 6.01877 18.1162 6C18.0963 5.98123 18.0751 5.96375 18.0557 5.94434C18.0361 5.92475 18.0189 5.90292 18 5.88281C17.9811 5.90292 17.9639 5.92475 17.9443 5.94434Z" fill="white"/>
</svg>
