<svg width="36" height="36" viewBox="0 0 36 36" fill="none" xmlns="http://www.w3.org/2000/svg">
<mask id="mask0_893_6532" style="mask-type:alpha" maskUnits="userSpaceOnUse" x="0" y="0" width="36" height="36">
<rect width="36" height="36" fill="#1F3C8E"/>
</mask>
<g mask="url(#mask0_893_6532)">
<path d="M19.2086 19.125L17.2095 21.1241C17.002 21.3319 16.9006 21.5905 16.9054 21.9C16.9101 22.2095 17.0164 22.4681 17.2241 22.6759C17.4319 22.8836 17.6938 22.9875 18.0098 22.9875C18.3258 22.9875 18.586 22.8836 18.7905 22.6759L22.5173 18.9491C22.7885 18.6779 22.9241 18.3615 22.9241 18C22.9241 17.6385 22.7885 17.3221 22.5173 17.0509L18.7759 13.3095C18.5681 13.102 18.3095 12.9983 18 12.9983C17.6905 12.9983 17.4319 13.102 17.2241 13.3095C17.0164 13.5172 16.9125 13.7791 16.9125 14.0951C16.9125 14.4111 17.0164 14.6714 17.2241 14.8759L19.2086 16.875H13.5C13.1812 16.875 12.9141 16.9829 12.6986 17.1986C12.4829 17.4144 12.375 17.6816 12.375 18.0004C12.375 18.3194 12.4829 18.5865 12.6986 18.8018C12.9141 19.0173 13.1812 19.125 13.5 19.125H19.2086ZM18.0026 32.25C16.0316 32.25 14.179 31.876 12.4447 31.128C10.7105 30.38 9.202 29.3649 7.91925 28.0826C6.6365 26.8004 5.62087 25.2925 4.87237 23.559C4.12412 21.8255 3.75 19.9734 3.75 18.0026C3.75 16.0316 4.124 14.179 4.872 12.4447C5.62 10.7105 6.63513 9.202 7.91738 7.91925C9.19963 6.6365 10.7075 5.62087 12.441 4.87237C14.1745 4.12412 16.0266 3.75 17.9974 3.75C19.9684 3.75 21.821 4.124 23.5553 4.872C25.2895 5.62 26.798 6.63513 28.0808 7.91738C29.3635 9.19963 30.3791 10.7075 31.1276 12.441C31.8759 14.1745 32.25 16.0266 32.25 17.9974C32.25 19.9684 31.876 21.821 31.128 23.5553C30.38 25.2895 29.3649 26.798 28.0826 28.0808C26.8004 29.3635 25.2925 30.3791 23.559 31.1276C21.8255 31.8759 19.9734 32.25 18.0026 32.25ZM18 30C21.35 30 24.1875 28.8375 26.5125 26.5125C28.8375 24.1875 30 21.35 30 18C30 14.65 28.8375 11.8125 26.5125 9.4875C24.1875 7.1625 21.35 6 18 6C14.65 6 11.8125 7.1625 9.4875 9.4875C7.1625 11.8125 6 14.65 6 18C6 21.35 7.1625 24.1875 9.4875 26.5125C11.8125 28.8375 14.65 30 18 30Z" fill="#316094"/>
</g>
</svg>
