<svg width="24" height="24" viewBox="0 0 24 24" fill="none" xmlns="http://www.w3.org/2000/svg">
<mask id="mask0_47_580" style="mask-type:alpha" maskUnits="userSpaceOnUse" x="0" y="0" width="24" height="24">
<rect width="24" height="24" fill="#D9D9D9"/>
</mask>
<g mask="url(#mask0_47_580)">
<path d="M13.15 16.15L9.52505 12.525C9.44172 12.4417 9.38338 12.3583 9.35005 12.275C9.31672 12.1917 9.30005 12.1 9.30005 12C9.30005 11.9 9.31672 11.8083 9.35005 11.725C9.38338 11.6417 9.44172 11.5583 9.52505 11.475L13.15 7.85001C13.2 7.80001 13.2542 7.76251 13.3125 7.73751C13.3709 7.71251 13.4334 7.70001 13.5 7.70001C13.6334 7.70001 13.75 7.74585 13.85 7.83751C13.95 7.92918 14 8.05001 14 8.20001V15.8C14 15.95 13.95 16.0708 13.85 16.1625C13.75 16.2542 13.6334 16.3 13.5 16.3C13.4667 16.3 13.35 16.25 13.15 16.15Z" fill="white"/>
</g>
</svg>
