<svg width="36" height="36" viewBox="0 0 36 36" fill="none" xmlns="http://www.w3.org/2000/svg">
<mask id="mask0_893_6577" style="mask-type:alpha" maskUnits="userSpaceOnUse" x="0" y="0" width="36" height="36">
<rect width="36" height="36" fill="#C6C6C6"/>
</mask>
<g mask="url(#mask0_893_6577)">
<path d="M19.4586 19.375L17.4595 21.3741C17.252 21.5819 17.1506 21.8405 17.1554 22.15C17.1601 22.4595 17.2664 22.7181 17.4741 22.9259C17.6819 23.1336 17.9438 23.2375 18.2598 23.2375C18.5758 23.2375 18.836 23.1336 19.0405 22.9259L22.7673 19.1991C23.0385 18.9279 23.1741 18.6115 23.1741 18.25C23.1741 17.8885 23.0385 17.5721 22.7673 17.3009L19.0259 13.5595C18.8181 13.352 18.5595 13.2483 18.25 13.2483C17.9405 13.2483 17.6819 13.352 17.4741 13.5595C17.2664 13.7672 17.1625 14.0291 17.1625 14.3451C17.1625 14.6611 17.2664 14.9214 17.4741 15.1259L19.4586 17.125H13.75C13.4312 17.125 13.1641 17.2329 12.9486 17.4486C12.7329 17.6644 12.625 17.9316 12.625 18.2504C12.625 18.5694 12.7329 18.8365 12.9486 19.0518C13.1641 19.2673 13.4312 19.375 13.75 19.375H19.4586ZM18.2526 32.5C16.2816 32.5 14.429 32.126 12.6947 31.378C10.9605 30.63 9.452 29.6149 8.16925 28.3326C6.8865 27.0504 5.87087 25.5425 5.12237 23.809C4.37412 22.0755 4 20.2234 4 18.2526C4 16.2816 4.374 14.429 5.122 12.6947C5.87 10.9605 6.88513 9.452 8.16738 8.16925C9.44963 6.8865 10.9575 5.87087 12.691 5.12237C14.4245 4.37412 16.2766 4 18.2474 4C20.2184 4 22.071 4.374 23.8053 5.122C25.5395 5.87 27.048 6.88513 28.3308 8.16738C29.6135 9.44963 30.6291 10.9575 31.3776 12.691C32.1259 14.4245 32.5 16.2766 32.5 18.2474C32.5 20.2184 32.126 22.071 31.378 23.8053C30.63 25.5395 29.6149 27.048 28.3326 28.3308C27.0504 29.6135 25.5425 30.6291 23.809 31.3776C22.0755 32.1259 20.2234 32.5 18.2526 32.5ZM18.25 30.25C21.6 30.25 24.4375 29.0875 26.7625 26.7625C29.0875 24.4375 30.25 21.6 30.25 18.25C30.25 14.9 29.0875 12.0625 26.7625 9.7375C24.4375 7.4125 21.6 6.25 18.25 6.25C14.9 6.25 12.0625 7.4125 9.7375 9.7375C7.4125 12.0625 6.25 14.9 6.25 18.25C6.25 21.6 7.4125 24.4375 9.7375 26.7625C12.0625 29.0875 14.9 30.25 18.25 30.25Z" fill="#C6C6C6"/>
</g>
</svg>
