<svg width="18" height="18" viewBox="0 0 18 18" fill="none" xmlns="http://www.w3.org/2000/svg">
<mask id="mask0_1435_2344" style="mask-type:alpha" maskUnits="userSpaceOnUse" x="0" y="0" width="18" height="18">
<rect width="18" height="18" fill="#D9D9D9"/>
</mask>
<g mask="url(#mask0_1435_2344)">
<path d="M8.60664 10.8563L5.88789 8.1375C5.85039 8.1 5.82227 8.05938 5.80352 8.01563C5.78477 7.97188 5.77539 7.925 5.77539 7.875C5.77539 7.775 5.80977 7.6875 5.87852 7.6125C5.94727 7.5375 6.03789 7.5 6.15039 7.5H11.8504C11.9629 7.5 12.0535 7.5375 12.1223 7.6125C12.191 7.6875 12.2254 7.775 12.2254 7.875C12.2254 7.9 12.1879 7.9875 12.1129 8.1375L9.39414 10.8563C9.33164 10.9188 9.26914 10.9625 9.20664 10.9875C9.14414 11.0125 9.07539 11.025 9.00039 11.025C8.92539 11.025 8.85664 11.0125 8.79414 10.9875C8.73164 10.9625 8.66914 10.9188 8.60664 10.8563Z" fill="#1C1B1F"/>
</g>
</svg>
