<svg width="19" height="18" viewBox="0 0 19 18" fill="none" xmlns="http://www.w3.org/2000/svg">
<mask id="mask0_2978_11855" style="mask-type:alpha" maskUnits="userSpaceOnUse" x="0" y="0" width="19" height="18">
<rect x="0.5" width="18" height="18" fill="#316094"/>
</mask>
<g mask="url(#mask0_2978_11855)">
<path d="M4.25 15.75C3.8375 15.75 3.48438 15.6031 3.19063 15.3094C2.89688 15.0156 2.75 14.6625 2.75 14.25V3.75C2.75 3.3375 2.89688 2.98438 3.19063 2.69063C3.48438 2.39688 3.8375 2.25 4.25 2.25H14.75C15.1625 2.25 15.5156 2.39688 15.8094 2.69063C16.1031 2.98438 16.25 3.3375 16.25 3.75V14.25C16.25 14.6625 16.1031 15.0156 15.8094 15.3094C15.5156 15.6031 15.1625 15.75 14.75 15.75H4.25ZM4.25 14.25H14.75V3.75H4.25V14.25ZM6.5 12.75H10.25C10.4625 12.75 10.6406 12.6781 10.7844 12.5344C10.9281 12.3906 11 12.2125 11 12C11 11.7875 10.9281 11.6094 10.7844 11.4656C10.6406 11.3219 10.4625 11.25 10.25 11.25H6.5C6.2875 11.25 6.10938 11.3219 5.96562 11.4656C5.82187 11.6094 5.75 11.7875 5.75 12C5.75 12.2125 5.82187 12.3906 5.96562 12.5344C6.10938 12.6781 6.2875 12.75 6.5 12.75ZM6.5 9.75H12.5C12.7125 9.75 12.8906 9.67813 13.0344 9.53438C13.1781 9.39063 13.25 9.2125 13.25 9C13.25 8.7875 13.1781 8.60938 13.0344 8.46563C12.8906 8.32188 12.7125 8.25 12.5 8.25H6.5C6.2875 8.25 6.10938 8.32188 5.96562 8.46563C5.82187 8.60938 5.75 8.7875 5.75 9C5.75 9.2125 5.82187 9.39063 5.96562 9.53438C6.10938 9.67813 6.2875 9.75 6.5 9.75ZM6.5 6.75H12.5C12.7125 6.75 12.8906 6.67812 13.0344 6.53438C13.1781 6.39062 13.25 6.2125 13.25 6C13.25 5.7875 13.1781 5.60938 13.0344 5.46562C12.8906 5.32187 12.7125 5.25 12.5 5.25H6.5C6.2875 5.25 6.10938 5.32187 5.96562 5.46562C5.82187 5.60938 5.75 5.7875 5.75 6C5.75 6.2125 5.82187 6.39062 5.96562 6.53438C6.10938 6.67812 6.2875 6.75 6.5 6.75Z" fill="#316094"/>
</g>
</svg>
