<svg width="16" height="16" viewBox="0 0 16 16" fill="none" xmlns="http://www.w3.org/2000/svg">
<mask id="mask0_1402_1554" style="mask-type:alpha" maskUnits="userSpaceOnUse" x="0" y="0" width="16" height="16">
<rect width="16" height="16" fill="#316094"/>
</mask>
<g mask="url(#mask0_1402_1554)">
<path d="M12.4899 10.5941C12.4899 11.8313 12.0404 12.8728 11.1414 13.7184C10.2424 14.5641 9.16801 14.9869 7.91823 14.9869C6.66846 14.9869 5.59718 14.5641 4.7044 13.7184C3.81162 12.8728 3.36523 11.8313 3.36523 10.5941V4.22027C3.36523 3.31783 3.69146 2.55766 4.3439 1.93977C4.99635 1.32188 5.78007 1.01294 6.69507 1.01294C7.60996 1.01294 8.39051 1.32188 9.03674 1.93977C9.68285 2.55766 10.0059 3.31783 10.0059 4.22027V10.2514C10.0059 10.819 9.8014 11.2978 9.3924 11.6879C8.98351 12.0781 8.49212 12.2731 7.91823 12.2731C7.34423 12.2731 6.85596 12.0781 6.4534 11.6879C6.05073 11.2978 5.8494 10.819 5.8494 10.2514V4.92094C5.8494 4.68805 5.93051 4.49049 6.09273 4.32827C6.25507 4.16594 6.45268 4.08477 6.68557 4.08477C6.91846 4.08477 7.11607 4.16594 7.2784 4.32827C7.44062 4.49049 7.52173 4.68805 7.52173 4.92094V10.2514C7.52173 10.3582 7.55957 10.4447 7.63523 10.5108C7.71079 10.577 7.80512 10.6101 7.91823 10.6101C8.03123 10.6101 8.12868 10.5786 8.21057 10.5154C8.29246 10.4524 8.3334 10.3644 8.3334 10.2514V4.22961C8.32862 3.78805 8.16629 3.41872 7.8464 3.12161C7.52662 2.82461 7.14285 2.67611 6.69507 2.67611C6.24718 2.67611 5.85901 2.82305 5.53057 3.11694C5.20201 3.41094 5.03773 3.77872 5.03773 4.22027V10.5941C5.03296 11.3704 5.31618 12.0195 5.8874 12.5413C6.45862 13.0629 7.13868 13.3238 7.92757 13.3238C8.71168 13.3238 9.38696 13.0629 9.9534 12.5413C10.5197 12.0195 10.8077 11.3704 10.8174 10.5941V4.56294C10.8174 4.33016 10.8986 4.13261 11.0609 3.97027C11.2232 3.80794 11.4208 3.72677 11.6537 3.72677C11.8866 3.72677 12.0842 3.80794 12.2464 3.97027C12.4087 4.13261 12.4899 4.33016 12.4899 4.56294V10.5941Z" fill="#316094"/>
</g>
</svg>
