<svg width="18" height="18" viewBox="0 0 18 18" fill="none" xmlns="http://www.w3.org/2000/svg">
<mask id="mask0_2978_11828" style="mask-type:alpha" maskUnits="userSpaceOnUse" x="0" y="0" width="18" height="18">
<rect width="18" height="18" fill="#316094"/>
</mask>
<g mask="url(#mask0_2978_11828)">
<path d="M4.5 16.498C3.875 16.498 3.34375 16.2793 2.90625 15.8418C2.46875 15.4043 2.25 14.873 2.25 14.248V3.74805C2.25 3.12305 2.46875 2.5918 2.90625 2.1543C3.34375 1.7168 3.875 1.49805 4.5 1.49805H11.25C11.6625 1.49805 12.0156 1.64492 12.3094 1.93867C12.6031 2.23242 12.75 2.58555 12.75 2.99805V11.998C12.75 12.4105 12.6031 12.7637 12.3094 13.0574C12.0156 13.3512 11.6625 13.498 11.25 13.498H4.5C4.2875 13.498 4.10938 13.5699 3.96563 13.7137C3.82188 13.8574 3.75 14.0355 3.75 14.248C3.75 14.4605 3.82188 14.6387 3.96563 14.7824C4.10938 14.9262 4.2875 14.998 4.5 14.998H14.25V3.74805C14.25 3.53555 14.3219 3.35742 14.4656 3.21367C14.6094 3.06992 14.7875 2.99805 15 2.99805C15.2125 2.99805 15.3906 3.06992 15.5344 3.21367C15.6781 3.35742 15.75 3.53555 15.75 3.74805V14.998C15.75 15.4105 15.6031 15.7637 15.3094 16.0574C15.0156 16.3512 14.6625 16.498 14.25 16.498H4.5ZM6.75 11.998H11.25V2.99805H6.75V11.998ZM5.25 11.998V2.99805H4.5C4.2875 2.99805 4.10938 3.06992 3.96563 3.21367C3.82188 3.35742 3.75 3.53555 3.75 3.74805V12.1293C3.875 12.0918 3.99687 12.0605 4.11562 12.0355C4.23438 12.0105 4.3625 11.998 4.5 11.998H5.25Z" fill="#316094"/>
</g>
</svg>
