<svg width="21" height="21" viewBox="0 0 21 21" fill="none" xmlns="http://www.w3.org/2000/svg">
<mask id="mask0_1934_1922" style="mask-type:alpha" maskUnits="userSpaceOnUse" x="0" y="0" width="21" height="21">
<rect width="21" height="21" fill="#D9D9D9"/>
</mask>
<g mask="url(#mask0_1934_1922)">
<path d="M10.4996 13.9995C11.5934 13.9995 12.523 13.6167 13.2887 12.8511C14.0543 12.0854 14.4371 11.1558 14.4371 10.062C14.4371 8.96826 14.0543 8.03857 13.2887 7.27295C12.523 6.50732 11.5934 6.12451 10.4996 6.12451C9.40586 6.12451 8.47617 6.50732 7.71055 7.27295C6.94492 8.03857 6.56211 8.96826 6.56211 10.062C6.56211 11.1558 6.94492 12.0854 7.71055 12.8511C8.47617 13.6167 9.40586 13.9995 10.4996 13.9995ZM10.4996 12.4245C9.84336 12.4245 9.28555 12.1948 8.82617 11.7354C8.3668 11.2761 8.13711 10.7183 8.13711 10.062C8.13711 9.40576 8.3668 8.84795 8.82617 8.38857C9.28555 7.9292 9.84336 7.69951 10.4996 7.69951C11.1559 7.69951 11.7137 7.9292 12.173 8.38857C12.6324 8.84795 12.8621 9.40576 12.8621 10.062C12.8621 10.7183 12.6324 11.2761 12.173 11.7354C11.7137 12.1948 11.1559 12.4245 10.4996 12.4245ZM10.4996 16.6245C8.54544 16.6245 6.76263 16.0995 5.15117 15.0495C3.53971 13.9995 2.26732 12.6141 1.33398 10.8933C1.26107 10.762 1.20638 10.6271 1.16992 10.4886C1.13346 10.35 1.11523 10.2078 1.11523 10.062C1.11523 9.91618 1.13346 9.77399 1.16992 9.63545C1.20638 9.49691 1.26107 9.36201 1.33398 9.23076C2.26732 7.50993 3.53971 6.12451 5.15117 5.07451C6.76263 4.02451 8.54544 3.49951 10.4996 3.49951C12.4538 3.49951 14.2366 4.02451 15.848 5.07451C17.4595 6.12451 18.7319 7.50993 19.6652 9.23076C19.7382 9.36201 19.7928 9.49691 19.8293 9.63545C19.8658 9.77399 19.884 9.91618 19.884 10.062C19.884 10.2078 19.8658 10.35 19.8293 10.4886C19.7928 10.6271 19.7382 10.762 19.6652 10.8933C18.7319 12.6141 17.4595 13.9995 15.848 15.0495C14.2366 16.0995 12.4538 16.6245 10.4996 16.6245ZM10.4996 14.8745C12.1475 14.8745 13.6605 14.4407 15.0387 13.5729C16.4168 12.7052 17.4704 11.5349 18.1996 10.062C17.4704 8.5891 16.4168 7.41878 15.0387 6.55107C13.6605 5.68337 12.1475 5.24951 10.4996 5.24951C8.85169 5.24951 7.33867 5.68337 5.96055 6.55107C4.58242 7.41878 3.52878 8.5891 2.79961 10.062C3.52878 11.5349 4.58242 12.7052 5.96055 13.5729C7.33867 14.4407 8.85169 14.8745 10.4996 14.8745Z" fill="#316094"/>
</g>
</svg>
