<svg width="22" height="22" viewBox="0 0 22 22" fill="none" xmlns="http://www.w3.org/2000/svg">
<mask id="mask0_2191_1123" style="mask-type:alpha" maskUnits="userSpaceOnUse" x="0" y="0" width="22" height="22">
<rect width="22" height="22" fill="#749431"/>
</mask>
<g mask="url(#mask0_2191_1123)">
<path d="M8.25097 8.25032V18.3337H14.6676V15.5837C14.6676 15.3239 14.7555 15.1062 14.9312 14.9305C15.1069 14.7548 15.3246 14.667 15.5843 14.667H18.3343V8.25032H8.25097ZM6.41764 18.3337V8.22741C6.41764 7.72324 6.60097 7.29546 6.96764 6.94407C7.3343 6.59268 7.76972 6.41699 8.27389 6.41699H18.3343C18.8385 6.41699 19.2701 6.5965 19.6291 6.95553C19.9881 7.31456 20.1676 7.74616 20.1676 8.25032V14.8274C20.1676 15.0718 20.1218 15.3048 20.0301 15.5264C19.9385 15.7479 19.8086 15.9427 19.6406 16.1107L16.1114 19.6399C15.9433 19.808 15.7485 19.9378 15.527 20.0295C15.3055 20.1212 15.0725 20.167 14.8281 20.167H8.25097C7.7468 20.167 7.31521 19.9875 6.95618 19.6284C6.59715 19.2694 6.41764 18.8378 6.41764 18.3337ZM1.85722 5.72949C1.76555 5.22532 1.86486 4.77081 2.15514 4.36595C2.44541 3.96109 2.84264 3.71282 3.3468 3.62116L13.2926 1.85657C13.7815 1.76491 14.2246 1.86803 14.6218 2.16595C15.019 2.46386 15.2787 2.85727 15.401 3.34616L15.5614 4.05657C15.6378 4.36213 15.5919 4.60657 15.4239 4.78991C15.2558 4.97324 15.0572 5.08018 14.8281 5.11074C14.5989 5.14129 14.3812 5.09928 14.1749 4.9847C13.9687 4.87011 13.8274 4.66004 13.751 4.35449L13.5906 3.66699L3.66764 5.43157L5.04264 13.3149C5.08847 13.5746 5.04264 13.8076 4.90514 14.0139C4.76764 14.2201 4.56902 14.3462 4.3093 14.392C4.04958 14.4378 3.82041 14.3882 3.6218 14.243C3.42319 14.0979 3.30097 13.8955 3.25514 13.6357L1.85722 5.72949Z" fill="#749431"/>
</g>
</svg>
