<svg width="21" height="21" viewBox="0 0 21 21" fill="none" xmlns="http://www.w3.org/2000/svg">
<mask id="mask0_1934_1586" style="mask-type:alpha" maskUnits="userSpaceOnUse" x="0" y="0" width="21" height="21">
<rect width="21" height="21" fill="#777777"/>
</mask>
<g mask="url(#mask0_1934_1586)">
<path d="M9.4718 19.25C9.07805 19.25 8.73898 19.1188 8.45461 18.8563C8.17023 18.5938 7.99888 18.2729 7.94055 17.8938L7.74367 16.45C7.55409 16.3771 7.37544 16.2896 7.20773 16.1875C7.04003 16.0854 6.87596 15.976 6.71555 15.8594L5.3593 16.4281C4.99471 16.5885 4.63013 16.6031 4.26555 16.4719C3.90096 16.3406 3.61659 16.1073 3.41242 15.7719L2.3843 13.9781C2.18013 13.6427 2.1218 13.2854 2.2093 12.9062C2.2968 12.5271 2.49367 12.2135 2.79992 11.9656L3.9593 11.0906C3.94471 10.9885 3.93742 10.8901 3.93742 10.7953V10.2047C3.93742 10.1099 3.94471 10.0115 3.9593 9.90938L2.79992 9.03437C2.49367 8.78646 2.2968 8.47292 2.2093 8.09375C2.1218 7.71458 2.18013 7.35729 2.3843 7.02187L3.41242 5.22813C3.61659 4.89271 3.90096 4.65937 4.26555 4.52813C4.63013 4.39687 4.99471 4.41146 5.3593 4.57188L6.71555 5.14062C6.87596 5.02396 7.04367 4.91458 7.21867 4.8125C7.39367 4.71042 7.56867 4.62292 7.74367 4.55L7.94055 3.10625C7.99888 2.72708 8.17023 2.40625 8.45461 2.14375C8.73898 1.88125 9.07805 1.75 9.4718 1.75H11.528C11.9218 1.75 12.2609 1.88125 12.5452 2.14375C12.8296 2.40625 13.001 2.72708 13.0593 3.10625L13.2562 4.55C13.4458 4.62292 13.6244 4.71042 13.7921 4.8125C13.9598 4.91458 14.1239 5.02396 14.2843 5.14062L15.6405 4.57188C16.0051 4.41146 16.3697 4.39687 16.7343 4.52813C17.0989 4.65937 17.3833 4.89271 17.5874 5.22813L18.6155 7.02187C18.8197 7.35729 18.878 7.71458 18.7905 8.09375C18.703 8.47292 18.5062 8.78646 18.1999 9.03437L17.0405 9.90938C17.0551 10.0115 17.0624 10.1099 17.0624 10.2047V10.7953C17.0624 10.8901 17.0478 10.9885 17.0187 11.0906L18.178 11.9656C18.4843 12.2135 18.6812 12.5271 18.7687 12.9062C18.8562 13.2854 18.7978 13.6427 18.5937 13.9781L17.5437 15.7719C17.3395 16.1073 17.0551 16.3406 16.6905 16.4719C16.326 16.6031 15.9614 16.5885 15.5968 16.4281L14.2843 15.8594C14.1239 15.976 13.9562 16.0854 13.7812 16.1875C13.6062 16.2896 13.4312 16.3771 13.2562 16.45L13.0593 17.8938C13.001 18.2729 12.8296 18.5938 12.5452 18.8563C12.2609 19.1188 11.9218 19.25 11.528 19.25H9.4718ZM9.62492 17.5H11.353L11.6593 15.1813C12.1114 15.0646 12.5307 14.8932 12.9171 14.6672C13.3036 14.4411 13.6572 14.1677 13.978 13.8469L16.1437 14.7438L16.9968 13.2563L15.1155 11.8344C15.1885 11.6302 15.2395 11.4151 15.2687 11.1891C15.2978 10.963 15.3124 10.7333 15.3124 10.5C15.3124 10.2667 15.2978 10.037 15.2687 9.81094C15.2395 9.5849 15.1885 9.36979 15.1155 9.16563L16.9968 7.74375L16.1437 6.25625L13.978 7.175C13.6572 6.83958 13.3036 6.55885 12.9171 6.33281C12.5307 6.10677 12.1114 5.93542 11.6593 5.81875L11.3749 3.5H9.6468L9.34055 5.81875C8.88846 5.93542 8.46919 6.10677 8.08273 6.33281C7.69628 6.55885 7.34263 6.83229 7.0218 7.15313L4.85617 6.25625L4.00305 7.74375L5.8843 9.14375C5.81138 9.3625 5.76034 9.58125 5.73117 9.8C5.70201 10.0188 5.68742 10.2521 5.68742 10.5C5.68742 10.7333 5.70201 10.9594 5.73117 11.1781C5.76034 11.3969 5.81138 11.6156 5.8843 11.8344L4.00305 13.2563L4.85617 14.7438L7.0218 13.825C7.34263 14.1604 7.69628 14.4411 8.08273 14.6672C8.46919 14.8932 8.88846 15.0646 9.34055 15.1813L9.62492 17.5ZM10.5437 13.5625C11.3895 13.5625 12.1114 13.2635 12.7093 12.6656C13.3072 12.0677 13.6062 11.3458 13.6062 10.5C13.6062 9.65417 13.3072 8.93229 12.7093 8.33437C12.1114 7.73646 11.3895 7.4375 10.5437 7.4375C9.68325 7.4375 8.95773 7.73646 8.36711 8.33437C7.77648 8.93229 7.48117 9.65417 7.48117 10.5C7.48117 11.3458 7.77648 12.0677 8.36711 12.6656C8.95773 13.2635 9.68325 13.5625 10.5437 13.5625Z" fill="#777777"/>
</g>
</svg>
