<svg width="24" height="24" viewBox="0 0 24 24" fill="none" xmlns="http://www.w3.org/2000/svg">
<path d="M4.62444 21.3643L4.46244 20.0413C4.4276 20.0239 4.37785 19.9976 4.31319 19.9623C4.24852 19.9269 4.13994 19.8597 3.98744 19.7605L2.73969 20.2843L1.58594 18.2828L2.65269 17.4778V16.9528L1.58594 16.117L2.73969 14.1153L3.98744 14.6393C4.07077 14.5893 4.14994 14.5393 4.22494 14.4893C4.29994 14.4393 4.3791 14.3976 4.46244 14.3643L4.62444 13.0353H6.93194L7.09394 14.3643C7.11544 14.3729 7.11294 14.3687 7.08644 14.3515C7.05994 14.3342 7.04544 14.3249 7.04294 14.3238C7.04044 14.3224 7.0761 14.3444 7.14994 14.3898C7.22394 14.4351 7.3636 14.5183 7.56894 14.6393L8.81694 14.1153L9.97669 16.117L8.90969 16.9278V17.4538L14.4267 14.255L13.2777 16.2778L13.6314 16.5445L9.63369 18.8745L8.81694 20.2843L7.56894 19.7605C7.4856 19.8105 7.40644 19.8605 7.33144 19.9105C7.25644 19.9605 7.17727 20.0022 7.09394 20.0355L6.93194 21.3643H4.62444ZM5.77819 15.667C5.35352 15.667 4.99144 15.8168 4.69194 16.1163C4.39227 16.4159 4.24244 16.7781 4.24244 17.2028C4.24244 17.6274 4.39227 17.9896 4.69194 18.2893C4.99144 18.5889 5.35352 18.7388 5.77819 18.7388C6.20285 18.7388 6.56502 18.5889 6.86469 18.2893C7.16435 17.9896 7.31419 17.6274 7.31419 17.2028C7.31419 16.7781 7.16435 16.4159 6.86469 16.1163C6.56502 15.8168 6.20285 15.667 5.77819 15.667ZM9.80969 9.96377L9.64769 8.63477C9.61835 8.60943 9.58269 8.58943 9.54069 8.57477C9.49869 8.5601 9.46102 8.5361 9.42769 8.50277V14.0088L9.05869 13.3768L7.83194 13.8935V8.70377L6.79019 6.88202L7.83194 6.07127V5.54627L6.76519 4.71627L7.92494 2.71477L9.17269 3.23852C9.26802 3.17668 9.35219 3.12277 9.42519 3.07677C9.49819 3.03077 9.57235 2.99302 9.64769 2.96352L9.80969 1.63477H12.1174L12.2794 2.95777C12.3141 2.9751 12.3638 3.00143 12.4284 3.03677C12.4931 3.0721 12.6018 3.13935 12.7544 3.23852L14.0022 2.71477L15.1559 4.71627L14.0892 5.52727V6.04627L15.1559 6.88202L14.0022 8.87777L12.7544 8.35977C12.6711 8.40977 12.5919 8.45977 12.5169 8.50977C12.4419 8.55977 12.3628 8.60143 12.2794 8.63477L12.1174 9.96377H9.80969ZM10.9637 4.26027C10.539 4.26027 10.1769 4.4101 9.87719 4.70977C9.57752 5.00943 9.42769 5.3716 9.42769 5.79627C9.42769 6.22093 9.57752 6.5831 9.87719 6.88277C10.1769 7.18227 10.539 7.33202 10.9637 7.33202C11.3882 7.33202 11.7503 7.18227 12.0499 6.88277C12.3496 6.5831 12.4994 6.22093 12.4994 5.79627C12.4994 5.3716 12.3496 5.00943 12.0499 4.70977C11.7503 4.4101 11.3882 4.26027 10.9637 4.26027ZM17.0669 21.3643L16.9049 20.0413C16.8701 20.0239 16.8204 19.9976 16.7557 19.9623C16.691 19.9269 16.5824 19.8597 16.4299 19.7605L15.1819 20.2843L14.0222 18.2828L15.0892 17.4778V16.9528L14.0222 16.142L15.1819 14.1153L16.4299 14.6393C16.4839 14.6059 16.5252 14.5821 16.5537 14.5678L16.8869 14.4013L11.4212 10.5533H12.6452L12.7569 9.56952L17.7337 13.0353H19.3744L19.5364 14.3643C19.5578 14.3729 19.5552 14.3687 19.5287 14.3515C19.5024 14.3342 19.4879 14.3249 19.4852 14.3238C19.4827 14.3224 19.5184 14.3444 19.5924 14.3898C19.6663 14.4351 19.8059 14.5183 20.0114 14.6393L21.2592 14.1213L22.4129 16.117L21.3462 16.9278V17.4528L22.4129 18.2828L21.2592 20.2843L20.0114 19.7605C19.9281 19.8105 19.8489 19.8605 19.7739 19.9105C19.6989 19.9605 19.6198 20.0022 19.5364 20.0355L19.3744 21.3643H17.0669ZM18.2207 15.667C17.796 15.667 17.4339 15.8168 17.1342 16.1163C16.8345 16.4159 16.6847 16.7781 16.6847 17.2028C16.6847 17.6274 16.8345 17.9896 17.1342 18.2893C17.4339 18.5889 17.796 18.7388 18.2207 18.7388C18.6454 18.7388 19.0074 18.5889 19.3069 18.2893C19.6066 17.9896 19.7564 17.6274 19.7564 17.2028C19.7564 16.7781 19.6066 16.4159 19.3069 16.1163C19.0074 15.8168 18.6454 15.667 18.2207 15.667Z" fill="#121212"/>
</svg>
