<svg width="21" height="21" viewBox="0 0 21 21" fill="none" xmlns="http://www.w3.org/2000/svg">
<mask id="mask0_90_938" style="mask-type:alpha" maskUnits="userSpaceOnUse" x="0" y="0" width="21" height="21">
<rect width="21" height="21" fill="#316094"/>
</mask>
<g mask="url(#mask0_90_938)">
<path d="M3.5 18.375C3.01875 18.375 2.60677 18.2036 2.26406 17.8609C1.92135 17.5182 1.75 17.1062 1.75 16.625V7C1.75 6.51875 1.92135 6.10677 2.26406 5.76406C2.60677 5.42135 3.01875 5.25 3.5 5.25H7V3.5C7 3.01875 7.17135 2.60677 7.51406 2.26406C7.85677 1.92135 8.26875 1.75 8.75 1.75H12.25C12.7312 1.75 13.1432 1.92135 13.4859 2.26406C13.8286 2.60677 14 3.01875 14 3.5V5.25H17.5C17.9813 5.25 18.3932 5.42135 18.7359 5.76406C19.0786 6.10677 19.25 6.51875 19.25 7V16.625C19.25 17.1062 19.0786 17.5182 18.7359 17.8609C18.3932 18.2036 17.9813 18.375 17.5 18.375H3.5ZM8.75 5.25H12.25V3.5H8.75V5.25ZM17.5 13.125H13.125V14C13.125 14.2479 13.0411 14.4557 12.8734 14.6234C12.7057 14.7911 12.4979 14.875 12.25 14.875H8.75C8.50208 14.875 8.29427 14.7911 8.12656 14.6234C7.95885 14.4557 7.875 14.2479 7.875 14V13.125H3.5V16.625H17.5V13.125ZM9.625 13.125H11.375V11.375H9.625V13.125ZM3.5 11.375H7.875V10.5C7.875 10.2521 7.95885 10.0443 8.12656 9.87656C8.29427 9.70885 8.50208 9.625 8.75 9.625H12.25C12.4979 9.625 12.7057 9.70885 12.8734 9.87656C13.0411 10.0443 13.125 10.2521 13.125 10.5V11.375H17.5V7H3.5V11.375Z" fill="#316094"/>
</g>
</svg>
