<svg width="24" height="24" viewBox="0 0 24 24" fill="none" xmlns="http://www.w3.org/2000/svg">
<mask id="mask0_430_503" style="mask-type:alpha" maskUnits="userSpaceOnUse" x="0" y="0" width="24" height="24">
<rect width="24" height="24" fill="#D9D9D9"/>
</mask>
<g mask="url(#mask0_430_503)">
<path d="M19.0649 20C17.4021 20 15.7316 19.6134 14.0534 18.8401C12.3753 18.0669 10.8321 16.9762 9.42368 15.5679C8.02103 14.1596 6.93309 12.6176 6.15985 10.9422C5.38662 9.26691 5 7.59787 5 5.93507C5 5.67037 5.08824 5.44831 5.26471 5.2689C5.44118 5.08963 5.66176 5 5.92647 5H8.80426C9.02706 5 9.2236 5.07272 9.3939 5.21816C9.56419 5.36346 9.6725 5.54301 9.71882 5.75684L10.2246 8.35294C10.2596 8.59382 10.2523 8.80081 10.2026 8.9739C10.1527 9.14699 10.0633 9.29235 9.93434 9.41L7.89654 11.3937C8.22449 11.9943 8.59919 12.5625 9.02066 13.0982C9.44199 13.6338 9.89816 14.1454 10.3892 14.6329C10.8733 15.1171 11.388 15.5668 11.9333 15.982C12.4786 16.3971 13.0674 16.7835 13.6998 17.141L15.6798 15.1438C15.8179 15.0001 15.9851 14.8993 16.1814 14.8415C16.3776 14.7839 16.5815 14.7698 16.7931 14.7992L19.2432 15.2982C19.466 15.357 19.6478 15.4707 19.7887 15.6392C19.9296 15.8077 20 15.9989 20 16.2127V19.0735C20 19.3382 19.9104 19.5588 19.7311 19.7353C19.5517 19.9118 19.3296 20 19.0649 20Z" fill="#5B6371"/>
</g>
</svg>
