<svg width="16" height="16" viewBox="0 0 16 16" fill="none" xmlns="http://www.w3.org/2000/svg">
<mask id="mask0_1505_624" style="mask-type:alpha" maskUnits="userSpaceOnUse" x="0" y="0" width="16" height="16">
<rect width="16" height="16" fill="#BA1A1A"/>
</mask>
<g mask="url(#mask0_1505_624)">
<path d="M8.00065 8.93325L9.93398 10.8666C10.0562 10.9888 10.2118 11.0499 10.4007 11.0499C10.5895 11.0499 10.7451 10.9888 10.8673 10.8666C10.9895 10.7444 11.0507 10.5888 11.0507 10.3999C11.0507 10.211 10.9895 10.0555 10.8673 9.93325L8.93398 7.99992L10.8673 6.06659C10.9895 5.94436 11.0507 5.78881 11.0507 5.59992C11.0507 5.41103 10.9895 5.25547 10.8673 5.13325C10.7451 5.01103 10.5895 4.94992 10.4007 4.94992C10.2118 4.94992 10.0562 5.01103 9.93398 5.13325L8.00065 7.06659L6.06732 5.13325C5.9451 5.01103 5.78954 4.94992 5.60065 4.94992C5.41176 4.94992 5.25621 5.01103 5.13398 5.13325C5.01176 5.25547 4.95065 5.41103 4.95065 5.59992C4.95065 5.78881 5.01176 5.94436 5.13398 6.06659L7.06732 7.99992L5.13398 9.93325C5.01176 10.0555 4.95065 10.211 4.95065 10.3999C4.95065 10.5888 5.01176 10.7444 5.13398 10.8666C5.25621 10.9888 5.41176 11.0499 5.60065 11.0499C5.78954 11.0499 5.9451 10.9888 6.06732 10.8666L8.00065 8.93325ZM8.00065 14.6666C7.07843 14.6666 6.21176 14.4916 5.40065 14.1416C4.58954 13.7916 3.88398 13.3166 3.28398 12.7166C2.68398 12.1166 2.20898 11.411 1.85898 10.5999C1.50898 9.78881 1.33398 8.92214 1.33398 7.99992C1.33398 7.0777 1.50898 6.21103 1.85898 5.39992C2.20898 4.58881 2.68398 3.88325 3.28398 3.28325C3.88398 2.68325 4.58954 2.20825 5.40065 1.85825C6.21176 1.50825 7.07843 1.33325 8.00065 1.33325C8.92287 1.33325 9.78954 1.50825 10.6007 1.85825C11.4118 2.20825 12.1173 2.68325 12.7173 3.28325C13.3173 3.88325 13.7923 4.58881 14.1423 5.39992C14.4923 6.21103 14.6673 7.0777 14.6673 7.99992C14.6673 8.92214 14.4923 9.78881 14.1423 10.5999C13.7923 11.411 13.3173 12.1166 12.7173 12.7166C12.1173 13.3166 11.4118 13.7916 10.6007 14.1416C9.78954 14.4916 8.92287 14.6666 8.00065 14.6666ZM8.00065 13.3333C9.48954 13.3333 10.7507 12.8166 11.784 11.7833C12.8173 10.7499 13.334 9.48881 13.334 7.99992C13.334 6.51103 12.8173 5.24992 11.784 4.21659C10.7507 3.18325 9.48954 2.66659 8.00065 2.66659C6.51176 2.66659 5.25065 3.18325 4.21732 4.21659C3.18398 5.24992 2.66732 6.51103 2.66732 7.99992C2.66732 9.48881 3.18398 10.7499 4.21732 11.7833C5.25065 12.8166 6.51176 13.3333 8.00065 13.3333Z" fill="#777777"/>
</g>
</svg>
