<svg width="19" height="18" viewBox="0 0 19 18" fill="none" xmlns="http://www.w3.org/2000/svg">
<mask id="mask0_2978_11837" style="mask-type:alpha" maskUnits="userSpaceOnUse" x="0" y="0" width="19" height="18">
<rect x="0.5" width="18" height="18" fill="#316094"/>
</mask>
<g mask="url(#mask0_2978_11837)">
<path d="M14 14.5668V15.4855C14 15.698 13.9281 15.8762 13.7844 16.0199C13.6406 16.1637 13.4625 16.2355 13.25 16.2355C13.0375 16.2355 12.8594 16.1637 12.7156 16.0199C12.5719 15.8762 12.5 15.698 12.5 15.4855V13.123C12.5 12.8105 12.6094 12.5449 12.8281 12.3262C13.0469 12.1074 13.3125 11.998 13.625 11.998H15.9875C16.2 11.998 16.3781 12.0699 16.5219 12.2137C16.6656 12.3574 16.7375 12.5355 16.7375 12.748C16.7375 12.9605 16.6656 13.1387 16.5219 13.2824C16.3781 13.4262 16.2 13.498 15.9875 13.498H15.05L16.7375 15.1855C16.875 15.323 16.9438 15.4949 16.9438 15.7012C16.9438 15.9074 16.875 16.0855 16.7375 16.2355C16.5875 16.3855 16.4094 16.4605 16.2031 16.4605C15.9969 16.4605 15.8188 16.3855 15.6688 16.2355L14 14.5668ZM9.5 16.498C8.4625 16.498 7.4875 16.3012 6.575 15.9074C5.6625 15.5137 4.86875 14.9793 4.19375 14.3043C3.51875 13.6293 2.98438 12.8355 2.59063 11.923C2.19687 11.0105 2 10.0355 2 8.99805C2 7.96055 2.19687 6.98555 2.59063 6.07305C2.98438 5.16055 3.51875 4.3668 4.19375 3.6918C4.86875 3.0168 5.6625 2.48242 6.575 2.08867C7.4875 1.69492 8.4625 1.49805 9.5 1.49805C10.5375 1.49805 11.5125 1.69492 12.425 2.08867C13.3375 2.48242 14.1313 3.0168 14.8063 3.6918C15.4813 4.3668 16.0156 5.16055 16.4094 6.07305C16.8031 6.98555 17 7.96055 17 8.99805C17 9.12305 16.9969 9.26055 16.9906 9.41055C16.9844 9.56055 16.975 9.69805 16.9625 9.82305C16.9375 10.0355 16.85 10.2012 16.7 10.3199C16.55 10.4387 16.3625 10.498 16.1375 10.498C15.9375 10.498 15.7688 10.4105 15.6313 10.2355C15.4938 10.0605 15.4375 9.87305 15.4625 9.67305C15.4875 9.54805 15.5 9.43555 15.5 9.33555V8.99805C15.5 8.74805 15.4844 8.49805 15.4531 8.24805C15.4219 7.99805 15.375 7.74805 15.3125 7.49805H12.7625C12.8 7.74805 12.8281 7.99805 12.8469 8.24805C12.8656 8.49805 12.875 8.74805 12.875 8.99805V9.40117C12.875 9.54492 12.8688 9.6793 12.8563 9.8043C12.8313 10.0168 12.7437 10.1855 12.5938 10.3105C12.4438 10.4355 12.2625 10.498 12.05 10.498C11.85 10.498 11.6781 10.4168 11.5344 10.2543C11.3906 10.0918 11.3313 9.91055 11.3563 9.71055C11.3688 9.58555 11.375 9.4668 11.375 9.3543V8.99805C11.375 8.74805 11.3656 8.49805 11.3469 8.24805C11.3281 7.99805 11.3 7.74805 11.2625 7.49805H7.7375C7.7 7.74805 7.67188 7.99805 7.65312 8.24805C7.63438 8.49805 7.625 8.74805 7.625 8.99805C7.625 9.24805 7.63438 9.49805 7.65312 9.74805C7.67188 9.99805 7.7 10.248 7.7375 10.498H9.5C9.7125 10.498 9.89063 10.5699 10.0344 10.7137C10.1781 10.8574 10.25 11.0355 10.25 11.248C10.25 11.4605 10.1781 11.6387 10.0344 11.7824C9.89063 11.9262 9.7125 11.998 9.5 11.998H8.075C8.225 12.5355 8.41875 13.0512 8.65625 13.5449C8.89375 14.0387 9.175 14.5105 9.5 14.9605C9.625 14.9605 9.75 14.9637 9.875 14.9699C10 14.9762 10.125 14.973 10.25 14.9605C10.4625 14.9355 10.6375 14.9887 10.775 15.1199C10.9125 15.2512 10.9813 15.423 10.9813 15.6355C10.9813 15.8605 10.925 16.048 10.8125 16.198C10.7 16.348 10.5375 16.4355 10.325 16.4605C10.2 16.473 10.0625 16.4824 9.9125 16.4887C9.7625 16.4949 9.625 16.498 9.5 16.498ZM3.6875 10.498H6.2375C6.2 10.248 6.17188 9.99805 6.15312 9.74805C6.13438 9.49805 6.125 9.24805 6.125 8.99805C6.125 8.74805 6.13438 8.49805 6.15312 8.24805C6.17188 7.99805 6.2 7.74805 6.2375 7.49805H3.6875C3.625 7.74805 3.57812 7.99805 3.54688 8.24805C3.51562 8.49805 3.5 8.74805 3.5 8.99805C3.5 9.24805 3.51562 9.49805 3.54688 9.74805C3.57812 9.99805 3.625 10.248 3.6875 10.498ZM7.55 14.6605C7.325 14.2355 7.12813 13.8012 6.95938 13.3574C6.79063 12.9137 6.65 12.4605 6.5375 11.998H4.325C4.6875 12.6355 5.14375 13.1824 5.69375 13.6387C6.24375 14.0949 6.8625 14.4355 7.55 14.6605ZM4.325 5.99805H6.5375C6.65 5.53555 6.79063 5.08242 6.95938 4.63867C7.12813 4.19492 7.325 3.76055 7.55 3.33555C6.8625 3.56055 6.24375 3.90117 5.69375 4.35742C5.14375 4.81367 4.6875 5.36055 4.325 5.99805ZM8.075 5.99805H10.925C10.775 5.46055 10.5813 4.94492 10.3438 4.45117C10.1062 3.95742 9.825 3.48555 9.5 3.03555C9.175 3.48555 8.89375 3.95742 8.65625 4.45117C8.41875 4.94492 8.225 5.46055 8.075 5.99805ZM12.4625 5.99805H14.675C14.3125 5.36055 13.8562 4.81367 13.3062 4.35742C12.7562 3.90117 12.1375 3.56055 11.45 3.33555C11.675 3.76055 11.8719 4.19492 12.0406 4.63867C12.2094 5.08242 12.35 5.53555 12.4625 5.99805Z" fill="#316094"/>
</g>
</svg>
