<svg width="16" height="16" viewBox="0 0 16 16" fill="none" xmlns="http://www.w3.org/2000/svg">
<path d="M6.7173 9.60056L4.58779 7.47107C4.46087 7.34414 4.30134 7.27921 4.10919 7.27628C3.91706 7.27333 3.7546 7.33826 3.6218 7.47107C3.48899 7.60387 3.42259 7.76486 3.42259 7.95406C3.42259 8.14326 3.48899 8.30426 3.6218 8.43706L6.13734 10.9526C6.30305 11.1183 6.49636 11.2011 6.7173 11.2011C6.93823 11.2011 7.13155 11.1183 7.29725 10.9526L12.3971 5.85277C12.524 5.72585 12.5889 5.56632 12.5919 5.37417C12.5948 5.18202 12.5299 5.01955 12.3971 4.88676C12.2643 4.75396 12.1033 4.68757 11.9141 4.68757C11.7249 4.68757 11.5639 4.75396 11.4311 4.88676L6.7173 9.60056ZM1.86604 15.7915C1.403 15.7915 1.01107 15.6311 0.690234 15.3103C0.369401 14.9895 0.208984 14.5975 0.208984 14.1345V1.86531C0.208984 1.40227 0.369401 1.01034 0.690234 0.689502C1.01107 0.368669 1.403 0.208252 1.86604 0.208252H14.1352C14.5983 0.208252 14.9902 0.368669 15.311 0.689502C15.6319 1.01034 15.7923 1.40227 15.7923 1.86531V14.1345C15.7923 14.5975 15.6319 14.9895 15.311 15.3103C14.9902 15.6311 14.5983 15.7915 14.1352 15.7915H1.86604Z" fill="#316094"/>
</svg>
