<svg width="25" height="24" viewBox="0 0 25 24" fill="none" xmlns="http://www.w3.org/2000/svg">
<mask id="mask0_2872_10837" style="mask-type:alpha" maskUnits="userSpaceOnUse" x="0" y="0" width="25" height="24">
<rect x="0.5" y="24" width="24" height="24" transform="rotate(-90 0.5 24)" fill="#D9D9D9"/>
</mask>
<g mask="url(#mask0_2872_10837)">
<path d="M12.4998 13.1992L16.3998 9.29922C16.5831 9.11589 16.8165 9.02422 17.0998 9.02422C17.3831 9.02422 17.6165 9.11589 17.7998 9.29922C17.9831 9.48255 18.0748 9.71589 18.0748 9.99922C18.0748 10.2826 17.9831 10.5159 17.7998 10.6992L13.1998 15.2992C13.0998 15.3992 12.9915 15.4701 12.8748 15.5117C12.7581 15.5534 12.6331 15.5742 12.4998 15.5742C12.3665 15.5742 12.2415 15.5534 12.1248 15.5117C12.0081 15.4701 11.8998 15.3992 11.7998 15.2992L7.1998 10.6992C7.01647 10.5159 6.9248 10.2826 6.9248 9.99922C6.9248 9.71589 7.01647 9.48255 7.1998 9.29922C7.38314 9.11589 7.61647 9.02422 7.8998 9.02422C8.18314 9.02422 8.41647 9.11589 8.5998 9.29922L12.4998 13.1992Z" fill="#AAAAAA"/>
</g>
</svg>
