<svg width="14" height="24" viewBox="0 0 14 24" fill="none" xmlns="http://www.w3.org/2000/svg">
<mask id="mask0_3659_2497" style="mask-type:alpha" maskUnits="userSpaceOnUse" x="0" y="0" width="14" height="24">
<rect width="14" height="24" fill="#D9D9D9"/>
</mask>
<g mask="url(#mask0_3659_2497)">
<path d="M2.99949 13.5518L8.75976 13.5517C8.95551 13.5518 9.1287 13.6248 9.27931 13.7707C9.42969 13.9166 9.50494 14.092 9.50505 14.297C9.50494 14.5019 9.43193 14.6773 9.28603 14.8232C9.14013 14.9691 8.96471 15.0421 8.75976 15.0422L2.40393 15.0422C2.27159 15.0421 2.15509 15.019 2.05445 14.9728C1.9538 14.9266 1.86088 14.8609 1.77567 14.7757C1.69046 14.6905 1.62476 14.5975 1.57856 14.4969C1.53237 14.3962 1.50921 14.2798 1.50909 14.1474L1.50909 7.79158C1.50921 7.59582 1.58222 7.42264 1.72812 7.27203C1.87401 7.12165 2.04944 7.0464 2.25438 7.04628C2.45932 7.0464 2.63474 7.11941 2.78064 7.26531C2.92654 7.41121 2.99955 7.58663 2.99967 7.79158L2.99949 13.5518Z" fill="#555555"/>
</g>
</svg>
