<svg width="24" height="24" viewBox="0 0 24 24" fill="none" xmlns="http://www.w3.org/2000/svg">
<mask id="mask0_876_2482" style="mask-type:alpha" maskUnits="userSpaceOnUse" x="0" y="0" width="24" height="24">
<rect width="24" height="24" fill="#D9D9D9"/>
</mask>
<g mask="url(#mask0_876_2482)">
<path d="M13.6008 12L9.70078 8.09999C9.51745 7.91665 9.42578 7.68332 9.42578 7.39999C9.42578 7.11665 9.51745 6.88332 9.70078 6.69999C9.88411 6.51665 10.1174 6.42499 10.4008 6.42499C10.6841 6.42499 10.9174 6.51665 11.1008 6.69999L15.7008 11.3C15.8008 11.4 15.8716 11.5083 15.9133 11.625C15.9549 11.7417 15.9758 11.8667 15.9758 12C15.9758 12.1333 15.9549 12.2583 15.9133 12.375C15.8716 12.4917 15.8008 12.6 15.7008 12.7L11.1008 17.3C10.9174 17.4833 10.6841 17.575 10.4008 17.575C10.1174 17.575 9.88411 17.4833 9.70078 17.3C9.51745 17.1167 9.42578 16.8833 9.42578 16.6C9.42578 16.3167 9.51745 16.0833 9.70078 15.9L13.6008 12Z" fill="#316094"/>
</g>
</svg>
