<svg width="34" height="34" viewBox="0 0 34 34" fill="none" xmlns="http://www.w3.org/2000/svg">
<mask id="mask0_2164_12309" style="mask-type:alpha" maskUnits="userSpaceOnUse" x="0" y="0" width="34" height="34">
<rect width="34" height="34" fill="#D9D9D9"/>
</mask>
<g mask="url(#mask0_2164_12309)">
<path d="M17.4813 19.4297L13.3729 23.538C13.1132 23.7977 12.7826 23.9276 12.3813 23.9276C11.9799 23.9276 11.6493 23.7977 11.3896 23.538C11.1299 23.2783 11 22.9477 11 22.5463C11 22.1449 11.1299 21.8144 11.3896 21.5547L15.4979 17.4463L11.3896 13.3734C11.1299 13.1137 11 12.7831 11 12.3817C11 11.9803 11.1299 11.6498 11.3896 11.3901C11.6493 11.1303 11.9799 11.0005 12.3813 11.0005C12.7826 11.0005 13.1132 11.1303 13.3729 11.3901L17.4813 15.4984L21.5542 11.3901C21.8139 11.1303 22.1444 11.0005 22.5458 11.0005C22.9472 11.0005 23.2778 11.1303 23.5375 11.3901C23.8208 11.6734 23.9625 12.0099 23.9625 12.3994C23.9625 12.789 23.8208 13.1137 23.5375 13.3734L19.4292 17.4463L23.5375 21.5547C23.7972 21.8144 23.9271 22.1449 23.9271 22.5463C23.9271 22.9477 23.7972 23.2783 23.5375 23.538C23.2542 23.8213 22.9177 23.963 22.5281 23.963C22.1385 23.963 21.8139 23.8213 21.5542 23.538L17.4813 19.4297Z" fill="#316094"/>
</g>
</svg>
