<svg width="24" height="24" viewBox="0 0 24 24" fill="none" xmlns="http://www.w3.org/2000/svg">
<mask id="mask0_47_959" style="mask-type:alpha" maskUnits="userSpaceOnUse" x="0" y="0" width="24" height="24">
<rect width="24" height="24" fill="#D9D9D9"/>
</mask>
<g mask="url(#mask0_47_959)">
<path d="M11.9998 13.4L9.0998 16.3C8.91647 16.4833 8.68314 16.575 8.3998 16.575C8.11647 16.575 7.88314 16.4833 7.6998 16.3C7.51647 16.1167 7.4248 15.8833 7.4248 15.6C7.4248 15.3167 7.51647 15.0833 7.6998 14.9L10.5998 12L7.6998 9.12501C7.51647 8.94168 7.4248 8.70835 7.4248 8.42501C7.4248 8.14168 7.51647 7.90835 7.6998 7.72501C7.88314 7.54168 8.11647 7.45001 8.3998 7.45001C8.68314 7.45001 8.91647 7.54168 9.0998 7.72501L11.9998 10.625L14.8748 7.72501C15.0581 7.54168 15.2915 7.45001 15.5748 7.45001C15.8581 7.45001 16.0915 7.54168 16.2748 7.72501C16.4748 7.92501 16.5748 8.16251 16.5748 8.43751C16.5748 8.71251 16.4748 8.94168 16.2748 9.12501L13.3748 12L16.2748 14.9C16.4581 15.0833 16.5498 15.3167 16.5498 15.6C16.5498 15.8833 16.4581 16.1167 16.2748 16.3C16.0748 16.5 15.8373 16.6 15.5623 16.6C15.2873 16.6 15.0581 16.5 14.8748 16.3L11.9998 13.4Z" fill="#1C1B1F"/>
</g>
</svg>
