<svg width="24" height="24" viewBox="0 0 24 24" fill="none" xmlns="http://www.w3.org/2000/svg">
<mask id="mask0_2886_11353" style="mask-type:alpha" maskUnits="userSpaceOnUse" x="0" y="0" width="24" height="24">
<rect width="24" height="24" fill="#D9D9D9"/>
</mask>
<g mask="url(#mask0_2886_11353)">
<path d="M2 17V5C2 4.45 2.19583 3.97917 2.5875 3.5875C2.97917 3.19583 3.45 3 4 3H20C20.55 3 21.0208 3.19583 21.4125 3.5875C21.8042 3.97917 22 4.45 22 5V17C22 17.55 21.8042 18.0208 21.4125 18.4125C21.0208 18.8042 20.55 19 20 19H18C17.7167 19 17.4792 18.9042 17.2875 18.7125C17.0958 18.5208 17 18.2833 17 18C17 17.7167 17.0958 17.4792 17.2875 17.2875C17.4792 17.0958 17.7167 17 18 17H20V5H4V17H6C6.28333 17 6.52083 17.0958 6.7125 17.2875C6.90417 17.4792 7 17.7167 7 18C7 18.2833 6.90417 18.5208 6.7125 18.7125C6.52083 18.9042 6.28333 19 6 19H4C3.45 19 2.97917 18.8042 2.5875 18.4125C2.19583 18.0208 2 17.55 2 17ZM7.8 21C7.56667 21 7.38333 20.9208 7.25 20.7625C7.11667 20.6042 7.05 20.4333 7.05 20.25C7.05 20.1667 7.06667 20.0792 7.1 19.9875C7.13333 19.8958 7.19167 19.8083 7.275 19.725L11.3 15.7C11.4 15.6 11.5083 15.525 11.625 15.475C11.7417 15.425 11.8667 15.4 12 15.4C12.1333 15.4 12.2583 15.425 12.375 15.475C12.4917 15.525 12.6 15.6 12.7 15.7L16.725 19.725C16.8083 19.8083 16.8667 19.8958 16.9 19.9875C16.9333 20.0792 16.95 20.1667 16.95 20.25C16.95 20.4333 16.8833 20.6042 16.75 20.7625C16.6167 20.9208 16.4333 21 16.2 21H7.8Z" fill="#1C1B1F"/>
</g>
</svg>
