<svg width="21" height="21" viewBox="0 0 21 21" fill="none" xmlns="http://www.w3.org/2000/svg">
<mask id="mask0_90_917" style="mask-type:alpha" maskUnits="userSpaceOnUse" x="0" y="0" width="21" height="21">
<rect width="21" height="21" fill="#316094"/>
</mask>
<g mask="url(#mask0_90_917)">
<path d="M5.25 19.25C4.52083 19.25 3.90104 18.9948 3.39062 18.4844C2.88021 17.974 2.625 17.3542 2.625 16.625V15.75C2.625 15.2688 2.79635 14.8568 3.13906 14.5141C3.48177 14.1714 3.89375 14 4.375 14H5.25V3.5C5.25 3.01875 5.42135 2.60677 5.76406 2.26406C6.10677 1.92135 6.51875 1.75 7 1.75H16.625C17.1062 1.75 17.5182 1.92135 17.8609 2.26406C18.2036 2.60677 18.375 3.01875 18.375 3.5V16.625C18.375 17.3542 18.1198 17.974 17.6094 18.4844C17.099 18.9948 16.4792 19.25 15.75 19.25H5.25ZM15.75 17.5C15.9979 17.5 16.2057 17.4161 16.3734 17.2484C16.5411 17.0807 16.625 16.8729 16.625 16.625V3.5H7V14H13.125C13.6062 14 14.0182 14.1714 14.3609 14.5141C14.7036 14.8568 14.875 15.2688 14.875 15.75V16.625C14.875 16.8729 14.9589 17.0807 15.1266 17.2484C15.2943 17.4161 15.5021 17.5 15.75 17.5ZM8.75 7.875C8.50208 7.875 8.29427 7.79115 8.12656 7.62344C7.95885 7.45573 7.875 7.24792 7.875 7C7.875 6.75208 7.95885 6.54427 8.12656 6.37656C8.29427 6.20885 8.50208 6.125 8.75 6.125H14.875C15.1229 6.125 15.3307 6.20885 15.4984 6.37656C15.6661 6.54427 15.75 6.75208 15.75 7C15.75 7.24792 15.6661 7.45573 15.4984 7.62344C15.3307 7.79115 15.1229 7.875 14.875 7.875H8.75ZM8.75 10.5C8.50208 10.5 8.29427 10.4161 8.12656 10.2484C7.95885 10.0807 7.875 9.87292 7.875 9.625C7.875 9.37708 7.95885 9.16927 8.12656 9.00156C8.29427 8.83385 8.50208 8.75 8.75 8.75H14.875C15.1229 8.75 15.3307 8.83385 15.4984 9.00156C15.6661 9.16927 15.75 9.37708 15.75 9.625C15.75 9.87292 15.6661 10.0807 15.4984 10.2484C15.3307 10.4161 15.1229 10.5 14.875 10.5H8.75ZM5.25 17.5H13.125V15.75H4.375V16.625C4.375 16.8729 4.45885 17.0807 4.62656 17.2484C4.79427 17.4161 5.00208 17.5 5.25 17.5ZM5.25 17.5H4.375H13.125H5.25Z" fill="#316094"/>
</g>
</svg>
