<svg width="16" height="16" viewBox="0 0 16 16" fill="none" xmlns="http://www.w3.org/2000/svg">
<mask id="mask0_90_873" style="mask-type:alpha" maskUnits="userSpaceOnUse" x="0" y="0" width="16" height="16">
<rect width="16" height="16" fill="#D9D9D9"/>
</mask>
<g mask="url(#mask0_90_873)">
<path d="M4.6665 14C4.29984 14 3.98595 13.8694 3.72484 13.6083C3.46373 13.3472 3.33317 13.0333 3.33317 12.6667V4C3.14428 4 2.98595 3.93611 2.85817 3.80833C2.73039 3.68056 2.6665 3.52222 2.6665 3.33333C2.6665 3.14444 2.73039 2.98611 2.85817 2.85833C2.98595 2.73056 3.14428 2.66667 3.33317 2.66667H5.99984C5.99984 2.47778 6.06373 2.31944 6.1915 2.19167C6.31928 2.06389 6.47762 2 6.6665 2H9.33317C9.52206 2 9.68039 2.06389 9.80817 2.19167C9.93595 2.31944 9.99984 2.47778 9.99984 2.66667H12.6665C12.8554 2.66667 13.0137 2.73056 13.1415 2.85833C13.2693 2.98611 13.3332 3.14444 13.3332 3.33333C13.3332 3.52222 13.2693 3.68056 13.1415 3.80833C13.0137 3.93611 12.8554 4 12.6665 4V12.6667C12.6665 13.0333 12.5359 13.3472 12.2748 13.6083C12.0137 13.8694 11.6998 14 11.3332 14H4.6665ZM11.3332 4H4.6665V12.6667H11.3332V4ZM7.99984 9.26667L9.2665 10.5333C9.38873 10.6556 9.54428 10.7167 9.73317 10.7167C9.92206 10.7167 10.0776 10.6556 10.1998 10.5333C10.3221 10.4111 10.3832 10.2556 10.3832 10.0667C10.3832 9.87778 10.3221 9.72222 10.1998 9.6L8.93317 8.33333L10.1998 7.06667C10.3221 6.94444 10.3832 6.78889 10.3832 6.6C10.3832 6.41111 10.3221 6.25556 10.1998 6.13333C10.0776 6.01111 9.92206 5.95 9.73317 5.95C9.54428 5.95 9.38873 6.01111 9.2665 6.13333L7.99984 7.4L6.73317 6.13333C6.61095 6.01111 6.45539 5.95 6.2665 5.95C6.07762 5.95 5.92206 6.01111 5.79984 6.13333C5.67762 6.25556 5.6165 6.41111 5.6165 6.6C5.6165 6.78889 5.67762 6.94444 5.79984 7.06667L7.0665 8.33333L5.79984 9.6C5.67762 9.72222 5.6165 9.87778 5.6165 10.0667C5.6165 10.2556 5.67762 10.4111 5.79984 10.5333C5.92206 10.6556 6.07762 10.7167 6.2665 10.7167C6.45539 10.7167 6.61095 10.6556 6.73317 10.5333L7.99984 9.26667Z" fill="#AAAAAA"/>
</g>
</svg>
