<svg width="16" height="16" viewBox="0 0 16 16" fill="none" xmlns="http://www.w3.org/2000/svg">
<mask id="mask0_1505_616" style="mask-type:alpha" maskUnits="userSpaceOnUse" x="0" y="0" width="16" height="16">
<rect width="16" height="16" fill="#D9D9D9"/>
</mask>
<g mask="url(#mask0_1505_616)">
<path d="M5.99935 11.9999H9.99935C10.1882 11.9999 10.3466 11.936 10.4743 11.8083C10.6021 11.6805 10.666 11.5221 10.666 11.3333C10.666 11.1444 10.6021 10.986 10.4743 10.8583C10.3466 10.7305 10.1882 10.6666 9.99935 10.6666H5.99935C5.81046 10.6666 5.65213 10.7305 5.52435 10.8583C5.39657 10.986 5.33268 11.1444 5.33268 11.3333C5.33268 11.5221 5.39657 11.6805 5.52435 11.8083C5.65213 11.936 5.81046 11.9999 5.99935 11.9999ZM5.99935 9.33325H9.99935C10.1882 9.33325 10.3466 9.26936 10.4743 9.14159C10.6021 9.01381 10.666 8.85547 10.666 8.66658C10.666 8.4777 10.6021 8.31936 10.4743 8.19159C10.3466 8.06381 10.1882 7.99992 9.99935 7.99992H5.99935C5.81046 7.99992 5.65213 8.06381 5.52435 8.19159C5.39657 8.31936 5.33268 8.4777 5.33268 8.66658C5.33268 8.85547 5.39657 9.01381 5.52435 9.14159C5.65213 9.26936 5.81046 9.33325 5.99935 9.33325ZM3.99935 14.6666C3.63268 14.6666 3.31879 14.536 3.05768 14.2749C2.79657 14.0138 2.66602 13.6999 2.66602 13.3333V2.66659C2.66602 2.29992 2.79657 1.98603 3.05768 1.72492C3.31879 1.46381 3.63268 1.33325 3.99935 1.33325H8.78268C8.96046 1.33325 9.1299 1.36659 9.29102 1.43325C9.45213 1.49992 9.59379 1.59436 9.71602 1.71659L12.9493 4.94992C13.0716 5.07214 13.166 5.21381 13.2327 5.37492C13.2993 5.53603 13.3327 5.70547 13.3327 5.88325V13.3333C13.3327 13.6999 13.2021 14.0138 12.941 14.2749C12.6799 14.536 12.366 14.6666 11.9993 14.6666H3.99935ZM8.66602 5.33325V2.66659H3.99935V13.3333H11.9993V5.99992H9.33268C9.14379 5.99992 8.98546 5.93603 8.85768 5.80825C8.72991 5.68047 8.66602 5.52214 8.66602 5.33325Z" fill="#777777"/>
</g>
</svg>
