<svg width="24" height="24" viewBox="0 0 24 24" fill="none" xmlns="http://www.w3.org/2000/svg">
<mask id="mask0_893_6633" style="mask-type:alpha" maskUnits="userSpaceOnUse" x="0" y="0" width="24" height="24">
<rect width="24" height="24" fill="#333333"/>
</mask>
<g mask="url(#mask0_893_6633)">
<path d="M4.60775 11L6.68075 8.927C6.81925 8.7885 6.89008 8.61442 6.89325 8.40475C6.89642 8.19525 6.82558 8.018 6.68075 7.873C6.53592 7.72817 6.36025 7.65575 6.15375 7.65575C5.94742 7.65575 5.77183 7.72817 5.627 7.873L3.13275 10.3672C2.95192 10.5481 2.8615 10.759 2.8615 11C2.8615 11.241 2.95192 11.4519 3.13275 11.6328L5.627 14.127C5.7655 14.2653 5.9395 14.3362 6.149 14.3395C6.35867 14.3427 6.53592 14.2718 6.68075 14.127C6.82558 13.982 6.898 13.8063 6.898 13.6C6.898 13.3937 6.82558 13.218 6.68075 13.073L4.60775 11ZM19.3923 11L17.3193 13.073C17.1808 13.2115 17.1099 13.3856 17.1068 13.5953C17.1036 13.8048 17.1744 13.982 17.3193 14.127C17.4641 14.2718 17.6397 14.3442 17.8462 14.3442C18.0526 14.3442 18.2282 14.2718 18.373 14.127L20.8673 11.6328C21.0481 11.4519 21.1385 11.241 21.1385 11C21.1385 10.759 21.0481 10.5481 20.8673 10.3672L18.373 7.873C18.2345 7.73467 18.0605 7.66383 17.851 7.6605C17.6413 7.65733 17.4641 7.72817 17.3193 7.873C17.1744 8.018 17.102 8.19367 17.102 8.4C17.102 8.60633 17.1744 8.782 17.3193 8.927L19.3923 11ZM2.5 6.38475V5.30775C2.5 4.80258 2.675 4.375 3.025 4.025C3.375 3.675 3.80258 3.5 4.30775 3.5H19.6923C20.1974 3.5 20.625 3.675 20.975 4.025C21.325 4.375 21.5 4.80258 21.5 5.30775V6.38475C21.5 6.59742 21.4282 6.77558 21.2845 6.91925C21.141 7.06292 20.9628 7.13475 20.75 7.13475C20.5372 7.13475 20.359 7.06292 20.2155 6.91925C20.0718 6.77558 20 6.59742 20 6.38475V5.30775C20 5.21792 19.9712 5.14417 19.9135 5.0865C19.8558 5.02883 19.7821 5 19.6923 5H4.30775C4.21792 5 4.14417 5.02883 4.0865 5.0865C4.02883 5.14417 4 5.21792 4 5.30775V6.38475C4 6.59742 3.92817 6.77558 3.7845 6.91925C3.641 7.06292 3.46283 7.13475 3.25 7.13475C3.03717 7.13475 2.859 7.06292 2.7155 6.91925C2.57183 6.77558 2.5 6.59742 2.5 6.38475ZM9.404 20.5C9.14617 20.5 8.93108 20.4138 8.75875 20.2413C8.58625 20.0689 8.5 19.8538 8.5 19.596V18.5H4.30775C3.80258 18.5 3.375 18.325 3.025 17.975C2.675 17.625 2.5 17.1974 2.5 16.6923V15.6308C2.5 15.4179 2.57183 15.2423 2.7155 15.1038C2.859 14.9654 3.03717 14.8963 3.25 14.8963C3.46283 14.8963 3.641 14.968 3.7845 15.1115C3.92817 15.2552 4 15.4333 4 15.646V16.6923C4 16.7821 4.02883 16.8558 4.0865 16.9135C4.14417 16.9712 4.21792 17 4.30775 17H19.6923C19.7821 17 19.8558 16.9712 19.9135 16.9135C19.9712 16.8558 20 16.7821 20 16.6923V15.6308C20 15.4179 20.0718 15.2423 20.2155 15.1038C20.359 14.9654 20.5372 14.8963 20.75 14.8963C20.9628 14.8963 21.141 14.968 21.2845 15.1115C21.4282 15.2552 21.5 15.4333 21.5 15.646V16.6923C21.5 17.1974 21.325 17.625 20.975 17.975C20.625 18.325 20.1974 18.5 19.6923 18.5H15.5V19.596C15.5 19.8538 15.4138 20.0689 15.2413 20.2413C15.0689 20.4138 14.8538 20.5 14.596 20.5H9.404Z" fill="#333333"/>
</g>
</svg>
