<svg width="16" height="16" viewBox="0 0 16 16" fill="none" xmlns="http://www.w3.org/2000/svg">
<mask id="mask0_1840_1843" style="mask-type:alpha" maskUnits="userSpaceOnUse" x="0" y="0" width="16" height="16">
<rect width="16" height="16" fill="#D9D9D9"/>
</mask>
<g mask="url(#mask0_1840_1843)">
<path d="M7.99935 10.3834C7.91046 10.3834 7.82713 10.3695 7.74935 10.3417C7.67157 10.314 7.59935 10.2667 7.53268 10.2001L5.13268 7.80008C4.99935 7.66675 4.93546 7.51119 4.94102 7.33342C4.94657 7.15564 5.01046 7.00008 5.13268 6.86675C5.26602 6.73342 5.42435 6.66397 5.60768 6.65841C5.79102 6.65286 5.94935 6.71675 6.08268 6.85008L7.33268 8.10008V3.33341C7.33268 3.14453 7.39657 2.98619 7.52435 2.85841C7.65213 2.73064 7.81046 2.66675 7.99935 2.66675C8.18824 2.66675 8.34657 2.73064 8.47435 2.85841C8.60213 2.98619 8.66602 3.14453 8.66602 3.33341V8.10008L9.91602 6.85008C10.0493 6.71675 10.2077 6.65286 10.391 6.65841C10.5743 6.66397 10.7327 6.73342 10.866 6.86675C10.9882 7.00008 11.0521 7.15564 11.0577 7.33342C11.0632 7.51119 10.9993 7.66675 10.866 7.80008L8.46602 10.2001C8.39935 10.2667 8.32713 10.314 8.24935 10.3417C8.17157 10.3695 8.08824 10.3834 7.99935 10.3834ZM3.99935 13.3334C3.63268 13.3334 3.31879 13.2029 3.05768 12.9417C2.79657 12.6806 2.66602 12.3667 2.66602 12.0001V10.6667C2.66602 10.4779 2.7299 10.3195 2.85768 10.1917C2.98546 10.064 3.14379 10.0001 3.33268 10.0001C3.52157 10.0001 3.6799 10.064 3.80768 10.1917C3.93546 10.3195 3.99935 10.4779 3.99935 10.6667V12.0001H11.9993V10.6667C11.9993 10.4779 12.0632 10.3195 12.191 10.1917C12.3188 10.064 12.4771 10.0001 12.666 10.0001C12.8549 10.0001 13.0132 10.064 13.141 10.1917C13.2688 10.3195 13.3327 10.4779 13.3327 10.6667V12.0001C13.3327 12.3667 13.2021 12.6806 12.941 12.9417C12.6799 13.2029 12.366 13.3334 11.9993 13.3334H3.99935Z" fill="#CCCCCC"/>
</g>
</svg>
