<svg width="18" height="18" viewBox="0 0 18 18" fill="none" xmlns="http://www.w3.org/2000/svg">
<mask id="mask0_2565_2313" style="mask-type:alpha" maskUnits="userSpaceOnUse" x="0" y="0" width="18" height="18">
<rect width="18" height="18" fill="#316094"/>
</mask>
<g mask="url(#mask0_2565_2313)">
<path d="M2.6 17.0002C2.16 17.0002 1.78333 16.8438 1.47 16.5308C1.15667 16.2179 1 15.8417 1 15.4022V4.21622C1 3.77677 1.15667 3.40058 1.47 3.08763C1.78333 2.77469 2.16 2.61822 2.6 2.61822H7.82C8.08667 2.61822 8.28667 2.70145 8.42 2.86791C8.55333 3.03437 8.62 3.21747 8.62 3.41722C8.62 3.61697 8.55 3.80008 8.41 3.96654C8.27 4.13299 8.06667 4.21622 7.8 4.21622H2.6V15.4022H13.8V10.1888C13.8 9.92242 13.8833 9.72267 14.05 9.58951C14.2167 9.45634 14.4 9.38976 14.6 9.38976C14.8 9.38976 14.9833 9.45634 15.15 9.58951C15.3167 9.72267 15.4 9.92242 15.4 10.1888V15.4022C15.4 15.8417 15.2433 16.2179 14.93 16.5308C14.6167 16.8438 14.24 17.0002 13.8 17.0002H2.6ZM5.8 11.4072V9.46966C5.8 9.25659 5.84 9.05351 5.92 8.86042C6 8.66733 6.11333 8.49754 6.26 8.35106L13.14 1.47964C13.3 1.31984 13.48 1.19999 13.68 1.12009C13.88 1.04019 14.08 1.00024 14.28 1.00024C14.4933 1.00024 14.6967 1.04019 14.89 1.12009C15.0833 1.19999 15.26 1.31984 15.42 1.47964L16.54 2.61822C16.6867 2.77802 16.8 2.95447 16.88 3.14756C16.96 3.34065 17 3.53707 17 3.73682C17 3.93657 16.9633 4.13299 16.89 4.32609C16.8167 4.51918 16.7 4.69563 16.54 4.85543L9.66 11.7268C9.51333 11.8733 9.34333 11.9898 9.15 12.0764C8.95667 12.163 8.75333 12.2062 8.54 12.2062H6.6C6.37333 12.2062 6.18333 12.1297 6.03 11.9765C5.87667 11.8234 5.8 11.6336 5.8 11.4072ZM7.4 10.6082H8.52L13.16 5.97403L12.6 5.41473L12.02 4.85543L7.4 9.46966V10.6082Z" fill="#3079C3"/>
</g>
</svg>
