<svg width="24" height="24" viewBox="0 0 24 24" fill="none" xmlns="http://www.w3.org/2000/svg">
<mask id="mask0_778_1212" style="mask-type:alpha" maskUnits="userSpaceOnUse" x="0" y="0" width="24" height="24">
<rect width="24" height="24" fill="#316094"/>
</mask>
<g mask="url(#mask0_778_1212)">
<path d="M9 10C8.71667 10 8.47917 9.90417 8.2875 9.7125C8.09583 9.52083 8 9.28333 8 9C8 8.71667 8.09583 8.47917 8.2875 8.2875C8.47917 8.09583 8.71667 8 9 8H15C15.2833 8 15.5208 8.09583 15.7125 8.2875C15.9042 8.47917 16 8.71667 16 9C16 9.28333 15.9042 9.52083 15.7125 9.7125C15.5208 9.90417 15.2833 10 15 10H9ZM7 21C6.45 21 5.97917 20.8042 5.5875 20.4125C5.19583 20.0208 5 19.55 5 19V4C5 3.45 5.19583 2.97917 5.5875 2.5875C5.97917 2.19583 6.45 2 7 2H17C17.55 2 18.0208 2.19583 18.4125 2.5875C18.8042 2.97917 19 3.45 19 4V19C19 19.55 18.8042 20.0208 18.4125 20.4125C18.0208 20.8042 17.55 21 17 21H7ZM7 18V19H17V18H7ZM7 16H17V7H7V16ZM7 5H17V4H7V5Z" fill="#316094"/>
</g>
</svg>
