<svg width="24" height="24" viewBox="0 0 24 24" fill="none" xmlns="http://www.w3.org/2000/svg">
<mask id="mask0_778_1226" style="mask-type:alpha" maskUnits="userSpaceOnUse" x="0" y="0" width="24" height="24">
<rect width="24" height="24" fill="white"/>
</mask>
<g mask="url(#mask0_778_1226)">
<path d="M7 17L4.7 19.3C4.38333 19.6167 4.02083 19.6875 3.6125 19.5125C3.20417 19.3375 3 19.025 3 18.575V6C3 5.45 3.19583 4.97917 3.5875 4.5875C3.97917 4.19583 4.45 4 5 4H19C19.55 4 20.0208 4.19583 20.4125 4.5875C20.8042 4.97917 21 5.45 21 6V15C21 15.55 20.8042 16.0208 20.4125 16.4125C20.0208 16.8042 19.55 17 19 17H7ZM6.15 15H19V6H5V16.125L6.15 15Z" fill="#316094"/>
</g>
</svg>
