<svg width="24" height="24" viewBox="0 0 24 24" fill="none" xmlns="http://www.w3.org/2000/svg">
<mask id="mask0_778_1209" style="mask-type:alpha" maskUnits="userSpaceOnUse" x="0" y="0" width="24" height="24">
<rect width="24" height="24" fill="#3BC3D7"/>
</mask>
<g mask="url(#mask0_778_1209)">
<path d="M5 19C4.45 19 3.97917 18.8042 3.5875 18.4125C3.19583 18.0208 3 17.55 3 17V6C3 5.45 3.19583 4.97917 3.5875 4.5875C3.97917 4.19583 4.45 4 5 4H19C19.55 4 20.0208 4.19583 20.4125 4.5875C20.8042 4.97917 21 5.45 21 6V17C21 17.55 20.8042 18.0208 20.4125 18.4125C20.0208 18.8042 19.55 19 19 19H5ZM19 8L12.525 12.675C12.4417 12.725 12.3542 12.7625 12.2625 12.7875C12.1708 12.8125 12.0833 12.825 12 12.825C11.9167 12.825 11.8292 12.8125 11.7375 12.7875C11.6458 12.7625 11.5583 12.725 11.475 12.675L5 8V17H19V8ZM12 11L19 6H5L12 11ZM5 8.25V6.775V6.8V6.7875V8.25Z" fill="#fff"/>
</g>
</svg>
