<svg width="16" height="16" viewBox="0 0 16 16" fill="none" xmlns="http://www.w3.org/2000/svg">
<mask id="mask0_1402_1882" style="mask-type:alpha" maskUnits="userSpaceOnUse" x="0" y="0" width="16" height="16">
<rect width="16" height="16" fill="#D9D9D9"/>
</mask>
<g mask="url(#mask0_1402_1882)">
<path d="M8.00065 11.3334C8.18954 11.3334 8.34787 11.2695 8.47565 11.1417C8.60343 11.0139 8.66732 10.8556 8.66732 10.6667C8.66732 10.4778 8.60343 10.3195 8.47565 10.1917C8.34787 10.0639 8.18954 10 8.00065 10C7.81176 10 7.65343 10.0639 7.52565 10.1917C7.39787 10.3195 7.33398 10.4778 7.33398 10.6667C7.33398 10.8556 7.39787 11.0139 7.52565 11.1417C7.65343 11.2695 7.81176 11.3334 8.00065 11.3334ZM8.00065 8.66671C8.18954 8.66671 8.34787 8.60282 8.47565 8.47504C8.60343 8.34726 8.66732 8.18893 8.66732 8.00004V5.33337C8.66732 5.14448 8.60343 4.98615 8.47565 4.85837C8.34787 4.7306 8.18954 4.66671 8.00065 4.66671C7.81176 4.66671 7.65343 4.7306 7.52565 4.85837C7.39787 4.98615 7.33398 5.14448 7.33398 5.33337V8.00004C7.33398 8.18893 7.39787 8.34726 7.52565 8.47504C7.65343 8.60282 7.81176 8.66671 8.00065 8.66671ZM8.00065 14.6667C7.07843 14.6667 6.21176 14.4917 5.40065 14.1417C4.58954 13.7917 3.88398 13.3167 3.28398 12.7167C2.68398 12.1167 2.20898 11.4112 1.85898 10.6C1.50898 9.78893 1.33398 8.92226 1.33398 8.00004C1.33398 7.07782 1.50898 6.21115 1.85898 5.40004C2.20898 4.58893 2.68398 3.88337 3.28398 3.28337C3.88398 2.68337 4.58954 2.20837 5.40065 1.85837C6.21176 1.50837 7.07843 1.33337 8.00065 1.33337C8.92287 1.33337 9.78954 1.50837 10.6007 1.85837C11.4118 2.20837 12.1173 2.68337 12.7173 3.28337C13.3173 3.88337 13.7923 4.58893 14.1423 5.40004C14.4923 6.21115 14.6673 7.07782 14.6673 8.00004C14.6673 8.92226 14.4923 9.78893 14.1423 10.6C13.7923 11.4112 13.3173 12.1167 12.7173 12.7167C12.1173 13.3167 11.4118 13.7917 10.6007 14.1417C9.78954 14.4917 8.92287 14.6667 8.00065 14.6667ZM8.00065 13.3334C9.48954 13.3334 10.7507 12.8167 11.784 11.7834C12.8173 10.75 13.334 9.48893 13.334 8.00004C13.334 6.51115 12.8173 5.25004 11.784 4.21671C10.7507 3.18337 9.48954 2.66671 8.00065 2.66671C6.51176 2.66671 5.25065 3.18337 4.21732 4.21671C3.18398 5.25004 2.66732 6.51115 2.66732 8.00004C2.66732 9.48893 3.18398 10.75 4.21732 11.7834C5.25065 12.8167 6.51176 13.3334 8.00065 13.3334Z" fill="#999999"/>
</g>
</svg>
