<svg width="23" height="23" viewBox="0 0 23 23" fill="none" xmlns="http://www.w3.org/2000/svg">
<mask id="mask0_2978_11820" style="mask-type:alpha" maskUnits="userSpaceOnUse" x="0" y="0" width="23" height="23">
<rect width="23" height="23" fill="#D9D9D9"/>
</mask>
<g mask="url(#mask0_2978_11820)">
<path d="M3.83268 21.0866C3.3056 21.0866 2.85439 20.8989 2.47904 20.5236C2.10369 20.1482 1.91602 19.697 1.91602 19.1699L1.91602 5.75326C1.91602 5.22617 2.10369 4.77496 2.47904 4.39961C2.85438 4.02426 3.3056 3.83659 3.83268 3.83659L7.71393 3.83659C7.98546 3.83659 8.21306 3.92843 8.39674 4.11211C8.58043 4.29579 8.67227 4.52339 8.67227 4.79492C8.67227 5.06645 8.58043 5.29405 8.39675 5.47773C8.21306 5.66141 7.98546 5.75325 7.71393 5.75325L3.83268 5.75325L3.83268 19.1699L17.2494 19.1699L17.2493 14.3783C17.2493 14.1067 17.3412 13.8791 17.5249 13.6954C17.7086 13.5118 17.9362 13.4199 18.2077 13.4199C18.4792 13.4199 18.7068 13.5118 18.8905 13.6954C19.0742 13.8791 19.166 14.1067 19.166 14.3783L19.166 19.1699C19.166 19.697 18.9783 20.1482 18.603 20.5236C18.2276 20.8989 17.7764 21.0866 17.2494 21.0866L3.83268 21.0866ZM18.4952 8.53242L20.891 10.9283C21.0667 11.1039 21.1546 11.3276 21.1546 11.5991C21.1546 11.8706 21.0667 12.0942 20.891 12.2699C20.7153 12.4456 20.4917 12.5335 20.2202 12.5335C19.9487 12.5335 19.725 12.4456 19.5493 12.2699L17.1535 9.87409C16.8181 10.0658 16.4587 10.2255 16.0754 10.3533C15.6921 10.481 15.2848 10.5449 14.8535 10.5449C13.6556 10.5449 12.6374 10.1256 11.7988 9.28711C10.9603 8.44857 10.541 7.43034 10.541 6.23242C10.541 5.0345 10.9603 4.01628 11.7988 3.17773C12.6374 2.33919 13.6556 1.91992 14.8535 1.91992C16.0514 1.91992 17.0697 2.33919 17.9082 3.17773C18.7467 4.01627 19.166 5.0345 19.166 6.23242C19.166 6.66367 19.1021 7.07096 18.9744 7.4543C18.8466 7.83763 18.6869 8.197 18.4952 8.53242ZM14.8535 8.62825C15.5243 8.62825 16.0914 8.39666 16.5546 7.93346C17.0178 7.47027 17.2493 6.90325 17.2493 6.23242C17.2493 5.56159 17.0178 4.99457 16.5546 4.53138C16.0914 4.06818 15.5243 3.83659 14.8535 3.83659C14.1827 3.83659 13.6157 4.06818 13.1525 4.53138C12.6893 4.99457 12.4577 5.56159 12.4577 6.23242C12.4577 6.90325 12.6893 7.47027 13.1525 7.93346C13.6157 8.39666 14.1827 8.62825 14.8535 8.62825ZM3.83268 19.1699L3.83268 5.75325L3.83268 12.4616L3.83268 12.1741L3.83268 19.1699Z" fill="#316094"/>
</g>
</svg>
