<svg width="23" height="24" viewBox="0 0 23 24" fill="none" xmlns="http://www.w3.org/2000/svg">
<mask id="mask0_1541_23213" style="mask-type:alpha" maskUnits="userSpaceOnUse" x="0" y="0" width="23" height="24">
<rect width="23" height="24" fill="#316094"/>
</mask>
<g mask="url(#mask0_1541_23213)">
<path d="M10.6667 17C10.4306 17 10.2326 16.9201 10.0729 16.7604C9.91319 16.6007 9.83333 16.4028 9.83333 16.1667C9.83333 15.9306 9.91319 15.7326 10.0729 15.5729C10.2326 15.4132 10.4306 15.3333 10.6667 15.3333H12.3333C12.5694 15.3333 12.7674 15.4132 12.9271 15.5729C13.0868 15.7326 13.1667 15.9306 13.1667 16.1667C13.1667 16.4028 13.0868 16.6007 12.9271 16.7604C12.7674 16.9201 12.5694 17 12.3333 17H10.6667ZM7.33333 12.8333C7.09722 12.8333 6.89931 12.7535 6.73958 12.5938C6.57986 12.434 6.5 12.2361 6.5 12C6.5 11.7639 6.57986 11.566 6.73958 11.4062C6.89931 11.2465 7.09722 11.1667 7.33333 11.1667H15.6667C15.9028 11.1667 16.1007 11.2465 16.2604 11.4062C16.4201 11.566 16.5 11.7639 16.5 12C16.5 12.2361 16.4201 12.434 16.2604 12.5938C16.1007 12.7535 15.9028 12.8333 15.6667 12.8333H7.33333ZM4.83333 8.66667C4.59722 8.66667 4.39931 8.58681 4.23958 8.42708C4.07986 8.26736 4 8.06944 4 7.83333C4 7.59722 4.07986 7.39931 4.23958 7.23958C4.39931 7.07986 4.59722 7 4.83333 7H18.1667C18.4028 7 18.6007 7.07986 18.7604 7.23958C18.9201 7.39931 19 7.59722 19 7.83333C19 8.06944 18.9201 8.26736 18.7604 8.42708C18.6007 8.58681 18.4028 8.66667 18.1667 8.66667H4.83333Z" fill="#316094"/>
</g>
</svg>
