<svg width="144" height="90" viewBox="0 0 144 90" fill="none" xmlns="http://www.w3.org/2000/svg">
<path d="M63.2497 11.6245L63.3916 11.75H63.581H131.284C134.666 11.75 137.539 12.8114 139.933 14.9292C142.325 17.0454 143.5 19.5611 143.5 22.5V78.75C143.5 81.6889 142.325 84.2046 139.933 86.3208C137.539 88.4386 134.666 89.5 131.284 89.5H12.7162C9.3344 89.5 6.46049 88.4386 4.06669 86.3208C1.67466 84.2046 0.5 81.6889 0.5 78.75V11.25C0.5 8.31113 1.67466 5.79539 4.06669 3.67917C6.46049 1.56137 9.3344 0.5 12.7162 0.5H45.6194C47.2584 0.5 48.816 0.771662 50.2955 1.31328C51.7765 1.85544 53.0729 2.62106 54.1894 3.60886L54.5207 3.23438L54.1894 3.60886L63.2497 11.6245Z" fill="#4F4D56" stroke="#4F4D56"/>
</svg>
