<svg width="145" height="90" viewBox="0 0 145 90" fill="none" xmlns="http://www.w3.org/2000/svg">
<path d="M63.3625 12.0012L63.6456 12.25H64.0225H132.195C135.488 12.25 138.264 13.2725 140.579 15.3059C142.889 17.3361 144 19.7186 144 22.5V78.75C144 81.5314 142.889 83.9139 140.579 85.9441C138.264 87.9775 135.488 89 132.195 89H12.8045C9.51164 89 6.73577 87.9775 4.42136 85.9441C2.11066 83.9139 1 81.5314 1 78.75V11.25C1 8.46856 2.11066 6.08609 4.42136 4.05592C6.73577 2.02248 9.51164 1 12.8045 1H45.9362C47.5313 1 49.0425 1.26235 50.4762 1.78357C51.9128 2.30587 53.1639 3.04083 54.2393 3.98561L63.3625 12.0012Z" fill="#FAFAFA" stroke="#4F4D56" stroke-width="2"/>
</svg>
