<svg width="145" height="90" viewBox="0 0 145 90" fill="none" xmlns="http://www.w3.org/2000/svg">
<path d="M63.6925 11.6256L63.8341 11.75H64.0225H132.195C135.603 11.75 138.498 12.812 140.909 14.9303C143.318 17.047 144.5 19.5624 144.5 22.5V78.75C144.5 81.6876 143.318 84.203 140.909 86.3197C138.498 88.438 135.603 89.5 132.195 89.5H12.8045C9.39746 89.5 6.50232 88.438 4.09134 86.3197C1.68222 84.203 0.5 81.6876 0.5 78.75V11.25C0.5 8.31241 1.68222 5.79695 4.09134 3.68031C6.50232 1.56202 9.39746 0.5 12.8045 0.5H45.9362C47.5874 0.5 49.1566 0.7718 50.647 1.31366C52.139 1.85606 53.4448 2.62198 54.5693 3.60999L63.6925 11.6256Z" fill="#FAFAFA" stroke="#E5E5E5"/>
</svg>
