<svg width="24" height="24" viewBox="0 0 24 24" fill="none" xmlns="http://www.w3.org/2000/svg">
<mask id="mask0_430_508" style="mask-type:alpha" maskUnits="userSpaceOnUse" x="0" y="0" width="24" height="24">
<rect width="24" height="24" fill="#D9D9D9"/>
</mask>
<g mask="url(#mask0_430_508)">
<path d="M7.11539 17.1153C6.86472 17.1153 6.65456 17.0305 6.48489 16.861C6.31539 16.6915 6.23064 16.4814 6.23064 16.2308V14.7308H18.6056L18.9229 15.048V6H20.4229C20.6736 6 20.8836 6.08475 21.0531 6.25425C21.2228 6.42392 21.3076 6.634 21.3076 6.8845V18.4693C21.3076 18.8723 21.1226 19.1522 20.7526 19.309C20.3828 19.4658 20.0556 19.4019 19.7709 19.1173L17.7691 17.1153H7.11539ZM6.23064 12.7308L4.22889 14.7328C3.94422 15.0173 3.61697 15.0812 3.24714 14.9245C2.87714 14.7677 2.69214 14.4877 2.69214 14.0845V3.38475C2.69214 3.13408 2.77697 2.92392 2.94664 2.75425C3.11614 2.58475 3.32622 2.5 3.57689 2.5H16.0384C16.2891 2.5 16.4991 2.58475 16.6686 2.75425C16.8381 2.92392 16.9229 3.13408 16.9229 3.38475V11.8463C16.9229 12.0968 16.8381 12.3068 16.6686 12.4765C16.4991 12.646 16.2891 12.7308 16.0384 12.7308H6.23064Z" fill="#5B6371"/>
</g>
</svg>
