<svg width="21" height="21" viewBox="0 0 21 21" fill="none" xmlns="http://www.w3.org/2000/svg">
<mask id="mask0_2872_6551" style="mask-type:alpha" maskUnits="userSpaceOnUse" x="0" y="0" width="21" height="21">
<rect width="21" height="21" fill="#fff"/>
</mask>
<g mask="url(#mask0_2872_6551)">
<path d="M17.5 5.25H3.5V15.75H10.5C10.7479 15.75 10.9557 15.8339 11.1234 16.0016C11.2911 16.1693 11.375 16.3771 11.375 16.625C11.375 16.8729 11.2911 17.0807 11.1234 17.2484C10.9557 17.4161 10.7479 17.5 10.5 17.5H3.5C3.01875 17.5 2.60677 17.3286 2.26406 16.9859C1.92135 16.6432 1.75 16.2312 1.75 15.75V5.25C1.75 4.76875 1.92135 4.35677 2.26406 4.01406C2.60677 3.67135 3.01875 3.5 3.5 3.5H17.5C17.9812 3.5 18.3932 3.67135 18.7359 4.01406C19.0786 4.35677 19.25 4.76875 19.25 5.25V10.5C19.25 10.7479 19.1661 10.9557 18.9984 11.1234C18.8307 11.2911 18.6229 11.375 18.375 11.375C18.1271 11.375 17.9193 11.2911 17.7516 11.1234C17.5839 10.9557 17.5 10.7479 17.5 10.5V5.25ZM3.5 5.25V15.75V11.375V11.4406V5.25ZM10.5 9.625L17.5 5.25V7L10.9594 11.0906C10.8135 11.1781 10.6604 11.2219 10.5 11.2219C10.3396 11.2219 10.1865 11.1781 10.0406 11.0906L3.5 7V5.25L10.5 9.625ZM16.7781 17.5H14C13.7521 17.5 13.5443 17.4161 13.3766 17.2484C13.2089 17.0807 13.125 16.8729 13.125 16.625C13.125 16.3771 13.2089 16.1693 13.3766 16.0016C13.5443 15.8339 13.7521 15.75 14 15.75H16.7781L15.9906 14.9625C15.8156 14.7875 15.7318 14.5833 15.7391 14.35C15.7464 14.1167 15.8375 13.9125 16.0125 13.7375C16.1875 13.5771 16.3917 13.4932 16.625 13.4859C16.8583 13.4786 17.0625 13.5625 17.2375 13.7375L19.5125 16.0125C19.6 16.1 19.6656 16.1948 19.7094 16.2969C19.7531 16.399 19.775 16.5083 19.775 16.625C19.775 16.7417 19.7531 16.851 19.7094 16.9531C19.6656 17.0552 19.6 17.15 19.5125 17.2375L17.2375 19.5125C17.0771 19.6729 16.8766 19.7568 16.6359 19.7641C16.3953 19.7714 16.1875 19.6875 16.0125 19.5125C15.8521 19.3521 15.7719 19.1479 15.7719 18.9C15.7719 18.6521 15.8521 18.4479 16.0125 18.2875L16.7781 17.5Z" fill="#fff"/>
</g>
</svg>
