<svg width="16" height="16" viewBox="0 0 16 16" fill="none" xmlns="http://www.w3.org/2000/svg">
<mask id="mask0_1331_2410" style="mask-type:alpha" maskUnits="userSpaceOnUse" x="0" y="0" width="16" height="16">
<rect width="16" height="16" fill="#777777"/>
</mask>
<g mask="url(#mask0_1331_2410)">
<path d="M12.783 7.33334L10.1997 4.75C10.0663 4.61667 9.99967 4.45834 9.99967 4.275C9.99967 4.09167 10.0663 3.93334 10.1997 3.8C10.333 3.67778 10.4913 3.61667 10.6747 3.61667C10.858 3.61667 11.0108 3.67778 11.133 3.8L14.1997 6.86667C14.2663 6.93334 14.3136 7.00556 14.3413 7.08334C14.3691 7.16111 14.383 7.24445 14.383 7.33334C14.383 7.42222 14.3691 7.50556 14.3413 7.58334C14.3136 7.66111 14.2663 7.73334 14.1997 7.8L11.133 10.8667C10.9997 11 10.8441 11.0639 10.6663 11.0583C10.4886 11.0528 10.333 10.9889 10.1997 10.8667C10.0663 10.7333 9.9969 10.5778 9.99134 10.4C9.98579 10.2222 10.0497 10.0667 10.183 9.93334L12.783 7.33334ZM8.78301 8H4.66634C4.11079 8 3.63856 8.19445 3.24967 8.58334C2.86079 8.97222 2.66634 9.44445 2.66634 10V12C2.66634 12.1889 2.60245 12.3472 2.47467 12.475C2.3469 12.6028 2.18856 12.6667 1.99967 12.6667C1.81079 12.6667 1.65245 12.6028 1.52467 12.475C1.3969 12.3472 1.33301 12.1889 1.33301 12V10C1.33301 9.07778 1.65801 8.29167 2.30801 7.64167C2.95801 6.99167 3.74412 6.66667 4.66634 6.66667H8.78301L6.86634 4.75C6.73301 4.61667 6.66634 4.45834 6.66634 4.275C6.66634 4.09167 6.73301 3.93334 6.86634 3.8C6.99967 3.67778 7.15801 3.61667 7.34134 3.61667C7.52467 3.61667 7.67745 3.67778 7.79967 3.8L10.8663 6.86667C10.933 6.93334 10.9802 7.00556 11.008 7.08334C11.0358 7.16111 11.0497 7.24445 11.0497 7.33334C11.0497 7.42222 11.0358 7.50556 11.008 7.58334C10.9802 7.66111 10.933 7.73334 10.8663 7.8L7.79967 10.8667C7.66634 11 7.51079 11.0639 7.33301 11.0583C7.15523 11.0528 6.99967 10.9889 6.86634 10.8667C6.73301 10.7333 6.66356 10.5778 6.65801 10.4C6.65245 10.2222 6.71634 10.0667 6.84967 9.93334L8.78301 8Z" fill="#777777"/>
</g>
</svg>
