<svg width="24" height="24" viewBox="0 0 24 24" fill="none" xmlns="http://www.w3.org/2000/svg">
<mask id="mask0_47_497" style="mask-type:alpha" maskUnits="userSpaceOnUse" x="0" y="0" width="24" height="24">
<rect width="24" height="24" fill="#D9D9D9"/>
</mask>
<g mask="url(#mask0_47_497)">
<path d="M11.8 20.025C11.25 20.025 10.7792 19.825 10.3875 19.425C9.99588 19.025 9.80005 18.55 9.80005 18C9.80005 17.45 9.99588 16.9792 10.3875 16.5875C10.7792 16.1958 11.25 16 11.8 16L12.4 15.425C12.5334 15.2917 12.6875 15.1875 12.8625 15.1125C13.0375 15.0375 13.2167 15 13.4 15C13.7834 15 14.1125 15.1417 14.3875 15.425C14.6625 15.7083 14.8 16.0417 14.8 16.425V16.85C14.8 17.1833 14.9084 17.4583 15.125 17.675C15.3417 17.8917 15.6167 18 15.95 18C16.2 18 16.425 17.925 16.625 17.775C16.825 17.625 16.9667 17.4333 17.05 17.2L17.35 16.375C17.5 15.975 17.7417 15.6458 18.075 15.3875C18.4084 15.1292 18.7917 15 19.225 15C19.4084 14.5333 19.5542 14.05 19.6625 13.55C19.7709 13.05 19.825 12.5333 19.825 12C19.825 10.5167 19.4542 9.1625 18.7125 7.9375C17.9709 6.7125 17 5.75 15.8 5.05V6C15.8 6.55 15.6042 7.02083 15.2125 7.4125C14.8209 7.80417 14.35 8 13.8 8H12.8V10C12.8 10.2833 12.7042 10.5208 12.5125 10.7125C12.3209 10.9042 12.0834 11 11.8 11H10.8V12.7C10.8 13.0667 10.675 13.375 10.425 13.625C10.175 13.875 9.86672 14 9.50005 14C9.26672 14 9.05422 13.95 8.86255 13.85C8.67088 13.75 8.51672 13.6083 8.40005 13.425L6.80005 11H5.80005V12C5.80005 12.5167 5.62505 12.9583 5.27505 13.325C4.92505 13.6917 4.50838 13.9083 4.02505 13.975C4.45838 15.7083 5.39588 17.15 6.83755 18.3C8.27922 19.45 9.93338 20.025 11.8 20.025ZM13.8 14C13.5167 14 13.2792 13.9042 13.0875 13.7125C12.8959 13.5208 12.8 13.2833 12.8 13C12.8 12.7167 12.8959 12.4792 13.0875 12.2875C13.2792 12.0958 13.5167 12 13.8 12H14.8C15.0834 12 15.3209 12.0958 15.5125 12.2875C15.7042 12.4792 15.8 12.7167 15.8 13C15.8 13.2833 15.7042 13.5208 15.5125 13.7125C15.3209 13.9042 15.0834 14 14.8 14H13.8ZM16.125 11C15.7917 11 15.5292 10.8708 15.3375 10.6125C15.1459 10.3542 15.1 10.0667 15.2 9.75L15.575 8.65C15.6417 8.45 15.7584 8.29167 15.925 8.175C16.0917 8.05833 16.275 8 16.475 8C16.8084 8 17.0709 8.12917 17.2625 8.3875C17.4542 8.64583 17.5 8.93333 17.4 9.25L17.025 10.35C16.9584 10.55 16.8417 10.7083 16.675 10.825C16.5084 10.9417 16.325 11 16.125 11ZM11.8 22C10.4167 22 9.11672 21.7375 7.90005 21.2125C6.68338 20.6875 5.62505 19.975 4.72505 19.075C3.82505 18.175 3.11255 17.1167 2.58755 15.9C2.06255 14.6833 1.80005 13.3833 1.80005 12C1.80005 10.6167 2.06255 9.31667 2.58755 8.1C3.11255 6.88333 3.82505 5.825 4.72505 4.925C5.62505 4.025 6.68338 3.3125 7.90005 2.7875C9.11672 2.2625 10.4167 2 11.8 2C13.1834 2 14.4834 2.2625 15.7 2.7875C16.9167 3.3125 17.975 4.025 18.875 4.925C19.775 5.825 20.4875 6.88333 21.0125 8.1C21.5375 9.31667 21.8 10.6167 21.8 12C21.8 13.3833 21.5375 14.6833 21.0125 15.9C20.4875 17.1167 19.775 18.175 18.875 19.075C17.975 19.975 16.9167 20.6875 15.7 21.2125C14.4834 21.7375 13.1834 22 11.8 22Z" fill="#316094"/>
</g>
</svg>
