<svg width="21" height="21" viewBox="0 0 21 21" fill="none" xmlns="http://www.w3.org/2000/svg">
<mask id="mask0_2872_6572" style="mask-type:alpha" maskUnits="userSpaceOnUse" x="0" y="0" width="21" height="21">
<rect width="21" height="21" fill="#777777"/>
</mask>
<g mask="url(#mask0_2872_6572)">
<path d="M6.125 18.375H4.375C3.89375 18.375 3.48177 18.2036 3.13906 17.8609C2.79635 17.5182 2.625 17.1062 2.625 16.625V10.5C2.625 9.40625 2.83281 8.38177 3.24844 7.42656C3.66406 6.47135 4.22552 5.6401 4.93281 4.93281C5.6401 4.22552 6.47135 3.66406 7.42656 3.24844C8.38177 2.83281 9.40625 2.625 10.5 2.625C11.5938 2.625 12.6182 2.83281 13.5734 3.24844C14.5286 3.66406 15.3599 4.22552 16.0672 4.93281C16.7745 5.6401 17.3359 6.47135 17.7516 7.42656C18.1672 8.38177 18.375 9.40625 18.375 10.5V16.625C18.375 17.1062 18.2036 17.5182 17.8609 17.8609C17.5182 18.2036 17.1062 18.375 16.625 18.375H14.875C14.3938 18.375 13.9818 18.2036 13.6391 17.8609C13.2964 17.5182 13.125 17.1062 13.125 16.625V13.125C13.125 12.6438 13.2964 12.2318 13.6391 11.8891C13.9818 11.5464 14.3938 11.375 14.875 11.375H16.625V10.5C16.625 8.79375 16.0307 7.34635 14.8422 6.15781C13.6536 4.96927 12.2063 4.375 10.5 4.375C8.79375 4.375 7.34635 4.96927 6.15781 6.15781C4.96927 7.34635 4.375 8.79375 4.375 10.5V11.375H6.125C6.60625 11.375 7.01823 11.5464 7.36094 11.8891C7.70365 12.2318 7.875 12.6438 7.875 13.125V16.625C7.875 17.1062 7.70365 17.5182 7.36094 17.8609C7.01823 18.2036 6.60625 18.375 6.125 18.375ZM6.125 13.125H4.375V16.625H6.125V13.125ZM14.875 13.125V16.625H16.625V13.125H14.875Z" fill="#777777"/>
</g>
</svg>
