<svg width="24" height="24" viewBox="0 0 24 24" fill="none" xmlns="http://www.w3.org/2000/svg">
<mask id="mask0_47_502" style="mask-type:alpha" maskUnits="userSpaceOnUse" x="0" y="0" width="24" height="24">
<rect width="24" height="24" fill="#D9D9D9"/>
</mask>
<g mask="url(#mask0_47_502)">
<path d="M7.99966 20.0001C7.44966 20.0001 6.97883 19.8043 6.58716 19.4126C6.19549 19.021 5.99966 18.5501 5.99966 18.0001V16.0001C5.99966 15.7168 6.09549 15.4793 6.28716 15.2876C6.47883 15.096 6.71632 15.0001 6.99966 15.0001H8.99966V12.7501C8.49966 12.7168 8.00383 12.6126 7.51216 12.4376C7.02049 12.2626 6.59133 12.0001 6.22466 11.6501C6.12466 11.5501 6.04549 11.4376 5.98716 11.3126C5.92882 11.1876 5.89966 11.0585 5.89966 10.9251V10.2501H5.17466C5.04132 10.2501 4.91216 10.2251 4.78716 10.1751C4.66216 10.1251 4.54966 10.0501 4.44966 9.95012L2.19966 7.70012C1.99966 7.50012 1.89966 7.26679 1.89966 7.00012C1.89966 6.73346 1.99966 6.50012 2.19966 6.30012C2.68299 5.81679 3.33299 5.46262 4.14966 5.23762C4.96632 5.01262 5.71632 4.90012 6.39966 4.90012C6.84966 4.90012 7.28716 4.93346 7.71216 5.00012C8.13716 5.06679 8.56632 5.19179 8.99966 5.37512C8.99966 4.99179 9.13299 4.66679 9.39966 4.40012C9.66633 4.13346 9.99133 4.00012 10.3747 4.00012H18.9997C19.5497 4.00012 20.0205 4.19596 20.4122 4.58762C20.8038 4.97929 20.9997 5.45012 20.9997 6.00012V17.0001C20.9997 17.8335 20.708 18.5418 20.1247 19.1251C19.5413 19.7085 18.833 20.0001 17.9997 20.0001H7.99966ZM10.9997 15.0001H15.9997C16.283 15.0001 16.5205 15.096 16.7122 15.2876C16.9038 15.4793 16.9997 15.7168 16.9997 16.0001V17.0001C16.9997 17.2835 17.0955 17.521 17.2872 17.7126C17.4788 17.9043 17.7163 18.0001 17.9997 18.0001C18.283 18.0001 18.5205 17.9043 18.7122 17.7126C18.9038 17.521 18.9997 17.2835 18.9997 17.0001V6.00012H10.9997V6.60012L16.7247 12.3251C16.8747 12.4751 16.9663 12.646 16.9997 12.8376C17.033 13.0293 17.008 13.2168 16.9247 13.4001C16.8413 13.5835 16.7247 13.7293 16.5747 13.8376C16.4247 13.946 16.233 14.0001 15.9997 14.0001C15.8663 14.0001 15.7372 13.971 15.6122 13.9126C15.4872 13.8543 15.383 13.7835 15.2997 13.7001L12.7497 11.1501L12.5497 11.3501C12.3163 11.5835 12.0705 11.7918 11.8122 11.9751C11.5538 12.1585 11.283 12.3001 10.9997 12.4001V15.0001ZM5.59966 8.25012H6.89966C7.18299 8.25012 7.42049 8.34596 7.61216 8.53762C7.80382 8.72929 7.89966 8.96679 7.89966 9.25012V10.4001C8.09966 10.5335 8.30799 10.6251 8.52466 10.6751C8.74132 10.7251 8.96633 10.7501 9.19966 10.7501C9.58299 10.7501 9.92883 10.6918 10.2372 10.5751C10.5455 10.4585 10.8497 10.2501 11.1497 9.95012L11.3497 9.75012L9.94966 8.35012C9.46632 7.86679 8.92466 7.50429 8.32466 7.26262C7.72466 7.02096 7.08299 6.90012 6.39966 6.90012C6.06632 6.90012 5.74966 6.92512 5.44966 6.97512C5.14966 7.02512 4.84966 7.10012 4.54966 7.20012L5.59966 8.25012ZM14.9997 17.0001H7.99966V18.0001H15.1497C15.0997 17.8501 15.0622 17.6918 15.0372 17.5251C15.0122 17.3585 14.9997 17.1835 14.9997 17.0001Z" fill="#316094"/>
</g>
</svg>
