<svg width="24" height="24" viewBox="0 0 24 24" fill="none" xmlns="http://www.w3.org/2000/svg">
<path fill-rule="evenodd" clip-rule="evenodd" d="M10.25 6C10.25 4.89543 11.1454 4 12.25 4C13.3546 4 14.25 4.89543 14.25 6C14.25 7.10457 13.3546 8 12.25 8C11.1454 8 10.25 7.10457 10.25 6ZM10.25 12C10.25 10.8954 11.1454 10 12.25 10C13.3546 10 14.25 10.8954 14.25 12C14.25 13.1046 13.3546 14 12.25 14C11.1454 14 10.25 13.1046 10.25 12ZM10.25 18C10.25 16.8954 11.1454 16 12.25 16C13.3546 16 14.25 16.8954 14.25 18C14.25 19.1046 13.3546 20 12.25 20C11.1454 20 10.25 19.1046 10.25 18Z" fill="#777777"/>
</svg>
