<svg width="16" height="16" viewBox="0 0 16 16" fill="none" xmlns="http://www.w3.org/2000/svg">
<g clip-path="url(#clip0_10596_111448)">
<path d="M7.07627 11.8631L7.66133 10.523C8.18207 9.33042 9.11927 8.38108 10.2883 7.86215L11.8988 7.14728C12.4108 6.92002 12.4108 6.17514 11.8988 5.94786L10.3386 5.25531C9.13947 4.72303 8.18547 3.73856 7.67367 2.50531L7.081 1.07717C6.86107 0.547193 6.12879 0.547194 5.90887 1.07717L5.31618 2.5053C4.80438 3.73856 3.85035 4.72303 2.65123 5.25531L1.09105 5.94786C0.579024 6.17514 0.579024 6.92002 1.09105 7.14728L2.70153 7.86215C3.87059 8.38108 4.80781 9.33042 5.3285 10.523L5.9136 11.8631C6.13851 12.3781 6.85133 12.3781 7.07627 11.8631ZM12.9343 15.1259L13.0988 14.7488C13.3921 14.0764 13.9205 13.541 14.5797 13.2481L15.0866 13.0229C15.3608 12.9011 15.3608 12.5026 15.0866 12.3808L14.6081 12.1681C13.9319 11.8677 13.3941 11.3125 13.1057 10.6173L12.9368 10.2098C12.819 9.92575 12.4263 9.92575 12.3085 10.2098L12.1396 10.6173C11.8513 11.3125 11.3135 11.8677 10.6373 12.1681L10.1587 12.3808C9.8846 12.5026 9.8846 12.9011 10.1587 13.0229L10.6657 13.2481C11.3249 13.541 11.8532 14.0764 12.1465 14.7488L12.3111 15.1259C12.4315 15.402 12.8138 15.402 12.9343 15.1259Z" fill="#777777"/>
</g>
<defs>
<clipPath id="clip0_10596_111448">
<rect width="16" height="16" fill="white"/>
</clipPath>
</defs>
</svg>
