<svg width="24" height="24" viewBox="0 0 24 24" fill="none" xmlns="http://www.w3.org/2000/svg">
<path d="M2 17V6C2 5.20435 2.3163 4.44152 2.87891 3.87891C3.44152 3.3163 4.20435 3 5 3H9L9.09863 3.00488C9.32763 3.02757 9.54289 3.12883 9.70703 3.29297L12.4141 6H19C19.7957 6 20.5585 6.3163 21.1211 6.87891C21.6837 7.44151 22 8.20435 22 9V17C22 17.7957 21.6837 18.5585 21.1211 19.1211C20.5585 19.6837 19.7957 20 19 20H5C4.20435 20 3.44151 19.6837 2.87891 19.1211C2.3163 18.5585 2 17.7956 2 17ZM4 17C4 17.2652 4.10543 17.5195 4.29297 17.707C4.48051 17.8946 4.73478 18 5 18H19C19.2652 18 19.5195 17.8946 19.707 17.707C19.8946 17.5195 20 17.2652 20 17V9C20 8.73478 19.8946 8.48051 19.707 8.29297C19.5429 8.12883 19.3276 8.02757 19.0986 8.00488L19 8H12C11.7348 8 11.4805 7.89457 11.293 7.70703L8.58594 5H5C4.73478 5 4.4805 5.10543 4.29297 5.29297C4.10543 5.4805 4 5.73478 4 6V17Z" fill="#13304E"/>
</svg>
