<svg width="24" height="25" viewBox="0 0 24 25" fill="none" xmlns="http://www.w3.org/2000/svg">
<path d="M19.5387 22.5H5.38453C4.61981 22.5 4 21.8802 4 21.1155V3.88453C4 3.11981 4.61981 2.5 5.38453 2.5H16.8315C18.4293 4.09783 19.3254 4.99389 20.9232 6.59172V21.1155C20.9232 21.8802 20.3034 22.5 19.5387 22.5Z" fill="#D04527"/>
<path opacity="0.5" d="M16.8315 2.5H16V5.76296C16 6.60692 16.6839 7.29077 17.5278 7.29077H20.9232V6.59172C19.1598 4.82836 18.5948 4.26337 16.8315 2.5Z" fill="white"/>
<path d="M8.55518 8.33667H13.6124C14.7137 8.33667 15.5386 8.59881 16.0873 9.12256C16.636 9.6463 16.9101 10.392 16.9101 11.3592C16.9101 12.353 16.6111 13.1302 16.0135 13.6897C15.416 14.2493 14.5036 14.5293 13.2765 14.5293H11.6108V18.1831H8.55518V8.33667ZM11.6113 12.5348H12.3571C12.9438 12.5348 13.3557 12.4327 13.5929 12.2292C13.8301 12.0257 13.9489 11.7646 13.9489 11.4466C13.9489 11.1378 13.8458 10.8756 13.6401 10.6607C13.4339 10.4458 13.0469 10.3383 12.4781 10.3383H11.6119V12.5348H11.6113Z" fill="white"/>
</svg>
