<svg width="24" height="25" viewBox="0 0 24 25" fill="none" xmlns="http://www.w3.org/2000/svg">
<path d="M19.5387 22.5002H5.38453C4.61981 22.5002 4 21.8804 4 21.1157V3.88478C4 3.12005 4.61981 2.50024 5.38453 2.50024H16.8315C18.4293 4.09807 19.3254 4.99414 20.9232 6.59197V21.1157C20.9232 21.8804 20.3034 22.5002 19.5387 22.5002Z" fill="#EC1E24"/>
<path opacity="0.5" d="M16.8315 2.50024H16V5.7632C16 6.60716 16.6839 7.29102 17.5278 7.29102H20.9232V6.59197C19.1598 4.8286 18.5948 4.26361 16.8315 2.50024Z" fill="white"/>
<path d="M19.1468 15.3388C19.1468 15.3388 19.7894 13.8999 15.1522 14.5567C15.1522 14.5567 13.3362 13.9841 12.1351 10.9111C12.1351 10.9111 12.4146 9.17919 12.4005 8.38299C12.4005 8.38299 12.0092 9.86358 11.9115 10.129C11.9115 10.129 11.1294 7.25191 11.7997 6.60931C11.7997 6.60931 12.2562 6.707 12.4608 8.1317C12.4608 8.1317 12.7631 6.48773 11.7574 6.42749C11.7574 6.42749 10.9894 6.46928 10.9335 7.19547C10.9335 7.19547 10.8217 9.31867 11.5061 11.2042C11.5061 11.2042 8.14001 19.1233 6.22631 19.3887C6.22631 19.3887 6.04449 18.6343 8.489 16.5675C8.489 16.5675 4.74571 18.6625 6.0027 19.4587C6.0027 19.4587 6.61708 20.0454 7.58099 19.2074C7.58099 19.2074 8.489 18.523 9.64829 16.2744C9.64829 16.2744 12.0787 15.4506 14.8022 15.0451C14.8022 15.0451 18.5596 17.1683 19.1457 15.6877V15.52C19.1457 15.52 18.8385 16.4698 15.8355 14.9192C15.8366 14.9198 18.686 14.5843 19.1468 15.3388ZM9.81708 15.9113C10.8787 14.3331 11.8144 11.9168 11.8144 11.9168C12.68 13.7046 14.2165 14.6961 14.2165 14.6961C12.1498 15.0734 9.81708 15.9113 9.81708 15.9113Z" fill="white"/>
</svg>
