<svg width="24" height="24" viewBox="0 0 24 24" fill="none" xmlns="http://www.w3.org/2000/svg">
<path d="M17.4697 15.4697C17.7626 15.1768 18.2374 15.1768 18.5303 15.4697L21.5303 18.4697C21.8232 18.7626 21.8232 19.2374 21.5303 19.5303L18.5303 22.5303C18.2374 22.8232 17.7626 22.8232 17.4697 22.5303C17.1768 22.2374 17.1768 21.7626 17.4697 21.4697L19.1895 19.75H7.5C6.37283 19.75 5.29215 19.3019 4.49512 18.5049C3.69809 17.7079 3.25 16.6272 3.25 15.5C3.25 14.3728 3.69809 13.2921 4.49512 12.4951C5.29215 11.6981 6.37283 11.25 7.5 11.25H16.5C17.2293 11.25 17.9286 10.9601 18.4443 10.4443C18.8957 9.99301 19.1739 9.40113 19.2363 8.77148L19.25 8.5C19.25 7.77065 18.9601 7.07139 18.4443 6.55566C17.9286 6.03994 17.2293 5.75 16.5 5.75H7.64355C7.51663 6.19733 7.27897 6.6097 6.94434 6.94434C6.49301 7.39567 5.90113 7.67388 5.27148 7.73633L5 7.75C4.27065 7.75 3.57139 7.46006 3.05566 6.94434C2.60433 6.49301 2.32612 5.90113 2.26367 5.27148L2.25 5C2.25 4.27065 2.53994 3.57139 3.05566 3.05566C3.57139 2.53994 4.27065 2.25 5 2.25L5.27148 2.26367C5.90113 2.32612 6.49301 2.60433 6.94434 3.05566C7.27897 3.3903 7.51663 3.80267 7.64355 4.25H16.5C17.6272 4.25 18.7079 4.69809 19.5049 5.49512C20.3019 6.29215 20.75 7.37283 20.75 8.5L20.7451 8.71094C20.693 9.76131 20.2521 10.7577 19.5049 11.5049C18.7079 12.3019 17.6272 12.75 16.5 12.75H7.5C6.77065 12.75 6.07139 13.0399 5.55566 13.5557C5.03994 14.0714 4.75 14.7707 4.75 15.5C4.75 16.2293 5.03994 16.9286 5.55566 17.4443C6.07139 17.9601 6.77065 18.25 7.5 18.25H19.1895L17.4697 16.5303C17.1768 16.2374 17.1768 15.7626 17.4697 15.4697ZM3.75586 5.12402C3.78436 5.41001 3.9112 5.67878 4.11621 5.88379C4.35063 6.11821 4.66848 6.25 5 6.25L5.12402 6.24414C5.41001 6.21564 5.67878 6.0888 5.88379 5.88379C6.11821 5.64937 6.25 5.33152 6.25 5L6.24414 4.87598C6.21564 4.58999 6.0888 4.32122 5.88379 4.11621C5.67878 3.9112 5.41001 3.78436 5.12402 3.75586L5 3.75C4.66848 3.75 4.35063 3.88179 4.11621 4.11621C3.88179 4.35063 3.75 4.66848 3.75 5L3.75586 5.12402Z" fill="white"/>
</svg>
