<svg width="24" height="24" viewBox="0 0 24 24" fill="none" xmlns="http://www.w3.org/2000/svg">
<path fill-rule="evenodd" clip-rule="evenodd" d="M6.05546 3.05546C6.57118 2.53973 7.27065 2.25 8 2.25C8.72935 2.25 9.42882 2.53973 9.94454 3.05546C10.4603 3.57118 10.75 4.27065 10.75 5C10.75 5.72935 10.4603 6.42882 9.94454 6.94454C9.92854 6.96055 9.91235 6.97634 9.896 6.99191L11.4398 9.30765C11.6227 9.26959 11.8104 9.25 12 9.25C12.1896 9.25 12.3773 9.26959 12.5602 9.30765L14.104 6.99191C14.0876 6.97634 14.0715 6.96055 14.0555 6.94454C13.5397 6.42882 13.25 5.72935 13.25 5C13.25 4.27065 13.5397 3.57118 14.0555 3.05546C14.5712 2.53973 15.2707 2.25 16 2.25C16.7293 2.25 17.4288 2.53973 17.9445 3.05546C18.4603 3.57118 18.75 4.27065 18.75 5C18.75 5.72935 18.4603 6.42882 17.9445 6.94454C17.4288 7.46027 16.7293 7.75 16 7.75C15.8104 7.75 15.6227 7.73041 15.4398 7.69235L13.896 10.0081C13.9124 10.0237 13.9285 10.0394 13.9445 10.0555C14.2793 10.3902 14.5189 10.8025 14.6458 11.25H17.3542C17.4811 10.8025 17.7207 10.3902 18.0555 10.0555C18.5712 9.53973 19.2707 9.25 20 9.25C20.7293 9.25 21.4288 9.53973 21.9445 10.0555C22.4603 10.5712 22.75 11.2707 22.75 12C22.75 12.7293 22.4603 13.4288 21.9445 13.9445C21.4288 14.4603 20.7293 14.75 20 14.75C19.2707 14.75 18.5712 14.4603 18.0555 13.9445C17.7207 13.6098 17.4811 13.1975 17.3542 12.75H14.6458C14.5189 13.1975 14.2793 13.6098 13.9445 13.9445C13.9285 13.9606 13.9124 13.9763 13.896 13.9919L15.4398 16.3076C15.6227 16.2696 15.8104 16.25 16 16.25C16.7293 16.25 17.4288 16.5397 17.9445 17.0555C18.4603 17.5712 18.75 18.2707 18.75 19C18.75 19.7293 18.4603 20.4288 17.9445 20.9445C17.4288 21.4603 16.7293 21.75 16 21.75C15.2707 21.75 14.5712 21.4603 14.0555 20.9445C13.5397 20.4288 13.25 19.7293 13.25 19C13.25 18.2707 13.5397 17.5712 14.0555 17.0555C14.0715 17.0394 14.0876 17.0237 14.104 17.0081L12.5602 14.6924C12.3773 14.7304 12.1896 14.75 12 14.75C11.8104 14.75 11.6227 14.7304 11.4398 14.6924L9.89599 17.0081C9.91235 17.0237 9.92854 17.0394 9.94454 17.0555C10.4603 17.5712 10.75 18.2707 10.75 19C10.75 19.7293 10.4603 20.4288 9.94454 20.9445C9.42882 21.4603 8.72935 21.75 8 21.75C7.27065 21.75 6.57118 21.4603 6.05546 20.9445C5.53973 20.4288 5.25 19.7293 5.25 19C5.25 18.2707 5.53973 17.5712 6.05546 17.0555C6.57118 16.5397 7.27065 16.25 8 16.25C8.18965 16.25 8.37728 16.2696 8.56018 16.3076L10.104 13.9919C10.0876 13.9763 10.0715 13.9606 10.0555 13.9445C9.72067 13.6098 9.48112 13.1975 9.35424 12.75H6.64576C6.51887 13.1975 6.27933 13.6098 5.94454 13.9445C5.42882 14.4603 4.72935 14.75 4 14.75C3.27065 14.75 2.57118 14.4603 2.05546 13.9445C1.53973 13.4288 1.25 12.7293 1.25 12C1.25 11.2707 1.53973 10.5712 2.05546 10.0555C2.57118 9.53973 3.27065 9.25 4 9.25C4.72935 9.25 5.42882 9.53973 5.94454 10.0555C6.27933 10.3902 6.51887 10.8025 6.64576 11.25H9.35424C9.48112 10.8025 9.72067 10.3902 10.0555 10.0555C10.0715 10.0394 10.0876 10.0237 10.104 10.0081L8.56018 7.69235C8.37728 7.73041 8.18965 7.75 8 7.75C7.27065 7.75 6.57118 7.46027 6.05546 6.94454C5.53973 6.42882 5.25 5.72935 5.25 5C5.25 4.27065 5.53973 3.57118 6.05546 3.05546ZM8 3.75C7.66848 3.75 7.35054 3.8817 7.11612 4.11612C6.8817 4.35054 6.75 4.66848 6.75 5C6.75 5.33152 6.8817 5.64946 7.11612 5.88388C7.35054 6.1183 7.66848 6.25 8 6.25C8.33152 6.25 8.64946 6.1183 8.88388 5.88388C9.1183 5.64946 9.25 5.33152 9.25 5C9.25 4.66848 9.1183 4.35054 8.88388 4.11612C8.64946 3.8817 8.33152 3.75 8 3.75ZM16 3.75C15.6685 3.75 15.3505 3.8817 15.1161 4.11612C14.8817 4.35054 14.75 4.66848 14.75 5C14.75 5.33152 14.8817 5.64946 15.1161 5.88388C15.3505 6.1183 15.6685 6.25 16 6.25C16.3315 6.25 16.6495 6.1183 16.8839 5.88388C17.1183 5.64946 17.25 5.33152 17.25 5C17.25 4.66848 17.1183 4.35054 16.8839 4.11612C16.6495 3.8817 16.3315 3.75 16 3.75ZM4 10.75C3.66848 10.75 3.35054 10.8817 3.11612 11.1161C2.8817 11.3505 2.75 11.6685 2.75 12C2.75 12.3315 2.8817 12.6495 3.11612 12.8839C3.35054 13.1183 3.66848 13.25 4 13.25C4.33152 13.25 4.64946 13.1183 4.88388 12.8839C5.1183 12.6495 5.25 12.3315 5.25 12C5.25 11.6685 5.1183 11.3505 4.88388 11.1161C4.64946 10.8817 4.33152 10.75 4 10.75ZM12 10.75C11.6685 10.75 11.3505 10.8817 11.1161 11.1161C10.8817 11.3505 10.75 11.6685 10.75 12C10.75 12.3315 10.8817 12.6495 11.1161 12.8839C11.3505 13.1183 11.6685 13.25 12 13.25C12.3315 13.25 12.6495 13.1183 12.8839 12.8839C13.1183 12.6495 13.25 12.3315 13.25 12C13.25 11.6685 13.1183 11.3505 12.8839 11.1161C12.6495 10.8817 12.3315 10.75 12 10.75ZM20 10.75C19.6685 10.75 19.3505 10.8817 19.1161 11.1161C18.8817 11.3505 18.75 11.6685 18.75 12C18.75 12.3315 18.8817 12.6495 19.1161 12.8839C19.3505 13.1183 19.6685 13.25 20 13.25C20.3315 13.25 20.6495 13.1183 20.8839 12.8839C21.1183 12.6495 21.25 12.3315 21.25 12C21.25 11.6685 21.1183 11.3505 20.8839 11.1161C20.6495 10.8817 20.3315 10.75 20 10.75ZM8 17.75C7.66848 17.75 7.35054 17.8817 7.11612 18.1161C6.8817 18.3505 6.75 18.6685 6.75 19C6.75 19.3315 6.8817 19.6495 7.11612 19.8839C7.35054 20.1183 7.66848 20.25 8 20.25C8.33152 20.25 8.64946 20.1183 8.88388 19.8839C9.1183 19.6495 9.25 19.3315 9.25 19C9.25 18.6685 9.1183 18.3505 8.88388 18.1161C8.64946 17.8817 8.33152 17.75 8 17.75ZM16 17.75C15.6685 17.75 15.3505 17.8817 15.1161 18.1161C14.8817 18.3505 14.75 18.6685 14.75 19C14.75 19.3315 14.8817 19.6495 15.1161 19.8839C15.3505 20.1183 15.6685 20.25 16 20.25C16.3315 20.25 16.6495 20.1183 16.8839 19.8839C17.1183 19.6495 17.25 19.3315 17.25 19C17.25 18.6685 17.1183 18.3505 16.8839 18.1161C16.6495 17.8817 16.3315 17.75 16 17.75Z" fill="white"/>
</svg>
