<svg width="20" height="20" viewBox="0 0 20 20" fill="none" xmlns="http://www.w3.org/2000/svg">
<mask id="mask0_5330_19535" style="mask-type:alpha" maskUnits="userSpaceOnUse" x="0" y="0" width="20" height="20">
<rect width="20" height="20" fill="#D9D9D9"/>
</mask>
<g mask="url(#mask0_5330_19535)">
<path d="M3.70141 17.2751C3.22596 17.2751 2.82353 17.1104 2.49412 16.7809C2.16471 16.4515 2 16.0491 2 15.5736V7.68235C2 7.2069 2.16471 6.80447 2.49412 6.47506C2.82353 6.14565 3.22596 5.98094 3.70141 5.98094H5.40282C5.60298 5.98094 5.77067 6.04855 5.90588 6.18376C6.04094 6.31882 6.10847 6.48651 6.10847 6.68682C6.10847 6.88714 6.04094 7.05482 5.90588 7.18988C5.77067 7.3251 5.60298 7.39271 5.40282 7.39271H3.70141C3.62894 7.39271 3.56259 7.4229 3.50235 7.48329C3.44196 7.54353 3.41176 7.60988 3.41176 7.68235V15.5736C3.41176 15.6461 3.44196 15.7125 3.50235 15.7727C3.56259 15.8331 3.62894 15.8633 3.70141 15.8633H16.2986C16.3711 15.8633 16.4374 15.8331 16.4976 15.7727C16.558 15.7125 16.5882 15.6461 16.5882 15.5736V7.68235C16.5882 7.60988 16.558 7.54353 16.4976 7.48329C16.4374 7.4229 16.3711 7.39271 16.2986 7.39271H14.5972C14.397 7.39271 14.2293 7.3251 14.0941 7.18988C13.9591 7.05482 13.8915 6.88714 13.8915 6.68682C13.8915 6.48651 13.9591 6.31882 14.0941 6.18376C14.2293 6.04855 14.397 5.98094 14.5972 5.98094H16.2986C16.774 5.98094 17.1765 6.14565 17.5059 6.47506C17.8353 6.80447 18 7.2069 18 7.68235V15.5736C18 16.0491 17.8353 16.4515 17.5059 16.7809C17.1765 17.1104 16.774 17.2751 16.2986 17.2751H3.70141ZM9.29412 3.36377L8.04894 4.60894C7.90886 4.74902 7.74502 4.81812 7.55741 4.81624C7.3698 4.81451 7.20298 4.74063 7.05694 4.59459C6.92063 4.44855 6.85004 4.28322 6.84518 4.09859C6.84047 3.91396 6.91106 3.74871 7.05694 3.60282L9.40447 1.25529C9.57467 1.0851 9.77318 1 10 1C10.2268 1 10.4253 1.0851 10.5955 1.25529L12.9431 3.60282C13.0733 3.73302 13.1399 3.89435 13.1431 4.08682C13.146 4.27929 13.0794 4.44855 12.9431 4.59459C12.797 4.74063 12.6293 4.81365 12.4398 4.81365C12.2504 4.81365 12.0827 4.74063 11.9367 4.59459L10.7059 3.36377V13.0398C10.7059 13.2401 10.6383 13.4078 10.5031 13.5428C10.368 13.678 10.2003 13.7456 10 13.7456C9.79969 13.7456 9.632 13.678 9.49694 13.5428C9.36173 13.4078 9.29412 13.2401 9.29412 13.0398V3.36377Z" fill="#555555"/>
</g>
</svg>
