<svg width="22" height="22" viewBox="0 0 22 22" fill="none" xmlns="http://www.w3.org/2000/svg">
<mask id="mask0_1934_3206" style="mask-type:alpha" maskUnits="userSpaceOnUse" x="0" y="0" width="22" height="22">
<rect width="22" height="22" fill="#D9D9D9"/>
</mask>
<g mask="url(#mask0_1934_3206)">
<path d="M11.8665 11.0004L8.13281 7.26676C8.00588 7.13985 7.94095 6.98032 7.93802 6.78817C7.93507 6.59604 8 6.43357 8.13281 6.30078C8.2656 6.16797 8.4266 6.10156 8.6158 6.10156C8.805 6.10156 8.966 6.16797 9.09879 6.30078L13.2185 10.4205C13.3043 10.5063 13.3648 10.5968 13.4001 10.692C13.4353 10.7871 13.453 10.89 13.453 11.0004C13.453 11.1109 13.4353 11.2137 13.4001 11.3089C13.3648 11.4041 13.3043 11.4946 13.2185 11.5804L9.09879 15.7001C8.97188 15.827 8.81235 15.892 8.6202 15.8949C8.42807 15.8978 8.2656 15.8329 8.13281 15.7001C8 15.5673 7.93359 15.4063 7.93359 15.2171C7.93359 15.0279 8 14.8669 8.13281 14.7341L11.8665 11.0004Z" fill="#999999"/>
</g>
</svg>
