<svg width="22" height="22" viewBox="0 0 22 22" fill="none" xmlns="http://www.w3.org/2000/svg">
<mask id="mask0_1331_2386" style="mask-type:alpha" maskUnits="userSpaceOnUse" x="0" y="0" width="22" height="22">
<rect width="22" height="22" fill="#D9D9D9"/>
</mask>
<g mask="url(#mask0_1331_2386)">
<path d="M10.9991 9.89995L7.42409 13.475C7.25603 13.643 7.04214 13.727 6.78242 13.727C6.5227 13.727 6.30881 13.643 6.14076 13.475C5.9727 13.3069 5.88867 13.093 5.88867 12.8333C5.88867 12.5736 5.9727 12.3597 6.14076 12.1916L10.3574 7.97495C10.5408 7.79162 10.7546 7.69995 10.9991 7.69995C11.2435 7.69995 11.4574 7.79162 11.6408 7.97495L15.8574 12.1916C16.0255 12.3597 16.1095 12.5736 16.1095 12.8333C16.1095 13.093 16.0255 13.3069 15.8574 13.475C15.6894 13.643 15.4755 13.727 15.2158 13.727C14.956 13.727 14.7421 13.643 14.5741 13.475L10.9991 9.89995Z" fill="#1C1B1F"/>
</g>
</svg>
