<svg width="24" height="24" viewBox="0 0 24 24" fill="none" xmlns="http://www.w3.org/2000/svg">
<mask id="mask0_893_6626" style="mask-type:alpha" maskUnits="userSpaceOnUse" x="0" y="0" width="24" height="24">
<rect width="24" height="24" fill="#333333"/>
</mask>
<g mask="url(#mask0_893_6626)">
<path d="M12.0005 10.4539L7.92738 14.5269C7.78893 14.6654 7.61489 14.7362 7.40528 14.7394C7.19568 14.7427 7.01844 14.6718 6.87358 14.5269C6.72869 14.3821 6.65625 14.2064 6.65625 14C6.65625 13.7936 6.72869 13.618 6.87358 13.4731L11.3678 8.97891C11.5486 8.79815 11.7595 8.70776 12.0005 8.70776C12.2415 8.70776 12.4524 8.79815 12.6332 8.97891L17.1274 13.4731C17.2658 13.6116 17.3367 13.7856 17.3399 13.9952C17.3431 14.2048 17.2723 14.3821 17.1274 14.5269C16.9825 14.6718 16.8069 14.7443 16.6005 14.7443C16.3941 14.7443 16.2184 14.6718 16.0736 14.5269L12.0005 10.4539Z" fill="#777777"/>
</g>
</svg>
