<svg width="24" height="24" viewBox="0 0 24 24" fill="none" xmlns="http://www.w3.org/2000/svg">
<mask id="mask0_430_547" style="mask-type:alpha" maskUnits="userSpaceOnUse" x="0" y="0" width="24" height="24">
<rect width="24" height="24" fill="#AAAAAA"/>
</mask>
<g mask="url(#mask0_430_547)">
<path d="M7.875 6.74625L10.5787 3.198C10.7582 2.95783 10.9714 2.7815 11.2183 2.669C11.4651 2.55633 11.7257 2.5 12 2.5C12.2743 2.5 12.5349 2.55633 12.7817 2.669C13.0286 2.7815 13.2417 2.95783 13.4212 3.198L16.125 6.74625L20.2595 8.14225C20.6545 8.26925 20.9625 8.49317 21.1835 8.814C21.4047 9.135 21.5152 9.4895 21.5152 9.8775C21.5152 10.0567 21.4891 10.2353 21.4368 10.4133C21.3844 10.5913 21.2984 10.7618 21.1788 10.925L18.4865 14.6615L18.5865 18.627C18.6032 19.1535 18.4296 19.5972 18.0658 19.9583C17.7021 20.3194 17.2783 20.5 16.7943 20.5C16.7801 20.5 16.6128 20.4782 16.2923 20.4345L12 19.2038L7.70775 20.4345C7.62442 20.4678 7.53842 20.4871 7.44975 20.4923C7.36108 20.4974 7.27975 20.5 7.20575 20.5C6.71725 20.5 6.29225 20.3194 5.93075 19.9583C5.56925 19.5972 5.39683 19.1535 5.4135 18.627L5.5135 14.6365L2.8365 10.925C2.71683 10.7612 2.63083 10.5899 2.5785 10.4113C2.52617 10.2324 2.5 10.0537 2.5 9.875C2.5 9.49783 2.60983 9.14708 2.8295 8.82275C3.04917 8.49842 3.356 8.26842 3.75 8.13275L7.875 6.74625ZM8.802 8.0385L4.23075 9.5615C4.13458 9.5935 4.06892 9.65925 4.03375 9.75875C3.99842 9.85808 4.01283 9.94942 4.077 10.0328L7.023 14.1905L6.9135 18.6578C6.907 18.7668 6.94542 18.8533 7.02875 18.9172C7.11208 18.9814 7.20508 18.9975 7.30775 18.9655L12 17.648L16.6923 18.9905C16.7949 19.0225 16.8879 19.0064 16.9712 18.9423C17.0546 18.8783 17.093 18.7917 17.0865 18.6828L16.977 14.1905L19.923 10.0827C19.9872 9.99942 20.0016 9.90808 19.9663 9.80875C19.9311 9.70925 19.8654 9.6435 19.7693 9.6115L15.198 8.0385L12.2405 4.13475C12.1827 4.05125 12.1025 4.0095 12 4.0095C11.8975 4.0095 11.8173 4.05125 11.7595 4.13475L8.802 8.0385Z" fill="#AAAAAA"/>
</g>
</svg>
