<svg width="24" height="24" viewBox="0 0 24 24" fill="none" xmlns="http://www.w3.org/2000/svg">
<mask id="mask0_430_517" style="mask-type:alpha" maskUnits="userSpaceOnUse" x="0" y="0" width="24" height="24">
<rect width="24" height="24" fill="#D9D9D9"/>
</mask>
<g mask="url(#mask0_430_517)">
<path d="M7.875 6.74625L10.5787 3.198C10.7582 2.95783 10.9714 2.7815 11.2183 2.669C11.4651 2.55633 11.7257 2.5 12 2.5C12.2743 2.5 12.5349 2.55633 12.7817 2.669C13.0286 2.7815 13.2417 2.95783 13.4212 3.198L16.125 6.74625L20.2595 8.14225C20.6545 8.26925 20.9625 8.49317 21.1835 8.814C21.4047 9.135 21.5152 9.4895 21.5152 9.8775C21.5152 10.0567 21.4891 10.2353 21.4368 10.4133C21.3844 10.5913 21.2984 10.7618 21.1788 10.925L18.4865 14.6615L18.5865 18.627C18.6032 19.1535 18.4296 19.5972 18.0658 19.9583C17.7021 20.3194 17.2783 20.5 16.7943 20.5C16.7801 20.5 16.6128 20.4782 16.2923 20.4345L12 19.2038L7.70775 20.4345C7.62442 20.4678 7.53842 20.4871 7.44975 20.4923C7.36108 20.4974 7.27975 20.5 7.20575 20.5C6.71725 20.5 6.29225 20.3194 5.93075 19.9583C5.56925 19.5972 5.39683 19.1535 5.4135 18.627L5.5135 14.6365L2.8365 10.925C2.71683 10.7612 2.63083 10.5899 2.5785 10.4113C2.52617 10.2324 2.5 10.0537 2.5 9.875C2.5 9.49783 2.60983 9.14708 2.8295 8.82275C3.04917 8.49842 3.356 8.26842 3.75 8.13275L7.875 6.74625Z" fill="#FFCC49"/>
</g>
</svg>
