<svg width="36" height="37" viewBox="0 0 36 37" fill="none" xmlns="http://www.w3.org/2000/svg">
<path d="M8 25.1667V14.0556C8 13.1715 8.35144 12.3239 8.97656 11.6988C9.60168 11.0737 10.4493 10.7222 11.3333 10.7222H18C18.6137 10.7222 19.1111 11.2197 19.1111 11.8333C19.1111 12.447 18.6137 12.9444 18 12.9444H11.3333C11.0386 12.9444 10.7561 13.0616 10.5477 13.27C10.3394 13.4783 10.2222 13.7609 10.2222 14.0556V25.1667L10.2276 25.2763C10.2529 25.5307 10.3654 25.7699 10.5477 25.9523C10.7561 26.1606 11.0386 26.2778 11.3333 26.2778H22.4444C22.7391 26.2778 23.0217 26.1606 23.23 25.9523C23.4384 25.7439 23.5556 25.4614 23.5556 25.1667V18.5C23.5556 17.8864 24.053 17.3889 24.6667 17.3889C25.2803 17.3889 25.7778 17.8864 25.7778 18.5V25.1667C25.7778 26.0507 25.4263 26.8983 24.8012 27.5234C24.1761 28.1486 23.3285 28.5 22.4444 28.5H11.3333C10.4493 28.5 9.60168 28.1486 8.97656 27.5234C8.42968 26.9766 8.09212 26.2595 8.01628 25.4965L8 25.1667ZM28 15.1667C28 15.7803 27.5025 16.2778 26.8889 16.2778C26.2752 16.2778 25.7778 15.7803 25.7778 15.1667V12.2934L17.6745 20.3967C17.2406 20.8306 16.5372 20.8306 16.1033 20.3967C15.6694 19.9628 15.6694 19.2594 16.1033 18.8255L24.2066 10.7222H21.3333C20.7197 10.7222 20.2222 10.2248 20.2222 9.61111C20.2222 8.99746 20.7197 8.5 21.3333 8.5H26.8889L27.0028 8.50543C27.563 8.56246 28 9.03591 28 9.61111V15.1667Z" fill="#777777"/>
</svg>
