<svg width="16" height="16" viewBox="0 0 16 16" fill="none" xmlns="http://www.w3.org/2000/svg">
<mask id="mask0_47_453" style="mask-type:alpha" maskUnits="userSpaceOnUse" x="0" y="0" width="16" height="16">
<rect width="16" height="16" fill="#D9D9D9"/>
</mask>
<g mask="url(#mask0_47_453)">
<path d="M8.00008 12.9C9.35564 11.6556 10.3612 10.525 11.0167 9.50834C11.6723 8.49168 12.0001 7.5889 12.0001 6.80001C12.0001 5.5889 11.614 4.59723 10.8417 3.82501C10.0695 3.05279 9.1223 2.66668 8.00008 2.66668C6.87786 2.66668 5.93064 3.05279 5.15841 3.82501C4.38619 4.59723 4.00008 5.5889 4.00008 6.80001C4.00008 7.5889 4.32786 8.49168 4.98341 9.50834C5.63897 10.525 6.64453 11.6556 8.00008 12.9ZM8.00008 14.2167C7.84453 14.2167 7.68897 14.1889 7.53341 14.1333C7.37786 14.0778 7.23897 13.9945 7.11675 13.8833C6.39453 13.2167 5.75564 12.5667 5.20008 11.9333C4.64453 11.3 4.18064 10.6861 3.80841 10.0917C3.43619 9.49723 3.15286 8.92501 2.95841 8.37501C2.76397 7.82501 2.66675 7.30001 2.66675 6.80001C2.66675 5.13334 3.20286 3.80557 4.27508 2.81668C5.3473 1.82779 6.58897 1.33334 8.00008 1.33334C9.41119 1.33334 10.6529 1.82779 11.7251 2.81668C12.7973 3.80557 13.3334 5.13334 13.3334 6.80001C13.3334 7.30001 13.2362 7.82501 13.0417 8.37501C12.8473 8.92501 12.564 9.49723 12.1917 10.0917C11.8195 10.6861 11.3556 11.3 10.8001 11.9333C10.2445 12.5667 9.60564 13.2167 8.88341 13.8833C8.76119 13.9945 8.6223 14.0778 8.46675 14.1333C8.31119 14.1889 8.15564 14.2167 8.00008 14.2167ZM8.00008 8.00001C8.36675 8.00001 8.68064 7.86945 8.94175 7.60834C9.20286 7.34723 9.33342 7.03334 9.33342 6.66668C9.33342 6.30001 9.20286 5.98612 8.94175 5.72501C8.68064 5.4639 8.36675 5.33334 8.00008 5.33334C7.63341 5.33334 7.31953 5.4639 7.05841 5.72501C6.7973 5.98612 6.66675 6.30001 6.66675 6.66668C6.66675 7.03334 6.7973 7.34723 7.05841 7.60834C7.31953 7.86945 7.63341 8.00001 8.00008 8.00001Z" fill="#050505"/>
</g>
</svg>
