<svg width="16" height="16" viewBox="0 0 16 16" fill="none" xmlns="http://www.w3.org/2000/svg">
<mask id="mask0_1331_2442" style="mask-type:alpha" maskUnits="userSpaceOnUse" x="0" y="0" width="16" height="16">
<rect width="16" height="16" fill="#D9D9D9"/>
</mask>
<g mask="url(#mask0_1331_2442)">
<path d="M1.99967 14.6667C1.81079 14.6667 1.65245 14.6028 1.52467 14.475C1.3969 14.3472 1.33301 14.1889 1.33301 14V8.66668C1.33301 8.47779 1.3969 8.31945 1.52467 8.19168C1.65245 8.0639 1.81079 8.00001 1.99967 8.00001H3.99967V5.33334C3.99967 4.22223 4.38856 3.27779 5.16634 2.50001C5.94412 1.72223 6.88856 1.33334 7.99967 1.33334H10.6663C11.7775 1.33334 12.7219 1.72223 13.4997 2.50001C14.2775 3.27779 14.6663 4.22223 14.6663 5.33334V14C14.6663 14.1889 14.6025 14.3472 14.4747 14.475C14.3469 14.6028 14.1886 14.6667 13.9997 14.6667C13.8108 14.6667 13.6525 14.6028 13.5247 14.475C13.3969 14.3472 13.333 14.1889 13.333 14V12.6667H10.6663V14C10.6663 14.1889 10.6025 14.3472 10.4747 14.475C10.3469 14.6028 10.1886 14.6667 9.99967 14.6667H1.99967ZM10.6663 11.3333H13.333V5.33334C13.333 4.60001 13.0719 3.97223 12.5497 3.45001C12.0275 2.92779 11.3997 2.66668 10.6663 2.66668H7.99967C7.26634 2.66668 6.63856 2.92779 6.11634 3.45001C5.59412 3.97223 5.33301 4.60001 5.33301 5.33334V8.00001H9.99967C10.1886 8.00001 10.3469 8.0639 10.4747 8.19168C10.6025 8.31945 10.6663 8.47779 10.6663 8.66668V11.3333ZM5.99967 11.2333L9.33301 9.33334H2.66634L5.99967 11.2333ZM2.66634 13.3333H9.33301V10.5L6.66634 12.0167C6.56634 12.0722 6.46079 12.1167 6.34967 12.15C6.23856 12.1833 6.1219 12.2 5.99967 12.2C5.87745 12.2 5.76079 12.1833 5.64967 12.15C5.53856 12.1167 5.43301 12.0722 5.33301 12.0167L2.66634 10.5V13.3333ZM7.33301 6.66668C7.14412 6.66668 6.98579 6.60279 6.85801 6.47501C6.73023 6.34723 6.66634 6.1889 6.66634 6.00001C6.66634 5.81112 6.73023 5.65279 6.85801 5.52501C6.98579 5.39723 7.14412 5.33334 7.33301 5.33334H11.333C11.5219 5.33334 11.6802 5.39723 11.808 5.52501C11.9358 5.65279 11.9997 5.81112 11.9997 6.00001C11.9997 6.1889 11.9358 6.34723 11.808 6.47501C11.6802 6.60279 11.5219 6.66668 11.333 6.66668H7.33301Z" fill="#777777"/>
</g>
</svg>
