<svg width="909" height="677" viewBox="0 0 909 677" fill="none" xmlns="http://www.w3.org/2000/svg">
<mask id="mask0_893_3904" style="mask-type:luminance" maskUnits="userSpaceOnUse" x="0" y="-1" width="909" height="678">
<path d="M909 -1H0V676.99H909V-1Z" fill="white"/>
</mask>
<g mask="url(#mask0_893_3904)">
<path d="M511.871 125.068V156.605L493.418 175.623L489.384 207.785H489.37H489.317L486.015 175.623L467.868 156.724V125.068H511.871Z" fill="#FFC6BB" stroke="black" stroke-width="0.3689" stroke-miterlimit="10"/>
<path d="M458.335 97.5527V108.101L466.496 107.128L470.943 106.609L506.359 102.387L519.726 100.776L521.377 100.589C521.377 96.0878 520.232 91.8393 518.195 88.1636C516.996 86.0061 515.492 84.0217 513.761 82.317C509.088 77.669 502.684 74.8057 495.574 74.8057H481.062C468.52 74.7924 458.335 84.9673 458.335 97.5527Z" fill="black"/>
<path d="M449.614 109.992C449.614 113.335 452.903 118.182 455.912 121.911C458.401 125.001 463.141 125.001 465.644 121.911C468.653 118.182 471.942 113.335 471.942 109.992C471.942 103.826 466.949 98.8313 460.785 98.8313C454.607 98.818 449.614 103.826 449.614 109.992Z" fill="#FFC6BB" stroke="black" stroke-width="0.3689" stroke-miterlimit="10"/>
<path d="M463.568 103.373C462.715 103.013 461.77 102.813 460.785 102.813C457.483 102.813 454.7 105.051 453.875 108.101" stroke="black" stroke-width="0.4612" stroke-miterlimit="10" stroke-linecap="round" stroke-linejoin="round"/>
<path d="M530.111 109.992C530.111 113.335 526.822 118.182 523.813 121.911C521.324 125.001 516.584 125.001 514.081 121.911C511.072 118.182 507.783 113.335 507.783 109.992C507.783 103.826 512.776 98.8313 518.94 98.8313C525.105 98.818 530.111 103.826 530.111 109.992Z" fill="#FFC6BB" stroke="black" stroke-width="0.3689" stroke-miterlimit="10"/>
<path d="M516.157 103.373C517.009 103.013 517.955 102.813 518.94 102.813C522.242 102.813 525.024 105.051 525.85 108.101" stroke="black" stroke-width="0.4612" stroke-miterlimit="10" stroke-linecap="round" stroke-linejoin="round"/>
<path d="M514.213 119.288L511.164 93.877L489.862 86.7119L468.56 93.877L465.511 119.288C463.82 133.378 472.834 146.003 485.056 147.508C485.056 147.508 489.223 148.387 494.668 147.508C506.891 146.003 515.904 133.378 514.213 119.288Z" fill="black"/>
<path d="M517.302 114.879L513.867 89.4688L489.862 82.3037L465.857 89.4688L462.422 114.879C460.518 128.97 470.677 141.595 484.443 143.1C484.443 143.1 489.13 143.979 495.268 143.1C495.268 143.1 495.268 143.1 495.281 143.1C509.048 141.595 519.206 128.97 517.302 114.879Z" fill="#FFC6BB" stroke="black" stroke-width="0.3689" stroke-miterlimit="10"/>
<path d="M501.312 127.851C505.733 131.007 511.87 129.982 515.012 125.56C518.168 121.139 517.143 114.999 512.722 111.843C508.302 108.687 502.164 109.712 499.009 114.134C495.867 118.555 496.892 124.695 501.312 127.851Z" fill="url(#paint0_radial_893_3904)"/>
<path d="M467.015 127.851C471.436 131.007 477.573 129.982 480.716 125.56C483.871 121.139 482.846 114.999 478.426 111.843C474.005 108.687 467.868 109.712 464.712 114.134C461.57 118.555 462.595 124.695 467.015 127.851Z" fill="url(#paint1_radial_893_3904)"/>
<path d="M476.814 112.083C478.159 113.095 480.076 112.829 481.102 111.483C482.113 110.138 481.847 108.221 480.502 107.195C479.158 106.183 477.241 106.449 476.215 107.794C475.203 109.153 475.47 111.071 476.814 112.083Z" fill="black"/>
<path d="M499.222 112.083C500.566 113.095 502.484 112.829 503.509 111.483C504.521 110.138 504.254 108.221 502.91 107.195C501.565 106.183 499.648 106.449 498.623 107.794C497.611 109.153 497.877 111.071 499.222 112.083Z" fill="black"/>
<path d="M489.729 107.488C489.689 108.26 489.902 109.046 490.421 109.619C491.167 110.445 492.352 110.684 493.417 110.977C494.495 111.27 495.653 111.776 496.053 112.815C496.386 113.694 496.026 114.746 495.334 115.386C494.628 116.025 493.656 116.278 492.711 116.291C491.766 116.305 489.529 116.398 488.357 116.291" stroke="black" stroke-width="0.9573" stroke-miterlimit="10" stroke-linecap="round" stroke-linejoin="round"/>
<path d="M499.382 119.674C500.42 119.674 501.233 120.619 501.033 121.645C500.114 126.226 496.08 129.676 491.234 129.676C486.387 129.676 482.34 126.226 481.435 121.645C481.235 120.619 482.047 119.674 483.086 119.674H499.382Z" fill="white"/>
<path d="M475.098 80.7722L482.554 101.601H489.876L485.762 90.3345L495.561 101.601H511.605L513.522 107.155C513.868 108.167 515.359 107.994 515.452 106.915L516.85 91.4532L509.155 82.3038L475.098 80.7722Z" fill="black"/>
<path d="M467.841 88.1237L466.03 104.931C465.884 106.223 464.06 106.343 463.754 105.077L460.798 92.9049L467.282 86.0461L467.841 88.1237Z" fill="black"/>
<path d="M554.222 327.314H421.535L374.297 727.532H444.395L492.658 427.678L540.908 727.532H611.006L554.222 327.314Z" fill="#484C4F" stroke="black" stroke-width="0.3689" stroke-miterlimit="10"/>
<path d="M490.647 440.144L504.055 369.932" stroke="black" stroke-width="0.3689" stroke-miterlimit="10"/>
<path d="M328.377 70.8504L334.475 51.2464L332.504 47.9835L326.992 41.7906L323.344 43.0292C323.464 42.2967 323.437 41.5243 323.184 40.7651L321.906 36.9162C321.307 35.105 319.616 33.8931 317.712 33.8931H306.289C304.798 33.8931 303.6 35.105 303.6 36.5833C303.6 37.2092 303.826 37.7819 304.172 38.2347H303.546C302.055 38.2347 300.857 39.4467 300.857 40.9249C300.857 41.5509 301.083 42.1236 301.429 42.5764H300.205C298.713 42.5764 297.515 43.7883 297.515 45.2666C297.515 45.8925 297.741 46.4652 298.088 46.918H296.769C295.278 46.918 294.08 48.13 294.08 49.6082L294.866 62.4734C295.092 66.1891 296.184 69.8116 298.061 73.0345L302.335 80.386L309.045 97.5529C313.106 95.6617 317.18 93.7706 321.241 91.8661C325.088 90.0682 328.923 88.2436 332.757 86.4191C331.013 83.3293 329.828 79.9332 329.256 76.4173L328.377 70.8504Z" fill="#FFC6BB"/>
<path d="M300.844 53.3773L307.488 52.3119L307.847 53.3773V53.3906L308.353 54.8956L306.023 55.7879C304.638 56.3472 303.973 57.9054 304.519 59.2905C304.931 60.3559 305.957 60.9952 307.022 60.9952C307.368 60.9952 307.687 60.9419 308.007 60.822L310.949 59.6501C312.707 58.9708 313.825 57.2928 313.892 55.4949C313.945 54.9355 313.852 54.3495 313.679 53.7902L312.387 49.9413C311.788 48.13 310.111 46.9048 308.207 46.9048H296.783" stroke="black" stroke-width="0.3689" stroke-miterlimit="10" stroke-linecap="round" stroke-linejoin="round"/>
<path d="M313.878 55.508L314.358 55.3082C316.155 54.6024 317.273 52.9376 317.327 51.1264C317.366 50.5937 317.273 50.0077 317.087 49.4617L316.608 47.9834L315.822 45.6128C315.556 44.8004 315.063 44.1212 314.437 43.6151C313.665 42.9625 312.68 42.5896 311.615 42.5896H301.43H300.191M307.847 53.3905V53.3771" stroke="black" stroke-width="0.3689" stroke-miterlimit="10" stroke-linecap="round" stroke-linejoin="round"/>
<path d="M317.327 51.1264L317.7 50.9799C319.564 50.2474 320.722 48.4229 320.682 46.5184C320.682 46.0523 320.615 45.5861 320.442 45.12L319.151 41.2578C318.538 39.4466 316.847 38.2346 314.944 38.2346H304.159H303.507" stroke="black" stroke-width="0.3689" stroke-miterlimit="10" stroke-linecap="round" stroke-linejoin="round"/>
<path d="M331.892 52.6846C330.6 52.6846 329.402 51.8589 328.989 50.5671L326.699 43.4553L324.103 45.6794C322.825 46.7848 320.895 46.625 319.803 45.3465C318.698 44.0679 318.844 42.1368 320.136 41.0448L324.063 37.6753C325.315 36.5966 327.019 36.2237 328.617 36.6632C330.214 37.116 331.466 38.3279 331.985 39.8994L334.821 48.6893C335.34 50.3007 334.461 52.0188 332.85 52.5382C332.518 52.6314 332.198 52.6846 331.892 52.6846Z" fill="#FFC6BB"/>
<path d="M327.684 46.5318L326.686 43.4553L324.09 45.6794C322.811 46.7848 320.881 46.625 319.789 45.3465C318.684 44.0679 318.83 42.1368 320.122 41.0448L324.05 37.6753C325.301 36.5966 327.005 36.2237 328.603 36.6632C330.201 37.116 331.452 38.3279 331.971 39.8994" stroke="black" stroke-width="0.3689" stroke-miterlimit="10" stroke-linecap="round" stroke-linejoin="round"/>
<path d="M306.582 52.4583L308.686 52.0454" stroke="black" stroke-width="0.3689" stroke-miterlimit="10" stroke-linecap="round" stroke-linejoin="round"/>
<path d="M308.26 54.9487L309.751 55.4415" stroke="black" stroke-width="0.3689" stroke-miterlimit="10" stroke-linecap="round" stroke-linejoin="round"/>
<path d="M308.686 62.2603C311.881 64.5509 313.412 67.7339 313.891 71.4763" stroke="black" stroke-width="0.3689" stroke-miterlimit="10" stroke-linecap="round" stroke-linejoin="round"/>
<path d="M298.034 73.0471L302.308 80.3986L309.045 97.5521C313.106 95.661 317.18 93.7698 321.241 91.8654C325.088 90.0674 328.923 88.2429 332.757 86.4183C331.013 83.3285 329.828 79.9325 329.256 76.4165L328.364 70.8629L334.461 51.2589V51.2456C334.914 50.5131 335.074 49.5942 334.794 48.7019L331.958 39.912C331.452 38.3272 330.188 37.1286 328.59 36.6758C326.992 36.223 325.288 36.6092 324.037 37.6879L322.572 38.9531L321.906 36.9421C321.307 35.1309 319.616 33.9189 317.712 33.9189H306.289C304.798 33.9189 303.6 35.1309 303.6 36.6092C303.6 37.2351 303.826 37.8078 304.172 38.2606H303.546C302.055 38.2606 300.857 39.4725 300.857 40.9508C300.857 41.5768 301.083 42.1494 301.429 42.6023H300.205C298.713 42.6023 297.515 43.8142 297.515 45.2925C297.515 45.9184 297.741 46.4911 298.088 46.9439H296.769C295.278 46.9439 294.08 48.1558 294.08 49.6341L294.866 62.4993C295.065 66.215 296.157 69.8241 298.034 73.0471Z" stroke="black" stroke-width="0.3689" stroke-miterlimit="10"/>
<path d="M714.283 178.459L710.822 170.828C706.934 162.278 698.054 157.137 688.707 158.043L539.058 163.93L519.659 160.36L513.455 154.54L489.863 170.282L467.868 150.878L464.18 156.685L374.523 145.364L331.959 76.071L300.844 88.3502L342.33 182.122L420.177 210.569L423.372 327.301L554.222 319.297L550.854 232.464L605.095 224.699L714.283 178.459Z" fill="white" stroke="black" stroke-width="0.3689" stroke-miterlimit="10"/>
<path d="M554.222 319.31H421.535V331.11H554.222V319.31Z" fill="#1F2021" stroke="black" stroke-width="0.3689" stroke-miterlimit="10"/>
<path d="M495.961 331.016L490.915 372.329C490.688 374.207 488.971 375.552 487.093 375.312L460.732 372.089C458.854 371.863 457.51 370.145 457.749 368.267L462.795 326.955C463.022 325.077 464.739 323.732 466.616 323.971L492.978 327.194C494.855 327.421 496.2 329.125 495.961 331.016Z" fill="white" stroke="black" stroke-width="0.3689" stroke-miterlimit="10"/>
<path d="M485.723 329.099L482.301 328.686L476.456 327.967L473.194 327.567C472.808 327.514 472.448 327.794 472.395 328.193C472.342 328.579 472.622 328.939 473.021 328.992L485.549 330.524C485.936 330.577 486.295 330.297 486.348 329.898C486.388 329.512 486.109 329.152 485.723 329.099Z" fill="#0E2B4F" stroke="black" stroke-width="0.3689" stroke-miterlimit="10"/>
<path d="M491.54 367.188L490.915 372.316C490.688 374.193 488.971 375.539 487.093 375.299L460.732 372.076C458.854 371.849 457.51 370.131 457.749 368.254L458.375 363.126L491.54 367.188Z" fill="#92AFFF"/>
<path d="M485.829 346.039C485.523 348.516 484.191 350.607 482.301 351.939C480.636 353.111 478.559 353.684 476.389 353.417C474.219 353.151 472.342 352.086 471.01 350.554C469.493 348.809 468.707 346.452 469 343.975C469.573 339.327 473.793 336.024 478.44 336.583C483.086 337.156 486.401 341.391 485.829 346.039Z" fill="#92AFFF"/>
<path d="M495.961 331.016L490.915 372.329C490.688 374.207 488.971 375.552 487.093 375.312L460.732 372.089C458.854 371.863 457.51 370.145 457.749 368.267L462.795 326.955C463.022 325.077 464.739 323.732 466.616 323.971L492.978 327.194C494.855 327.421 496.2 329.125 495.961 331.016Z" stroke="black" stroke-width="0.3689" stroke-miterlimit="10"/>
<path d="M509.168 169.749L476.589 329.432L481.875 330.071L515.839 164.795L509.168 169.749Z" fill="#506ABA" stroke="black" stroke-width="0.3689" stroke-miterlimit="10"/>
<path d="M474.751 177.034L468.627 169.63L476.615 329.432L481.435 330.018L474.751 177.034Z" fill="#708AED" stroke="black" stroke-width="0.3689" stroke-miterlimit="10"/>
<path d="M480.743 342.403C480.543 344.042 479.052 345.2 477.414 345C475.777 344.801 474.619 343.309 474.818 341.671C475.018 340.033 476.509 338.874 478.147 339.074C479.784 339.287 480.943 340.765 480.743 342.403Z" fill="white"/>
<path d="M482.3 351.939C480.636 353.111 478.559 353.684 476.389 353.417C474.218 353.151 472.341 352.086 471.01 350.554L472.022 347.278C472.328 346.292 473.286 345.666 474.312 345.8L480.236 346.519C481.262 346.639 482.047 347.478 482.1 348.516L482.3 351.939Z" fill="white"/>
<path d="M486.717 357.856L465.269 355.234L465.105 356.569L486.554 359.191L486.717 357.856Z" fill="#92AFFF"/>
<path d="M486.235 361.76L464.786 359.138L464.623 360.473L486.072 363.095L486.235 361.76Z" fill="#92AFFF"/>
<path d="M495.654 206.254H485.868C484.59 206.254 483.552 205.215 483.552 203.937V170.415H497.971V203.937C497.971 205.215 496.932 206.254 495.654 206.254Z" fill="white" stroke="black" stroke-width="0.3689" stroke-miterlimit="10"/>
<path d="M495.095 174.77V202.645" stroke="black" stroke-width="0.3689" stroke-miterlimit="10"/>
<path d="M490.355 184.959C491.789 184.959 492.951 183.796 492.951 182.362C492.951 180.927 491.789 179.765 490.355 179.765C488.921 179.765 487.759 180.927 487.759 182.362C487.759 183.796 488.921 184.959 490.355 184.959Z" fill="#97ADF2" stroke="black" stroke-width="0.3689" stroke-miterlimit="10"/>
<path d="M490.355 196.479C491.789 196.479 492.951 195.316 492.951 193.882C492.951 192.447 491.789 191.285 490.355 191.285C488.921 191.285 487.759 192.447 487.759 193.882C487.759 195.316 488.921 196.479 490.355 196.479Z" fill="#97ADF2" stroke="black" stroke-width="0.3689" stroke-miterlimit="10"/>
<path d="M467.868 150.878L489.863 170.282L479.744 178.886C478.36 180.058 476.309 179.964 475.044 178.659L457.004 160.107L467.868 150.878Z" fill="white" stroke="black" stroke-width="0.3689" stroke-miterlimit="10"/>
<path d="M511.857 150.878L489.862 170.282L501.552 179.085C502.977 180.151 504.974 179.924 506.132 178.579L522.309 159.535L511.857 150.878Z" fill="white" stroke="black" stroke-width="0.3689" stroke-miterlimit="10"/>
<path d="M433.398 319.31H430.429V331.11H433.398V319.31Z" fill="#555656"/>
<path d="M447.59 319.31H444.621V331.11H447.59V319.31Z" fill="#555656"/>
<path d="M530.164 319.31H527.195V331.11H530.164V319.31Z" fill="#555656"/>
<path d="M544.37 319.31H541.401V331.11H544.37V319.31Z" fill="#555656"/>
<path d="M458.375 363.139L491.54 367.188" stroke="black" stroke-width="0.3689" stroke-miterlimit="10"/>
<path d="M289.713 341.751H172.27L144.377 720.86H191.043L229.68 452.33L252.833 720.86H299.565L289.713 341.751Z" fill="#323538" stroke="black" stroke-width="0.3689" stroke-miterlimit="10"/>
<path d="M227.323 468.698L235.072 417.77" stroke="black" stroke-width="0.3689" stroke-miterlimit="10"/>
<path d="M198.312 127.958L174.267 219.132L183.839 217.228L198.818 160.707L198.312 127.958Z" fill="black"/>
<path d="M198.179 131.274L189.578 231.492L262.219 223.887L253.938 130.075L198.179 131.274Z" fill="black"/>
<path d="M260.728 139.078L275.093 204.003L262.032 205.269L258.225 144.579L260.728 139.078Z" fill="black"/>
<path d="M198.565 134.524L200.442 144.006L207.618 141.675L211.533 140.41L242.661 130.289L254.404 126.453L255.855 125.987C255.056 121.938 253.259 118.316 250.782 115.372C249.318 113.641 247.614 112.136 245.75 110.898C240.717 107.555 234.433 106.116 228.042 107.382L214.981 109.979C203.678 112.216 196.328 123.19 198.565 134.524Z" fill="black"/>
<path d="M214.129 194.121L246.669 229.334L253.739 186.264L245.204 143.247L205.608 151.104L214.129 194.121Z" fill="#FFC6BB" stroke="black" stroke-width="0.3689" stroke-miterlimit="10"/>
<path d="M264.283 134.111C264.882 137.121 262.779 142.075 260.741 145.964C259.051 149.187 254.777 150.039 251.981 147.695C248.612 144.872 244.778 141.103 244.192 138.079C243.087 132.526 246.695 127.145 252.247 126.04C257.786 124.961 263.178 128.57 264.283 134.111Z" fill="#F9B1A7" stroke="black" stroke-width="0.3689" stroke-miterlimit="10"/>
<path d="M256.055 148.654C256.375 150.239 257.906 151.264 259.477 150.945C261.061 150.625 262.086 149.093 261.767 147.522C261.447 145.937 259.916 144.912 258.345 145.231C256.774 145.538 255.749 147.069 256.055 148.654Z" fill="white" stroke="black" stroke-width="0.3689" stroke-miterlimit="10"/>
<path d="M259.836 131.58C258.212 129.569 255.549 128.504 252.833 129.037" stroke="black" stroke-width="0.4612" stroke-miterlimit="10" stroke-linecap="round" stroke-linejoin="round"/>
<path d="M216.752 161.626C228.149 173.825 238.094 174.438 250.596 170.402L249.211 163.424L216.752 161.626Z" fill="black"/>
<path d="M241.357 168.777C254.99 166.074 263.112 151.97 258.598 138.825L250.969 116.571L228.083 114.4L203.838 122.631L208.644 146.909C211.64 161.972 226.285 171.774 241.357 168.777Z" fill="#FFC6BB" stroke="black" stroke-width="0.3689" stroke-miterlimit="10"/>
<path d="M229.693 141.942C231.091 142.621 232.769 142.035 233.434 140.637C234.113 139.238 233.528 137.56 232.13 136.894C230.732 136.215 229.054 136.801 228.388 138.199C227.709 139.584 228.295 141.263 229.693 141.942Z" fill="black"/>
<path d="M249.225 138.066C250.623 138.745 252.301 138.16 252.967 136.761C253.646 135.363 253.06 133.685 251.662 133.019C250.264 132.34 248.586 132.926 247.921 134.324C247.242 135.709 247.827 137.387 249.225 138.066Z" fill="black"/>
<path d="M244.432 150.652C240.558 153.821 234.327 153.115 232.676 147.455" stroke="black" stroke-width="0.9019" stroke-miterlimit="10" stroke-linecap="round" stroke-linejoin="round"/>
<path d="M233.302 146.19C232.822 147.016 232.01 147.642 231.078 147.895" stroke="black" stroke-width="0.9019" stroke-miterlimit="10" stroke-linecap="round" stroke-linejoin="round"/>
<path d="M208.018 149.533L207.725 161.759L202.04 152.037L208.018 149.533Z" fill="black"/>
<path d="M193.599 147.136C194.198 150.145 198.019 153.928 201.388 156.751C204.184 159.095 208.457 158.243 210.148 155.02C212.185 151.131 214.289 146.177 213.69 143.167C212.585 137.613 207.206 134.004 201.654 135.109C196.115 136.188 192.507 141.582 193.599 147.136Z" fill="#FFC6BB"/>
<path d="M207.565 135.669C205.754 134.923 203.717 134.683 201.667 135.083C196.115 136.188 192.507 141.569 193.612 147.122C194.211 150.132 198.032 153.915 201.401 156.738C204.197 159.082 208.471 158.23 210.161 155.007" stroke="black" stroke-width="0.3689" stroke-miterlimit="10" stroke-linecap="round"/>
<path d="M204.982 138.692C204.143 138.519 203.265 138.506 202.373 138.679C199.404 139.265 197.3 141.782 197.087 144.672" stroke="black" stroke-width="0.4612" stroke-miterlimit="10" stroke-linecap="round" stroke-linejoin="round"/>
<path d="M243.94 124.575L247.548 129.716L250.943 129.037L248.932 123.909L252.394 128.744L254.99 128.224L254.405 126.426L250.783 115.332C249.319 113.601 247.614 112.096 245.75 110.858L203.186 119.301L208.391 145.604C210.175 144.286 211.254 142.568 211.52 140.384C211.64 139.331 211.587 138.159 211.32 136.881L223.09 134.55C225.207 134.124 226.845 132.406 227.111 130.235L228.748 117.65C231.491 117.104 234.26 118.582 235.326 121.179L237.336 126.08C238.268 128.357 240.332 129.916 242.648 130.249C243.407 130.355 244.206 130.355 244.992 130.195L246.057 129.982L243.94 124.575Z" fill="black"/>
<path d="M241.609 135.536C241.569 136.388 241.782 137.254 242.262 137.88C242.967 138.785 244.072 139.052 245.071 139.371C246.083 139.691 247.174 140.25 247.547 141.396C247.867 142.368 247.521 143.527 246.868 144.219C246.216 144.912 245.297 145.205 244.418 145.218C243.54 145.231 241.436 145.325 240.331 145.218" stroke="black" stroke-width="0.9019" stroke-miterlimit="10" stroke-linecap="round" stroke-linejoin="round"/>
<path d="M300.177 197.318L275.613 191.844L274.827 191.671L263.67 189.194L253.046 181.523L233.514 200.754L224.7 197.877L211.147 180.777L201.041 189.18L187.141 193.029L184.692 193.709L166.891 198.636C158.689 200.914 152.059 206.947 148.997 214.884L135.177 250.869L105.42 192.43L71.4561 209.823L116.99 322C117.176 322.453 117.376 322.906 117.576 323.345C124.1 337.01 142.127 338.794 152.099 328.699C153.936 326.835 155.321 324.571 156.373 322.16L172.909 284.271L173.787 325.183L158.609 397.566H294.079V391.493L289.819 238.87L300.177 197.318Z" fill="#8296D8" stroke="black" stroke-width="0.3689" stroke-miterlimit="10"/>
<path d="M203.158 157.657C203.478 159.242 205.009 160.267 206.58 159.948C208.164 159.628 209.19 158.096 208.87 156.525C208.551 154.94 207.019 153.915 205.448 154.234C203.877 154.54 202.839 156.085 203.158 157.657Z" fill="white" stroke="black" stroke-width="0.3689" stroke-miterlimit="10"/>
<path d="M275.613 191.831C271.646 208.518 253.272 221.144 231.238 221.144C209.696 221.144 191.682 209.131 187.142 193.029L201.041 189.181L211.133 180.75L224.687 197.85L233.501 200.727L253.033 181.496L263.657 189.167L274.814 191.644L275.613 191.831Z" fill="white" stroke="black" stroke-width="0.3689" stroke-miterlimit="10"/>
<path d="M253.312 180.217L233.181 199.036L211.333 180.058L199.483 189.607L218.669 209.117C219.934 210.423 221.997 210.516 223.382 209.344L233.168 201.02L243.007 208.425C244.431 209.49 246.429 209.264 247.587 207.919L264.389 188.368L253.312 180.217Z" fill="white" stroke="black" stroke-width="0.3689" stroke-miterlimit="10"/>
<path d="M99.7886 185.931C102.225 182.268 102.611 177.594 100.787 173.585L98.0711 163.876L100.175 155.113C100.414 154.114 100.508 153.075 100.468 152.05L100.121 144.619C99.9883 141.649 97.4453 139.371 94.4896 139.544C91.5872 139.718 89.3504 142.195 89.4836 145.098L89.8164 152.649L89.3371 154.314L53.9219 182.255L56.9042 195C58.2223 200.621 64.0671 203.883 69.5392 202.059L75.4506 212.447L105.78 196.718L99.7886 185.931Z" fill="#FFC6BB" stroke="black" stroke-width="0.3689" stroke-miterlimit="10"/>
<path d="M87.8057 162.212L91.7466 163.211" stroke="#DD7C72" stroke-width="0.3619" stroke-miterlimit="10" stroke-linecap="round"/>
<path d="M35.0158 204.616H24.6309L61.5905 111.883H71.9754L35.0158 204.616Z" fill="#506ABA" stroke="black" stroke-width="0.3689" stroke-miterlimit="10"/>
<path d="M95.1951 130.968V188.435C95.1951 191.045 93.0782 193.176 90.4554 193.176H53.7886C51.1791 193.176 49.0488 191.058 49.0488 188.435V130.968C49.0488 128.357 51.1658 126.227 53.7886 126.227H90.4687C93.0782 126.227 95.1951 128.357 95.1951 130.968Z" fill="white"/>
<path d="M80.8429 132.047H63.4149C62.8691 132.047 62.4297 131.607 62.4297 131.061C62.4297 130.515 62.8691 130.075 63.4149 130.075H80.8429C81.3888 130.075 81.8282 130.515 81.8282 131.061C81.8282 131.594 81.3888 132.047 80.8429 132.047Z" fill="#92AFFF" stroke="black" stroke-width="0.3689" stroke-miterlimit="10"/>
<path d="M95.1951 181.296V188.435C95.1951 191.045 93.0782 193.176 90.4554 193.176H53.7886C51.1791 193.176 49.0488 191.058 49.0488 188.435V181.296H95.1951Z" fill="#92AFFF"/>
<path d="M84.4246 151.61C84.4246 155.233 82.8668 158.469 80.3771 160.733C78.1936 162.704 75.3045 163.916 72.1224 163.916C68.9537 163.916 66.0513 162.718 63.8678 160.733C61.3781 158.483 59.8203 155.233 59.8203 151.61C59.8203 144.818 65.3323 139.305 72.1224 139.305C78.9126 139.305 84.4246 144.818 84.4246 151.61Z" fill="#92AFFF"/>
<path d="M95.1951 130.968V188.435C95.1951 191.045 93.0782 193.176 90.4554 193.176H53.7886C51.1791 193.176 49.0488 191.058 49.0488 188.435V130.968C49.0488 128.357 51.1658 126.227 53.7886 126.227H90.4687C93.0782 126.227 95.1951 128.357 95.1951 130.968Z" stroke="black" stroke-width="0.3689" stroke-miterlimit="10"/>
<path d="M76.2495 149.133C76.2495 151.411 74.3989 153.249 72.1355 153.249C69.8588 153.249 68.0215 151.397 68.0215 149.133C68.0215 146.869 69.8721 145.018 72.1355 145.018C74.3989 145.018 76.2495 146.856 76.2495 149.133Z" fill="white"/>
<path d="M79.9771 161.932C77.9001 163.81 75.1441 164.955 72.1219 164.955C69.0996 164.955 66.3436 163.81 64.2666 161.932L65.1054 157.284C65.3584 155.885 66.5832 154.873 67.9945 154.873H76.2359C77.6605 154.873 78.8721 155.885 79.125 157.284L79.9771 161.932Z" fill="white"/>
<path d="M72.2285 111.883H82.4004L77.6206 132.046H67.249L72.0154 111.883H72.2285Z" fill="#506ABA" stroke="black" stroke-width="0.3689" stroke-miterlimit="10"/>
<path d="M72.2281 111.883L77.0078 132.046H66.6229L61.8564 111.883H72.015H72.2281Z" fill="#708AED" stroke="black" stroke-width="0.3689" stroke-miterlimit="10"/>
<path d="M50.4597 182.641L49.1417 181.829V177.993L49.1017 178.007C46.8383 179.232 44.8812 180.923 43.3234 182.974C41.8855 185.332 42.6311 188.408 44.9744 189.86L45.7333 190.326C47.8635 191.631 50.6461 190.965 51.9509 188.834C52.4036 188.102 52.6166 187.289 52.6166 186.49C52.6166 184.972 51.8444 183.494 50.4597 182.641Z" fill="#FFC6BB" stroke="black" stroke-width="0.3689" stroke-miterlimit="10"/>
<path d="M50.5397 171.361L49.0485 170.442V166.114L49.0086 166.14C46.4656 167.525 44.2421 169.43 42.4847 171.747C40.8604 174.411 41.6992 177.887 44.3487 179.512L45.2007 180.044C47.5973 181.523 50.7394 180.764 52.2039 178.353C52.7098 177.527 52.9495 176.608 52.9495 175.703C52.9628 173.985 52.0974 172.32 50.5397 171.361Z" fill="#FFC6BB" stroke="black" stroke-width="0.3689" stroke-miterlimit="10"/>
<path d="M50.5397 161.426L49.0485 160.507V156.178L49.0086 156.205C46.4656 157.59 44.2421 159.495 42.4847 161.812C40.8604 164.476 41.6992 167.952 44.3487 169.576L45.2007 170.109C47.5973 171.587 50.7394 170.828 52.2039 168.418C52.7098 167.592 52.9495 166.673 52.9495 165.767C52.9628 164.049 52.0974 162.385 50.5397 161.426Z" fill="#FFC6BB" stroke="black" stroke-width="0.3689" stroke-miterlimit="10"/>
<path d="M47.5043 159.401C44.0427 159.335 42.6447 156.298 43.0175 153.209C43.0175 150.731 45.0279 148.72 47.5043 148.72C54.5341 148.84 54.5208 159.282 47.5043 159.401Z" fill="#FFC6BB" stroke="black" stroke-width="0.3689" stroke-miterlimit="10"/>
<path d="M86.0352 167.832H57.916V169.683H86.0352V167.832Z" fill="#92AFFF"/>
<path d="M86.0352 172.786H57.916V174.637H86.0352V172.786Z" fill="#92AFFF"/>
<path d="M135.177 250.869L144.377 269.554" stroke="black" stroke-width="0.3689" stroke-miterlimit="10" stroke-linecap="round" stroke-linejoin="round"/>
<path d="M172.896 284.284L172.403 260.831" stroke="black" stroke-width="0.3689" stroke-miterlimit="10" stroke-linecap="round" stroke-linejoin="round"/>
<path d="M289.646 258.114V226.364" stroke="black" stroke-width="0.6853" stroke-miterlimit="10" stroke-linecap="round" stroke-linejoin="round"/>
<path d="M292.082 321.441H172.27V328.979H292.082V321.441Z" fill="#4361BF" stroke="black" stroke-width="0.3689" stroke-miterlimit="10"/>
<path d="M105.421 192.43L71.4434 209.837L78.8326 232.477L118.868 213.113L105.421 192.43Z" fill="white" stroke="black" stroke-width="0.3689" stroke-miterlimit="10"/>
<path d="M363.672 530.52L359.251 556.543L345.032 676.99H297.9L301.735 530.52H363.672Z" fill="#FFC6BB" stroke="black" stroke-width="0.3689" stroke-miterlimit="10"/>
<path d="M420.576 676.99H373.458L359.252 556.543L354.818 530.52H416.742L420.576 676.99Z" fill="#FFC6BB" stroke="black" stroke-width="0.3689" stroke-miterlimit="10"/>
<path d="M425.915 357L306.435 352.418L259.477 616.021H450.572L425.915 357Z" fill="#4355AF" stroke="black" stroke-width="0.3689" stroke-miterlimit="10"/>
<path d="M327.485 346.132L318.737 426.346" stroke="black" stroke-width="0.3689" stroke-miterlimit="10"/>
<path d="M279.248 616.021L318.737 426.346L302.401 616.021" stroke="black" stroke-width="0.3689" stroke-miterlimit="10"/>
<path d="M406.636 349.675L408.3 426.213" stroke="black" stroke-width="0.3689" stroke-miterlimit="10"/>
<path d="M424.636 615.888L408.3 426.213L401.483 615.888" stroke="black" stroke-width="0.3689" stroke-miterlimit="10"/>
<path d="M340.984 616.021L359.611 431.354L364.843 616.021" stroke="black" stroke-width="0.3689" stroke-miterlimit="10"/>
<path d="M363.579 346.585L359.212 433.418" stroke="black" stroke-width="0.3689" stroke-miterlimit="10"/>
<path d="M466.522 314.822L441.971 215.337C440.107 207.772 434.342 201.779 426.86 199.635L397.782 191.285L388.755 186.344L336.258 183.986L320.281 192.323L295.344 198.516C286.064 200.82 278.782 208.012 276.345 217.268L248.426 325.21L302.001 269.075L300.843 272.204L305.982 328.166L296.822 383.849H432.146L420.483 332.082L453.595 331.616C462.289 331.469 468.599 323.279 466.522 314.822ZM414.611 297.588L417.846 258.114L423.997 296.39L414.611 297.588Z" fill="#AEC7FF" stroke="black" stroke-width="0.3689" stroke-miterlimit="10"/>
<path d="M311.241 286.814V226.364" stroke="black" stroke-width="0.3689" stroke-miterlimit="10" stroke-linecap="round" stroke-linejoin="round"/>
<path d="M345.765 125.148C357.434 125.148 366.894 115.685 366.894 104.012C366.894 92.3392 357.434 82.8765 345.765 82.8765C334.096 82.8765 324.636 92.3392 324.636 104.012C324.636 115.685 334.096 125.148 345.765 125.148Z" fill="black"/>
<path d="M334.993 122.764V133.032L342.942 132.086L347.269 131.58L381.765 127.465L394.786 125.907L396.397 125.72C396.397 121.339 395.279 117.21 393.308 113.614C392.137 111.51 390.672 109.592 388.995 107.914C384.441 103.386 378.21 100.603 371.287 100.603H357.148C344.912 100.603 334.993 110.511 334.993 122.764Z" fill="black"/>
<path d="M338.908 188.035L355.657 195.56L365.044 217.361L373.738 196.479L381.753 188.035V141.489H338.908V188.035Z" fill="#FFC6BB" stroke="black" stroke-width="0.3689" stroke-miterlimit="10"/>
<path d="M403.494 135.909C403.494 139.172 400.286 143.886 397.357 147.522C394.933 150.532 390.313 150.532 387.877 147.522C384.948 143.886 381.739 139.172 381.739 135.909C381.739 129.902 386.612 125.041 392.603 125.041C398.635 125.041 403.494 129.902 403.494 135.909Z" fill="#F9B1A7" stroke="black" stroke-width="0.3689" stroke-miterlimit="10"/>
<path d="M394.893 151.757C396.952 151.757 398.621 150.088 398.621 148.028C398.621 145.969 396.952 144.299 394.893 144.299C392.834 144.299 391.165 145.969 391.165 148.028C391.165 150.088 392.834 151.757 394.893 151.757Z" fill="white" stroke="black" stroke-width="0.3689" stroke-miterlimit="10"/>
<path d="M392.63 128.264C395.08 128.264 397.276 129.423 398.674 131.234" stroke="black" stroke-width="0.4612" stroke-miterlimit="10" stroke-linecap="round" stroke-linejoin="round"/>
<path d="M348.334 154.74C357.68 169.79 367.919 172.48 381.752 170.868V163.317L348.334 154.74Z" fill="black"/>
<path d="M372.473 167.272C387.225 167.272 398.582 154.261 396.611 139.638L393.269 114.893L369.89 107.914L342.942 111.47V137.733C342.942 154.048 356.163 167.272 372.473 167.272Z" fill="#FFC6BB" stroke="black" stroke-width="0.3689" stroke-miterlimit="10"/>
<path d="M378.57 132.446C379.875 135.602 382.138 138.053 384.934 140.117C386.079 140.956 385.453 142.781 384.042 142.794L376.919 142.847" stroke="black" stroke-width="0.9573" stroke-miterlimit="10" stroke-linecap="round" stroke-linejoin="round"/>
<path d="M365.869 136.921C367.187 137.906 369.051 137.653 370.036 136.335C371.021 135.016 370.768 133.152 369.45 132.166C368.132 131.181 366.268 131.434 365.283 132.752C364.284 134.058 364.551 135.935 365.869 136.921Z" fill="black"/>
<path d="M387.011 136.921C388.329 137.906 390.193 137.653 391.178 136.335C392.164 135.016 391.911 133.152 390.593 132.166C389.275 131.181 387.411 131.434 386.425 132.752C385.427 134.058 385.693 135.935 387.011 136.921Z" fill="black"/>
<path d="M379.422 149.04C374.736 151.544 368.398 149.52 367.839 143.287" stroke="black" stroke-width="0.9573" stroke-miterlimit="10" stroke-linecap="round" stroke-linejoin="round"/>
<path d="M341.73 140.357L338.907 153.022L334.993 141.729L341.73 140.357Z" fill="black"/>
<path d="M327.231 134.87C327.231 138.133 330.44 142.847 333.369 146.483C335.792 149.493 340.412 149.493 342.849 146.483C345.778 142.847 348.987 138.133 348.987 134.87C348.987 128.863 344.114 124.002 338.122 124.002C332.131 124.002 327.231 128.863 327.231 134.87Z" fill="#FFC6BB"/>
<path d="M346.603 128.118C344.606 125.614 341.544 124.002 338.096 124.002C332.091 124.002 327.231 128.877 327.231 134.87C327.231 138.133 330.44 142.847 333.369 146.483C335.486 149.107 339.254 149.44 341.797 147.495" stroke="black" stroke-width="0.3689" stroke-miterlimit="10"/>
<path d="M340.812 128.437C339.973 128.078 339.055 127.891 338.096 127.891C335.992 127.891 334.115 128.824 332.837 130.289" stroke="black" stroke-width="0.4612" stroke-miterlimit="10" stroke-linecap="round" stroke-linejoin="round"/>
<path d="M393.322 113.601L367.839 103.439L342.955 106.609L340.825 118.915L345.778 140.343C349.24 137.893 351.41 134.044 351.49 127.878H358.799C369.717 127.878 379.955 122.897 386.705 114.493L391.658 126.013C392.244 127.385 393.589 128.264 395.08 128.264L393.322 113.601Z" fill="black"/>
<path d="M375.854 340.193L380.101 381.585C380.301 383.463 378.929 385.154 377.039 385.354L350.611 388.071C348.733 388.27 347.042 386.899 346.843 385.007L342.595 343.615C342.396 341.737 343.767 340.046 345.658 339.846L372.086 337.129C373.977 336.943 375.667 338.301 375.854 340.193Z" fill="white"/>
<path d="M366.228 341.245C366.268 341.644 365.989 341.977 365.589 342.03L361.968 342.403L360.783 342.523L356.482 342.963L356.07 343.016L353.021 343.322C352.621 343.362 352.288 343.083 352.235 342.683C352.195 342.284 352.475 341.937 352.874 341.897L355.91 341.578L356.15 341.551L356.695 341.484L360.61 341.085L361.994 340.938L362.167 340.925L365.416 340.592C365.842 340.552 366.202 340.859 366.228 341.245Z" fill="#689DEA" stroke="black" stroke-width="0.3689" stroke-miterlimit="10"/>
<path d="M379.583 376.444L380.115 381.585C380.315 383.463 378.944 385.154 377.053 385.354L350.625 388.071C348.747 388.27 347.056 386.899 346.857 385.008L346.324 379.867L379.583 376.444Z" fill="#92AFFF"/>
<path d="M369.317 357.093C369.57 359.57 368.731 361.914 367.187 363.632C365.829 365.137 363.925 366.163 361.755 366.389C359.585 366.616 357.508 365.99 355.87 364.791C354.006 363.419 352.715 361.302 352.448 358.825C351.969 354.163 355.364 350.008 360.011 349.529C364.671 349.049 368.838 352.432 369.317 357.093Z" fill="#92AFFF"/>
<path d="M363.552 354.683C363.725 356.321 362.527 357.786 360.89 357.959C359.252 358.132 357.787 356.933 357.614 355.295C357.441 353.657 358.639 352.192 360.277 352.019C361.915 351.846 363.379 353.045 363.552 354.683Z" fill="white"/>
<path d="M367.187 363.632C365.829 365.137 363.925 366.163 361.755 366.389C359.585 366.615 357.508 365.989 355.87 364.791L356.136 361.381C356.216 360.356 357.015 359.53 358.04 359.424L363.978 358.811C365.004 358.705 365.949 359.344 366.242 360.343L367.187 363.632Z" fill="white"/>
<path d="M372.822 368.429L351.326 370.636L351.463 371.974L372.96 369.767L372.822 368.429Z" fill="#92AFFF"/>
<path d="M373.222 372.332L351.726 374.539L351.863 375.877L373.359 373.67L373.222 372.332Z" fill="#92AFFF"/>
<path d="M375.854 340.193L380.101 381.585C380.301 383.463 378.929 385.154 377.039 385.354L350.611 388.071C348.733 388.27 347.042 386.899 346.843 385.007L342.595 343.615C342.396 341.737 343.767 340.046 345.658 339.846L372.086 337.129C373.977 336.943 375.667 338.301 375.854 340.193Z" stroke="black" stroke-width="0.3689" stroke-miterlimit="10"/>
<path d="M386 189.18L362.194 340.938L361.968 342.403L360.796 342.523L356.496 342.963L356.722 341.498L358.999 326.608L379.33 194.148L386 189.18Z" fill="#155289" stroke="black" stroke-width="0.3689" stroke-miterlimit="10"/>
<path d="M360.796 342.523L356.496 342.963L356.083 343.016L355.923 341.578L338.788 194.028L344.913 201.446L358.999 326.608L360.636 341.098L360.796 342.523Z" fill="#268EDB" stroke="black" stroke-width="0.3689" stroke-miterlimit="10"/>
<path d="M346.337 379.867L379.582 376.444" stroke="black" stroke-width="0.3689" stroke-miterlimit="10"/>
<path d="M338.908 178.885L357.907 193.282L364.471 220.251L355.324 195.906L346.204 205.242L327.231 186.796L338.908 178.885Z" fill="white" stroke="black" stroke-width="0.3689" stroke-miterlimit="10"/>
<path d="M323.118 258.647C323.038 257.928 323.544 257.288 324.249 257.195L331.758 256.29L398.901 248.219C400.392 248.046 401.737 249.098 401.91 250.589L414.106 352.019L339.56 360.982L331.599 294.738L328.07 293.566C327.591 293.407 327.245 292.994 327.192 292.488L323.118 258.647Z" fill="#848484" stroke="black" stroke-width="0.369" stroke-miterlimit="10"/>
<path d="M340.932 276.027L387.597 270.407C388.17 270.34 388.582 269.821 388.502 269.248L387.544 261.324C387.477 260.751 386.958 260.338 386.386 260.418L339.72 266.038C339.147 266.105 338.735 266.624 338.815 267.197L339.773 275.121C339.84 275.694 340.359 276.107 340.932 276.027Z" fill="white"/>
<path d="M331.599 294.738L327.658 256.796" stroke="black" stroke-width="0.369" stroke-miterlimit="10" stroke-linecap="round" stroke-linejoin="round"/>
<path d="M394.241 248.778L407.289 352.831" stroke="black" stroke-width="0.369" stroke-miterlimit="10"/>
<path d="M381.752 180.217L372.192 193.282L366.201 223.714L374.349 196.612L381.752 201.952L390.459 186.117L381.752 180.217Z" fill="white" stroke="black" stroke-width="0.3689" stroke-miterlimit="10"/>
<path d="M399.087 300.172H362.288L346.231 293.5C344.513 292.781 342.596 292.674 340.812 293.207L333.103 295.471L319.59 298.88C317.26 299.466 315.622 301.73 316.048 304.088C316.354 305.779 317.566 307.058 319.057 307.55C319.843 307.803 320.708 307.857 321.56 307.644L324.369 306.938C322.838 308.15 322.212 310.267 322.998 312.158C323.544 313.49 324.675 314.409 325.967 314.769C324.529 315.994 323.97 318.045 324.729 319.883C325.315 321.308 326.566 322.267 327.977 322.546C326.087 323.665 325.248 326.022 326.113 328.113C326.832 329.845 328.497 330.883 330.267 330.883L342.29 332.721C344.5 333.054 346.75 332.988 348.934 332.508L362.674 329.485H399.061V300.172H399.087Z" fill="#FFC6BB" stroke="black" stroke-width="0.3689" stroke-miterlimit="10" stroke-linecap="round" stroke-linejoin="round"/>
<path d="M324.343 306.938L334.115 304.341" stroke="black" stroke-width="0.3689" stroke-miterlimit="10" stroke-linecap="round" stroke-linejoin="round"/>
<path d="M325.887 314.835L334.594 313.943" stroke="black" stroke-width="0.3689" stroke-miterlimit="10" stroke-linecap="round" stroke-linejoin="round"/>
<path d="M327.991 322.639L336.699 321.76" stroke="black" stroke-width="0.3689" stroke-miterlimit="10" stroke-linecap="round" stroke-linejoin="round"/>
<path d="M348.987 248.205C342.383 248.205 336.365 244.849 332.89 239.229L332.744 239.003C328.976 232.89 327.791 225.671 329.415 218.679C330.573 213.672 334.98 210.183 340.106 210.183C342.529 210.183 344.926 210.995 346.843 212.487L354.112 218.133L350.331 223.008L343.062 217.361C342.223 216.708 341.171 216.349 340.106 216.349C337.856 216.349 335.926 217.88 335.406 220.078C334.155 225.472 335.06 231.052 337.976 235.766L338.122 235.993C340.466 239.788 344.526 242.052 348.987 242.052V248.205Z" fill="#F2BD46" stroke="black" stroke-width="0.3689" stroke-miterlimit="10"/>
<path d="M379.875 254.851H348.241C346.311 254.851 344.753 253.293 344.753 251.362V203.524H383.35V251.362C383.364 253.28 381.806 254.851 379.875 254.851Z" fill="#F2BD46"/>
<path d="M344.766 245.622H383.363" stroke="white" stroke-width="0.4628" stroke-miterlimit="10" stroke-linecap="round" stroke-linejoin="round"/>
<path d="M368.611 245.622L378.863 203.524" stroke="white" stroke-width="0.4628" stroke-miterlimit="10" stroke-linecap="round" stroke-linejoin="round"/>
<path d="M376.174 245.622L383.363 223.714" stroke="white" stroke-width="0.4628" stroke-miterlimit="10" stroke-linecap="round" stroke-linejoin="round"/>
<path d="M359.518 245.622L349.267 203.524" stroke="white" stroke-width="0.4628" stroke-miterlimit="10" stroke-linecap="round" stroke-linejoin="round"/>
<path d="M351.955 245.622L344.766 223.714" stroke="white" stroke-width="0.4628" stroke-miterlimit="10" stroke-linecap="round" stroke-linejoin="round"/>
<path d="M364.071 245.622V203.524" stroke="white" stroke-width="0.4628" stroke-miterlimit="10" stroke-linecap="round" stroke-linejoin="round"/>
<path d="M379.875 254.851H348.241C346.311 254.851 344.753 253.293 344.753 251.362V203.524H383.35V251.362C383.364 253.28 381.806 254.851 379.875 254.851Z" stroke="black" stroke-width="0.3689" stroke-miterlimit="10"/>
<path d="M347.961 250.896C349.399 249.005 349.04 246.301 347.149 244.863L342.569 241.373C341.198 240.335 339.574 239.775 337.883 239.775C337.59 239.775 337.31 239.789 337.017 239.829L332.291 240.335L332.184 239.576L342.729 237.804C345.072 237.405 346.657 235.194 346.257 232.85C345.911 230.772 344.127 229.254 342.023 229.254C341.784 229.254 341.544 229.267 341.304 229.321L325.301 232.011L324.702 231.518L341.065 226.697C342.17 226.377 343.075 225.645 343.634 224.633C344.194 223.621 344.313 222.462 343.981 221.357C343.448 219.532 341.757 218.267 339.853 218.267C339.454 218.267 339.041 218.333 338.642 218.44L322.012 223.354C319.323 224.153 317.006 225.898 315.515 228.282L312.626 232.903L301.003 251.455L287.582 268.209L283.349 273.057L302.934 294.459L316.793 276.879L321.041 274.695C323.584 273.39 325.714 271.419 327.245 269.008L334.674 257.182L337.47 256.569L342.423 258.82C342.902 259.033 343.395 259.14 343.914 259.14C345.325 259.14 346.617 258.314 347.203 257.022C347.975 255.317 347.296 253.333 345.711 252.414C346.59 252.161 347.389 251.655 347.961 250.896ZM335.939 249.497L333.649 250.004L333.489 248.858L337.616 248.419L339.068 249.524C338.548 249.404 338.003 249.338 337.47 249.338C336.951 249.338 336.445 249.391 335.939 249.497Z" fill="#FFC6BB" stroke="black" stroke-width="0.3689" stroke-miterlimit="10" stroke-linecap="round" stroke-linejoin="round"/>
<path d="M319.976 232.903L341.305 229.321C341.544 229.281 341.784 229.254 342.024 229.254C344.127 229.254 345.911 230.759 346.257 232.85C346.644 235.194 345.059 237.418 342.729 237.804L323.49 241.027" stroke="black" stroke-width="0.3689" stroke-miterlimit="10" stroke-linecap="round" stroke-linejoin="round"/>
<path d="M327.125 249.551L337.616 248.419L339.068 249.524" stroke="black" stroke-width="0.3689" stroke-miterlimit="10" stroke-linecap="round" stroke-linejoin="round"/>
<path d="M345.738 252.414C346.617 252.174 347.389 251.642 347.962 250.896C349.4 249.005 349.027 246.301 347.15 244.863L342.57 241.374C341.212 240.335 339.587 239.775 337.896 239.775C337.617 239.775 337.324 239.802 337.031 239.829L323.504 241.693" stroke="black" stroke-width="0.3689" stroke-miterlimit="10" stroke-linecap="round" stroke-linejoin="round"/>
<path d="M327.458 251.375L335.939 249.511C336.432 249.404 336.951 249.351 337.457 249.351C338.482 249.351 339.507 249.577 340.426 249.99L345.405 252.254C347.216 253.08 348.028 255.224 347.203 257.035C346.617 258.327 345.325 259.153 343.914 259.153C343.395 259.153 342.902 259.046 342.423 258.833L337.47 256.582L329.881 258.261" stroke="black" stroke-width="0.3689" stroke-miterlimit="10" stroke-linecap="round" stroke-linejoin="round"/>
<path d="M295.198 256.01L251.595 318.484C244.245 329.005 247.414 343.549 258.451 350.088C269.675 356.72 284.174 352.205 289.659 340.366L318.351 278.371L295.198 256.01Z" fill="#AEC7FF" stroke="black" stroke-width="0.3689" stroke-miterlimit="10"/>
<path d="M295.198 256.01L318.338 278.384L310.123 296.15L283.854 272.258L295.198 256.01Z" fill="white" stroke="black" stroke-width="0.3689" stroke-miterlimit="10"/>
<path d="M425.861 296.15L367.439 299.706V332.202L421.215 332.055" fill="#AEC7FF"/>
<path d="M367.439 299.706V332.202H383.363V298.827L367.439 299.706Z" fill="white"/>
<path d="M425.861 296.15L367.439 299.706V332.202H383.363V332.149L421.215 332.055" stroke="black" stroke-width="0.3689" stroke-miterlimit="10"/>
<path d="M415.49 286.814L418.925 244.516" stroke="black" stroke-width="0.3689" stroke-miterlimit="10" stroke-linecap="round" stroke-linejoin="round"/>
<path d="M342.103 147.482C342.103 149.546 340.426 151.211 338.375 151.211C336.325 151.211 334.647 149.533 334.647 147.482C334.647 145.418 336.325 143.753 338.375 143.753C340.426 143.753 342.103 145.418 342.103 147.482Z" fill="white" stroke="black" stroke-width="0.3689" stroke-miterlimit="10"/>
<path d="M383.363 298.827V332.202" stroke="black" stroke-width="0.3689" stroke-miterlimit="10" stroke-linecap="round" stroke-linejoin="round"/>
<path d="M805.111 126.852C804.738 126.666 804.352 126.559 803.966 126.493L805.217 123.949C806.322 121.712 805.39 119.008 803.167 117.916C802.261 117.477 801.276 117.37 800.358 117.543C800.97 115.479 800.025 113.215 798.028 112.229C795.791 111.124 793.101 112.056 791.996 114.28L791.024 116.238C790.598 115.386 789.919 114.64 788.987 114.187C786.751 113.082 784.061 114.014 782.956 116.238L772.971 136.548L765.275 142.94L760.402 133.431C759.151 130.994 756.168 130.035 753.732 131.287C751.295 132.539 750.337 135.522 751.588 137.96L754.77 144.166L757.273 168.418L757.3 168.431L735.838 244.024L772.358 248.698L783.941 176.861L790.359 170.895C792.609 168.791 794.273 166.14 795.192 163.197L800.105 147.282L807.188 132.899C808.266 130.648 807.347 127.958 805.111 126.852Z" fill="#FFC6BB" stroke="black" stroke-width="0.3689" stroke-miterlimit="10"/>
<path d="M798.041 112.229C795.804 111.137 793.101 112.043 792.01 114.28L791.051 116.225V116.238L779.654 139.398" stroke="black" stroke-width="0.3689" stroke-miterlimit="10" stroke-linecap="round" stroke-linejoin="round"/>
<path d="M803.167 117.916C802.262 117.463 801.276 117.343 800.371 117.53C799.026 117.77 797.788 118.635 797.149 119.967L785.832 142.941" stroke="black" stroke-width="0.3689" stroke-miterlimit="10" stroke-linecap="round" stroke-linejoin="round"/>
<path d="M790.691 145.964L799.079 128.917C800.184 126.679 802.874 125.76 805.11 126.866" stroke="black" stroke-width="0.3689" stroke-miterlimit="10" stroke-linecap="round" stroke-linejoin="round"/>
<path d="M766.953 142.954C776.899 142.954 781.838 153.542 778.43 164.129" stroke="black" stroke-width="0.3689" stroke-miterlimit="10" stroke-linecap="round" stroke-linejoin="round"/>
<path d="M702.806 315.621H576.908L532.16 694.717H598.557L644.277 410.685L689.984 694.717H756.381L702.806 315.621Z" fill="#3C497C" stroke="black" stroke-width="0.3689" stroke-miterlimit="10"/>
<path d="M737.515 226.004L729.3 256.023L711.246 184.306C709.516 177.407 705.242 171.587 699.49 167.818C699.424 168.484 699.384 169.137 699.317 169.803L674.127 166.22L668.069 159.828C666.778 158.469 665.02 157.643 663.143 157.524L645.076 156.352V155.579L639.098 155.965L633.133 155.579V156.352L614.986 157.524C613.109 157.643 611.338 158.469 610.047 159.841L603.989 166.22L571.622 175.117C560.931 178.06 553.209 186.863 551.319 197.358L551.252 197.318L535.488 316.367L566.11 333.534L570.451 370.451H633.133H645.089H712.045L709.209 315.821C709.236 315.861 709.263 315.887 709.289 315.927L709.462 316.194L709.476 316.167C715.627 324.131 725.186 329.005 735.558 329.005C751.069 329.005 764.489 318.191 767.778 303.022L777.83 234.808L737.515 226.004Z" fill="#708AED" stroke="black" stroke-width="0.3689" stroke-miterlimit="10"/>
<path d="M642.373 422.498L647.379 389.989" stroke="black" stroke-width="0.3689" stroke-miterlimit="10" stroke-linecap="round" stroke-linejoin="round"/>
<path d="M655.327 326.222L657.91 367.761C658.03 369.652 656.592 371.277 654.702 371.396L628.193 373.048C626.303 373.168 624.678 371.729 624.559 369.838L621.976 328.3C621.856 326.408 623.294 324.784 625.184 324.664L651.693 323.012C653.583 322.892 655.207 324.331 655.327 326.222Z" fill="white"/>
<path d="M657.591 362.593L657.91 367.747C658.03 369.638 656.592 371.263 654.702 371.383L628.194 373.035C626.303 373.154 624.679 371.716 624.559 369.825L624.239 364.671L657.591 362.593Z" fill="#92AFFF"/>
<path d="M655.327 326.222L657.91 367.761C658.03 369.652 656.592 371.277 654.702 371.396L628.193 373.048C626.303 373.168 624.678 371.729 624.559 369.838L621.976 328.3C621.856 326.408 623.294 324.784 625.184 324.664L651.693 323.012C653.583 322.892 655.207 324.331 655.327 326.222Z" stroke="black" stroke-width="0.3689" stroke-miterlimit="10"/>
<path d="M645.675 326.888C645.701 327.287 645.395 327.62 644.996 327.647L642.506 327.793L639.976 327.953L637.061 328.14L635.237 328.246L632.387 328.419C631.988 328.446 631.655 328.153 631.629 327.754C631.602 327.354 631.908 327.021 632.308 326.994L635.077 326.821L635.596 326.781L637.26 326.688L639.817 326.528L641.468 326.435L642.692 326.355L644.903 326.209C645.302 326.182 645.648 326.488 645.675 326.888Z" fill="#DDB33E" stroke="black" stroke-width="0.3689" stroke-miterlimit="10"/>
<path d="M648.112 342.843C648.272 345.333 647.326 347.637 645.715 349.289C644.304 350.74 642.36 351.699 640.177 351.832C637.993 351.966 635.956 351.26 634.358 349.995C632.548 348.556 631.336 346.385 631.19 343.895C630.897 339.22 634.452 335.198 639.125 334.905C643.798 334.612 647.819 338.168 648.112 342.843Z" fill="#92AFFF"/>
<path d="M662.344 183.866L642.706 326.355L642.506 327.794L639.976 327.953L637.061 328.14L637.26 326.688L638.632 316.42L655.421 191.138L656.299 190.925L662.344 183.866Z" fill="#354F8E" stroke="black" stroke-width="0.3689" stroke-miterlimit="10"/>
<path d="M639.977 327.953L637.061 328.14L635.237 328.246L635.064 326.821L618.794 191.151L619.193 191.671C620.418 193.229 622.735 193.336 624.093 191.924L638.619 316.407L639.803 326.515L639.977 327.953Z" fill="#506ABA" stroke="black" stroke-width="0.3689" stroke-miterlimit="10"/>
<path d="M642.452 340.206C642.559 341.857 641.307 343.269 639.657 343.376C638.006 343.482 636.594 342.23 636.488 340.579C636.381 338.927 637.633 337.516 639.284 337.409C640.935 337.303 642.346 338.555 642.452 340.206Z" fill="white"/>
<path d="M645.728 349.289C644.317 350.74 642.373 351.699 640.189 351.832C638.006 351.966 635.969 351.26 634.371 349.995L634.77 346.598C634.89 345.573 635.729 344.787 636.754 344.721L642.706 344.348C643.731 344.281 644.663 344.96 644.902 345.959L645.728 349.289Z" fill="white"/>
<path d="M651.189 354.301L629.621 355.645L629.705 356.988L651.272 355.643L651.189 354.301Z" fill="#92AFFF"/>
<path d="M651.427 358.234L629.859 359.578L629.943 360.921L651.511 359.576L651.427 358.234Z" fill="#92AFFF"/>
<path d="M624.239 364.671L657.591 362.593" stroke="black" stroke-width="0.3689" stroke-miterlimit="10"/>
<path d="M636.356 210.702L631.004 184.745L624.133 191.91C622.762 193.349 620.432 193.229 619.221 191.671L602.179 169.909" stroke="black" stroke-width="0.3689" stroke-miterlimit="10" stroke-linecap="round" stroke-linejoin="round"/>
<path d="M638.485 224.699L645.062 183.92L652.638 190.672C653.903 191.804 655.847 191.657 656.939 190.366L674.1 169.909" stroke="black" stroke-width="0.3689" stroke-miterlimit="10" stroke-linecap="round" stroke-linejoin="round"/>
<path d="M666.552 97.473V108.221L658.23 107.222L653.69 106.689L617.583 102.387L603.962 100.749L602.271 100.549C602.271 95.9547 603.443 91.6397 605.507 87.884C606.732 85.6733 608.263 83.6622 610.02 81.9176C614.787 77.1897 621.311 74.2598 628.553 74.2598H643.359C656.167 74.2598 666.552 84.6345 666.552 97.473Z" fill="black"/>
<path d="M662.464 160.746L638.872 186.344L617.609 161.293V117.05H662.464V160.746Z" fill="#FFC6BB" stroke="black" stroke-width="0.3689" stroke-miterlimit="10"/>
<path d="M594.855 111.23C594.855 114.64 598.211 119.581 601.273 123.39C603.816 126.546 608.649 126.546 611.192 123.39C614.254 119.581 617.609 114.64 617.609 111.23C617.609 104.944 612.51 99.8435 606.226 99.8435C599.941 99.8435 594.855 104.944 594.855 111.23Z" fill="#FFC6BB" stroke="black" stroke-width="0.3689" stroke-miterlimit="10"/>
<path d="M600.301 105.863C601.765 104.238 603.882 103.226 606.225 103.226" stroke="black" stroke-width="0.4612" stroke-miterlimit="10" stroke-linecap="round" stroke-linejoin="round"/>
<path d="M652.585 130.928C642.799 146.683 632.082 149.506 617.609 147.815V139.917L652.585 130.928Z" fill="black"/>
<path d="M627.315 144.046C611.871 144.046 599.981 130.422 602.045 115.119L605.546 89.2158L630.018 81.9043L658.23 85.6333V113.135C658.23 130.208 644.383 144.046 627.315 144.046Z" fill="#FFC6BB" stroke="black" stroke-width="0.2767" stroke-miterlimit="10"/>
<path d="M633.466 112.282C632.095 113.321 630.137 113.042 629.099 111.67C628.06 110.298 628.34 108.34 629.711 107.302C631.083 106.263 633.04 106.542 634.078 107.914C635.117 109.286 634.837 111.244 633.466 112.282Z" fill="black"/>
<path d="M612.11 112.282C610.739 113.321 608.782 113.042 607.743 111.67C606.705 110.298 606.985 108.34 608.356 107.302C609.727 106.263 611.684 106.542 612.723 107.914C613.761 109.286 613.482 111.244 612.11 112.282Z" fill="black"/>
<path d="M634.571 120.38C631.136 127.292 623.467 128.131 617.622 124.322C616.677 123.696 616.877 122.151 617.942 121.911L633.186 118.449C634.198 118.236 635.05 119.408 634.571 120.38Z" fill="white"/>
<path d="M659.495 115.878L662.464 129.13L666.552 117.317L659.495 115.878Z" fill="black"/>
<path d="M674.686 110.138C674.686 113.548 671.331 118.489 668.269 122.298C665.726 125.454 660.893 125.454 658.35 122.298C655.288 118.489 651.933 113.548 651.933 110.138C651.933 103.852 657.032 98.7515 663.316 98.7515C669.587 98.7515 674.686 103.852 674.686 110.138Z" fill="#FFC6BB"/>
<path d="M655.554 101.815C657.591 99.9235 660.307 98.7649 663.316 98.7649C669.6 98.7649 674.699 103.866 674.699 110.152C674.699 113.561 671.344 118.502 668.282 122.311C666.085 125.028 662.184 125.401 659.521 123.43" stroke="black" stroke-width="0.2767" stroke-miterlimit="10"/>
<path d="M660.467 103.399C661.346 103.026 662.304 102.827 663.316 102.827C666.684 102.827 669.52 105.117 670.372 108.207" stroke="black" stroke-width="0.4612" stroke-miterlimit="10" stroke-linecap="round" stroke-linejoin="round"/>
<path d="M610.02 81.9175C608.262 83.6621 606.731 85.6731 605.506 87.8839L603.962 100.749L603.709 102.827H607.131L610.14 96.807L609.061 102.827H612.603L615.798 96.2742L614.626 102.827H615.013C615.905 102.827 616.77 102.667 617.569 102.387C620.019 101.522 621.949 99.3773 622.455 96.6871L623.587 90.9071C624.186 87.844 626.875 85.6465 629.991 85.6465L634.491 99.0044C635.25 101.295 637.407 102.827 639.803 102.827H653.131C653.117 104.292 653.304 105.57 653.663 106.689C654.422 109.02 655.98 110.658 658.203 111.71V81.9175H610.02Z" fill="black"/>
<path d="M637.447 115.612H625.731C625.358 115.612 625.052 115.306 625.052 114.933V108.354C625.052 107.981 625.358 107.675 625.731 107.675H637.447C637.82 107.675 638.126 107.981 638.126 108.354V114.933C638.126 115.306 637.82 115.612 637.447 115.612Z" stroke="white" stroke-width="0.8068" stroke-miterlimit="10"/>
<path d="M617.116 115.612H605.4C605.027 115.612 604.721 115.306 604.721 114.933V108.354C604.721 107.981 605.027 107.675 605.4 107.675H617.116C617.489 107.675 617.795 107.981 617.795 108.354V114.933C617.795 115.306 617.489 115.612 617.116 115.612Z" stroke="white" stroke-width="0.8068" stroke-miterlimit="10"/>
<path d="M620.937 107.595C619.579 110.898 617.196 113.468 614.267 115.625C613.069 116.504 613.721 118.422 615.199 118.422L622.655 118.475" fill="#FFC6BB"/>
<path d="M620.937 107.595C619.579 110.898 617.196 113.468 614.267 115.625C613.069 116.504 613.721 118.422 615.199 118.422L622.655 118.475" stroke="black" stroke-width="1.002" stroke-miterlimit="10" stroke-linecap="round" stroke-linejoin="round"/>
<path d="M617.423 110.818H625.425" stroke="white" stroke-width="0.7605" stroke-miterlimit="10"/>
<path d="M732.217 245.608L726.398 266.677" stroke="black" stroke-width="0.3689" stroke-miterlimit="10" stroke-linecap="round" stroke-linejoin="round"/>
<path d="M577.081 385.327L577.002 385.886L567.735 422.657L557.124 406.609C555.207 403.706 553.849 400.496 553.103 397.1L535.462 316.353L564.966 316.34L571.902 381.665L577.081 385.327Z" fill="#FFC6BB" stroke="black" stroke-width="0.3689" stroke-miterlimit="10"/>
<path d="M570.784 315.514L584.085 226.364" stroke="black" stroke-width="0.3689" stroke-miterlimit="10" stroke-linecap="round" stroke-linejoin="round"/>
<path d="M709.277 315.927L697.228 223.714" stroke="black" stroke-width="0.3689" stroke-miterlimit="10" stroke-linecap="round" stroke-linejoin="round"/>
<path d="M735.838 232.131L771.519 244.024" stroke="black" stroke-width="0.3689" stroke-miterlimit="10" stroke-linecap="round" stroke-linejoin="round"/>
<path d="M773.835 251.029L740.244 249.777" stroke="black" stroke-width="0.3689" stroke-miterlimit="10" stroke-linecap="round" stroke-linejoin="round"/>
<path d="M758.405 244.024L741.51 242.759" stroke="black" stroke-width="0.3689" stroke-miterlimit="10" stroke-linecap="round" stroke-linejoin="round"/>
<path d="M536.993 304.807L565.206 308.922" stroke="black" stroke-width="0.3689" stroke-miterlimit="10" stroke-linecap="round" stroke-linejoin="round"/>
<path d="M569.705 297.588L546.166 299.573" stroke="black" stroke-width="0.3689" stroke-miterlimit="10" stroke-linecap="round" stroke-linejoin="round"/>
<path d="M565.978 429.623L567.735 422.644L577.002 385.887L579.052 377.723" stroke="black" stroke-width="0.3689" stroke-miterlimit="10" stroke-linecap="round" stroke-linejoin="round"/>
<path d="M718.61 195.853C718.61 195.853 717.371 189.54 716.04 183.227C715.561 178.659 713.737 174.464 710.941 171.068C709.143 168.897 706.96 167.046 704.47 165.634H704.457L704.404 165.608C703.432 165.075 702.42 164.595 701.368 164.196L699.65 163.397C692.967 160.294 685.285 160.187 678.521 163.117C677.469 163.57 676.604 164.422 676.231 165.514L674.354 170.415L669.814 173.785C667.883 175.21 667.484 177.94 668.908 179.871C670.333 181.802 673.062 182.202 674.993 180.777L684.899 173.438L685.138 174.917L681.836 183.667C680.572 187.036 679.214 190.552 677.909 193.961C677.19 195.786 677.816 197.97 679.52 198.982C680.172 199.369 680.878 199.555 681.583 199.555C683.181 199.555 684.699 198.569 685.311 196.998C688.294 189.247 690.544 183.427 692.195 179.032L692.314 179.085C690.57 185.465 688.32 193.589 686.15 201.22C685.591 203.217 686.523 205.415 688.44 206.201C688.933 206.387 689.452 206.48 689.945 206.48C691.702 206.48 693.313 205.335 693.792 203.577C696.362 194.521 698.279 187.742 699.69 182.628L699.97 182.761C699.278 188.288 698.439 194.667 697.707 199.888C697.427 202.072 698.812 204.203 700.969 204.563C701.195 204.602 701.435 204.629 701.661 204.629C703.631 204.629 705.349 203.177 705.615 201.166C706.56 194.294 707.293 188.901 707.852 184.639L708.93 184.452C709.769 188.421 710.688 192.949 711.54 197.264C711.873 198.982 713.391 200.168 715.055 200.168C715.308 200.168 715.534 200.141 715.76 200.101C717.731 199.701 718.996 197.81 718.61 195.853Z" fill="#FFC6BB" stroke="black" stroke-width="0.35" stroke-miterlimit="10"/>
<path d="M686.696 170.988L681.41 184.839" stroke="black" stroke-width="0.3689" stroke-miterlimit="10" stroke-linecap="round" stroke-linejoin="round"/>
<path d="M693.326 175.929L691.209 183.174" stroke="black" stroke-width="0.3689" stroke-miterlimit="10" stroke-linecap="round" stroke-linejoin="round"/>
<path d="M700.13 181.216L698.346 187.289" stroke="black" stroke-width="0.3689" stroke-miterlimit="10" stroke-linecap="round" stroke-linejoin="round"/>
<path d="M708.251 182.175L707.213 189.513" stroke="black" stroke-width="0.3689" stroke-miterlimit="10" stroke-linecap="round" stroke-linejoin="round"/>
</g>
<mask id="mask1_893_3904" style="mask-type:luminance" maskUnits="userSpaceOnUse" x="0" y="-1" width="909" height="678">
<path d="M909 -1H0V676.99H909V-1Z" fill="white"/>
</mask>
<g mask="url(#mask1_893_3904)">
<path d="M322.119 25.9421V9.44116" stroke="white" stroke-width="2.1085" stroke-miterlimit="10"/>
</g>
<mask id="mask2_893_3904" style="mask-type:luminance" maskUnits="userSpaceOnUse" x="0" y="-1" width="909" height="678">
<path d="M909 -1H0V676.99H909V-1Z" fill="white"/>
</mask>
<g mask="url(#mask2_893_3904)">
<path d="M330.28 27.7934L339.454 14.6353" stroke="white" stroke-width="2.1085" stroke-miterlimit="10"/>
</g>
<mask id="mask3_893_3904" style="mask-type:luminance" maskUnits="userSpaceOnUse" x="0" y="-1" width="909" height="678">
<path d="M909 -1H0V676.99H909V-1Z" fill="white"/>
</mask>
<g mask="url(#mask3_893_3904)">
<path d="M313.957 27.7934L304.771 14.6353" stroke="white" stroke-width="2.1085" stroke-miterlimit="10"/>
</g>
<defs>
<radialGradient id="paint0_radial_893_3904" cx="0" cy="0" r="1" gradientUnits="userSpaceOnUse" gradientTransform="translate(506.937 119.787) rotate(125.492) scale(9.31245 9.31155)">
<stop offset="0.1051" stop-color="#F89B98"/>
<stop offset="0.996" stop-color="#FFC6BB"/>
</radialGradient>
<radialGradient id="paint1_radial_893_3904" cx="0" cy="0" r="1" gradientUnits="userSpaceOnUse" gradientTransform="translate(472.639 119.787) rotate(125.492) scale(9.31244 9.31154)">
<stop offset="0.1051" stop-color="#F89B98"/>
<stop offset="0.996" stop-color="#FFC6BB"/>
</radialGradient>
</defs>
</svg>
