<svg width="340" height="40" viewBox="0 0 340 40" fill="none" xmlns="http://www.w3.org/2000/svg">
<path d="M7.99621 39.9967C3.57478 39.9967 0 36.422 0 32.0005V7.99621C0 3.57478 3.57478 0 7.99621 0C12.4176 0 15.9924 3.57478 15.9924 7.99621V32.0005C15.9924 36.422 12.4176 39.9967 7.99621 39.9967Z" fill="#2F54EB"/>
<path d="M11.2268 25.6388C8.1067 22.5187 8.1067 17.4545 11.2268 14.3187L23.2054 2.34007C26.3255 -0.780023 31.3898 -0.780023 34.5256 2.34007C37.6456 5.46016 37.6456 10.5244 34.5256 13.6602L22.5469 25.6388C19.4111 28.7746 14.3469 28.7746 11.2268 25.6388Z" fill="#57A2F8"/>
<path d="M34.5208 37.658C31.4007 40.7781 26.3364 40.7781 23.2007 37.658L11.1907 25.648C8.07056 22.5279 8.07056 17.4636 11.1907 14.3279C14.3107 11.2078 19.375 11.2078 22.5108 14.3279L34.5208 26.3379C37.6409 29.4579 37.6409 34.5222 34.5208 37.658Z" fill="#B2DCFF"/>
<rect x="44.0068" y="17.999" width="10" height="4" fill="#121212"/>
<path d="M161.787 6.51709V33.1571H156.747V6.51709H161.787Z" fill="#121212"/>
<path d="M131.772 23.1132C131.772 21.0972 132.168 19.3092 132.96 17.7492C133.776 16.1892 134.868 14.9892 136.236 14.1492C137.628 13.3092 139.176 12.8892 140.88 12.8892C142.368 12.8892 143.664 13.1892 144.768 13.7892C145.896 14.3892 146.796 15.1452 147.468 16.0572V13.2132H152.544V33.1572H147.468V30.2412C146.82 31.1772 145.92 31.9572 144.768 32.5812C143.64 33.1812 142.332 33.4812 140.844 33.4812C139.164 33.4812 137.628 33.0492 136.236 32.1852C134.868 31.3212 133.776 30.1092 132.96 28.5492C132.168 26.9652 131.772 25.1532 131.772 23.1132ZM147.468 23.1852C147.468 21.9612 147.228 20.9172 146.748 20.0532C146.268 19.1652 145.62 18.4932 144.804 18.0372C143.988 17.5572 143.112 17.3172 142.176 17.3172C141.24 17.3172 140.376 17.5452 139.584 18.0012C138.792 18.4572 138.144 19.1292 137.64 20.0172C137.16 20.8812 136.92 21.9132 136.92 23.1132C136.92 24.3132 137.16 25.3692 137.64 26.2812C138.144 27.1692 138.792 27.8532 139.584 28.3332C140.4 28.8132 141.264 29.0532 142.176 29.0532C143.112 29.0532 143.988 28.8252 144.804 28.3692C145.62 27.8892 146.268 27.2172 146.748 26.3532C147.228 25.4652 147.468 24.4092 147.468 23.1852Z" fill="#121212"/>
<path d="M125.699 17.353V27.001C125.699 27.673 125.855 28.165 126.167 28.477C126.503 28.765 127.055 28.909 127.823 28.909H130.163V33.157H126.995C122.747 33.157 120.623 31.093 120.623 26.965V17.353H118.247V13.213H120.623V8.28101H125.699V13.213H130.163V17.353H125.699Z" fill="#121212"/>
<path d="M111.036 16.309C111.684 15.253 112.524 14.425 113.556 13.8251C114.612 13.225 115.812 12.925 117.156 12.925V18.217H115.824C114.24 18.217 113.04 18.5891 112.224 19.3331C111.432 20.0771 111.036 21.373 111.036 23.221V33.1571H105.996V13.213H111.036V16.309Z" fill="#121212"/>
<path d="M92.615 33.4812C90.695 33.4812 88.967 33.0612 87.431 32.2212C85.895 31.3572 84.683 30.1452 83.795 28.5852C82.931 27.0252 82.499 25.2252 82.499 23.1852C82.499 21.1452 82.943 19.3452 83.831 17.7852C84.743 16.2252 85.979 15.0252 87.539 14.1852C89.099 13.3212 90.839 12.8892 92.759 12.8892C94.679 12.8892 96.419 13.3212 97.979 14.1852C99.539 15.0252 100.763 16.2252 101.651 17.7852C102.563 19.3452 103.019 21.1452 103.019 23.1852C103.019 25.2252 102.551 27.0252 101.615 28.5852C100.703 30.1452 99.455 31.3572 97.871 32.2212C96.311 33.0612 94.559 33.4812 92.615 33.4812ZM92.615 29.0892C93.527 29.0892 94.379 28.8732 95.171 28.4412C95.987 27.9852 96.635 27.3132 97.115 26.4252C97.595 25.5372 97.835 24.4572 97.835 23.1852C97.835 21.2892 97.331 19.8372 96.323 18.8292C95.339 17.7972 94.127 17.2812 92.687 17.2812C91.247 17.2812 90.035 17.7972 89.051 18.8292C88.091 19.8372 87.611 21.2892 87.611 23.1852C87.611 25.0812 88.079 26.5452 89.015 27.5772C89.975 28.5852 91.175 29.0892 92.615 29.0892Z" fill="#121212"/>
<path d="M80.9011 15.8051C80.9011 17.1491 80.5772 18.4091 79.9291 19.5851C79.3052 20.7611 78.3091 21.7091 76.9411 22.4291C75.5971 23.1491 73.8931 23.5091 71.8291 23.5091H67.6171V33.1571H62.5771V8.02905H71.8291C73.7731 8.02905 75.4291 8.36505 76.7971 9.03705C78.1651 9.70905 79.1851 10.6331 79.8571 11.8091C80.5531 12.9851 80.9011 14.3171 80.9011 15.8051ZM71.6131 19.4411C73.0051 19.4411 74.0371 19.1291 74.7091 18.5051C75.3811 17.8571 75.7171 16.9571 75.7171 15.8051C75.7171 13.3571 74.3491 12.1331 71.6131 12.1331H67.6171V19.4411H71.6131Z" fill="#121212"/>
<path d="M233.918 12.3492V17.4612H242.162V22.2132H233.918V27.7572H243.242V32.6892H227.762V7.41724H243.242V12.3492H233.918Z" fill="#121212"/>
<path d="M224.02 32.6892H217.864L207.568 17.1012V32.6892H201.412V7.41724H207.568L217.864 23.0772V7.41724H224.02V32.6892Z" fill="#121212"/>
<path d="M185.783 32.9411C183.407 32.9411 181.223 32.3891 179.231 31.2851C177.263 30.1811 175.691 28.6451 174.515 26.6771C173.363 24.6851 172.787 22.4531 172.787 19.9811C172.787 17.5091 173.363 15.2891 174.515 13.3211C175.691 11.3531 177.263 9.81713 179.231 8.71313C181.223 7.60913 183.407 7.05713 185.783 7.05713C188.159 7.05713 190.331 7.60913 192.299 8.71313C194.291 9.81713 195.851 11.3531 196.979 13.3211C198.131 15.2891 198.707 17.5091 198.707 19.9811C198.707 22.4531 198.131 24.6851 196.979 26.6771C195.827 28.6451 194.267 30.1811 192.299 31.2851C190.331 32.3891 188.159 32.9411 185.783 32.9411ZM185.783 27.3251C187.799 27.3251 189.407 26.6531 190.607 25.3091C191.831 23.9651 192.443 22.1891 192.443 19.9811C192.443 17.7491 191.831 15.9731 190.607 14.6531C189.407 13.3091 187.799 12.6371 185.783 12.6371C183.743 12.6371 182.111 13.2971 180.887 14.6171C179.687 15.9371 179.087 17.7251 179.087 19.9811C179.087 22.2131 179.687 24.0011 180.887 25.3451C182.111 26.6651 183.743 27.3251 185.783 27.3251Z" fill="#121212"/>
<path d="M313.582 32.5296L310.085 28.4866V32.5296H308.603V23.4946H310.085V27.6156L313.595 23.4946H315.454L311.528 28.0186L315.519 32.5296H313.582Z" fill="#BBBBBB"/>
<path d="M305.341 32.5296L303.261 28.9156H302.13V32.5296H300.648V23.4946H303.768C304.462 23.4946 305.047 23.616 305.523 23.8586C306.009 24.1013 306.368 24.4263 306.602 24.8336C306.845 25.241 306.966 25.696 306.966 26.1986C306.966 26.788 306.793 27.3253 306.446 27.8106C306.108 28.2873 305.584 28.6123 304.873 28.7856L307.109 32.5296H305.341ZM302.13 27.7326H303.768C304.323 27.7326 304.739 27.594 305.016 27.3166C305.302 27.0393 305.445 26.6666 305.445 26.1986C305.445 25.7306 305.307 25.3666 305.029 25.1066C304.752 24.838 304.332 24.7036 303.768 24.7036H302.13V27.7326Z" fill="#BBBBBB"/>
<path d="M294.835 32.6207C293.994 32.6207 293.218 32.4257 292.508 32.0357C291.806 31.637 291.247 31.0867 290.831 30.3847C290.423 29.674 290.22 28.8767 290.22 27.9927C290.22 27.1087 290.423 26.3157 290.831 25.6137C291.247 24.9117 291.806 24.3657 292.508 23.9757C293.218 23.577 293.994 23.3777 294.835 23.3777C295.684 23.3777 296.46 23.577 297.162 23.9757C297.872 24.3657 298.431 24.9117 298.839 25.6137C299.246 26.3157 299.45 27.1087 299.45 27.9927C299.45 28.8767 299.246 29.674 298.839 30.3847C298.431 31.0867 297.872 31.637 297.162 32.0357C296.46 32.4257 295.684 32.6207 294.835 32.6207ZM294.835 31.3337C295.433 31.3337 295.966 31.1994 296.434 30.9307C296.902 30.6534 297.266 30.2634 297.526 29.7607C297.794 29.2494 297.929 28.66 297.929 27.9927C297.929 27.3254 297.794 26.7404 297.526 26.2377C297.266 25.735 296.902 25.3494 296.434 25.0807C295.966 24.812 295.433 24.6777 294.835 24.6777C294.237 24.6777 293.704 24.812 293.236 25.0807C292.768 25.3494 292.399 25.735 292.131 26.2377C291.871 26.7404 291.741 27.3254 291.741 27.9927C291.741 28.66 291.871 29.2494 292.131 29.7607C292.399 30.2634 292.768 30.6534 293.236 30.9307C293.704 31.1994 294.237 31.3337 294.835 31.3337Z" fill="#BBBBBB"/>
<path d="M289.752 23.4946L287.074 32.5296H285.397L283.499 25.6916L281.484 32.5296L279.82 32.5426L277.259 23.4946H278.832L280.704 30.8526L282.732 23.4946H284.396L286.281 30.8136L288.166 23.4946H289.752Z" fill="#BBBBBB"/>
<path d="M276.745 23.4946V24.7036H274.34V32.5296H272.858V24.7036H270.44V23.4946H276.745Z" fill="#BBBBBB"/>
<path d="M265.834 24.6907V27.3427H268.954V28.5517H265.834V31.3207H269.344V32.5297H264.352V23.4817H269.344V24.6907H265.834Z" fill="#BBBBBB"/>
<path d="M262.665 32.5297H261.183L256.724 25.7827V32.5297H255.242V23.4817H256.724L261.183 30.2157V23.4817H262.665V32.5297Z" fill="#BBBBBB"/>
<path d="M301.155 11.8886C301.641 11.9753 302.052 12.231 302.39 12.6556C302.728 13.0803 302.897 13.5613 302.897 14.0986C302.897 14.558 302.776 14.974 302.533 15.3466C302.299 15.7106 301.957 16.001 301.506 16.2176C301.056 16.4256 300.531 16.5296 299.933 16.5296H296.319V7.49463H299.764C300.38 7.49463 300.908 7.59863 301.35 7.80663C301.792 8.01463 302.126 8.2963 302.351 8.65163C302.577 8.9983 302.689 9.3883 302.689 9.82163C302.689 10.3416 302.551 10.775 302.273 11.1216C301.996 11.4683 301.623 11.724 301.155 11.8886ZM297.801 11.2906H299.634C300.12 11.2906 300.497 11.1823 300.765 10.9656C301.043 10.7403 301.181 10.4196 301.181 10.0036C301.181 9.5963 301.043 9.27996 300.765 9.05463C300.497 8.82063 300.12 8.70363 299.634 8.70363H297.801V11.2906ZM299.803 15.3206C300.306 15.3206 300.7 15.1993 300.986 14.9566C301.272 14.714 301.415 14.376 301.415 13.9426C301.415 13.5006 301.264 13.1496 300.96 12.8896C300.657 12.6296 300.254 12.4996 299.751 12.4996H297.801V15.3206H299.803Z" fill="#BBBBBB"/>
<path d="M292.961 14.6837H289.178L288.528 16.5297H286.981L290.218 7.48169H291.934L295.171 16.5297H293.611L292.961 14.6837ZM292.545 13.4747L291.076 9.27569L289.594 13.4747H292.545Z" fill="#BBBBBB"/>
<path d="M283.48 15.3336H286.535V16.5296H281.998V7.49463H283.48V15.3336Z" fill="#BBBBBB"/>
<path d="M277.389 16.6207C276.783 16.6207 276.237 16.5167 275.751 16.3087C275.266 16.092 274.885 15.7887 274.607 15.3987C274.33 15.0087 274.191 14.5537 274.191 14.0337H275.777C275.812 14.4237 275.964 14.7444 276.232 14.9957C276.51 15.247 276.895 15.3727 277.389 15.3727C277.901 15.3727 278.299 15.2514 278.585 15.0087C278.871 14.7574 279.014 14.4367 279.014 14.0467C279.014 13.7434 278.923 13.4964 278.741 13.3057C278.568 13.115 278.347 12.9677 278.078 12.8637C277.818 12.7597 277.454 12.647 276.986 12.5257C276.397 12.3697 275.916 12.2137 275.543 12.0577C275.179 11.893 274.867 11.6417 274.607 11.3037C274.347 10.9657 274.217 10.515 274.217 9.95169C274.217 9.43169 274.347 8.97669 274.607 8.58669C274.867 8.19669 275.231 7.89769 275.699 7.68969C276.167 7.48169 276.709 7.37769 277.324 7.37769C278.2 7.37769 278.915 7.59869 279.469 8.04069C280.033 8.47402 280.345 9.07202 280.405 9.83469H278.767C278.741 9.50535 278.585 9.22369 278.299 8.98969C278.013 8.75569 277.636 8.63869 277.168 8.63869C276.744 8.63869 276.397 8.74702 276.128 8.96369C275.86 9.18035 275.725 9.49235 275.725 9.89969C275.725 10.177 275.808 10.4067 275.972 10.5887C276.146 10.762 276.362 10.9007 276.622 11.0047C276.882 11.1087 277.238 11.2214 277.688 11.3427C278.286 11.5074 278.772 11.672 279.144 11.8367C279.526 12.0014 279.846 12.257 280.106 12.6037C280.375 12.9417 280.509 13.3967 280.509 13.9687C280.509 14.428 280.384 14.8614 280.132 15.2687C279.89 15.676 279.53 16.0054 279.053 16.2567C278.585 16.4994 278.031 16.6207 277.389 16.6207Z" fill="#BBBBBB"/>
<path d="M272.725 7.49463V16.5296H271.243V10.3416L268.487 16.5296H267.46L264.691 10.3416V16.5296H263.209V7.49463H264.808L267.98 14.5796L271.139 7.49463H272.725Z" fill="#BBBBBB"/>
<path d="M260.221 16.5296L256.724 12.4866V16.5296H255.242V7.49463H256.724V11.6156L260.234 7.49463H262.093L258.167 12.0186L262.158 16.5296H260.221Z" fill="#BBBBBB"/>
</svg>
