<svg width="36" height="36" viewBox="0 0 36 36" fill="none" xmlns="http://www.w3.org/2000/svg">
<path d="M27.5997 11.8597C27.5995 11.3674 27.2176 10.9544 26.7372 10.9047L26.6399 10.9H9.35971C8.83465 10.9001 8.40009 11.3346 8.39996 11.8597V24.8193L8.40465 24.9165C8.45406 25.3973 8.8672 25.7801 9.35971 25.7802H26.6399C27.1651 25.7801 27.5997 25.3444 27.5997 24.8193V11.8597ZM29.9996 24.8193C29.9996 26.6699 28.4905 28.18 26.6399 28.1802H9.35971C7.62484 28.18 6.19024 26.8532 6.01758 25.1626L6 24.8193V11.8597C6.00013 10.0092 7.50919 8.50013 9.35971 8.5H26.6399L26.9821 8.51758C28.6729 8.69003 29.9995 10.1247 29.9996 11.8597V24.8193Z" fill="#777777"/>
<path d="M28.2162 11.0497C28.7471 10.7535 29.4269 10.9019 29.783 11.4107C30.1392 11.9197 30.0456 12.6095 29.585 13.0067L29.4877 13.0817L18.6879 20.6414C18.3264 20.8944 17.8603 20.9261 17.4727 20.7363L17.3121 20.6414L6.51229 13.0817L6.41502 13.0067C5.9544 12.6095 5.86081 11.9197 6.21698 11.4107C6.57315 10.9019 7.25288 10.7535 7.78375 11.0497L7.88805 11.1154L18 18.1934L28.112 11.1154L28.2162 11.0497Z" fill="#777777"/>
</svg>
