<svg width="22" height="22" viewBox="0 0 22 22" fill="none" xmlns="http://www.w3.org/2000/svg">
<mask id="mask0_1934_3162" style="mask-type:alpha" maskUnits="userSpaceOnUse" x="0" y="0" width="22" height="22">
<rect width="22" height="22" fill="#316094"/>
</mask>
<g mask="url(#mask0_1934_3162)">
<path d="M3.66732 18.3332C3.16315 18.3332 2.73155 18.1537 2.37253 17.7946C2.0135 17.4356 1.83398 17.004 1.83398 16.4998V5.49984C1.83398 4.99567 2.0135 4.56407 2.37253 4.20505C2.73155 3.84602 3.16315 3.6665 3.66732 3.6665H18.334C18.8382 3.6665 19.2697 3.84602 19.6288 4.20505C19.9878 4.56407 20.1673 4.99567 20.1673 5.49984V16.4998C20.1673 17.004 19.9878 17.4356 19.6288 17.7946C19.2697 18.1537 18.8382 18.3332 18.334 18.3332H3.66732ZM11.0007 11.9165L3.66732 7.33317V16.4998H18.334V7.33317L11.0007 11.9165ZM11.0007 10.0832L18.334 5.49984H3.66732L11.0007 10.0832ZM3.66732 7.33317V5.49984V16.4998V7.33317Z" fill="#316094"/>
</g>
</svg>
