<svg width="22" height="22" viewBox="0 0 22 22" fill="none" xmlns="http://www.w3.org/2000/svg">
<path d="M3.28711 5.85742H5.0014H18.7157" stroke="#777777" stroke-width="2" stroke-linecap="round" stroke-linejoin="round"/>
<path d="M17 5.85728V17.8573C17 18.3119 16.8194 18.748 16.4979 19.0695C16.1764 19.391 15.7404 19.5716 15.2857 19.5716H6.71429C6.25963 19.5716 5.82359 19.391 5.5021 19.0695C5.18061 18.748 5 18.3119 5 17.8573V5.85728M7.57143 5.85728V4.143C7.57143 3.68834 7.75204 3.2523 8.07353 2.93081C8.39502 2.60932 8.83106 2.42871 9.28571 2.42871H12.7143C13.1689 2.42871 13.605 2.60932 13.9265 2.93081C14.248 3.2523 14.4286 3.68834 14.4286 4.143V5.85728" stroke="#777777" stroke-width="2" stroke-linecap="round" stroke-linejoin="round"/>
<path d="M9.28711 10.1431V15.2859" stroke="#777777" stroke-width="2" stroke-linecap="round" stroke-linejoin="round"/>
<path d="M12.7148 10.1431V15.2859" stroke="#777777" stroke-width="2" stroke-linecap="round" stroke-linejoin="round"/>
</svg>
