<svg width="24" height="24" viewBox="0 0 24 24" fill="none" xmlns="http://www.w3.org/2000/svg">
<mask id="mask0_47_546" style="mask-type:alpha" maskUnits="userSpaceOnUse" x="0" y="0" width="24" height="24">
<rect width="24" height="24" fill="#D9D9D9"/>
</mask>
<g mask="url(#mask0_47_546)">
<path d="M4 21C3.71667 21 3.47917 20.9042 3.2875 20.7125C3.09583 20.5208 3 20.2833 3 20C3 19.7167 3.09583 19.4792 3.2875 19.2875C3.47917 19.0958 3.71667 19 4 19H5V4C5 3.71667 5.09583 3.47917 5.2875 3.2875C5.47917 3.09583 5.71667 3 6 3H14C14.2833 3 14.5208 3.09583 14.7125 3.2875C14.9042 3.47917 15 3.71667 15 4H18C18.2833 4 18.5208 4.09583 18.7125 4.2875C18.9042 4.47917 19 4.71667 19 5V19H20C20.2833 19 20.5208 19.0958 20.7125 19.2875C20.9042 19.4792 21 19.7167 21 20C21 20.2833 20.9042 20.5208 20.7125 20.7125C20.5208 20.9042 20.2833 21 20 21H18C17.7167 21 17.4792 20.9042 17.2875 20.7125C17.0958 20.5208 17 20.2833 17 20V6H15V20C15 20.2833 14.9042 20.5208 14.7125 20.7125C14.5208 20.9042 14.2833 21 14 21H4ZM12 12C12 11.7167 11.9042 11.4792 11.7125 11.2875C11.5208 11.0958 11.2833 11 11 11C10.7167 11 10.4792 11.0958 10.2875 11.2875C10.0958 11.4792 10 11.7167 10 12C10 12.2833 10.0958 12.5208 10.2875 12.7125C10.4792 12.9042 10.7167 13 11 13C11.2833 13 11.5208 12.9042 11.7125 12.7125C11.9042 12.5208 12 12.2833 12 12ZM7 19H13V5H7V19Z" fill="#316094"/>
</g>
</svg>
