<svg width="24" height="24" viewBox="0 0 24 24" fill="none" xmlns="http://www.w3.org/2000/svg">
<g clip-path="url(#clip0_2098_5115)">
<path d="M2.00003 11.4445C1.99621 12.911 2.33884 14.3577 3.00003 15.6667C3.78399 17.2353 4.98919 18.5546 6.48064 19.477C7.97208 20.3993 9.69086 20.8882 11.4445 20.8889C12.911 20.8927 14.3577 20.5501 15.6667 19.8889L22 22L19.8889 15.6667C20.5501 14.3577 20.8927 12.911 20.8889 11.4445C20.8882 9.69086 20.3993 7.97208 19.477 6.48064C18.5546 4.98919 17.2353 3.78399 15.6667 3.00003C14.3577 2.33884 12.911 1.99621 11.4445 2.00003H10.8889C8.57297 2.1278 6.38553 3.10532 4.74543 4.74543C3.10532 6.38553 2.1278 8.57297 2.00003 10.8889V11.4445Z" stroke="#316094" stroke-width="2.2" stroke-linecap="round" stroke-linejoin="round"/>
<circle cx="1.5" cy="1.5" r="1.5" transform="matrix(-1 0 0 1 17 10)" fill="#316094"/>
<circle cx="1.5" cy="1.5" r="1.5" transform="matrix(-1 0 0 1 13 10)" fill="#316094"/>
<circle cx="1.5" cy="1.5" r="1.5" transform="matrix(-1 0 0 1 9 10)" fill="#316094"/>
</g>
<defs>
<clipPath id="clip0_2098_5115">
<rect width="24" height="24" fill="white" transform="matrix(-1 0 0 1 24 0)"/>
</clipPath>
</defs>
</svg>
