<svg width="24" height="24" viewBox="0 0 24 24" fill="none" xmlns="http://www.w3.org/2000/svg">
<mask id="mask0_3659_3031" style="mask-type:alpha" maskUnits="userSpaceOnUse" x="0" y="0" width="24" height="24">
<rect width="24" height="24" fill="#050505"/>
</mask>
<g mask="url(#mask0_3659_3031)">
<path d="M0 12C0 18.6265 5.37347 24 12 24C18.6265 24 24 18.6265 24 12C24 5.37347 18.6265 0 12 0C5.37347 0 0 5.37347 0 12ZM17.6529 5.30856C20.5118 6.18909 22.5889 8.85042 22.5889 12C22.5889 15.1496 20.5118 17.8109 17.6529 18.6914C16.0894 20.2662 13.9755 21.3076 11.588 21.477C6.35278 21.8495 1.80903 17.9097 1.4365 12.6773C1.06397 7.44497 5.00094 2.8984 10.2361 2.52305C13.1063 2.31985 15.7705 3.41486 17.6529 5.30856Z" fill="#050505"/>
<path d="M10.2365 2.52214C5.00129 2.8975 1.0615 7.44124 1.43685 12.6764C1.8122 17.9116 6.35595 21.8486 11.5883 21.476C13.9759 21.3067 16.0897 20.2653 17.6532 18.6905C17.0013 18.8909 16.307 19.001 15.5902 19.001C11.7238 19.001 8.59113 15.8683 8.59113 12.0019C8.59113 8.1355 11.7238 5.00286 15.5902 5.00286C16.3099 5.00286 17.0013 5.1101 17.6532 5.3133C15.7708 3.41396 13.1067 2.31894 10.2365 2.52214Z" fill="url(#paint0_linear_3659_3031)"/>
<path d="M17.6533 18.6915C20.5122 17.8109 22.5894 15.1496 22.5894 12C22.5894 8.85046 20.5122 6.18912 17.6533 5.30859C19.1999 6.86645 20.2187 8.96052 20.388 11.3227C20.5912 14.1703 19.516 16.8119 17.6533 18.6915Z" fill="url(#paint1_linear_3659_3031)"/>
<path d="M13.0257 10.0034L11 14.5892H12.3243L12.6818 13.6972H14.6258L14.9832 14.5892H16.3348L14.3023 10H13.0257V10.0034ZM13.0665 12.7406L13.6555 11.2733L14.2445 12.7406H13.0665Z" fill="#050505"/>
<path d="M18.0002 10.002H16.7031V14.5912H18.0002V10.002Z" fill="#050505"/>
</g>
<defs>
<linearGradient id="paint0_linear_3659_3031" x1="9.53211" y1="2.49872" x2="9.53211" y2="21.4993" gradientUnits="userSpaceOnUse">
<stop offset="0.00543312" stop-color="#050505" stop-opacity="0.8"/>
<stop offset="1" stop-color="#050505" stop-opacity="0.3"/>
</linearGradient>
<linearGradient id="paint1_linear_3659_3031" x1="20.121" y1="9.27827" x2="20.121" y2="14.2146" gradientUnits="userSpaceOnUse">
<stop offset="0.00543312" stop-color="#050505" stop-opacity="0.8"/>
<stop offset="1" stop-color="#050505" stop-opacity="0.3"/>
</linearGradient>
</defs>
</svg>
