<svg width="24" height="24" viewBox="0 0 24 24" fill="none" xmlns="http://www.w3.org/2000/svg">
<mask id="mask0_3747_10129" style="mask-type:alpha" maskUnits="userSpaceOnUse" x="0" y="0" width="24" height="24">
<rect width="24" height="24" fill="#050505"/>
</mask>
<g mask="url(#mask0_3747_10129)">
</g>
<g clip-path="url(#clip0_3747_10129)">
<path d="M0 12C0 18.6278 5.37219 24 12 24C18.6278 24 24 18.6278 24 12C24 5.37219 18.6278 0 12 0C5.37219 0 0 5.37219 0 12ZM17.652 5.30907C20.5112 6.18937 22.5891 8.85243 22.5891 12C22.5891 15.1476 20.5112 17.8089 17.652 18.6909C16.0893 20.2656 13.9738 21.3062 11.5871 21.4768C6.35485 21.8487 1.80836 17.9096 1.43645 12.6756C1.06454 7.44157 5.00199 2.89679 10.236 2.52488C13.1072 2.31845 15.7703 3.41541 17.652 5.30907Z" fill="url(#paint0_linear_3747_10129)"/>
<path d="M10.2362 2.52478C5.00217 2.89669 1.06302 7.44318 1.43663 12.6755C1.81025 17.9078 6.35503 21.8486 11.589 21.475C13.9757 21.3044 16.0912 20.2655 17.6539 18.6891C17.0022 18.8904 16.3078 18.9979 15.5896 18.9979C11.7238 18.9979 8.58989 15.864 8.58989 11.9982C8.58989 8.1324 11.7238 4.99848 15.5896 4.99848C16.3078 4.99848 17.0005 5.10766 17.6539 5.30726C15.7704 3.41531 13.1074 2.31835 10.2362 2.52478Z" fill="url(#paint1_linear_3747_10129)"/>
<path d="M17.6523 18.6905C20.5116 17.8102 22.5895 15.1471 22.5895 11.9995C22.5895 8.85195 20.5116 6.1906 17.6523 5.30859C19.1997 6.86617 20.2182 8.96114 20.3871 11.3222C20.5918 14.1696 19.5153 16.8104 17.6523 18.6905Z" fill="url(#paint2_linear_3747_10129)"/>
<path d="M13.0257 10.0034L11 14.5892H12.3243L12.6818 13.6972H14.6258L14.9832 14.5892H16.3348L14.3023 10H13.0257V10.0034ZM13.0665 12.7406L13.6555 11.2733L14.2445 12.7406H13.0665Z" fill="#141E30"/>
<path d="M18.0002 10.002H16.7031V14.5912H18.0002V10.002Z" fill="#141E30"/>
</g>
<defs>
<linearGradient id="paint0_linear_3747_10129" x1="12.0001" y1="-0.091578" x2="12.0001" y2="23.9086" gradientUnits="userSpaceOnUse">
<stop stop-color="#141E30"/>
<stop offset="1" stop-color="#004E92"/>
</linearGradient>
<linearGradient id="paint1_linear_3747_10129" x1="9.53205" y1="2.49955" x2="9.53205" y2="21.5004" gradientUnits="userSpaceOnUse">
<stop stop-color="#E55D87"/>
<stop offset="1" stop-color="#5FC3E4"/>
</linearGradient>
<linearGradient id="paint2_linear_3747_10129" x1="20.1211" y1="9.27787" x2="20.1211" y2="14.2143" gradientUnits="userSpaceOnUse">
<stop stop-color="#3494E6"/>
<stop offset="1" stop-color="#3CBA92"/>
</linearGradient>
<clipPath id="clip0_3747_10129">
<rect width="24" height="24" fill="white"/>
</clipPath>
</defs>
</svg>
