<svg width="36" height="36" viewBox="0 0 36 36" fill="none" xmlns="http://www.w3.org/2000/svg">
<path d="M16.7982 6.5L16.7328 6.50106C13.9368 6.65535 11.2962 7.83606 9.31612 9.81612C7.33606 11.7962 6.15535 14.4368 6.00105 17.2328L6 17.2982V17.8958L6.00317 18.2284C6.04777 19.8849 6.45918 21.5121 7.20673 22.994L7.20567 22.9951C8.15192 24.8884 9.60739 26.4807 11.4076 27.594C13.2072 28.7069 15.2809 29.2968 17.3969 29.2979L17.3958 29.299L17.3979 29.2979L17.399 29.299V29.2979C19.001 29.3017 20.5825 28.962 22.0401 28.3066L28.4348 30.4392C28.862 30.5815 29.3326 30.4694 29.651 30.151C29.9694 29.8326 30.0815 29.362 29.9392 28.9348L27.8076 22.539C28.4631 21.0808 28.8032 19.4984 28.799 17.8958C28.7977 15.7802 28.2067 13.7069 27.094 11.9076C26.0502 10.2199 24.5858 8.83547 22.8467 7.88937L22.4951 7.70567C20.9149 6.90849 19.1689 6.49691 17.399 6.50106V6.5H16.7982ZM17.9258 8.89234C19.1433 8.96109 20.3359 9.27942 21.4277 9.8309L21.432 9.83407C22.9302 10.5829 24.1902 11.7341 25.0711 13.1586C25.9521 14.5832 26.4197 16.2251 26.4204 17.9V17.9021C26.424 19.3003 26.0974 20.6797 25.467 21.9277L25.4185 22.0354C25.3336 22.2554 25.3168 22.4959 25.3689 22.7259L25.4005 22.8399L26.9303 27.4293L22.3399 25.9005L22.2259 25.8689C21.9576 25.8082 21.6754 25.842 21.4277 25.967C20.1797 26.5974 18.8003 26.924 17.4021 26.9204H17.4L17.0854 26.9151C15.5199 26.86 13.994 26.3969 12.6586 25.5711C11.2341 24.6902 10.0829 23.4302 9.33407 21.932L9.3309 21.9277L9.10919 21.4537C8.62442 20.3345 8.37437 19.1255 8.37756 17.9021V17.3489C8.50297 15.1431 9.4354 13.0605 10.9979 11.4979C12.5607 9.93515 14.6437 9.00273 16.85 8.87756H17.4021L17.9258 8.89234Z" fill="#777777"/>
<path d="M20.163 17.9576C20.163 18.8532 20.889 19.5792 21.7846 19.5792C22.6802 19.5792 23.4062 18.8532 23.4062 17.9576C23.4062 17.062 22.6802 16.3359 21.7846 16.3359C20.889 16.3359 20.163 17.062 20.163 17.9576Z" fill="#777777"/>
<path d="M15.8388 17.9576C15.8388 18.8532 16.5648 19.5792 17.4604 19.5792C18.356 19.5792 19.082 18.8532 19.082 17.9576C19.082 17.062 18.356 16.3359 17.4604 16.3359C16.5648 16.3359 15.8388 17.062 15.8388 17.9576Z" fill="#777777"/>
<path d="M11.5145 17.9576C11.5145 18.8532 12.2406 19.5792 13.1362 19.5792C14.0318 19.5792 14.7578 18.8532 14.7578 17.9576C14.7578 17.062 14.0318 16.3359 13.1362 16.3359C12.2406 16.3359 11.5145 17.062 11.5145 17.9576Z" fill="#777777"/>
</svg>
