<svg width="21" height="21" viewBox="0 0 21 21" fill="none" xmlns="http://www.w3.org/2000/svg">
<g clip-path="url(#clip0_2872_6559)">
<path d="M1.75003 10.0139C1.74668 11.2971 2.04649 12.563 2.62503 13.7083C3.31099 15.0809 4.36554 16.2353 5.67056 17.0424C6.97557 17.8494 8.4795 18.2772 10.0139 18.2778C11.2971 18.2811 12.563 17.9813 13.7083 17.4028L19.25 19.25L17.4028 13.7083C17.9813 12.563 18.2811 11.2971 18.2778 10.0139C18.2772 8.4795 17.8494 6.97557 17.0424 5.67056C16.2353 4.36554 15.0809 3.31099 13.7083 2.62503C12.563 2.04649 11.2971 1.74668 10.0139 1.75003H9.52779C7.50135 1.86183 5.58734 2.71716 4.15225 4.15225C2.71716 5.58734 1.86183 7.50135 1.75003 9.52779V10.0139Z" stroke="#fff" stroke-width="2" stroke-linecap="round" stroke-linejoin="round"/>
<circle cx="1.3125" cy="1.3125" r="1.3125" transform="matrix(-1 0 0 1 14.875 8.75)" fill="#fff"/>
<circle cx="1.3125" cy="1.3125" r="1.3125" transform="matrix(-1 0 0 1 11.375 8.75)" fill="#fff"/>
<circle cx="1.3125" cy="1.3125" r="1.3125" transform="matrix(-1 0 0 1 7.875 8.75)" fill="#fff"/>
</g>
<defs>
<clipPath id="clip0_2872_6559">
<rect width="21" height="21" fill="white" transform="matrix(-1 0 0 1 21 0)"/>
</clipPath>
</defs>
</svg>
