<svg width="30" height="30" viewBox="0 0 30 30" fill="none" xmlns="http://www.w3.org/2000/svg">
<mask id="mask0_292_1154" style="mask-type:alpha" maskUnits="userSpaceOnUse" x="0" y="0" width="30" height="30">
<rect width="30" height="30" fill="#D9D9D9"/>
</mask>
<g mask="url(#mask0_292_1154)">
<path d="M15.0001 17.5C13.9584 17.5 13.073 17.1354 12.3438 16.4062C11.6147 15.6771 11.2501 14.7917 11.2501 13.75V6.25C11.2501 5.20833 11.6147 4.32292 12.3438 3.59375C13.073 2.86458 13.9584 2.5 15.0001 2.5C16.0418 2.5 16.9272 2.86458 17.6563 3.59375C18.3855 4.32292 18.7501 5.20833 18.7501 6.25V13.75C18.7501 14.7917 18.3855 15.6771 17.6563 16.4062C16.9272 17.1354 16.0418 17.5 15.0001 17.5ZM13.7501 25V22.4062C11.8334 22.1354 10.1928 21.3229 8.82822 19.9688C7.46364 18.6146 6.63551 16.9688 6.34384 15.0313C6.30218 14.6771 6.39593 14.375 6.62509 14.125C6.85426 13.875 7.14593 13.75 7.50009 13.75C7.85426 13.75 8.15114 13.8698 8.39072 14.1094C8.6303 14.349 8.79176 14.6458 8.87509 15C9.16676 16.4583 9.89072 17.6562 11.047 18.5938C12.2032 19.5312 13.5209 20 15.0001 20C16.5001 20 17.823 19.526 18.9688 18.5781C20.1147 17.6302 20.8334 16.4375 21.1251 15C21.2084 14.6458 21.3699 14.349 21.6095 14.1094C21.8491 13.8698 22.1459 13.75 22.5001 13.75C22.8543 13.75 23.1459 13.875 23.3751 14.125C23.6043 14.375 23.698 14.6771 23.6563 15.0313C23.3647 16.9271 22.5418 18.5625 21.1876 19.9375C19.8334 21.3125 18.1876 22.1354 16.2501 22.4062V25C16.2501 25.3542 16.1303 25.651 15.8907 25.8906C15.6511 26.1302 15.3543 26.25 15.0001 26.25C14.6459 26.25 14.3491 26.1302 14.1095 25.8906C13.8699 25.651 13.7501 25.3542 13.7501 25Z" fill="url(#paint0_linear_292_1154)"/>
</g>
<defs>
<linearGradient id="paint0_linear_292_1154" x1="15.0001" y1="2.5" x2="15.0001" y2="26.25" gradientUnits="userSpaceOnUse">
<stop stop-color="#55DEFF"/>
<stop offset="0.5" stop-color="#8351FE"/>
<stop offset="1" stop-color="#316094"/>
</linearGradient>
</defs>
</svg>
