<svg width="24" height="24" viewBox="0 0 24 24" fill="none" xmlns="http://www.w3.org/2000/svg">
<mask id="mask0_47_556" style="mask-type:alpha" maskUnits="userSpaceOnUse" x="0" y="0" width="24" height="24">
<rect width="24" height="24" fill="#D9D9D9"/>
</mask>
<g mask="url(#mask0_47_556)">
<path d="M8.00006 21C7.71672 21 7.47922 20.9042 7.28756 20.7125C7.09589 20.5208 7.00006 20.2833 7.00006 20V17.925C5.45006 17.7083 4.13756 17.0625 3.06256 15.9875C1.98756 14.9125 1.33339 13.625 1.10006 12.125C1.05006 11.8417 1.11672 11.5833 1.30006 11.35C1.48339 11.1167 1.71672 11 2.00006 11C2.28339 11 2.52506 11.1125 2.72506 11.3375C2.92506 11.5625 3.05839 11.825 3.12506 12.125C3.37506 13.2417 3.95006 14.1667 4.85006 14.9C5.75006 15.6333 6.80006 16 8.00006 16H8.25006C8.33339 16 8.41672 15.9917 8.50006 15.975C8.71672 16.3083 8.95006 16.6208 9.20006 16.9125C9.45006 17.2042 9.71672 17.475 10.0001 17.725C9.83339 17.775 9.67089 17.8125 9.51256 17.8375C9.35422 17.8625 9.18339 17.8917 9.00006 17.925V20C9.00006 20.2833 8.90422 20.5208 8.71256 20.7125C8.52089 20.9042 8.28339 21 8.00006 21ZM16.0001 14C15.1667 14 14.4584 13.7083 13.8751 13.125C13.2917 12.5417 13.0001 11.8333 13.0001 11V5C13.0001 4.16667 13.2917 3.45833 13.8751 2.875C14.4584 2.29167 15.1667 2 16.0001 2C16.8334 2 17.5417 2.29167 18.1251 2.875C18.7084 3.45833 19.0001 4.16667 19.0001 5V11C19.0001 11.8333 18.7084 12.5417 18.1251 13.125C17.5417 13.7083 16.8334 14 16.0001 14ZM16.0001 12C16.2834 12 16.5209 11.9042 16.7126 11.7125C16.9042 11.5208 17.0001 11.2833 17.0001 11V5C17.0001 4.71667 16.9042 4.47917 16.7126 4.2875C16.5209 4.09583 16.2834 4 16.0001 4C15.7167 4 15.4792 4.09583 15.2876 4.2875C15.0959 4.47917 15.0001 4.71667 15.0001 5V11C15.0001 11.2833 15.0959 11.5208 15.2876 11.7125C15.4792 11.9042 15.7167 12 16.0001 12ZM7.50006 13.95C6.78339 13.8167 6.18756 13.475 5.71256 12.925C5.23756 12.375 5.00006 11.7333 5.00006 11V5C5.00006 4.16667 5.29172 3.45833 5.87506 2.875C6.45839 2.29167 7.16672 2 8.00006 2C8.83339 2 9.54172 2.29167 10.1251 2.875C10.7084 3.45833 11.0001 4.16667 11.0001 5V9.175C10.8334 9.10833 10.6709 9.0625 10.5126 9.0375C10.3542 9.0125 10.1834 9 10.0001 9C9.18339 9 8.49172 9.2875 7.92506 9.8625C7.35839 10.4375 7.07506 11.1333 7.07506 11.95C7.07506 12.2833 7.11672 12.6167 7.20006 12.95C7.28339 13.2833 7.38339 13.6167 7.50006 13.95ZM16.0001 16C17.2001 16 18.2501 15.6333 19.1501 14.9C20.0501 14.1667 20.6251 13.2417 20.8751 12.125C20.9417 11.825 21.0751 11.5625 21.2751 11.3375C21.4751 11.1125 21.7167 11 22.0001 11C22.2834 11 22.5167 11.1167 22.7001 11.35C22.8834 11.5833 22.9501 11.8417 22.9001 12.125C22.6667 13.625 22.0126 14.9125 20.9376 15.9875C19.8626 17.0625 18.5501 17.7083 17.0001 17.925V20C17.0001 20.2833 16.9042 20.5208 16.7126 20.7125C16.5209 20.9042 16.2834 21 16.0001 21C15.7167 21 15.4792 20.9042 15.2876 20.7125C15.0959 20.5208 15.0001 20.2833 15.0001 20V17.925C13.4501 17.7083 12.1376 17.0625 11.0626 15.9875C9.98756 14.9125 9.33339 13.625 9.10006 12.125C9.05006 11.8417 9.11672 11.5833 9.30006 11.35C9.48339 11.1167 9.71672 11 10.0001 11C10.2834 11 10.5251 11.1125 10.7251 11.3375C10.9251 11.5625 11.0584 11.825 11.1251 12.125C11.3751 13.2417 11.9501 14.1667 12.8501 14.9C13.7501 15.6333 14.8001 16 16.0001 16Z" fill="#316094"/>
</g>
</svg>
