<svg width="24" height="24" viewBox="0 0 24 24" fill="none" xmlns="http://www.w3.org/2000/svg">
<mask id="mask0_47_541" style="mask-type:alpha" maskUnits="userSpaceOnUse" x="0" y="0" width="24" height="24">
<rect width="24" height="24" fill="#D9D9D9"/>
</mask>
<g mask="url(#mask0_47_541)">
<path d="M4 21.0002C3.71667 21.0002 3.47917 20.9044 3.2875 20.7127C3.09583 20.5211 3 20.2836 3 20.0002V19.0002C3 18.7169 3.09583 18.4794 3.2875 18.2877C3.47917 18.0961 3.71667 18.0002 4 18.0002C4.28333 18.0002 4.52083 18.0961 4.7125 18.2877C4.90417 18.4794 5 18.7169 5 19.0002V20.0002C5 20.2836 4.90417 20.5211 4.7125 20.7127C4.52083 20.9044 4.28333 21.0002 4 21.0002ZM8 21.0002C7.71667 21.0002 7.47917 20.9044 7.2875 20.7127C7.09583 20.5211 7 20.2836 7 20.0002V14.5002C7 14.2169 7.09583 13.9794 7.2875 13.7877C7.47917 13.5961 7.71667 13.5002 8 13.5002C8.28333 13.5002 8.52083 13.5961 8.7125 13.7877C8.90417 13.9794 9 14.2169 9 14.5002V20.0002C9 20.2836 8.90417 20.5211 8.7125 20.7127C8.52083 20.9044 8.28333 21.0002 8 21.0002ZM12 21.0002C11.7167 21.0002 11.4792 20.9044 11.2875 20.7127C11.0958 20.5211 11 20.2836 11 20.0002V16.5002C11 16.2169 11.0958 15.9794 11.2875 15.7877C11.4792 15.5961 11.7167 15.5002 12 15.5002C12.2833 15.5002 12.5208 15.5961 12.7125 15.7877C12.9042 15.9794 13 16.2169 13 16.5002V20.0002C13 20.2836 12.9042 20.5211 12.7125 20.7127C12.5208 20.9044 12.2833 21.0002 12 21.0002ZM16 21.0002C15.7167 21.0002 15.4792 20.9044 15.2875 20.7127C15.0958 20.5211 15 20.2836 15 20.0002V15.0002C15 14.7169 15.0958 14.4794 15.2875 14.2877C15.4792 14.0961 15.7167 14.0002 16 14.0002C16.2833 14.0002 16.5208 14.0961 16.7125 14.2877C16.9042 14.4794 17 14.7169 17 15.0002V20.0002C17 20.2836 16.9042 20.5211 16.7125 20.7127C16.5208 20.9044 16.2833 21.0002 16 21.0002ZM20 21.0002C19.7167 21.0002 19.4792 20.9044 19.2875 20.7127C19.0958 20.5211 19 20.2836 19 20.0002V11.0002C19 10.7169 19.0958 10.4794 19.2875 10.2877C19.4792 10.0961 19.7167 10.0002 20 10.0002C20.2833 10.0002 20.5208 10.0961 20.7125 10.2877C20.9042 10.4794 21 10.7169 21 11.0002V20.0002C21 20.2836 20.9042 20.5211 20.7125 20.7127C20.5208 20.9044 20.2833 21.0002 20 21.0002ZM14 11.9752C13.7333 11.9752 13.4792 11.9252 13.2375 11.8252C12.9958 11.7252 12.775 11.5836 12.575 11.4002L10 8.82523L4.7 14.1252C4.5 14.3252 4.2625 14.4211 3.9875 14.4127C3.7125 14.4044 3.475 14.3002 3.275 14.1002C3.09167 13.9002 3.00417 13.6627 3.0125 13.3877C3.02083 13.1127 3.11667 12.8836 3.3 12.7002L8.575 7.42523C8.775 7.22523 8.99583 7.0794 9.2375 6.98773C9.47917 6.89606 9.73333 6.85023 10 6.85023C10.2667 6.85023 10.525 6.89606 10.775 6.98773C11.025 7.0794 11.2417 7.22523 11.425 7.42523L14 10.0002L19.3 4.70023C19.5 4.50023 19.7375 4.4044 20.0125 4.41273C20.2875 4.42106 20.525 4.52523 20.725 4.72523C20.9083 4.92523 20.9958 5.16273 20.9875 5.43773C20.9792 5.71273 20.8833 5.9419 20.7 6.12523L15.425 11.4002C15.2417 11.5836 15.025 11.7252 14.775 11.8252C14.525 11.9252 14.2667 11.9752 14 11.9752Z" fill="#316094"/>
</g>
</svg>
