<svg width="56" height="56" viewBox="0 0 56 56" fill="none" xmlns="http://www.w3.org/2000/svg">
<path d="M33.5858 48.0119H6.2347C5.55315 48.0119 5 47.453 5 46.7644V6.30607C5 5.61747 5.55315 5.05859 6.2347 5.05859H43.8387C44.5203 5.05859 45.0734 5.61747 45.0734 6.30607V36.4053C45.0734 36.7346 44.945 37.054 44.7129 37.2885L34.455 47.6476C34.2229 47.8821 33.9117 48.0119 33.5858 48.0119ZM7.4694 45.5169H33.0721L42.604 35.8863V7.55356H7.4694V45.5169Z" fill="#777777"/>
<path d="M33.5863 48.0122C33.4282 48.0122 33.2652 47.9823 33.1121 47.9174C32.6528 47.7228 32.3516 47.2688 32.3516 46.7648V36.4057C32.3516 35.7171 32.9047 35.1582 33.5863 35.1582H43.8442C44.343 35.1582 44.7924 35.4626 44.985 35.9267C45.1776 36.3907 45.069 36.9296 44.7183 37.2839L34.4555 47.648C34.2234 47.8875 33.9073 48.0122 33.5863 48.0122ZM34.821 37.6532V43.7558L40.8611 37.6532H34.821Z" fill="#777777"/>
<path d="M49.7645 54.0001H12.1605C11.4789 54.0001 10.9258 53.4413 10.9258 52.7527V46.7648C10.9258 46.0761 11.4789 45.5173 12.1605 45.5173C12.842 45.5173 13.3952 46.0761 13.3952 46.7648V51.5052H48.5298V13.5418H43.838C43.1564 13.5418 42.6033 12.983 42.6033 12.2944C42.6033 11.6057 43.1564 11.0469 43.838 11.0469H49.7645C50.4461 11.0469 50.9992 11.6057 50.9992 12.2944V52.7577C50.9992 53.4413 50.4461 54.0001 49.7645 54.0001Z" fill="#777777"/>
<path d="M15.8904 16.4708C13.7667 16.4708 12.0332 14.7243 12.0332 12.5736C12.0332 11.885 12.5863 11.3262 13.2679 11.3262C13.9495 11.3262 14.5026 11.885 14.5026 12.5736C14.5026 13.3471 15.1249 13.9758 15.8904 13.9758C16.6559 13.9758 17.2782 13.3471 17.2782 12.5736V5.89713C17.2733 5.12369 16.6559 4.49496 15.8904 4.49496C15.1249 4.49496 14.5026 5.12369 14.5026 5.89713C14.5026 6.58574 13.9495 7.14461 13.2679 7.14461C12.5863 7.14461 12.0332 6.58574 12.0332 5.89713C12.0332 3.74647 13.7618 2 15.8904 2C18.019 2 19.7476 3.74647 19.7476 5.89713V12.5736C19.7427 14.7193 18.0141 16.4708 15.8904 16.4708Z" fill="#777777"/>
<path d="M37.996 12.6992H24.8242V26.0073H37.996V12.6992Z" fill="#46A6FF"/>
<path d="M25.8122 32.9071H13.4652C12.7836 32.9071 12.2305 32.3482 12.2305 31.6596C12.2305 30.971 12.7836 30.4121 13.4652 30.4121H25.8122C26.4937 30.4121 27.0469 30.971 27.0469 31.6596C27.0469 32.3482 26.4937 32.9071 25.8122 32.9071Z" fill="#777777"/>
<path d="M19.7226 26.2567H13.4652C12.7836 26.2567 12.2305 25.6978 12.2305 25.0092C12.2305 24.3206 12.7836 23.7617 13.4652 23.7617H19.7226C20.4042 23.7617 20.9573 24.3206 20.9573 25.0092C20.9573 25.6978 20.4042 26.2567 19.7226 26.2567Z" fill="#777777"/>
<path d="M25.8122 39.5633H13.4652C12.7836 39.5633 12.2305 39.0045 12.2305 38.3158C12.2305 37.6272 12.7836 37.0684 13.4652 37.0684H25.8122C26.4937 37.0684 27.0469 37.6272 27.0469 38.3158C27.0469 39.0045 26.4937 39.5633 25.8122 39.5633Z" fill="#777777"/>
</svg>
