<svg width="24" height="25" viewBox="0 0 24 25" fill="none" xmlns="http://www.w3.org/2000/svg">
<g clip-path="url(#clip0_47_508)">
<path d="M18.2793 22.2969C18.0865 22.4168 17.8866 22.532 17.6868 22.6402C17.889 22.5297 18.0865 22.4168 18.2793 22.2969Z" fill="#316094"/>
<path d="M11.9917 24.0698C13.2919 24.0721 14.5428 23.8629 15.7185 23.4796C14.5452 23.8605 13.2943 24.0721 11.9917 24.0698Z" fill="#316094"/>
<path d="M12.7584 3.63683C11.4817 3.43462 9.99561 3.22065 8.96338 3.11484C7.94761 3.00903 6.431 3.136 3.95505 3.16657C4.16432 2.97611 4.38064 2.79741 4.60402 2.62341C6.62616 2.57638 9.15148 2.49879 10.6187 2.48703C12.7678 2.47292 17.1366 2.46587 17.6398 2.46117C17.9337 2.45647 18.5921 2.48703 19.2904 2.53876C19.6831 2.83738 20.0522 3.15951 20.4026 3.50281C19.4903 3.50516 18.4745 3.56159 17.0849 3.68386C14.5642 3.90959 14.0328 3.83669 12.7584 3.63683Z" fill="#316094"/>
<path d="M13.2381 2.04026C11.8814 2.0191 7.99933 1.97678 5.48812 1.99323C5.88079 1.73929 6.28757 1.50416 6.71316 1.29724C7.79007 1.35132 8.7353 1.4007 9.20557 1.39835C10.3483 1.396 14.0634 1.48535 15.4178 1.5747C16.1396 1.62172 17.1178 1.66405 17.9995 1.67816C18.1876 1.78632 18.3734 1.90153 18.5544 2.0191C17.0355 2.03791 14.7335 2.06613 13.2381 2.04026Z" fill="#316094"/>
<path d="M11.3028 4.95827C9.36527 5.02646 4.8954 5.00295 2.96261 5.03352C2.81682 5.03587 2.58404 5.03587 2.27837 5.04057C2.6005 4.59617 2.95085 4.17528 3.32941 3.78026C4.35459 3.71442 5.10702 3.61567 5.47383 3.60861C7.65821 3.55688 8.58228 3.65564 10.3928 3.89312C12.201 4.12826 13.4354 4.40336 14.1855 4.41277C14.9379 4.42217 17.3856 4.19409 18.7541 4.04831C19.3937 3.98247 20.1978 4.05772 20.9973 4.13061C21.3265 4.50212 21.6321 4.89479 21.9143 5.30627C20.2425 5.24043 18.4955 5.17224 17.4491 5.12757C15.6245 5.04527 13.2379 4.89009 11.3028 4.95827Z" fill="#316094"/>
<path d="M20.6469 6.70758C19.2102 6.76871 17.5643 6.77812 15.8902 6.66761C14.216 6.55709 12.9275 6.55004 10.4092 6.77577C7.89096 6.99914 7.35721 6.92625 6.08279 6.72404C5.32566 6.60412 4.49564 6.48185 3.73146 6.37839C3.16244 6.38545 2.18899 6.20675 1.52827 6.21145C1.667 5.96691 1.81278 5.72708 1.96561 5.49194C2.37239 5.52016 2.90144 5.53427 3.35055 5.59305C6.13687 5.56248 8.67395 5.52721 9.61683 5.51311C13.0192 5.46373 14.7075 5.66829 16.9953 5.73883C18.5166 5.78821 19.9721 5.88226 21.2206 5.94575C21.5263 5.94105 21.9754 5.98102 22.3587 6.00453C22.4951 6.23496 22.622 6.4701 22.7419 6.70993C22.3939 6.70053 22.0154 6.68642 21.745 6.67466C21.3523 6.68172 20.9808 6.69112 20.6469 6.70758Z" fill="#316094"/>
<path d="M18.9305 8.51111C16.7085 8.56049 14.2843 8.43822 11.19 8.12079C8.73048 7.8645 6.73186 7.81042 4.23005 7.85744C3.78564 7.86685 2.4689 7.88801 0.740675 7.91623C0.869999 7.56823 1.01343 7.22729 1.17097 6.89575C2.00804 6.93808 2.74871 7.02743 3.76213 7.1591C5.5703 7.39423 6.80475 7.67169 7.55717 7.6811C8.30725 7.69285 10.7573 7.46242 12.1258 7.31664C13.4943 7.17556 15.4929 7.26491 16.8402 7.4295C18.1899 7.5988 20.2755 7.4201 22.427 7.37072C22.5375 7.36837 22.7844 7.36602 23.0407 7.36602C23.1959 7.72812 23.3322 8.09728 23.4521 8.47584C21.8368 8.46879 20.1767 8.4829 18.9305 8.51111Z" fill="#316094"/>
<path d="M15.0062 19.6117C12.9158 19.7622 9.08789 19.9762 8.46243 19.9409C7.83933 19.9033 6.09465 19.6023 4.61801 19.3954C4.0537 19.3178 3.59283 19.2402 3.07084 19.1744C5.36809 19.1085 8.28373 18.9698 10.668 18.8828C13.4567 18.7817 13.807 18.8616 15.4412 18.9228C16.812 18.9745 19.7559 19.1556 21.604 19.2708C21.4535 19.4683 21.2983 19.6587 21.1384 19.8468C20.7928 19.8633 20.5059 19.8657 20.0122 19.8351C18.9964 19.774 17.0965 19.4659 15.0062 19.6117Z" fill="#316094"/>
<path d="M8.59167 21.6526C10.1906 21.7796 14.5006 22.2781 16.4428 22.3086C16.9365 22.3157 17.5761 22.3086 18.2815 22.2969C18.0887 22.4168 17.8888 22.532 17.689 22.6402C16.0595 22.7624 14.4935 22.8682 13.8492 22.8306C12.8875 22.7742 8.73746 22.4591 5.96524 22.4379C5.61254 22.231 5.26925 22.0077 4.94006 21.7678C6.35321 21.7514 7.50301 21.5656 8.59167 21.6526Z" fill="#316094"/>
<path d="M19.0858 10.0112C16.8638 10.0606 14.4748 9.94302 11.3852 9.62089C8.29319 9.30346 4.4135 9.85132 2.58652 9.88659C2.35608 9.89129 0.827723 9.90775 0.202269 9.89835C0.279861 9.47276 0.378618 9.05422 0.500887 8.64744C2.10214 8.61922 3.34835 8.41231 4.10077 8.4029C7.56192 8.35117 9.25018 8.61687 11.886 8.82849C14.4137 9.03306 16.3418 9.2776 17.4869 9.23292C18.3592 9.20235 20.2262 9.21411 23.6591 9.21881C23.7202 9.46805 23.772 9.71965 23.8167 9.97359C22.0485 9.96183 20.4801 9.97829 19.0858 10.0112Z" fill="#316094"/>
<path d="M12.2858 0.8787C11.6321 0.890457 9.9133 0.77289 8.26267 0.667081C9.44304 0.281463 10.701 0.0674921 12.0107 0.0698434C13.7013 0.0698434 15.312 0.424894 16.7698 1.0574C15.7634 1.048 13.1346 0.864592 12.2858 0.8787Z" fill="#316094"/>
<path d="M22.0555 18.6171C20.1368 18.516 18.1969 18.4055 17.2141 18.3115C14.9051 18.0904 11.5474 18.1586 9.25955 18.2104C7.48901 18.2503 4.17363 18.2903 1.75412 18.3162C1.49547 17.8953 1.26504 17.4532 1.06048 16.9971L22.4011 18.0552C22.2906 18.2456 22.1754 18.4314 22.0555 18.6171Z" fill="#316094"/>
<path d="M11.1289 20.5288C14.6018 20.2301 16.0925 20.129 17.8066 20.2748C18.4556 20.3265 19.5795 20.4159 20.5977 20.4418C20.2026 20.8485 19.777 21.2271 19.3279 21.5728C19.2598 21.6245 19.1939 21.6786 19.1234 21.7303C16.8144 21.6997 14.3408 21.4952 13.2662 21.4058C11.9048 21.2953 6.80712 20.6675 3.91028 20.9332C3.61167 20.6581 3.3248 20.3689 3.0544 20.0656C4.13131 20.1549 5.26465 20.1996 5.96535 20.3077C7.20685 20.4958 7.6536 20.8274 11.1289 20.5288Z" fill="#316094"/>
<path d="M0 12.0617C0 11.8547 0.00705338 11.6478 0.0164585 11.4456C0.0329189 11.1517 0.0611343 10.8601 0.0964031 10.5709C0.543156 10.5733 0.928774 10.5709 1.2415 10.5662C4.64622 10.5168 9.42647 10.0607 11.9541 10.2652C14.4818 10.4675 16.0831 10.6109 17.2305 10.5709C17.7948 10.5521 20.9127 10.5521 23.9083 10.6109C23.9671 11.0929 24 11.582 24 12.0781C24 12.2897 23.9953 12.499 23.9835 12.7083C23.5344 12.7083 23.1324 12.7106 22.8314 12.7247C17.2282 12.9716 16.4758 11.8054 14.7875 11.6901C13.8446 11.6267 12.3327 10.538 11.6414 10.6391C10.5363 10.799 8.54708 12.5084 5.83835 12.5695C4.43931 12.6001 3.66337 12.7435 1.90928 12.7435C1.45077 12.7435 0.86529 12.7576 0.0940533 12.7765L0.0258656 12.7741C0.00940514 12.539 0 12.3015 0 12.0617Z" fill="#316094"/>
<path d="M0.188129 13.3525C1.75882 13.3736 4.26063 13.1879 5.41513 13.155C7.06106 13.1079 10.106 13.3595 12.0459 13.2537C13.9834 13.1479 18.1358 13.4066 19.5631 13.4606C20.6376 13.5006 22.2412 13.4677 23.9177 13.463C23.8989 13.6276 23.8778 13.7922 23.8542 13.9544C23.3464 13.9403 22.8714 13.9262 22.4411 13.9074C20.5459 13.8275 16.0032 13.9544 14.6206 13.9826C13.238 14.0156 7.25622 14.0367 4.95192 13.9309C4.56865 13.9145 2.68994 13.7569 0.117588 13.7169C0.10113 13.5994 0.0870209 13.4795 0.075264 13.3595L0.188129 13.3525Z" fill="#316094"/>
<path d="M15.7185 23.4797C14.5452 23.8606 13.2943 24.0722 11.9917 24.0699C10.2987 24.0699 8.68804 23.7148 7.22786 23.08C8.84793 23.1387 10.5409 23.2939 11.0394 23.3221C12.0387 23.3786 14.0632 23.4585 15.7185 23.4797Z" fill="#316094"/>
<path d="M15.8691 14.6246C18.2439 14.5752 21.1502 14.6246 23.7131 14.6834C23.6473 14.9749 23.5744 15.2642 23.4898 15.5487C21.9355 15.5369 20.3672 15.6404 19.7535 15.6027C18.4838 15.5228 13.6448 15.4052 12.4761 15.4499C11.3099 15.4946 5.11649 15.2453 3.58342 15.1842C3.22132 15.1725 2.15146 15.1489 0.41148 15.1701C0.373857 15.0267 0.338589 14.8809 0.30567 14.7351C2.37954 14.7398 3.75977 14.6693 4.24885 14.6693C6.12756 14.6669 12.1305 14.6998 15.8691 14.6246Z" fill="#316094"/>
<path d="M2.91798 15.8966C4.68147 15.8519 7.07278 16.0024 9.24775 16.0212C11.4227 16.04 16.1371 16.1787 19.2174 16.1387C20.6493 16.1199 22.0484 16.1834 23.2476 16.2587C23.1206 16.5949 22.9819 16.9241 22.829 17.2462C20.9033 17.1968 19.1445 17.1592 17.9265 17.1428C13.9763 17.084 8.91622 16.7689 6.29919 16.7219C4.97069 16.6984 2.57469 16.5032 1.08394 16.4468C0.928757 16.4491 0.867622 16.428 0.813541 16.4068C0.747705 16.2375 0.686569 16.0659 0.627787 15.8942C0.912296 15.9036 1.20386 15.9154 1.50483 15.9248C1.99861 15.9177 2.47828 15.9083 2.91798 15.8966Z" fill="#316094"/>
</g>
<defs>
<clipPath id="clip0_47_508">
<rect width="24" height="24" fill="white" transform="matrix(-1 0 0 1 24 0.0698242)"/>
</clipPath>
</defs>
</svg>
