<svg width="24" height="24" viewBox="0 0 24 24" fill="none" xmlns="http://www.w3.org/2000/svg">
<mask id="mask0_47_536" style="mask-type:alpha" maskUnits="userSpaceOnUse" x="0" y="0" width="24" height="24">
<rect width="24" height="24" fill="#D9D9D9"/>
</mask>
<g mask="url(#mask0_47_536)">
<path d="M5 20V21.25C5 21.5333 4.90417 21.7708 4.7125 21.9625C4.52083 22.1542 4.28333 22.25 4 22.25H3C2.71667 22.25 2.47917 22.1542 2.2875 21.9625C2.09583 21.7708 2 21.5333 2 21.25V19C2 18.7167 2.09583 18.4792 2.2875 18.2875C2.47917 18.0958 2.71667 18 3 18H21C21.2833 18 21.5208 18.0958 21.7125 18.2875C21.9042 18.4792 22 18.7167 22 19V21.25C22 21.5333 21.9042 21.7708 21.7125 21.9625C21.5208 22.1542 21.2833 22.25 21 22.25H20C19.7167 22.25 19.4792 22.1542 19.2875 21.9625C19.0958 21.7708 19 21.5333 19 21.25V20H13.5V21.25C13.5 21.5333 13.4042 21.7708 13.2125 21.9625C13.0208 22.1542 12.7833 22.25 12.5 22.25H11.5C11.2167 22.25 10.9792 22.1542 10.7875 21.9625C10.5958 21.7708 10.5 21.5333 10.5 21.25V20H5ZM6 16C5.71667 16 5.47917 15.9042 5.2875 15.7125C5.09583 15.5208 5 15.2833 5 15V3C5 2.71667 5.09583 2.47917 5.2875 2.2875C5.47917 2.09583 5.71667 2 6 2H18C18.2833 2 18.5208 2.09583 18.7125 2.2875C18.9042 2.47917 19 2.71667 19 3V15C19 15.2833 18.9042 15.5208 18.7125 15.7125C18.5208 15.9042 18.2833 16 18 16H6ZM7 14H17V4H7V14ZM14 8C14.2833 8 14.5208 7.90417 14.7125 7.7125C14.9042 7.52083 15 7.28333 15 7C15 6.71667 14.9042 6.47917 14.7125 6.2875C14.5208 6.09583 14.2833 6 14 6H10C9.71667 6 9.47917 6.09583 9.2875 6.2875C9.09583 6.47917 9 6.71667 9 7C9 7.28333 9.09583 7.52083 9.2875 7.7125C9.47917 7.90417 9.71667 8 10 8H14Z" fill="#316094"/>
</g>
</svg>
