<svg width="18" height="18" viewBox="0 0 18 18" fill="none" xmlns="http://www.w3.org/2000/svg">
<mask id="mask0_2578_1609" style="mask-type:alpha" maskUnits="userSpaceOnUse" x="0" y="0" width="18" height="18">
<rect width="18" height="18" fill="#D9D9D9"/>
</mask>
<g mask="url(#mask0_2578_1609)">
<path d="M4.5 9.75C4.2875 9.75 4.10938 9.67813 3.96562 9.53437C3.82187 9.39062 3.75 9.2125 3.75 9C3.75 8.7875 3.82187 8.60938 3.96562 8.46562C4.10938 8.32187 4.2875 8.25 4.5 8.25H13.5C13.7125 8.25 13.8906 8.32187 14.0344 8.46562C14.1781 8.60938 14.25 8.7875 14.25 9C14.25 9.2125 14.1781 9.39062 14.0344 9.53437C13.8906 9.67813 13.7125 9.75 13.5 9.75H4.5Z" fill="#01BD63"/>
</g>
</svg>
