<svg width="18" height="18" viewBox="0 0 18 18" fill="none" xmlns="http://www.w3.org/2000/svg">
<mask id="mask0_2578_1614" style="mask-type:alpha" maskUnits="userSpaceOnUse" x="0" y="0" width="18" height="18">
<rect width="18" height="18" fill="#D9D9D9"/>
</mask>
<g mask="url(#mask0_2578_1614)">
<path d="M8.99961 10.3684L6.07461 13.2746C5.93711 13.4121 5.76523 13.484 5.55898 13.4902C5.35273 13.4965 5.17461 13.4246 5.02461 13.2746C4.88711 13.1371 4.81836 12.9621 4.81836 12.7496C4.81836 12.5371 4.88711 12.3621 5.02461 12.2246L8.47461 8.77461C8.54961 8.69961 8.63086 8.64648 8.71836 8.61523C8.80586 8.58398 8.89961 8.56836 8.99961 8.56836C9.09961 8.56836 9.19336 8.58398 9.28086 8.61523C9.36836 8.64648 9.44961 8.69961 9.52461 8.77461L12.9746 12.2246C13.1121 12.3621 13.184 12.534 13.1902 12.7402C13.1965 12.9465 13.1246 13.1246 12.9746 13.2746C12.8371 13.4121 12.6621 13.4809 12.4496 13.4809C12.2371 13.4809 12.0621 13.4121 11.9246 13.2746L8.99961 10.3684ZM8.99961 5.86836L6.07461 8.77461C5.93711 8.91211 5.76523 8.98398 5.55898 8.99023C5.35273 8.99648 5.17461 8.92461 5.02461 8.77461C4.88711 8.63711 4.81836 8.46211 4.81836 8.24961C4.81836 8.03711 4.88711 7.86211 5.02461 7.72461L8.47461 4.27461C8.54961 4.19961 8.63086 4.14648 8.71836 4.11523C8.80586 4.08398 8.89961 4.06836 8.99961 4.06836C9.09961 4.06836 9.19336 4.08398 9.28086 4.11523C9.36836 4.14648 9.44961 4.19961 9.52461 4.27461L12.9746 7.72461C13.1121 7.86211 13.184 8.03398 13.1902 8.24023C13.1965 8.44648 13.1246 8.62461 12.9746 8.77461C12.8371 8.91211 12.6621 8.98086 12.4496 8.98086C12.2371 8.98086 12.0621 8.91211 11.9246 8.77461L8.99961 5.86836Z" fill="#F6B046"/>
</g>
</svg>
