<svg width="18" height="18" viewBox="0 0 18 18" fill="none" xmlns="http://www.w3.org/2000/svg">
<mask id="mask0_2578_1619" style="mask-type:alpha" maskUnits="userSpaceOnUse" x="0" y="0" width="18" height="18">
<rect width="18" height="18" fill="#D9D9D9"/>
</mask>
<g mask="url(#mask0_2578_1619)">
<path d="M8.809 3.95275L5.884 6.859C5.7465 6.9965 5.57463 7.06837 5.36838 7.07462C5.16213 7.08087 4.984 7.009 4.834 6.859C4.6965 6.7215 4.62775 6.5465 4.62775 6.334C4.62775 6.1215 4.6965 5.9465 4.834 5.809L7.74025 2.90275C8.02775 2.61525 8.384 2.4715 8.809 2.4715C9.234 2.4715 9.59025 2.61525 9.87775 2.90275L12.784 5.809C12.9215 5.9465 12.9934 6.11837 12.9996 6.32463C13.0059 6.53088 12.934 6.709 12.784 6.859C12.6465 6.9965 12.4715 7.06525 12.259 7.06525C12.0465 7.06525 11.8715 6.9965 11.734 6.859L8.809 3.95275ZM8.809 8.41525L5.884 11.3215C5.7465 11.459 5.57463 11.5309 5.36838 11.5371C5.16213 11.5434 4.984 11.4715 4.834 11.3215C4.6965 11.184 4.62775 11.009 4.62775 10.7965C4.62775 10.584 4.6965 10.409 4.834 10.2715L7.74025 7.36525C8.02775 7.07775 8.384 6.934 8.809 6.934C9.234 6.934 9.59025 7.07775 9.87775 7.36525L12.784 10.2715C12.9215 10.409 12.9934 10.5809 12.9996 10.7871C13.0059 10.9934 12.934 11.1715 12.784 11.3215C12.6465 11.459 12.4715 11.5277 12.259 11.5277C12.0465 11.5277 11.8715 11.459 11.734 11.3215L8.809 8.41525ZM8.809 12.8777L5.884 15.784C5.7465 15.9215 5.57463 15.9934 5.36838 15.9996C5.16213 16.0059 4.984 15.934 4.834 15.784C4.6965 15.6465 4.62775 15.4715 4.62775 15.259C4.62775 15.0465 4.6965 14.8715 4.834 14.734L7.74025 11.8277C8.02775 11.5402 8.384 11.3965 8.809 11.3965C9.234 11.3965 9.59025 11.5402 9.87775 11.8277L12.784 14.734C12.9215 14.8715 12.9934 15.0434 12.9996 15.2496C13.0059 15.4559 12.934 15.634 12.784 15.784C12.6465 15.9215 12.4715 15.9902 12.259 15.9902C12.0465 15.9902 11.8715 15.9215 11.734 15.784L8.809 12.8777Z" fill="#EC2C38"/>
</g>
</svg>
