<svg width="18" height="18" viewBox="0 0 18 18" fill="none" xmlns="http://www.w3.org/2000/svg">
<mask id="mask0_2578_1604" style="mask-type:alpha" maskUnits="userSpaceOnUse" x="0" y="0" width="18" height="18">
<rect width="18" height="18" fill="#777777"/>
</mask>
<g mask="url(#mask0_2578_1604)">
<path d="M8.99959 12.132L11.9246 9.22577C12.0621 9.08827 12.234 9.01639 12.4402 9.01014C12.6465 9.00389 12.8246 9.07577 12.9746 9.22577C13.1121 9.36327 13.1808 9.53827 13.1808 9.75077C13.1808 9.96327 13.1121 10.1383 12.9746 10.2758L10.0683 13.182C9.78084 13.4695 9.42459 13.6133 8.99959 13.6133C8.57459 13.6133 8.21834 13.4695 7.93084 13.182L5.02459 10.2758C4.88709 10.1383 4.81522 9.96639 4.80897 9.76014C4.80272 9.55389 4.87459 9.37577 5.02459 9.22577C5.16209 9.08827 5.33709 9.01952 5.54959 9.01952C5.76209 9.01952 5.93709 9.08827 6.07459 9.22577L8.99959 12.132ZM8.99959 7.63202L11.9246 4.72577C12.0621 4.58827 12.234 4.51639 12.4402 4.51014C12.6465 4.50389 12.8246 4.57577 12.9746 4.72577C13.1121 4.86327 13.1808 5.03827 13.1808 5.25077C13.1808 5.46327 13.1121 5.63827 12.9746 5.77577L10.0683 8.68202C9.78084 8.96952 9.42459 9.11327 8.99959 9.11327C8.57459 9.11327 8.21834 8.96952 7.93084 8.68202L5.02459 5.77577C4.88709 5.63827 4.81522 5.46639 4.80897 5.26014C4.80272 5.05389 4.87459 4.87577 5.02459 4.72577C5.16209 4.58827 5.33709 4.51952 5.54959 4.51952C5.76209 4.51952 5.93709 4.58827 6.07459 4.72577L8.99959 7.63202Z" fill="#777777"/>
</g>
</svg>
