<svg width="24" height="24" viewBox="0 0 24 24" fill="none" xmlns="http://www.w3.org/2000/svg">
<mask id="mask0_809_7019" style="mask-type:alpha" maskUnits="userSpaceOnUse" x="0" y="0" width="24" height="24">
<rect width="24" height="24" fill="#316094"/>
</mask>
<g mask="url(#mask0_809_7019)">
<path d="M6 22V17.7C5.05 16.8333 4.3125 15.8208 3.7875 14.6625C3.2625 13.5042 3 12.2833 3 11C3 8.5 3.875 6.375 5.625 4.625C7.375 2.875 9.5 2 12 2C14.0833 2 15.9292 2.6125 17.5375 3.8375C19.1458 5.0625 20.1917 6.65833 20.675 8.625L21.975 13.75C22.0583 14.0667 22 14.3542 21.8 14.6125C21.6 14.8708 21.3333 15 21 15H19V18C19 18.55 18.8042 19.0208 18.4125 19.4125C18.0208 19.8042 17.55 20 17 20H15V22H13V18H17V13H19.7L18.75 9.125C18.3667 7.60833 17.55 6.375 16.3 5.425C15.05 4.475 13.6167 4 12 4C10.0667 4 8.41667 4.675 7.05 6.025C5.68333 7.375 5 9.01667 5 10.95C5 11.95 5.20417 12.9 5.6125 13.8C6.02083 14.7 6.6 15.5 7.35 16.2L8 16.8V22H6Z" fill="#316094"/>
<path d="M9.00391 14H7.19336L9.31152 7.63672H11.5879L13.6973 14H11.8955L11.5176 12.752H9.38184L9.00391 14ZM9.76855 11.4863H11.1309L10.4717 9.35059H10.4189L9.76855 11.4863ZM15.82 7.63672V14H14.1501V7.63672H15.82Z" fill="#316094"/>
</g>
</svg>
