<svg width="24" height="24" viewBox="0 0 24 24" fill="none" xmlns="http://www.w3.org/2000/svg">
<mask id="mask0_2149_10898" style="mask-type:alpha" maskUnits="userSpaceOnUse" x="0" y="0" width="24" height="24">
<rect width="24" height="24" fill="#D9D9D9"/>
</mask>
<g mask="url(#mask0_2149_10898)">
<path d="M2.4 21.2C1.74 21.2 1.175 20.965 0.705 20.495C0.235 20.025 0 19.46 0 18.8V4.4C0 3.74 0.235 3.175 0.705 2.705C1.175 2.235 1.74 2 2.4 2H21.6C22.26 2 22.825 2.235 23.295 2.705C23.765 3.175 24 3.74 24 4.4V18.8C24 19.46 23.765 20.025 23.295 20.495C22.825 20.965 22.26 21.2 21.6 21.2H2.4ZM11.1 15.2L8.88 12.23C8.76 12.07 8.6 11.99 8.4 11.99C8.2 11.99 8.04 12.07 7.92 12.23L5.52 15.44C5.36 15.64 5.34 15.85 5.46 16.07C5.58 16.29 5.76 16.4 6 16.4H18C18.24 16.4 18.42 16.29 18.54 16.07C18.66 15.85 18.64 15.64 18.48 15.44L15.18 11.03C15.06 10.87 14.9 10.79 14.7 10.79C14.5 10.79 14.34 10.87 14.22 11.03L11.1 15.2Z" fill="#425EAA"/>
</g>
</svg>
