<svg width="22" height="22" viewBox="0 0 22 22" fill="none" xmlns="http://www.w3.org/2000/svg">
<mask id="mask0_1934_3222" style="mask-type:alpha" maskUnits="userSpaceOnUse" x="0" y="0" width="22" height="22">
<rect width="22" height="22" fill="#316094"/>
</mask>
<g mask="url(#mask0_1934_3222)">
<path d="M4.58333 20.1668C4.07917 20.1668 3.64757 19.9873 3.28854 19.6283C2.92951 19.2693 2.75 18.8377 2.75 18.3335V5.50016C2.75 4.996 2.92951 4.5644 3.28854 4.20537C3.64757 3.84634 4.07917 3.66683 4.58333 3.66683H5.5V2.75016C5.5 2.49044 5.58785 2.27273 5.76354 2.09704C5.93924 1.92134 6.15694 1.8335 6.41667 1.8335C6.67639 1.8335 6.8941 1.92134 7.06979 2.09704C7.24549 2.27273 7.33333 2.49044 7.33333 2.75016V3.66683H14.6667V2.75016C14.6667 2.49044 14.7545 2.27273 14.9302 2.09704C15.1059 1.92134 15.3236 1.8335 15.5833 1.8335C15.8431 1.8335 16.0608 1.92134 16.2365 2.09704C16.4122 2.27273 16.5 2.49044 16.5 2.75016V3.66683H17.4167C17.9208 3.66683 18.3524 3.84634 18.7115 4.20537C19.0705 4.5644 19.25 4.996 19.25 5.50016V18.3335C19.25 18.8377 19.0705 19.2693 18.7115 19.6283C18.3524 19.9873 17.9208 20.1668 17.4167 20.1668H4.58333ZM4.58333 18.3335H17.4167V9.16683H4.58333V18.3335ZM4.58333 7.3335H17.4167V5.50016H4.58333V7.3335ZM11 12.8335C10.7403 12.8335 10.5226 12.7456 10.3469 12.57C10.1712 12.3943 10.0833 12.1766 10.0833 11.9168C10.0833 11.6571 10.1712 11.4394 10.3469 11.2637C10.5226 11.088 10.7403 11.0002 11 11.0002C11.2597 11.0002 11.4774 11.088 11.6531 11.2637C11.8288 11.4394 11.9167 11.6571 11.9167 11.9168C11.9167 12.1766 11.8288 12.3943 11.6531 12.57C11.4774 12.7456 11.2597 12.8335 11 12.8335ZM7.33333 12.8335C7.07361 12.8335 6.8559 12.7456 6.68021 12.57C6.50451 12.3943 6.41667 12.1766 6.41667 11.9168C6.41667 11.6571 6.50451 11.4394 6.68021 11.2637C6.8559 11.088 7.07361 11.0002 7.33333 11.0002C7.59306 11.0002 7.81076 11.088 7.98646 11.2637C8.16215 11.4394 8.25 11.6571 8.25 11.9168C8.25 12.1766 8.16215 12.3943 7.98646 12.57C7.81076 12.7456 7.59306 12.8335 7.33333 12.8335ZM14.6667 12.8335C14.4069 12.8335 14.1892 12.7456 14.0135 12.57C13.8378 12.3943 13.75 12.1766 13.75 11.9168C13.75 11.6571 13.8378 11.4394 14.0135 11.2637C14.1892 11.088 14.4069 11.0002 14.6667 11.0002C14.9264 11.0002 15.1441 11.088 15.3198 11.2637C15.4955 11.4394 15.5833 11.6571 15.5833 11.9168C15.5833 12.1766 15.4955 12.3943 15.3198 12.57C15.1441 12.7456 14.9264 12.8335 14.6667 12.8335ZM11 16.5002C10.7403 16.5002 10.5226 16.4123 10.3469 16.2366C10.1712 16.0609 10.0833 15.8432 10.0833 15.5835C10.0833 15.3238 10.1712 15.1061 10.3469 14.9304C10.5226 14.7547 10.7403 14.6668 11 14.6668C11.2597 14.6668 11.4774 14.7547 11.6531 14.9304C11.8288 15.1061 11.9167 15.3238 11.9167 15.5835C11.9167 15.8432 11.8288 16.0609 11.6531 16.2366C11.4774 16.4123 11.2597 16.5002 11 16.5002ZM7.33333 16.5002C7.07361 16.5002 6.8559 16.4123 6.68021 16.2366C6.50451 16.0609 6.41667 15.8432 6.41667 15.5835C6.41667 15.3238 6.50451 15.1061 6.68021 14.9304C6.8559 14.7547 7.07361 14.6668 7.33333 14.6668C7.59306 14.6668 7.81076 14.7547 7.98646 14.9304C8.16215 15.1061 8.25 15.3238 8.25 15.5835C8.25 15.8432 8.16215 16.0609 7.98646 16.2366C7.81076 16.4123 7.59306 16.5002 7.33333 16.5002ZM14.6667 16.5002C14.4069 16.5002 14.1892 16.4123 14.0135 16.2366C13.8378 16.0609 13.75 15.8432 13.75 15.5835C13.75 15.3238 13.8378 15.1061 14.0135 14.9304C14.1892 14.7547 14.4069 14.6668 14.6667 14.6668C14.9264 14.6668 15.1441 14.7547 15.3198 14.9304C15.4955 15.1061 15.5833 15.3238 15.5833 15.5835C15.5833 15.8432 15.4955 16.0609 15.3198 16.2366C15.1441 16.4123 14.9264 16.5002 14.6667 16.5002Z" fill="#316094"/>
</g>
</svg>
