<svg width="34" height="34" viewBox="0 0 34 34" fill="none" xmlns="http://www.w3.org/2000/svg">
<path d="M16.9986 20.6167L4.34027 33.2751C3.86666 33.7487 3.26388 33.9855 2.53193 33.9855C1.79999 33.9855 1.19721 33.7487 0.7236 33.2751C0.249989 32.8015 0.0131836 32.1987 0.0131836 31.4667C0.0131836 30.7348 0.249989 30.132 0.7236 29.6584L13.3819 17.0001L0.7236 4.34173C0.249989 3.86812 0.0131836 3.26534 0.0131836 2.5334C0.0131836 1.80145 0.249989 1.19868 0.7236 0.725065C1.19721 0.251454 1.79999 0.0146484 2.53193 0.0146484C3.26388 0.0146484 3.86666 0.251454 4.34027 0.725065L16.9986 13.3834L29.6569 0.725065C30.1305 0.251454 30.7333 0.0146484 31.4653 0.0146484C32.1972 0.0146484 32.8 0.251454 33.2736 0.725065C33.7472 1.19868 33.984 1.80145 33.984 2.5334C33.984 3.26534 33.7472 3.86812 33.2736 4.34173L20.6153 17.0001L33.2736 29.6584C33.7472 30.132 33.984 30.7348 33.984 31.4667C33.984 32.1987 33.7472 32.8015 33.2736 33.2751C32.8 33.7487 32.1972 33.9855 31.4653 33.9855C30.7333 33.9855 30.1305 33.7487 29.6569 33.2751L16.9986 20.6167Z" fill="#050505"/>
</svg>
