<svg width="24" height="24" viewBox="0 0 24 24" fill="none" xmlns="http://www.w3.org/2000/svg">
<mask id="mask0_1534_992" style="mask-type:alpha" maskUnits="userSpaceOnUse" x="0" y="0" width="24" height="24">
<rect width="24" height="24" fill="#D9D9D9"/>
</mask>
<g mask="url(#mask0_1534_992)">
<path d="M11 18C8.76667 18 6.875 17.225 5.325 15.675C3.775 14.125 3 12.2333 3 10C3 7.76667 3.775 5.875 5.325 4.325C6.875 2.775 8.76667 2 11 2C13.2333 2 15.125 2.775 16.675 4.325C18.225 5.875 19 7.76667 19 10C19 10.9333 18.85 11.8125 18.55 12.6375C18.25 13.4625 17.8333 14.2167 17.3 14.9L21.3 18.9C21.4833 19.0833 21.575 19.3167 21.575 19.6C21.575 19.8833 21.4833 20.1167 21.3 20.3C21.1167 20.4833 20.8833 20.575 20.6 20.575C20.3167 20.575 20.0833 20.4833 19.9 20.3L15.9 16.3C15.2167 16.8333 14.4625 17.25 13.6375 17.55C12.8125 17.85 11.9333 18 11 18ZM11 16C12.6667 16 14.0833 15.4167 15.25 14.25C16.4167 13.0833 17 11.6667 17 10C17 8.33333 16.4167 6.91667 15.25 5.75C14.0833 4.58333 12.6667 4 11 4C9.33333 4 7.91667 4.58333 6.75 5.75C5.58333 6.91667 5 8.33333 5 10C5 11.6667 5.58333 13.0833 6.75 14.25C7.91667 15.4167 9.33333 16 11 16Z" fill="#AAAAAA"/>
</g>
</svg>
