<svg width="16" height="16" viewBox="0 0 16 16" fill="none" xmlns="http://www.w3.org/2000/svg">
<mask id="mask0_1331_2403" style="mask-type:alpha" maskUnits="userSpaceOnUse" x="0" y="0" width="16" height="16">
<rect width="16" height="16" fill="#777777"/>
</mask>
<g mask="url(#mask0_1331_2403)">
<path d="M13.2 8.61664L2.93333 12.95C2.71111 13.0389 2.5 13.0194 2.3 12.8916C2.1 12.7639 2 12.5777 2 12.3333V3.66664C2 3.42219 2.1 3.23608 2.3 3.1083C2.5 2.98053 2.71111 2.96108 2.93333 3.04997L13.2 7.3833C13.4778 7.50553 13.6167 7.71108 13.6167 7.99997C13.6167 8.28886 13.4778 8.49442 13.2 8.61664ZM3.33333 11.3333L11.2333 7.99997L3.33333 4.66664V6.99997L7.33333 7.99997L3.33333 8.99997V11.3333Z" fill="#316094"/>
</g>
</svg>
