<svg width="29" height="29" viewBox="0 0 29 29" fill="none" xmlns="http://www.w3.org/2000/svg">
<path d="M28.5 14.25C28.5 22.1201 22.1201 28.5 14.25 28.5C6.37994 28.5 0 22.1201 0 14.25C0 6.37994 6.37994 0 14.25 0C22.1201 0 28.5 6.37994 28.5 14.25Z" fill="#1C1B1F"/>
<path d="M10 17.5209V11.4791C10 11.0723 10.1448 10.7241 10.4345 10.4345C10.7241 10.1448 11.0723 10 11.4791 10H17.5209C17.9277 10 18.2759 10.1448 18.5655 10.4345C18.8552 10.7241 19 11.0723 19 11.4791V17.5209C19 17.9277 18.8552 18.2759 18.5655 18.5655C18.2759 18.8552 17.9277 19 17.5209 19H11.4791C11.0723 19 10.7241 18.8552 10.4345 18.5655C10.1448 18.2759 10 17.9277 10 17.5209Z" fill="white"/>
</svg>
