<svg width="20" height="20" viewBox="0 0 20 20" fill="none" xmlns="http://www.w3.org/2000/svg">
<path d="M5.83398 8.05453C5.83398 7.46509 6.06814 6.89979 6.48494 6.48299C6.90174 6.06619 7.46704 5.83203 8.05648 5.83203H15.2782C15.57 5.83203 15.859 5.88952 16.1287 6.00121C16.3983 6.1129 16.6433 6.27661 16.8497 6.48299C17.0561 6.68936 17.2198 6.93437 17.3315 7.20402C17.4432 7.47366 17.5007 7.76267 17.5007 8.05453V15.2762C17.5007 15.5681 17.4432 15.8571 17.3315 16.1267C17.2198 16.3964 17.0561 16.6414 16.8497 16.8477C16.6433 17.0541 16.3983 17.2178 16.1287 17.3295C15.859 17.4412 15.57 17.4987 15.2782 17.4987H8.05648C7.76462 17.4987 7.47562 17.4412 7.20597 17.3295C6.93632 17.2178 6.69132 17.0541 6.48494 16.8477C6.27856 16.6414 6.11485 16.3964 6.00316 16.1267C5.89147 15.8571 5.83398 15.5681 5.83398 15.2762V8.05453Z" stroke="white" stroke-width="1.5" stroke-linecap="round" stroke-linejoin="round"/>
<path d="M3.34333 13.9475C3.0875 13.8021 2.87471 13.5916 2.72658 13.3374C2.57846 13.0832 2.50028 12.7942 2.5 12.5V4.16667C2.5 3.25 3.25 2.5 4.16667 2.5H12.5C13.125 2.5 13.465 2.82083 13.75 3.33333" stroke="white" stroke-width="1.5" stroke-linecap="round" stroke-linejoin="round"/>
</svg>
