<svg width="16" height="16" viewBox="0 0 16 16" fill="none" xmlns="http://www.w3.org/2000/svg">
<mask id="mask0_90_868" style="mask-type:alpha" maskUnits="userSpaceOnUse" x="0" y="0" width="16" height="16">
<rect width="16" height="16" fill="#316094"/>
</mask>
<g mask="url(#mask0_90_868)">
<path d="M7.99967 14.6666C7.07745 14.6666 6.21079 14.4916 5.39967 14.1416C4.58856 13.7916 3.88301 13.3166 3.28301 12.7166C2.68301 12.1166 2.20801 11.4111 1.85801 10.6C1.50801 9.78887 1.33301 8.9222 1.33301 7.99998C1.33301 7.07776 1.50801 6.21109 1.85801 5.39998C2.20801 4.58887 2.68301 3.88331 3.28301 3.28331C3.88301 2.68331 4.58856 2.20831 5.39967 1.85831C6.21079 1.50831 7.07745 1.33331 7.99967 1.33331C8.53301 1.33331 9.05245 1.39442 9.55801 1.51665C10.0636 1.63887 10.5497 1.81665 11.0163 2.04998C11.183 2.13887 11.2913 2.2722 11.3413 2.44998C11.3913 2.62776 11.3608 2.79442 11.2497 2.94998C11.1386 3.10554 10.9913 3.20554 10.808 3.24998C10.6247 3.29442 10.4441 3.2722 10.2663 3.18331C9.91079 3.01665 9.54134 2.88887 9.15801 2.79998C8.77467 2.71109 8.38856 2.66665 7.99967 2.66665C6.5219 2.66665 5.26356 3.18609 4.22467 4.22498C3.18579 5.26387 2.66634 6.5222 2.66634 7.99998C2.66634 9.47776 3.18579 10.7361 4.22467 11.775C5.26356 12.8139 6.5219 13.3333 7.99967 13.3333C9.47745 13.3333 10.7358 12.8139 11.7747 11.775C12.8136 10.7361 13.333 9.47776 13.333 7.99998C13.333 7.91109 13.3302 7.82498 13.3247 7.74165C13.3191 7.65831 13.3108 7.5722 13.2997 7.48331C13.2775 7.29442 13.3136 7.11387 13.408 6.94165C13.5025 6.76942 13.6441 6.65553 13.833 6.59998C14.0108 6.54442 14.1775 6.56109 14.333 6.64998C14.4886 6.73887 14.5775 6.8722 14.5997 7.04998C14.6219 7.20553 14.6386 7.36109 14.6497 7.51665C14.6608 7.6722 14.6663 7.83331 14.6663 7.99998C14.6663 8.9222 14.4913 9.78887 14.1413 10.6C13.7913 11.4111 13.3163 12.1166 12.7163 12.7166C12.1163 13.3166 11.4108 13.7916 10.5997 14.1416C9.78856 14.4916 8.9219 14.6666 7.99967 14.6666ZM7.06634 9.19998L13.2663 2.98331C13.3886 2.86109 13.5413 2.7972 13.7247 2.79165C13.908 2.78609 14.0663 2.84998 14.1997 2.98331C14.3219 3.10554 14.383 3.26109 14.383 3.44998C14.383 3.63887 14.3219 3.79442 14.1997 3.91665L7.53301 10.6C7.39967 10.7333 7.24412 10.8 7.06634 10.8C6.88856 10.8 6.73301 10.7333 6.59967 10.6L4.69967 8.69998C4.57745 8.57776 4.51634 8.4222 4.51634 8.23331C4.51634 8.04442 4.57745 7.88887 4.69967 7.76665C4.8219 7.64442 4.97745 7.58331 5.16634 7.58331C5.35523 7.58331 5.51079 7.64442 5.63301 7.76665L7.06634 9.19998Z" fill="#316094"/>
</g>
</svg>
