<svg width="24" height="24" viewBox="0 0 24 24" fill="none" xmlns="http://www.w3.org/2000/svg">
<mask id="mask0_5191_2726" style="mask-type:alpha" maskUnits="userSpaceOnUse" x="0" y="0" width="24" height="24">
<rect width="24" height="24" fill="#316094"/>
</mask>
<g mask="url(#mask0_5191_2726)">
<path d="M10 16C11.6667 16 13.0833 15.4167 14.25 14.25C15.4167 13.0833 16 11.6667 16 10C16 8.33333 15.4167 6.91667 14.25 5.75C13.0833 4.58333 11.6667 4 10 4C8.33333 4 6.91667 4.58333 5.75 5.75C4.58333 6.91667 4 8.33333 4 10C4 11.6667 4.58333 13.0833 5.75 14.25C6.91667 15.4167 8.33333 16 10 16ZM10 13C9.71667 13 9.47917 12.9042 9.2875 12.7125C9.09583 12.5208 9 12.2833 9 12V7C9 6.71667 9.09583 6.47917 9.2875 6.2875C9.47917 6.09583 9.71667 6 10 6C10.2833 6 10.5208 6.09583 10.7125 6.2875C10.9042 6.47917 11 6.71667 11 7V12C11 12.2833 10.9042 12.5208 10.7125 12.7125C10.5208 12.9042 10.2833 13 10 13ZM6.5 13C6.21667 13 5.97917 12.9042 5.7875 12.7125C5.59583 12.5208 5.5 12.2833 5.5 12V9C5.5 8.71667 5.59583 8.47917 5.7875 8.2875C5.97917 8.09583 6.21667 8 6.5 8C6.78333 8 7.02083 8.09583 7.2125 8.2875C7.40417 8.47917 7.5 8.71667 7.5 9V12C7.5 12.2833 7.40417 12.5208 7.2125 12.7125C7.02083 12.9042 6.78333 13 6.5 13ZM13.5 13C13.2167 13 12.9792 12.9042 12.7875 12.7125C12.5958 12.5208 12.5 12.2833 12.5 12V10C12.5 9.71667 12.5958 9.47917 12.7875 9.2875C12.9792 9.09583 13.2167 9 13.5 9C13.7833 9 14.0208 9.09583 14.2125 9.2875C14.4042 9.47917 14.5 9.71667 14.5 10V12C14.5 12.2833 14.4042 12.5208 14.2125 12.7125C14.0208 12.9042 13.7833 13 13.5 13ZM10 18C7.76667 18 5.875 17.225 4.325 15.675C2.775 14.125 2 12.2333 2 10C2 7.76667 2.775 5.875 4.325 4.325C5.875 2.775 7.76667 2 10 2C12.2333 2 14.125 2.775 15.675 4.325C17.225 5.875 18 7.76667 18 10C18 10.9333 17.8542 11.8167 17.5625 12.65C17.2708 13.4833 16.8583 14.2417 16.325 14.925L21.3 19.9C21.4833 20.0833 21.575 20.3167 21.575 20.6C21.575 20.8833 21.4833 21.1167 21.3 21.3C21.1167 21.4833 20.8833 21.575 20.6 21.575C20.3167 21.575 20.0833 21.4833 19.9 21.3L14.925 16.325C14.2417 16.8583 13.4833 17.2708 12.65 17.5625C11.8167 17.8542 10.9333 18 10 18Z" fill="#316094"/>
</g>
</svg>
