<svg width="24" height="24" viewBox="0 0 24 24" fill="none" xmlns="http://www.w3.org/2000/svg">
<mask id="mask0_1122_10308" style="mask-type:alpha" maskUnits="userSpaceOnUse" x="0" y="0" width="24" height="24">
<rect width="24" height="24" fill="#E7E7E7"/>
</mask>
<g mask="url(#mask0_1122_10308)">
<path d="M12.0017 21.5C10.6877 21.5 9.45267 21.2507 8.2965 20.752C7.14033 20.2533 6.13467 19.5766 5.2795 18.7218C4.42433 17.8669 3.74725 16.8617 3.24825 15.706C2.74942 14.5503 2.5 13.3156 2.5 12.0017C2.5 10.6877 2.74933 9.45267 3.248 8.2965C3.74667 7.14033 4.42342 6.13467 5.27825 5.2795C6.13308 4.42433 7.13833 3.74725 8.294 3.24825C9.44967 2.74942 10.6844 2.5 11.9983 2.5C13.3123 2.5 14.5473 2.74933 15.7035 3.248C16.8597 3.74667 17.8653 4.42342 18.7205 5.27825C19.5757 6.13308 20.2528 7.13833 20.7518 8.294C21.2506 9.44967 21.5 10.6844 21.5 11.9983C21.5 13.3123 21.2507 14.5473 20.752 15.7035C20.2533 16.8597 19.5766 17.8653 18.7218 18.7205C17.8669 19.5757 16.8617 20.2528 15.706 20.7518C14.5503 21.2506 13.3156 21.5 12.0017 21.5ZM12.8057 12.75L11.473 14.0828C11.3347 14.2213 11.2671 14.3937 11.2703 14.6C11.2734 14.8063 11.3442 14.9788 11.4827 15.1173C11.6213 15.2558 11.7958 15.325 12.0065 15.325C12.2172 15.325 12.3907 15.2558 12.527 15.1173L15.0115 12.6328C15.1923 12.4519 15.2828 12.241 15.2828 12C15.2828 11.759 15.1923 11.5481 15.0115 11.3673L12.5173 8.873C12.3787 8.73467 12.2063 8.6655 12 8.6655C11.7937 8.6655 11.6213 8.73467 11.4827 8.873C11.3442 9.0115 11.275 9.18608 11.275 9.39675C11.275 9.60742 11.3442 9.78092 11.4827 9.91725L12.8057 11.25H9C8.7875 11.25 8.60942 11.3219 8.46575 11.4658C8.32192 11.6096 8.25 11.7878 8.25 12.0003C8.25 12.2129 8.32192 12.391 8.46575 12.5345C8.60942 12.6782 8.7875 12.75 9 12.75H12.8057Z" fill="#AAAAAA"/>
</g>
</svg>
