<svg width="36" height="37" viewBox="0 0 36 37" fill="none" xmlns="http://www.w3.org/2000/svg">
<mask id="mask0_5422_3881" style="mask-type:alpha" maskUnits="userSpaceOnUse" x="6" y="6" width="24" height="25">
<rect x="6" y="6.5" width="24" height="24" fill="#1C1B1F"/>
</mask>
<g mask="url(#mask0_5422_3881)">
<path d="M9.2 29.5C8.595 29.5 8.07708 29.2836 7.64625 28.8507C7.21542 28.4178 7 27.8974 7 27.2895V15.1316C7 14.5237 7.21542 14.0033 7.64625 13.5704C8.07708 13.1375 8.595 12.9211 9.2 12.9211H13.6V10.7105C13.6 10.1026 13.8154 9.58224 14.2463 9.14934C14.6771 8.71645 15.195 8.5 15.8 8.5H20.2C20.805 8.5 21.3229 8.71645 21.7538 9.14934C22.1846 9.58224 22.4 10.1026 22.4 10.7105V12.9211H26.8C27.405 12.9211 27.9229 13.1375 28.3538 13.5704C28.7846 14.0033 29 14.5237 29 15.1316V27.2895C29 27.8974 28.7846 28.4178 28.3538 28.8507C27.9229 29.2836 27.405 29.5 26.8 29.5H9.2ZM9.2 27.2895H26.8V15.1316H9.2V27.2895ZM15.8 12.9211H20.2V10.7105H15.8V12.9211Z" fill="#777777"/>
</g>
</svg>
