<svg width="24" height="17" viewBox="0 0 24 17" fill="none" xmlns="http://www.w3.org/2000/svg">
<path d="M23.4984 2.87457C23.2224 1.84577 22.4093 1.03541 21.3767 0.760448C19.5049 0.260731 11.9999 0.260731 11.9999 0.260731C11.9999 0.260731 4.49499 0.260731 2.62332 0.760448C1.59078 1.03541 0.777489 1.84577 0.501528 2.87457C0 4.73948 0 8.6303 0 8.6303C0 8.6303 0 12.5213 0.501528 14.3861C0.777489 15.4148 1.59078 16.2252 2.62332 16.5001C4.49499 17 11.9999 17 11.9999 17C11.9999 17 19.5049 17 21.3767 16.5001C22.4093 16.2252 23.2224 15.4148 23.4984 14.3861C24 12.5213 24 8.6303 24 8.6303C24 8.6303 24 4.73948 23.4984 2.87457Z" fill="#ED1D24"/>
<path d="M9.59961 12.2148L15.8348 8.6279L9.59961 5.04086V12.2148Z" fill="white"/>
</svg>
