<svg width="24" height="24" viewBox="0 0 24 24" fill="none" xmlns="http://www.w3.org/2000/svg">
<mask id="mask0_5020_2072" style="mask-type:alpha" maskUnits="userSpaceOnUse" x="0" y="0" width="24" height="24">
<rect width="24" height="24" fill="#D9D9D9"/>
</mask>
<g mask="url(#mask0_5020_2072)">
<path d="M12.8067 12.75L11.474 14.0828C11.3356 14.2213 11.2681 14.3937 11.2712 14.6C11.2744 14.8063 11.3452 14.9788 11.4837 15.1173C11.6222 15.2558 11.7968 15.325 12.0075 15.325C12.2181 15.325 12.3916 15.2558 12.528 15.1173L15.0125 12.6328C15.1933 12.4519 15.2837 12.241 15.2837 12C15.2837 11.759 15.1933 11.5481 15.0125 11.3673L12.5182 8.873C12.3797 8.73467 12.2073 8.6655 12.001 8.6655C11.7946 8.6655 11.6222 8.73467 11.4837 8.873C11.3452 9.0115 11.276 9.18608 11.276 9.39675C11.276 9.60742 11.3452 9.78092 11.4837 9.91725L12.8067 11.25H9.00098C8.78848 11.25 8.61039 11.3219 8.46673 11.4658C8.32289 11.6096 8.25098 11.7878 8.25098 12.0003C8.25098 12.2129 8.32289 12.391 8.46673 12.5345C8.61039 12.6782 8.78848 12.75 9.00098 12.75H12.8067ZM12.0027 21.5C10.6887 21.5 9.45364 21.2507 8.29748 20.752C7.14131 20.2533 6.13564 19.5766 5.28048 18.7218C4.42531 17.8669 3.74823 16.8617 3.24923 15.706C2.75039 14.5503 2.50098 13.3156 2.50098 12.0017C2.50098 10.6877 2.75031 9.45267 3.24898 8.2965C3.74764 7.14033 4.42439 6.13467 5.27923 5.2795C6.13406 4.42433 7.13931 3.74725 8.29498 3.24825C9.45064 2.74942 10.6854 2.5 11.9992 2.5C13.3132 2.5 14.5483 2.74933 15.7045 3.248C16.8606 3.74667 17.8663 4.42342 18.7215 5.27825C19.5766 6.13308 20.2537 7.13833 20.7527 8.294C21.2516 9.44967 21.501 10.6844 21.501 11.9983C21.501 13.3123 21.2516 14.5473 20.753 15.7035C20.2543 16.8597 19.5776 17.8653 18.7227 18.7205C17.8679 19.5757 16.8626 20.2528 15.707 20.7518C14.5513 21.2506 13.3166 21.5 12.0027 21.5ZM12.001 20C14.2343 20 16.126 19.225 17.676 17.675C19.226 16.125 20.001 14.2333 20.001 12C20.001 9.76667 19.226 7.875 17.676 6.325C16.126 4.775 14.2343 4 12.001 4C9.76764 4 7.87598 4.775 6.32598 6.325C4.77598 7.875 4.00098 9.76667 4.00098 12C4.00098 14.2333 4.77598 16.125 6.32598 17.675C7.87598 19.225 9.76764 20 12.001 20Z" fill="#333333"/>
</g>
</svg>
