<svg width="20" height="20" viewBox="0 0 20 20" fill="none" xmlns="http://www.w3.org/2000/svg">
<mask id="mask0_2906_11692" style="mask-type:alpha" maskUnits="userSpaceOnUse" x="0" y="0" width="20" height="20">
<rect width="20" height="20" fill="#D9D9D9"/>
</mask>
<g mask="url(#mask0_2906_11692)">
<path d="M10.0408 16.4577C8.23842 16.4577 6.70453 15.8305 5.43911 14.5762C4.17356 13.3219 3.54078 11.7963 3.54078 9.99935V9.34872L2.43828 10.4512C2.32286 10.5666 2.1778 10.6257 2.00307 10.6283C1.82849 10.6309 1.68078 10.5719 1.55995 10.4512C1.43925 10.3305 1.37891 10.1842 1.37891 10.0123C1.37891 9.84018 1.43925 9.69379 1.55995 9.5731L3.63849 7.49456C3.78918 7.34386 3.96495 7.26852 4.16578 7.26852C4.36661 7.26852 4.54238 7.34386 4.69307 7.49456L6.77161 9.5731C6.88689 9.68852 6.94592 9.83352 6.9487 10.0081C6.95134 10.1828 6.89231 10.3305 6.77161 10.4512C6.65078 10.5719 6.50439 10.6323 6.33245 10.6323C6.1605 10.6323 6.01411 10.5719 5.89328 10.4512L4.79078 9.34872V9.99935C4.79078 11.447 5.30036 12.677 6.31953 13.6894C7.33884 14.7016 8.57925 15.2077 10.0408 15.2077C10.2844 15.2077 10.5272 15.1912 10.7691 15.1581C11.0112 15.1249 11.2497 15.0682 11.4847 14.9881C11.6621 14.9348 11.8295 14.9404 11.987 15.005C12.1447 15.0696 12.263 15.1793 12.342 15.3343C12.4211 15.4978 12.4261 15.6605 12.3572 15.8223C12.2884 15.9841 12.1652 16.0917 11.9879 16.1452C11.6738 16.2563 11.3528 16.3362 11.0247 16.3848C10.6968 16.4334 10.3688 16.4577 10.0408 16.4577ZM9.95745 4.79102C9.71384 4.79102 9.47106 4.80754 9.22911 4.8406C8.98703 4.87379 8.74849 4.93046 8.51349 5.0106C8.33613 5.06393 8.16654 5.05831 8.00474 4.99372C7.84293 4.92914 7.72245 4.81935 7.64328 4.66435C7.56425 4.50949 7.55786 4.35115 7.62411 4.18935C7.69036 4.0274 7.80786 3.91977 7.97661 3.86643C8.29925 3.75532 8.62592 3.67331 8.95661 3.62039C9.28731 3.56747 9.62092 3.54102 9.95745 3.54102C11.7598 3.54102 13.2937 4.16817 14.5591 5.42247C15.8247 6.67678 16.4574 8.2024 16.4574 9.99935V10.65L17.5599 9.54747C17.6754 9.43206 17.8204 9.37303 17.9952 9.37039C18.1697 9.36775 18.3174 9.42678 18.4383 9.54747C18.559 9.66817 18.6193 9.81449 18.6193 9.98643C18.6193 10.1585 18.559 10.3049 18.4383 10.4256L16.3597 12.5041C16.209 12.6548 16.0333 12.7302 15.8324 12.7302C15.6316 12.7302 15.4559 12.6548 15.3052 12.5041L13.2266 10.4256C13.1113 10.3102 13.0523 10.1652 13.0495 9.9906C13.0469 9.81588 13.1059 9.66817 13.2266 9.54747C13.3474 9.42678 13.4938 9.36643 13.6658 9.36643C13.8377 9.36643 13.9841 9.42678 14.1049 9.54747L15.2074 10.65V9.99935C15.2074 8.55171 14.6979 7.32171 13.6787 6.30935C12.6594 5.29713 11.419 4.79102 9.95745 4.79102Z" fill="#999999"/>
</g>
</svg>
