<svg width="20" height="20" viewBox="0 0 20 20" fill="none" xmlns="http://www.w3.org/2000/svg">
<path d="M17.4126 14.8435C17.7076 14.2888 17.8626 13.6661 17.8626 13.0336C17.8626 12.0028 17.461 11.0335 16.7324 10.3042C16.5244 10.0962 16.2968 9.91502 16.0541 9.76196C16.0332 8.88288 15.8501 8.02931 15.5093 7.22349C15.1587 6.39478 14.657 5.65044 14.018 5.01141C13.379 4.37238 12.6346 3.8707 11.8059 3.52012C10.9464 3.15645 10.0347 2.97266 9.09541 2.97266C8.15616 2.97266 7.24438 3.15645 6.38623 3.51946C5.55752 3.87005 4.81318 4.37172 4.17415 5.01076C3.53512 5.64979 3.03344 6.39413 2.68286 7.22284C2.31984 8.08099 2.13605 8.99277 2.13605 9.93202C2.13605 11.11 2.43496 12.2697 3.00074 13.2946L2 17.0287L5.73412 16.028C6.75905 16.5938 7.91873 16.8927 9.09672 16.8927C10.036 16.8927 10.9478 16.7089 11.8059 16.3459C11.8484 16.3282 11.8903 16.3099 11.9321 16.2909C12.5457 16.6827 13.2586 16.8927 14.0043 16.8927C14.6367 16.8927 15.2594 16.7377 15.8141 16.4427L18 17.0287L17.4126 14.8435ZM9.09541 16.238C7.98676 16.238 6.89641 15.9462 5.94211 15.3936L5.82438 15.3255L2.92683 16.1019L3.70321 13.2044L3.63519 13.0866C3.08315 12.1323 2.79078 11.042 2.79078 9.93333C2.79078 6.45692 5.619 3.62869 9.09541 3.62869C12.4011 3.62869 15.1201 6.18613 15.3798 9.42577C14.9461 9.26029 14.4811 9.17395 14.0029 9.17395C12.9721 9.17395 12.0028 9.57555 11.2735 10.3042C10.5442 11.0335 10.1432 12.0028 10.1432 13.0336C10.1432 14.0645 10.5448 15.0338 11.2735 15.7631C11.2944 15.784 11.316 15.805 11.3376 15.8259C10.641 16.0921 9.88488 16.238 9.09541 16.238ZM17.0712 16.1019L15.7232 15.7409L15.6054 15.8089C15.1208 16.0895 14.5668 16.238 14.0029 16.238C13.513 16.238 13.0486 16.1274 12.6327 15.9299C12.4044 15.8213 12.1912 15.6866 11.9962 15.5303C11.2669 14.9422 10.7986 14.0422 10.7986 13.0343C10.7986 11.2676 12.2356 9.83064 14.0023 9.83064C14.5013 9.83064 14.9742 9.9451 15.3955 10.1498C15.6224 10.2597 15.8344 10.3964 16.028 10.554C16.7468 11.1421 17.206 12.0355 17.206 13.0343C17.206 13.5975 17.0575 14.1521 16.7769 14.6368L16.7089 14.7545L17.0712 16.1019Z" fill="#999999" stroke="#999999" stroke-width="0.5" stroke-miterlimit="10"/>
</svg>
