<svg width="86" height="108" viewBox="0 0 86 108" fill="none" xmlns="http://www.w3.org/2000/svg">
<g clip-path="url(#clip0_4961_1873)">
<path d="M28.4851 0.794587L77.1626 27.6861C78.6363 28.5354 79.5455 30.4088 79.5455 32.1123L79.3757 74.1706C79.3757 75.0598 78.9111 75.7842 78.2467 76.1938L76.0586 77.2729L75.4841 76.4586C75.4391 76.4336 75.3942 76.4086 75.3442 76.3837L27.2961 48.7977C25.8224 47.9485 24.9182 46.3748 24.9182 44.6763L24.0489 3.1825C24.0489 2.30327 23.999 1.91861 26.0272 1.0094C26.8265 0.649713 27.6608 0.320001 28.4851 0.794587Z" fill="#DBDBDB"/>
<path d="M41.4796 55.7266L41.4996 62.051C41.5046 63.5547 40.7053 64.9435 39.4065 65.6929L33.9062 69.5295L49.118 78.3119L54.6382 75.1396C55.942 74.3903 57.2309 73.0065 57.2309 71.5028V65.1483L41.4796 55.7266Z" fill="#919191"/>
<path d="M40.3897 55.0977L40.4097 61.8318C40.4147 63.0807 39.7503 64.2397 38.6662 64.8691L33.9004 67.6217L49.1071 76.4041L53.888 73.6565C54.972 73.032 55.6414 71.878 55.6414 70.6291V63.87L40.3897 55.0977Z" fill="#DBDBDB"/>
<path d="M33.9004 67.6172V69.5355L49.1121 78.3179L49.1071 76.3995L33.9004 67.6172Z" fill="#AFAFAF"/>
<path d="M73.8451 77.1555C75.4287 78.0697 77.412 76.9257 77.412 75.0923L77.5818 33.034C77.5818 31.3305 76.6726 29.7619 75.1989 28.9126L26.981 1.87619C25.3973 0.961987 23.4141 2.10599 23.4141 3.93939V45.4582C23.4141 47.1567 24.3233 48.7303 25.792 49.5796L73.8451 77.1555Z" fill="#E8E8E8"/>
<path d="M26.5859 5.38281V44.3738L73.9796 71.5751L74.1495 31.9796L26.5859 5.38281Z" fill="white"/>
<path d="M27.8998 6.06722V45.0582L26.5859 44.3738V5.38281L27.8998 6.06722Z" fill="#919191"/>
<path d="M27.9148 43.7969L73.9796 70.079V71.5776L26.5859 44.3764L27.9148 43.7969Z" fill="#AFAFAF"/>
<path d="M59.8522 88.6914L59.8472 90.3799L39.8047 102.03V100.341L59.8522 88.6914Z" fill="#919191"/>
<path d="M39.8053 100.343V102.032L0 78.9268L0.00499564 77.2383L39.8053 100.343Z" fill="#AFAFAF"/>
<path d="M59.8537 88.6908L39.8061 100.341L0.00585938 77.2358L20.0534 65.5859L59.8537 88.6908Z" fill="#E8E8E8"/>
<path d="M19.0993 70.2044C19.0094 70.2544 19.0094 70.3343 19.0943 70.3843L21.1026 71.5532C21.1875 71.6032 21.3224 71.5982 21.4073 71.5482L23.4905 70.3443C23.5754 70.2943 23.5804 70.2144 23.4955 70.1644L21.4922 69.0005C21.4073 68.9505 21.2724 68.9555 21.1825 69.0005L19.0993 70.2044Z" fill="#919191"/>
<path d="M22.4002 72.1292C22.3153 72.1792 22.3103 72.2591 22.3952 72.3091L24.4035 73.4781C24.4884 73.528 24.6233 73.523 24.7132 73.4731L26.7964 72.2691C26.8863 72.2191 26.8863 72.1392 26.8014 72.0893L24.7931 70.9203C24.7082 70.8703 24.5733 70.8703 24.4834 70.9203L22.4002 72.1292Z" fill="#919191"/>
<path d="M20.8026 74.7692C20.7176 74.8192 20.7127 74.8991 20.7976 74.9491L22.8058 76.1181C22.8908 76.168 23.0256 76.163 23.1156 76.1131L25.1987 74.9091C25.2837 74.8592 25.2887 74.7792 25.2037 74.7293L23.1955 73.5603C23.1106 73.5103 22.9757 73.5103 22.8858 73.5653L20.8026 74.7692Z" fill="#919191"/>
<path d="M25.703 74.0472C25.618 74.0972 25.613 74.1771 25.698 74.227L27.7062 75.396C27.7911 75.441 27.926 75.441 28.016 75.391L30.0991 74.1871C30.1841 74.1371 30.1891 74.0572 30.1041 74.0072L28.0959 72.8382C28.011 72.7883 27.8761 72.7883 27.7861 72.8382L25.703 74.0472Z" fill="#919191"/>
<path d="M24.1541 76.718C24.0692 76.7679 24.0642 76.8479 24.1491 76.8978L26.1574 78.0668C26.2423 78.1168 26.3772 78.1168 26.4671 78.0668L28.5503 76.8629C28.6352 76.8129 28.6402 76.733 28.5553 76.683L26.5471 75.514C26.4621 75.4641 26.3272 75.4641 26.2373 75.514L24.1541 76.718Z" fill="#919191"/>
<path d="M29.0057 75.9628C28.9208 76.0127 28.9158 76.0926 29.0007 76.1426L31.009 77.3116C31.0889 77.3565 31.2288 77.3565 31.3187 77.3066L33.4019 76.1026C33.4868 76.0527 33.4918 75.9727 33.4069 75.9228L31.3986 74.7538C31.3137 74.7039 31.1788 74.7089 31.0889 74.7588L29.0057 75.9628Z" fill="#919191"/>
<path d="M27.5057 78.6683C27.4208 78.7183 27.4158 78.7982 27.5007 78.8481L29.509 80.0171C29.5939 80.0671 29.7288 80.0671 29.8187 80.0121L31.9019 78.8082C31.9868 78.7582 31.9918 78.6783 31.9069 78.6283L29.8986 77.4593C29.8137 77.4094 29.6788 77.4094 29.5889 77.4593L27.5057 78.6683Z" fill="#919191"/>
<path d="M32.3065 77.8846C32.2216 77.9346 32.2166 78.0145 32.3015 78.0595L34.3097 79.2285C34.3947 79.2784 34.5295 79.2784 34.6195 79.2285L36.7026 78.0245C36.7876 77.9746 36.7926 77.8946 36.7076 77.8447L34.6994 76.6757C34.6145 76.6257 34.4796 76.6307 34.3947 76.6807L32.3065 77.8846Z" fill="#919191"/>
<path d="M35.4647 79.718C35.3798 79.7679 35.3748 79.8479 35.4597 79.8978L37.4679 81.0668C37.5529 81.1168 37.6877 81.1118 37.7777 81.0618L39.8609 79.8579C39.9458 79.8079 39.9508 79.728 39.8658 79.683L37.8576 78.514C37.7727 78.4641 37.6378 78.4641 37.5479 78.514L35.4647 79.718Z" fill="#919191"/>
<path d="M30.9079 80.6472C30.818 80.6972 30.818 80.7771 30.9029 80.8271L32.9112 81.996C32.9961 82.041 33.131 82.041 33.2209 81.9911L35.3091 80.7871C35.394 80.7371 35.399 80.6572 35.3141 80.6123L33.3058 79.4433C33.2209 79.3983 33.081 79.3983 32.9961 79.4483L30.9079 80.6472Z" fill="#919191"/>
<path d="M19.4139 77.7386C19.329 77.7886 19.324 77.8685 19.4089 77.9184L21.4172 79.0874C21.5021 79.1374 21.642 79.1374 21.7269 79.0824L23.8151 77.8785C23.9 77.8285 23.905 77.7486 23.8201 77.6986L21.8118 76.5297C21.7269 76.4797 21.592 76.4797 21.5021 76.5297L19.4139 77.7386Z" fill="#919191"/>
<path d="M22.7498 79.675C22.6649 79.725 22.6599 79.8049 22.7448 79.8548L24.7531 81.0238C24.838 81.0688 24.9729 81.0688 25.0628 81.0188L27.151 79.8149C27.2359 79.7649 27.2409 79.685 27.156 79.64L25.1477 78.4711C25.0628 78.4211 24.9279 78.4211 24.838 78.4711L22.7498 79.675Z" fill="#919191"/>
<path d="M26.0877 81.6132C26.0028 81.6631 25.9978 81.7431 26.0827 81.788L28.091 82.957C28.1759 83.0069 28.3158 83.002 28.4007 82.957L30.4839 81.753C30.5688 81.7031 30.5738 81.6232 30.4889 81.5732L28.4806 80.4042C28.3957 80.3593 28.2608 80.3593 28.1709 80.4092L26.0877 81.6132Z" fill="#919191"/>
<path d="M29.4139 83.5472C29.329 83.5971 29.324 83.6771 29.4089 83.727L31.4172 84.896C31.5021 84.946 31.637 84.941 31.7269 84.891L33.8151 83.6871C33.9 83.6371 33.905 83.5572 33.8201 83.5072L31.8118 82.3382C31.7269 82.2883 31.592 82.2883 31.5021 82.3382L29.4139 83.5472Z" fill="#919191"/>
<path d="M9.88774 75.525C9.65794 75.6599 9.54304 75.7598 9.80281 75.9097L16.2622 79.6614C16.522 79.8113 16.8267 79.7463 16.9116 79.6964L18.795 78.6073C18.8799 78.5574 18.9199 78.4275 18.6601 78.2726L12.2007 74.5209C11.9409 74.371 11.7811 74.431 11.6912 74.4809C11.6112 74.5259 10.0276 75.4451 9.88774 75.525Z" fill="#919191"/>
<path d="M17.7147 80.326C17.6298 80.376 17.6248 80.4559 17.7097 80.5059L19.7179 81.6749C19.8029 81.7248 19.9377 81.7198 20.0227 81.6699L22.1059 80.4659C22.1908 80.416 22.1958 80.336 22.1158 80.2861L20.1076 79.1171C20.0227 79.0671 19.8878 79.0721 19.7979 79.1221L17.7147 80.326Z" fill="#919191"/>
<path d="M21.0819 82.2772C20.9969 82.3272 20.992 82.4071 21.0769 82.4571L23.0851 83.626C23.1701 83.676 23.3099 83.671 23.3949 83.6211L25.478 82.4171C25.563 82.3671 25.568 82.2872 25.483 82.2373L23.4748 81.0683C23.3949 81.0233 23.255 81.0233 23.1651 81.0733L21.0819 82.2772Z" fill="#919191"/>
<path d="M24.533 84.2881C24.4481 84.338 24.4431 84.418 24.528 84.4629L26.5363 85.6319C26.6212 85.6819 26.7561 85.6769 26.846 85.6269L28.9292 84.4229C29.0141 84.373 29.0191 84.2931 28.9342 84.2431L26.926 83.0741C26.841 83.0242 26.7061 83.0292 26.6162 83.0791L24.533 84.2881Z" fill="#919191"/>
<path d="M27.8963 86.2419C27.8114 86.2919 27.8064 86.3718 27.8913 86.4217L29.8996 87.5907C29.9845 87.6407 30.1244 87.6357 30.2093 87.5857L32.2925 86.3818C32.3774 86.3318 32.3824 86.2519 32.2975 86.2019L30.2892 85.033C30.2043 84.983 30.0694 84.983 29.9795 85.038L27.8963 86.2419Z" fill="#919191"/>
<path d="M6.45977 77.497C6.37485 77.547 6.34487 77.6719 6.44978 77.7318L10.2864 79.9599C10.3913 80.0198 10.6361 80.0248 10.7211 79.9749L12.7593 78.7959C12.8442 78.7459 12.7843 78.636 12.6843 78.5761L8.84769 76.348C8.74278 76.2881 8.58792 76.2731 8.50299 76.323L6.45977 77.497Z" fill="#919191"/>
<path d="M16.1568 72.0333C16.0668 72.0832 16.0419 72.2031 16.1468 72.2631L19.6887 74.3462C19.7936 74.4062 20.0384 74.4112 20.1233 74.3612L22.1615 73.1823C22.2465 73.1323 22.1865 73.0224 22.0866 72.9624L18.5447 70.8793C18.4398 70.8193 18.2849 70.8043 18.195 70.8543L16.1568 72.0333Z" fill="#919191"/>
<path d="M11.3952 80.3637C11.3103 80.4137 11.2553 80.5236 11.3602 80.5835L15.1969 82.8116C15.3018 82.8715 15.5666 82.8865 15.6565 82.8366L17.6947 81.6576C17.7796 81.6076 17.6997 81.4827 17.5948 81.4228L13.7581 79.1947C13.6532 79.1348 13.5234 79.1348 13.4334 79.1847L11.3952 80.3637Z" fill="#919191"/>
<path d="M16.4757 83.3131C16.3908 83.3631 16.3308 83.468 16.4907 83.5629C16.6555 83.6578 27.7259 90.0922 27.8857 90.1821C28.0406 90.2721 28.2554 90.2571 28.3403 90.2021L30.3786 89.0232C30.4635 88.9732 30.4785 88.9083 30.3536 88.8333C28.5502 87.7892 19.2133 82.359 18.7187 82.0742C18.7237 82.0742 18.7737 82.1042 18.8886 82.1691C18.7337 82.0792 18.5988 82.0742 18.5139 82.1242L16.4757 83.3131Z" fill="#919191"/>
<path d="M38.7674 81.6341C38.6825 81.6841 38.6775 81.764 38.7624 81.8139L40.7707 82.9829C40.8556 83.0329 40.9905 83.0329 41.0804 82.9829L43.1636 81.779C43.2535 81.729 43.2535 81.6491 43.1686 81.5991L41.1603 80.4301C41.0754 80.3802 40.9405 80.3852 40.8506 80.4301L38.7674 81.6341Z" fill="#919191"/>
<path d="M34.2614 82.5935C34.1715 82.6434 34.1715 82.7234 34.2564 82.7733L36.2647 83.9373C36.3496 83.9872 36.4845 83.9823 36.5744 83.9373L38.6576 82.7333C38.7425 82.6834 38.7475 82.6035 38.6626 82.5535L36.6544 81.3845C36.5694 81.3346 36.4345 81.3346 36.3446 81.3895L34.2614 82.5935Z" fill="#919191"/>
<path d="M42.0681 83.5589C41.9782 83.6089 41.9782 83.6888 42.0631 83.7388L44.0713 84.9077C44.1563 84.9577 44.2911 84.9527 44.3811 84.9077L46.4642 83.7038C46.5492 83.6538 46.5542 83.5739 46.4692 83.5239L44.461 82.35C44.3761 82.3 44.2412 82.3 44.1513 82.35L42.0681 83.5589Z" fill="#919191"/>
<path d="M37.613 84.5416C37.5231 84.5916 37.5231 84.6715 37.608 84.7214L39.6163 85.8904C39.7012 85.9404 39.8361 85.9354 39.926 85.8904L42.0092 84.6865C42.0941 84.6365 42.0991 84.5566 42.0192 84.5066L40.0109 83.3376C39.926 83.2877 39.7911 83.2877 39.7012 83.3426L37.613 84.5416Z" fill="#919191"/>
<path d="M45.3709 85.4758C45.286 85.5257 45.281 85.6057 45.3659 85.6556L47.3742 86.8246C47.4591 86.8746 47.594 86.8746 47.6839 86.8246L49.7671 85.6207C49.852 85.5707 49.857 85.4908 49.7721 85.4408L47.7638 84.2718C47.6789 84.2219 47.544 84.2219 47.4541 84.2718L45.3709 85.4758Z" fill="#919191"/>
<path d="M40.9647 86.4851C40.8798 86.5351 40.8748 86.615 40.9597 86.6649L42.9679 87.8339C43.0529 87.8839 43.1877 87.8789 43.2777 87.8339L45.3609 86.63C45.4508 86.58 45.4508 86.5001 45.3658 86.4501L43.3576 85.2812C43.2727 85.2312 43.1378 85.2362 43.0479 85.2862L40.9647 86.4851Z" fill="#919191"/>
<path d="M32.7518 85.4846C32.6669 85.5345 32.6619 85.6145 32.7468 85.6644L34.755 86.8334C34.84 86.8833 34.9799 86.8833 35.0648 86.8334L37.153 85.6294C37.2379 85.5795 37.2429 85.4996 37.1579 85.4546L35.1497 84.2856C35.0648 84.2357 34.9299 84.2407 34.845 84.2856L32.7518 85.4846Z" fill="#919191"/>
<path d="M48.6737 87.3932C48.5887 87.4431 48.5837 87.523 48.6687 87.573L50.6769 88.742C50.7618 88.7869 50.8967 88.7869 50.9867 88.742L53.0748 87.538C53.1598 87.4881 53.1648 87.4081 53.0798 87.3582L51.0716 86.1892C50.9867 86.1393 50.8468 86.1393 50.7618 86.1942L48.6737 87.3932Z" fill="#919191"/>
<path d="M42.3381 89.2974C42.2532 89.3474 42.2232 89.4273 42.3581 89.5073L45.855 91.5305C45.9899 91.6104 46.0848 91.5705 46.1698 91.5155L49.9565 89.3374C50.0414 89.2874 50.1313 89.2225 49.9964 89.1426L46.5344 87.1293C46.3996 87.0544 46.2397 87.0794 46.1548 87.1293L42.3381 89.2974Z" fill="#919191"/>
<path d="M36.0897 87.4232C36.0048 87.4731 35.9998 87.5531 36.0847 87.603L38.0929 88.772C38.1779 88.8219 38.3127 88.817 38.4027 88.767L40.4908 87.563C40.5758 87.5131 40.5808 87.4332 40.4958 87.3882L38.4876 86.2192C38.4027 86.1693 38.2678 86.1743 38.1829 86.2192L36.0897 87.4232Z" fill="#919191"/>
<path d="M31.2635 88.1921C31.1786 88.2421 31.1736 88.322 31.2585 88.372L33.2668 89.541C33.3517 89.5909 33.4866 89.5859 33.5765 89.541L35.6597 88.337C35.7496 88.2871 35.7496 88.2071 35.6647 88.1572L33.6564 86.9882C33.5715 86.9382 33.4366 86.9432 33.3467 86.9932L31.2635 88.1921Z" fill="#919191"/>
<path d="M34.6248 90.1464C34.5399 90.1963 34.5349 90.2762 34.6198 90.3262L36.6281 91.4952C36.713 91.5451 36.8479 91.5401 36.9378 91.4902L39.021 90.2862C39.1059 90.2363 39.1109 90.1563 39.026 90.1064L37.0178 88.9374C36.9328 88.8875 36.793 88.8924 36.708 88.9424L34.6248 90.1464Z" fill="#919191"/>
<path d="M39.3157 89.1581C39.2307 89.2081 39.2257 89.233 39.4206 89.3479L44.3113 92.1905C44.5061 92.3054 44.681 92.3803 44.7659 92.3303L46.8041 91.1514C46.8891 91.1014 46.8191 91.0664 46.6293 90.9565L41.6486 88.0641C41.4538 87.9492 41.4388 87.9342 41.3539 87.9841L39.3157 89.1581Z" fill="#919191"/>
<path d="M13.0696 73.8321C12.9846 73.8821 12.9796 73.9071 13.1745 74.017L18.0652 76.8595C18.26 76.9694 18.4349 77.0493 18.5198 76.9944L20.558 75.8154C20.643 75.7655 20.573 75.7355 20.3832 75.6206L15.4025 72.7281C15.2077 72.6132 15.1977 72.5982 15.1078 72.6482L13.0696 73.8321Z" fill="#919191"/>
<path d="M37.8519 91.9221C37.767 91.9721 37.6771 92.107 37.8169 92.1919L41.244 94.1802C41.3838 94.2651 41.5637 94.1802 41.6486 94.1302L43.6868 92.9512C43.7767 92.9013 43.7817 92.8813 43.6419 92.7964L40.2149 90.8031C40.075 90.7232 39.9801 90.6932 39.8901 90.7432L37.8519 91.9221Z" fill="#919191"/>
<path d="M29.159 90.6849C29.0741 90.7348 29.1041 90.8897 29.204 90.9497L33.0406 93.1777C33.1455 93.2377 33.3304 93.2077 33.4203 93.1577L35.4585 91.9788C35.5434 91.9288 35.5434 91.8489 35.4385 91.7889L31.6019 89.5609C31.497 89.5009 31.2822 89.451 31.1972 89.5009L29.159 90.6849Z" fill="#919191"/>
<path d="M34.0963 93.5544C34.0113 93.6044 34.0163 93.7492 34.1212 93.8042L37.9579 96.0322C38.0628 96.0922 38.2726 96.0772 38.3575 96.0273L40.3958 94.8483C40.4857 94.7983 40.4557 94.7084 40.3558 94.6484L36.5191 92.4204C36.4142 92.3604 36.2244 92.3255 36.1345 92.3754L34.0963 93.5544Z" fill="#919191"/>
<path d="M62.4206 33.72L62.4106 36.5725L50.3711 29.5986L50.3761 26.7461L62.4206 33.72Z" fill="#FFD62C"/>
<path d="M66.8168 41.187L66.8118 44.0395L50.3711 34.5478L50.3761 31.6953L66.8168 41.187Z" fill="#33DDBC"/>
<path d="M59.2783 41.8011L59.2733 44.6536L50.3711 39.4931L50.3761 36.6406L59.2783 41.8011Z" fill="#FFD62C"/>
<path d="M55.9013 44.8209L55.8913 47.6734L50.3711 44.4463L50.3761 41.5938L55.9013 44.8209Z" fill="#33DDBC"/>
<path d="M62.4206 53.3489L62.4106 56.2014L50.3711 49.2275L50.3761 46.375L62.4206 53.3489Z" fill="#FFD62C"/>
<path d="M39.7055 32.4062C40.365 32.7859 40.9994 33.2855 41.5839 33.87C42.1884 34.4744 42.7479 35.1738 43.2325 35.9232L39.6855 38.7207L39.7055 32.4062Z" fill="#95C6E5"/>
<path d="M39.7096 32.4845L39.6897 38.799L43.2116 45.678C42.722 45.8678 42.1675 45.9178 41.553 45.8229C40.9635 45.7279 40.3341 45.4981 39.6697 45.1185C39.0102 44.7388 38.3758 44.2392 37.7913 43.6547C37.1818 43.0503 36.6273 42.3509 36.1427 41.6015C35.6532 40.8472 35.2385 40.0379 34.9188 39.2136C34.6041 38.4043 34.3793 37.58 34.2694 36.7757C34.2194 36.3861 34.1895 36.0064 34.1895 35.6317C34.1895 35.2571 34.2194 34.9074 34.2744 34.5827C34.3893 33.9082 34.6141 33.3437 34.9338 32.8991C35.2585 32.4445 35.6732 32.1148 36.1677 31.93C36.6573 31.7401 37.2168 31.6902 37.8263 31.7851C38.4158 31.87 39.0502 32.0998 39.7096 32.4845Z" fill="#D8EDFF"/>
<path d="M43.2266 35.9922C43.7162 36.7465 44.1258 37.5558 44.4505 38.3801C44.7653 39.1894 44.9851 40.0137 45.1 40.818C45.1499 41.2076 45.1799 41.5873 45.1799 41.962C45.1799 42.3367 45.1449 42.6864 45.095 43.0111C44.9801 43.6855 44.7553 44.25 44.4355 44.6946C44.1108 45.1492 43.6962 45.4789 43.2016 45.6687L39.6797 38.7897L43.2266 35.9922Z" fill="#6394DB"/>
<path d="M47.0433 29.7841L47.0483 28.9848L35.3535 22.1758V22.9801L47.0433 29.7841Z" fill="#E1E1E1"/>
<path d="M47.0433 27.8201L47.0483 25.0825L35.3535 18.2734V21.016L47.0433 27.8201Z" fill="#E1E1E1"/>
<path d="M47.0433 31.4276L47.0483 30.6283L35.3535 23.8242V24.6235L47.0433 31.4276Z" fill="#E1E1E1"/>
<path d="M47.0433 33.0693L47.0483 32.27L35.3535 25.4609V26.2652L47.0433 33.0693Z" fill="#E1E1E1"/>
<path d="M47.0433 34.7138L47.0483 33.9145L35.3535 27.1055V27.9098L47.0433 34.7138Z" fill="#E1E1E1"/>
<path d="M70.0737 78.7232C70.0687 78.7132 70.0587 78.7082 70.0537 78.6982C70.0138 78.6582 69.9738 78.6283 69.9388 78.5933C69.9189 78.5783 69.9039 78.5583 69.8839 78.5483C69.8239 78.5034 69.769 78.4634 69.709 78.4284C69.6441 78.3885 69.5792 78.3635 69.5092 78.3385C69.4942 78.3335 69.4792 78.3285 69.4693 78.3235C69.4043 78.3035 69.3444 78.2885 69.2844 78.2835C69.2794 78.2835 69.2694 78.2835 69.2644 78.2835C69.1995 78.2786 69.1346 78.2836 69.0746 78.2935C69.0696 78.2935 69.0646 78.2985 69.0646 78.2985C68.9997 78.3085 68.9397 78.3335 68.8848 78.3685L71.1978 77.0247L71.2027 77.0197C71.2227 77.0097 71.2427 76.9947 71.2677 76.9897C71.2877 76.9797 71.3126 76.9747 71.3326 76.9647C71.3476 76.9597 71.3626 76.9597 71.3776 76.9547C71.3826 76.9547 71.3826 76.9547 71.3876 76.9497C71.3926 76.9497 71.3976 76.9497 71.3976 76.9497C71.4226 76.9447 71.4475 76.9447 71.4725 76.9397C71.4975 76.9397 71.5225 76.9347 71.5524 76.9397C71.5624 76.9397 71.5724 76.9447 71.5824 76.9447C71.5874 76.9447 71.5924 76.9447 71.5974 76.9447C71.6124 76.9447 71.6274 76.9447 71.6374 76.9497C71.6723 76.9547 71.7073 76.9647 71.7423 76.9697C71.7573 76.9697 71.7673 76.9797 71.7822 76.9847C71.7972 76.9897 71.8122 76.9947 71.8222 76.9997C71.8372 77.0047 71.8522 77.0097 71.8672 77.0147C71.9171 77.0396 71.9671 77.0596 72.017 77.0896C72.077 77.1246 72.1319 77.1645 72.1919 77.2095C72.2119 77.2245 72.2268 77.2395 72.2468 77.2544C72.2818 77.2844 72.3168 77.3094 72.3468 77.3444C72.3517 77.3494 72.3567 77.3544 72.3617 77.3594C72.3717 77.3694 72.3767 77.3743 72.3817 77.3843C72.4017 77.4093 72.4267 77.4293 72.4467 77.4543C72.4716 77.4842 72.4966 77.5142 72.5216 77.5442C72.5216 77.5442 72.5266 77.5492 72.5266 77.5542C72.5266 77.5592 72.5316 77.5642 72.5316 77.5642C72.5466 77.5842 72.5616 77.6041 72.5765 77.6291C72.5965 77.6541 72.6115 77.6791 72.6265 77.7091C72.6415 77.729 72.6565 77.754 72.6665 77.774L74.6347 81.1011L72.7964 82.2601L70.4834 83.6039L72.3218 82.4449L70.3535 79.1178C70.3085 79.0429 70.2636 78.9729 70.2136 78.908C70.2136 78.908 70.2086 78.903 70.2086 78.898C70.1736 78.8281 70.1237 78.7731 70.0737 78.7232Z" fill="#3076C3"/>
<path d="M51.3909 69.4206C53.8587 73.587 57.0509 76.7892 60.2432 78.6326C61.8068 79.5368 63.3804 80.1163 64.8641 80.3211C66.5627 80.5509 68.1513 80.3061 69.4951 79.4818C74.4108 76.4645 74.2859 67.0477 69.2153 58.4852C66.7425 54.3138 63.5503 51.1066 60.3581 49.2632C58.5546 48.2191 56.7462 47.6146 55.0727 47.5147C53.6289 47.4298 52.2751 47.7096 51.1061 48.4239C46.2004 51.4363 46.3203 60.8581 51.3909 69.4206ZM53.2742 52.0708C54.1285 51.5462 55.1476 51.3114 56.3016 51.3814C57.2058 51.4363 58.17 51.6861 59.1641 52.1207C59.5638 52.2956 59.9634 52.5004 60.3581 52.7252C62.8809 54.1839 65.2988 56.6817 67.1222 59.764C70.9988 66.3133 71.0937 73.522 67.332 75.83C66.3478 76.4345 65.1589 76.6443 63.7951 76.4595C63.0407 76.3546 62.2464 76.1248 61.4321 75.7701C61.0325 75.5952 60.6328 75.3904 60.2382 75.1656C57.7154 73.7069 55.3025 71.2141 53.4841 68.1317C49.6074 61.5875 49.5125 54.3787 53.2742 52.0708Z" fill="#74AAE1"/>
<path opacity="0.25" d="M53.7048 52.7999C54.5091 52.3053 55.4632 52.0905 56.5473 52.1504C57.3966 52.2004 58.3008 52.4352 59.235 52.8448C59.6096 53.0097 59.9843 53.1995 60.354 53.4143C62.7219 54.7831 64.9899 57.1261 66.7034 60.0236C70.3403 66.1732 70.4302 72.9323 66.9033 75.1004C65.9791 75.6649 64.865 75.8647 63.5812 75.6949C62.8718 75.6 62.1274 75.3802 61.3631 75.0455C60.9884 74.8806 60.6138 74.6908 60.2441 74.476C57.8761 73.1072 55.6131 70.7692 53.9046 67.8767C50.2678 61.7321 50.1779 54.968 53.7048 52.7999Z" fill="white"/>
<path d="M59.0287 48.5752C59.0187 48.5702 59.0087 48.5652 58.9987 48.5602C58.8139 48.4753 58.624 48.3954 58.4392 48.3205C58.2843 48.2555 58.1295 48.2006 57.9746 48.1456C57.8897 48.1156 57.8047 48.0807 57.7248 48.0557C57.525 47.9857 57.3202 47.9258 57.1203 47.8708C57.0854 47.8609 57.0504 47.8459 57.0154 47.8409C56.9755 47.8309 56.9405 47.8209 56.9005 47.8109C56.7307 47.7659 56.5658 47.726 56.401 47.691C56.331 47.676 56.2561 47.666 56.1861 47.651C56.0463 47.6261 55.9064 47.6011 55.7715 47.5811C55.7265 47.5761 55.6816 47.5711 55.6366 47.5611C55.4468 47.5361 55.257 47.5162 55.0721 47.5062C54.9322 47.4962 54.7924 47.4962 54.6575 47.4962C54.6175 47.4962 54.5726 47.4912 54.5326 47.4962C54.3727 47.4962 54.2179 47.5012 54.063 47.5112C54.033 47.5112 54.003 47.5162 53.9731 47.5212C53.8482 47.5311 53.7283 47.5411 53.6034 47.5611C53.5534 47.5661 53.5085 47.5761 53.4585 47.5811C53.3486 47.5961 53.2387 47.6161 53.1338 47.6361C53.0938 47.646 53.0539 47.651 53.0139 47.661C52.869 47.691 52.7292 47.726 52.5843 47.7709C52.5693 47.7759 52.5493 47.7809 52.5343 47.7859C52.4094 47.8209 52.2895 47.8659 52.1696 47.9108C52.1297 47.9258 52.0897 47.9408 52.0498 47.9558C51.9398 48.0007 51.8349 48.0457 51.73 48.0957C51.7001 48.1106 51.6751 48.1206 51.6451 48.1356C51.5052 48.2006 51.3654 48.2755 51.2305 48.3554C52.0048 47.9058 52.7741 47.4562 53.5484 47.0116C53.5734 46.9966 53.5934 46.9866 53.6184 46.9716C53.7333 46.9067 53.8482 46.8517 53.9631 46.7918C53.9931 46.7768 54.023 46.7668 54.053 46.7518C54.1229 46.7218 54.1879 46.6869 54.2578 46.6569C54.2978 46.6419 54.3378 46.6269 54.3727 46.6119C54.4127 46.597 54.4577 46.577 54.4976 46.562C54.6175 46.517 54.7374 46.4771 54.8573 46.4421C54.8773 46.4371 54.8973 46.4271 54.9173 46.4221C54.9222 46.4221 54.9222 46.4221 54.9272 46.4171C55.0621 46.3772 55.202 46.3422 55.3419 46.3122C55.3868 46.3022 55.4268 46.2972 55.4668 46.2872C55.5217 46.2772 55.5817 46.2623 55.6366 46.2523C55.6816 46.2423 55.7315 46.2373 55.7815 46.2323C55.8315 46.2223 55.8814 46.2173 55.9314 46.2123C56.0563 46.1973 56.1811 46.1823 56.306 46.1723C56.331 46.1723 56.356 46.1673 56.386 46.1673C56.391 46.1673 56.401 46.1673 56.406 46.1673C56.5558 46.1573 56.7057 46.1523 56.8606 46.1523C56.9005 46.1523 56.9455 46.1523 56.9854 46.1523C57.0804 46.1523 57.1753 46.1523 57.2702 46.1573C57.3152 46.1573 57.3601 46.1623 57.4051 46.1623C57.5899 46.1723 57.7798 46.1923 57.9696 46.2173C58.0096 46.2223 58.0595 46.2273 58.0995 46.2323C58.1394 46.2373 58.1794 46.2423 58.2194 46.2473C58.3193 46.2622 58.4142 46.2822 58.5141 46.3022C58.589 46.3172 58.659 46.3272 58.7339 46.3422C58.8938 46.3772 59.0586 46.4171 59.2185 46.4571C59.2635 46.4671 59.3034 46.4771 59.3484 46.4871C59.3534 46.4871 59.3534 46.4871 59.3584 46.4871C59.3834 46.4921 59.4133 46.502 59.4383 46.512C59.6431 46.572 59.8529 46.6319 60.0628 46.7019C60.1427 46.7268 60.2226 46.7618 60.3026 46.7918C60.4624 46.8467 60.6223 46.9067 60.7821 46.9716C60.8121 46.9816 60.8421 46.9916 60.8721 47.0066C61.0269 47.0715 61.1818 47.1365 61.3317 47.2064C61.3516 47.2164 61.3666 47.2264 61.3866 47.2314C61.5714 47.3163 61.7513 47.4063 61.9361 47.4962C61.9911 47.5261 62.046 47.5511 62.096 47.5811C62.2958 47.686 62.4956 47.7959 62.6955 47.9058C62.8853 48.0157 63.0801 48.1306 63.27 48.2555C63.3349 48.2955 63.3949 48.3354 63.4598 48.3804C63.5897 48.4603 63.7146 48.5453 63.8395 48.6302C63.9144 48.6801 63.9893 48.7351 64.0693 48.79C64.1842 48.87 64.2991 48.9499 64.414 49.0348C64.4939 49.0948 64.5738 49.1547 64.6538 49.2147C64.7637 49.2996 64.8736 49.3795 64.9835 49.4695C65.0634 49.5344 65.1433 49.5993 65.2233 49.6643C65.3332 49.7492 65.4381 49.8391 65.548 49.9291C65.6279 49.994 65.7078 50.0639 65.7928 50.1339C65.8977 50.2288 66.0076 50.3187 66.1125 50.4186C66.1924 50.4886 66.2724 50.5585 66.3523 50.6334C66.4572 50.7333 66.5671 50.8333 66.672 50.9382C66.7519 51.0131 66.8269 51.083 66.9018 51.158C66.9368 51.188 66.9667 51.2179 67.0017 51.2529C67.0517 51.3029 67.0966 51.3528 67.1466 51.4028C67.2915 51.5476 67.4363 51.6925 67.5762 51.8424C67.6511 51.9223 67.7261 52.0022 67.801 52.0822C67.9509 52.242 68.0958 52.4069 68.2406 52.5717C68.2856 52.6267 68.3356 52.6767 68.3805 52.7266C68.4005 52.7516 68.4205 52.7766 68.4405 52.7966C68.5204 52.8865 68.5953 52.9814 68.6753 53.0713C68.7752 53.1862 68.8701 53.3061 68.97 53.426C69.0499 53.5259 69.1249 53.6208 69.2048 53.7207C69.2697 53.8007 69.3347 53.8806 69.3996 53.9655C69.4196 53.9905 69.4346 54.0155 69.4546 54.0405C69.7044 54.3652 69.9491 54.6949 70.1889 55.0396C70.2039 55.0646 70.2239 55.0896 70.2439 55.1145C70.2739 55.1595 70.3038 55.2094 70.3338 55.2494C70.5236 55.5242 70.7085 55.7989 70.8933 56.0837C70.9233 56.1286 70.9533 56.1686 70.9782 56.2136C70.9932 56.2336 71.0032 56.2585 71.0182 56.2785C71.1981 56.5583 71.3729 56.843 71.5428 57.1278C71.5777 57.1877 71.6077 57.2427 71.6427 57.3026C71.6776 57.3626 71.7076 57.4225 71.7426 57.4825C71.8875 57.7322 72.0223 57.977 72.1572 58.2268C72.1872 58.2818 72.2172 58.3317 72.2471 58.3867C72.2721 58.4316 72.2921 58.4766 72.3171 58.5216C72.457 58.7913 72.5918 59.0561 72.7267 59.3259C72.7467 59.3708 72.7767 59.4208 72.7967 59.4657C72.8017 59.4757 72.8067 59.4907 72.8116 59.5007C72.9665 59.8304 73.1164 60.1551 73.2613 60.4848C73.2712 60.5098 73.2862 60.5398 73.2962 60.5648C73.3212 60.6197 73.3412 60.6747 73.3662 60.7296C73.4811 60.9994 73.591 61.2692 73.6959 61.5389C73.7159 61.5939 73.7408 61.6488 73.7608 61.7038C73.7758 61.7388 73.7858 61.7687 73.7958 61.8037C73.9307 62.1584 74.0556 62.5081 74.1755 62.8628C74.1805 62.8778 74.1854 62.8927 74.1904 62.9077C74.2654 63.1325 74.3353 63.3573 74.4053 63.5821C74.4153 63.6221 74.4252 63.6621 74.4402 63.702C74.4902 63.8719 74.5451 64.0467 74.5901 64.2166C74.6001 64.2466 74.6051 64.2765 74.6151 64.3115C74.645 64.4214 74.675 64.5363 74.705 64.6462C74.745 64.7911 74.7799 64.936 74.8149 65.0808C74.8399 65.1957 74.8649 65.3106 74.8948 65.4205C74.9148 65.5105 74.9398 65.6004 74.9548 65.6903C74.9648 65.7303 74.9698 65.7702 74.9798 65.8102C75.0197 66.005 75.0547 66.1949 75.0897 66.3897C75.1046 66.4846 75.1246 66.5745 75.1396 66.6645C75.1846 66.9242 75.2195 67.184 75.2545 67.4388C75.2545 67.4588 75.2595 67.4738 75.2645 67.4937C75.2645 67.4937 75.2645 67.4937 75.2645 67.4987C75.2995 67.7735 75.3294 68.0482 75.3544 68.323C75.3644 68.4079 75.3644 68.4979 75.3744 68.5878C75.3894 68.7726 75.3994 68.9575 75.4094 69.1373C75.4144 69.2372 75.4144 69.3371 75.4194 69.437C75.4244 69.6069 75.4244 69.7717 75.4244 69.9366C75.4244 70.0365 75.4244 70.1364 75.4244 70.2363C75.4244 70.4062 75.4144 70.571 75.4044 70.7359C75.3994 70.8258 75.3994 70.9158 75.3894 71.0057C75.3744 71.2005 75.3594 71.3953 75.3394 71.5902C75.3344 71.6451 75.3295 71.6951 75.3245 71.75C75.2995 71.9898 75.2595 72.2296 75.2196 72.4594C75.2096 72.5243 75.1946 72.5893 75.1796 72.6492C75.1496 72.8191 75.1146 72.9839 75.0747 73.1438C75.0547 73.2287 75.0347 73.3087 75.0147 73.3886C74.9798 73.5285 74.9398 73.6733 74.8998 73.8082C74.8748 73.8882 74.8499 73.9731 74.8249 74.053C74.7799 74.1879 74.735 74.3228 74.685 74.4527C74.655 74.5276 74.6301 74.6025 74.6001 74.6775C74.5401 74.8223 74.4802 74.9622 74.4153 75.0971C74.3903 75.1521 74.3653 75.207 74.3403 75.262C74.2454 75.4518 74.1505 75.6366 74.0456 75.8115C74.0256 75.8465 74.0006 75.8764 73.9806 75.9114C73.8957 76.0513 73.8058 76.1911 73.7109 76.326C73.6709 76.386 73.6259 76.4359 73.586 76.4909C73.506 76.5958 73.4261 76.7007 73.3412 76.8006C73.2912 76.8556 73.2413 76.9155 73.1913 76.9705C73.1064 77.0654 73.0165 77.1553 72.9265 77.2452C72.8716 77.2952 72.8216 77.3501 72.7667 77.4001C72.6668 77.49 72.5619 77.5799 72.457 77.6649C72.407 77.7048 72.362 77.7448 72.3121 77.7848C72.1522 77.9047 71.9924 78.0196 71.8225 78.1195C71.7825 78.1444 71.7376 78.1694 71.6976 78.1944C70.9283 78.644 70.154 79.0886 69.3846 79.5382C69.4246 79.5133 69.4696 79.4883 69.5095 79.4633C69.6794 79.3584 69.8392 79.2435 69.9991 79.1286C70.0491 79.0886 70.099 79.0487 70.149 79.0087C70.2539 78.9238 70.3538 78.8388 70.4537 78.7489C70.5087 78.699 70.5636 78.644 70.6136 78.5941C70.7035 78.5041 70.7884 78.4142 70.8733 78.3193C70.9233 78.2643 70.9732 78.2044 71.0232 78.1494C71.1081 78.0495 71.1881 77.9446 71.268 77.8397C71.308 77.7848 71.3529 77.7298 71.3929 77.6699C71.4878 77.535 71.5777 77.4001 71.6626 77.2602C71.6826 77.2252 71.7076 77.1903 71.7276 77.1553C71.8325 76.9805 71.9324 76.7956 72.0223 76.6058C72.0473 76.5508 72.0723 76.4959 72.0973 76.4409C72.1622 76.3011 72.2222 76.1662 72.2821 76.0213C72.3121 75.9464 72.3371 75.8714 72.367 75.7965C72.417 75.6666 72.462 75.5317 72.5069 75.3968C72.5319 75.3169 72.5569 75.232 72.5818 75.1521C72.6218 75.0122 72.6618 74.8723 72.6967 74.7324C72.7167 74.6525 72.7367 74.5676 72.7567 74.4876C72.7917 74.3228 72.8266 74.1579 72.8566 73.9881C72.8666 73.9231 72.8816 73.8632 72.8916 73.7982C72.9315 73.5634 72.9665 73.3286 72.9965 73.0839C73.0015 73.0339 73.0065 72.979 73.0115 72.924C73.0315 72.7342 73.0514 72.5393 73.0614 72.3395C73.0664 72.2496 73.0714 72.1597 73.0764 72.0747C73.0864 71.9099 73.0914 71.74 73.0914 71.5752C73.0914 71.4753 73.0914 71.3754 73.0914 71.2804C73.0914 71.1156 73.0864 70.9457 73.0864 70.7759C73.0814 70.676 73.0814 70.581 73.0764 70.4761C73.0664 70.2913 73.0564 70.1065 73.0415 69.9216C73.0365 69.8367 73.0315 69.7518 73.0215 69.6668C72.9965 69.3921 72.9665 69.1173 72.9315 68.8426C72.9315 68.8276 72.9265 68.8126 72.9265 68.7976C72.8916 68.5378 72.8516 68.2731 72.8067 68.0083C72.7917 67.9134 72.7717 67.8185 72.7567 67.7285C72.7217 67.5387 72.6868 67.3489 72.6468 67.159C72.6168 67.0241 72.5868 66.8893 72.5569 66.7544C72.5319 66.6445 72.5069 66.5346 72.4819 66.4247C72.447 66.2748 72.407 66.1299 72.372 65.9801C72.347 65.8751 72.3171 65.7652 72.2871 65.6603C72.2322 65.4505 72.1672 65.2357 72.1023 65.0209C72.0923 64.9909 72.0873 64.9609 72.0773 64.931C72.0024 64.6912 71.9274 64.4514 71.8475 64.2116C71.7326 63.8619 71.6027 63.5072 71.4728 63.1575C71.4378 63.0676 71.3979 62.9727 71.3629 62.8828C71.258 62.618 71.1531 62.3532 71.0382 62.0934C70.9982 62.0035 70.9683 61.9186 70.9283 61.8337C70.7834 61.509 70.6385 61.1792 70.4787 60.8545C70.4487 60.7946 70.4187 60.7346 70.3888 60.6747C70.2589 60.4099 70.124 60.1451 69.9841 59.8804C69.9292 59.7755 69.8792 59.6756 69.8193 59.5706C69.6894 59.3259 69.5545 59.0861 69.4146 58.8413C69.3447 58.7214 69.2797 58.5965 69.2098 58.4766C69.0399 58.1869 68.8651 57.9071 68.6902 57.6273C68.6453 57.5574 68.6003 57.4875 68.5554 57.4175C68.3755 57.1378 68.1907 56.868 68.0058 56.5982C67.9559 56.5233 67.9059 56.4534 67.856 56.3784C67.6162 56.0387 67.3714 55.709 67.1266 55.3893C67.0417 55.2794 66.9518 55.1695 66.8668 55.0596C66.7919 54.9647 66.717 54.8697 66.642 54.7748C66.5421 54.6549 66.4422 54.53 66.3373 54.4101C66.2624 54.3202 66.1874 54.2303 66.1125 54.1454C66.0425 54.0654 65.9726 53.9905 65.9027 53.9106C65.7578 53.7457 65.6129 53.5859 65.4681 53.431C65.3931 53.3511 65.3132 53.2661 65.2382 53.1862C65.0934 53.0363 64.9535 52.8865 64.8086 52.7416C64.7287 52.6617 64.6488 52.5817 64.5688 52.5018C64.4939 52.4269 64.414 52.3519 64.339 52.282C64.2341 52.1821 64.1242 52.0772 64.0193 51.9823C63.9394 51.9073 63.8595 51.8374 63.7795 51.7674C63.6746 51.6725 63.5647 51.5776 63.4598 51.4827C63.3799 51.4128 63.2999 51.3478 63.22 51.2779C63.1101 51.188 63.0002 51.098 62.8903 51.0081C62.8104 50.9432 62.7304 50.8782 62.6505 50.8183C62.5406 50.7284 62.4257 50.6434 62.3158 50.5585C62.2359 50.4986 62.1609 50.4386 62.081 50.3837C61.9611 50.2987 61.8462 50.2138 61.7263 50.1339C61.6564 50.0839 61.5814 50.029 61.5115 49.984C61.3816 49.8941 61.2467 49.8092 61.1168 49.7242C61.0569 49.6843 60.997 49.6443 60.932 49.6043C60.7422 49.4844 60.5473 49.3695 60.3575 49.2596C60.1577 49.1447 59.9579 49.0348 59.753 48.9299C59.7031 48.9049 59.6531 48.88 59.6032 48.85C59.4133 48.7551 59.2235 48.6652 59.0287 48.5752Z" fill="#3076C3"/>
<path d="M53.0999 68.3746C55.0282 71.6318 57.581 74.2745 60.2437 75.8132C60.6633 76.053 61.0829 76.2678 61.5076 76.4526C62.3568 76.8273 63.2011 77.0721 63.9954 77.182C65.4341 77.3768 66.693 77.152 67.7421 76.5125C71.7137 74.0747 71.6137 66.4563 67.5123 59.5324C65.584 56.2702 63.0312 53.6275 60.3636 52.0839C59.9489 51.8441 59.5243 51.6292 59.1047 51.4444C58.0556 50.9848 57.0365 50.72 56.0773 50.6601C54.8584 50.5902 53.7843 50.8349 52.8751 51.3945C48.8986 53.8373 48.9985 61.4507 53.0999 68.3746ZM53.6894 52.7732C54.4937 52.2787 55.4528 52.0639 56.5419 52.1238C57.3911 52.1738 58.3004 52.4086 59.2345 52.8232C59.6092 52.9881 59.9839 53.1779 60.3536 53.3927C62.7315 54.7665 64.9995 57.1145 66.718 60.0169C70.3648 66.1816 70.4598 72.9656 66.9178 75.1338C65.9936 75.7033 64.8746 75.9031 63.5857 75.7282C62.8764 75.6333 62.127 75.4135 61.3627 75.0788C60.988 74.9139 60.6133 74.7191 60.2387 74.5093C57.8657 73.1405 55.5977 70.7925 53.8792 67.8901C50.2374 61.7254 50.1475 54.9464 53.6894 52.7732Z" fill="#BDE0F3"/>
<path d="M69.7102 78.4296C69.4155 78.2547 69.1058 78.2248 68.866 78.3696L68.5762 78.5495C68.1466 78.8142 68.1166 79.5686 68.5163 80.243L70.4996 83.5901L72.338 82.4311L70.3697 79.104C70.1848 78.7992 69.95 78.5695 69.7102 78.4296Z" fill="#74AAE1"/>
<path d="M72.4116 81.5051C72.4066 81.5051 72.4016 81.5051 72.3916 81.5051C72.3267 81.5001 72.2617 81.5001 72.1968 81.5151C72.1968 81.5151 72.1918 81.5151 72.1868 81.5151C72.1218 81.5301 72.0619 81.55 72.002 81.585C72.0069 81.585 72.0069 81.58 72.0119 81.58L74.3299 80.2362C74.3499 80.2262 74.3699 80.2162 74.3899 80.2062C74.4099 80.1962 74.4348 80.1912 74.4548 80.1812C74.4698 80.1762 74.4848 80.1712 74.4998 80.1712C74.5048 80.1712 74.5048 80.1712 74.5098 80.1712C74.5148 80.1712 74.5198 80.1662 74.5247 80.1662C74.5497 80.1612 74.5747 80.1612 74.5997 80.1562C74.6247 80.1562 74.6546 80.1562 74.6796 80.1562C74.6896 80.1562 74.6996 80.1562 74.7096 80.1562C74.7146 80.1562 74.7196 80.1562 74.7246 80.1562C74.7396 80.1562 74.7496 80.1563 74.7695 80.1613C74.8045 80.1662 74.8395 80.1712 74.8694 80.1812C74.8844 80.1862 74.8994 80.1912 74.9144 80.1962C74.9294 80.2012 74.9394 80.2062 74.9544 80.2112C74.9694 80.2162 74.9843 80.2212 75.0043 80.2262C75.0543 80.2462 75.1042 80.2712 75.1542 80.3011C75.2142 80.3361 75.2691 80.3761 75.329 80.416C75.349 80.431 75.364 80.451 75.384 80.466C75.419 80.496 75.4539 80.5209 75.4839 80.5559C75.4889 80.5609 75.4939 80.5659 75.4989 80.5709C75.5039 80.5809 75.5139 80.5859 75.5189 80.5959C75.5389 80.6159 75.5638 80.6408 75.5838 80.6658C75.6088 80.6958 75.6338 80.7258 75.6588 80.7557C75.6588 80.7607 75.6638 80.7607 75.6638 80.7657C75.6638 80.7657 75.6638 80.7707 75.6688 80.7707C75.6837 80.7907 75.7037 80.8157 75.7187 80.8407C75.7337 80.8656 75.7537 80.8906 75.7687 80.9206C75.7837 80.9406 75.7986 80.9606 75.8086 80.9855L85.72 98.0756C85.725 98.0806 85.725 98.0856 85.73 98.0906C85.745 98.1156 85.76 98.1406 85.7699 98.1655C85.7849 98.1905 85.7949 98.2155 85.8099 98.2405C85.8199 98.2655 85.8349 98.2954 85.8449 98.3204C85.8449 98.3204 85.8449 98.3254 85.8499 98.3254C85.8499 98.3304 85.8499 98.3304 85.8549 98.3354C85.8649 98.3554 85.8749 98.3804 85.8799 98.4003C85.8898 98.4303 85.8998 98.4553 85.9098 98.4853C85.9198 98.5152 85.9298 98.5502 85.9398 98.5802V98.5852C85.9398 98.5902 85.9398 98.5902 85.9398 98.5952C85.9498 98.6251 85.9598 98.6601 85.9648 98.6901C85.9748 98.7351 85.9848 98.785 85.9898 98.83C85.9898 98.83 85.9898 98.83 85.9898 98.835C85.9997 98.9299 86.0047 99.0148 85.9997 99.1047C85.9997 99.1297 85.9898 99.1547 85.9898 99.1797C85.9848 99.2396 85.9698 99.2946 85.9548 99.3495C85.9498 99.3745 85.9398 99.3995 85.9298 99.4294C85.9098 99.4794 85.8848 99.5244 85.8599 99.5643C85.8499 99.5843 85.8349 99.6043 85.8199 99.6243C85.7749 99.6792 85.725 99.7292 85.66 99.7692L83.5169 101.083C83.5119 101.088 83.5119 101.088 83.5069 101.093L81.1939 102.437C81.1989 102.437 81.1989 102.432 81.2039 102.432L81.1989 102.437C81.2039 102.437 81.2039 102.432 81.2089 102.432L83.3521 101.118C83.412 101.083 83.467 101.028 83.5119 100.973C83.5269 100.953 83.5369 100.933 83.5519 100.913C83.5819 100.868 83.6068 100.823 83.6268 100.773C83.6368 100.748 83.6468 100.723 83.6518 100.698C83.6668 100.643 83.6768 100.588 83.6868 100.528C83.6918 100.504 83.6967 100.479 83.6967 100.454C83.7017 100.369 83.7017 100.279 83.6918 100.184C83.6818 100.104 83.6668 100.024 83.6418 99.939V99.934C83.6168 99.8491 83.5918 99.7691 83.5519 99.6842V99.6792C83.5169 99.5943 83.4719 99.5094 83.427 99.4294L73.5156 82.3394C73.4707 82.2644 73.4257 82.1945 73.3758 82.1295C73.3758 82.1295 73.3708 82.1295 73.3708 82.1245C73.3258 82.0646 73.2758 82.0096 73.2259 81.9597C73.2209 81.9497 73.2109 81.9447 73.2059 81.9347C73.1659 81.8947 73.131 81.8598 73.086 81.8298C73.071 81.8148 73.051 81.7998 73.036 81.7848C72.9811 81.7399 72.9212 81.6999 72.8612 81.6649C72.7963 81.625 72.7263 81.6 72.6614 81.575C72.6464 81.57 72.6314 81.565 72.6214 81.56C72.5365 81.5251 72.4765 81.5101 72.4116 81.5051Z" fill="#A2CFEE"/>
<path d="M72.8417 81.6507C72.542 81.4808 72.2372 81.4458 71.9974 81.5907L71.8526 81.6806L69.9842 82.7847L69.8543 82.8996C69.4247 83.1693 69.3947 83.9187 69.7894 84.5931L79.7007 101.683C79.8806 101.983 80.1154 102.218 80.3602 102.358C80.6549 102.527 80.9646 102.562 81.1994 102.418L83.3426 101.104C83.7722 100.839 83.8022 100.085 83.4025 99.4152L73.4911 82.3251C73.3163 82.0203 73.0815 81.7905 72.8417 81.6507Z" fill="#BDE0F3"/>
<path d="M68.7644 97.9565C69.259 98.3012 69.6137 99.0656 69.5588 99.665C69.5038 100.265 69.0592 100.464 68.5696 100.12C68.075 99.7749 67.7204 99.0106 67.7703 98.4111C67.8303 97.8166 68.2749 97.6118 68.7644 97.9565Z" fill="#9F9F9F"/>
<path d="M53.9225 101.438C52.5886 102.173 52.7685 104.131 54.0674 104.915L57.2046 106.823C58.4985 107.613 60.6266 107.653 61.9655 106.918L69.4689 102.782C70.8028 102.048 70.9926 99.9544 69.6987 99.1651L66.4016 98.116C65.1077 97.3267 62.9746 97.2868 61.6457 98.0211L53.9225 101.438Z" fill="#919191"/>
<path d="M56.8003 102.97C58.0942 103.76 60.2273 103.805 61.5612 103.065L69.0646 99.1437C69.4943 98.9288 69.5342 98.4293 69.7041 98.1445C69.9139 98.4543 70.1687 99.0388 70.1687 99.0388C70.6183 100.048 70.6982 100.962 69.4143 101.602L61.9109 105.523C60.577 106.257 58.4489 106.217 57.15 105.428L54.0128 103.52C53.4283 103.165 53.1185 102.721 53.0686 102.271H53.0586C53.0586 102.231 53.0636 102.191 53.0636 102.156C53.0636 102.126 53.0636 102.096 53.0686 102.066C53.0936 101.607 53.1585 101.177 53.2684 100.772C53.3833 100.872 53.5132 100.972 53.6631 101.062L56.8003 102.97Z" fill="#AFAFAF"/>
<path d="M64.4878 95.1875C67.9348 95.2574 69.8381 97.9651 69.943 98.5895C70.013 99.0342 69.6783 99.3589 69.2486 99.5737L61.5603 103.275C60.2265 104.01 58.0984 103.965 56.7995 103.181L53.6622 101.272C53.5124 101.182 53.3825 101.082 53.2676 100.982C54.8012 95.1426 64.4878 95.1875 64.4878 95.1875Z" fill="#E8E8E8"/>
<path d="M68.5204 96.7245C68.5204 96.7245 68.2955 96.5297 67.811 96.2999C67.0416 95.9302 65.453 95.8852 62.7953 97.1991C62.7953 97.1991 62.3807 97.4888 62.1159 97.2141C62.1159 97.2141 61.8961 97.0392 62.4656 96.7745C62.4656 96.7745 65.2632 95.2408 67.3913 96.0001C67.3913 96.0001 67.6911 96.0851 68.0408 96.3248C68.4554 96.5946 68.4654 96.6745 68.5204 96.7245Z" fill="#919191"/>
<mask id="mask0_4961_1873" style="mask-type:luminance" maskUnits="userSpaceOnUse" x="63" y="92" width="7" height="5">
<path d="M68.141 96.4764C68.141 96.4764 67.042 95.4523 63.9297 96.6812C63.9297 96.6812 64.749 92.8595 64.8889 92.8096C65.0337 92.7596 69.28 93.1093 69.28 93.1093L68.141 96.4764Z" fill="white"/>
</mask>
<g mask="url(#mask0_4961_1873)">
<path d="M65.1585 99.2227C64.8988 99.0579 64.7339 98.7332 64.7239 98.2686C64.7089 97.2944 65.3834 96.0955 66.2326 95.5909C66.6423 95.3461 67.0119 95.3111 67.2967 95.446L66.5274 95.0314C66.4924 95.0064 66.4524 94.9764 66.4125 94.9565C66.1327 94.8116 65.748 94.8466 65.3284 95.0963C64.4791 95.6009 63.7548 96.7249 63.7698 97.6991C63.7798 98.2136 64.0295 98.6333 64.3393 98.7781L65.1585 99.2227Z" fill="#DBDBDB"/>
<path d="M64.7288 98.268C64.7437 99.2422 65.4481 99.6219 66.2974 99.1173C67.1417 98.6127 67.8161 97.4138 67.8011 96.4396C67.7811 95.4655 67.0817 95.0858 66.2324 95.5904C65.3832 96.0949 64.7138 97.2939 64.7288 98.268Z" fill="#919191"/>
<path d="M66.1232 96.7694C66.1282 96.9695 66.273 97.0495 66.4479 96.9445C66.6227 96.8394 66.7626 96.5894 66.7576 96.3893C66.7576 96.1893 66.6127 96.1093 66.4329 96.2143C66.2581 96.3193 66.1182 96.5694 66.1232 96.7694Z" fill="white"/>
</g>
</g>
<defs>
<clipPath id="clip0_4961_1873">
<rect width="86" height="106.882" fill="white" transform="translate(0 0.558594)"/>
</clipPath>
</defs>
</svg>
