<svg width="24" height="24" viewBox="0 0 24 24" fill="none" xmlns="http://www.w3.org/2000/svg">
<g clip-path="url(#clip0_5099_1417)">
<path opacity="0.15" d="M19.6475 19.4753H4.66113V3.17829C4.66113 2.52748 5.18098 2 5.82237 2H16.2153C17.5554 3.35982 18.307 4.1224 19.6471 5.48222V19.4753H19.6475Z" fill="#2BAA51"/>
<path d="M19.9518 15.241H4.66134V14.2109H2.5V16.4262V19.725V20.4193C2.5 21.2913 3.19328 21.9989 4.04862 21.9989H19.9518C20.8072 21.9989 21.5005 21.2913 21.5005 20.4188V16.8211C21.5 15.9481 20.8067 15.241 19.9518 15.241Z" fill="#2BAA51"/>
<path d="M3.58067 15.2407H4.66134V13.0352H3.58067C2.98389 13.0352 2.5 13.5257 2.5 14.1312V14.1437C2.5 14.7497 2.98389 15.2407 3.58067 15.2407Z" fill="#05561A"/>
<path d="M16.2162 2H15.9062V4.53118C15.9062 5.18568 16.4261 5.7164 17.0675 5.7164H19.6481V5.50208C18.3075 4.13441 17.5564 3.36767 16.2162 2Z" fill="#2BAA51"/>
<path d="M8.28689 17H9.96434C10.0513 17 10.1237 17.0282 10.1824 17.0845C10.2407 17.1409 10.2698 17.2134 10.2698 17.3016C10.2698 17.3866 10.2407 17.4559 10.1824 17.5085C10.1241 17.5612 10.0513 17.5875 9.96434 17.5875H8.56229L8.60736 17.5007V18.497L8.5673 18.4559H9.73901C9.82596 18.4559 9.89833 18.4841 9.9566 18.5404C10.0149 18.5968 10.0445 18.6688 10.0445 18.7575C10.0445 18.8425 10.0153 18.9118 9.9566 18.9644C9.89833 19.0171 9.8255 19.0434 9.73901 19.0434H8.58232L8.60736 19.0028V20.0351L8.5673 19.9889H9.96434C10.0513 19.9889 10.1237 20.0189 10.1824 20.0785C10.2407 20.1381 10.2698 20.2074 10.2698 20.2855C10.2698 20.3704 10.2407 20.4406 10.1824 20.4952C10.1241 20.5497 10.0513 20.5769 9.96434 20.5769H8.28689C8.19995 20.5769 8.12757 20.5473 8.06885 20.4873C8.01058 20.4277 7.98145 20.3538 7.98145 20.2651V17.3113C7.98145 17.2226 8.01058 17.1487 8.06885 17.0891C8.12757 17.0296 8.19995 17 8.28689 17Z" fill="white"/>
<path d="M10.8006 17.5875C10.7136 17.5875 10.6412 17.5603 10.5825 17.5058C10.5243 17.4513 10.4951 17.3797 10.4951 17.291C10.4951 17.2023 10.5243 17.1316 10.5825 17.079C10.6408 17.0263 10.7136 17 10.8006 17H13.0238C13.1108 17 13.1831 17.0273 13.2419 17.0818C13.3001 17.1363 13.3293 17.2079 13.3293 17.2965C13.3293 17.3852 13.3001 17.4559 13.2419 17.5085C13.1836 17.5612 13.1108 17.5875 13.0238 17.5875H10.8006ZM11.9072 20.5769C11.8139 20.5769 11.7369 20.5473 11.6768 20.4873C11.6168 20.4277 11.5867 20.3538 11.5867 20.2651V17.3012H12.2377V20.2651C12.2377 20.3538 12.2067 20.4277 12.1448 20.4873C12.0833 20.5473 12.0041 20.5769 11.9072 20.5769Z" fill="white"/>
<path d="M16.0829 17.1747C16.1698 17.2191 16.2203 17.2888 16.2354 17.3844C16.2504 17.48 16.2263 17.5669 16.163 17.6449C16.1197 17.7064 16.0638 17.7405 15.995 17.747C15.9267 17.7539 15.8575 17.7401 15.7874 17.7064C15.7073 17.6689 15.6231 17.6398 15.5348 17.6195C15.4465 17.5992 15.3536 17.589 15.2567 17.589C15.0764 17.589 14.9153 17.6181 14.7732 17.6759C14.6312 17.7336 14.5106 17.8163 14.4104 17.9239C14.3103 18.0315 14.2343 18.1581 14.1828 18.3045C14.1309 18.4509 14.105 18.6131 14.105 18.79C14.105 18.9978 14.1341 19.1784 14.1924 19.3318C14.2507 19.4851 14.3317 19.6126 14.435 19.7151C14.5383 19.8172 14.6603 19.8934 14.8005 19.9424C14.9408 19.9918 15.0928 20.0163 15.2562 20.0163C15.3463 20.0163 15.4365 20.008 15.5266 19.9909C15.6167 19.9738 15.7037 19.9433 15.787 19.899C15.8571 19.8648 15.9263 19.8528 15.9946 19.8634C16.0628 19.8736 16.1207 19.9096 16.1671 19.9706C16.234 20.0555 16.2581 20.1433 16.2399 20.2338C16.2217 20.3244 16.1707 20.3895 16.087 20.4306C16 20.4749 15.9108 20.5114 15.8193 20.5405C15.7274 20.5696 15.6349 20.5918 15.5412 20.607C15.4479 20.6223 15.3527 20.6301 15.2558 20.6301C15.0154 20.6301 14.7873 20.5909 14.5725 20.5128C14.3572 20.4343 14.1651 20.3188 13.9966 20.1655C13.8282 20.0121 13.6953 19.8204 13.5983 19.5904C13.5014 19.3604 13.4531 19.0939 13.4531 18.7909C13.4531 18.5285 13.4973 18.2865 13.586 18.0652C13.6744 17.844 13.7995 17.6523 13.9616 17.4902C14.1236 17.3285 14.3144 17.2024 14.5347 17.1119C14.755 17.0218 14.9954 16.9766 15.2558 16.9766C15.4028 16.9766 15.5462 16.9937 15.6864 17.0278C15.8266 17.062 15.9595 17.1101 16.0829 17.1747Z" fill="white"/>
<path d="M8.72382 10.4858C9.29401 10.4858 9.75624 10.0168 9.75624 9.4382C9.75624 8.85964 9.29401 8.39062 8.72382 8.39062C8.15363 8.39062 7.69141 8.85964 7.69141 9.4382C7.69141 10.0168 8.15363 10.4858 8.72382 10.4858Z" fill="#2BAA51"/>
<path d="M12.1545 10.4858C12.7247 10.4858 13.1869 10.0168 13.1869 9.4382C13.1869 8.85964 12.7247 8.39062 12.1545 8.39062C11.5843 8.39062 11.1221 8.85964 11.1221 9.4382C11.1221 10.0168 11.5843 10.4858 12.1545 10.4858Z" fill="#2BAA51"/>
<path d="M15.5842 10.4897C16.1544 10.4897 16.6166 10.0207 16.6166 9.44211C16.6166 8.86355 16.1544 8.39453 15.5842 8.39453C15.014 8.39453 14.5518 8.86355 14.5518 9.44211C14.5518 10.0207 15.014 10.4897 15.5842 10.4897Z" fill="#2BAA51"/>
</g>
<defs>
<clipPath id="clip0_5099_1417">
<rect width="19" height="20" fill="white" transform="translate(2.5 2)"/>
</clipPath>
</defs>
</svg>
