<svg width="24" height="24" viewBox="0 0 24 24" fill="none" xmlns="http://www.w3.org/2000/svg">
<path d="M21.0466 4.85442V18.6627H11.9999V4.85442H21.0466ZM21.0466 3.90234H11.9999C11.4746 3.90234 11.0479 4.32777 11.0479 4.85442V18.6627C11.0479 19.1881 11.4733 19.6148 11.9999 19.6148H21.0479C21.5732 19.6148 21.9999 19.1894 21.9999 18.6627V4.85442C21.9986 4.32905 21.5732 3.90234 21.0466 3.90234Z" fill="#247045"/>
<path d="M19.6181 6.28516H16.2852V7.71391H19.6181V6.28516Z" fill="#247045"/>
<path d="M19.6181 8.66797H16.2852V10.0967H19.6181V8.66797Z" fill="#247045"/>
<path d="M19.6181 11.0508H16.2852V12.4795H19.6181V11.0508Z" fill="#247045"/>
<path d="M19.6181 13.4297H16.2852V14.8584H19.6181V13.4297Z" fill="#247045"/>
<path d="M19.6181 15.8086H16.2852V17.2373H19.6181V15.8086Z" fill="#247045"/>
<path d="M15.3329 6.28516H12V7.71391H15.3329V6.28516Z" fill="#247045"/>
<path d="M15.3329 8.66797H12V10.0967H15.3329V8.66797Z" fill="#247045"/>
<path d="M15.3329 11.0508H12V12.4795H15.3329V11.0508Z" fill="#247045"/>
<path d="M15.3329 13.4297H12V14.8584H15.3329V13.4297Z" fill="#247045"/>
<path d="M15.3329 15.8086H12V17.2373H15.3329V15.8086Z" fill="#247045"/>
<path d="M2 4.08483V19.9139L13.9042 22V2L2 4.08483ZM8.75295 15.6943L7.65736 13.1046L7.62788 13.0238L7.59841 12.9098L7.5651 12.7611L7.53178 12.5856V12.6855L7.49846 12.8098L7.46002 12.9585L7.41133 13.1251L6.3593 15.5533L4.79344 15.4585L6.6835 11.754L4.9754 8.04818L6.5797 7.94823L7.45105 10.2099L7.50359 10.3534L7.55228 10.5097L7.59585 10.6763C7.62532 10.7327 7.63942 10.7942 7.63942 10.857L7.67273 10.7276L7.7163 10.5712L7.76499 10.4098L7.83162 10.1958L8.84649 7.81497L10.5085 7.71502L8.52486 11.7283L10.5725 15.8083L8.75295 15.6943Z" fill="#247045"/>
</svg>
