<svg width="24" height="24" viewBox="0 0 24 24" fill="none" xmlns="http://www.w3.org/2000/svg">
<g clip-path="url(#clip0_5099_1226)">
<path d="M19.6475 19.4751H4.66113V3.18508C4.66113 2.53052 5.18098 2 5.82237 2H16.2153C17.5554 3.36765 18.307 4.13463 19.6471 5.50228V19.4751H19.6475Z" fill="#DAEAF5"/>
<path d="M19.9518 15.2487H4.66134V14.2188H2.5V16.4342V19.7251V20.4192C2.5 21.2921 3.19328 21.9996 4.04862 21.9996H19.9518C20.8072 21.9996 21.5005 21.2921 21.5005 20.4192V16.8295C21.5 15.9562 20.8067 15.2487 19.9518 15.2487Z" fill="#0973B9"/>
<path d="M3.58067 15.2487H4.66134V13.043H3.58067C2.98389 13.043 2.5 13.5368 2.5 14.1458C2.5 14.7549 2.98389 15.2487 3.58067 15.2487Z" fill="#00334F"/>
<path d="M16.2162 2H15.9063V4.53136C15.9058 5.18591 16.4256 5.71644 17.067 5.71644H19.6476V5.50228C18.3075 4.13463 17.5564 3.36765 16.2162 2Z" fill="#0973B9"/>
<path d="M6.57011 16.6641C6.65842 16.6641 6.73626 16.697 6.80408 16.7625C6.87191 16.8281 6.90605 16.9098 6.90605 17.0069V20.2551C6.90605 20.3526 6.871 20.4339 6.80135 20.4994C6.73171 20.5649 6.65068 20.5979 6.55918 20.5979C6.4563 20.5979 6.37391 20.5654 6.31155 20.4994C6.24918 20.4339 6.21777 20.3526 6.21777 20.2551V17.0069C6.21777 16.9093 6.251 16.8281 6.31701 16.7625C6.38301 16.697 6.46768 16.6641 6.57011 16.6641ZM6.55372 18.2993H9.00957V18.9455H6.55372V18.2993ZM9.00957 16.6641C9.11245 16.6641 9.19484 16.697 9.25721 16.7625C9.31957 16.8281 9.35098 16.9098 9.35098 17.0069V20.2551C9.35098 20.3526 9.31866 20.4339 9.25448 20.4994C9.19029 20.5649 9.10471 20.5979 8.99819 20.5979C8.90988 20.5979 8.83204 20.5654 8.76422 20.4994C8.69639 20.4339 8.66225 20.3526 8.66225 20.2551V17.0069C8.66225 16.9093 8.6973 16.8281 8.76695 16.7625C8.83705 16.697 8.91808 16.6641 9.00957 16.6641Z" fill="white"/>
<path d="M14.373 16.6484C14.4572 16.6484 14.5382 16.6814 14.6152 16.7469C14.6921 16.8124 14.7308 16.9016 14.7308 17.014C14.7308 17.048 14.7253 17.0851 14.7144 17.1265L13.6296 20.3858C13.6078 20.4531 13.5682 20.5047 13.5113 20.54C13.4544 20.5758 13.3948 20.5953 13.3324 20.599C13.27 20.599 13.2086 20.5804 13.148 20.5428C13.0875 20.5052 13.0406 20.4508 13.0074 20.3797L12.1926 18.4918L12.2422 18.5257L11.4383 20.3802C11.405 20.4513 11.3586 20.5056 11.2976 20.5433C11.2371 20.5809 11.1756 20.5995 11.1132 20.5995C11.0545 20.5958 10.9958 20.5762 10.9371 20.5405C10.8784 20.5052 10.8378 20.4531 10.816 20.3862L9.73123 17.1269C9.72031 17.0856 9.71484 17.0484 9.71484 17.0145C9.71484 16.9021 9.75445 16.8134 9.8332 16.7474C9.91195 16.6819 9.99389 16.6489 10.0781 16.6489C10.1477 16.6489 10.2128 16.6675 10.2734 16.7051C10.3339 16.7427 10.3754 16.7971 10.3972 16.8682L11.2726 19.577L11.1515 19.5714L11.9335 17.6542C11.9631 17.5868 12.005 17.5334 12.0601 17.4939C12.1152 17.4544 12.1775 17.4368 12.2472 17.4405C12.3168 17.4368 12.3792 17.4544 12.4343 17.4939C12.4893 17.5334 12.5299 17.5868 12.5554 17.6542L13.2714 19.4859L13.1831 19.5421L14.0475 16.8672C14.0694 16.7962 14.1117 16.7418 14.1741 16.7042C14.2374 16.667 14.3034 16.6484 14.373 16.6484Z" fill="white"/>
<path d="M16.6856 16.6641C16.8764 16.6641 17.0552 16.7203 17.2223 16.8327C17.3894 16.9451 17.5241 17.097 17.627 17.288C17.7299 17.4789 17.7813 17.6926 17.7813 17.9286C17.7813 18.1609 17.7299 18.3727 17.627 18.5636C17.5241 18.7546 17.3894 18.9074 17.2223 19.0217C17.0552 19.136 16.8764 19.1931 16.6856 19.1931H15.6723L15.7274 19.0918V20.2551C15.7274 20.3526 15.6978 20.4339 15.6391 20.4994C15.5804 20.5649 15.5034 20.5979 15.4078 20.5979C15.3159 20.5979 15.2408 20.5654 15.1821 20.4994C15.1233 20.4339 15.0938 20.3526 15.0938 20.2551V17.0069C15.0938 16.9093 15.1256 16.8281 15.1903 16.7625C15.2544 16.697 15.3341 16.6641 15.4297 16.6641H16.6856ZM16.6856 18.5525C16.7553 18.5525 16.8231 18.5227 16.8896 18.4624C16.9556 18.4024 17.0106 18.3248 17.0548 18.2291C17.0989 18.1334 17.1208 18.0336 17.1208 17.9286C17.1208 17.8199 17.0989 17.7186 17.0548 17.6252C17.0106 17.5319 16.9556 17.4557 16.8896 17.3976C16.8235 17.3395 16.7557 17.3103 16.6856 17.3103H15.6614L15.7274 17.209V18.6421L15.6669 18.552H16.6856V18.5525Z" fill="white"/>
<path d="M10.9277 4.97755C10.9277 4.97755 12.3348 4.96176 13.5561 6.33452C13.5561 6.33452 12.9839 4.34622 11.7781 4.37781C11.7785 4.37781 11.067 4.29884 10.9277 4.97755Z" fill="#0973B9"/>
<path d="M13.7105 6.96662C13.7105 6.96662 12.3585 5.34114 10.5563 5.49909C10.5563 5.49909 9.08735 5.42011 9.27307 6.93503C9.27307 6.93503 11.129 6.47744 12.0799 7.04559C12.0799 7.04559 9.35046 7.40841 9.50523 9.66475C9.50523 9.66475 9.4588 11.5583 11.84 11.4003C11.84 11.4003 14.4069 11.1792 14.1129 8.03927C14.1129 8.03927 14.6136 8.08666 15.0096 8.33891C15.0096 8.33938 15.4211 6.93178 13.7105 6.96662ZM12.2419 10.2487C10.8968 10.6747 10.9278 9.50727 10.9278 9.50727C11.0206 8.00815 12.8296 7.96076 12.8296 7.96076C13.7569 9.60204 12.2419 10.2487 12.2419 10.2487Z" fill="#0973B9"/>
<path d="M12.5358 12.9479C12.5358 13.3051 12.2522 13.595 11.9017 13.595C11.5516 13.595 11.2676 13.3056 11.2676 12.9479C11.2676 12.5907 11.5516 12.3008 11.9017 12.3008C12.2517 12.3008 12.5358 12.5907 12.5358 12.9479Z" fill="#0973B9"/>
</g>
<defs>
<clipPath id="clip0_5099_1226">
<rect width="19" height="20" fill="white" transform="translate(2.5 2)"/>
</clipPath>
</defs>
</svg>
