<svg width="24" height="24" viewBox="0 0 24 24" fill="none" xmlns="http://www.w3.org/2000/svg">
<g clip-path="url(#clip0_5099_1387)">
<path d="M19.6475 19.4753H4.66113V3.17829C4.66113 2.52748 5.18098 2 5.82237 2H16.2153C17.5554 3.35982 18.307 4.1224 19.6471 5.48222V19.4753H19.6475Z" fill="#E2EBFF"/>
<path d="M19.9518 15.241H4.66134V14.2109H2.5V16.4262V19.725V20.4193C2.5 21.2913 3.19328 21.9989 4.04862 21.9989H19.9518C20.8072 21.9989 21.5005 21.2913 21.5005 20.4188V16.8211C21.5 15.9481 20.8067 15.241 19.9518 15.241Z" fill="#3B78FF"/>
<path d="M3.58067 15.2407H4.66134V13.0352H3.58067C2.98389 13.0352 2.5 13.5257 2.5 14.1312V14.1437C2.5 14.7497 2.98389 15.2407 3.58067 15.2407Z" fill="#053893"/>
<path d="M16.2162 2H15.9062V4.53118C15.9062 5.18568 16.4261 5.7164 17.0675 5.7164H19.6481V5.50208C18.3075 4.13441 17.5564 3.36767 16.2162 2Z" fill="#3B78FF"/>
<path d="M8.33817 20.1661C8.33817 20.2607 8.30403 20.3397 8.23666 20.4035C8.16883 20.4672 8.09054 20.4991 8.00131 20.4991C7.90162 20.4991 7.82151 20.4672 7.76096 20.4035C7.70042 20.3397 7.66992 20.2607 7.66992 20.1661V17.0127C7.66992 16.918 7.70179 16.839 7.76597 16.7753C7.83016 16.7116 7.91209 16.6797 8.01178 16.6797C8.09736 16.6797 8.17293 16.7116 8.23893 16.7753C8.30494 16.839 8.33771 16.918 8.33771 17.0127V20.1661H8.33817Z" fill="white"/>
<path d="M9.34324 16.6723C9.39331 16.6723 9.44566 16.6862 9.50074 16.7134C9.55582 16.7407 9.5977 16.7763 9.62638 16.8197L10.9255 18.8599L10.6583 18.8488L11.9894 16.8192C12.0572 16.7208 12.1446 16.6719 12.2511 16.6719C12.3367 16.6719 12.4132 16.7028 12.481 16.7647C12.5488 16.8266 12.5825 16.9065 12.5825 17.0049V20.1638C12.5825 20.2585 12.552 20.3375 12.4915 20.4012C12.4309 20.4649 12.3508 20.4968 12.2511 20.4968C12.1514 20.4968 12.0704 20.4649 12.008 20.4012C11.9457 20.3375 11.9147 20.2585 11.9147 20.1638V17.5943L12.1232 17.6432L11.0325 19.3398C11.0007 19.38 10.9601 19.4141 10.9123 19.4432C10.8641 19.4723 10.8154 19.4853 10.7653 19.4816C10.7189 19.4853 10.6715 19.4728 10.6237 19.4432C10.5755 19.4141 10.5354 19.3795 10.5036 19.3398L9.48253 17.6922L9.62137 17.4031V20.1633C9.62137 20.258 9.59269 20.337 9.53579 20.4007C9.47889 20.4645 9.40378 20.4964 9.31137 20.4964C9.22215 20.4964 9.14932 20.4645 9.09242 20.4007C9.03551 20.337 9.00684 20.258 9.00684 20.1633V17.0044C9.00684 16.9134 9.03961 16.8354 9.10562 16.7698C9.17117 16.7051 9.25083 16.6723 9.34324 16.6723Z" fill="white"/>
<path d="M15.015 20.552C14.7441 20.552 14.491 20.5012 14.2557 20.3991C14.0203 20.2975 13.8137 20.1562 13.6357 19.9765C13.4572 19.7964 13.3175 19.5885 13.216 19.352C13.1145 19.1155 13.0635 18.861 13.0635 18.5885C13.0635 18.316 13.1145 18.061 13.216 17.825C13.3175 17.5885 13.4572 17.3802 13.6357 17.2005C13.8137 17.0204 14.0208 16.8795 14.2557 16.7779C14.491 16.6763 14.7441 16.625 15.015 16.625C15.1825 16.625 15.3445 16.6435 15.5016 16.6795C15.6582 16.716 15.8029 16.7705 15.9345 16.843C15.9877 16.8721 16.0278 16.9114 16.0547 16.9603C16.0815 17.0093 16.0947 17.0596 16.0947 17.1105C16.0947 17.1977 16.066 17.2758 16.0091 17.3451C15.9522 17.4144 15.8789 17.4486 15.7902 17.4486C15.7615 17.4486 15.7324 17.4449 15.7019 17.4375C15.6714 17.4301 15.6422 17.4195 15.6136 17.4047C15.5243 17.3645 15.4301 17.334 15.3304 17.3118C15.2307 17.2901 15.1256 17.279 15.015 17.279C14.7833 17.279 14.572 17.3382 14.3813 17.4564C14.1906 17.5747 14.039 17.7326 13.927 17.9312C13.8146 18.1294 13.7586 18.3483 13.7586 18.5885C13.7586 18.825 13.8146 19.043 13.927 19.243C14.0394 19.443 14.1906 19.6024 14.3813 19.7202C14.572 19.8384 14.7833 19.8975 15.015 19.8975C15.1219 19.8975 15.2394 19.8864 15.3677 19.8647C15.4961 19.843 15.6013 19.8139 15.6832 19.7774L15.635 19.9409V19.0079L15.726 19.0897H15.1324C15.0395 19.0897 14.9622 19.0587 14.8998 18.9968C14.8374 18.9349 14.8065 18.8569 14.8065 18.7622C14.8065 18.6675 14.8374 18.5894 14.8998 18.5275C14.9622 18.4656 15.0395 18.4347 15.1324 18.4347H16.0091C16.102 18.4347 16.1785 18.4666 16.239 18.5303C16.2996 18.5941 16.3301 18.673 16.3301 18.7677V19.9243C16.3301 19.9973 16.3132 20.0573 16.2791 20.1044C16.2449 20.1516 16.2067 20.1899 16.1639 20.219C16 20.3211 15.8207 20.4019 15.6268 20.462C15.4328 20.522 15.2285 20.552 15.015 20.552Z" fill="white"/>
<path d="M15.3117 11.9444H8.99707L8.99889 10.7845L11.1866 8.40625L15.3117 11.8118V11.9444Z" fill="#3B78FF"/>
<path d="M15.3117 10.5023L13.9065 9.32031L11.3223 11.9425H15.3117V10.5023Z" fill="#3B78FF"/>
<path d="M13.1154 8.73909C13.4186 8.73909 13.6644 8.48969 13.6644 8.18204C13.6644 7.8744 13.4186 7.625 13.1154 7.625C12.8122 7.625 12.5664 7.8744 12.5664 8.18204C12.5664 8.48969 12.8122 8.73909 13.1154 8.73909Z" fill="#3B78FF"/>
<path d="M15.1742 6.92932V11.8046H9.13402V6.92932H15.1742ZM15.9977 6.09375H8.31055V12.6402H15.9977V6.09375Z" fill="#3B78FF"/>
</g>
<defs>
<clipPath id="clip0_5099_1387">
<rect width="19" height="20" fill="white" transform="translate(2.5 2)"/>
</clipPath>
</defs>
</svg>
