<svg width="20" height="20" viewBox="0 0 20 20" fill="none" xmlns="http://www.w3.org/2000/svg">
<mask id="mask0_2906_11682" style="mask-type:alpha" maskUnits="userSpaceOnUse" x="0" y="0" width="20" height="20">
<rect width="20" height="20" fill="#D9D9D9"/>
</mask>
<g mask="url(#mask0_2906_11682)">
<path d="M4.42378 17.5C4.00822 17.5 3.65322 17.3528 3.35878 17.0585C3.06447 16.7641 2.91732 16.4091 2.91732 15.9935V7.49521C2.67273 7.3691 2.47266 7.18986 2.31711 6.9575C2.16169 6.72514 2.08398 6.45722 2.08398 6.15375V4.00646C2.08398 3.5909 2.23114 3.2359 2.52544 2.94146C2.81989 2.64715 3.17489 2.5 3.59044 2.5H16.4109C16.8264 2.5 17.1814 2.64715 17.4759 2.94146C17.7702 3.2359 17.9173 3.5909 17.9173 4.00646V6.15375C17.9173 6.45722 17.8396 6.72514 17.6842 6.9575C17.5286 7.18986 17.3286 7.3691 17.084 7.49521V15.9935C17.084 16.4091 16.9368 16.7641 16.6425 17.0585C16.3481 17.3528 15.9931 17.5 15.5775 17.5H4.42378ZM4.16732 7.66021V15.9535C4.16732 16.039 4.19801 16.1097 4.2594 16.1658C4.32093 16.2219 4.39711 16.25 4.48794 16.25H15.5775C15.6524 16.25 15.7138 16.226 15.7619 16.1779C15.81 16.1299 15.834 16.0684 15.834 15.9935V7.66021H4.16732ZM3.59044 6.41021H16.4109C16.4857 6.41021 16.5472 6.38618 16.5952 6.33812C16.6433 6.29007 16.6673 6.22861 16.6673 6.15375V4.00646C16.6673 3.9316 16.6433 3.87014 16.5952 3.82208C16.5472 3.77403 16.4857 3.75 16.4109 3.75H3.59044C3.51558 3.75 3.45412 3.77403 3.40607 3.82208C3.35801 3.87014 3.33398 3.9316 3.33398 4.00646V6.15375C3.33398 6.22861 3.35801 6.29007 3.40607 6.33812C3.45412 6.38618 3.51558 6.41021 3.59044 6.41021ZM8.2619 11.6106H11.7475C11.9195 11.6106 12.0613 11.5535 12.1729 11.4392C12.2846 11.3247 12.3404 11.1815 12.3404 11.0096C12.3404 10.8376 12.2846 10.6958 12.1729 10.5842C12.0613 10.4725 11.9195 10.4167 11.7475 10.4167H8.25378C8.08183 10.4167 7.94003 10.4725 7.82836 10.5842C7.71669 10.6958 7.66086 10.8376 7.66086 11.0096C7.66086 11.1815 7.71801 11.3247 7.83232 11.4392C7.94662 11.5535 8.08982 11.6106 8.2619 11.6106Z" fill="#999999"/>
</g>
</svg>
