<svg width="20" height="20" viewBox="0 0 20 20" fill="none" xmlns="http://www.w3.org/2000/svg">
<mask id="mask0_5020_2314" style="mask-type:alpha" maskUnits="userSpaceOnUse" x="0" y="0" width="20" height="20">
<rect width="20" height="20" fill="#D9D9D9"/>
</mask>
<g mask="url(#mask0_5020_2314)">
<path d="M4.99967 11.6654C4.54134 11.6654 4.14898 11.5022 3.82259 11.1758C3.4962 10.8494 3.33301 10.457 3.33301 9.9987C3.33301 9.54036 3.4962 9.148 3.82259 8.82161C4.14898 8.49523 4.54134 8.33203 4.99967 8.33203C5.45801 8.33203 5.85037 8.49523 6.17676 8.82161C6.50315 9.148 6.66634 9.54036 6.66634 9.9987C6.66634 10.457 6.50315 10.8494 6.17676 11.1758C5.85037 11.5022 5.45801 11.6654 4.99967 11.6654ZM9.99967 11.6654C9.54134 11.6654 9.14898 11.5022 8.82259 11.1758C8.4962 10.8494 8.33301 10.457 8.33301 9.9987C8.33301 9.54036 8.4962 9.148 8.82259 8.82161C9.14898 8.49523 9.54134 8.33203 9.99967 8.33203C10.458 8.33203 10.8504 8.49523 11.1768 8.82161C11.5031 9.148 11.6663 9.54036 11.6663 9.9987C11.6663 10.457 11.5031 10.8494 11.1768 11.1758C10.8504 11.5022 10.458 11.6654 9.99967 11.6654ZM14.9997 11.6654C14.5413 11.6654 14.149 11.5022 13.8226 11.1758C13.4962 10.8494 13.333 10.457 13.333 9.9987C13.333 9.54036 13.4962 9.148 13.8226 8.82161C14.149 8.49523 14.5413 8.33203 14.9997 8.33203C15.458 8.33203 15.8504 8.49523 16.1768 8.82161C16.5031 9.148 16.6663 9.54036 16.6663 9.9987C16.6663 10.457 16.5031 10.8494 16.1768 11.1758C15.8504 11.5022 15.458 11.6654 14.9997 11.6654Z" fill="#777777"/>
</g>
</svg>
