<svg width="24" height="24" viewBox="0 0 24 24" fill="none" xmlns="http://www.w3.org/2000/svg">
<g clip-path="url(#clip0_5099_1093)">
<path d="M19.6475 19.4751H4.66113V3.18508C4.66113 2.53052 5.18098 2 5.82237 2H16.2153C17.5554 3.36765 18.307 4.13463 19.6471 5.50228V19.4751H19.6475Z" fill="#FCDDDE"/>
<path d="M19.9518 15.2487H4.66134V14.2188H2.5V16.4342V19.7251V20.4192C2.5 21.2921 3.19328 21.9996 4.04862 21.9996H19.9518C20.8072 21.9996 21.5005 21.2921 21.5005 20.4192V16.8295C21.5 15.9562 20.8067 15.2487 19.9518 15.2487Z" fill="#EC1E24"/>
<path d="M3.58067 15.2487H4.66134V13.043H3.58067C2.98389 13.043 2.5 13.5368 2.5 14.1458C2.5 14.7549 2.98389 15.2487 3.58067 15.2487Z" fill="#84030D"/>
<path d="M16.2162 2H15.9063V4.53136C15.9058 5.18591 16.4256 5.71644 17.067 5.71644H19.6476V5.50228C18.3075 4.13463 17.5564 3.36765 16.2162 2Z" fill="#EC1E24"/>
<path d="M8.85612 16.6484C9.04776 16.6484 9.22757 16.7046 9.39554 16.8175C9.56306 16.9304 9.69871 17.0828 9.80205 17.2747C9.90538 17.4665 9.95682 17.6811 9.95682 17.9181C9.95682 18.1513 9.90492 18.364 9.80205 18.5559C9.69871 18.7478 9.56352 18.9011 9.39554 19.0158C9.22757 19.1306 9.04822 19.1882 8.85612 19.1882H7.83873L7.89426 19.0864V20.2548C7.89426 20.3528 7.86467 20.4346 7.80595 20.5001C7.74677 20.566 7.66939 20.599 7.57379 20.599C7.48139 20.599 7.40582 20.566 7.3471 20.5001C7.28792 20.4341 7.25879 20.3523 7.25879 20.2548V16.9927C7.25879 16.8947 7.29111 16.8129 7.35575 16.7474C7.42039 16.6814 7.50051 16.6489 7.5961 16.6489H8.85612V16.6484ZM8.85612 18.5447C8.92622 18.5447 8.9945 18.5146 9.06096 18.4546C9.12743 18.3947 9.18251 18.3162 9.22666 18.2205C9.27082 18.1243 9.29312 18.024 9.29312 17.9185C9.29312 17.8094 9.27082 17.7076 9.22666 17.6138C9.18251 17.5199 9.12697 17.4438 9.06096 17.3852C8.99496 17.3267 8.92622 17.2979 8.85612 17.2979H7.82735L7.89381 17.1961V18.6353L7.83281 18.5452H8.85612V18.5447Z" fill="white"/>
<path d="M12.1134 16.6484C12.3788 16.6484 12.6146 16.6991 12.8213 16.8008C13.0275 16.9025 13.2018 17.0447 13.3438 17.2268C13.4859 17.4094 13.5928 17.6198 13.6648 17.8586C13.7367 18.0974 13.7726 18.3524 13.7726 18.6233C13.7726 18.9884 13.708 19.3201 13.5792 19.6193C13.4499 19.9184 13.2633 20.1563 13.0179 20.3333C12.7726 20.5103 12.4712 20.5985 12.1139 20.5985H10.7924C10.6963 20.5985 10.6162 20.5656 10.552 20.4996C10.4874 20.4336 10.4551 20.3519 10.4551 20.2543V16.9922C10.4551 16.8942 10.4874 16.8124 10.552 16.7469C10.6167 16.681 10.6968 16.6484 10.7924 16.6484H12.1134ZM12.0579 19.95C12.29 19.95 12.4799 19.8887 12.6273 19.7665C12.7748 19.6443 12.8827 19.4822 12.951 19.2811C13.0193 19.0799 13.0534 18.8606 13.0534 18.6237C13.0534 18.4467 13.0338 18.2786 12.9951 18.1188C12.9565 17.9589 12.8964 17.8177 12.8153 17.6955C12.7343 17.5734 12.631 17.4763 12.5058 17.4047C12.3806 17.3332 12.2313 17.2974 12.0579 17.2974H11.0901L11.1456 17.2468V20.0123L11.1124 19.95H12.0579Z" fill="white"/>
<path d="M14.6182 20.5985C14.5149 20.5985 14.4311 20.5656 14.3665 20.4996C14.3019 20.4336 14.2695 20.3519 14.2695 20.2543V16.9922C14.2695 16.8942 14.3019 16.8124 14.3665 16.7469C14.4311 16.681 14.5112 16.6484 14.6068 16.6484H16.404C16.5001 16.6484 16.5802 16.6796 16.6444 16.7413C16.709 16.8036 16.7413 16.8835 16.7413 16.9811C16.7413 17.0637 16.709 17.1371 16.6444 17.2013C16.5797 17.2654 16.4996 17.2974 16.404 17.2974H14.9109L14.9605 17.2296V18.364L14.9218 18.2906H16.155C16.2511 18.2906 16.3312 18.3218 16.3954 18.3835C16.46 18.4458 16.4923 18.5257 16.4923 18.6233C16.4923 18.7059 16.46 18.7793 16.3954 18.8435C16.3307 18.9076 16.2506 18.9396 16.155 18.9396H14.9109L14.9605 18.889V20.2548C14.9605 20.3528 14.9264 20.4346 14.8581 20.5001C14.7903 20.5656 14.7102 20.5985 14.6182 20.5985Z" fill="white"/>
<path d="M16.7183 10.6653C16.7183 10.6653 17.1571 9.66283 13.9911 10.1204C13.9911 10.1204 12.7516 9.72136 11.9318 7.5807C11.9318 7.5807 12.1225 6.37425 12.1129 5.81957C12.1129 5.81957 11.8457 6.85088 11.7793 7.03577C11.7793 7.03577 11.2453 5.03122 11.7028 4.58339C11.7028 4.58339 12.0146 4.65168 12.1544 5.64397C12.1544 5.64397 12.361 4.49884 11.6741 4.45703C11.6741 4.45703 11.1497 4.4863 11.1115 4.9922C11.1115 4.9922 11.035 6.47134 11.5025 7.7851C11.5025 7.7851 9.20461 13.3026 7.89816 13.4875C7.89816 13.4875 7.77434 12.9621 9.44268 11.522C9.44268 11.522 6.88714 12.9816 7.74566 13.5363C7.74566 13.5363 8.16537 13.9451 8.82314 13.3611C8.82314 13.3611 9.44314 12.8845 10.2343 11.3176C10.2343 11.3176 11.8935 10.7434 13.7526 10.4614C13.7526 10.4614 16.3177 11.9405 16.7178 10.9092V10.7926C16.7178 10.7926 16.508 11.4542 14.4582 10.3741C14.4586 10.3736 16.4038 10.1399 16.7183 10.6653ZM10.349 11.0644C11.0737 9.96479 11.7124 8.28124 11.7124 8.28124C12.3037 9.52671 13.3525 10.2175 13.3525 10.2175C11.9413 10.4804 10.349 11.0644 10.349 11.0644Z" fill="#EC1E24"/>
</g>
<defs>
<clipPath id="clip0_5099_1093">
<rect width="19" height="20" fill="white" transform="translate(2.5 2)"/>
</clipPath>
</defs>
</svg>
