<svg width="24" height="24" viewBox="0 0 24 24" fill="none" xmlns="http://www.w3.org/2000/svg">
<path d="M22 5.22527C22 9.73584 22 14.2464 22 18.7582C21.9873 18.8103 21.9784 18.8648 21.9619 18.9156C21.854 19.2632 21.6241 19.4891 21.2698 19.5753C21.1733 19.5994 21.0704 19.602 20.9701 19.602C18.6639 19.6032 16.359 19.6032 14.0528 19.6032C14.0058 19.6032 13.9576 19.6071 13.903 19.6096C13.903 19.6515 13.903 19.6845 13.903 19.7162C13.903 20.4457 13.903 21.174 13.903 21.9036C13.903 21.9353 13.9081 21.9683 13.9106 22C13.8979 22 13.8839 22 13.8712 22C13.842 21.9873 13.8141 21.9695 13.7836 21.9632C13.3671 21.8896 12.9505 21.8173 12.534 21.7437C11.9956 21.6498 11.4571 21.5572 10.9187 21.4633C10.3739 21.3681 9.82907 21.2717 9.28554 21.1766C8.74709 21.0827 8.20992 20.9875 7.67147 20.8936C7.05937 20.787 6.44727 20.6792 5.83643 20.5726C5.26243 20.4724 4.68969 20.3734 4.11569 20.2732C3.56835 20.178 3.01975 20.0816 2.47241 19.9852C2.31621 19.9572 2.16001 19.9293 2.00127 19.9001C2 14.6245 2 9.35774 2 4.08336C5.96597 3.38933 9.92685 2.6953 13.9004 2C13.9004 2.16875 13.9004 2.32481 13.9004 2.4796C13.9004 2.63947 13.9004 2.79807 13.9004 2.95794C13.9004 3.114 13.9004 3.27006 13.9004 3.42612C13.9004 3.58599 13.9004 3.74459 13.9004 3.90446C13.9004 4.05925 13.8992 4.21405 13.9017 4.38026C13.9639 4.38026 14.0122 4.38026 14.0604 4.38026C16.3565 4.38026 18.6525 4.38026 20.9498 4.38026C21.0183 4.38026 21.0869 4.38153 21.1542 4.3866C21.567 4.41832 21.9263 4.76216 21.9797 5.17325C21.9809 5.19102 21.9924 5.20878 22 5.22527ZM13.9081 13.9C15.6517 13.9 17.3927 13.9 19.1338 13.9C19.1338 14.2198 19.1338 14.5268 19.1338 14.8453C19.0855 14.8453 19.0436 14.8453 19.0017 14.8453C17.3572 14.8453 15.7113 14.8453 14.0668 14.8453C14.0338 14.8453 14.002 14.844 13.969 14.8453C13.9474 14.8465 13.9258 14.8516 13.9068 14.8554C13.9068 15.1726 13.9068 15.4847 13.9068 15.807C13.955 15.807 13.9957 15.807 14.0376 15.807C14.9596 15.807 15.8815 15.807 16.8035 15.807C17.54 15.807 18.2753 15.807 19.0119 15.807C19.0525 15.807 19.0931 15.8108 19.1325 15.8134C19.1325 16.1293 19.1325 16.4338 19.1325 16.7472C17.3876 16.7472 15.6491 16.7472 13.9144 16.7472C13.8915 16.8563 13.8954 18.5819 13.9169 18.6555C16.293 18.6555 18.669 18.6555 21.0437 18.6555C21.0666 18.554 21.0628 5.40291 21.0412 5.32551C18.6665 5.32551 16.2892 5.32551 13.9144 5.32551C13.8941 5.42574 13.8954 7.86563 13.9182 7.95064C14.1811 7.72353 14.4706 7.5459 14.7919 7.42283C15.145 7.28833 15.639 7.20586 15.8079 7.25915C15.8079 8.19806 15.8079 9.14077 15.8079 10.0924C15.9336 10.0924 16.0504 10.0924 16.1672 10.0924C16.2879 10.0924 16.4085 10.0924 16.5292 10.0924C16.646 10.0924 16.7641 10.0924 16.8809 10.0924C16.9978 10.0924 17.1159 10.0924 17.2327 10.0924C17.3534 10.0924 17.474 10.0924 17.5946 10.0924C17.7115 10.0924 17.8296 10.0924 17.9464 10.0924C18.0671 10.0924 18.1877 10.0924 18.3083 10.0924C18.4239 10.0936 18.5395 10.0886 18.6677 10.0962C18.6296 11.1074 18.2131 11.8979 17.3864 12.465C16.9635 12.7556 16.4898 12.9091 15.978 12.9357C15.1996 12.9763 14.5125 12.7353 13.9068 12.2189C13.9081 12.7873 13.9081 13.3379 13.9081 13.9ZM5.331 7.84407C5.3272 7.8669 5.32466 7.87959 5.32466 7.89228C5.32466 10.558 5.32466 13.2225 5.32466 15.8882C5.32466 15.9009 5.32847 15.9136 5.331 15.9263C5.331 15.9288 5.33481 15.9314 5.33608 15.9339C5.33862 15.9364 5.34116 15.9377 5.34878 15.9453C5.81231 15.9732 6.28218 16.0011 6.76221 16.0303C6.76221 15.0635 6.76221 14.1106 6.76221 13.1552C6.79268 13.1502 6.81427 13.1438 6.83713 13.1438C7.09747 13.1438 7.3578 13.1425 7.61813 13.1464C8.0461 13.154 8.4639 13.1007 8.86139 12.9383C9.70589 12.5932 10.271 11.993 10.4869 11.0985C10.6405 10.4654 10.6037 9.83226 10.4209 9.20929C10.2659 8.68147 9.94082 8.28561 9.46206 8.01535C9.09632 7.80854 8.69376 7.74002 8.28357 7.7045C7.93434 7.67405 7.58766 7.71211 7.2397 7.72987C6.69617 7.75779 6.15391 7.79204 5.61166 7.82376C5.51895 7.82757 5.42879 7.83645 5.331 7.84407Z" fill="#CA4729"/>
<path d="M19.1436 9.60165C18.1873 9.60165 17.2476 9.60165 16.3091 9.60165C16.2901 9.52679 16.2837 6.92196 16.3015 6.78112C16.652 6.66693 17.5892 6.98794 18.0883 7.40283C18.7702 7.96998 19.1131 8.70335 19.1436 9.60165Z" fill="#CA4729"/>
<path d="M6.76562 11.7188C6.76562 10.8776 6.76562 10.0402 6.76562 9.19518C6.80118 9.19264 6.83293 9.1901 6.86341 9.1901C7.08438 9.18884 7.30661 9.18884 7.52758 9.18757C7.6914 9.1863 7.85268 9.20279 8.00888 9.25101C8.33017 9.3487 8.5524 9.55298 8.65654 9.87272C8.78226 10.2597 8.77464 10.6492 8.63749 11.0311C8.53209 11.3268 8.32255 11.526 8.02539 11.6313C7.86157 11.6896 7.6914 11.7188 7.51869 11.7226C7.28502 11.7277 7.05009 11.7239 6.81515 11.7239C6.80245 11.7239 6.78721 11.7201 6.76562 11.7188Z" fill="#CA4729"/>
</svg>
