<svg width="20" height="20" viewBox="0 0 20 20" fill="none" xmlns="http://www.w3.org/2000/svg">
<mask id="mask0_2906_11688" style="mask-type:alpha" maskUnits="userSpaceOnUse" x="0" y="0" width="20" height="20">
<rect width="20" height="20" fill="#D9D9D9"/>
</mask>
<g mask="url(#mask0_2906_11688)">
<path d="M2.75646 12.916C2.36007 12.916 2.00993 12.764 1.70604 12.46C1.40201 12.1561 1.25 11.8059 1.25 11.4096V10.0635C1.25 9.97602 1.26125 9.88227 1.28375 9.78227C1.30611 9.6824 1.33118 9.58914 1.35896 9.50247L3.74729 3.86706C3.8666 3.60053 4.06674 3.37539 4.34771 3.19164C4.62868 3.00789 4.92188 2.91602 5.22729 2.91602H13.9904V12.916L9.14271 17.7221C8.97701 17.8876 8.78521 17.9864 8.56729 18.0185C8.34938 18.0506 8.14056 18.0132 7.94083 17.9064C7.74097 17.7995 7.59458 17.6478 7.50167 17.4512C7.40875 17.2547 7.38896 17.0512 7.44229 16.8406L8.33979 12.916H2.75646ZM12.7404 12.3839V4.16602H5.22438C5.16563 4.16602 5.10556 4.18206 5.04417 4.21414C4.98264 4.24622 4.93583 4.29963 4.90375 4.37435L2.5 9.99935V11.4096C2.5 11.4844 2.52403 11.5459 2.57208 11.5939C2.62014 11.642 2.6816 11.666 2.75646 11.666H9.91979L8.875 16.2333L12.7404 12.3839ZM16.4102 2.91602C16.8245 2.91602 17.1792 3.06352 17.4742 3.35852C17.7692 3.65352 17.9167 4.00817 17.9167 4.42247V11.4096C17.9167 11.8239 17.7692 12.1785 17.4742 12.4735C17.1792 12.7685 16.8245 12.916 16.4102 12.916H13.9904V11.666H16.4102C16.4851 11.666 16.5465 11.642 16.5946 11.5939C16.6426 11.5459 16.6667 11.4844 16.6667 11.4096V4.42247C16.6667 4.34761 16.6426 4.28615 16.5946 4.2381C16.5465 4.19004 16.4851 4.16602 16.4102 4.16602H13.9904V2.91602H16.4102Z" fill="#999999"/>
</g>
</svg>
