<svg width="20" height="20" viewBox="0 0 20 20" fill="none" xmlns="http://www.w3.org/2000/svg">
<mask id="mask0_2906_11685" style="mask-type:alpha" maskUnits="userSpaceOnUse" x="0" y="0" width="20" height="20">
<rect width="20" height="20" fill="#D9D9D9"/>
</mask>
<g mask="url(#mask0_2906_11685)">
<path d="M17.2442 7.08237C17.6406 7.08237 17.9907 7.23438 18.2946 7.53841C18.5986 7.8423 18.7507 8.19244 18.7507 8.58882V9.93487C18.7507 10.0224 18.7394 10.1161 18.7169 10.2161C18.6945 10.316 18.6695 10.4092 18.6417 10.4959L16.2534 16.1313C16.1341 16.3979 15.9339 16.623 15.6529 16.8067C15.372 16.9905 15.0788 17.0824 14.7734 17.0824H6.01023V7.08237L10.8579 2.27632C11.0236 2.11077 11.2154 2.01195 11.4334 1.97987C11.6513 1.94778 11.8601 1.98514 12.0598 2.09195C12.2597 2.19889 12.4061 2.35063 12.499 2.54716C12.5919 2.74369 12.6117 2.94723 12.5584 3.15778L11.6609 7.08237H17.2442ZM7.26023 7.61445V15.8324H14.7763C14.835 15.8324 14.8951 15.8163 14.9565 15.7842C15.018 15.7522 15.0648 15.6988 15.0969 15.624L17.5007 9.99903V8.58882C17.5007 8.51396 17.4766 8.45251 17.4286 8.40445C17.3805 8.3564 17.3191 8.33237 17.2442 8.33237H10.0809L11.1257 3.76508L7.26023 7.61445ZM3.59044 17.0824C3.17614 17.0824 2.82148 16.9349 2.52648 16.6399C2.23148 16.3449 2.08398 15.9902 2.08398 15.5759V8.58882C2.08398 8.17452 2.23148 7.81987 2.52648 7.52487C2.82148 7.22987 3.17614 7.08237 3.59044 7.08237H6.01023V8.33237H3.59044C3.51558 8.33237 3.45412 8.3564 3.40607 8.40445C3.35801 8.45251 3.33398 8.51396 3.33398 8.58882V15.5759C3.33398 15.6508 3.35801 15.7122 3.40607 15.7603C3.45412 15.8083 3.51558 15.8324 3.59044 15.8324H6.01023V17.0824H3.59044Z" fill="#999999"/>
</g>
</svg>
