<svg width="24" height="24" viewBox="0 0 24 24" fill="none" xmlns="http://www.w3.org/2000/svg">
<g clip-path="url(#clip0_5099_1254)">
<path d="M19.6475 19.4751H4.66113V3.18508C4.66113 2.53052 5.18098 2 5.82237 2H16.2153C17.5554 3.36765 18.307 4.13463 19.6471 5.50228V19.4751H19.6475Z" fill="#E9E2F2"/>
<path d="M19.9518 15.2487H4.66134V14.2188H2.5V16.4342V19.7251V20.4192C2.5 21.2921 3.19328 21.9996 4.04862 21.9996H19.9518C20.8072 21.9996 21.5005 21.2921 21.5005 20.4192V16.8295C21.5 15.9562 20.8067 15.2487 19.9518 15.2487Z" fill="#6E3DA8"/>
<path d="M3.58067 15.2487H4.66134V13.043H3.58067C2.98389 13.043 2.5 13.5368 2.5 14.1458C2.5 14.7549 2.98389 15.2487 3.58067 15.2487Z" fill="#320D68"/>
<path d="M13.0923 7.17339H7.70078C7.51233 7.17339 7.35938 7.0173 7.35938 6.82498C7.35938 6.63265 7.51233 6.47656 7.70078 6.47656H13.0923C13.2807 6.47656 13.4337 6.63265 13.4337 6.82498C13.4337 7.0173 13.2807 7.17339 13.0923 7.17339Z" fill="#6E3DA8"/>
<path d="M16.6784 9.35308H7.70078C7.51233 9.35308 7.35938 9.19699 7.35938 9.00467C7.35938 8.81234 7.51233 8.65625 7.70078 8.65625H16.6784C16.8669 8.65625 17.0198 8.81234 17.0198 9.00467C17.0198 9.19699 16.8669 9.35308 16.6784 9.35308Z" fill="#6E3DA8"/>
<path d="M16.6784 11.5328H7.70078C7.51233 11.5328 7.35938 11.3767 7.35938 11.1844C7.35938 10.992 7.51233 10.8359 7.70078 10.8359H16.6784C16.8669 10.8359 17.0198 10.992 17.0198 11.1844C17.0198 11.3767 16.8669 11.5328 16.6784 11.5328Z" fill="#6E3DA8"/>
<path d="M16.2162 2H15.9063V4.53136C15.9058 5.18591 16.4256 5.71644 17.067 5.71644H19.6476V5.50228C18.3075 4.13463 17.5564 3.36765 16.2162 2Z" fill="#6E3DA8"/>
<path d="M7.4211 17.3051C7.32642 17.3051 7.24721 17.2754 7.18348 17.216C7.11976 17.1565 7.08789 17.0784 7.08789 16.9818C7.08789 16.8852 7.11976 16.8081 7.18348 16.7505C7.24721 16.6929 7.32642 16.6641 7.4211 16.6641H9.84874C9.94342 16.6641 10.0226 16.6938 10.0864 16.7533C10.1501 16.8127 10.182 16.8908 10.182 16.9874C10.182 17.084 10.1501 17.1616 10.0864 17.2192C10.0226 17.2768 9.94342 17.3056 9.84874 17.3056H7.4211V17.3051ZM8.62969 20.5696C8.52772 20.5696 8.44396 20.5371 8.37795 20.472C8.3124 20.407 8.27963 20.3261 8.27963 20.2291V16.993H8.99021V20.2291C8.99021 20.3257 8.95653 20.407 8.88916 20.472C8.82178 20.5371 8.73529 20.5696 8.62969 20.5696Z" fill="white"/>
<path d="M10.751 20.599C10.6709 20.599 10.6017 20.5683 10.5435 20.507C10.4852 20.4457 10.4561 20.3779 10.4561 20.3036C10.4561 20.2218 10.4834 20.1456 10.538 20.075L11.6478 18.5406L12.0088 19.0818L11.0246 20.4434C10.9513 20.547 10.8603 20.599 10.751 20.599ZM10.8002 16.6484C10.9058 16.6484 10.995 16.6968 11.0683 16.7934L13.4741 20.0578C13.5178 20.1173 13.5396 20.186 13.5396 20.2641C13.5396 20.3681 13.5032 20.4504 13.4304 20.5093C13.3576 20.5688 13.2847 20.5985 13.2119 20.5985C13.1063 20.5985 13.0171 20.5502 12.9438 20.4536L10.5375 17.1896C10.4902 17.1302 10.4665 17.0633 10.4665 16.9885C10.4665 16.8919 10.502 16.811 10.573 16.7455C10.6445 16.681 10.7201 16.6484 10.8002 16.6484ZM13.2388 16.6596C13.3225 16.6596 13.3944 16.693 13.455 16.7599C13.5151 16.8268 13.5451 16.8974 13.5451 16.9718C13.5451 17.0424 13.5214 17.1093 13.4741 17.1729L12.3752 18.6516L12.0033 18.1327L12.9711 16.8213C13.0476 16.7135 13.1368 16.6596 13.2388 16.6596Z" fill="white"/>
<path d="M14.1516 17.3051C14.0569 17.3051 13.9777 17.2754 13.914 17.216C13.8502 17.1565 13.8184 17.0784 13.8184 16.9818C13.8184 16.8852 13.8502 16.8081 13.914 16.7505C13.9777 16.6929 14.0569 16.6641 14.1516 16.6641H16.5792C16.6739 16.6641 16.7531 16.6938 16.8168 16.7533C16.8806 16.8127 16.9124 16.8908 16.9124 16.9874C16.9124 17.084 16.8806 17.1616 16.8168 17.2192C16.7531 17.2768 16.6739 17.3056 16.5792 17.3056H14.1516V17.3051ZM15.3602 20.5696C15.2582 20.5696 15.1744 20.5371 15.1084 20.472C15.0429 20.407 15.0101 20.3261 15.0101 20.2291V16.993H15.7207V20.2291C15.7207 20.3257 15.687 20.407 15.6196 20.472C15.5523 20.5371 15.4658 20.5696 15.3602 20.5696Z" fill="white"/>
</g>
<defs>
<clipPath id="clip0_5099_1254">
<rect width="19" height="20" fill="white" transform="translate(2.5 2)"/>
</clipPath>
</defs>
</svg>
