<svg width="24" height="24" viewBox="0 0 24 24" fill="none" xmlns="http://www.w3.org/2000/svg">
<g clip-path="url(#clip0_5099_1354)">
<path d="M19.6475 19.4753H4.66113V3.17829C4.66113 2.52748 5.18098 2 5.82237 2H16.2153C17.5554 3.35982 18.307 4.1224 19.6471 5.48222V19.4753H19.6475Z" fill="#E0F0FA"/>
<path d="M19.9518 15.241H4.66134V14.2109H2.5V16.4262V19.725V20.4193C2.5 21.2913 3.19328 21.9989 4.04862 21.9989H19.9518C20.8072 21.9989 21.5005 21.2913 21.5005 20.4188V16.8211C21.5 15.9481 20.8067 15.241 19.9518 15.241Z" fill="#2D98DB"/>
<path d="M3.58067 15.2407H4.66134V13.0352H3.58067C2.98389 13.0352 2.5 13.5257 2.5 14.1312V14.1437C2.5 14.7497 2.98389 15.2407 3.58067 15.2407Z" fill="#216896"/>
<path d="M16.2162 2H15.9062V4.53118C15.9062 5.18568 16.4261 5.7164 17.0675 5.7164H19.6481V5.50208C18.3075 4.13441 17.5564 3.36767 16.2162 2Z" fill="#2D98DB"/>
<path d="M7.411 16.6662C7.50022 16.6662 7.5776 16.6962 7.64361 16.7562C7.70961 16.8163 7.74239 16.8916 7.74239 16.9826C7.74239 17.0297 7.73146 17.0791 7.71052 17.1299L6.38996 20.2833C6.3581 20.3562 6.31257 20.4098 6.2534 20.444C6.19468 20.4786 6.13504 20.4957 6.0745 20.4957C6.0176 20.492 5.96206 20.4731 5.9088 20.4384C5.85554 20.4038 5.81458 20.3539 5.7859 20.2883L4.46533 17.1244C4.45486 17.1027 4.44758 17.08 4.44394 17.056C4.4403 17.0324 4.43848 17.0098 4.43848 16.9876C4.43848 16.8823 4.4758 16.8015 4.55091 16.7447C4.62557 16.6883 4.69704 16.6602 4.76486 16.6602C4.90006 16.6602 4.99838 16.7313 5.05893 16.8731L6.22973 19.6828L6.04264 19.6883L7.11693 16.8736C7.17747 16.7354 7.27534 16.6662 7.411 16.6662Z" fill="white"/>
<path d="M8.83817 20.1661C8.83817 20.2607 8.80403 20.3397 8.73666 20.4035C8.66883 20.4672 8.59054 20.4991 8.50131 20.4991C8.40162 20.4991 8.32151 20.4672 8.26096 20.4035C8.20042 20.3397 8.16992 20.2607 8.16992 20.1661V17.0127C8.16992 16.918 8.20179 16.839 8.26597 16.7753C8.33016 16.7116 8.41209 16.6797 8.51178 16.6797C8.59736 16.6797 8.67293 16.7116 8.73893 16.7753C8.80494 16.839 8.83771 16.918 8.83771 17.0127V20.1661H8.83817Z" fill="white"/>
<path d="M11.1096 16.6801C11.3663 16.6801 11.5944 16.7291 11.7937 16.8275C11.9931 16.9259 12.1616 17.0631 12.299 17.2395C12.436 17.4159 12.5394 17.6196 12.609 17.8506C12.6787 18.0815 12.7133 18.3277 12.7133 18.5896C12.7133 18.9425 12.6509 19.2635 12.5262 19.5527C12.4014 19.8418 12.2207 20.0718 11.9836 20.2427C11.7464 20.4136 11.4551 20.4991 11.1096 20.4991H9.83179C9.73893 20.4991 9.66154 20.4672 9.59918 20.4035C9.53681 20.3397 9.50586 20.2607 9.50586 20.1661V17.0127C9.50586 16.918 9.53681 16.839 9.59918 16.7753C9.66154 16.7116 9.73893 16.6797 9.83179 16.6797H11.1096V16.6801ZM11.0563 19.8714C11.2807 19.8714 11.4642 19.8122 11.6071 19.694C11.7496 19.5758 11.8538 19.4196 11.9198 19.2247C11.9858 19.0303 12.0186 18.8183 12.0186 18.5892C12.0186 18.4183 12 18.2557 11.9626 18.1009C11.9253 17.9462 11.867 17.8099 11.7887 17.6917C11.7104 17.5735 11.6103 17.4797 11.4892 17.4109C11.3681 17.3416 11.2238 17.3074 11.0563 17.3074H10.1208L10.1741 17.2584V19.9314L10.1422 19.8714H11.0563Z" fill="white"/>
<path d="M13.5212 16.6797H15.312C15.4049 16.6797 15.4823 16.7097 15.5446 16.7698C15.607 16.8298 15.638 16.9069 15.638 17.0016C15.638 17.0926 15.6066 17.1661 15.5446 17.2224C15.4823 17.2788 15.4049 17.3069 15.312 17.3069H13.8153L13.8636 17.2141V18.2778L13.8208 18.234H15.0717C15.1641 18.234 15.2419 18.264 15.3043 18.324C15.3667 18.3841 15.3981 18.4612 15.3981 18.5559C15.3981 18.6469 15.3667 18.7203 15.3043 18.7767C15.2419 18.833 15.1646 18.8612 15.0717 18.8612H13.8367L13.8636 18.8178V19.9199L13.8208 19.8709H15.312C15.4049 19.8709 15.4823 19.9028 15.5446 19.9665C15.607 20.0303 15.638 20.1037 15.638 20.1873C15.638 20.2783 15.6066 20.3527 15.5446 20.4109C15.4823 20.4691 15.4049 20.4982 15.312 20.4982H13.5212C13.4284 20.4982 13.351 20.4663 13.2886 20.4026C13.2263 20.3388 13.1953 20.2598 13.1953 20.1651V17.0118C13.1953 16.9171 13.2263 16.8381 13.2886 16.7744C13.351 16.7116 13.4284 16.6797 13.5212 16.6797Z" fill="white"/>
<path d="M19.5615 18.5885C19.5615 18.8615 19.5169 19.116 19.4277 19.352C19.3384 19.5885 19.2128 19.7968 19.0507 19.9765C18.8887 20.1566 18.6961 20.2975 18.4735 20.3991C18.2509 20.5008 18.0074 20.552 17.7438 20.552C17.4798 20.552 17.2376 20.5012 17.0169 20.3991C16.7956 20.2975 16.6044 20.1562 16.4424 19.9765C16.2803 19.7964 16.1547 19.5885 16.0655 19.352C15.9763 19.1155 15.9316 18.861 15.9316 18.5885C15.9316 18.316 15.9763 18.061 16.0655 17.825C16.1547 17.5885 16.2803 17.3802 16.4424 17.2005C16.6044 17.0204 16.7961 16.8795 17.0169 16.7779C17.2376 16.6763 17.4803 16.625 17.7438 16.625C18.0074 16.625 18.2509 16.6758 18.4735 16.7779C18.6961 16.88 18.8887 17.0208 19.0507 17.2005C19.2128 17.3807 19.3384 17.589 19.4277 17.825C19.5169 18.061 19.5615 18.3155 19.5615 18.5885ZM18.8668 18.5885C18.8668 18.3451 18.8186 18.1238 18.7225 17.9257C18.6265 17.7275 18.4945 17.57 18.327 17.4536C18.1594 17.3372 17.9651 17.279 17.7443 17.279C17.5231 17.279 17.3291 17.3372 17.1616 17.4536C16.9941 17.57 16.863 17.7266 16.7688 17.9229C16.6741 18.1192 16.6272 18.3414 16.6272 18.5885C16.6272 18.8324 16.6745 19.0532 16.7688 19.2513C16.863 19.4495 16.9941 19.607 17.1616 19.7234C17.3291 19.8398 17.5235 19.898 17.7443 19.898C17.9651 19.898 18.1594 19.8398 18.327 19.7234C18.4945 19.607 18.6265 19.4499 18.7225 19.2513C18.8186 19.0532 18.8668 18.8324 18.8668 18.5885Z" fill="white"/>
<path d="M11.7258 4.92578C9.59992 4.92578 7.87695 6.68421 7.87695 8.85373C7.87695 11.0232 9.59992 12.7817 11.7258 12.7817C13.8516 12.7817 15.5745 11.0232 15.5745 8.85373C15.5745 6.68421 13.8516 4.92578 11.7258 4.92578ZM13.3513 8.97382L10.8795 10.4302C10.7675 10.4962 10.6756 10.4422 10.6756 10.3101V7.39691C10.6756 7.26481 10.7675 7.21077 10.8795 7.27682L13.3513 8.73317C13.4637 8.79968 13.4637 8.90777 13.3513 8.97382Z" fill="#2D98DB"/>
</g>
<defs>
<clipPath id="clip0_5099_1354">
<rect width="19" height="20" fill="white" transform="translate(2.5 2)"/>
</clipPath>
</defs>
</svg>
