<svg width="20" height="20" viewBox="0 0 20 20" fill="none" xmlns="http://www.w3.org/2000/svg">
<mask id="mask0_2906_11676" style="mask-type:alpha" maskUnits="userSpaceOnUse" x="0" y="0" width="20" height="20">
<rect width="20" height="20" fill="#D9D9D9"/>
</mask>
<g mask="url(#mask0_2906_11676)">
<path d="M15.7051 9.97918C15.7051 8.83335 15.3981 7.78766 14.7841 6.8421C14.1701 5.89641 13.3467 5.18891 12.3141 4.7196C12.1538 4.64377 12.0358 4.5305 11.9599 4.37981C11.8841 4.22925 11.8748 4.07564 11.932 3.91898C12.0008 3.75189 12.1201 3.63578 12.2899 3.57064C12.4598 3.50536 12.6318 3.51071 12.806 3.58668C14.0624 4.1571 15.068 5.01543 15.8228 6.16168C16.5776 7.3078 16.9549 8.58023 16.9549 9.97898C16.9549 11.3776 16.5776 12.6501 15.8228 13.7965C15.068 14.9429 14.0624 15.8013 12.806 16.3717C12.6318 16.4477 12.4598 16.453 12.2899 16.3877C12.1201 16.3226 12.0008 16.2065 11.932 16.0394C11.8748 15.8827 11.8841 15.7291 11.9599 15.5786C12.0358 15.4279 12.1538 15.3146 12.3141 15.2388C13.3467 14.7695 14.1701 14.062 14.7841 13.1163C15.3981 12.1707 15.7051 11.125 15.7051 9.97918ZM6.13784 12.0834H3.79805C3.58457 12.0834 3.40569 12.0111 3.26138 11.8667C3.11707 11.7224 3.04492 11.5435 3.04492 11.33V8.67002C3.04492 8.45654 3.11707 8.27766 3.26138 8.13335C3.40569 7.98891 3.58457 7.91668 3.79805 7.91668H6.13784L8.63138 5.42314C8.8311 5.22342 9.06103 5.17835 9.32117 5.28793C9.58131 5.39752 9.71138 5.59321 9.71138 5.87502V14.125C9.71138 14.4068 9.58131 14.6025 9.32117 14.7121C9.06103 14.8217 8.8311 14.7766 8.63138 14.5769L6.13784 12.0834ZM13.4614 10.0009C13.4614 10.5207 13.3535 11.0127 13.1376 11.4769C12.9219 11.9411 12.6311 12.3313 12.2651 12.6475C12.1471 12.7265 12.0231 12.7345 11.8933 12.6715C11.7635 12.6084 11.6987 12.5043 11.6987 12.359V7.59939C11.6987 7.45412 11.7635 7.34995 11.8933 7.28689C12.0231 7.22384 12.1471 7.23141 12.2651 7.3096C12.6311 7.63529 12.9219 8.0353 13.1376 8.5096C13.3535 8.98405 13.4614 9.48113 13.4614 10.0009ZM8.46138 7.37502L6.66971 9.16668H4.29471V10.8334H6.66971L8.46138 12.625V7.37502Z" fill="#999999"/>
</g>
</svg>
