<svg width="24" height="24" viewBox="0 0 24 24" fill="none" xmlns="http://www.w3.org/2000/svg">
<g clip-path="url(#clip0_5092_1033)">
<path d="M14.0949 15.2382C16.0277 15.2382 17.9593 15.2382 19.8921 15.2382C19.9403 15.2382 19.9899 15.2382 20.047 15.2382C20.047 14.9198 20.047 14.6127 20.047 14.293C18.0012 14.293 15.9566 14.293 13.9082 14.293V15.2484C13.9311 15.2446 13.9565 15.2395 13.9806 15.2382C14.0187 15.237 14.0568 15.2382 14.0949 15.2382Z" fill="#084295"/>
<path d="M20.047 17.1394C20.047 16.8247 20.047 16.5202 20.047 16.2056C20 16.203 19.953 16.1992 19.9048 16.1992C19.04 16.1992 18.1751 16.1992 17.3103 16.1992C16.2271 16.1992 15.1451 16.1992 14.0619 16.1992C14.0136 16.1992 13.9641 16.1992 13.9082 16.1992V17.2549C13.9107 17.1952 13.9133 17.1534 13.9171 17.1394C15.9553 17.1394 17.9974 17.1394 20.047 17.1394Z" fill="#084295"/>
<path d="M14.0949 11.457C16.0277 11.457 17.9593 11.457 19.8921 11.457C19.9403 11.457 19.9899 11.457 20.047 11.457C20.047 11.1385 20.047 10.8315 20.047 10.5117C18.0012 10.5117 15.9566 10.5117 13.9082 10.5117V11.4671C13.9311 11.4633 13.9565 11.4582 13.9806 11.457C14.0187 11.4557 14.0568 11.457 14.0949 11.457Z" fill="#084295"/>
<path d="M20.047 13.3581C20.047 13.0435 20.047 12.739 20.047 12.4243C20 12.4218 19.953 12.418 19.9048 12.418C19.04 12.418 18.1751 12.418 17.3103 12.418C16.2271 12.418 15.1451 12.418 14.0619 12.418C14.0136 12.418 13.9641 12.418 13.9082 12.418V13.4736C13.9107 13.414 13.9133 13.3721 13.9171 13.3581C15.9553 13.3581 17.9974 13.3581 20.047 13.3581Z" fill="#084295"/>
<path d="M14.0949 7.67181C16.0277 7.67181 17.9593 7.67181 19.8921 7.67181C19.9403 7.67181 19.9899 7.67181 20.047 7.67181C20.047 7.35335 20.047 7.0463 20.047 6.72656C18.0012 6.72656 15.9566 6.72656 13.9082 6.72656V7.68196C13.9311 7.67816 13.9565 7.67308 13.9806 7.67181C14.0187 7.67181 14.0568 7.67181 14.0949 7.67181Z" fill="#084295"/>
<path d="M20.047 9.5769C20.047 9.26223 20.047 8.95772 20.047 8.64306C20 8.64053 19.953 8.63672 19.9048 8.63672C19.04 8.63672 18.1751 8.63672 17.3103 8.63672C16.2271 8.63672 15.1451 8.63672 14.0619 8.63672C14.0136 8.63672 13.9641 8.63672 13.9082 8.63672V9.69236C13.9107 9.63272 13.9133 9.59085 13.9171 9.5769C15.9553 9.5769 17.9974 9.5769 20.047 9.5769Z" fill="#084295"/>
<path d="M21.9797 5.17325C21.9276 4.76216 21.567 4.41832 21.1542 4.3866C21.0857 4.38153 21.0171 4.38026 20.9498 4.38026C18.6538 4.38026 16.3577 4.38026 14.0604 4.38026C14.0122 4.38026 13.9639 4.38026 13.9017 4.38026C13.8992 4.21531 13.9004 4.05925 13.9004 3.90446C13.9004 3.74459 13.9004 3.58599 13.9004 3.42612C13.9004 3.27006 13.9004 3.114 13.9004 2.95794C13.9004 2.79807 13.9004 2.63947 13.9004 2.4796C13.9004 2.32354 13.9004 2.16875 13.9004 2C9.92685 2.6953 5.96597 3.38933 2 4.08336C2 9.35774 2 14.6245 2 19.9001C2.16001 19.9293 2.31494 19.9572 2.47114 19.9852C3.01848 20.0816 3.56708 20.178 4.11442 20.2732C4.68842 20.3734 5.26116 20.4724 5.83516 20.5726C6.44727 20.6792 7.05937 20.787 7.6702 20.8936C8.20865 20.9875 8.74583 21.0827 9.28427 21.1766C9.82907 21.2717 10.3726 21.3681 10.9174 21.4633C11.4558 21.5572 11.9943 21.6511 12.5327 21.745C12.9493 21.8173 13.3658 21.8896 13.7823 21.9645C13.8128 21.9695 13.8408 21.9886 13.87 22.0013C13.8827 22.0013 13.8966 22.0013 13.9093 22.0013C13.9068 21.9695 13.9017 21.9366 13.9017 21.9048C13.9017 21.1753 13.9017 20.447 13.9017 19.7174C13.9017 19.6857 13.9017 19.6527 13.9017 19.6109C13.9576 19.6083 14.0046 19.6045 14.0516 19.6045C16.3577 19.6045 18.6626 19.6045 20.9688 19.6032C21.0691 19.6032 21.172 19.6007 21.2685 19.5766C21.6228 19.4903 21.8527 19.2645 21.9606 18.9168C21.9771 18.8648 21.986 18.8115 21.9987 18.7595C21.9987 14.2489 21.9987 9.73711 21.9987 5.22654C21.9924 5.20878 21.981 5.19102 21.9797 5.17325ZM11.4965 9.81958C11.3123 10.7192 11.1257 11.6175 10.9415 12.517C10.7167 13.6107 10.4932 14.7032 10.2723 15.7981C10.2532 15.892 10.2177 15.9301 10.1173 15.9288C9.76303 15.9237 9.40999 15.9225 9.05569 15.9301C8.94901 15.9326 8.90711 15.892 8.88806 15.7969C8.78646 15.2855 8.68233 14.7742 8.58074 14.2629C8.49184 13.8201 8.40422 13.3785 8.31659 12.9357C8.20992 12.3978 8.10071 11.8598 7.99911 11.3193C7.98133 11.2241 7.97625 11.1264 7.9699 11.0287C7.89879 11.4183 7.83148 11.8078 7.75402 12.196C7.58258 13.0461 7.40479 13.8949 7.22827 14.7438C7.15461 15.1003 7.07588 15.4556 7.0073 15.8134C6.99079 15.9022 6.95016 15.9276 6.86761 15.9276C6.48155 15.925 6.09423 15.925 5.70817 15.9276C5.62944 15.9276 5.6015 15.9034 5.58499 15.8197C5.30053 14.3999 5.01098 12.9814 4.72017 11.5616C4.56016 10.7801 4.39888 9.99848 4.23887 9.2169C4.23633 9.20421 4.2376 9.19026 4.23506 9.16488C4.27697 9.16234 4.31761 9.156 4.35698 9.156C4.7062 9.15473 5.05543 9.15727 5.40466 9.15473C5.4961 9.15346 5.538 9.16869 5.55578 9.27907C5.68531 10.0987 5.82754 10.9171 5.96343 11.7367C6.07772 12.4244 6.19201 13.1121 6.29869 13.8011C6.32662 13.9838 6.32916 14.1703 6.31011 14.3504C6.44092 13.7135 6.57045 13.0766 6.70379 12.4409C6.86126 11.6872 7.02254 10.9348 7.18128 10.1812C7.24605 9.87414 7.31589 9.56836 7.37431 9.26004C7.38955 9.1763 7.42384 9.15473 7.50257 9.15473C7.86069 9.15727 8.22008 9.15854 8.5782 9.15346C8.66455 9.15219 8.69249 9.19406 8.70519 9.26511C8.8652 10.1177 9.02394 10.9704 9.18522 11.8217C9.28046 12.3242 9.38333 12.8266 9.47603 13.3303C9.53445 13.6475 9.57762 13.9673 9.61699 14.2159C9.65509 13.9546 9.70081 13.6183 9.75414 13.2834C9.85193 12.668 9.95479 12.0539 10.0538 11.4398C10.1415 10.8981 10.2266 10.355 10.3116 9.81196C10.3408 9.62545 10.365 9.4364 10.4018 9.25116C10.4094 9.21436 10.4628 9.16107 10.4958 9.1598C10.8666 9.15346 11.2387 9.156 11.626 9.156C11.579 9.38819 11.5409 9.60388 11.4965 9.81958ZM21.0438 18.6567C18.669 18.6567 16.293 18.6567 13.9169 18.6567C13.8992 18.592 13.8928 17.2737 13.9068 16.8639V15.8083C13.9068 15.4847 13.9068 15.1739 13.9068 14.8567V13.9013C13.9068 13.8518 13.9068 13.8023 13.9068 13.7528C13.9068 13.4889 13.9068 13.225 13.9068 12.9624H13.8992V6.79604C13.8992 6.60826 13.8992 6.41667 13.8992 6.23523C13.9004 5.76197 13.9055 5.36611 13.9131 5.32678C16.2879 5.32678 18.6639 5.32678 21.0399 5.32678C21.0628 5.40417 21.0666 18.5552 21.0438 18.6567Z" fill="#084295"/>
</g>
<defs>
<clipPath id="clip0_5092_1033">
<rect width="20" height="20" fill="white" transform="translate(2 2)"/>
</clipPath>
</defs>
</svg>
