<svg width="24" height="24" viewBox="0 0 24 24" fill="none" xmlns="http://www.w3.org/2000/svg">
<g clip-path="url(#clip0_5099_1310)">
<path d="M19.6475 19.4751H4.66113V3.18508C4.66113 2.53052 5.18098 2 5.82237 2H16.2153C17.5554 3.36765 18.307 4.13463 19.6471 5.50228V19.4751H19.6475Z" fill="#FEEBD9"/>
<path d="M19.9518 15.2487H4.66134V14.2188H2.5V16.4342V19.7251V20.4192C2.5 21.2921 3.19328 21.9996 4.04862 21.9996H19.9518C20.8072 21.9996 21.5005 21.2921 21.5005 20.4192V16.8295C21.5 15.9562 20.8067 15.2487 19.9518 15.2487Z" fill="#F77B01"/>
<path d="M3.58067 15.2487H4.66134V13.043H3.58067C2.98389 13.043 2.5 13.5368 2.5 14.1458C2.5 14.7549 2.98389 15.2487 3.58067 15.2487Z" fill="#9B4600"/>
<path d="M16.2162 2H15.9063V4.53136C15.9058 5.18591 16.4256 5.71644 17.067 5.71644H19.6476V5.50228C18.3075 4.13463 17.5564 3.36765 16.2162 2Z" fill="#F77B01"/>
<path d="M10.9633 16.6489C11.0443 16.6489 11.1244 16.6791 11.2036 16.739C11.2829 16.7994 11.3225 16.8803 11.3225 16.9815C11.3225 17.0531 11.2965 17.1246 11.2451 17.1961L9.12698 19.9728L9.06052 19.95H10.9078C11.0034 19.95 11.0839 19.9793 11.1481 20.0374C11.2128 20.0959 11.2451 20.1739 11.2451 20.2715C11.2451 20.3658 11.2128 20.4438 11.1481 20.5056C11.0835 20.5679 11.0034 20.599 10.9078 20.599H8.48013C8.38408 20.599 8.30123 20.5642 8.23113 20.4945C8.16103 20.4248 8.12598 20.3486 8.12598 20.2659C8.12598 20.1944 8.15192 20.1228 8.20336 20.0513L10.3269 17.2635L10.3765 17.2974H8.70091C8.60486 17.2974 8.52474 17.2672 8.46056 17.2068C8.39592 17.1469 8.3636 17.0679 8.3636 16.9699C8.3636 16.8719 8.39592 16.7938 8.46056 16.7358C8.5252 16.6772 8.60531 16.6484 8.70091 16.6484H10.9633V16.6489Z" fill="white"/>
<path d="M12.4839 20.2543C12.4839 20.3523 12.4489 20.4341 12.3788 20.4996C12.3087 20.5656 12.2276 20.5985 12.1352 20.5985C12.0319 20.5985 11.949 20.5656 11.8862 20.4996C11.8234 20.4336 11.792 20.3519 11.792 20.2543V16.9922C11.792 16.8942 11.8252 16.8124 11.8917 16.7469C11.9581 16.681 12.0428 16.6484 12.1461 16.6484C12.2345 16.6484 12.3128 16.6814 12.381 16.7469C12.4493 16.8129 12.4835 16.8947 12.4835 16.9922V20.2543H12.4839Z" fill="white"/>
<path d="M14.7731 16.6484C14.9648 16.6484 15.1446 16.7046 15.3125 16.8175C15.4801 16.9304 15.6157 17.0828 15.719 17.2747C15.8224 17.4665 15.8738 17.6811 15.8738 17.9181C15.8738 18.1513 15.8224 18.364 15.719 18.5559C15.6157 18.7478 15.4805 18.9011 15.3125 19.0158C15.1446 19.1306 14.9648 19.1882 14.7731 19.1882H13.7557L13.8113 19.0864V20.2548C13.8113 20.3528 13.7817 20.4346 13.7229 20.5001C13.6638 20.566 13.5864 20.599 13.4908 20.599C13.3984 20.599 13.3228 20.566 13.2641 20.5001C13.2049 20.4341 13.1758 20.3523 13.1758 20.2548V16.9927C13.1758 16.8947 13.2081 16.8129 13.2727 16.7474C13.3374 16.6814 13.4175 16.6489 13.5131 16.6489H14.7731V16.6484ZM14.7731 18.5447C14.8432 18.5447 14.9115 18.5146 14.9775 18.4546C15.044 18.3947 15.099 18.3162 15.1437 18.2205C15.1878 18.1243 15.2101 18.024 15.2101 17.9185C15.2101 17.8094 15.1878 17.7076 15.1437 17.6138C15.0995 17.5199 15.044 17.4438 14.9775 17.3852C14.911 17.3267 14.8428 17.2979 14.7731 17.2979H13.7443L13.8108 17.1961V18.6353L13.7498 18.5452H14.7731V18.5447Z" fill="white"/>
<path d="M8.04828 3.82422H6.14551V4.73614H8.04828V3.82422Z" fill="#F77B01"/>
<path d="M9.95063 4.73438H8.04785V5.6463H9.95063V4.73438Z" fill="#F77B01"/>
<path d="M8.04828 2H6.14551V2.91192H8.04828V2Z" fill="#F77B01"/>
<path d="M9.95063 2.91016H8.04785V3.82208H9.95063V2.91016Z" fill="#F77B01"/>
<path d="M8.04828 5.64844H6.14551V6.56036H8.04828V5.64844Z" fill="#F77B01"/>
<path d="M9.95063 6.55859H8.04785V7.47051H9.95063V6.55859Z" fill="#F77B01"/>
<path d="M8.05689 7.47266C7.29396 7.47266 6.67578 8.10352 6.67578 8.88211V11.125C6.67578 11.9036 7.29396 12.5344 8.05689 12.5344C8.81982 12.5344 9.43799 11.9036 9.43799 11.125V8.88211C9.43799 8.10352 8.81982 7.47266 8.05689 7.47266ZM8.51574 11.7391H7.59804V9.7276H8.51574V11.7391Z" fill="#F77B01"/>
</g>
<defs>
<clipPath id="clip0_5099_1310">
<rect width="19" height="20" fill="white" transform="translate(2.5 2)"/>
</clipPath>
</defs>
</svg>
