<svg width="36" height="36" viewBox="0 0 36 36" fill="none" xmlns="http://www.w3.org/2000/svg">
<mask id="mask0_3227_33814" style="mask-type:alpha" maskUnits="userSpaceOnUse" x="0" y="0" width="36" height="36">
<rect width="36" height="36" fill="#D9D9D9"/>
</mask>
<g mask="url(#mask0_3227_33814)">
<path d="M16.875 16.7048V22.4134C16.875 22.7321 16.9829 22.9994 17.1986 23.2151C17.4144 23.4306 17.6816 23.5384 18.0004 23.5384C18.3194 23.5384 18.589 23.4292 18.8092 23.211C19.0293 22.9925 19.1393 22.7219 19.1393 22.3991V16.7048L21.1384 18.7039C21.3461 18.9116 21.6073 19.013 21.9218 19.008C22.236 19.0033 22.497 18.897 22.7048 18.6893C22.9125 18.4818 23.0164 18.22 23.0164 17.904C23.0164 17.588 22.9125 17.3277 22.7048 17.1232L18.9634 13.3961C18.6924 13.1251 18.376 12.9896 18.0143 12.9896C17.6528 12.9896 17.3365 13.1251 17.0655 13.3961L13.3241 17.1375C13.1164 17.3453 13.0125 17.6039 13.0125 17.9134C13.0125 18.2231 13.1164 18.4818 13.3241 18.6893C13.5319 18.897 13.7938 19.0009 14.1098 19.0009C14.4258 19.0009 14.686 18.897 14.8905 18.6893L16.875 16.7048ZM18.0026 32.25C16.0316 32.25 14.179 31.876 12.4447 31.128C10.7105 30.38 9.202 29.3649 7.91925 28.0826C6.6365 26.8004 5.62087 25.2925 4.87237 23.559C4.12412 21.8255 3.75 19.9734 3.75 18.0026C3.75 16.0316 4.124 14.179 4.872 12.4447C5.62 10.7105 6.63513 9.202 7.91738 7.91925C9.19963 6.6365 10.7075 5.62087 12.441 4.87237C14.1745 4.12412 16.0266 3.75 17.9974 3.75C19.9684 3.75 21.821 4.124 23.5553 4.872C25.2895 5.62 26.798 6.63513 28.0808 7.91738C29.3635 9.19963 30.3791 10.7075 31.1276 12.441C31.8759 14.1745 32.25 16.0266 32.25 17.9974C32.25 19.9684 31.876 21.821 31.128 23.5553C30.38 25.2895 29.3649 26.798 28.0826 28.0808C26.8004 29.3635 25.2925 30.3791 23.559 31.1276C21.8255 31.8759 19.9734 32.25 18.0026 32.25Z" fill="#E7E7E7"/>
</g>
</svg>
