<svg width="16" height="16" viewBox="0 0 16 16" fill="none" xmlns="http://www.w3.org/2000/svg">
<path d="M13.3265 7.73568C13.2611 6.41742 12.7089 5.16623 11.7712 4.22852C10.771 3.22832 9.41416 2.66667 7.99967 2.66667C6.58519 2.66667 5.22838 3.22832 4.22819 4.22852C3.228 5.22871 2.66634 6.58551 2.66634 8L2.67285 8.26237C2.70293 8.87312 2.83809 9.47487 3.07259 10.041C3.34062 10.688 3.73298 11.2763 4.22819 11.7715C4.7234 12.2667 5.31164 12.6591 5.95866 12.9271C6.60573 13.1951 7.29929 13.3333 7.99967 13.3333L8.26204 13.3268C8.87279 13.2967 9.47454 13.1616 10.0407 12.9271C10.6877 12.6591 11.2759 12.2667 11.7712 11.7715C12.2664 11.2763 12.6587 10.688 12.9268 10.041C13.1948 9.39395 13.333 8.70038 13.333 8L13.3265 7.73568ZM7.33301 4.66667C7.33301 4.29848 7.63148 4 7.99967 4C8.36786 4 8.66634 4.29848 8.66634 4.66667V7.72396L10.471 9.52865L10.5166 9.57943C10.7302 9.84128 10.7151 10.2273 10.471 10.4714C10.227 10.7154 9.84095 10.7305 9.5791 10.5169L9.52832 10.4714L7.52832 8.47135C7.4033 8.34633 7.33301 8.17681 7.33301 8V4.66667ZM14.6585 8.32812C14.6209 9.09151 14.4523 9.84379 14.1592 10.5514C13.8241 11.3602 13.3329 12.0952 12.7139 12.7142C12.0948 13.3332 11.3599 13.8245 10.5511 14.1595C9.84347 14.4526 9.09119 14.6212 8.3278 14.6589L7.99967 14.6667C7.1242 14.6667 6.25708 14.4945 5.44824 14.1595C4.63943 13.8245 3.90452 13.3332 3.28548 12.7142C2.66644 12.0952 2.1752 11.3602 1.84017 10.5514C1.54706 9.84379 1.37844 9.09151 1.34082 8.32812L1.33301 8C1.33301 6.23189 2.03524 4.53605 3.28548 3.28581C4.53572 2.03556 6.23156 1.33333 7.99967 1.33333C9.76779 1.33333 11.4636 2.03556 12.7139 3.28581C13.9641 4.53605 14.6663 6.23189 14.6663 8L14.6585 8.32812Z" fill="#5F5F5F"/>
</svg>
