<svg width="24" height="24" viewBox="0 0 24 24" fill="none" xmlns="http://www.w3.org/2000/svg">
<path d="M11 17.5C11 17.1022 11.1581 16.7208 11.4395 16.4395C11.7208 16.1581 12.1022 16 12.5 16C12.8978 16 13.2792 16.1581 13.5605 16.4395C13.8419 16.7208 14 17.1022 14 17.5C14 17.8978 13.8419 18.2792 13.5605 18.5605C13.2792 18.8419 12.8978 19 12.5 19C12.1022 19 11.7208 18.8419 11.4395 18.5605C11.1581 18.2792 11 17.8978 11 17.5ZM11 12C11 11.6022 11.1581 11.2208 11.4395 10.9395C11.7208 10.6581 12.1022 10.5 12.5 10.5C12.8978 10.5 13.2792 10.6581 13.5605 10.9395C13.8419 11.2208 14 11.6022 14 12C14 12.3978 13.8419 12.7792 13.5605 13.0605C13.2792 13.3419 12.8978 13.5 12.5 13.5C12.1022 13.5 11.7208 13.3419 11.4395 13.0605C11.1581 12.7792 11 12.3978 11 12ZM11 6.5C11 6.10217 11.1581 5.72076 11.4395 5.43945C11.7208 5.15815 12.1022 5 12.5 5L12.6479 5.00732C12.9914 5.04136 13.3143 5.19324 13.5605 5.43945C13.8419 5.72076 14 6.10217 14 6.5C14 6.89783 13.8419 7.27924 13.5605 7.56055C13.2792 7.84185 12.8978 8 12.5 8C12.1022 8 11.7208 7.84185 11.4395 7.56055C11.1581 7.27924 11 6.89783 11 6.5Z" fill="#777777"/>
</svg>
