<svg width="24" height="24" viewBox="0 0 24 24" fill="none" xmlns="http://www.w3.org/2000/svg">
<path d="M18 20C18 19.7348 17.8946 19.4805 17.707 19.293C17.5195 19.1054 17.2652 19 17 19C16.4477 19 16 18.5523 16 18C16 17.4477 16.4477 17 17 17C17.2652 17 17.5195 16.8946 17.707 16.707C17.8946 16.5195 18 16.2652 18 16C18 15.4477 18.4477 15 19 15C19.5523 15 20 15.4477 20 16C20 16.2652 20.1054 16.5195 20.293 16.707C20.4805 16.8946 20.7348 17 21 17C21.5523 17 22 17.4477 22 18C22 18.5523 21.5523 19 21 19C20.7348 19 20.4805 19.1054 20.293 19.293C20.1054 19.4805 20 19.7348 20 20C20 20.5523 19.5523 21 19 21C18.4477 21 18 20.5523 18 20ZM9 18C9 16.6739 8.47284 15.4025 7.53516 14.4648C6.59747 13.5272 5.32608 13 4 13C3.44772 13 3 12.5523 3 12C3 11.4477 3.44772 11 4 11C5.32608 11 6.59747 10.4728 7.53516 9.53516C8.47284 8.59747 9 7.32608 9 6C9 5.44772 9.44772 5 10 5C10.5523 5 11 5.44772 11 6C11 7.32608 11.5272 8.59747 12.4648 9.53516C13.4025 10.4728 14.6739 11 16 11C16.5523 11 17 11.4477 17 12C17 12.5523 16.5523 13 16 13C14.6739 13 13.4025 13.5272 12.4648 14.4648C11.5272 15.4025 11 16.6739 11 18C11 18.5523 10.5523 19 10 19C9.44772 19 9 18.5523 9 18ZM10 9.60449C9.70833 10.09 9.35741 10.543 8.9502 10.9502C8.54298 11.3574 8.09002 11.7083 7.60449 12C8.09002 12.2917 8.54298 12.6426 8.9502 13.0498C9.35721 13.4568 9.70842 13.9093 10 14.3945C10.2916 13.9093 10.6428 13.4568 11.0498 13.0498C11.4568 12.6428 11.9093 12.2916 12.3945 12C11.9093 11.7084 11.4568 11.3572 11.0498 10.9502C10.6426 10.543 10.2917 10.09 10 9.60449ZM18 8C18 7.73478 17.8946 7.48051 17.707 7.29297C17.5429 7.12883 17.3276 7.02757 17.0986 7.00488L17 7L16.8975 6.99512C16.3933 6.94379 16 6.51768 16 6C16 5.44772 16.4477 5 17 5L17.0986 4.99512C17.3276 4.97243 17.5429 4.87117 17.707 4.70703C17.8946 4.51949 18 4.26522 18 4C18 3.44772 18.4477 3 19 3C19.5523 3 20 3.44772 20 4C20 4.26522 20.1054 4.51949 20.293 4.70703C20.4805 4.89457 20.7348 5 21 5C21.5523 5 22 5.44772 22 6C22 6.55228 21.5523 7 21 7C20.7348 7 20.4805 7.10543 20.293 7.29297C20.1054 7.48051 20 7.73478 20 8C20 8.55228 19.5523 9 19 9C18.4477 9 18 8.55228 18 8Z" fill="#777777"/>
</svg>
