<svg width="16" height="16" viewBox="0 0 16 16" fill="none" xmlns="http://www.w3.org/2000/svg">
<path fill-rule="evenodd" clip-rule="evenodd" d="M7.99967 3.33333C6.89511 3.33333 5.99967 4.22876 5.99967 5.33333C5.99967 6.4379 6.89511 7.33333 7.99967 7.33333C9.10424 7.33333 9.99967 6.4379 9.99967 5.33333C9.99967 4.22876 9.10424 3.33333 7.99967 3.33333ZM4.66634 5.33333C4.66634 3.49238 6.15873 2 7.99967 2C9.84062 2 11.333 3.49238 11.333 5.33333C11.333 7.17428 9.84062 8.66667 7.99967 8.66667C6.15873 8.66667 4.66634 7.17428 4.66634 5.33333ZM4.80145 10.2263C5.64915 9.66121 6.78185 9.33333 7.99967 9.33333C9.2175 9.33333 10.3502 9.66121 11.1979 10.2263C12.0409 10.7884 12.6663 11.638 12.6663 12.6667C12.6663 13.0349 12.3679 13.3333 11.9997 13.3333C11.6315 13.3333 11.333 13.0349 11.333 12.6667C11.333 12.2225 11.063 11.7389 10.4583 11.3357C9.85829 10.9357 8.99099 10.6667 7.99967 10.6667C7.00836 10.6667 6.14106 10.9357 5.54105 11.3357C4.93638 11.7389 4.66634 12.2225 4.66634 12.6667C4.66634 13.0349 4.36786 13.3333 3.99967 13.3333C3.63148 13.3333 3.33301 13.0349 3.33301 12.6667C3.33301 11.638 3.9584 10.7884 4.80145 10.2263Z" fill="#5F5F5F"/>
</svg>
