<svg width="24" height="24" viewBox="0 0 24 24" fill="none" xmlns="http://www.w3.org/2000/svg">
<path fill-rule="evenodd" clip-rule="evenodd" d="M7.814 4.25113C8.61273 3.92028 9.4688 3.75 10.3333 3.75C11.1979 3.75 12.0539 3.92028 12.8527 4.25113C13.6514 4.58197 14.3771 5.06689 14.9885 5.67821C15.5998 6.28953 16.0847 7.01527 16.4155 7.814C16.7464 8.61273 16.9167 9.4688 16.9167 10.3333C16.9167 11.1979 16.7464 12.0539 16.4155 12.8527C16.1808 13.4194 15.8685 13.9494 15.4885 14.4278L20.0303 18.9697C20.3232 19.2626 20.3232 19.7374 20.0303 20.0303C19.7374 20.3232 19.2626 20.3232 18.9697 20.0303L14.4278 15.4885C13.9494 15.8685 13.4194 16.1808 12.8527 16.4155C12.0539 16.7464 11.1979 16.9167 10.3333 16.9167C9.4688 16.9167 8.61273 16.7464 7.814 16.4155C7.01527 16.0847 6.28953 15.5998 5.67821 14.9885C5.06689 14.3771 4.58197 13.6514 4.25113 12.8527C3.92028 12.0539 3.75 11.1979 3.75 10.3333C3.75 9.4688 3.92028 8.61273 4.25113 7.814C4.58197 7.01527 5.06689 6.28953 5.67821 5.67821C6.28953 5.06689 7.01527 4.58197 7.814 4.25113ZM10.3333 5.25C9.66578 5.25 9.00476 5.38148 8.38803 5.63695C7.77129 5.89241 7.2109 6.26684 6.73887 6.73887C6.26684 7.2109 5.89241 7.77129 5.63695 8.38803C5.38148 9.00476 5.25 9.66578 5.25 10.3333C5.25 11.0009 5.38148 11.6619 5.63695 12.2786C5.89241 12.8954 6.26684 13.4558 6.73887 13.9278C7.21091 14.3998 7.77129 14.7743 8.38803 15.0297C9.00476 15.2852 9.66578 15.4167 10.3333 15.4167C11.0009 15.4167 11.6619 15.2852 12.2786 15.0297C12.8954 14.7743 13.4558 14.3998 13.9278 13.9278C14.3998 13.4558 14.7743 12.8954 15.0297 12.2786C15.2852 11.6619 15.4167 11.0009 15.4167 10.3333C15.4167 9.66578 15.2852 9.00476 15.0297 8.38803C14.7743 7.77129 14.3998 7.21091 13.9278 6.73887C13.4558 6.26684 12.8954 5.89241 12.2786 5.63695C11.6619 5.38148 11.0009 5.25 10.3333 5.25Z" fill="#121212"/>
</svg>
