<svg width="37" height="36" viewBox="0 0 37 36" fill="none" xmlns="http://www.w3.org/2000/svg">
<mask id="mask0_2911_499369" style="mask-type:alpha" maskUnits="userSpaceOnUse" x="0" y="0" width="37" height="36">
<rect x="0.5" width="36" height="36" fill="#D9D9D9"/>
</mask>
<g mask="url(#mask0_2911_499369)">
<path d="M17.375 16.7048V22.4134C17.375 22.7321 17.4829 22.9994 17.6986 23.2151C17.9144 23.4306 18.1816 23.5384 18.5004 23.5384C18.8194 23.5384 19.089 23.4292 19.3092 23.211C19.5293 22.9925 19.6393 22.7219 19.6393 22.3991V16.7048L21.6384 18.7039C21.8461 18.9116 22.1073 19.013 22.4218 19.008C22.736 19.0033 22.997 18.897 23.2048 18.6893C23.4125 18.4818 23.5164 18.22 23.5164 17.904C23.5164 17.588 23.4125 17.3277 23.2048 17.1232L19.4634 13.3961C19.1924 13.1251 18.876 12.9896 18.5143 12.9896C18.1528 12.9896 17.8365 13.1251 17.5655 13.3961L13.8241 17.1375C13.6164 17.3453 13.5125 17.6039 13.5125 17.9134C13.5125 18.2231 13.6164 18.4818 13.8241 18.6893C14.0319 18.897 14.2938 19.0009 14.6098 19.0009C14.9258 19.0009 15.186 18.897 15.3905 18.6893L17.375 16.7048ZM18.5026 32.25C16.5316 32.25 14.679 31.876 12.9447 31.128C11.2105 30.38 9.702 29.3649 8.41925 28.0826C7.1365 26.8004 6.12087 25.2925 5.37237 23.559C4.62412 21.8255 4.25 19.9734 4.25 18.0026C4.25 16.0316 4.624 14.179 5.372 12.4447C6.12 10.7105 7.13513 9.202 8.41738 7.91925C9.69963 6.6365 11.2075 5.62087 12.941 4.87237C14.6745 4.12412 16.5266 3.75 18.4974 3.75C20.4684 3.75 22.321 4.124 24.0553 4.872C25.7895 5.62 27.298 6.63513 28.5808 7.91738C29.8635 9.19963 30.8791 10.7075 31.6276 12.441C32.3759 14.1745 32.75 16.0266 32.75 17.9974C32.75 19.9684 32.376 21.821 31.628 23.5553C30.88 25.2895 29.8649 26.798 28.5826 28.0808C27.3004 29.3635 25.7925 30.3791 24.059 31.1276C22.3255 31.8759 20.4734 32.25 18.5026 32.25Z" fill="#ADADAD"/>
</g>
</svg>
