<svg width="32" height="32" viewBox="0 0 32 32" fill="none" xmlns="http://www.w3.org/2000/svg">
<path d="M21.2929 9.29295C21.6834 8.90243 22.3164 8.90243 22.707 9.29295C23.0975 9.68348 23.0975 10.3165 22.707 10.707L17.414 16L22.707 21.293L22.7753 21.3691C23.0957 21.7619 23.0731 22.3409 22.707 22.707C22.3408 23.0731 21.7618 23.0957 21.3691 22.7754L21.2929 22.707L15.9999 17.414L10.707 22.707C10.3164 23.0975 9.68342 23.0975 9.29289 22.707C8.90237 22.3165 8.90237 21.6835 9.29289 21.293L14.5859 16L9.29289 10.707L9.22453 10.6308C8.90418 10.2381 8.92678 9.65907 9.29289 9.29295C9.65901 8.92684 10.238 8.90424 10.6308 9.22459L10.707 9.29295L15.9999 14.5859L21.2929 9.29295Z" fill="#303030"/>
</svg>
