<svg width="72" height="73" viewBox="0 0 72 73" fill="none" xmlns="http://www.w3.org/2000/svg">
<path opacity="0.8" d="M42.5633 38.9826C42.5633 38.982 42.5633 38.9813 42.5633 38.9805C42.5625 38.9809 42.5614 38.9811 42.5605 38.9815C42.5616 38.982 42.5625 38.9822 42.5633 38.9826Z" fill="white"/>
<path opacity="0.8" d="M29.4375 38.9826C29.4386 38.9822 29.4396 38.982 29.4405 38.9815C29.4394 38.9811 29.4386 38.9807 29.4375 38.9805C29.4375 38.9811 29.4375 38.982 29.4375 38.9826Z" fill="white"/>
<path d="M26.1582 64.1794C26.1582 62.7701 26.707 61.4453 27.7036 60.4488C28.7001 59.4522 30.025 58.9034 31.4343 58.9034C31.8485 58.9034 32.1844 59.2392 32.1844 59.6535C32.1844 60.0677 31.8485 60.4035 31.4343 60.4035C29.3523 60.4035 27.6586 62.0974 27.6586 64.1792C27.6586 66.2612 29.3525 67.9549 31.4343 67.9549C33.5161 67.9549 35.21 66.261 35.21 64.1792V12.5391C35.21 12.1249 35.5458 11.7891 35.9601 11.7891C36.3743 11.7891 36.7101 12.1249 36.7101 12.5391V64.1794C36.7101 65.5887 36.1613 66.9136 35.1648 67.9101C34.1682 68.9067 32.8434 69.4555 31.4341 69.4555C30.0248 69.4555 28.6999 68.9067 27.7034 67.9101C26.7068 66.9136 26.1582 65.5885 26.1582 64.1794Z" fill="url(#paint0_linear_4974_3664)"/>
<path d="M29.4373 40.4793C29.4375 26.7523 32.3759 15.625 36.0005 15.625C25.1292 15.625 16.3164 26.7536 16.3164 40.4816H16.317C17.9786 39.841 20.3051 39.4429 22.8803 39.4429C25.4522 39.4426 27.7761 39.8398 29.4373 40.4793Z" fill="url(#paint1_linear_4974_3664)"/>
<path d="M36 15.625C39.6246 15.625 42.5628 26.7526 42.5632 40.4795C44.2245 39.84 46.5485 39.4426 49.1208 39.4426C51.696 39.4426 54.0223 39.8408 55.6841 40.4814H55.6843C55.6841 26.7536 46.8712 15.625 36 15.625Z" fill="url(#paint2_linear_4974_3664)"/>
<path opacity="0.8" d="M29.4375 40.4793C29.4386 40.4797 29.4394 40.4801 29.4405 40.4803C31.1018 39.8404 33.4271 39.4426 36.0007 39.4426C38.5746 39.4426 40.8996 39.8404 42.5611 40.4805C42.562 40.4801 42.5631 40.4799 42.5639 40.4795C42.5637 26.7526 39.6253 15.625 36.0007 15.625C32.3761 15.6248 29.4379 26.7523 29.4375 40.4793Z" fill="#FDDE4C"/>
<path opacity="0.8" d="M5 40.4795C6.55931 40.0324 8.51531 39.7665 10.6389 39.7665C12.7661 39.7665 14.7249 40.0333 16.2855 40.4816H16.3157C16.3157 26.7536 25.1285 15.625 35.9998 15.625C22.2013 15.625 7.27275 26.5164 5 40.4795Z" fill="#FCD61F"/>
<path opacity="0.8" d="M66.9914 40.4816H67.0002C64.7285 26.5175 49.7994 15.625 36 15.625C46.8702 15.625 55.6826 26.7517 55.6841 40.478C57.2462 40.0318 59.2049 39.7665 61.3315 39.7665C63.4637 39.7665 65.4272 40.0333 66.9914 40.4816Z" fill="#FCD61F"/>
<path d="M58 17.7812C58 20.1111 56.2092 22 54 22C51.7908 22 50 20.1111 50 17.7812C50 16.0762 52.1421 12.309 53.2912 10.411C53.6229 9.863 54.3771 9.863 54.7088 10.411C55.8579 12.309 58 16.0762 58 17.7812Z" fill="#70A5F1"/>
<path d="M23 9.62493C23 11.5666 21.433 13.1406 19.5 13.1406C17.567 13.1406 16 11.5666 16 9.62493C16 8.20408 17.8743 5.06478 18.8798 3.48312C19.1701 3.02646 19.8299 3.02646 20.1202 3.48312C21.1257 5.06478 23 8.20408 23 9.62493Z" fill="#70A5F1"/>
<path d="M21 48.8906C21 50.0556 20.1046 51 19 51C17.8954 51 17 50.0556 17 48.8906C17 48.0381 18.071 46.1545 18.6456 45.2055C18.8115 44.9315 19.1885 44.9315 19.3544 45.2055C19.929 46.1545 21 48.0381 21 48.8906Z" fill="#70A5F1"/>
<path d="M55 50.1874C55 51.7408 53.6569 53 52 53C50.3431 53 49 51.7408 49 50.1874C49 49.0508 50.6066 46.5393 51.4684 45.274C51.7172 44.9087 52.2828 44.9087 52.5316 45.274C53.3934 46.5393 55 49.0508 55 50.1874Z" fill="#70A5F1"/>
<defs>
<linearGradient id="paint0_linear_4974_3664" x1="31.4342" y1="69.4553" x2="31.4342" y2="11.789" gradientUnits="userSpaceOnUse">
<stop stop-color="#5393ED"/>
<stop offset="1" stop-color="#9FC4F9"/>
</linearGradient>
<linearGradient id="paint1_linear_4974_3664" x1="-23.0518" y1="28.0531" x2="95.0527" y2="28.0531" gradientUnits="userSpaceOnUse">
<stop stop-color="#F5D01F"/>
<stop offset="1" stop-color="#F9D93C"/>
</linearGradient>
<linearGradient id="paint2_linear_4974_3664" x1="-23.0523" y1="28.0533" x2="95.0522" y2="28.0533" gradientUnits="userSpaceOnUse">
<stop stop-color="#F5D01F"/>
<stop offset="1" stop-color="#F9D93C"/>
</linearGradient>
</defs>
</svg>
