<svg width="72" height="73" viewBox="0 0 72 73" fill="none" xmlns="http://www.w3.org/2000/svg">
<g clip-path="url(#clip0_4972_3554)">
<path d="M11.9238 48.3356C13.6783 15.5333 59.122 17.2545 60.0823 48.3356C58.3278 81.138 12.8842 79.4168 11.9238 48.3356Z" fill="#F5F5F5"/>
<path d="M19.8652 16.3535C21.0416 -5.62857 51.4932 -4.47434 52.1377 16.3535C50.9613 38.3338 20.5098 37.1814 19.8652 16.3535Z" fill="#F5F5F5"/>
<path d="M30.1912 15.3902C30.9613 15.3902 31.5855 14.7659 31.5855 13.9959C31.5855 13.2258 30.9613 12.6016 30.1912 12.6016C29.4211 12.6016 28.7969 13.2258 28.7969 13.9959C28.7969 14.7659 29.4211 15.3902 30.1912 15.3902Z" fill="#3A4E70"/>
<path d="M41.8748 15.3902C42.6448 15.3902 43.2691 14.7659 43.2691 13.9959C43.2691 13.2258 42.6448 12.6016 41.8748 12.6016C41.1047 12.6016 40.4805 13.2258 40.4805 13.9959C40.4805 14.7659 41.1047 15.3902 41.8748 15.3902Z" fill="#3A4E70"/>
<path d="M36.0013 44.6042C36.9254 44.6042 37.6745 43.8551 37.6745 42.931C37.6745 42.0069 36.9254 41.2578 36.0013 41.2578C35.0772 41.2578 34.3281 42.0069 34.3281 42.931C34.3281 43.8551 35.0772 44.6042 36.0013 44.6042Z" fill="#FFA4AF"/>
<path d="M37.6357 53.2043C37.827 52.3003 37.2492 51.4123 36.3452 51.2211C35.4412 51.0298 34.5533 51.6076 34.362 52.5116C34.1707 53.4156 34.7485 54.3035 35.6525 54.4948C36.5565 54.6861 37.4444 54.1083 37.6357 53.2043Z" fill="#FFA4AF"/>
<path d="M36.001 24.6126C33.2825 24.6126 30.8891 23.3014 29.9011 21.27C29.7219 20.9024 29.8752 20.4611 30.2427 20.2819C30.6084 20.1028 31.0516 20.2561 31.2308 20.6236C31.9602 22.125 33.8772 23.1333 36.001 23.1333C38.1248 23.1333 40.0417 22.125 40.7712 20.6236C40.9485 20.2561 41.3917 20.1028 41.7592 20.2819C42.1267 20.4611 42.28 20.9024 42.1009 21.27C41.1147 23.3014 38.7213 24.6126 36.001 24.6126Z" fill="#3A4E70"/>
<path d="M18.2776 37.9203C18.0948 37.9203 17.9138 37.8538 17.7697 37.719L8.18496 28.6698C7.88763 28.3891 7.8747 27.9218 8.15541 27.6264C8.43427 27.329 8.90335 27.3161 9.19884 27.5968L18.7836 36.646C19.081 36.9267 19.0939 37.3939 18.8132 37.6894C18.6691 37.8427 18.4734 37.9203 18.2776 37.9203Z" fill="#3A4E70"/>
<path d="M53.7273 37.9235C53.5316 37.9235 53.3358 37.8459 53.1899 37.6927C52.9092 37.3953 52.924 36.9281 53.2194 36.6492L62.8042 27.6001C63.1016 27.3193 63.5688 27.3341 63.8477 27.6296C64.1284 27.9269 64.1136 28.3942 63.8181 28.673L54.2333 37.7222C54.0911 37.857 53.9083 37.9235 53.7273 37.9235Z" fill="#3A4E70"/>
</g>
<defs>
<clipPath id="clip0_4972_3554">
<rect width="72" height="72" fill="white" transform="translate(0 0.296875)"/>
</clipPath>
</defs>
</svg>
