<svg width="72" height="73" viewBox="0 0 72 73" fill="none" xmlns="http://www.w3.org/2000/svg">
<path d="M65.2206 32.1561C66.1457 30.0746 66.6661 27.7618 66.6661 25.3333C66.6661 16.0388 59.1351 8.50781 49.8405 8.50781C41.6735 8.50781 34.8653 14.3331 33.333 22.0521C32.1044 21.5461 30.7601 21.257 29.3435 21.257C25.0937 21.257 21.4367 23.8011 19.8177 27.4437C17.7362 25.7959 15.1054 24.7985 12.2289 24.7985C5.47842 24.7985 0 30.2769 0 37.0274C0 43.7778 5.47842 49.2562 12.2289 49.2562H63.3559C68.126 49.2562 71.9999 45.3823 71.9999 40.6122C72.0144 36.4636 69.0945 33.0089 65.2206 32.1561Z" fill="#CAD3EA"/>
<path d="M26.2302 64.0836C25.9248 64.0836 25.6411 63.8885 25.5417 63.5831L19.7598 45.659C19.6369 45.2796 19.8465 44.8712 20.226 44.7502C20.6054 44.6273 21.0137 44.8351 21.1348 45.2163L26.9168 63.1404C27.0396 63.5199 26.83 63.9282 26.4506 64.0493C26.3783 64.071 26.3042 64.0836 26.2302 64.0836Z" fill="#3A4E70"/>
<path d="M34.8591 64.0839C34.5538 64.0839 34.2701 63.8887 34.1707 63.5815L31.0195 53.7956C30.8967 53.4161 31.1063 53.0078 31.4857 52.8867C31.8651 52.7639 32.2735 52.9734 32.3946 53.3529L35.5457 63.1389C35.6686 63.5183 35.459 63.9267 35.0796 64.0477C35.0073 64.0712 34.9332 64.0839 34.8591 64.0839Z" fill="#3A4E70"/>
<path d="M30.3655 50.1489C30.0602 50.1489 29.7765 49.9538 29.6771 49.6484L28.3906 45.6589C28.2678 45.2794 28.4773 44.8711 28.8568 44.75C29.2362 44.6271 29.6446 44.8367 29.7656 45.2162L31.0521 49.2057C31.175 49.5852 30.9654 49.9935 30.586 50.1146C30.5137 50.1363 30.4396 50.1489 30.3655 50.1489Z" fill="#3A4E70"/>
<path d="M49.9024 52.1883C49.5031 52.1883 49.1797 51.8649 49.1797 51.4656V45.4415C49.1797 45.0422 49.5031 44.7188 49.9024 44.7188C50.3018 44.7188 50.6252 45.0422 50.6252 45.4415V51.4656C50.6252 51.8649 50.3018 52.1883 49.9024 52.1883Z" fill="#3A4E70"/>
<path d="M47.2939 50.684C47.0446 50.684 46.8007 50.5539 46.667 50.3226C46.4682 49.9775 46.5856 49.5348 46.9308 49.336L52.149 46.324C52.4941 46.1235 52.9368 46.2427 53.1355 46.5878C53.3361 46.9329 53.2168 47.3756 52.8717 47.5744L47.6535 50.5864C47.5397 50.6533 47.4168 50.684 47.2939 50.684Z" fill="#3A4E70"/>
<path d="M52.5112 50.684C52.3883 50.684 52.2636 50.6533 52.1498 50.5864L46.9316 47.5744C46.5864 47.3756 46.4672 46.9329 46.6678 46.5878C46.8665 46.2427 47.3092 46.1235 47.6543 46.324L52.8725 49.336C53.2176 49.5348 53.3369 49.9775 53.1363 50.3226C53.0026 50.5557 52.7605 50.684 52.5112 50.684Z" fill="#3A4E70"/>
<path d="M55.6349 63.8641C55.2355 63.8641 54.9121 63.5407 54.9121 63.1414V57.1173C54.9121 56.718 55.2355 56.3945 55.6349 56.3945C56.0342 56.3945 56.3576 56.718 56.3576 57.1173V63.1414C56.3576 63.5407 56.0342 63.8641 55.6349 63.8641Z" fill="#3A4E70"/>
<path d="M53.0244 62.3559C52.7751 62.3559 52.5311 62.2258 52.3974 61.9945C52.1987 61.6494 52.3161 61.2067 52.6612 61.0079L57.8795 57.9959C58.2246 57.7953 58.6673 57.9146 58.866 58.2597C59.0648 58.6048 58.9473 59.0475 58.6022 59.2462L53.384 62.2583C53.2719 62.3251 53.1473 62.3559 53.0244 62.3559Z" fill="#3A4E70"/>
<path d="M58.2416 62.3559C58.1188 62.3559 57.9941 62.3251 57.8803 62.2583L52.662 59.2462C52.3169 59.0475 52.1977 58.6048 52.3982 58.2597C52.597 57.9146 53.0397 57.7953 53.3848 57.9959L58.603 61.0079C58.9481 61.2067 59.0674 61.6494 58.8668 61.9945C58.7349 62.2276 58.4928 62.3559 58.2416 62.3559Z" fill="#3A4E70"/>
<path d="M39.1017 52.1883C38.7023 52.1883 38.3789 51.8649 38.3789 51.4656V45.4415C38.3789 45.0422 38.7023 44.7188 39.1017 44.7188C39.501 44.7188 39.8244 45.0422 39.8244 45.4415V51.4656C39.8244 51.8649 39.501 52.1883 39.1017 52.1883Z" fill="#3A4E70"/>
<path d="M36.4932 50.684C36.2438 50.684 35.9999 50.5539 35.8662 50.3226C35.6674 49.9775 35.7849 49.5348 36.13 49.336L41.3482 46.324C41.6933 46.1235 42.136 46.2427 42.3348 46.5878C42.5335 46.9329 42.4161 47.3756 42.0709 47.5744L36.8527 50.5864C36.7389 50.6533 36.616 50.684 36.4932 50.684Z" fill="#3A4E70"/>
<path d="M41.7104 50.684C41.5875 50.684 41.4628 50.6533 41.349 50.5864L36.1308 47.5744C35.7857 47.3756 35.6664 46.9329 35.867 46.5878C36.0657 46.2427 36.5084 46.1235 36.8535 46.324L42.0718 49.336C42.4169 49.5348 42.5361 49.9775 42.3356 50.3226C42.2019 50.5557 41.9597 50.684 41.7104 50.684Z" fill="#3A4E70"/>
<path d="M44.836 63.8641C44.4367 63.8641 44.1133 63.5407 44.1133 63.1414V57.1173C44.1133 56.718 44.4367 56.3945 44.836 56.3945C45.2353 56.3945 45.5588 56.718 45.5588 57.1173V63.1414C45.5588 63.5407 45.2353 63.8641 44.836 63.8641Z" fill="#3A4E70"/>
<path d="M42.2264 62.3559C41.9771 62.3559 41.7331 62.2258 41.5994 61.9945C41.3988 61.6494 41.5181 61.2067 41.8632 61.0079L47.0814 57.9959C47.4266 57.7953 47.8692 57.9146 48.068 58.2597C48.2667 58.6048 48.1493 59.0475 47.8042 59.2462L42.586 62.2583C42.4739 62.3251 42.3493 62.3559 42.2264 62.3559Z" fill="#3A4E70"/>
<path d="M47.4428 62.3559C47.3199 62.3559 47.1953 62.3251 47.0814 62.2583L41.8632 59.2462C41.5181 59.0475 41.3988 58.6048 41.5994 58.2597C41.7982 57.9146 42.2409 57.7953 42.586 57.9959L47.8042 61.0079C48.1493 61.2067 48.2685 61.6494 48.068 61.9945C47.9361 62.2276 47.694 62.3559 47.4428 62.3559Z" fill="#3A4E70"/>
</svg>
