<svg width="72" height="72" viewBox="0 0 72 72" fill="none" xmlns="http://www.w3.org/2000/svg">
<g clip-path="url(#clip0_47_420)">
<path d="M36.0001 58.7501C48.5646 58.7501 58.7501 48.5645 58.7501 36C58.7501 23.4355 48.5646 13.2499 36.0001 13.2499C23.4355 13.2499 13.25 23.4355 13.25 36C13.25 48.5645 23.4355 58.7501 36.0001 58.7501Z" fill="#F9C815"/>
<path d="M62.7183 37.4956H72V34.5045H62.7183C62.7456 34.9984 62.7592 35.4979 62.7592 36C62.7592 36.5022 62.7456 37.0016 62.7183 37.4956Z" fill="#F9C815"/>
<path d="M55.95 18.1651L62.5136 11.6016L60.3985 9.48648L53.835 16.05C54.5773 16.716 55.2841 17.4228 55.95 18.1651Z" fill="#F9C815"/>
<path d="M37.4955 9.28178V0H34.5044V9.28178C34.9984 9.25449 35.4978 9.23812 36 9.23812C36.5021 9.24084 37.0016 9.25449 37.4955 9.28178Z" fill="#F9C815"/>
<path d="M18.1652 16.05L11.6017 9.48648L9.48657 11.6016L16.0501 18.1651C16.716 17.4228 17.4229 16.716 18.1652 16.05Z" fill="#F9C815"/>
<path d="M9.28178 34.5045H0V37.4956H9.28178C9.25449 37.0016 9.24085 36.5022 9.24085 36C9.24085 35.4979 9.25449 35.0012 9.28178 34.5045Z" fill="#F9C815"/>
<path d="M16.0501 53.8349L9.48657 60.3985L11.6017 62.5135L18.1652 55.95C17.4229 55.2841 16.716 54.5772 16.0501 53.8349Z" fill="#F9C815"/>
<path d="M34.5044 62.7182V72H37.4955V62.7182C37.0016 62.7455 36.5021 62.7591 36 62.7591C35.4978 62.7591 35.0011 62.7455 34.5044 62.7182Z" fill="#F9C815"/>
<path d="M53.835 55.95L60.3985 62.5135L62.5136 60.3985L55.95 53.8349C55.2841 54.5772 54.5773 55.2841 53.835 55.95Z" fill="#F9C815"/>
<path d="M60.2266 47.3669L68.837 50.8329L69.9532 48.0601L61.3428 44.5941C61.1845 45.0635 61.0098 45.5301 60.8242 45.9968C60.6359 46.4608 60.4367 46.9165 60.2266 47.3669Z" fill="#F9C815"/>
<path d="M61.1681 26.9065L69.7103 23.2686L68.5395 20.5176L59.9973 24.1556C60.4367 25.0507 60.827 25.9704 61.1681 26.9065Z" fill="#F9C815"/>
<path d="M47.3668 11.7735L50.8328 3.16306L48.06 2.04684L44.594 10.6573C45.0634 10.8155 45.5301 10.9902 45.9968 11.1758C46.4607 11.3641 46.9165 11.5633 47.3668 11.7735Z" fill="#F9C815"/>
<path d="M26.9064 10.8347L23.2712 2.29248L20.5203 3.46328L24.1582 12.0055C25.0506 11.5633 25.9703 11.1731 26.9064 10.8347Z" fill="#F9C815"/>
<path d="M11.7735 24.6332L3.16309 21.1672L2.04688 23.94L10.6573 27.406C10.8156 26.9366 10.9902 26.4699 11.1758 26.0032C11.3641 25.5392 11.5634 25.0835 11.7735 24.6332Z" fill="#F9C815"/>
<path d="M10.8347 45.0934L2.29248 48.7314L3.46328 51.4823L12.0055 47.8444C11.5633 46.9493 11.1731 46.0323 10.8347 45.0934Z" fill="#F9C815"/>
<path d="M24.6332 60.2265L21.1672 68.8369L23.94 69.9531L27.406 61.3427C26.9366 61.1844 26.4699 61.0098 26.0033 60.8242C25.5393 60.6359 25.0835 60.4366 24.6332 60.2265Z" fill="#F9C815"/>
<path d="M45.0935 61.1681L48.7314 69.7102L51.4824 68.5394L47.8445 59.9973C46.9493 60.4366 46.0323 60.8269 45.0935 61.1681Z" fill="#F9C815"/>
</g>
<defs>
<clipPath id="clip0_47_420">
<rect width="72" height="72" fill="white"/>
</clipPath>
</defs>
</svg>
