<svg width="24" height="24" viewBox="0 0 24 24" fill="none" xmlns="http://www.w3.org/2000/svg">
<path d="M19.5387 22H5.38453C4.61981 22 4 21.3802 4 20.6155V3.38453C4 2.61981 4.61981 2 5.38453 2H16.8315C18.4293 3.59783 19.3254 4.49389 20.9232 6.09172V20.6155C20.9232 21.3802 20.3034 22 19.5387 22Z" fill="#237045"/>
<path opacity="0.5" d="M16.8315 2H16V5.26296C16 6.10692 16.6839 6.79077 17.5278 6.79077H20.9232V6.09172C19.1598 4.32836 18.5948 3.76337 16.8315 2Z" fill="white"/>
<path d="M14.6632 17.6823H17.2407L13.7509 12.3857L16.7485 7.83594H14.171L12.4619 10.4297L10.7533 7.83594H8.17586L11.1734 12.3857L7.68359 17.6823H9.42145H10.2611H12.7083V15.9738H11.3867L12.4619 14.3418L14.6632 17.6823Z" fill="white"/>
</svg>
