<svg width="24" height="24" viewBox="0 0 24 24" fill="none" xmlns="http://www.w3.org/2000/svg">
<path d="M12.9844 7.12805V3.22561C12.9844 2.6868 13.4212 2.25 13.96 2.25C14.4988 2.25 14.9356 2.6868 14.9356 3.22561V7.12805H18.838C19.3768 7.12805 19.8136 7.56484 19.8136 8.10366C19.8136 8.64247 19.3768 9.07927 18.838 9.07927H14.9356C14.4181 9.07927 13.9219 8.87355 13.556 8.50762C13.1901 8.1417 12.9844 7.64555 12.9844 7.12805Z" fill="#4F4F4F"/>
<path d="M4.20312 18.8354V5.17683C4.20312 4.40059 4.51171 3.65636 5.06059 3.10747C5.60948 2.55858 6.35371 2.25 7.12995 2.25H13.9592L14.0554 2.25476C14.2789 2.2769 14.4889 2.37568 14.649 2.53582L19.5271 7.41387C19.71 7.59683 19.8129 7.84491 19.8129 8.10366V12.9817C19.8129 13.5205 19.3761 13.9573 18.8373 13.9573C18.2985 13.9573 17.8617 13.5205 17.8617 12.9817V8.50762L13.5553 4.20122H7.12995C6.87121 4.20122 6.62313 4.30408 6.44017 4.48704C6.25721 4.67 6.15434 4.91808 6.15434 5.17683V18.8354L6.15911 18.9316C6.18124 19.155 6.28003 19.365 6.44017 19.5252C6.62313 19.7081 6.87121 19.811 7.12995 19.811H11.5202C12.059 19.811 12.4958 20.2478 12.4958 20.7866C12.4958 21.3254 12.059 21.7622 11.5202 21.7622H7.12995C6.35371 21.7622 5.60948 21.4536 5.06059 20.9047C4.51171 20.3558 4.20313 19.6116 4.20312 18.8354Z" fill="#4F4F4F"/>
<path d="M15.6418 17.7759V21.2744C15.6418 21.8132 16.0786 22.25 16.6174 22.25C17.1562 22.25 17.593 21.8132 17.593 21.2744V17.7759L18.8544 19.0373L18.9287 19.104C19.3119 19.4166 19.8768 19.3945 20.234 19.0373C20.5912 18.6802 20.6132 18.1153 20.3007 17.7321L20.234 17.6578L17.3072 14.7309C16.95 14.3738 16.3851 14.3517 16.0019 14.6643L15.9276 14.7309L13.0008 17.6578C12.6198 18.0388 12.6198 18.6563 13.0008 19.0373C13.3818 19.4183 13.9993 19.4183 14.3803 19.0373L15.6418 17.7759Z" fill="#4F4F4F"/>
</svg>
