<svg width="24" height="24" viewBox="0 0 24 24" fill="none" xmlns="http://www.w3.org/2000/svg">
<path d="M21.6109 3.5H16.7184C16.1811 3.5 15.7258 3.84193 15.5656 4.31593C15.5082 4.48589 15.3457 4.60016 15.163 4.60016H2.6102C2.27319 4.60016 2 4.86802 2 5.19847V15.1875C2 15.5179 2.27319 15.7858 2.6102 15.7858H21.3901C21.7271 15.7858 22.0003 15.5179 22.0003 15.1875V5.35407V5.19875V3.88155C22 3.67082 21.8258 3.5 21.6109 3.5Z" fill="#FBB03C"/>
<path d="M21.192 6.35547H2.80859V15.0336H21.192V6.35547Z" fill="white"/>
<path d="M2.6102 20.4981H21.3901C21.7271 20.4981 22.0003 20.2303 22.0003 19.8998V8.91081C22.0003 8.58036 21.7271 8.3125 21.3901 8.3125H2.6102C2.27319 8.3125 2 8.58036 2 8.91081V19.8998C2 20.2303 2.27319 20.4981 2.6102 20.4981Z" fill="#FFCC02"/>
</svg>
