<svg width="24" height="24" viewBox="0 0 24 24" fill="none" xmlns="http://www.w3.org/2000/svg">
<path d="M18 22V18.4141L16.707 19.707C16.3165 20.0976 15.6835 20.0976 15.293 19.707C14.9024 19.3165 14.9024 18.6835 15.293 18.293L18.293 15.293L18.3691 15.2246C18.7619 14.9043 19.3409 14.9269 19.707 15.293L22.707 18.293L22.7754 18.3691C23.0957 18.7619 23.0731 19.3409 22.707 19.707C22.3409 20.0731 21.7619 20.0957 21.3691 19.7754L21.293 19.707L20 18.4141V22C20 22.5523 19.5523 23 19 23C18.4477 23 18 22.5523 18 22ZM2 17V6C2 5.20435 2.3163 4.44152 2.87891 3.87891C3.44152 3.3163 4.20435 3 5 3H9L9.09863 3.00488C9.32763 3.02757 9.54289 3.12883 9.70703 3.29297L12.4141 6H19C19.7957 6 20.5585 6.3163 21.1211 6.87891C21.6837 7.44151 22 8.20435 22 9V12.5C22 13.0523 21.5523 13.5 21 13.5C20.4477 13.5 20 13.0523 20 12.5V9C20 8.73478 19.8946 8.48051 19.707 8.29297C19.5429 8.12883 19.3276 8.02757 19.0986 8.00488L19 8H12C11.7348 8 11.4805 7.89457 11.293 7.70703L8.58594 5H5C4.73478 5 4.4805 5.10543 4.29297 5.29297C4.10543 5.4805 4 5.73478 4 6V17C4 17.2652 4.10543 17.5195 4.29297 17.707C4.48051 17.8946 4.73478 18 5 18H12C12.5523 18 13 18.4477 13 19C13 19.5523 12.5523 20 12 20H5C4.20435 20 3.44151 19.6837 2.87891 19.1211C2.3163 18.5585 2 17.7956 2 17Z" fill="#4F4F4F"/>
</svg>
