<svg width="24" height="24" viewBox="0 0 24 24" fill="none" xmlns="http://www.w3.org/2000/svg">
<path d="M19.5387 22H5.38453C4.61981 22 4 21.3802 4 20.6155V3.38453C4 2.61981 4.61981 2 5.38453 2H16.8315C18.4293 3.59783 19.3254 4.49389 20.9232 6.09172V20.6155C20.9232 21.3802 20.3034 22 19.5387 22Z" fill="#EC1E24"/>
<path opacity="0.5" d="M16.8315 2H16V5.26296C16 6.10692 16.6839 6.79077 17.5278 6.79077H20.9232V6.09172C19.1598 4.32836 18.5948 3.76337 16.8315 2Z" fill="white"/>
<path d="M19.1463 14.837C19.1463 14.837 19.7889 13.3982 15.1517 14.055C15.1517 14.055 13.3357 13.4824 12.1346 10.4094C12.1346 10.4094 12.4142 8.67748 12.4 7.88128C12.4 7.88128 12.0087 9.36187 11.911 9.62727C11.911 9.62727 11.1289 6.7502 11.7992 6.1076C11.7992 6.1076 12.2557 6.20529 12.4603 7.62999C12.4603 7.62999 12.7626 5.98603 11.7569 5.92578C11.7569 5.92578 10.9889 5.96757 10.933 6.69376C10.933 6.69376 10.8212 8.81696 11.5056 10.7024C11.5056 10.7024 8.13952 18.6216 6.22582 18.887C6.22582 18.887 6.044 18.1326 8.48851 16.0658C8.48851 16.0658 4.74522 18.1608 6.00221 18.957C6.00221 18.957 6.61659 19.5437 7.5805 18.7057C7.5805 18.7057 8.48851 18.0213 9.6478 15.7727C9.6478 15.7727 12.0782 14.9488 14.8017 14.5434C14.8017 14.5434 18.5591 16.6666 19.1452 15.186V15.0183C19.1452 15.0183 18.838 15.9681 15.835 14.4175C15.8361 14.418 18.6855 14.0826 19.1463 14.837ZM9.81659 15.4096C10.8782 13.8313 11.8139 11.4151 11.8139 11.4151C12.6796 13.2028 14.2161 14.1944 14.2161 14.1944C12.1493 14.5716 9.81659 15.4096 9.81659 15.4096Z" fill="white"/>
</svg>
