<svg width="24" height="24" viewBox="0 0 24 24" fill="none" xmlns="http://www.w3.org/2000/svg">
<path d="M19.5387 22H5.38453C4.61981 22 4 21.3802 4 20.6155V3.38453C4 2.61981 4.61981 2 5.38453 2H16.8315C18.4293 3.59783 19.3254 4.49389 20.9232 6.09172V20.6155C20.9232 21.3802 20.3034 22 19.5387 22Z" fill="#D04527"/>
<path opacity="0.5" d="M16.8315 2H16V5.26296C16 6.10692 16.6839 6.79077 17.5278 6.79077H20.9232V6.09172C19.1598 4.32836 18.5948 3.76337 16.8315 2Z" fill="white"/>
<path d="M8.55469 7.83594H13.6119C14.7132 7.83594 15.5381 8.09808 16.0868 8.62183C16.6356 9.14557 16.9096 9.8913 16.9096 10.8585C16.9096 11.8522 16.6106 12.6294 16.013 13.189C15.4155 13.7486 14.5031 14.0286 13.276 14.0286H11.6103V17.6823H8.55469V7.83594ZM11.6109 12.034H12.3566C12.9433 12.034 13.3552 11.932 13.5924 11.7285C13.8296 11.5249 13.9484 11.2639 13.9484 10.9458C13.9484 10.637 13.8453 10.3749 13.6396 10.16C13.4334 9.94503 13.0464 9.83757 12.4776 9.83757H11.6114V12.034H11.6109Z" fill="white"/>
</svg>
