<svg width="24" height="24" viewBox="0 0 24 24" fill="none" xmlns="http://www.w3.org/2000/svg">
<path d="M19.5387 22H5.38453C4.61981 22 4 21.3802 4 20.6155V3.38453C4 2.61981 4.61981 2 5.38453 2H16.8315C18.4293 3.59783 19.3254 4.49389 20.9232 6.09172V20.6155C20.9232 21.3802 20.3034 22 19.5387 22Z" fill="#295694"/>
<path opacity="0.5" d="M16.8315 2H16V5.26296C16 6.10692 16.6839 6.79077 17.5278 6.79077H20.9232V6.09172C19.1598 4.32836 18.5948 3.76337 16.8315 2Z" fill="white"/>
<path d="M16.2108 11.1684C16.4062 10.7912 16.5506 10.4824 16.6439 10.2425C16.7373 10.0026 16.7839 9.80288 16.7839 9.64277C16.7839 9.5098 16.7682 9.40288 16.7373 9.32309C16.7063 9.24331 16.6483 9.17655 16.5641 9.12337C16.48 9.07018 16.3644 9.03219 16.2179 9.00993L16.3177 8.57031H19.1487L19.0488 9.00993C18.9023 9.03653 18.7726 9.08972 18.6591 9.17004C18.5457 9.24982 18.4382 9.35674 18.3362 9.48972C18.2342 9.62269 18.1343 9.7752 18.0366 9.94616C17.9389 10.1171 17.8076 10.3559 17.6437 10.662L13.8271 17.709H12.2287L12.2152 13.4197V12.2875C12.2152 11.9988 12.2173 11.697 12.2217 11.3817H12.1348C11.9883 11.697 11.864 11.9614 11.762 12.1741L8.97771 17.709H7.37879L7.24582 10.6219C7.2366 10.2002 7.20457 9.88049 7.14921 9.66285C7.09385 9.44521 7.0195 9.2889 6.92615 9.19338C6.8328 9.09786 6.702 9.03707 6.5332 9.01048L6.63307 8.57086H10.0437L9.94379 9.01048C9.81516 9.02839 9.70498 9.05824 9.6138 9.10057C9.52262 9.1429 9.44718 9.20478 9.38748 9.28727C9.32778 9.36923 9.28544 9.47506 9.26102 9.60369C9.2366 9.73232 9.22194 9.8501 9.2176 9.95647L9.21109 10.7358L9.18449 13.2401C9.18015 13.6086 9.16875 14.0525 9.15138 14.5725L9.11828 15.3649H9.20512C9.30715 15.1386 9.41733 14.903 9.53456 14.6588C9.65233 14.4145 9.86672 13.9814 10.1772 13.36L12.5815 8.57086H14.0399L14.0464 12.9339L14.0529 13.5266C14.0529 14.1486 14.0371 14.7614 14.0062 15.3649H14.0925C14.3009 14.9296 14.6765 14.1768 15.2181 13.1071L16.2108 11.1684Z" fill="white"/>
</svg>
